<?xml version="1.0" encoding="UTF-8" standalone="no"?>
<svg
   xmlns:dc="http://purl.org/dc/elements/1.1/"
   xmlns:cc="http://creativecommons.org/ns#"
   xmlns:rdf="http://www.w3.org/1999/02/22-rdf-syntax-ns#"
   xmlns:svg="http://www.w3.org/2000/svg"
   xmlns="http://www.w3.org/2000/svg"
   xml:space="preserve"
   style="enable-background:new 0 0 403 444;"
   viewBox="0 0 403 444"
   y="0px"
   x="0px"
   id="Layer_1"
   version="1.1"><metadata
   id="metadata255"><rdf:RDF><cc:Work
       rdf:about=""><dc:format>image/svg+xml</dc:format><dc:type
         rdf:resource="http://purl.org/dc/dcmitype/StillImage" /><dc:title></dc:title></cc:Work></rdf:RDF></metadata><defs
   id="defs253" />
<style
   id="style2"
   type="text/css">
	.st0{fill:#005844;}
	.st1{fill:#AA8A00;}
	.st2{fill:#00B5E2;}
	.st3{fill:#EF3340;}
	.st4{fill:#509E2F;}
	.st5{fill-rule:evenodd;clip-rule:evenodd;fill:#FFFFFF;}
	.st6{fill:#FFC600;}
</style>
<path
   id="path4"
   d="M166.8,426.2l1.8-3.3c1.2-2.3,1.5-5,1.1-7.5l-0.3-3.1l1.9,1.6c2.1,1.7,4.1,3.3,6.2,4.8l1.4,1L166.8,426.2z M401.5,257.9  c0-0.1,0-0.1,0-0.2c0-0.1,0-0.1,0-0.2c0-0.1-0.1-0.1-0.1-0.1c0,0-0.1-0.1-0.2-0.1c-0.1,0-0.1,0-0.2,0c-0.1,0-0.1,0-0.2,0  c-0.1,0-0.1,0.1-0.1,0.1c0,0-0.1,0.1-0.1,0.2c-2.1,6-4.5,12.3-7,17.6c-1.5,1.8-4.3,5.1-6.4,5.8c2.1-2.7,3.5-5.9,4-9.3  c3.6-6.6,6.4-13.6,8.4-20.8c0-0.1,0-0.1,0-0.2c0-0.1,0-0.1-0.1-0.2c0-0.1-0.1-0.1-0.1-0.1s-0.1-0.1-0.2-0.1c-0.1,0-0.1,0-0.2,0  c-0.1,0-0.1,0-0.2,0.1c-0.1,0-0.1,0.1-0.1,0.1c0,0.1-0.1,0.1-0.1,0.2c-1.7,6.4-4.1,12.6-7.1,18.5c0.3-2.7,0.4-5.3,0.3-8  c3-6.2,5.2-12.7,6.6-19.5c0-0.1,0-0.1,0-0.2c0-0.1,0-0.1-0.1-0.2c0-0.1-0.1-0.1-0.1-0.1c0,0-0.1-0.1-0.2-0.1c-0.1,0-0.2,0-0.3,0.1  c-0.1,0.1-0.2,0.2-0.2,0.3c-1.3,6.1-3.2,12-5.7,17.7c0-1.8-0.1-3.4-0.1-4.7c0-0.8,0-1.6,0-2.3c2.4-7.9,4.3-15.9,5.7-24  c0-0.1,0-0.1,0-0.2c0-0.1,0-0.1-0.1-0.2c0,0-0.1-0.1-0.1-0.1c-0.1,0-0.1-0.1-0.2-0.1c-0.1,0-0.2,0-0.3,0.1c-0.1,0.1-0.2,0.2-0.2,0.3  c-1.6,8.8-3.7,17.5-6.4,26.1c-0.7,1-1.4,2-2.1,2.9c-0.4,0.4-0.7,0.8-0.9,1.1c-0.9,1.3-2,2.9-3.1,4.7c2.4-7.7,4.9-16.3,6.4-23  c0-0.1,0-0.2-0.1-0.3c-0.1-0.1-0.2-0.2-0.3-0.2c-0.1,0-0.2,0-0.3,0.1c-0.1,0.1-0.2,0.2-0.2,0.3c-1.6,7.7-4.7,18-7.5,26.4  c-1.9,3-3.4,6.3-4.4,9.7c-0.5-3.3-0.4-6.7,0.5-10c3-8,5.6-16.1,7.8-24.3c0-0.1,0-0.1,0-0.2c0-0.1,0-0.1-0.1-0.2  c0-0.1-0.1-0.1-0.1-0.1c0,0-0.1-0.1-0.2-0.1c-0.1,0-0.1,0-0.2,0c-0.1,0-0.1,0-0.2,0.1c-0.1,0-0.1,0.1-0.1,0.1c0,0.1-0.1,0.1-0.1,0.2  c-2.6,9.8-5.8,19.5-9.6,28.8c-0.1,0.1-0.1,0.2-0.1,0.2c-3,4.1-5.3,8.7-6.6,13.7c-1.4-5.9,3.2-17.3,4.6-21.4c0,0,0,0,0,0  C358.9,294,336,318.4,307,337.9c-29,19.5-62.9,30.4-97.9,31.5c-1.9,0.1-3.9,0.1-5.8,0.1c-40.4,0-79.6-13.1-111.9-37.4  c-32.3-24.3-55.8-55.5-67-94.3c-2.3-3.4-5.6-6.6-8.9-6.6c-0.9,0.1-1.7,0.3-2.5,0.7c-0.8,0.4-1.4,1-1.9,1.7c-6.3,7,1.7,14.9,2.7,15.7  c0.5,0.5,0.9,1.1,1.1,1.7c0.2,0.7,0.3,1.4,0.2,2c-0.2,1.1-1.1,1.9-2.6,2.5c-1.2,0.4-2.2,1.1-3.1,2.1c-0.8,1-1.4,2.1-1.6,3.3  c-0.2,1.5,0,3,0.5,4.4l0.9,2l-2.2-0.3C6.6,267,6,267,5.5,267c-1.7-0.1-3.4,0.4-4.8,1.5c-0.3,0.3-0.5,0.6-0.6,0.9  C0,269.7,0,270.1,0,270.4c0.6,5.2,7.6,10.3,7.6,10.3c-0.1,0.4-0.1,0.9,0,1.3c0.1,0.4,0.3,0.9,0.5,1.2c0.3,0.4,0.6,0.7,1,0.9  c0.4,0.2,0.8,0.4,1.3,0.5c0.9,0.3,1.9,0.4,2.9,0.4c0.4,0,0.8,0,1.2-0.1c0,0,1.2-0.1,1.9-0.2c-3.5,3.2-1.2,18.3,13.7,19.8  c0.7,0.1,1.4,0.1,2.1,0c-6.9,9.4,4.9,14.2,4.9,18c0,1.6-1.9,3.1-3.6,4.1c-2.3,1.3-5.1,2.3-5.1,5.9c0,4.1,2.4,8.1,11.8,8.1  c3.3,0,6.9,0.3,6.9,2.7c0,1-1.3,2.1-2.7,3c-1.7,1.2-3.7,2.4-3.7,4.5c0,0.5-0.1,5,6.9,7.4l2.9,0.9l-2.7,1.3c-0.8,0.3-1.4,0.8-1.9,1.4  c-0.5,0.7-0.8,1.4-0.8,2.2c-0.1,2.1,1.7,4.1,5.5,5.6c2.8,1,5.7,1.7,8.7,1.9l0.2,0.5l0.3,0.4c0.3,0.3,0.6,0.6,1,0.8  c0.4,0.2,0.8,0.3,1.2,0.4l1.2,0.1l0,1.2c0,0.8,0.2,1.5,0.5,2.2c0.3,0.7,0.8,1.3,1.4,1.8c1.5,1.6,3.2,3,5,4.3l3,2.1l-3.6,0.2  c-5.7,0.3-10.5,3.7-11.3,7.9c-0.2,1-0.2,2,0,3c0.2,1,0.6,1.9,1.2,2.8c1.7,1.9,4.1,3.2,6.6,3.4c0.2,0,0.5,0,0.7,0  c1.6-0.1,3.2-0.3,4.8-0.8c3-0.7,4-0.7,5.3,3.2c1.1,3.2,1.9,5.4,4.9,5.4l1.9,0c0,0-3.8,11.1,0.8,15.2c0.6,0.4,1.3,0.6,2,0.5  c2.5,0,5.9-3.2,8.5-6.4c3.6-4.3,6.6-4.7,7-4.7l0.4,0l0.3,0.2c1.2,0.7,2.5,1.2,3.9,1.4c0.7,0.2,1.4,0.5,2,1c0.6,0.5,1,1.2,1.2,1.9  c0.2,0.8,0.2,1.6-0.1,2.3c-0.2,0.8-0.7,1.4-1.3,1.9c-1.9,2-2.9,4.7-2.9,7.4c-0.1,1.2,0.1,2.4,0.5,3.6c0.4,1.1,1,2.2,1.8,3.1  c0.8,0.8,1.8,1.5,2.9,1.9c1.1,0.4,2.3,0.6,3.4,0.6c1.4,0.1,2.9-0.1,4.2-0.7c1.3-0.6,2.5-1.4,3.4-2.5c1.8-2.1,2.8-4.8,2.6-7.6  c-0.1-0.5-0.1-1.1,0-1.6c0.1-0.5,0.4-1,0.7-1.5c0.2-0.3,0.5-0.5,0.9-0.6c0.3-0.1,0.7-0.2,1-0.2c0.8,0,1.5,0.3,2.1,0.7  c1.5,1.3,3.4,2.1,5.3,2.2c1.4,0,2.8-0.6,3.9-1.4c0.9-0.6,1.6-1.5,2-2.6l0.6-1.8l1.4,1.4c0.6,0.6,1.3,1.2,2.1,1.5  c0.8,0.4,1.7,0.5,2.6,0.5c1.7,0,3.3-0.5,4.7-1.4l1.8-1.4l0.1,2.3v0.3c0,0.6,0.2,1.2,0.5,1.8c0.3,0.5,0.7,1,1.3,1.4  c2.5,1.6,6.9-0.4,6.9-0.4s-6.7,3.9-7.5,4.6c-0.2,0.2-0.4,0.4-0.5,0.7c-0.1,0.3-0.1,0.6-0.1,0.9c0.3,2.2,4.2,3,6.8,3  c0.9,0,1.8-0.1,2.6-0.3c1.3-0.3,2.5-0.8,3.6-1.4c0,0,11.4-8.4,19.9-11.4c-6.1,3.5-11.9,7.4-17.6,11.6c-0.5,0.4-0.9,0.8-1.1,1.4  c-0.2,0.6-0.3,1.2-0.2,1.8c0.6,2.6,5.9,3.1,7.4,3.1c2.7,0,8.3-1.3,10.1-3l0,0c0.1-0.1,0.2-0.2,0.3-0.4l0.1-0.1  c3.1-3.4,6.6-6.4,10.5-8.9l0.6-0.4l0.7,0.4c3.9,2.2,12,7,16.3,9.5l1.3,0.8l0-0.1l1.4,0.9c0.6,0.4,1.4,0.6,2.1,0.7  c1.2,0.2,2.4,0.2,3.7,0.2c7.5,0,12.8-3,12.9-5.6c0-0.5-0.1-1-0.4-1.4c-0.3-0.4-0.7-0.7-1.1-0.9l-0.1-0.1c-3.5-1.5-16-7.4-24.8-11.7  l7.2,0.7l0.6,0.2c4.4,0.5,15.1,6.6,21,10.2l0.2,0.1c1.3,0.6,2.7,0.9,4.1,0.9c2.9,0,7.6-1.2,8.1-3.6c0.1-0.7,0-1.3-0.3-1.9  c-0.3-0.6-0.8-1-1.5-1.3l-27.9-11.1l0.6-2.2l0-0.1c15.5,6.6,31.3,12.3,47.3,17.1l-1.4,1.2c-1.9,1.5-7.5,5.2-19.5,7v0  c3.7,0.8,7.6,1.1,11.4,1c8.9-0.2,17.6-2.3,25.6-6.1c0.5-4.2,1.3-8.4,2.4-12.5l0.2-0.9l7.6-0.2l-1.6,2c-1.3,1.8-2.3,3.8-3,5.8  c5.9-2.5,11.6-5.7,16.9-9.3c2.5-3.1,4.3-6.6,5.2-10.5c-0.2-0.3-0.4-0.7-0.7-1c-7.6,0.9-27.6,2.2-34.1,1.3c0.3-0.3,1.7-1,2.4-1.4  c11.6-0.2,23.1-2.3,34.1-6.2c1.7-0.7,3.5-1.2,5.3-1.6c7.6-2.2,14.9-5.4,21.7-9.6c0.1,0,0.1-0.1,0.1-0.1c0,0,0.1-0.1,0.1-0.2  c0-0.1,0-0.1,0-0.2c0-0.1,0-0.1-0.1-0.2c0-0.1-0.1-0.1-0.1-0.1c0,0-0.1-0.1-0.2-0.1c-0.1,0-0.1,0-0.2,0c-0.1,0-0.1,0-0.2,0.1  c-12.2,7-19.9,9.5-28.7,11.1c-7.3,0.8-16.5-3.4-16.5-3.4c10.8,1.4,27-4.8,39.4-11.7c7.1-2.9,13.8-6.9,19.8-11.8c0,0,0.1-0.1,0.1-0.1  c0-0.1,0-0.1,0-0.2c0-0.1,0-0.1,0-0.2s0-0.1-0.1-0.2c0,0-0.1-0.1-0.1-0.1c-0.1,0-0.1,0-0.2,0c-0.1,0-0.1,0-0.2,0s-0.1,0-0.2,0.1  c-4.7,3.9-9.8,7.2-15.4,9.8c-6.8,2-13.9,2.5-20.9,1.4c7.5-0.6,17.3-5.6,25.1-10.5c8.9-4.5,17.3-9.8,25.2-15.9  c0.1-0.1,0.2-0.2,0.2-0.3c0-0.1,0-0.2-0.1-0.3c-0.1-0.1-0.2-0.2-0.3-0.2c-0.1,0-0.2,0-0.3,0.1c-6.4,4.9-13.1,9.3-20.2,13.2  c-5.4,1.1-11,1.1-16.4,0c11.2-0.7,20.2-6.4,28.6-13.4c6.5-4.2,12.7-9,18.4-14.4c0,0,0.1-0.1,0.1-0.1c0-0.1,0-0.1,0-0.2  c0-0.1,0-0.1,0-0.2c0-0.1-0.1-0.1-0.1-0.2c0,0-0.1-0.1-0.1-0.1c-0.1,0-0.1,0-0.2,0c-0.1,0-0.1,0-0.2,0c-0.1,0-0.1,0.1-0.2,0.1  c-5,4.7-10.4,9-16,12.8c-5.8,2-11.9,2.6-18,2c10.5-1,18.4-7.4,24.3-13.3c5.4-4.3,10.5-9.1,15.2-14.2c0.1-0.1,0.1-0.2,0.1-0.3  c0-0.1-0.1-0.2-0.1-0.3c-0.1-0.1-0.2-0.1-0.3-0.1c-0.1,0-0.2,0-0.3,0.1c-3.5,3.8-7.3,7.5-11.2,10.9c-3.2,1.8-6.8,2.7-10.5,2.6  c5-1.6,12.7-8.7,17.7-15.3c6.9-7.2,13.1-15,18.4-23.5c0-0.1,0.1-0.1,0.1-0.2c0-0.1,0-0.1,0-0.2c0-0.1,0-0.1-0.1-0.2  c0-0.1-0.1-0.1-0.1-0.1c-0.1,0-0.1-0.1-0.2-0.1c-0.1,0-0.1,0-0.2,0c-0.1,0-0.1,0-0.2,0.1c-0.1,0-0.1,0.1-0.1,0.1  c-5,7.9-10.8,15.3-17.1,22.1c-2.6,0.6-5.3,1-8,1.1c4.8-2.1,7.6-8,13.2-15.9c5.4-6,10.1-12.6,14-19.6c0.1-0.1,0.1-0.2,0-0.3  c0-0.1-0.1-0.2-0.2-0.3c-0.1-0.1-0.2-0.1-0.3,0c-0.1,0-0.2,0.1-0.3,0.2c-3.1,5.6-6.7,10.9-10.8,15.8c-1.7,1.8-4,2.9-6.4,3.3  c4-4.5,7.3-9.5,9.9-14.9c3.9-5.3,7.2-11.1,9.7-17.2c0-0.1,0-0.1,0-0.2s0-0.1,0-0.2c0-0.1-0.1-0.1-0.1-0.2c0,0-0.1-0.1-0.2-0.1  c-0.1,0-0.1,0-0.2,0c-0.1,0-0.1,0-0.2,0c-0.1,0-0.1,0.1-0.2,0.1c0,0-0.1,0.1-0.1,0.1c-2.5,6.3-5.8,12.1-9.9,17.5  c-1.5,1.4-3.2,2.4-5.1,3.1c5.7-5.5,7.7-13.1,9.6-19.8C396.4,271.4,399.2,264.7,401.5,257.9z" />
<g
   id="g36">
	<path
   id="path6"
   d="M46,296.2c4.3,3.3,4.5,5.2,3.6,6.9c-0.9,1.7-2.7,6,1.2,7.9c3.2,1.6,6.3-4.6,7.2-8.5   c-3.7-4.7-7.2-9.5-10.5-14.5c-0.8,0.3-1.5,0.7-2.1,1.4s-0.9,1.4-1.1,2.2c-0.2,0.8-0.1,1.7,0.2,2.5C44.9,295,45.4,295.7,46,296.2z"
   class="st0" />
	<path
   id="path8"
   d="M80.6,333.3c0.4,1.1,0.9,1.7,1.1,1.7h0c0.5-1.7,0.5-3.5,0-5.2c-0.5-1.7-1.5-3.2-2.8-4.4   c-0.7-0.6-1.6-0.9-2.6-1.1c-0.9-0.1-1.9,0-2.7,0.4C77.9,326.4,79.9,331.4,80.6,333.3z"
   class="st0" />
	<path
   id="path10"
   d="M179.8,410.4c-0.7-8.2-9.3-0.2-9.3-0.2c3.3,3.1,6.7,5.9,10.4,8.6c0.8-0.4,0.7-0.4,1.5-0.8l-0.6-1.1   C180.7,414.9,180,412.7,179.8,410.4z"
   class="st0" />
	<path
   id="path12"
   d="M149.7,415.8c-3.3,0-6.4-2.4-8.6-4.3c0,0-1.9-1.9-3.4-0.7c-1.1,0.9-0.4,3.4,0.4,4.8c1,1.4,1.7,2.9,2.3,4.4   c1.2,1.8,4.1,4.4,6.2,4c3.7-0.6,6.1-2.5,5.1-8.9C151.1,415.6,150.4,415.8,149.7,415.8z"
   class="st0" />
	<path
   id="path14"
   d="M38.2,283c-3.6-10-8.6-14.4-14.2-19.4l-0.8-0.7c-0.1-0.1-0.1-0.2-0.2-0.3c0-0.1,0-0.2,0.1-0.3   c0.1-0.1,0.2-0.1,0.3-0.2c0.1,0,0.2,0,0.3,0.1l0.8,0.7c4.7,3.7,8.6,8.2,11.6,13.3c-4.1-11.1-9.6-21.7-16.3-31.4   c-0.1-0.1-0.1-0.2-0.1-0.3c0-0.1,0.1-0.2,0.2-0.3c0.1-0.1,0.2-0.1,0.3-0.1c0.1,0,0.2,0.1,0.3,0.2c7.8,12,14.1,22.5,18.7,39   c3.8,5.5,0.6-7.9,0.6-7.9l0-0.1c-5.5-10-10-20.5-13.6-31.4l-0.1-0.1c-2-5.6-9.5-15.7-14.1-9.5c-3.1,4.1-3.2,7.3,3.7,15.2   c0.5,0.5,0.8,1.2,1,1.8c0.2,0.7,0.2,1.4,0.1,2.1c-0.1,0.7-0.4,1.3-0.8,1.9c-0.4,0.6-1,1-1.6,1.3c-7.2,3.2-5.5,7.5-2.4,9.7   c2.1,1.5,10.6,7.3,10.2,12c-0.4,4.8-5.9,5.4-5.7,11.4c0.1,3.8,3.9,12.9,13.1,13C36.8,302.7,41.6,293.5,38.2,283z"
   class="st0" />
	<path
   id="path16"
   d="M63.9,309.6c-2-0.3-6,0.1-7.3,1.5c-2,2.1-7,4.9-9.5-0.7c-2.9-6.4-5.5-9.8-11.8-6.2c-6.3,3.6-3.1,10.3,0,13.1   c3.1,3,7.2,6.3,1.8,9.4c-4.4,2.5-7.3,2.8-7.3,6.2c0,2.5,1.1,6.1,11.3,6.1c4,0,8.8,0.6,8.6,4.5c-0.3,5-7.3,4.3-7.3,7.4   c-0.1,3.3,3.4,6.5,11.9,7.1c3.1,0.2,6.2-0.7,8.8-2.5c-0.2-0.6-0.3-1.2-0.3-1.9c0.1-2.6,2.1-4.4,4.3-6.1c0.8-0.6,0.9-1,0.9-1   c0-0.2-0.2-1.2-3.5-3.9c-1.4-1.1-2.5-2.4-3.3-4c-2.2-1.9-4.4-4-6.6-6.3c-1.4,0.2-2.8,0.3-4.2,0.3c-3.7-0.1-7.5-0.5-11.1-1.3   c-0.1,0-0.2-0.1-0.3-0.2c-0.1-0.1-0.1-0.2-0.1-0.3c0-0.1,0.1-0.2,0.2-0.3c0.1-0.1,0.2-0.1,0.3-0.1c4.7,1.1,9.6,1.5,14.4,1.1   c-6.3-6.8-11.9-14.1-16.7-22c-0.1-0.1-0.1-0.2-0.1-0.3c0-0.1,0.1-0.2,0.2-0.3c0.1-0.1,0.2-0.1,0.3-0.1c0.1,0,0.2,0.1,0.3,0.2   c4.8,7.7,10.3,14.9,16.4,21.6c-0.3-5-0.2-10.1,0.5-15.1c0-0.1,0-0.1,0.1-0.2c0-0.1,0.1-0.1,0.1-0.1c0,0,0.1-0.1,0.2-0.1   c0.1,0,0.1,0,0.2,0c0.1,0,0.1,0,0.2,0.1c0.1,0,0.1,0.1,0.1,0.1c0,0,0.1,0.1,0.1,0.2c0,0.1,0,0.1,0,0.2c-0.7,5.3-0.8,10.7-0.4,16   c1.7,1.8,3.5,3.5,5.2,5.1c-0.6-2.1-0.6-4.3,0.3-6.3c0.8-2,2.3-3.7,4.2-4.7c1.8-1.1,3.8-1.7,5.8-1.8c0.5,0,0.9,0,1.4,0.1   c0-2.3-0.2-4.7-0.8-6.9C68.6,314.7,66.2,312.2,63.9,309.6z"
   class="st0" />
	<path
   id="path18"
   d="M78.9,333.4c-1.9-4.6-6.4-10.7-13.4-6.1c-5,3.3-5.2,9.8,0,14c4.4,3.5,5.6,5.1,2.1,7.8c-3.5,2.7-4.7,5.3-0.4,9   s7.1,6.3,5.3,8.9c-3.1,4.3-11.6,6.3-6.5,11.2c2,2.1,4.3,3.9,6.8,5.3c0-0.3,0-0.5,0-0.9c-0.1-1,0-2.1,0.3-3c0.3-1,0.8-1.9,1.5-2.7   c0.5-0.5,1.1-0.9,1.7-1.2c0.7-0.3,1.4-0.4,2.1-0.4c1.1,0,2.2,0.3,3.2,0.9c1.2,0.8,2.6,1.3,4.1,1.3c1.1,0,2.1-0.3,3-0.8   c0.8-0.5,1.3-1.3,1.6-2.2h0c-3.9-0.8-7.7-2.1-11.2-4c-0.1,0-0.1-0.1-0.2-0.1c0,0-0.1-0.1-0.1-0.2c0-0.1,0-0.1,0-0.2   c0-0.1,0-0.1,0-0.2c0-0.1,0.1-0.1,0.1-0.1c0,0,0.1-0.1,0.2-0.1c0.1,0,0.1,0,0.2,0c0.1,0,0.1,0,0.2,0.1c3.4,1.8,7.1,3.1,10.8,3.9   c0.1,0,0.1,0,0.2,0.1c0,0,0-0.1,0-0.1c0.2-1.3,0.5-2.7,1-3.9c0,0-0.1,0-0.1-0.1c-1.9-4.6-4.2-9.1-6.8-13.4c-2.5-1-5.1-1.7-7.7-2   c-2.3-0.4-4.9-0.9-7.4-1.5c-0.1,0-0.1,0-0.2-0.1c-0.1,0-0.1-0.1-0.1-0.1c0-0.1-0.1-0.1-0.1-0.2c0-0.1,0-0.1,0-0.2   c0-0.1,0-0.1,0.1-0.2c0,0,0.1-0.1,0.1-0.1c0.1,0,0.1,0,0.2-0.1c0.1,0,0.1,0,0.2,0c2.5,0.6,5.1,1.1,7.4,1.5c2.3,0.3,4.5,0.8,6.7,1.5   c-4.8-7.5-10.1-14.8-15.8-21.6c0,0-0.1-0.1-0.1-0.2c0-0.1,0-0.1,0-0.2c0-0.1,0-0.1,0.1-0.2c0-0.1,0.1-0.1,0.1-0.1   c0,0,0.1-0.1,0.2-0.1c0.1,0,0.1,0,0.2,0c0.1,0,0.1,0,0.2,0.1c0.1,0,0.1,0.1,0.1,0.1c5.8,6.9,11.1,14.1,15.9,21.7   c0.1-6.7,0.9-12.8,2-14.9c0.1-0.1,0.2-0.2,0.3-0.2c0.1,0,0.2,0,0.3,0c0.1,0.1,0.2,0.2,0.2,0.3c0,0.1,0,0.2,0,0.3   c-0.9,1.8-1.9,7.9-1.9,15.9c2.5,4.1,4.6,8.4,6.5,12.8c0.8-1.3,1.8-2.4,3.1-3.2c0.7-0.5,1.5-0.8,2.3-1v-7.2c0-0.1,0-0.2,0.1-0.3   s0.2-0.1,0.3-0.1c0.1,0,0.2,0,0.3,0.1c0.1,0.1,0.1,0.2,0.1,0.3v7.1c0.2,0,0.3,0,0.5,0c5,0,11.2,5,14.9,9.7c1-0.2,1.9-0.3,2.9-0.3   c2.6,0,3.2-0.3,3.6-1.4c0.5-1.5,0-2.1-5.6-4.7c-0.7-0.3-1.5-0.7-2.3-1.1c-1.3-0.5-2.4-1.3-3.3-2.3c-0.9-1-1.6-2.2-1.9-3.6   c-0.2-1.3-0.2-2.7,0.1-4c0.3-1.3,0.9-2.5,1.6-3.6c-1.6-3.6-4.1-6.3-9.5-5.3c-2.5,0.5-5.8,1.4-6.9-4c-1.1-5.5-2.8-10.5-6.8-8.1   C82.8,337.6,80.7,338,78.9,333.4z"
   class="st0" />
	<path
   id="path20"
   d="M161.5,382.7L161.5,382.7c0.8-4.4-0.5-15.7-9.6-12.3c-7.2,2.7-8.3,2.2-8.8-2.5c-0.5-4.7-6-7.1-10.6-7   c-4.5,0.1-4.4,1.2-6.1-1.5c-1.7-2.7-12.2-8.1-12.2-8.1c-1.2,0.2-2.3,0.8-3.2,1.7c-2.5,3.2-4.5,9,1.4,11.8c6,2.8,10.6,2.9,9.4,7.5   c-1.5,5.6-7.8,1.1-9.3,5.3c-0.9,2.6,2.9,9.7,9.5,7.3c5.8-2.1,13.8-2.6,14.2,2c0.6,7.3-13.8,6.7-6.5,15.2c3.5,4,11.5,3.2,17.1,2.4   c2.6-0.6,4.9-2.1,6.4-4.3c-0.4-2-0.9-4-1.6-5.9c-5.5-1.7-8.9-1.9-11.8-0.6c-0.1,0-0.2,0-0.3,0c-0.1,0-0.2-0.1-0.3-0.2   c0-0.1-0.1-0.2,0-0.4c0-0.1,0.1-0.2,0.2-0.3c3.5-1.5,7.2-1,11.7,0.3c-3.2-7.8-8.8-12.4-14.6-16.5c-3.5,0.7-7,1.1-10.6,1.2   c-0.6,0-1.2,0-1.8-0.1c-0.1,0-0.1,0-0.2,0s-0.1-0.1-0.1-0.1c0,0-0.1-0.1-0.1-0.2c0-0.1,0-0.1,0-0.2c0-0.1,0.1-0.2,0.2-0.3   c0.1-0.1,0.2-0.1,0.3-0.1c3.8,0.1,7.5-0.2,11.2-0.9l-1.2-0.9c-6.4-4.4-13-9-16.4-17.5c0-0.1,0-0.2,0-0.4c0-0.1,0.1-0.2,0.3-0.2   c0.1,0,0.2,0,0.4,0c0.1,0,0.2,0.1,0.2,0.3c3.3,8.2,9.5,12.5,16.1,17.1c0.6,0.4,1.2,0.8,1.8,1.2c0-3.7-0.8-7.4-2.2-10.8   c0-0.1,0-0.1-0.1-0.2c0-0.1,0-0.1,0-0.2c0-0.1,0-0.1,0.1-0.2c0,0,0.1-0.1,0.1-0.1c0.1,0,0.1,0,0.2-0.1c0.1,0,0.1,0,0.2,0   c0.1,0,0.1,0,0.2,0.1c0,0,0.1,0.1,0.1,0.1c1.6,3.7,2.4,7.8,2.3,11.8c0,0,0,0.1,0,0.1c5.4,3.8,10.6,8.1,13.9,15.1   c-0.1-1.1-0.3-2.5-0.5-3.9c-0.6-3.3-0.9-6.6-1-10c0-0.1,0-0.1,0-0.2c0-0.1,0.1-0.1,0.1-0.1s0.1-0.1,0.1-0.1c0.1,0,0.1,0,0.2,0   c0.1,0,0.1,0,0.2,0c0.1,0,0.1,0.1,0.1,0.1c0,0,0.1,0.1,0.1,0.1c0,0.1,0,0.1,0,0.2c0.1,3.3,0.5,6.6,1,9.9c0.4,2.1,0.6,4.3,0.7,6.5   c0.7,1.8,1.2,3.6,1.6,5.4c0.3-0.5,0.6-1,0.8-1.6c1.3-3,2.8-6.3,4.1-9C160.3,386.7,161,384.7,161.5,382.7z"
   class="st0" />
	<path
   id="path22"
   d="M150.4,405.4c-3.3,1.2-6.9,1.7-10.4,1.6c-4.8,0-8.3-1.1-10.8-3.5c-0.1-0.1-0.3-0.3-0.4-0.4   c-1.1,1.1-2.2,2.3-3.1,3.6c-0.1,4.6,1,9.1,3.2,13.1c0.1,0.1,0.1,0.2,0.1,0.3c0,0.1-0.1,0.2-0.2,0.3c-0.1,0.1-0.2,0.1-0.3,0.1   c-0.1,0-0.2-0.1-0.3-0.2c-2.2-3.8-3.3-8.1-3.3-12.4c-4.8,7.4-7.7,15.8-8.4,24.5c0,0.1-0.1,0.2-0.1,0.3c-0.1,0.1-0.2,0.1-0.3,0.1h0   c-0.1,0-0.2-0.1-0.3-0.2c-0.1-0.1-0.1-0.2-0.1-0.3c0.7-8.5,3.5-16.7,8-24c-2.3,1.6-6.2,4.4-8.5,6.4c-0.1,0.1-0.2,0.1-0.3,0.1   c-0.1,0-0.2-0.1-0.3-0.2c-0.1-0.1-0.1-0.2-0.1-0.3c0-0.1,0-0.2,0.1-0.3c3.5-3,10.2-7.6,10.6-7.9c1-1.3,2.1-2.6,3.3-3.8   c-0.6-0.6-1.1-1.4-1.4-2.2c-0.3-0.8-0.5-1.7-0.4-2.6c0.3-2.8,2.7-4.5,4.9-5.9c0.7-0.5,1.3-0.9,1.9-1.3c-0.7-0.8-1.2-1.4-1.6-1.8   c-1-0.9-2.2-1.6-3.4-2.1c-1.3-0.4-2.6-0.6-4-0.5c-0.3,0.1-0.5,0.1-0.8,0.2c-0.9,0.3-1.9,0.6-2.9,0.6c-2.9,1.5-1.8,4.6,0.3,5.8   c0.6,0.3,1.2,0.8,1.5,1.4c0.4,0.6,0.6,1.3,0.6,2c0,0.7-0.2,1.4-0.5,2c-0.3,0.6-0.9,1.1-1.5,1.5c-3.5,2.3-7.5,3.7-11.7,4.1   c-5.7,1-8.1,3.3-8.3,6.1c-0.4,6.2,7.2,3.9,9.3,6.2c0.6,0.7,1,1.4,1.3,2.3c0.3,0.8,0.4,1.7,0.3,2.6c-0.1,0.9-0.3,1.7-0.8,2.5   c-0.4,0.8-1,1.4-1.7,2c-0.8,0.7-1.5,1.6-1.9,2.7c-0.4,1-0.7,2.1-0.6,3.2c0,1.1,0.3,2.2,0.8,3.2c0.5,1,1.2,1.9,2,2.6   c3.7,3,10.6,1.3,11.7-3.8c1-5-0.4-8.1,3.3-9.4c3.7-1.3,7.7,5,12.8,1.7c5.1-3.3-1.7-8.3-1.9-12.7c-0.2-4.4,4-5.4,6.6-3.1   c2.6,2.3,6.5,6,9.5,3.4C153.9,411.2,153.4,407.8,150.4,405.4z"
   class="st0" />
	<path
   id="path24"
   d="M210.8,418.9c3.3-4,3-11.2-4.8-15c-7-3.4,6.3-8.2,1.6-13.2c-4.7-5.1-7.5-2.6-15.7-3.1   c-8.2-0.5-2.5-6.9-7.3-12.7c-2.3-2.8-5.8-2.6-9.6-0.7c-4.3,2.7-12.5,12.1-16.7,20.7c2.3-0.5,4.5-0.9,6.5-1.3   c5.9-2.8,11.3-6.6,16-11.1c0.1-0.1,0.2-0.1,0.3-0.2c0.1,0,0.2,0,0.3,0.1s0.1,0.2,0.1,0.3c0,0.1,0,0.2-0.1,0.3c-4,4-8.6,7.3-13.6,10   c6.8-1.1,11.8-1.1,16.6,0.8c3.9,1.1,14.6,2.6,18.8,0.8c0.1,0,0.2-0.1,0.4,0c0.1,0,0.2,0.1,0.3,0.2c0,0.1,0,0.2,0,0.4   c0,0.1-0.1,0.2-0.2,0.3c-3.6,1.5-11.1,0.8-15.9,0c4.7,2.9,9.6,8,16.1,16.1c0.1,0.1,0.1,0.2,0.1,0.3c0,0.1-0.1,0.2-0.2,0.3   c-0.1,0.1-0.2,0.1-0.3,0.1c-0.1,0-0.2-0.1-0.3-0.2c-6.4-8.1-11.2-13-15.9-15.9c3.6,3.7,3.5,6.6,3.3,10.3c0,0.1-0.1,0.2-0.1,0.3   c-0.1,0.1-0.2,0.1-0.3,0.1h0c-0.1,0-0.2-0.1-0.3-0.2c-0.1-0.1-0.1-0.2-0.1-0.3c0.2-4.4,0.3-7.2-5.6-11.8c-5-2-10.2-1.8-17.6-0.5   c2.4,1.2,4.3,3,5.7,5.2c0,0.1,0.1,0.1,0.1,0.2c0,0.1,0,0.1,0,0.2c0,0.1,0,0.1-0.1,0.2c0,0-0.1,0.1-0.1,0.1c-0.1,0-0.1,0.1-0.2,0.1   c-0.1,0-0.1,0-0.2,0c-0.1,0-0.1,0-0.2-0.1c0,0-0.1-0.1-0.1-0.1c-1.5-2.4-3.8-4.3-6.5-5.4c-2.2,0.4-4.5,0.9-7,1.5   c-1.1,2.3-1.8,4.7-2.1,7.2c0.1,1.1,0.5,2.2,1,3.2c0.6,1,1.3,1.9,2.2,2.5c9.2,7,10-2.8,17.8-3.7c6.3-0.7,3.7,5.6,6.7,10.9   c3,5.2,6.6,1,8.9-0.7c2.3-1.7,3.7-2.9,6.1,1.9c0.6,1.1,1.4,2,2.4,2.8c1,0.7,2.2,1.2,3.4,1.3c1.2,0.2,2.5,0,3.7-0.4   C208.9,420.5,210,419.8,210.8,418.9z"
   class="st0" />
	<path
   id="path26"
   d="M110,401.8c5.3-0.9,9.9-2.6,9.9-5.6c0-2-3.4-3.1-2.5-7c0-0.8-0.1-1.5-0.4-2.3c-0.1,0-0.2,0.1-0.3,0   c-2.9-0.6-5.9-1-8.9-1.1c-3.5,2.5-6.5,5.6-9.1,9c0,0.1-0.1,0.1-0.2,0.1c-0.1,0-0.1,0-0.2,0c-0.1,0-0.2,0-0.3-0.1   c0,0-0.1-0.1-0.1-0.1c0,0-0.1-0.1-0.1-0.2c0-0.1,0-0.1,0-0.2c0-0.1,0-0.1,0.1-0.2c2.4-3.2,5.2-6,8.3-8.5   c-5.1,0.2-10.1,1.2-14.9,3.1c-1.9,3.8-4.4,7.3-7.3,10.4c0,0-0.1,0.1-0.2,0.1c-0.1,0-0.1,0-0.2,0c-0.1,0-0.1,0-0.2-0.1   c-0.1,0-0.1-0.1-0.1-0.1c0,0-0.1-0.1-0.1-0.2c0-0.1,0-0.1,0-0.2c0-0.1,0-0.1,0.1-0.2c0-0.1,0.1-0.1,0.1-0.1   c2.6-2.8,4.9-5.9,6.7-9.3c-4.7,1.8-9.7,2.8-14.7,2.9c-1.4,0-2.7-0.1-4.1-0.2c-0.1,0-0.2-0.1-0.3-0.2c-0.1-0.1-0.1-0.2-0.1-0.3   c0-0.1,0.1-0.2,0.2-0.3s0.2-0.1,0.3-0.1c5.7,0.6,11.5-0.1,16.8-2.1c-1.6-0.6-3.2-1.4-4.6-2.3c-1.4-0.8-2.9-1.6-4.4-2.3   c-0.1,0-0.1-0.1-0.1-0.1c0,0-0.1-0.1-0.1-0.1c0-0.1,0-0.1,0-0.2c0-0.1,0-0.1,0-0.2c0-0.1,0.1-0.2,0.2-0.2s0.2,0,0.3,0   c1.6,0.7,3.1,1.5,4.5,2.3c1.8,1.3,3.8,2.1,6,2.5l0.6-0.2c4.9-1.9,10.1-3,15.4-3.2c-3.4-2.1-9.6-6-9.6-6c-0.1-0.1-0.2-0.2-0.2-0.3   c0-0.1,0-0.2,0.1-0.3s0.2-0.2,0.3-0.2c0.1,0,0.2,0,0.3,0.1c0.1,0.1,8.2,5.3,10.9,6.8c2.6,0.1,5.1,0.4,7.6,0.8   c-1.1-0.6-2.1-1.6-2.8-2.6c-0.7-0.9-1.2-2-1.5-3.1c-0.2-1.1-0.2-2.3,0-3.5c0.4-0.6,0.8-1.2,1.3-1.7c-4.1-5.1-12.2-10.6-15.9-8   c-5.9,4.1-2.9,9-6.8,11.1c-1.4,0.8-2.9,1.2-4.5,1.1c-1.6-0.1-3.1-0.6-4.4-1.5c-0.7-0.4-1.5-0.6-2.3-0.6c-0.8,0-1.6,0.3-2.2,0.7   c-0.7,0.4-1.2,1.1-1.5,1.8c-0.3,0.7-0.5,1.5-0.4,2.3c0.1,4.7,0.9,4.7-3.1,5.1c-3.7,0.4-10.9,0.9-12,6.7c-1.1,5.8,4.7,7.6,6.7,7.7   c4.8,0.3,9.4-3.5,11,0.7c1.6,4.1,1.7,7.3,4.7,7.2c6.3-0.2,7-7.2,11.7-7.5c2.1-0.1,5.4,2.3,7.1,4.4   C101.9,404.1,104.8,402.7,110,401.8z"
   class="st0" />
	<path
   id="path28"
   d="M243.2,427.2c-10.1-3.4-23.1-9-23.1-9c-1.1,1.2-2.5,2.1-4,2.5c6.6,3.2,19.4,9,19.4,9   C236.8,427.6,241.4,426.9,243.2,427.2z"
   class="st0" />
	<path
   id="path30"
   d="M232,435.2c-11.9-1.2-18.6,5-12.7,5.7C231,442.4,238.7,435.8,232,435.2z"
   class="st0" />
	<path
   id="path32"
   d="M247.4,429.3c-5.4-2-11.9,1.7-8.5,3.5C243.5,435.2,252.8,431.4,247.4,429.3z"
   class="st0" />
	<path
   id="path34"
   d="M227.9,433.1c-4.3-1.9-12.8-5.6-20.7-9.4c-2.9,1.5-5.6,3.2-8.2,5.1c6.8,3.6,13.4,7.4,15.8,8.8   c1.7-1.7,3.8-3,6-3.8C223.1,433,225.6,432.8,227.9,433.1z"
   class="st0" />
</g>
<path
   id="path38"
   d="M203.3,0c-36.8,0-72.8,10.9-103.4,31.4c-30.6,20.5-54.5,49.5-68.6,83.5c-14.1,34-17.8,71.4-10.6,107.6  c7.2,36.1,24.9,69.3,50.9,95.3c26,26,59.2,43.8,95.3,50.9c36.1,7.2,73.5,3.5,107.5-10.6c34-14.1,63.1-38,83.5-68.6  c20.5-30.6,31.4-66.6,31.4-103.4c0-24.4-4.8-48.7-14.2-71.2c-9.4-22.6-23.1-43.1-40.3-60.4c-17.3-17.3-37.8-31-60.4-40.4  C251.9,4.8,227.7,0,203.3,0z"
   class="st1" />
<ellipse
   style="fill:#00b9e4;fill-opacity:1"
   id="ellipse40"
   ry="172.7"
   rx="172.8"
   cy="186.2"
   cx="203.5"
   class="st2"
   transform="matrix(2.260978e-03 -1 1 2.260978e-03 16.8287 389.1929)" />
<ellipse
   style="fill:#ea0437;fill-opacity:1"
   id="ellipse42"
   ry="146.3"
   rx="146.3"
   cy="186.2"
   cx="203.5"
   class="st3" />
<ellipse
   style="fill:#3f9c35;fill-opacity:1"
   id="ellipse44"
   ry="119.8"
   rx="119.8"
   cy="186.2"
   cx="203.5"
   class="st4"
   transform="matrix(6.436321e-03 -1 1 6.436321e-03 15.9816 388.4151)" />
<g
   id="g126">
	<g
   id="g60">
		<path
   id="path46"
   d="M200.2,375.7c2.3,2.3,3.9,5.2,4.5,8.5c3.3-2,8.1-7.3,6.5-9.7C210.1,372.6,204.3,373,200.2,375.7z"
   class="st1" />
		<g
   id="g58">
			<path
   id="path48"
   d="M194.7,378.9c-0.2,0-0.4,0.1-0.6,0.2c-0.2,0.1-0.3,0.3-0.4,0.5c-0.1,0.2-0.1,0.4-0.1,0.7     c0,0.2,0.2,0.4,0.3,0.6c0.2,0.2,0.4,0.3,0.6,0.3c0.2,0,0.5,0,0.7-0.1c0.2-0.1,0.4-0.2,0.5-0.4c0.1-0.2,0.2-0.4,0.2-0.6     c0-0.3-0.1-0.6-0.3-0.8C195.3,379.1,195,378.9,194.7,378.9z"
   class="st1" />
			<path
   id="path50"
   d="M199,376.6c0-0.2-0.1-0.4-0.2-0.6c-0.1-0.2-0.3-0.3-0.5-0.4c-0.2-0.1-0.4-0.1-0.7-0.1     c-0.2,0-0.4,0.2-0.6,0.3c-0.2,0.2-0.3,0.4-0.3,0.6c0,0.2,0,0.5,0.1,0.7c0.1,0.2,0.2,0.4,0.4,0.5c0.2,0.1,0.4,0.2,0.6,0.2     c0.2,0,0.3,0,0.4-0.1c0.1-0.1,0.3-0.1,0.4-0.2c0.1-0.1,0.2-0.2,0.2-0.4C199,376.9,199,376.7,199,376.6z"
   class="st1" />
			<path
   id="path52"
   d="M198.6,379.4c-0.2,0-0.4,0.1-0.6,0.2c-0.2,0.1-0.3,0.3-0.4,0.5c-0.1,0.2-0.1,0.4-0.1,0.7     c0,0.2,0.2,0.4,0.3,0.6c0.2,0.2,0.4,0.3,0.6,0.3c0.2,0,0.5,0,0.7-0.1c0.2-0.1,0.4-0.2,0.5-0.4c0.1-0.2,0.2-0.4,0.2-0.6     c0-0.2,0-0.3-0.1-0.4c-0.1-0.1-0.1-0.3-0.2-0.4c-0.1-0.1-0.2-0.2-0.4-0.2C198.9,379.4,198.7,379.4,198.6,379.4z"
   class="st1" />
			<path
   id="path54"
   d="M201.4,382.2c-0.2,0-0.4,0.1-0.6,0.2c-0.2,0.1-0.3,0.3-0.4,0.5c-0.1,0.2-0.1,0.4-0.1,0.7     c0,0.2,0.2,0.4,0.3,0.6c0.2,0.2,0.4,0.3,0.6,0.3c0.2,0,0.5,0,0.7-0.1c0.2-0.1,0.4-0.2,0.5-0.4c0.1-0.2,0.2-0.4,0.2-0.6     c0-0.3-0.1-0.6-0.3-0.8C202,382.4,201.7,382.2,201.4,382.2z"
   class="st1" />
			<path
   id="path56"
   d="M197.5,382.8c-0.2,0-0.4,0.1-0.6,0.2c-0.2,0.1-0.3,0.3-0.4,0.5c-0.1,0.2-0.1,0.4-0.1,0.7     c0,0.2,0.2,0.4,0.3,0.6c0.2,0.2,0.4,0.3,0.6,0.3c0.2,0,0.5,0,0.7-0.1c0.2-0.1,0.4-0.2,0.5-0.4c0.1-0.2,0.2-0.4,0.2-0.6     c0-0.3-0.1-0.6-0.3-0.8C198.1,383,197.8,382.8,197.5,382.8z"
   class="st1" />
		</g>
	</g>
	<g
   id="g72">
		<path
   id="path62"
   d="M157.8,419.1c-2.5,2.4-4,7.3-1.7,8.8c2.8,1.8,7.6-3.4,7.6-3.4C162.2,422.3,160.2,420.5,157.8,419.1z"
   class="st1" />
		<g
   id="g70">
			<path
   id="path64"
   d="M162.8,416.9c0-0.2-0.1-0.4-0.2-0.6c-0.1-0.2-0.3-0.3-0.5-0.4c-0.2-0.1-0.4-0.1-0.7-0.1     c-0.2,0-0.4,0.2-0.6,0.3c-0.2,0.2-0.3,0.4-0.3,0.6c0,0.2,0,0.5,0.1,0.7c0.1,0.2,0.2,0.4,0.4,0.5c0.2,0.1,0.4,0.2,0.6,0.2     c0.3,0,0.6-0.1,0.8-0.3C162.7,417.5,162.8,417.2,162.8,416.9z"
   class="st1" />
			<path
   id="path66"
   d="M165.4,415.7c-0.2,0-0.4,0.1-0.6,0.2c-0.2,0.1-0.3,0.3-0.4,0.5c-0.1,0.2-0.1,0.4-0.1,0.7     c0,0.2,0.2,0.4,0.3,0.6c0.2,0.2,0.4,0.3,0.6,0.3c0.2,0,0.5,0,0.7-0.1c0.2-0.1,0.4-0.2,0.5-0.4c0.1-0.2,0.2-0.4,0.2-0.6     c0-0.3-0.1-0.6-0.3-0.8C166,415.9,165.7,415.7,165.4,415.7z"
   class="st1" />
			<path
   id="path68"
   d="M164.9,419.6c-0.2,0-0.4,0.1-0.6,0.2c-0.2,0.1-0.3,0.3-0.4,0.5s-0.1,0.4-0.1,0.7c0,0.2,0.2,0.4,0.3,0.6     c0.2,0.2,0.4,0.3,0.6,0.3c0.2,0,0.5,0,0.7-0.1c0.2-0.1,0.4-0.2,0.5-0.4c0.1-0.2,0.2-0.4,0.2-0.6c0-0.2,0-0.3-0.1-0.4     c-0.1-0.1-0.1-0.3-0.2-0.4c-0.1-0.1-0.2-0.2-0.4-0.2C165.2,419.6,165.1,419.6,164.9,419.6z"
   class="st1" />
		</g>
	</g>
	<g
   id="g90">
		<path
   id="path74"
   d="M85.4,411.6c-2.7,5.3-2.1,11.6-0.3,13.1c2.3,1.9,9.4-6.2,10.2-8.5C92.7,413.6,89.1,411.9,85.4,411.6z"
   class="st1" />
		<g
   id="g88">
			<path
   id="path76"
   d="M89.5,409.1c0,0.2,0.1,0.4,0.2,0.6c0.1,0.2,0.3,0.3,0.5,0.4c0.2,0.1,0.4,0.1,0.7,0.1c0.2,0,0.4-0.2,0.6-0.3     c0.2-0.2,0.3-0.4,0.3-0.6c0-0.2,0-0.5-0.1-0.7c-0.1-0.2-0.2-0.4-0.4-0.5c-0.2-0.1-0.4-0.2-0.6-0.2c-0.3,0-0.6,0.1-0.8,0.3     C89.6,408.6,89.5,408.8,89.5,409.1z"
   class="st1" />
			<path
   id="path78"
   d="M92.9,408.2c0,0.2,0.1,0.4,0.2,0.6c0.1,0.2,0.3,0.3,0.5,0.4c0.2,0.1,0.4,0.1,0.7,0.1c0.2,0,0.4-0.2,0.6-0.3     c0.2-0.2,0.3-0.4,0.3-0.6c0-0.2,0-0.5-0.1-0.7c-0.1-0.2-0.2-0.4-0.4-0.5c-0.2-0.1-0.4-0.2-0.6-0.2c-0.3,0-0.6,0.1-0.8,0.3     C93,407.6,92.9,407.9,92.9,408.2z"
   class="st1" />
			<path
   id="path80"
   d="M95.1,410.7c-0.2,0-0.4,0.1-0.6,0.2c-0.2,0.1-0.3,0.3-0.4,0.5c-0.1,0.2-0.1,0.4-0.1,0.7     c0,0.2,0.2,0.4,0.3,0.6c0.2,0.2,0.4,0.3,0.6,0.3c0.2,0,0.5,0,0.7-0.1c0.2-0.1,0.4-0.2,0.5-0.4c0.1-0.2,0.2-0.4,0.2-0.6     c0-0.3-0.1-0.6-0.3-0.8C95.7,410.8,95.4,410.7,95.1,410.7z"
   class="st1" />
			<path
   id="path82"
   d="M98.6,410.9c-0.2,0-0.4,0.1-0.6,0.2c-0.2,0.1-0.3,0.3-0.4,0.5c-0.1,0.2-0.1,0.4-0.1,0.7     c0,0.2,0.2,0.4,0.3,0.6c0.2,0.2,0.4,0.3,0.6,0.3c0.2,0,0.5,0,0.7-0.1c0.2-0.1,0.4-0.2,0.5-0.4c0.1-0.2,0.2-0.4,0.2-0.6     c0-0.3-0.1-0.6-0.3-0.8C99.2,411.1,98.9,410.9,98.6,410.9z"
   class="st1" />
			<path
   id="path84"
   d="M98.6,407.3c0-0.2-0.1-0.4-0.2-0.6c-0.1-0.2-0.3-0.3-0.5-0.4c-0.2-0.1-0.4-0.1-0.7-0.1     c-0.2,0-0.4,0.2-0.6,0.3c-0.2,0.2-0.3,0.4-0.3,0.6c0,0.2,0,0.5,0.1,0.7c0.1,0.2,0.2,0.4,0.4,0.5c0.2,0.1,0.4,0.2,0.6,0.2     c0.3,0,0.6-0.1,0.8-0.3C98.5,407.9,98.6,407.6,98.6,407.3z"
   class="st1" />
			<path
   id="path86"
   d="M92.5,403.4c-0.2,0-0.4,0.1-0.6,0.2c-0.2,0.1-0.3,0.3-0.4,0.5c-0.1,0.2-0.1,0.4-0.1,0.7     c0,0.2,0.2,0.4,0.3,0.6c0.2,0.2,0.4,0.3,0.6,0.3c0.2,0,0.5,0,0.7-0.1c0.2-0.1,0.4-0.2,0.5-0.4c0.1-0.2,0.2-0.4,0.2-0.6     c0-0.3-0.1-0.6-0.3-0.8C93.1,403.5,92.8,403.4,92.5,403.4z"
   class="st1" />
		</g>
	</g>
	<g
   id="g108">
		<path
   id="path92"
   d="M47.1,364.4c-0.1,2.8,6.7,5.4,12.4,5.5c0.7-3.2,0.7-6.6,0-9.8C54.5,359.7,47.1,361.6,47.1,364.4z"
   class="st1" />
		<g
   id="g106">
			<path
   id="path94"
   d="M62.2,369.7c-0.2,0-0.4,0.1-0.6,0.2s-0.3,0.3-0.4,0.5c-0.1,0.2-0.1,0.4-0.1,0.7c0,0.2,0.2,0.4,0.3,0.6     c0.2,0.2,0.4,0.3,0.6,0.3c0.2,0,0.5,0,0.7-0.1c0.2-0.1,0.4-0.2,0.5-0.4c0.1-0.2,0.2-0.4,0.2-0.6c0-0.3-0.1-0.6-0.3-0.8     C62.8,369.9,62.5,369.7,62.2,369.7z"
   class="st1" />
			<path
   id="path96"
   d="M65.5,367.8c-0.2,0-0.4,0.1-0.6,0.2c-0.2,0.1-0.3,0.3-0.4,0.5c-0.1,0.2-0.1,0.4-0.1,0.7     c0,0.2,0.2,0.4,0.3,0.6c0.2,0.2,0.4,0.3,0.6,0.3s0.5,0,0.7-0.1c0.2-0.1,0.4-0.2,0.5-0.4c0.1-0.2,0.2-0.4,0.2-0.6     c0-0.3-0.1-0.6-0.3-0.8C66.1,367.9,65.8,367.8,65.5,367.8z"
   class="st1" />
			<path
   id="path98"
   d="M68.7,365.7c-0.2,0-0.4,0.1-0.6,0.2c-0.2,0.1-0.3,0.3-0.4,0.5c-0.1,0.2-0.1,0.4-0.1,0.7     c0,0.2,0.2,0.4,0.3,0.6c0.2,0.2,0.4,0.3,0.6,0.3c0.2,0,0.5,0,0.7-0.1c0.2-0.1,0.4-0.2,0.5-0.4c0.1-0.2,0.2-0.4,0.2-0.6     c0-0.3-0.1-0.6-0.3-0.8C69.3,365.8,69,365.7,68.7,365.7z"
   class="st1" />
			<path
   id="path100"
   d="M62.7,365.2c-0.2,0-0.4,0.1-0.6,0.2c-0.2,0.1-0.3,0.3-0.4,0.5c-0.1,0.2-0.1,0.4-0.1,0.7     c0,0.2,0.2,0.4,0.3,0.6c0.2,0.2,0.4,0.3,0.6,0.3c0.2,0,0.5,0,0.7-0.1c0.2-0.1,0.4-0.2,0.5-0.4c0.1-0.2,0.2-0.4,0.2-0.6     c0-0.3-0.1-0.6-0.3-0.8C63.3,365.3,63,365.2,62.7,365.2z"
   class="st1" />
			<path
   id="path102"
   d="M66,362.8c-0.2,0-0.4,0.1-0.6,0.2c-0.2,0.1-0.3,0.3-0.4,0.5c-0.1,0.2-0.1,0.4-0.1,0.7c0,0.2,0.2,0.4,0.3,0.6     c0.2,0.2,0.4,0.3,0.6,0.3c0.2,0,0.5,0,0.7-0.1c0.2-0.1,0.4-0.2,0.5-0.4c0.1-0.2,0.2-0.4,0.2-0.6c0-0.3-0.1-0.6-0.3-0.8     C66.6,363,66.3,362.8,66,362.8z"
   class="st1" />
			<path
   id="path104"
   d="M63,360c-0.2,0-0.4,0.1-0.6,0.2c-0.2,0.1-0.3,0.3-0.4,0.5c-0.1,0.2-0.1,0.4-0.1,0.7c0,0.2,0.2,0.4,0.3,0.6     c0.2,0.2,0.4,0.3,0.6,0.3c0.2,0,0.5,0,0.7-0.1c0.2-0.1,0.4-0.2,0.5-0.4c0.1-0.2,0.2-0.4,0.2-0.6c0-0.3-0.1-0.6-0.3-0.8     C63.6,360.2,63.3,360,63,360z"
   class="st1" />
		</g>
	</g>
	<g
   id="g124">
		<path
   id="path110"
   d="M14.1,271.7c-3.9-3.3-11.2-3.2-12.2-1.7c-1.1,1.8,2.9,6.5,6.7,9.3C10.9,277,12.7,274.5,14.1,271.7z"
   class="st1" />
		<g
   id="g122">
			<path
   id="path112"
   d="M10.5,280.4c-0.3,0-0.6,0.1-0.8,0.3c-0.2,0.2-0.3,0.5-0.3,0.8c0,0.3,0.1,0.6,0.3,0.8     c0.2,0.2,0.5,0.3,0.8,0.3c0.3,0,0.6-0.1,0.8-0.3c0.2-0.2,0.3-0.5,0.3-0.8c0-0.3-0.1-0.6-0.3-0.8     C11.1,280.6,10.8,280.4,10.5,280.4z"
   class="st1" />
			<path
   id="path114"
   d="M14.1,280.4c-0.3,0-0.6,0.1-0.8,0.3c-0.2,0.2-0.3,0.5-0.3,0.8c0,0.3,0.1,0.6,0.3,0.8     c0.2,0.2,0.5,0.3,0.8,0.3c0.3,0,0.6-0.1,0.8-0.3c0.2-0.2,0.3-0.5,0.3-0.8c0-0.3-0.1-0.6-0.3-0.8     C14.7,280.6,14.4,280.4,14.1,280.4z"
   class="st1" />
			<path
   id="path116"
   d="M13.8,278.8c0.3,0,0.6-0.1,0.8-0.3c0.2-0.2,0.3-0.5,0.3-0.8c0-0.3-0.1-0.6-0.3-0.8c-0.2-0.2-0.5-0.3-0.8-0.3     c-0.3,0-0.6,0.1-0.8,0.3c-0.2,0.2-0.3,0.5-0.3,0.8c0,0.2,0,0.3,0.1,0.4s0.1,0.3,0.2,0.4c0.1,0.1,0.2,0.2,0.4,0.2     C13.5,278.8,13.7,278.8,13.8,278.8z"
   class="st1" />
			<path
   id="path118"
   d="M17.9,276.6c-0.3,0-0.6,0.1-0.8,0.3c-0.2,0.2-0.3,0.5-0.3,0.8c0,0.3,0.1,0.6,0.3,0.8     c0.2,0.2,0.5,0.3,0.8,0.3c0.3,0,0.6-0.1,0.8-0.3c0.2-0.2,0.3-0.5,0.3-0.8c0-0.3-0.1-0.6-0.3-0.8     C18.5,276.8,18.2,276.6,17.9,276.6z"
   class="st1" />
			<path
   id="path120"
   d="M17.9,273.5c0-0.2,0-0.3-0.1-0.4c-0.1-0.1-0.1-0.3-0.2-0.4c-0.1-0.1-0.2-0.2-0.4-0.2     c-0.1-0.1-0.3-0.1-0.4-0.1c-0.3,0-0.6,0.1-0.8,0.3c-0.2,0.2-0.3,0.5-0.3,0.8c0,0.3,0.1,0.6,0.3,0.8c0.2,0.2,0.5,0.3,0.8,0.3     c0.3,0,0.6-0.1,0.8-0.3C17.8,274.1,17.9,273.8,17.9,273.5z"
   class="st1" />
		</g>
	</g>
</g>
<g
   id="g144">
	<path
   id="path128"
   d="M350.6,132c3.8,0,6.8-3.1,6.8-6.8c0-3.8-3.1-6.8-6.8-6.8c-3.8,0-6.8,3.1-6.8,6.8   C343.8,129,346.9,132,350.6,132z"
   class="st1" />
	<path
   id="path130"
   d="M267,45.3c1.2-0.5,2.3-1.4,3.1-2.5c0.8-1.1,1.2-2.4,1.2-3.8c0-1.4-0.4-2.7-1.2-3.8c-0.8-1.1-1.8-2-3.1-2.5   c-1.2-0.5-2.6-0.7-3.9-0.4c-1.3,0.3-2.5,0.9-3.5,1.9c-1,1-1.6,2.2-1.9,3.5c-0.3,1.3-0.1,2.7,0.4,3.9c0.7,1.7,2,3,3.7,3.7   S265.4,46,267,45.3z"
   class="st1" />
	<path
   id="path132"
   d="M145.1,45.3c1.2-0.5,2.3-1.4,3.1-2.5c0.8-1.1,1.2-2.4,1.2-3.8c0-1.4-0.4-2.7-1.2-3.8c-0.8-1.1-1.8-2-3.1-2.5   c-1.2-0.5-2.6-0.7-3.9-0.4c-1.3,0.3-2.5,0.9-3.5,1.9c-1,1-1.6,2.2-1.9,3.5c-0.3,1.3-0.1,2.7,0.4,3.9c0.7,1.7,2,3,3.7,3.7   C141.5,46,143.4,46,145.1,45.3z"
   class="st1" />
	<path
   id="path134"
   d="M56.3,132c3.8,0,6.8-3.1,6.8-6.8c0-3.8-3.1-6.8-6.8-6.8s-6.8,3.1-6.8,6.8C49.4,129,52.5,132,56.3,132z"
   class="st1" />
	<path
   id="path136"
   d="M56.3,254c3.8,0,6.8-3.1,6.8-6.8c0-3.8-3.1-6.8-6.8-6.8s-6.8,3.1-6.8,6.8C49.4,250.9,52.5,254,56.3,254z"
   class="st1" />
	<path
   id="path138"
   d="M139.9,327.1c-1.2,0.5-2.3,1.4-3.1,2.5c-0.7,1.1-1.2,2.4-1.2,3.8c0,1.3,0.4,2.7,1.2,3.8c0.8,1.1,1.8,2,3.1,2.5   c1.2,0.5,2.6,0.7,3.9,0.4c1.3-0.3,2.5-0.9,3.5-1.9c1-1,1.6-2.2,1.9-3.5c0.3-1.3,0.1-2.7-0.4-3.9c-0.7-1.7-2-3-3.7-3.7   C143.4,326.4,141.5,326.4,139.9,327.1z"
   class="st1" />
	<path
   id="path140"
   d="M261.8,327.1c-1.2,0.5-2.3,1.4-3.1,2.5c-0.7,1.1-1.2,2.4-1.2,3.8c0,1.3,0.4,2.7,1.2,3.8c0.8,1.1,1.8,2,3.1,2.5   c1.2,0.5,2.6,0.7,3.9,0.4c1.3-0.3,2.5-0.9,3.5-1.9c1-1,1.6-2.2,1.9-3.5c0.3-1.3,0.1-2.7-0.4-3.9c-0.3-0.8-0.8-1.6-1.5-2.2   c-0.6-0.6-1.4-1.1-2.2-1.5c-0.8-0.3-1.7-0.5-2.6-0.5S262.6,326.7,261.8,327.1z"
   class="st1" />
	<path
   id="path142"
   d="M350.6,254c3.8,0,6.8-3.1,6.8-6.8c0-3.8-3.1-6.8-6.8-6.8c-3.8,0-6.8,3.1-6.8,6.8   C343.8,250.9,346.9,254,350.6,254z"
   class="st1" />
</g>
<polygon
   id="polygon146"
   points="376,185.2 289.4,149.9 324.7,63.3 238.6,99.6 202.3,13.4 167,100 80.4,64.7 116.7,150.9 30.5,187.1   117.1,222.4 81.8,309 168,272.7 204.2,358.9 239.5,272.3 326.1,307.6 289.8,221.5 "
   class="st1" />
<polygon
   id="polygon148"
   points="236,264.1 314.3,296 281.5,218.1 359.4,185.3 281.2,153.4 313.1,75.1 235.2,107.9 202.4,29.9   170.5,108.2 92.2,76.3 125,154.2 47.1,187 125.4,218.9 93.4,297.2 171.4,264.4 204.1,342.4 "
   class="st5" />
<path
   style="fill:#ea0437;fill-opacity:1"
   id="path150"
   d="M212,218c0-31.8-13.1-40-13.1-71.4c0.3-12.3,2.7-24.5,7.1-35.9c-2.7,31.9,24.2,52.1,24.2,94.6  c0,26.9-10.5,42.4-18.4,42.4c-5,0-4.7-3.3-7.3-3.3c-2.6,0-4.9,3.9-10.1,3.9c-5.3,0-22.4-8.5-25.2-46.2c-3,7.7-0.5,18.6,1.1,24.4  c-10.6-19.1-10.1-42.1,5.5-65.6c-3,24.5-1.1,44.2,6.4,62.1c1.6,3.8,4.4,5.8,6.9,3.8c2.5-2,0-5.9-1.9-10.2  c-1.9-4.3-22.8-50.3,8.6-88.1c-3.6,33.1,9.7,53.8,9.7,69.3c0,15.5-9.3,36.3-0.3,36.3C210.7,234,212,223.2,212,218z"
   class="st3" />
<path
   style="fill:#ea0437;fill-opacity:1"
   id="path152"
   d="M223.2,241c7.7-5.7,14-13.1,18.4-21.6c4.4-8.5,6.7-17.9,6.9-27.5c0-26.6-26.8-48.2-31.3-63.6  c0,24.6,16.8,40.1,16.8,73.1C233.9,232,223.2,241,223.2,241z"
   class="st3" />
<g
   id="g248">
	<path
   id="path154"
   d="M194.8,415.8c-0.5,0.1-1,0.3-1.3,0.7c-0.4,0.3-0.8,0.7-1.2,1.1c-1.3,1.7-3.3,2.7-5.4,3c-0.7,0-1.3-0.2-1.9-0.4   c-0.6-0.3-1.2-0.7-1.6-1.2c-8.7,4.2-16.7,8.8-22.8,12.4c2.6,0.1,5.1,0.9,7.3,2.3c6.3-4.2,17.3-10.2,28.6-16.2   C195.6,416.2,195,415.8,194.8,415.8z"
   class="st6" />
	<path
   id="path156"
   d="M225,402.1c-4,1.2-8.5,2.7-13.1,4.5c0.8,0.9,1.4,1.9,1.8,3c5.4-2.3,10.3-4.2,14.6-5.6   C227,403.7,225.9,403,225,402.1z"
   class="st6" />
	<path
   id="path158"
   d="M172.3,435.8c4.4-1,8.9-0.6,13.1,0.9c6-5,12.3-9.6,18.9-13.7c-2.1-0.2-4-1.1-5.6-2.4   C189.5,425,180.7,430.1,172.3,435.8z"
   class="st6" />
	<path
   id="path160"
   d="M210.5,390.8c4.5-6,9.4-11.5,14.9-16.6c-7,2.1-14,7.3-19.5,12c1.3,0.7,2.5,1.7,3.4,2.8   C209.8,389.6,210.2,390.2,210.5,390.8z"
   class="st6" />
	<path
   id="path162"
   d="M386.3,279.6c4.1-4.9,4.7-9.2,4.7-25.3c-2.6,4.3-10,14.3-11.2,19C377.4,282.3,382.3,284.6,386.3,279.6z"
   class="st6" />
	<path
   id="path164"
   d="M382.9,296.1c4.1-3.7,7.4-10.3,8.9-17.4c-4.8,5.9-10.1,6-13.6,9.8C371.5,295.8,378.8,299.8,382.9,296.1z"
   class="st6" />
	<path
   id="path166"
   d="M376.7,285.3c1-3.2-1.2-9.9-0.3-15c-4.4,4.9-7.5,14-5.6,18.2C372.6,292.8,375.7,288.4,376.7,285.3z"
   class="st6" />
	<path
   id="path168"
   d="M367,299.8c3.7-3.9-2-12.4,0.5-23.4c0,0-7.5,12.1-8.3,16.6C356.5,307.8,363.2,303.7,367,299.8z"
   class="st6" />
	<path
   id="path170"
   d="M373.5,311c3.8-0.3,8.5-4.7,13.4-13.9c-3.9,4.5-14.1,2.7-17.1,6.1c-0.7,0.7-1.2,1.5-1.4,2.5   c-0.2,1-0.1,1.9,0.3,2.8c0.4,0.9,1.1,1.6,1.9,2.1C371.6,311,372.6,311.2,373.5,311z"
   class="st6" />
	<path
   id="path172"
   d="M360.5,322.8c-2.6,3.1-5.7,6.2-8.1,8.5c-5.6,3.9-12.9,3.8-16.9,6.7c-6.5,4.8-2.4,7.4,2.3,6.3   c3.3-0.8,6.9-3.4,13.8-11.4c3.2-3,6.3-6.1,9.1-9.4c0.5,1.1,1.4,2.1,2.5,2.6c1.1,0.5,2.4,0.6,3.6,0.2c4.8-1.2,7.1-2.8,16-16.2   c-3.4,1.9-15.1,2.2-19.8,7c-0.8,0.7-1.5,1.6-1.9,2.5C360.6,320.7,360.4,321.7,360.5,322.8z"
   class="st6" />
	<path
   id="path174"
   d="M323.7,343.3c0.5-5.5-1.1-4.7,4-14.1c-2.2,1.6-11.3,8.7-11.3,15.8C316.5,354.6,323.2,348.8,323.7,343.3z"
   class="st6" />
	<path
   id="path176"
   d="M310.2,355.8c4.6-4.5,1.4-9.3,6-18.1c0,0-7.9,5.7-10.7,12.4C302.5,356.9,305.5,360.3,310.2,355.8z"
   class="st6" />
	<path
   id="path178"
   d="M298.9,364c5.8-5.9,1.8-10.4,5.4-17.6c-3.1,3.2-7.6,6.4-10.4,11.4C290.7,363.7,293.1,369.9,298.9,364z"
   class="st6" />
	<path
   id="path180"
   d="M285,373.2c6.7-6,2.4-12.2,10.5-21.7c-5.1,2.5-14.2,10.5-17.1,16.3C275.5,373.6,278.3,379.3,285,373.2z"
   class="st6" />
	<path
   id="path182"
   d="M270.1,380.5c4.7-4.7,5.2-12.8,11-22.7c-3.3,2.1-14.1,8.3-18.4,15.5C257.6,381.8,265.4,385.2,270.1,380.5z"
   class="st6" />
	<path
   id="path184"
   d="M251.6,389.5c9.4-9.1,5.2-12,12.4-24.1c-7.9,4.7-14.7,11.1-20,18.7C241.5,388.2,243.2,397.7,251.6,389.5z"
   class="st6" />
	<path
   id="path186"
   d="M226.7,393.8c-3.2,6.9,2.6,10.3,7.4,5.8c4.8-4.5,6.7-16,16.7-30.1C244,373.5,231.5,383.5,226.7,393.8z"
   class="st6" />
	<path
   id="path188"
   d="M219.6,401.6c8.1-8.3,6-15.1,18.7-28.7c-9.7,3.5-24.4,15-28.4,23.4C206.2,404.3,214.2,407.1,219.6,401.6z"
   class="st6" />
	<path
   id="path190"
   d="M171.5,437.7c-5.8,2.7,3.2,5.3,10.5,2.7C189.4,437.8,176.4,435.5,171.5,437.7z"
   class="st6" />
	<path
   id="path192"
   d="M158.2,433.1c-6.7,1.6,0.2,4.4,5.2,3.3C168.3,435.4,162.4,432.2,158.2,433.1z"
   class="st6" />
	<path
   id="path194"
   d="M259.2,438.7c7.3,0.2,14.6-1.2,21.4-4.2c-3-0.5-5.9-1.3-8.7-2.2C268.2,435.4,263.8,437.6,259.2,438.7z"
   class="st6" />
	<path
   id="path196"
   d="M274.3,411.5c-3.1,2.1-6.2,4-9.5,5.7c13.6,1.6,27.4,2.1,41.1,1.6c2.2-2.8,3.9-5.8,5.2-9.1   C298.9,411.2,286.6,411.8,274.3,411.5z"
   class="st6" />
	<path
   id="path198"
   d="M293.8,425.5c0.3,0.1,8.8-4.8,8.8-4.8h-5C296.2,422.2,294.9,423.8,293.8,425.5z"
   class="st6" />
	<path
   id="path200"
   d="M295.7,402.1l-2.2,0.7c-4.1,1.3-7.8,2.4-11.3,3.4c7.1,0.6,15.8-0.9,26.5-3.9c-4.6-0.3-9.1-1.5-13.2-3.3   c-2.3-1-4.9-1.1-7.3-0.3l-0.6,0.2c-5.2,1.8-10.5,3.2-15.9,4.3c2.6,1.4,5.4,2.4,8.3,2.8c4-1.1,8.4-2.5,13.4-4l2.2-0.7   c0.1,0,0.2,0,0.4,0c0.1,0.1,0.2,0.2,0.2,0.3c0,0.1,0,0.2,0,0.4C295.9,402,295.8,402,295.7,402.1L295.7,402.1z"
   class="st6" />
	<path
   id="path202"
   d="M317,374.6c2.6-1.1,5.2-2.3,7.7-3.6c-2.2-0.4-4.5-0.6-6.8-0.6c-2.3,1.3-4.8,2.4-7.4,3.3   c-0.4,0.5-0.6,1-0.9,1.6c1.8,0.4,3.7,0.3,5.5-0.1C315.3,375.1,316,374.9,317,374.6z"
   class="st6" />
	<path
   id="path204"
   d="M326.1,371.2c-1.5,0.9-3,1.6-4.4,2.3c-3.9,2.4-7.8,4.7-11.9,6.6c0.9,1.8,3,3,6.4,3c7.2,0,14.3-3.3,26.8-10.9   C337.4,373,331.7,372.6,326.1,371.2z"
   class="st6" />
	<path
   id="path206"
   d="M339.1,358.6c-1.8-0.2-3.4-0.3-5-0.3c-2.9,1.7-5.9,3.2-9,4.5c-0.3,0.8-0.3,1.8-0.1,2.6   C329.9,363.6,334.6,361.3,339.1,358.6z"
   class="st6" />
	<path
   id="path208"
   d="M340.6,358.7c-4.8,3.1-9.9,5.6-15.2,7.6c0.6,1.2,1.7,2.2,3.1,2.6c1.5-0.9,3.1-1.8,4.9-2.9   c0.1-0.1,0.2-0.1,0.3,0c0.1,0,0.2,0.1,0.3,0.2c0.1,0.1,0.1,0.2,0.1,0.3c0,0.1-0.1,0.2-0.2,0.3c-1.5,0.9-2.9,1.7-4.2,2.5   c1,0.2,1.9,0.2,2.9,0.1c11.9-1.5,17.5-6,26-12.5C352.7,358.7,346.6,359.3,340.6,358.7z"
   class="st6" />
	<path
   id="path210"
   d="M351.7,344.2c-0.6,0.4-1.2,0.7-1.8,1c-3,2.5-6.2,4.8-9.6,6.6c0,0.7,0.2,1.3,0.5,1.9c3.3-1.8,6.4-3.9,9.2-6.3   c0.1-0.1,0.2-0.1,0.3-0.1c0.1,0,0.2,0.1,0.3,0.2c0.1,0.1,0.1,0.2,0.1,0.3c0,0.1-0.1,0.2-0.2,0.3c-2.8,2.4-5.9,4.6-9.2,6.3   c0.8,0.6,1.8,0.9,2.8,1c1,0.1,2,0,3-0.3c11.2-2.5,19.4-12.3,19.4-12.3C361.7,344,356.7,344.5,351.7,344.2z"
   class="st6" />
	<path
   id="path212"
   d="M351.4,338.1c0.2,0.8,0.6,1.5,1.1,2c0.5,0.6,1.2,1,2,1.2c2.6-1.8,5.4-4,9.3-7.3c0.1-0.1,0.2-0.1,0.3-0.1   c0.1,0,0.2,0.1,0.3,0.2c0.1,0.1,0.1,0.2,0.1,0.3c0,0.1-0.1,0.2-0.2,0.3c-3.5,3-6.2,5.2-8.7,6.9c1,0.1,1.9,0.1,2.9-0.1   c4.8-1,8.8-4.1,18.2-14.5c-5.3,0.4-10.6,1.2-15.8,2.3C358,332.5,354.8,335.4,351.4,338.1z"
   class="st6" />
	<path
   id="path214"
   d="M359.4,329.7c-1.4,0.3-2.8,0.9-4.1,1.6c-1,0.6-1.9,1.4-2.6,2.4c-0.7,1-1.1,2.1-1.4,3.2   C354.2,334.7,356.8,332.3,359.4,329.7z"
   class="st6" />
	<path
   id="path216"
   d="M350.5,307.3c0,0,0.1,0.1,0.1,0.1c0,0.1,0,0.1,0.1,0.2c0,0.1,0,0.1,0,0.2c0,0.1,0,0.1-0.1,0.2   c-1.4,1.8-2.8,3.4-4.1,4.8c0,0.7,0.1,1.3,0.4,1.9c0.3,0.6,0.6,1.2,1.1,1.6c2.6-3.1,5.5-6.5,7.6-8.8c0.4-3.8,0.1-8.4,0.2-12.5   c-2.6,2.5-9,10.7-9.3,16.5c1.1-1.2,2.2-2.6,3.3-4c0,0,0.1-0.1,0.1-0.1c0.1,0,0.1-0.1,0.2-0.1c0.1,0,0.1,0,0.2,0   C350.4,307.3,350.5,307.3,350.5,307.3z"
   class="st6" />
	<path
   id="path218"
   d="M353.4,314.5c1.2-1.6,1.9-3.5,2.1-5.4c-2,2.2-4.4,5-6.5,7.6c0.9,0.1,1.8-0.1,2.5-0.5   C352.2,315.9,352.9,315.3,353.4,314.5z"
   class="st6" />
	<path
   id="path220"
   d="M326.1,347.1c-6.6,3.8-3.7,6.9,1.8,6.7c5.5-0.2,11.1-2,20.7-9.6C341.9,346.8,331.8,343.9,326.1,347.1z"
   class="st6" />
	<path
   id="path222"
   d="M311.2,357.2c-3.7,3.2-2.3,6.7,2.5,6.7c4.9,0,9.6-0.9,21-7.5C323.9,357.5,316.9,352.4,311.2,357.2z"
   class="st6" />
	<path
   id="path224"
   d="M321.9,366.6c-8,0.9-18.5-3.4-22.5-0.7c-2.5,1.7-2.9,5.4,1.6,6.6C307.8,374.4,312.9,372,321.9,366.6z"
   class="st6" />
	<path
   id="path226"
   d="M237.1,401c-7.6,0.7-9.1,10.7,2.2,12c11.3,1.3,24.4-0.6,38.8-6.1C260.6,408.5,246.6,400.1,237.1,401z"
   class="st6" />
	<path
   id="path228"
   d="M326.7,341.3c1.5,1.3,4.3-0.4,7.4-4.6c3.1-4.2-1.2-8.4,10.7-22.6c-4.9,4.7-9.5,9.8-13.7,15.2   C327,334.8,325.2,340,326.7,341.3z"
   class="st6" />
	<path
   id="path230"
   d="M339.2,327.1c-4.2,5.7,1.7,9.5,6,5.3c1.6-1.6,2.9-3.4,4.1-5.3c3.7-3.2,10.3-9.8,15-14.9c0,0,0.1-0.1,0.1-0.1   c0,0,0-0.1,0-0.1c0,0,0-0.1,0-0.1c0,0,0-0.1-0.1-0.1c0,0-0.1,0-0.1-0.1c0,0-0.1,0-0.1,0c0,0-0.1,0-0.1,0c0,0-0.1,0-0.1,0.1   c-4.2,4.5-9.7,10-13.4,13.5c1.4-2.3,2.8-5,4.4-8.1c3.5-3.6,6.7-7.5,9.5-11.6c0,0,0-0.1,0-0.1c0,0,0-0.1,0-0.1c0,0,0-0.1,0-0.1   c0,0-0.1-0.1-0.1-0.1c0,0-0.1,0-0.1,0c0,0-0.1,0-0.1,0c0,0-0.1,0-0.1,0c0,0-0.1,0.1-0.1,0.1c-2.8,4.1-5.9,7.9-9.3,11.5   C351.8,317.9,342.9,322.2,339.2,327.1z"
   class="st6" />
	<path
   id="path232"
   d="M217.9,411.2c16.7,7.6,52.3,20.1,64.7,21.8c1.3-6.2,2.5-11.9,2.5-11.9c-25-2.1-41.6-4.2-63.1-11.3   C220.2,410.4,217.9,411.2,217.9,411.2z"
   class="st6" />
	<path
   id="path234"
   d="M276.9,393.9c-1.1,0-2.3,0-3.5-0.1c4.9,1.6,10,2.3,15.2,2.3c-1.4-0.7-2.6-1.5-3.8-2.5   C282.2,393.8,279.5,394,276.9,393.9z"
   class="st6" />
	<path
   id="path236"
   d="M285.8,375.1c-5.9,4.2-2.8,8,2.2,8.4c4.9,0.4,14.9-1.2,24.7-6.9C308,377.3,293.4,369.8,285.8,375.1z"
   class="st6" />
	<path
   id="path238"
   d="M271.1,382.2c-4.8,1.1-10.3,8.8-1.8,9.9c9.1,1.3,18.5,0.1,27-3.5C287.7,387.7,278.3,380.5,271.1,382.2z"
   class="st6" />
	<path
   id="path240"
   d="M298.9,387.2c3.9-0.9,7.7-2.1,11.3-3.6c-1.4-0.7-2.6-1.4-3.8-2.1c-5.4,2.3-11.2,3.5-17,3.4c-0.5,0-0.9,0-1.3,0   c0,0-0.1,0.1-0.1,0.1C291.2,386.1,295.1,387.7,298.9,387.2z"
   class="st6" />
	<path
   id="path242"
   d="M311.4,384.2c-3.1,1.2-5.8,2.2-8.5,2.9c-5.2,2.4-10.5,4.4-16,5.8c0.6,0.8,1.3,1.4,2.2,1.9   c0.8,0.5,1.8,0.8,2.7,0.9c0.2,0,0.5,0.1,0.7,0.1c6.1-1.1,12-3.1,17.4-5.9c0.1-0.1,0.2-0.1,0.3,0c0.1,0,0.2,0.1,0.3,0.2   c0.1,0.1,0.1,0.2,0,0.4c0,0.1-0.1,0.2-0.2,0.3c-4.8,2.5-9.8,4.3-15.1,5.5c9.7,0.9,19.3-2,36.8-10.6   C321.1,387.2,315.4,385.9,311.4,384.2z"
   class="st6" />
	<path
   id="path244"
   d="M253.2,391.6c-7.6,1.6-8,8.4-1.6,10.2c6.4,1.7,16.4,1.7,35.8-4.4C275.3,397.3,261.4,389.9,253.2,391.6z"
   class="st6" />
	<path
   id="path246"
   d="M269.1,403.6c-2.2,0.4-4.4,0.6-6.7,0.7c3.8,0.8,7.6,1.3,11.5,1.4C272.2,405.2,270.6,404.5,269.1,403.6z"
   class="st6" />
</g>
</svg>