<svg xmlns="http://www.w3.org/2000/svg" viewBox="0 0 600 600" width="600" height="600" clip-rule="evenodd" fill-rule="evenodd" image-rendering="optimizeQuality" shape-rendering="geometricPrecision" text-rendering="geometricPrecision"><path d="M 300.07,0 C 134.27,0 0,134.3 0,299.9 0,465.7 134.27,600 300.07,600 465.73,600 600,465.7 600,299.9 600,134.3 465.73,0 300.07,0 Z" fill="#ce7218"/><path d="M 300.07,7 C 138.55,7 7.71,137.8 7.71,299.2 c 0,161.5 130.84,292.4 292.36,292.4 161.38,0 292.37,-130.9 292.37,-292.4 C 592.44,137.8 461.45,7 300.07,7 Z" fill="#fff500"/><path d="M 300.07,16 C 258.44,16 218.91,25 183.32,41.1 85.16,85.6 16.88,184.4 16.88,299 c 0,156.4 126.79,283.2 283.19,283.2 156.4,0 283.19,-126.8 283.19,-283.2 0,-156.2 -126.79,-283 -283.19,-283 z" fill="#fff"/><path d="m 291.418,348.974 c -4.664,-1.805 -8.426,-4.664 -12.187,-8.275 -2.408,-2.257 -13.09,-6.018 -1.655,-32.8 17.904,-42.43 57.024,-107.429 99.755,-140.53 z" fill="#fff500"/><path d="m 291.87,348.222 c 9.328,5.116 24.074,15.197 42.58,-21.666 20.463,-41.226 43.934,-94.64 42.881,-159.187 z" fill="#ef9b11"/><path d="m 297.739,345.214 c -3.762,-3.31 -3.31,0 -5.718,-4.665 -1.504,-2.859 -12.338,-19.409 7.373,-40.775 31.295,-34.004 96.294,-85.612 147.6,-102.463 z" fill="#fff500"/><path d="m 298.34,344.612 c 7.071,7.974 18.958,22.87 55.52,-10.984 33.853,-31.296 77.938,-80.948 93.134,-136.317 z" fill="#ef9b11"/><path d="m 306.164,360.41 c -4.514,2.257 -1.204,3.16 -6.47,3.46 -3.31,0.301 -22.57,4.063 -34.907,-22.268 -19.41,-41.828 -42.28,-121.722 -38.217,-175.587 z" fill="#fff500"/><path d="m 306.013,359.657 c 10.08,-3.46 28.437,-8.727 10.983,-55.52 C 301.047,260.955 272.009,201.222 226.57,166.015 Z" fill="#ef9b11"/><path d="m 118.54,132.613 c -8.276,0.451 -24.074,8.576 -25.127,29.49 16.099,0 33.402,-18.356 36.11,-30.393 0,0 -2.859,0.301 -10.983,0.903 z" fill="#fff500"/><path d="m 93.413,162.103 c 28.437,-3.31 35.96,-30.242 35.96,-30.242 0,0 -25.277,17.453 -35.96,30.242 z" fill="#ef9b11"/><path d="m 101.086,142.844 c -0.451,-3.761 -0.451,-7.222 -1.655,-9.178 0,0 -7.523,4.063 -10.381,9.329 -0.753,1.203 -5.267,6.77 -1.355,32.198 9.78,-8.275 15.197,-19.108 13.391,-32.349 z" fill="#fff500"/><path d="m 99.582,133.666 c 0,0 2.106,3.912 1.655,12.79 -0.452,10.682 -0.753,12.337 -4.965,19.108 -3.612,5.868 -7.824,9.178 -7.824,9.178 6.77,-14.444 3.61,-20.312 4.514,-26.632 1.053,-6.62 5.416,-11.585 5.416,-11.585 z" fill="#ef9b11"/><path d="m 77.765,197.461 c 13.391,-6.319 25.277,-13.39 23.923,-37.916 0,0 -28.888,9.028 -23.923,37.916 z" fill="#fff500"/><path d="m 77.765,197.461 c 4.213,-6.921 13.09,-21.817 17.604,-26.18 3.009,-2.859 6.319,-11.886 6.319,-11.886 0,0 6.17,24.675 -23.923,38.066 z" fill="#ef9b11"/><path d="m 77.916,173.84 c -1.204,-1.506 -3.912,-5.568 -7.524,-11.887 0,0 -0.3,10.833 -3.16,14.895 -3.159,4.364 -6.47,17.303 6.32,31.446 1.505,-2.106 15.949,-20.161 4.364,-34.455 z" fill="#fff500"/><path d="m 70.392,162.404 c 0,0 4.665,7.373 6.922,10.833 4.062,5.868 5.115,8.125 5.266,11.887 0.3,11.434 -9.028,23.17 -9.028,23.17 7.072,-28.136 -3.01,-45.438 -3.01,-45.438 z" fill="#ef9b11"/><path d="m 90.253,201.674 c 1.354,-6.169 -0.15,-10.08 -0.752,-14.143 0,0 1.655,-0.752 -7.824,5.417 -8.275,5.416 -13.843,16.7 -14.896,29.189 19.56,-4.665 21.667,-12.187 23.472,-20.463 z" fill="#fff500"/><path d="m 89.651,187.682 c 0,0 -2.257,4.212 -4.513,9.478 -3.01,6.47 -4.514,10.081 -10.533,15.197 -8.727,7.523 -7.372,9.329 -7.372,9.329 17.905,-3.762 20.011,-10.984 22.569,-17.002 1.956,-4.514 -0.301,-16.551 -0.301,-16.551 z" fill="#ef9b11"/><path d="m 67.834,205.135 c -2.106,-4.063 -9.478,-16.4 -11.585,-18.055 0,0 2.257,7.974 0.753,14.293 -1.355,5.718 -5.568,27.535 7.974,38.669 8.877,-13.391 11.435,-18.206 2.858,-34.907 z" fill="#fff500"/><path d="m 56.55,187.832 c 0,0 3.16,1.354 9.328,13.541 3.461,6.921 4.815,8.276 6.922,16.701 2.558,10.081 -8.125,21.366 -8.125,21.366 0,-26.18 -3.31,-35.058 -4.664,-39.872 -0.903,-3.46 -3.461,-11.736 -3.461,-11.736 z" fill="#ef9b11"/><path d="m 72.65,237.183 c 1.203,-3.762 3.31,-10.984 5.266,-13.993 0,0 -5.868,2.106 -9.93,5.266 -4.214,3.31 -17.906,7.523 -14.295,31.296 14.745,-5.718 17.153,-17.152 18.958,-22.57 z" fill="#fff500"/><path d="m 77.765,223.49 c 0,0 -3.46,1.806 -9.178,8.577 -5.868,6.771 -5.116,8.877 -10.532,16.551 -1.505,2.106 -4.364,11.134 -4.364,11.134 16.551,-7.222 18.357,-21.366 20.011,-26.03 1.656,-4.965 3.762,-10.532 3.762,-10.532 z" fill="#ef9b11"/><path d="m 51.585,235.678 c -2.709,-3.009 -6.771,-5.567 -8.275,-8.275 0,0 1.053,9.93 -0.301,16.55 -0.903,5.267 3.31,23.623 12.337,32.199 15.648,-14.294 1.656,-34.305 -3.761,-40.474 z" fill="#fff500"/><path d="m 43.31,227.403 7.974,7.974 c 4.514,4.514 8.727,11.736 11.134,22.419 2.257,10.532 -7.072,18.356 -7.072,18.356 0.301,-27.835 -5.416,-33.854 -6.92,-38.518 -2.258,-6.92 -5.116,-10.231 -5.116,-10.231 z" fill="#ef9b11"/><path d="m 71.596,259.902 c 0.452,-4.062 1.354,-10.382 1.956,-13.541 0,0 -9.63,7.824 -13.993,12.94 -3.46,4.062 -13.993,21.214 -10.683,29.34 20.614,-5.869 21.817,-18.959 22.72,-28.739 z" fill="#fff500"/><path d="m 73.853,246.36 c 0,0 -1.505,0.603 -6.169,5.568 -2.257,2.558 0.15,9.93 -8.576,20.764 -1.655,1.956 -10.232,15.948 -10.232,15.948 25.73,-6.62 21.968,-26.782 23.021,-31.596 1.204,-6.47 1.956,-10.683 1.956,-10.683 z" fill="#ef9b11"/><path d="m 48.876,273.745 c -2.106,-1.505 -4.965,-4.665 -7.823,-8.577 0,0 0,6.771 0.15,11.285 0.301,12.338 1.053,19.41 15.197,43.784 8.275,-17.303 1.053,-39.872 -7.524,-46.492 z" fill="#fff500"/><path d="m 41.053,265.168 c 0,0 3.31,4.213 7.823,8.577 4.514,4.513 6.922,7.222 9.78,18.055 4.213,16.55 -2.256,28.437 -2.256,28.437 -3.762,-30.092 -7.824,-33.252 -9.48,-39.27 -0.752,-3.01 -3.31,-5.718 -4.212,-8.727 -1.505,-4.965 -1.655,-7.072 -1.655,-7.072 z" fill="#ef9b11"/><path d="m 48.124,328.06 c 15.046,-7.07 24.977,-31.144 21.366,-44.686 0,0 -29.792,14.294 -21.366,44.687 z" fill="#fff500"/><path d="M 48.124,328.06 C 59.71,301.88 69.64,284.277 69.64,284.277 c 0,0 4.213,27.233 -21.516,43.784 z" fill="#ef9b11"/><path d="m 41.956,303.536 c -3.612,-2.859 -5.417,-5.417 -6.922,-7.523 0,0 1.354,6.47 1.204,12.187 -0.452,10.231 -1.053,20.011 15.196,33.252 8.276,-17.454 -0.752,-31.296 -9.478,-37.916 z" fill="#fff500"/><path d="m 34.884,296.013 c 0,0 3.009,4.664 6.47,10.983 3.46,6.019 7.974,8.125 8.576,15.95 0.752,8.274 1.504,18.506 1.504,18.506 3.16,-5.868 6.019,-20.613 -2.708,-30.393 -2.257,-2.709 -4.965,-6.47 -6.77,-7.523 -3.16,-1.956 -7.072,-7.523 -7.072,-7.523 z" fill="#ef9b11"/><path d="m 69.038,323.698 c -0.752,-4.063 0.301,-9.028 0.752,-12.338 0,0 -3.76,5.567 -8.576,7.222 -9.027,3.01 -18.807,22.569 -12.638,36.863 19.71,-6.17 21.816,-23.773 20.462,-31.747 z" fill="#fff500"/><path d="m 69.49,312.413 c 0,0 -1.656,3.31 -2.86,7.373 -1.805,6.319 -3.159,13.39 -10.23,22.72 -7.524,10.08 -7.824,12.939 -7.824,12.939 19.56,-7.975 19.41,-18.657 20.161,-22.72 0.602,-2.859 0.15,-11.886 0.15,-11.585 0,-2.408 0.603,-8.727 0.603,-8.727 z" fill="#ef9b11"/><path d="m 37.592,344.31 c -1.504,-5.566 -0.752,-6.77 -1.655,-10.23 0,0 1.053,0.601 8.426,3.911 11.585,5.116 20.312,20.312 15.949,36.713 -21.667,-14.294 -19.56,-19.26 -22.72,-30.394 z" fill="#fff500"/><path d="m 36.088,334.08 c 0,0 2.708,3.76 6.62,8.274 5.567,6.771 8.124,10.683 11.134,16.4 3.46,7.072 6.77,15.498 6.77,15.498 3.612,-17.303 -5.566,-28.286 -9.178,-31.898 -1.354,-1.354 -8.124,-4.513 -9.78,-5.566 -4.062,-2.558 -5.566,-2.709 -5.566,-2.709 z" fill="#ef9b11"/><path d="m 71.446,360.41 c 0.451,-8.877 0.3,-15.197 1.504,-19.56 0,0 -4.363,5.718 -10.983,11.435 -0.301,0.15 -14.595,20.312 0.451,34.907 7.824,-8.276 8.576,-19.861 9.028,-26.782 z" fill="#fff500"/><path d="m 72.95,340.85 c 0,0 -1.204,6.169 -1.053,11.586 0.15,2.708 -0.451,14.143 -1.956,20.462 -1.505,6.921 -7.523,14.294 -7.523,14.294 4.062,-16.1 6.62,-29.64 6.32,-37.164 -0.151,-2.558 3.61,-8.125 3.61,-8.125 z" fill="#ef9b11"/><path d="m 49.93,372.146 c -4.514,-0.602 -7.373,0.451 -9.63,-0.602 0,0 0.753,6.47 3.912,11.134 5.417,7.974 15.799,17.905 30.092,18.506 C 71.295,383.882 60.763,373.65 49.93,372.146 Z" fill="#fff500"/><path d="m 40.3,371.544 c 0,0 14.896,4.965 27.986,20.613 4.514,5.266 6.018,8.727 6.018,8.727 -4.664,-18.658 -12.337,-23.623 -15.346,-25.428 -2.258,-1.354 -9.028,-4.063 -12.038,-3.46 -1.805,0.45 -6.62,-0.452 -6.62,-0.452 z" fill="#ef9b11"/><path d="m 83.633,384.333 c 0.301,-6.62 -0.903,-11.435 -1.505,-14.895 0,0 -5.717,5.566 -8.877,9.629 -3.611,4.664 -11.736,23.622 1.806,36.863 3.46,-19.26 8.425,-24.375 8.576,-31.597 z" fill="#fff500"/><path d="m 82.128,369.588 c 0,0 0.903,5.868 1.655,10.382 -0.3,-1.204 1.655,6.168 -4.814,19.56 -0.903,2.106 -4.213,17.754 -4.213,17.754 -3.31,-16.25 3.009,-30.844 4.213,-33.402 2.257,-4.665 2.858,-12.489 2.858,-12.489 z" fill="#ef9b11"/><path d="m 56.099,395.316 c -2.558,-0.602 -8.125,-1.805 -12.79,-0.602 0,0 4.063,-0.15 6.47,6.62 2.709,7.524 4.965,24.375 34.757,22.118 C 79.27,406.45 69.941,398.927 56.099,395.316 Z" fill="#fff500"/><path d="m 43.31,394.716 c 0,0 5.868,-0.15 12.638,3.46 6.921,3.612 5.266,8.125 14.294,11.436 7.372,2.858 14.294,13.842 14.294,13.842 C 76.411,398.176 63.772,399.681 60.161,397.124 54.293,392.76 43.31,394.716 43.31,394.716 Z" fill="#ef9b11"/><path d="m 95.97,410.512 c -1.052,-8.877 -5.115,-12.79 -4.814,-19.41 0,0 -4.213,6.922 -7.222,9.78 -4.213,4.213 -12.037,30.243 5.416,35.208 5.718,-5.717 7.824,-16.1 6.62,-25.578 z" fill="#fff500"/><path d="m 91.006,392 c 0,0 -2.86,5.868 -1.656,9.63 -0.3,-1.054 3.31,8.275 -1.053,17.302 -2.106,3.912 1.053,17.303 1.053,17.303 12.338,-17.303 5.417,-30.844 3.612,-35.358 C 92.36,399.222 91.006,392 91.006,392 Z" fill="#ef9b11"/><path d="m 76.561,423.304 c -4.363,-0.752 -10.381,1.354 -17.453,2.107 0,0 -0.452,-0.903 4.062,4.363 3.912,4.664 18.808,19.108 38.067,13.39 -5.718,-14.142 -10.533,-17.302 -24.676,-19.86 z" fill="#fff500"/><path d="m 59.108,425.708 c 0,0 6.77,-2.106 16.25,-2.408 3.31,-0.15 10.682,1.054 16.25,5.267 6.47,4.965 9.177,14.594 9.177,14.594 -9.93,-11.284 -13.09,-5.567 -25.879,-9.178 -7.372,-2.106 -15.798,-8.275 -15.798,-8.275 z" fill="#ef9b11"/><path d="m 106.352,425.708 c -1.655,-8.275 -2.858,-9.78 -6.77,-16.1 0,0 1.504,4.816 -1.956,9.48 -4.966,6.77 -10.834,20.462 3.761,33.252 6.169,-7.824 7.072,-17.304 4.965,-26.632 z" fill="#fff500"/><path d="m 99.732,410.212 c 0,0 3.16,4.664 4.965,9.63 3.01,7.673 2.107,9.63 2.408,16.55 0.15,8.426 -5.718,15.95 -5.718,15.95 -5.567,-18.056 -2.257,-21.968 -0.602,-29.942 1.053,-5.116 -1.053,-12.188 -1.053,-12.188 z" fill="#ef9b11"/><path d="m 98.378,444.668 c -8.727,-4.965 -14.745,-1.204 -24.525,0.3 0,0 0.301,4.063 3.46,6.922 13.542,11.736 23.472,17.905 38.669,14.896 4.514,-9.028 -8.877,-17.153 -17.604,-22.118 z" fill="#fff500"/><path d="m 73.853,445.12 c 0,0 13.541,-4.514 21.365,-1.655 6.32,2.257 8.878,4.815 12.64,7.523 14.443,10.231 7.522,15.798 7.522,15.798 -13.09,-12.638 -21.967,-15.948 -24.676,-17.453 -3.46,-1.655 -16.851,-4.213 -16.851,-4.213 z" fill="#ef9b11"/><path d="m 120.496,447.076 c -3.611,-8.877 -8.426,-12.037 -11.435,-15.648 0,0 -2.859,7.373 -3.461,9.93 -1.504,5.718 -5.717,28.137 10.382,32.5 6.921,-8.727 8.576,-16.852 4.514,-26.782 z" fill="#fff500"/><path d="m 109.06,431.428 c 0,0 3.16,4.664 3.31,11.284 0,2.86 -1.805,13.391 1.204,22.268 1.355,4.213 2.408,8.878 2.408,8.878 13.24,-15.347 2.558,-31.748 -1.204,-36.412 -0.451,-0.602 -5.717,-6.018 -5.717,-6.018 z" fill="#ef9b11"/><path d="m 110.716,466.184 c -4.364,-0.451 -13.842,3.611 -24.224,0 0,0 -0.903,-0.451 6.018,5.868 12.94,11.586 13.993,17.303 40.925,11.134 -5.567,-14.745 -8.275,-16.1 -22.72,-17.002 z" fill="#fff500"/><path d="m 85.74,465.6 c 0,0 12.187,7.222 19.86,7.824 5.868,0.451 3.46,0.15 15.046,2.708 7.523,1.806 12.188,7.222 12.188,7.222 -2.86,-22.418 -27.384,-16.851 -30.394,-16.4 -11.585,2.106 -16.7,-1.354 -16.7,-1.354 z" fill="#ef9b11"/><path d="m 133.736,460.468 c -6.62,-4.213 -6.32,-7.674 -8.877,-10.833 0,0 -1.053,1.354 -2.859,7.673 -8.124,28.738 21.817,35.058 18.056,33.703 3.61,-12.037 1.956,-25.277 -6.32,-30.543 z" fill="#fff500"/><path d="m 125.01,449.784 c 0,0 2.407,3.31 3.61,6.62 1.204,2.708 11.436,4.063 12.94,19.41 0.452,4.363 -1.504,15.196 -1.504,15.196 -3.461,-16.852 -9.63,-27.233 -13.09,-33.402 -1.656,-3.01 -1.956,-7.824 -1.956,-7.824 z" fill="#ef9b11"/><path d="m 128.17,483.488 c -4.364,0.15 -9.931,3.01 -23.021,-0.452 0,0 -1.655,-1.504 5.567,4.364 13.39,10.833 23.02,20.011 51.758,10.984 -4.815,-14.445 -19.56,-15.348 -34.305,-14.896 z" fill="#fff500"/><path d="m 104.396,482.584 c 0,0 12.188,5.718 20.162,7.222 8.276,1.655 15.347,3.16 28.588,4.965 7.673,1.053 9.478,3.611 9.478,3.611 -6.168,-20.312 -40.323,-14.745 -43.482,-13.992 -4.514,1.053 -14.746,-1.806 -14.746,-1.806 z" fill="#ef9b11"/><path d="m 252.75,541.412 c 0,0 -32.048,-10.683 -56.573,-20.463 -18.657,-7.222 -22.569,-13.09 -25.578,-26.03 -0.752,-3.761 -9.329,-12.487 -21.967,-17.001 0,0 -0.903,22.418 17.754,35.508 11.886,8.276 40.474,19.26 82.151,34.155 0,0 7.072,-3.611 4.213,-6.169 z" fill="#fff500"/><path d="m 181.282,514.48 c -14.896,-5.417 -32.65,-36.412 -32.65,-36.412 0,0 21.516,5.868 23.772,23.02 0,0 3.01,12.64 20.312,18.658 z" fill="#ef9b11"/><path d="m 156.305,503.496 c 0,0 8.877,11.585 22.87,17.002 2.257,0.903 32.048,13.842 39.12,16.1 6.62,2.256 30.242,10.983 30.242,10.983 l 1.053,-0.452 c 0,0 -0.45,0.452 -4.664,-1.053 -4.062,-1.504 -30.844,-11.134 -35.508,-12.789 -4.664,-1.655 -8.727,-3.46 -9.78,-3.912 -1.054,-0.602 -5.116,-2.407 -6.62,-2.859 -1.656,-0.602 -6.47,-2.708 -8.878,-3.761 -2.708,-1.053 -7.523,-3.46 -9.328,-4.213 -2.107,-0.903 -4.364,-2.558 -6.47,-3.912 -2.257,-1.505 -4.815,-3.31 -6.62,-4.815 -1.505,-1.504 -3.912,-4.815 -5.417,-6.319 z" fill="#fff"/><path d="m 296.233,345.815 c -3.31,3.762 -7.372,6.169 -12.037,8.426 -3.009,1.354 -10.23,10.08 -31.145,-10.081 C 219.8,312.112 173.006,252.53 157.358,200.772 Z" fill="#fff500"/><path d="m 295.781,345.214 c 8.275,-6.921 22.87,-17.152 -4.965,-47.395 -31.145,-34.004 -72.672,-74.93 -133.458,-97.047 z" fill="#ef9b11"/><path d="m 267.67,321.5 c -9.93,-4.7 -21.82,-12 -34.46,-18.2 C 208.84,291.5 140.98,269.9 90.88,267 l 179.5,83.2 c -3.47,-12.2 -2.26,-23.9 -2.71,-28.7 z" fill="#ef9b11"/><path d="m 295.07,380 c 0,0 0.3,-2.9 0,-6.1 -0.6,-4.6 -4.36,-6.7 -9.63,-7.6 -3.31,-0.5 -43.63,1.3 -52.96,1.6 -9.48,0.3 -28.14,-3.3 -51.76,-22.7 -4.36,-3.6 -67.11,-39 -89.52,-78.1 l 179.5,83.2 c -2.41,-6.7 -2.26,-15.3 -3.01,-30.5 -2.11,-45.9 5.26,-131.4 33.7,-177.6 v 237.9 z" fill="#fff"/><path d="M 301.07,380 V 142.1 c -28.44,46.2 -35.81,131.7 -33.7,177.6 0.75,15.2 0.6,23.8 3.01,30.5 L 90.88,267 c 22.41,39.1 85.16,74.5 89.52,78.1 23.62,19.4 42.28,23 51.76,22.7 9.33,-0.3 49.65,-2.1 52.96,-1.6 5.27,0.9 9.03,3 9.63,7.6 0.3,3.2 0,6.1 0,6.1 z" fill="#fff500"/><path d="m 306.94,380.3 c 0,0 0.15,-3.3 0.6,-6.5 0.6,-4.6 4.36,-6.7 9.48,-7.6 3.46,-0.5 43.63,1.3 53.11,1.6 9.33,0.3 27.99,-3.3 51.61,-22.7 4.51,-3.6 66.2,-43.2 89.67,-78.1 l -179.65,83.2 c 2.41,-6.7 2.41,-15.3 3.01,-30.5 2.11,-45.9 -5.26,-131.4 -33.7,-177.6 V 380 Z" fill="#ef9b11"/><path d="m 307.07,380 c 0,0 0.15,-3.3 0.6,-6.5 0.6,-4.6 4.36,-6.7 9.48,-7.6 3.46,-0.5 43.63,1.3 53.11,1.6 9.33,0.3 27.99,-3.3 51.61,-22.7 4.51,-3.6 66.2,-43.2 89.67,-78.1 l -179.65,83.2 c 2.41,-6.7 2.41,-15.3 3.01,-30.5 2.11,-45.9 -5.26,-131.4 -33.7,-177.6 v 237.9" fill="none"/><path d="m 334.62,321.5 c 9.78,-4.7 21.67,-12 34.31,-18.2 24.37,-11.8 92.23,-33.4 142.48,-36.3 l -179.65,83.2 c 3.61,-12.2 2.26,-23.9 2.86,-28.7 z" fill="#fff500"/><path d="m 105.07,389 c 3.16,0.6 18.2,-1.1 21.36,1.6 3.16,2.6 16.7,4.7 20.47,4.7 3.61,0 26.02,-4.7 31.29,-4.7 15.2,0 30.24,4.3 41.83,4.7 12.49,0.5 20.31,-3.6 32.35,-4.7 12.03,-1 31.9,6.8 34.45,7.3 2.71,0.6 14.6,1.2 17.31,1 8.87,-0.4 21.51,-9.2 32.35,-8.9 15.64,0.6 27.68,8.5 45.43,7.9 17.76,-0.5 22.57,-4.8 32.35,-5.1 13.7,-0.6 25.73,4.6 33.56,4.6 7.82,0 21.96,-6.3 33.4,-6.8 11.43,-0.6 17.15,3.1 17.15,3.1 l 7.37,-15.1 c 0,0 -10.38,-3.7 -19.86,-3.1 -9.33,0.4 -32.95,4.2 -37.61,4.6 -4.67,0.6 -21.97,-3.6 -28.14,-3.6 -13.69,0 -23.62,5.7 -31.9,5.7 -5.71,0 -12.48,-2.1 -15.19,-2.5 -2.56,-0.6 -10.99,-4.8 -21.37,-4.2 -10.53,0.4 -18.81,1 -26.63,3.6 -7.82,2.7 -15.2,3.7 -23.02,3.7 -7.82,0 -13.09,-1 -17.75,-2.1 -4.67,-1 -9.48,-4.8 -17.31,-4.2 -7.82,0.5 -12.49,2.6 -15.04,2.6 -2.71,0 -11.59,3.1 -16.85,2.7 -5.12,-0.6 -12.94,-3.2 -20.77,-4.2 -7.82,-1.1 -18.35,-5.3 -28.29,-4.7 -9.93,0.4 -10.38,1 -15.64,2 -5.27,1 -12.04,5.2 -17.31,4.8 -5.11,-0.6 -10.38,-1.7 -15.64,-2.7 -5.27,-1.1 -7.83,-3.4 -15.65,-4.1 -10.38,-1.1 -22.42,2 -22.42,2 z" fill="#fff500"/><path d="m 123.07,421 c 5.72,2.6 15.65,4.7 19.26,4.7 3.77,0 21.97,-6.2 27.24,-6.2 15.19,0 34.45,8.9 45.89,9.3 12.64,0.6 22.57,-4.6 34.6,-5.7 12.04,-1.1 25.58,3.2 28.14,3.6 2.71,0.6 14.59,0.8 17.3,1.1 16.1,1.6 31.9,-6.1 42.73,-5.8 15.8,0.5 15.2,6.4 35.06,4.7 12.49,-1 22.42,-4.8 32.35,-5.1 13.69,-0.6 40.77,5.1 48.6,5.1 7.82,0 8.88,-4.2 20.46,-4.7 11.44,-0.4 6.77,-0.4 6.77,-0.4 l 9.33,-15.8 c 0,0 -4.06,-2.1 -13.54,-1.5 -9.33,0.4 -29.19,4.7 -34.01,5.3 -4.66,0.4 -13.54,-5.3 -29.79,-5.3 -13.54,0 -27.08,5.3 -35.51,5.3 -5.71,0 -10.98,-0.6 -13.54,-1.1 -2.55,-0.6 -10.98,-4.8 -21.36,-4.2 -10.53,0.4 -18.81,1 -26.63,3.6 -7.83,2.7 -8.43,4.2 -16.25,4.2 -7.83,0 -19.86,-1.5 -24.53,-2.5 -4.66,-1.1 -9.48,-4.9 -17.3,-4.3 -7.83,0.5 -12.49,2.6 -15.05,2.6 -2.71,0 -17.9,3.2 -23.02,2.7 -5.26,-0.6 -11.58,0 -19.86,-3.1 -7.37,-2.9 -8.42,-5 -20.46,-5.8 -7.22,-0.6 -10.38,1.5 -15.65,2.6 -5.27,1 -10.98,4.2 -16.1,3.6 -5.26,-0.4 -10.98,-3.6 -16.25,-4.7 -5.26,-1 -10.98,-0.7 -18.81,-1.5 z" fill="#fff500"/><path d="m 138.07,438 c 5.27,0.4 17.3,-2.7 22.42,-3.8 5.26,-1 8.42,-3.1 15.8,-2.5 11.88,0.9 12.94,3 20.31,5.7 8.42,3.2 14.59,2.7 19.86,3.2 5.27,0.4 15.65,-3.7 18.21,-3.7 2.7,0 9.47,-2.7 17.3,-3.1 7.82,-0.6 18.81,3.6 23.47,4.6 4.81,1.1 13.09,3.7 20.91,3.7 7.83,0 10.99,0 18.81,-2.6 7.83,-2.6 10.98,-4.2 21.52,-4.7 10.38,-0.6 18.8,4.2 21.36,4.7 2.56,0.6 15.65,2.6 21.37,2.6 8.42,0 26.63,-6.8 40.32,-6.8 16.1,0 20.92,4.8 25.58,4.2 4.66,-0.5 12.04,2.1 18.21,3.6 0,0 -13.7,14.8 -15.65,14.2 -6.77,-2.2 -23.47,-6.4 -41.23,-2.2 -11.89,2.9 -24.52,4.7 -37.16,4.3 -17.16,-0.5 -18.21,-3.2 -33.86,-3.6 -10.98,-0.5 -20.31,5.1 -36.56,5.1 -8.88,0 -21.97,-3.6 -24.67,-4.1 -2.56,-0.6 -11.44,-4.2 -23.48,-3.2 -12.03,1.1 -27.08,2.6 -39.72,2.2 -11.43,-0.5 -24.52,-4.3 -37.61,-3.8 -4.21,0.3 -20.92,1 -22.42,1 z" fill="#fff500"/><path d="m 206.07,491 c 7.82,-1.5 34.45,-3.2 46.49,-4.1 12.04,-1.1 23.02,2.6 25.58,3 2.71,0.6 15.65,4.2 24.52,4.2 16.25,0 21.52,-4.5 32.5,-4.2 15.65,0.6 19.86,4.2 37.02,4.8 12.64,0.3 9.93,4.7 17.9,1.7 5.57,-1.7 42.13,-24.7 42.13,-24.7 -4.66,0.4 6.32,-1.1 -9.93,-1.1 -13.54,0 -33.4,5.8 -41.68,5.8 -5.71,0 -14.74,-1.1 -17.3,-1.5 -2.56,-0.6 -8.88,-5.9 -21.37,-4.9 -10.53,0.9 -16.25,2.1 -24.07,4.9 -7.82,2.5 -10.98,2.5 -18.81,2.5 -7.82,0 -16.25,-2.5 -20.91,-3.6 -4.66,-1 -15.65,-5.3 -23.47,-4.8 -7.83,0.6 -14.6,3.1 -17.31,3.1 -2.55,0 -12.93,4.3 -18.2,3.8 -5.27,-0.6 -7.37,1.1 -15.65,-2.1 -7.52,-2.9 -6.32,-1.8 -18.36,-2.7 -7.37,-0.5 -8.27,-0.5 -13.54,0.6 z" fill="#fff500"/><path d="m 236.07,503 c 0,0 12.04,-8.9 19.26,-7.4 7.37,1.5 32.95,6.8 40.77,7.4 7.83,0.4 23.02,-4.2 35.06,-2.7 12.04,1.6 18.21,0.6 26.03,6.3 0,0 -37.01,8.9 -54.77,7.4 -17.75,-1.7 -46.49,-2.1 -66.35,-11 z" fill="#fff500"/><path d="m 483.706,132.613 c 8.275,0.451 24.074,8.576 25.127,29.49 -16.1,0 -33.402,-18.356 -36.11,-30.393 0,0 2.858,0.301 10.983,0.903 z" fill="#fff500"/><path d="m 508.834,162.103 c -28.437,-3.31 -35.96,-30.242 -35.96,-30.242 0,0 25.277,17.453 35.96,30.242 z" fill="#ef9b11"/><path d="m 501.162,142.844 c 0.452,-3.761 0.452,-7.222 1.655,-9.178 0,0 7.523,4.063 10.382,9.329 0.752,1.203 5.266,6.77 1.354,32.198 -9.78,-8.275 -15.196,-19.108 -13.391,-32.349 z" fill="#fff500"/><path d="m 502.666,133.666 c 0,0 -2.106,3.912 -1.655,12.79 0.451,10.682 0.752,12.337 4.965,19.108 3.611,5.868 7.824,9.178 7.824,9.178 -6.77,-14.444 -3.611,-20.312 -4.514,-26.632 -1.053,-6.62 -5.416,-11.585 -5.416,-11.585 z" fill="#ef9b11"/><path d="m 524.47,197.461 c -13.391,-6.319 -25.278,-13.39 -23.923,-37.916 0,0 28.888,9.028 23.923,37.916 z" fill="#fff500"/><path d="m 524.47,197.461 c -4.213,-6.921 -13.09,-21.817 -17.604,-26.18 -3.01,-2.859 -6.32,-11.886 -6.32,-11.886 0,0 -6.168,24.675 23.924,38.066 z" fill="#ef9b11"/><path d="m 524.33,173.84 c 1.204,-1.506 3.912,-5.568 7.523,-11.887 0,0 0.3,10.833 3.16,14.895 3.159,4.364 6.47,17.303 -6.32,31.446 -1.505,-2.106 -15.949,-20.161 -4.363,-34.455 z" fill="#fff500"/><path d="m 531.854,162.404 c 0,0 -4.664,7.373 -6.921,10.833 -4.063,5.868 -5.116,8.125 -5.266,11.887 -0.301,11.434 9.027,23.17 9.027,23.17 -7.071,-28.136 3.01,-45.438 3.01,-45.438 z" fill="#ef9b11"/><path d="m 511.994,201.674 c -1.354,-6.169 0.15,-10.08 0.752,-14.143 0,0 -1.655,-0.752 7.824,5.417 8.276,5.416 13.843,16.7 14.896,29.189 -19.56,-4.665 -21.666,-12.187 -23.472,-20.463 z" fill="#fff500"/><path d="m 512.594,187.682 c 0,0 2.257,4.212 4.514,9.478 3.009,6.47 4.514,10.081 10.532,15.197 8.727,7.523 7.372,9.329 7.372,9.329 -17.904,-3.762 -20.01,-10.984 -22.568,-17.002 -1.956,-4.514 0.3,-16.551 0.3,-16.551 z" fill="#ef9b11"/><path d="m 534.414,205.135 c 2.106,-4.063 9.479,-16.4 11.585,-18.055 0,0 -2.257,7.974 -0.752,14.293 1.354,5.718 5.567,27.535 -7.974,38.669 -8.877,-13.391 -11.435,-18.206 -2.859,-34.907 z" fill="#fff500"/><path d="m 545.698,187.832 c 0,0 -3.16,1.354 -9.328,13.541 -3.461,6.921 -4.815,8.276 -6.922,16.701 -2.558,10.081 8.125,21.366 8.125,21.366 0,-26.18 3.31,-35.058 4.665,-39.872 0.902,-3.46 3.46,-11.736 3.46,-11.736 z" fill="#ef9b11"/><path d="m 529.598,237.183 c -1.204,-3.762 -3.31,-10.984 -5.266,-13.993 0,0 5.868,2.106 9.93,5.266 4.213,3.31 17.905,7.523 14.294,31.296 -14.745,-5.718 -17.152,-17.152 -18.958,-22.57 z" fill="#fff500"/><path d="m 524.47,223.49 c 0,0 3.46,1.806 9.178,8.577 5.868,6.771 5.116,8.877 10.532,16.551 1.505,2.106 4.364,11.134 4.364,11.134 -16.551,-7.222 -18.357,-21.366 -20.012,-26.03 -1.655,-4.965 -3.761,-10.532 -3.761,-10.532 z" fill="#ef9b11"/><path d="m 550.662,235.678 c 2.708,-3.009 6.77,-5.567 8.275,-8.275 0,0 -1.053,9.93 0.301,16.55 0.903,5.267 -3.31,23.623 -12.338,32.199 -15.647,-14.294 -1.654,-34.305 3.762,-40.474 z" fill="#fff500"/><path d="m 558.938,227.403 -7.974,7.974 c -4.514,4.514 -8.727,11.736 -11.134,22.419 -2.257,10.532 7.071,18.356 7.071,18.356 -0.3,-27.835 5.417,-33.854 6.921,-38.518 2.257,-6.92 5.116,-10.231 5.116,-10.231 z" fill="#ef9b11"/><path d="m 530.65,259.902 c -0.452,-4.062 -1.354,-10.382 -1.956,-13.541 0,0 9.63,7.824 13.993,12.94 3.46,4.062 13.993,21.214 10.683,29.34 -20.614,-5.869 -21.817,-18.959 -22.72,-28.739 z" fill="#fff500"/><path d="m 528.394,246.36 c 0,0 1.504,0.603 6.169,5.568 2.257,2.558 -0.15,9.93 8.576,20.764 1.655,1.956 10.231,15.948 10.231,15.948 -25.728,-6.62 -21.967,-26.782 -23.02,-31.596 a 1632.378,1632.378 0 0 1 -1.956,-10.683 z" fill="#ef9b11"/><path d="m 553.37,273.745 c 2.106,-1.505 4.965,-4.665 7.824,-8.577 0,0 0,6.771 -0.15,11.285 -0.302,12.338 -1.054,19.41 -15.197,43.784 -8.275,-17.303 -1.053,-39.872 7.523,-46.492 z" fill="#fff500"/><path d="m 561.194,265.168 c 0,0 -3.31,4.213 -7.824,8.577 -4.514,4.513 -6.92,7.222 -9.78,18.055 -4.212,16.55 2.257,28.437 2.257,28.437 3.762,-30.092 7.824,-33.252 9.48,-39.27 0.751,-3.01 3.31,-5.718 4.212,-8.727 1.505,-4.965 1.655,-7.072 1.655,-7.072 z" fill="#ef9b11"/><path d="m 554.122,328.06 c -15.046,-7.07 -24.976,-31.144 -21.365,-44.686 0,0 29.791,14.294 21.365,44.687 z" fill="#fff500"/><path d="m 554.122,328.06 c -11.585,-26.18 -21.516,-43.783 -21.516,-43.783 0,0 -4.212,27.233 21.516,43.784 z" fill="#ef9b11"/><path d="m 560.29,303.536 c 3.61,-2.859 5.416,-5.417 6.921,-7.523 0,0 -1.354,6.47 -1.204,12.187 0.452,10.231 1.053,20.011 -15.196,33.252 -8.275,-17.454 0.752,-31.296 9.479,-37.916 z" fill="#fff500"/><path d="m 567.362,296.013 c 0,0 -3.01,4.664 -6.47,10.983 -3.46,6.019 -7.974,8.125 -8.576,15.95 -0.752,8.274 -1.505,18.506 -1.505,18.506 -3.16,-5.868 -6.018,-20.613 2.709,-30.393 2.256,-2.709 4.965,-6.47 6.77,-7.523 3.16,-1.956 7.072,-7.523 7.072,-7.523 z" fill="#ef9b11"/><path d="m 533.21,323.698 c 0.752,-4.063 -0.3,-9.028 -0.752,-12.338 0,0 3.761,5.567 8.576,7.222 9.028,3.01 18.808,22.569 12.639,36.863 -19.71,-6.17 -21.817,-23.773 -20.463,-31.747 z" fill="#fff500"/><path d="m 532.758,312.413 c 0,0 1.655,3.31 2.859,7.373 1.805,6.319 3.16,13.39 10.231,22.72 7.523,10.08 7.824,12.939 7.824,12.939 -19.56,-7.975 -19.41,-18.657 -20.162,-22.72 -0.602,-2.859 -0.15,-11.886 -0.15,-11.585 0,-2.408 -0.602,-8.727 -0.602,-8.727 z" fill="#ef9b11"/><path d="m 564.654,344.31 c 1.504,-5.566 0.752,-6.77 1.655,-10.23 0,0 -1.053,0.601 -8.426,3.911 -11.585,5.116 -20.312,20.312 -15.949,36.713 21.667,-14.294 19.56,-19.26 22.72,-30.394 z" fill="#fff500"/><path d="m 566.158,334.08 c 0,0 -2.708,3.76 -6.62,8.274 -5.567,6.771 -8.125,10.683 -11.134,16.4 -3.46,7.072 -6.77,15.498 -6.77,15.498 -3.612,-17.303 5.566,-28.286 9.177,-31.898 1.354,-1.354 8.125,-4.513 9.78,-5.566 4.063,-2.558 5.567,-2.709 5.567,-2.709 z" fill="#ef9b11"/><path d="m 530.802,360.41 c -0.451,-8.877 -0.3,-15.197 -1.504,-19.56 0,0 4.363,5.718 10.983,11.435 0.301,0.15 14.595,20.312 -0.451,34.907 -7.824,-8.276 -8.576,-19.861 -9.028,-26.782 z" fill="#fff500"/><path d="m 529.298,340.85 c 0,0 1.204,6.169 1.053,11.586 -0.15,2.708 0.451,14.143 1.956,20.462 1.505,6.921 7.523,14.294 7.523,14.294 -4.062,-16.1 -6.62,-29.64 -6.32,-37.164 0.151,-2.558 -3.61,-8.125 -3.61,-8.125 z" fill="#ef9b11"/><path d="m 552.318,372.146 c 4.514,-0.602 7.372,0.451 9.63,-0.602 0,0 -0.753,6.47 -3.913,11.134 -5.416,7.974 -15.798,17.905 -30.092,18.506 3.01,-17.302 13.542,-27.534 24.375,-29.038 z" fill="#fff500"/><path d="m 561.946,371.544 c 0,0 -14.896,4.965 -27.986,20.613 -4.513,5.266 -6.018,8.727 -6.018,8.727 4.664,-18.658 12.338,-23.623 15.347,-25.428 2.257,-1.354 9.028,-4.063 12.037,-3.46 1.805,0.45 6.62,-0.452 6.62,-0.452 z" fill="#ef9b11"/><path d="m 518.614,384.333 c -0.3,-6.62 0.903,-11.435 1.504,-14.895 0,0 5.718,5.566 8.878,9.629 3.61,4.664 11.736,23.622 -1.806,36.863 -3.46,-19.26 -8.426,-24.375 -8.576,-31.597 z" fill="#fff500"/><path d="m 520.118,369.588 c 0,0 -0.903,5.868 -1.655,10.382 0.301,-1.204 -1.655,6.168 4.815,19.56 0.902,2.106 4.213,17.754 4.213,17.754 3.31,-16.25 -3.01,-30.844 -4.213,-33.402 -2.257,-4.665 -2.859,-12.489 -2.859,-12.489 z" fill="#ef9b11"/><path d="m 546.146,395.316 c 2.558,-0.602 8.125,-1.805 12.79,-0.602 0,0 -4.063,-0.15 -6.47,6.62 -2.709,7.524 -4.966,24.375 -34.757,22.118 5.266,-17.002 14.595,-24.525 28.437,-28.136 z" fill="#fff500"/><path d="m 558.938,394.716 c 0,0 -5.868,-0.15 -12.638,3.46 -6.922,3.612 -5.267,8.125 -14.294,11.436 -7.373,2.858 -14.294,13.842 -14.294,13.842 8.125,-25.278 20.764,-23.773 24.374,-26.33 5.868,-4.364 16.852,-2.408 16.852,-2.408 z" fill="#ef9b11"/><path d="m 506.274,410.512 c 1.054,-8.877 5.116,-12.79 4.815,-19.41 0,0 4.213,6.922 7.222,9.78 4.213,4.213 12.037,30.243 -5.417,35.208 -5.717,-5.717 -7.824,-16.1 -6.62,-25.578 z" fill="#fff500"/><path d="m 511.242,392 c 0,0 2.859,5.868 1.655,9.63 0.301,-1.054 -3.31,8.275 1.053,17.302 2.107,3.912 -1.053,17.303 -1.053,17.303 -12.337,-17.303 -5.416,-30.844 -3.61,-35.358 0.601,-1.655 1.955,-8.877 1.955,-8.877 z" fill="#ef9b11"/><path d="m 525.67,423.304 c 4.363,-0.752 10.382,1.354 17.453,2.107 0,0 0.452,-0.903 -4.062,4.363 -3.912,4.664 -18.807,19.108 -38.067,13.39 5.718,-14.142 10.533,-17.302 24.676,-19.86 z" fill="#fff500"/><path d="m 543.138,425.708 c 0,0 -6.77,-2.106 -16.25,-2.408 -3.31,-0.15 -10.682,1.054 -16.25,5.267 -6.47,4.965 -9.177,14.594 -9.177,14.594 9.93,-11.284 13.09,-5.567 25.879,-9.178 7.372,-2.106 15.798,-8.275 15.798,-8.275 z" fill="#ef9b11"/><path d="m 495.894,425.708 c 1.655,-8.275 2.859,-9.78 6.77,-16.1 0,0 -1.504,4.816 1.957,9.48 4.965,6.77 10.833,20.462 -3.762,33.252 -6.169,-7.824 -7.071,-17.304 -4.965,-26.632 z" fill="#fff500"/><path d="m 502.514,410.212 c 0,0 -3.16,4.664 -4.965,9.63 -3.01,7.673 -2.107,9.63 -2.408,16.55 -0.15,8.426 5.718,15.95 5.718,15.95 5.567,-18.056 2.257,-21.968 0.602,-29.942 -1.053,-5.116 1.053,-12.188 1.053,-12.188 z" fill="#ef9b11"/><path d="m 503.87,444.668 c 8.727,-4.965 14.745,-1.204 24.525,0.3 0,0 -0.301,4.063 -3.46,6.922 -13.542,11.736 -23.472,17.905 -38.669,14.896 -4.514,-9.028 8.877,-17.153 17.604,-22.118 z" fill="#fff500"/><path d="m 528.394,445.12 c 0,0 -13.542,-4.514 -21.366,-1.655 -6.319,2.257 -8.877,4.815 -12.638,7.523 -14.444,10.231 -7.523,15.798 -7.523,15.798 13.09,-12.638 21.967,-15.948 24.675,-17.453 3.46,-1.655 16.852,-4.213 16.852,-4.213 z" fill="#ef9b11"/><path d="m 481.75,447.076 c 3.611,-8.877 8.426,-12.037 11.435,-15.648 0,0 2.859,7.373 3.46,9.93 1.505,5.718 5.718,28.137 -10.381,32.5 -6.921,-8.727 -8.576,-16.852 -4.514,-26.782 z" fill="#fff500"/><path d="m 493.186,431.428 c 0,0 -3.16,4.664 -3.31,11.284 0,2.86 1.806,13.391 -1.204,22.268 -1.354,4.213 -2.407,8.878 -2.407,8.878 -13.24,-15.347 -2.558,-31.748 1.204,-36.412 0.451,-0.602 5.717,-6.018 5.717,-6.018 z" fill="#ef9b11"/><path d="m 491.53,466.184 c 4.363,-0.451 13.842,3.611 24.224,0 0,0 0.903,-0.451 -6.018,5.868 -12.94,11.586 -13.993,17.303 -40.926,11.134 5.568,-14.745 8.276,-16.1 22.72,-17.002 z" fill="#fff500"/><path d="m 516.506,465.6 c 0,0 -12.187,7.222 -19.86,7.824 -5.869,0.451 -3.462,0.15 -15.047,2.708 -7.523,1.806 -12.187,7.222 -12.187,7.222 2.858,-22.418 27.384,-16.851 30.393,-16.4 11.585,2.106 16.701,-1.354 16.701,-1.354 z" fill="#ef9b11"/><path d="m 468.51,460.468 c 6.62,-4.213 6.32,-7.674 8.877,-10.833 0,0 1.053,1.354 2.859,7.673 8.125,28.738 -21.817,35.058 -18.056,33.703 -3.61,-12.037 -1.956,-25.277 6.32,-30.543 z" fill="#fff500"/><path d="m 477.238,449.784 c 0,0 -2.407,3.31 -3.61,6.62 -1.204,2.708 -11.436,4.063 -12.94,19.41 -0.452,4.363 1.504,15.196 1.504,15.196 3.46,-16.852 9.63,-27.233 13.09,-33.402 1.655,-3.01 1.956,-7.824 1.956,-7.824 z" fill="#ef9b11"/><path d="m 474.07,483.488 c 4.364,0.15 9.93,3.01 23.02,-0.452 0,0 1.656,-1.504 -5.566,4.364 -13.392,10.833 -23.02,20.011 -51.759,10.984 4.815,-14.445 19.56,-15.348 34.305,-14.896 z" fill="#fff500"/><path d="m 497.85,482.584 c 0,0 -12.187,5.718 -20.162,7.222 -8.275,1.655 -15.347,3.16 -28.587,4.965 -7.673,1.053 -9.479,3.611 -9.479,3.611 6.169,-20.312 40.323,-14.745 43.483,-13.992 4.514,1.053 14.745,-1.806 14.745,-1.806 z" fill="#ef9b11"/><path d="m 349.496,541.412 c 0,0 32.048,-10.683 56.573,-20.463 18.657,-7.222 22.57,-13.09 25.579,-26.03 0.752,-3.761 9.328,-12.487 21.967,-17.001 0,0 0.903,22.418 -17.755,35.508 -11.886,8.276 -40.474,19.26 -82.15,34.155 0,0 -7.072,-3.611 -4.214,-6.169 z" fill="#fff500"/><path d="m 420.966,514.48 c 14.896,-5.417 32.65,-36.412 32.65,-36.412 0,0 -21.516,5.868 -23.773,23.02 0,0 -3.009,12.64 -20.312,18.658 z" fill="#ef9b11"/><path d="m 445.942,503.496 c 0,0 -8.877,11.585 -22.87,17.002 -2.257,0.903 -32.048,13.842 -39.12,16.1 -6.62,2.256 -30.242,10.983 -30.242,10.983 l -1.053,-0.452 c 0,0 0.451,0.452 4.664,-1.053 4.062,-1.504 30.844,-11.134 35.509,-12.789 4.664,-1.655 8.726,-3.46 9.78,-3.912 1.053,-0.602 5.115,-2.407 6.62,-2.859 1.655,-0.602 6.47,-2.708 8.877,-3.761 2.708,-1.053 7.523,-3.46 9.329,-4.213 2.106,-0.903 4.363,-2.558 6.47,-3.912 2.256,-1.505 4.814,-3.31 6.62,-4.815 1.504,-1.504 3.912,-4.815 5.416,-6.319 z" fill="#fff"/><path d="m 196.78,119.372 -20.313,14.746 7.824,23.772 -20.312,-14.745 -20.313,14.745 7.824,-23.772 -20.312,-14.746 h 25.127 l 7.674,-23.923 7.673,23.923 z" fill="#fff500"/><path d="m 131.178,119.372 h 25.127 l 7.674,10.533 z" fill="#fff500"/><path d="m 163.979,95.45 7.673,23.922 -7.673,10.533 z" fill="#fff500"/><path d="m 196.78,119.372 -20.313,14.746 -12.488,-4.213 z" fill="#fff500"/><path d="m 184.29,157.89 -20.311,-14.745 v -13.24 z" fill="#fff500"/><path d="m 143.666,157.89 7.824,-23.772 12.489,-4.213 z" fill="#fff500"/><path d="m 163.979,95.45 -7.674,23.922 7.674,10.533 z" fill="#ef9b11"/><path d="m 196.78,119.372 h -25.128 l -7.673,10.533 z" fill="#ef9b11"/><path d="m 184.29,157.89 -7.823,-23.772 -12.488,-4.213 z" fill="#ef9b11"/><path d="m 143.666,157.89 20.313,-14.745 v -13.24 z" fill="#ef9b11"/><path d="m 131.178,119.372 20.312,14.746 12.489,-4.213 z" fill="#ef9b11"/><path d="m 264.87,93.305 -24.295,6.301 -1.406,24.988 -13.518,-21.15 -24.296,6.302 15.971,-19.268 -13.517,-21.15 23.388,9.184 15.887,-19.463 -1.602,25.072 z" fill="#fff500"/><path d="m 203.809,69.329 23.388,9.183 3.293,12.608 z" fill="#fff500"/><path d="m 243.084,59.049 -1.602,25.072 -10.992,7 z" fill="#fff500"/><path d="M 264.87,93.305 240.575,99.606 230.49,91.12 Z" fill="#fff500"/><path d="m 239.17,124.594 -13.519,-21.15 4.84,-12.324 z" fill="#fff500"/><path d="M 201.355,109.746 217.326,90.478 230.49,91.12 Z" fill="#fff500"/><path d="M 243.084,59.049 227.197,78.512 230.49,91.12 Z" fill="#ef9b11"/><path d="m 264.87,93.305 -23.388,-9.184 -10.992,7 z" fill="#ef9b11"/><path d="M 239.17,124.594 240.575,99.606 230.49,91.12 Z" fill="#ef9b11"/><path d="m 201.355,109.746 24.296,-6.301 4.84,-12.325 z" fill="#ef9b11"/><path d="m 203.809,69.329 13.517,21.149 13.164,0.642 z" fill="#ef9b11"/><path d="m 408.562,119.372 20.308,14.746 -7.82,23.772 20.312,-14.745 20.308,14.745 -7.82,-23.772 20.312,-14.746 h -25.128 l -7.672,-23.923 -7.692,23.923 z" fill="#fff500"/><path d="m 474.162,119.372 h -25.128 l -7.672,10.533 z" fill="#fff500"/><path d="m 441.362,95.45 -7.692,23.922 7.692,10.533 z" fill="#fff500"/><path d="m 408.562,119.372 20.308,14.746 12.492,-4.213 z" fill="#fff500"/><path d="m 421.05,157.89 20.312,-14.745 v -13.24 z" fill="#fff500"/><path d="m 461.67,157.89 -7.82,-23.772 -12.488,-4.213 z" fill="#fff500"/><path d="m 441.362,95.45 7.672,23.922 -7.672,10.533 z" fill="#ef9b11"/><path d="m 408.562,119.372 h 25.108 l 7.692,10.533 z" fill="#ef9b11"/><path d="m 421.05,157.89 7.82,-23.772 12.492,-4.213 z" fill="#ef9b11"/><path d="m 461.67,157.89 -20.308,-14.745 v -13.24 z" fill="#ef9b11"/><path d="m 474.162,119.372 -20.312,14.746 -12.488,-4.213 z" fill="#ef9b11"/><path d="m 340.47,93.305 24.295,6.301 1.406,24.988 13.517,-21.15 24.298,6.302 -15.973,-19.268 13.517,-21.15 -23.388,9.184 -15.886,-19.463 1.601,25.072 z" fill="#fff500"/><path d="m 401.53,69.329 -23.388,9.183 -3.293,12.608 z" fill="#fff500"/><path d="m 362.256,59.049 1.601,25.072 10.992,7 z" fill="#fff500"/><path d="m 340.47,93.305 24.295,6.301 10.084,-8.486 z" fill="#fff500"/><path d="m 366.17,124.594 13.518,-21.15 -4.839,-12.324 z" fill="#fff500"/><path d="M 403.986,109.746 388.013,90.478 374.849,91.12 Z" fill="#fff500"/><path d="m 362.256,59.049 15.886,19.463 -3.293,12.608 z" fill="#ef9b11"/><path d="m 340.47,93.305 23.387,-9.184 10.992,7 z" fill="#ef9b11"/><path d="M 366.17,124.594 364.765,99.606 374.849,91.12 Z" fill="#ef9b11"/><path d="M 403.986,109.746 379.688,103.445 374.849,91.12 Z" fill="#ef9b11"/><path d="M 401.53,69.329 388.013,90.478 374.849,91.12 Z" fill="#ef9b11"/><g transform="translate(-0.79992549)" stroke="#000"><g transform="translate(0.79981211)"><path d="m 301.048,131.259 c -2.13456,-1.79275 -4.664,-6.32 -4.664,-6.32 l -0.752,2.107 c -1.956,-2.558 -5.116,-15.648 -5.116,-15.648 l -1.505,0.452 c -1.655,-4.063 -1.14167,-17.080397 -1.203,-17.755 l -1.75267,1.655 C 283.94933,69.57 301.048,71.225 301.048,71.225 Z" fill="#fff500" stroke-width="1.016"/><path d="m 301.048,82.66 -7.372,6.32" fill="none" stroke-width=".61"/><path d="m 300.747,92.14 -6.77,8.274" fill="none" stroke-width=".61"/><path d="m 301.048,104.627 -5.416,6.771" fill="none" stroke-width=".61"/><g transform="matrix(-1,0,0,1,602.096,0)" fill="#ef9b11"><path d="m 301.048,131.259 c -2.13456,-1.79275 -4.664,-6.32 -4.664,-6.32 l -0.752,2.107 c -1.956,-2.558 -5.116,-15.648 -5.116,-15.648 l -1.505,0.452 c -1.655,-4.063 -1.14167,-17.080397 -1.203,-17.755 l -1.75333,1.655 C 283.94867,69.57 301.048,71.225 301.048,71.225 Z" stroke-width="1.016"/><path d="m 301.048,82.66 -7.372,6.32" stroke-width=".61"/><path d="m 300.747,92.14 -6.77,8.274" stroke-width=".61"/><path d="m 301.048,104.627 -5.416,6.771" stroke-width=".61"/></g></g><path d="m 305.2697,55.5 h -6.72 c 0,0 -0.90626,-13.750033 3.51,-19.3 0,0 4.57,4.8 3.21,19.3 z" fill="#fff500" stroke-width="1.016"/><g transform="translate(-0.1,-0.30074566)"><path d="m 299.542,68.066 c 0,0 4.816,-21.366 -15.496,-28.588 -21.064,-7.523 -32.17707,1.956 -38.64607,10.683 0,0 18.93607,0 30.97207,3.61 9.63,2.86 17.302,10.082 23.17,14.295 z" fill="#fff500" stroke-width="1.422"/><path d="m 289.605,61.015 c 0,0 -6.612,-4.685 -7.064,-8.447 -0.601,-3.762 -0.3,-4.965 -2.106,-6.77" fill="none" stroke-width=".61"/><path d="m 275.018,53.17 c 0,0 -3.009,-7.222 -4.664,-8.426" fill="none" stroke-width=".61"/><path d="m 265.389,51.665 c 0,0 -2.407,-3.009 -3.46,-6.319" fill="none" stroke-width=".61"/></g><path d="m 298.99202,71.225 0.602,-3.46 h 4.814 l 0.452,3.46 z" fill="#fff500" stroke-width="1.016"/><path d="m 304.27,68 h -4.52 c 0.36194,-5.368284 0.38069,-11.217558 -0.6,-12.5 h 6.72 c -0.98069,2.112258 -1.15,5.7 -1.6,12.5 z" fill="#ef9b11" stroke-width="1.422" stroke-linejoin="round"/><g transform="matrix(-1,0,0,1,604.04988,-0.301)" fill="#ef9b11"><path d="m 299.542,68.066 c 0,0 4.816,-21.366 -15.496,-28.588 -21.064,-7.523 -35.509,1.956 -41.978,10.683 0,0 22.268,0 34.304,3.61 9.63,2.86 17.302,10.082 23.17,14.295 z" stroke-width="1.422"/><path d="m 289.605,61.015 c 0,0 -6.612,-4.685 -7.064,-8.447 -0.601,-3.762 -0.3,-4.965 -2.106,-6.77" fill="none" stroke-width=".61"/><path d="m 275.018,53.17 c 0,0 -3.009,-7.222 -4.664,-8.426" stroke-width=".61"/><path d="m 265.389,51.665 c 0,0 -2.407,-3.009 -3.46,-6.319" stroke-width=".61"/></g><path d="m 297.18367,124.939 4.73511,8.57854 4.69282,-8.57854 -4.64344,7.60519 z" fill="none"/></g></svg>