<?xml version="1.0" encoding="UTF-8" standalone="no"?>
<svg
   xmlns:dc="http://purl.org/dc/elements/1.1/"
   xmlns:cc="http://creativecommons.org/ns#"
   xmlns:rdf="http://www.w3.org/1999/02/22-rdf-syntax-ns#"
   xmlns:svg="http://www.w3.org/2000/svg"
   xmlns="http://www.w3.org/2000/svg"
   xmlns:sodipodi="http://sodipodi.sourceforge.net/DTD/sodipodi-0.dtd"
   xmlns:inkscape="http://www.inkscape.org/namespaces/inkscape"
   height="400"
   width="400"
   version="1.1"
   vievBox="0 0 400 400"
   id="svg2"
   inkscape:version="0.92.4 (5da689c313, 2019-01-14)"
   sodipodi:docname="Central Africa Arms.svg">
  <metadata
     id="metadata410">
    <rdf:RDF>
      <cc:Work
         rdf:about="">
        <dc:format>image/svg+xml</dc:format>
        <dc:type
           rdf:resource="http://purl.org/dc/dcmitype/StillImage" />
        <dc:title></dc:title>
      </cc:Work>
    </rdf:RDF>
  </metadata>
  <defs
     id="defs408" />
  <sodipodi:namedview
     pagecolor="#ffffff"
     bordercolor="#666666"
     borderopacity="1"
     objecttolerance="10"
     gridtolerance="10"
     guidetolerance="10"
     inkscape:pageopacity="0"
     inkscape:pageshadow="2"
     inkscape:window-width="1920"
     inkscape:window-height="1017"
     id="namedview406"
     showgrid="false"
     inkscape:zoom="2"
     inkscape:cx="94.932278"
     inkscape:cy="122.02198"
     inkscape:window-x="-8"
     inkscape:window-y="-8"
     inkscape:window-maximized="1"
     inkscape:current-layer="g120" />
  <g
     transform="matrix(1.0901,0,0,1.1133,-131.7,-294.46)"
     id="g4">
    <g
       id="g6"
       stroke="#000">
      <path
         d="m217.58 374.75 42.92 1.93s-1.45-2.16-9.09-5.82-10.16-10.16-10.16-10.16 4.8 2.6 11.22 5.2 10.8 2.76 10.8 2.76-29.98-26.49-29.82-26.24c0.16 0.24 38.52 18.77 38.52 18.77s-1.46-2.93-6.74-6.75c-5.29-3.82-3.74-12.59-3.74-12.59s11.05 14.22 17.14 13.97c-2.44-8.69-14.06-34.37-14.06-34.37l24.06 30.96s1.14-3.9-0.16-10.16c-1.3-6.25 2.27-12.19 2.27-12.19s0.89 6.59 3.82 11.22c2.92 4.63 4.63 5.93 4.06 8.78 2.68-3.99 6.83-36.65 6.83-36.65s3.33 27.06 3.33 35.26c0.49 3.25 2.76-0.4 4.15-5.2 1.38-4.79 3.81-7.88 9.42-12.1-2.92 4.71-3.09 11.21-3.01 14.7 0.09 3.5-0.32 5.53-0.32 5.53l22.99-30.72-12.92 34.78s3.99-2.03 8.46-6.34c4.46-4.3 8.12-6.82 13.73-5.93-5.53 3.33-8.45 9.27-11.46 15.2 14.63-6.59 32.75-17.72 32.75-17.72l-28.44 27.06s5.2 1.38 12.35-1.87 13.41-2.92 15.93 0.33c-8.21-0.25-17.56 5.93-22.59 10.72 20.96-3.25 41.12-4.95 41.12-4.95l-39.58 13.24s6.82 1.71 12.35 2.12c5.53 0.4 12.11 2.52 13.17 7.06-7.72-2.92-17.72-1.3-25.93-0.97 8.29 2.52 32.18 11.54 32.18 11.54l-33.31-4.39s-1.71 0.81-2.36 3.33-77.68 6.99-83.7 5.36c-6.01-1.62-9.42-0.48-8.93-0.81 0.48-0.32 5.12-5.52 5.2-6.74s-39.33 3.25-39.58 3.25c-0.24 0 37.71-11.54 37.71-11.54s-3.98-2.2-9.59-2.28-13.16-0.16-15.68-3.82c8.77-0.65 11.94-0.73 15.52-1.87 3.57-1.13 7.07-0.81 7.07-0.81l-37.9-10.08z"
         id="path8"
         stroke-linejoin="round"
         stroke-linecap="round"
         fill="#ffd200" />
      <g
         id="g10"
         fill="none">
        <g
           id="g12"
           stroke-linejoin="round"
           stroke-linecap="round">
          <line
             y1="397.1"
             x2="268.66"
             x1="262.87"
             y2="396.23"
             id="line14" />
          <line
             y1="389.38"
             x2="267.79"
             x1="259.69"
             y2="389.25"
             id="line16" />
          <path
             d="m260 381.4c0.25 0.13 8.16 1.37 8.16 1.37"
             id="path18" />
          <path
             d="m263.99 373.8c0.31 0.19 5.98 2.55 5.98 2.55"
             id="path20" />
          <line
             y1="356.16"
             x2="288.17"
             x1="285.55"
             y2="361.46"
             id="line22" />
        </g>
        <ellipse
           rx="32.5"
           transform="translate(-2.5474)"
           ry="28.381"
           cy="389.28"
           cx="306.52"
           id="ellipse24"
           stroke-width="1.5"
           d="m 339.01999,389.28 c 0,15.67439 -14.55075,28.381 -32.5,28.381 -17.94926,0 -32.5,-12.70661 -32.5,-28.381 0,-15.67439 14.55074,-28.381 32.5,-28.381 17.94925,0 32.5,12.70661 32.5,28.381 z" />
        <g
           id="g26"
           stroke-linejoin="round"
           stroke-linecap="round">
          <line
             y1="352.98"
             x2="295.71"
             x1="294.46"
             y2="358.87"
             id="line28" />
          <path
             d="m304.74 351.86c-0.06 0.38-0.31 5.3-0.31 5.3"
             id="path30" />
          <line
             y1="353.42"
             x2="311.72"
             x1="313.03"
             y2="357.6"
             id="line32" />
          <line
             y1="355.73"
             x2="320.01"
             x1="322.56"
             y2="360.28"
             id="line34" />
          <line
             y1="373.61"
             x2="337.83"
             x1="342.75"
             y2="376.35"
             id="line36" />
          <line
             y1="380.65"
             x2="340.13"
             x1="346.43"
             y2="381.9"
             id="line38" />
          <line
             y1="389.44"
             x2="341.13"
             x1="348.3"
             y2="389.19"
             id="line40" />
          <line
             y1="395.8"
             x2="340.76"
             x1="346.43"
             y2="395.67"
             id="line42" />
          <line
             x2="274.31"
             y1="365.02"
             x1="268.45"
             y2="370.49"
             id="line44" />
          <line
             x2="279.93"
             y1="359.89"
             x1="276.36"
             y2="364.62"
             id="line46" />
          <line
             x2="333.84"
             y1="365.45"
             x1="339.4"
             y2="369.88"
             id="line48" />
          <line
             x2="328.15"
             y1="360.3"
             x1="331.8"
             y2="364.53"
             id="line50" />
        </g>
      </g>
      <polygon
         points="125.77 325.39 137.13 325.24 121.32 310.96"
         id="polygon52"
         stroke-linejoin="round"
         stroke-linecap="round" />
      <polygon
         points="121.32 310.96 137.13 325.24 138.04 315.74"
         id="polygon54"
         stroke-linejoin="round"
         stroke-linecap="round"
         fill="#fff" />
    </g>
    <path
       d="m167.06 489.8c-0.54 0.26-1.24 0.68-1.97 1.31 0.03-0.03 0.75-0.61 1.97-1.31z"
       id="path56"
       fill="none" />
    <g
       id="g58"
       stroke-linejoin="round"
       stroke-linecap="round"
       stroke-width="1.5"
       stroke="#000">
      <path
         d="m167.06 489.8c0.61-0.3 1.01-0.4 1.01-0.4s7.31 11.82 12.18 23.13c7.75-6.03 8.37-12.23 6.27-19.41-7.52-8.55-15.77-5.44-19.46-3.32z"
         id="path60"
         fill="#005cab" />
      <polygon
         points="165.08 491.12 165.08 491.12 165.09 491.11"
         id="polygon62"
         fill="none" />
      <path
         d="m239.26 468.84c-24.75-14.64-64.89-47.71-74.23-55.5 0.17 0.99 0.32 1.89 0.43 2.66 1.36 9.27 3.38 23.13 7.19 38.4 9.36 5.68 39.29 24.29 64.2 45.59 0.92-10.23 1.72-20.9 2.41-31.15z"
         id="path64"
         fill="#d21034" />
    </g>
    <path
       d="m182.89 483.81c-1.93 7.04-3.97 14.16-6.12 21.29 1.21 2.42 2.4 4.93 3.48 7.43 10.91-8.49 7.71-17.32 2.64-28.72z"
       id="path66"
       fill="none" />
    <g
       id="g68"
       stroke-linejoin="round"
       stroke-linecap="round"
       stroke="#000">
      <g
         id="g70"
         stroke-width="1.5">
        <path
           d="m168.07 489.4s-9.44 2.43-6.1 17.52c2.95 5.06 6.42 8.66 10.59 11.74 1.45-4.51 2.85-9.03 4.21-13.56-4.26-8.52-8.7-15.7-8.7-15.7z"
           id="path72"
           fill="#fff" />
        <path
           d="m176.25 467.31c1.89 6.11 4.44 11.55 6.64 16.5 1.83-6.65 3.56-13.24 5.2-19.69-6.82-4.44-12.29-7.81-15.44-9.72 1.06 4.22 2.24 8.54 3.6 12.91z"
           id="path74"
           fill="#fff" />
        <path
           d="m205.82 381.75c-2.26 12.84-6.02 32.45-11.24 55.38 8.89 6.93 18.64 14.27 27.82 20.69 5.85-22.01 10.37-40.02 12.76-51.78-6.68-5.53-17.37-14.39-29.34-24.29z"
           id="path76"
           fill="#289728" />
        <path
           d="m242.34 412s-2.68-2.22-7.18-5.96c-2.39 11.76-6.91 29.77-12.76 51.78 6 4.2 11.76 8.01 16.86 11.02 2.04-30.31 3.08-56.84 3.08-56.84z"
           id="path78"
           fill="#ffd200" />
        <path
           d="m228.08 554.27c3.59-6.73 6.52-29.15 8.77-54.28-6.89-5.89-14.17-11.58-21.3-16.85-4.4 16.1-9.25 33.55-14.32 51.72 14.25 8.84 26.85 19.41 26.85 19.41z"
           id="path80"
           fill="#ffd200" />
        <path
           d="m182.89 483.81c5.07 11.4 8.27 20.23-2.64 28.72-1.08-2.5-2.27-5.01-3.48-7.43-1.36 4.53-2.76 9.05-4.21 13.56 4.93 3.64 10.85 6.54 18.12 10.22 3.51 1.77 7.08 3.82 10.55 5.98 5.07-18.17 9.92-35.62 14.32-51.72-9.96-7.36-19.61-13.9-27.46-19.02-1.64 6.45-3.37 13.04-5.2 19.69z"
           id="path82"
           fill="#289728" />
        <path
           d="m176.39 357.44c-2.35 21.24-6.42 41.56-11.44 55.46 0.02 0.15 0.05 0.3 0.08 0.44 4.47 3.73 16.02 13.26 29.55 23.79 5.22-22.93 8.98-42.54 11.24-55.38-9.46-7.83-19.73-16.31-29.43-24.31z"
           id="path84"
           fill="#fff" />
        <path
           d="m162.39 400.43c-3.67-16.53-9.5-39.28-13.1-48.61-3.18-8.22-6.08-17.34-7.79-22.96-0.7-0.56-1.36-1.08-1.96-1.56-0.17 6.26 4.53 34.78 6.61 49.56 0.88 6.22 1.79 15.47 2.56 25.34 4.19-2.58 8.96-3.58 13.68-1.77z"
           id="path86"
           fill="#005cab" />
        <path
           d="m156.24 493.22c1.7 5.57 3.58 10.02 5.73 13.7-2.04-9.2 0.68-13.69 3.11-15.8l0.01-0.01c0.58-0.51 1.15-0.87 1.63-1.13-3.37-6.34-9.6-18.75-16-31.98 0.22 10.27 1.23 21.15 5.52 35.22z"
           id="path88"
           fill="#fff" />
        <path
           d="m169.02 437.76c-1.62-8.51-2.71-16.02-3.56-21.76-0.49-3.37-1.61-8.98-3.07-15.57-4.72-1.81-9.49-0.81-13.68 1.77 1.06 13.61 1.87 28.39 1.97 37.98v0.68c6.05-3.56 12.68-5.26 18.34-3.1z"
           id="path90"
           fill="#d21034" />
        <path
           d="m176.25 467.31c-3.23-10.39-5.52-20.53-7.23-29.55-5.66-2.16-12.29-0.46-18.34 3.09 0.05 5.83-0.08 11.4 0.04 17.15 6.4 13.23 12.63 25.64 16 31.98 0.12-0.06 0.23-0.13 0.34-0.18 3.69-2.12 11.94-5.23 19.46 3.32-2.14-7.31-7.11-15.63-10.27-25.81z"
           id="path92"
           fill="#005cab" />
        <path
           d="m176.39 357.44c-14.25-11.74-27.31-22.46-34.89-28.58 1.71 5.62 4.61 14.74 7.79 22.96 0.67 1.74 1.43 3.96 2.23 6.52l4.65 2.24c1.95-2.94 3.7-5.64 3.7-5.64l0.54 7.68 7.09 3.42-6.8 0.8 0.59 8.34-5.48-7.76-1.58 0.18c4.24 15.22 8.89 35.18 10.72 45.31 5.02-13.91 9.09-34.23 11.44-55.47z"
           id="path94"
           fill="#005cab" />
        <path
           d="m153.08 363.54c0.11 0.38 0.22 0.76 0.33 1.14 0.08-0.11 0.15-0.22 0.23-0.34l-0.56-0.8z"
           id="path96"
           fill="none" />
        <path
           d="m161.29 375.18-0.59-8.34 6.8-0.8-7.09-3.42-0.54-7.68s-1.75 2.7-3.7 5.64l-4.65-2.24c0.5 1.61 1.02 3.35 1.56 5.2l0.56 0.8c-0.08 0.12-0.15 0.23-0.23 0.34 0.27 0.95 0.55 1.93 0.82 2.92l1.58-0.18 5.48 7.76z"
           id="path98"
           fill="#ffd200" />
      </g>
      <path
         d="m243.75 414.75c-0.34 0-0.68-0.11-0.96-0.34l-105.3-87.11c-0.63-0.52-0.72-1.47-0.2-2.11 0.53-0.64 1.48-0.73 2.12-0.2l105.3 87.1c0.63 0.53 0.72 1.48 0.2 2.11-0.3 0.36-0.73 0.55-1.16 0.55z"
         id="path100"
         fill="#414142" />
      <circle
         cy="326.15"
         cx="138.45"
         r="3.393"
         id="circle102"
         fill="#414142"
         d="m 141.843,326.14999 c 0,1.87391 -1.5191,3.393 -3.393,3.393 -1.87391,0 -3.393,-1.51909 -3.393,-3.393 0,-1.8739 1.51909,-3.393 3.393,-3.393 1.8739,0 3.393,1.5191 3.393,3.393 z" />
      <polygon
         points="487.25 310.96 482.8 325.39 471.44 325.24"
         id="polygon104" />
      <polygon
         points="470.52 315.74 487.25 310.96 471.44 325.24"
         id="polygon106"
         fill="#fff" />
    </g>
    <path
       d="m441.51 489.8c0.54 0.26 1.24 0.68 1.97 1.31-0.03-0.03-0.75-0.61-1.97-1.31z"
       id="path108"
       fill="none" />
    <g
       id="g110"
       stroke-linejoin="round"
       stroke-linecap="round"
       stroke-width="1.5"
       stroke="#000">
      <path
         d="m441.51 489.8c-0.61-0.3-1.01-0.4-1.01-0.4s-7.31 11.82-12.18 23.13c-7.75-6.03-8.38-12.23-6.28-19.41 7.53-8.55 15.78-5.44 19.47-3.32z"
         id="path112"
         fill="#005cab" />
      <polygon
         points="443.49 491.12 443.49 491.12 443.48 491.11"
         id="polygon114"
         fill="none" />
      <path
         d="m369.31 468.84c24.75-14.64 64.88-47.71 74.23-55.5-0.17 0.99-0.32 1.89-0.44 2.66-1.36 9.27-3.37 23.13-7.19 38.4-9.35 5.68-39.28 24.29-64.19 45.59-0.92-10.23-1.73-20.9-2.41-31.15z"
         id="path116"
         fill="#d21034" />
    </g>
    <path
       d="m425.67 483.81c1.94 7.04 3.98 14.16 6.12 21.29-1.2 2.42-2.39 4.93-3.47 7.43-10.91-8.49-7.71-17.32-2.65-28.72z"
       id="path118"
       fill="none" />
    <g
       id="g120"
       stroke-linejoin="round"
       stroke-linecap="round"
       stroke="#000">
      <g
         id="g122"
         stroke-width="1.5">
        <path
           d="m440.5 489.4s9.44 2.43 6.1 17.52c-2.96 5.06-6.42 8.66-10.6 11.74-1.44-4.51-2.85-9.03-4.21-13.56 4.27-8.52 8.71-15.7 8.71-15.7z"
           id="path124"
           fill="#fff" />
        <path
           d="m432.32 467.31c-1.9 6.11-4.44 11.55-6.65 16.5-1.82-6.65-3.55-13.24-5.19-19.69 6.82-4.44 12.29-7.81 15.44-9.72-1.06 4.22-2.24 8.54-3.6 12.91z"
           id="path126"
           fill="#fff" />
        <path
           d="m402.75 381.75c2.26 12.84 6.02 32.45 11.24 55.38-8.89 6.93-18.65 14.27-27.82 20.69-5.85-22.01-10.37-40.02-12.76-51.78 6.68-5.53 17.37-14.39 29.34-24.29z"
           id="path128"
           fill="#289728" />
        <path
           d="m366.23 412s2.68-2.22 7.18-5.96c2.39 11.76 6.9 29.77 12.76 51.78-6 4.2-11.76 8.01-16.86 11.02-2.04-30.31-3.08-56.84-3.08-56.84z"
           id="path130"
           fill="#ffd200" />
        <path
           d="m380.49 554.27c-3.59-6.73-6.53-29.15-8.77-54.28 6.89-5.89 14.17-11.58 21.29-16.85 4.4 16.1 9.25 33.55 14.33 51.72-14.25 8.84-26.85 19.41-26.85 19.41z"
           id="path132"
           fill="#ffd200" />
        <path
           d="m425.67 483.81c-5.06 11.4-8.26 20.23 2.65 28.72 1.07-2.5 2.27-5.01 3.47-7.43 1.36 4.53 2.77 9.05 4.21 13.56-4.92 3.64-10.84 6.54-18.11 10.22-3.51 1.77-7.08 3.82-10.55 5.98-5.08-18.17-9.93-35.62-14.33-51.72 9.96-7.36 19.61-13.9 27.47-19.02 1.64 6.45 3.37 13.04 5.19 19.69z"
           id="path134"
           fill="#289728" />
        <path
           d="m432.18 357.44c2.35 21.24 6.42 41.56 11.44 55.46-0.02 0.15-0.05 0.3-0.08 0.44-4.48 3.73-16.02 13.26-29.55 23.79-5.23-22.93-8.98-42.54-11.24-55.38 9.46-7.83 19.72-16.31 29.43-24.31z"
           id="path136"
           fill="#fff" />
        <path
           d="m446.18 400.43c3.67-16.53 9.49-39.28 13.1-48.61 3.18-8.22 6.08-17.34 7.79-22.96l1.95-1.56c0.18 6.26-4.52 34.78-6.61 49.56-0.87 6.22-1.78 15.47-2.55 25.34-4.2-2.58-8.96-3.58-13.68-1.77z"
           id="path138"
           fill="#005cab" />
        <path
           d="m452.32 493.22c-1.69 5.57-3.57 10.02-5.72 13.7 2.03-9.2-0.68-13.69-3.11-15.8l-0.01-0.01c-0.59-0.51-1.15-0.87-1.63-1.13 3.36-6.34 9.6-18.75 16-31.98-0.22 10.27-1.24 21.15-5.53 35.22z"
           id="path140"
           fill="#fff" />
        <path
           d="m439.55 437.76c1.62-8.51 2.71-16.02 3.56-21.76 0.49-3.37 1.61-8.98 3.07-15.57 4.72-1.81 9.48-0.81 13.68 1.77-1.06 13.61-1.87 28.39-1.97 37.98v0.68c-6.06-3.56-12.69-5.26-18.34-3.1z"
           id="path142"
           fill="#d21034" />
        <path
           d="m432.32 467.31c3.22-10.39 5.52-20.53 7.23-29.55 5.65-2.16 12.28-0.46 18.34 3.09-0.05 5.83 0.08 11.4-0.04 17.15-6.4 13.23-12.64 25.64-16 31.98-0.12-0.06-0.23-0.13-0.34-0.18-3.69-2.12-11.94-5.23-19.47 3.32 2.15-7.31 7.12-15.63 10.28-25.81z"
           id="path144"
           fill="#005cab" />
        <path
           d="m432.18 357.44c14.25-11.74 27.31-22.46 34.89-28.58-1.71 5.62-4.61 14.74-7.79 22.96-0.67 1.74-1.43 3.96-2.23 6.52l-4.65 2.24c-1.95-2.94-3.7-5.64-3.7-5.64l-0.54 7.68-7.09 3.42 6.8 0.8-0.59 8.34 5.48-7.76 1.58 0.18c-4.24 15.22-8.9 35.18-10.72 45.31-5.02-13.91-9.09-34.23-11.44-55.47z"
           id="path146"
           fill="#005cab" />
        <path
           d="m455.49 363.54c-0.11 0.38-0.22 0.76-0.33 1.14-0.08-0.11-0.16-0.22-0.24-0.34l0.57-0.8z"
           id="path148"
           fill="none" />
        <path
           d="m447.28 375.18 0.58-8.34-6.79-0.8 7.09-3.42 0.54-7.68s1.74 2.7 3.7 5.64l4.65-2.24c-0.5 1.61-1.03 3.35-1.56 5.2l-0.57 0.8c0.08 0.12 0.16 0.23 0.24 0.34-0.28 0.95-0.55 1.93-0.83 2.92l-1.58-0.18-5.47 7.76z"
           id="path150"
           fill="#ffd200" />
      </g>
      <path
         d="m364.82 414.75c0.33 0 0.67-0.11 0.95-0.34l105.3-87.11c0.64-0.52 0.73-1.47 0.2-2.11s-1.47-0.73-2.11-0.2l-105.3 87.1c-0.64 0.53-0.73 1.48-0.2 2.11 0.3 0.36 0.73 0.55 1.16 0.55z"
         id="path152"
         fill="#414142" />
      <circle
         cy="326.15"
         cx="470.12"
         r="3.393"
         id="circle154"
         fill="#414142"
         d="m 473.513,326.14999 c 0,1.87391 -1.5191,3.393 -3.393,3.393 -1.87391,0 -3.393,-1.51909 -3.393,-3.393 0,-1.8739 1.51909,-3.393 3.393,-3.393 1.8739,0 3.393,1.5191 3.393,3.393 z" />
      <path
         d="m228.9 403v123.49c0 13.66 15.45 14.37 32.01 14.37h30.1c5.26 0 11.28 3.89 13.28 7.26 2-3.37 8.02-7.26 13.27-7.26h30.1c16.56 0 32.02-0.71 32.02-14.37v-123.49h-150.78z"
         id="path156"
         fill="#289728"
         style="fill:#000000;fill-opacity:1" />
      <g
         id="g158"
         stroke-width=".9963">
        <rect
           height="63.921"
           width="69.874"
           y="408"
           x="304.29"
           id="rect160"
           fill="#fff" />
        <path
           d="m304.29 471.92v68.95c3.54-2.83 8.4-5.01 13.17-5.01h29.89c20.55 0 26.81-2.19 26.81-9.37v-54.57h-69.87z"
           id="path162"
           fill="#005cab" />
        <rect
           height="63.921"
           width="69.874"
           y="408"
           x="234.41"
           id="rect164"
           fill="#289728" />
        <path
           d="m234.41 471.92v54.57c0 7.18 6.27 9.37 26.82 9.37h29.88c4.77 0 9.63 2.18 13.18 5.01v-68.95h-69.88z"
           id="path166"
           fill="#ffd200" />
        <path
           d="m279.19 449.25v41.69c0 4.61 5.14 4.85 10.66 4.85h10.02c1.75 0 3.75 1.31 4.42 2.45 0.66-1.14 2.67-2.45 4.42-2.45h10.02c5.51 0 10.66-0.24 10.66-4.85v-41.69h-50.2z"
           id="path168"
           fill="#fff" />
      </g>
      <path
         d="m304.29 494.49c-1.13-0.9-2.67-1.6-4.18-1.6h-9.47c-6.51 0-8.5-0.69-8.5-2.97v-37.67h44.29v37.67c0 2.28-1.98 2.97-8.5 2.97h-9.47c-1.51 0.01-3.05 0.7-4.17 1.6z"
         id="path170"
         stroke-width=".9434"
         fill="#d21034" />
      <ellipse
         rx="19.222"
         transform="translate(-2.1066)"
         ry="16.536"
         cy="471.57"
         cx="305.96"
         id="ellipse172"
         stroke-width=".9963"
         fill="#fff"
         d="m 325.18199,471.57001 c 0,9.13258 -8.60598,16.536 -19.222,16.536 -10.61602,0 -19.222,-7.40342 -19.222,-16.536 0,-9.13258 8.60598,-16.536 19.222,-16.536 10.61602,0 19.222,7.40342 19.222,16.536 z" />
    </g>
    <path
       d="m320.14 470.71c-0.19-0.42-0.06-1.17-0.06-1.64 0-0.79 0-0.76-0.57-1.14-0.58-0.4-1.23-0.85-1.73-1.32-0.7-0.69-1.29-1.64-1.83-2.46-0.32-0.48-0.49-1.05-1-1.4-0.63-0.45-1.25-0.12-2.04-0.27-0.54-0.11-0.72-0.29-1.08-0.73-0.94-1.13-1.48-2.2-2.77-2.95-1.16-0.69-3.17-0.77-4.52-0.64-1.11 0.11-2.01 0.67-2.94 1.23-0.46 0.27-0.75 0.4-1.35 0.31-1.62-0.23-2.58-1.56-4.36-1.35-0.91 0.11-1.24 0.63-1.84 1.22-0.68 0.67-1.11 0.23-1.94 0.47-1.59 0.45-0.72 2.41-1.03 3.52-0.19 0.7-0.93 0.68-1.31 1.24-0.41 0.6-0.19 1.42-0.65 2.06-0.5 0.72-1.24 1.02-1.5 1.9-0.18 0.61-0.07 1.21-0.31 1.81-0.43 1.13-0.91 2.23 0.46 2.99 1.69 0.95 3.71 0.34 5.54 0.54 0.7 0.08 0.76 0.41 1.26 0.81 0.72 0.57 1.33 0.16 2.13 0.41 0.79 0.24 1.04 1.09 1.41 1.74 0.52 0.93 1.38 1.23 2.16 1.91 0.55 0.48 0.72 1.13 1.08 1.74 0.32 0.53 0.89 1.08 0.88 1.72 0 0.75-0.68 0.68-0.81 1.22-0.19 0.74 0.85 0.83 1.23 1.19 0.35 0.33 0.42 0.68 0.85 1.02 0.49 0.4 1.11 0.62 1.57 1.02l0.54 0.34c0.58-0.59 0.99-1.3 1.6-1.88 0.37-0.34 0.74-0.62 1.04-1.03 0.71-0.95 1.12-2.02 1.8-2.96 0.59-0.82 1.38-1.33 2.06-2.03 0.79-0.79 1.51-1.67 2.08-2.64 0.56-0.96 1.37-2.46 2.24-3.14 0.68-0.52 1.51-0.21 2.33-0.31 0.67-0.08 2.19-0.61 2.2-1.48 0.01-0.52-0.63-0.61-0.82-1.04z"
       id="path174" />
    <polygon
       transform="translate(-2.1066)"
       points="324.12 466.64 312.88 473.44 317.17 484.43 305.94 477.64 294.7 484.43 298.99 473.44 287.75 466.64 301.64 466.64 305.94 455.64 310.23 466.64"
       id="polygon176"
       stroke-linejoin="round"
       stroke-linecap="round"
       stroke-width=".9623"
       stroke="#000"
       fill="#ffd200" />
    <polygon
       points="265.58 515.73 256.86 517.6 254.45 525.78 252.6 517.6 244.14 514.92 252.6 513.18 255.27 504.87 256.86 513.18"
       transform="translate(-2.1066)"
       id="polygon178" />
    <ellipse
       cy="515.32"
       rx="3.337"
       ry="3.253"
       transform="translate(-2.1066)"
       cx="254.86"
       id="ellipse180"
       stroke-linejoin="round"
       stroke-linecap="round"
       stroke-width=".9963"
       stroke="#000"
       fill="#fff"
       d="m 258.197,515.32001 c 0,1.79658 -1.49403,3.253 -3.337,3.253 -1.84297,0 -3.337,-1.45642 -3.337,-3.253 0,-1.79658 1.49403,-3.253 3.337,-3.253 1.84297,0 3.337,1.45642 3.337,3.253 z" />
    <polygon
       points="297.48 515.73 288.75 517.6 286.34 525.78 284.49 517.6 276.03 514.92 284.49 513.18 287.17 504.87 288.75 513.18"
       transform="translate(-2.1066)"
       id="polygon182" />
    <ellipse
       cy="515.32"
       rx="3.338"
       ry="3.253"
       cx="286.76"
       id="ellipse184"
       transform="translate(-2.1066)"
       stroke-linejoin="round"
       stroke-linecap="round"
       stroke-width=".9963"
       stroke="#000"
       fill="#fff"
       d="m 290.09801,515.32001 c 0,1.79658 -1.49447,3.253 -3.338,3.253 -1.84353,0 -3.338,-1.45642 -3.338,-3.253 0,-1.79658 1.49447,-3.253 3.338,-3.253 1.84353,0 3.338,1.45642 3.338,3.253 z" />
    <polygon
       points="280.24 494.82 271.52 496.7 269.11 504.87 267.26 496.7 258.8 494.02 267.26 492.28 269.93 483.97 271.52 492.28"
       transform="translate(-2.1066)"
       id="polygon186" />
    <ellipse
       cy="494.42"
       rx="3.338"
       ry="3.253"
       transform="translate(-2.1066)"
       cx="269.52"
       id="ellipse188"
       stroke-linejoin="round"
       stroke-linecap="round"
       stroke-width=".9963"
       stroke="#000"
       fill="#fff"
       d="m 272.85799,494.42001 c 0,1.79659 -1.49447,3.253 -3.338,3.253 -1.84353,0 -3.338,-1.45641 -3.338,-3.253 0,-1.79658 1.49447,-3.253 3.338,-3.253 1.84353,0 3.338,1.45642 3.338,3.253 z" />
    <g
       id="g190"
       stroke-linejoin="round"
       stroke-linecap="round"
       stroke="#000">
      <path
         d="m361.32 431.91c0.96-1.81-0.09-2.96-2.29-2.96 0.47-2.59-0.2-5.07-1.92-4.97 0.96-1.63 0.39-4.98-4.01-4.6 1.05-3.82-0.58-5.06-4.69-4.59-0.86-2.58-2.77-1.24-2.77-1.24s-0.39-3.06-4.12-3.06-4.59 2.77-4.59 2.77-3.06 0.19-4.4 3.64c-1.91-0.19-4.01 0-5.83 4.2-1.63 0.2-2.3 1.73-2.3 1.73s-4.39 0.57-4.39 3.15 1.81 2.78 1.81 2.78 0.1 1.81 3.35 1.72c-1.05 0.38-4.11-0.67-5.64 1.34-3.26 0.28-2.2 5.54 0.09 5.64-0.57 1.72 2.39 1.91 3.45 1.34-0.29 1.15 1.52 0.96 3.15-0.48 1.82 1.53 3.16 0.57 3.16 0.57s2.87 0.96 4.68 0c0.48 1.73 2.49 0 2.49 0s-0.1 1.63 0.96 2.3c0.25 0.16 0 12.62 0 12.62s-6.32 5.93-6.51 10.14c3.45-2.68 7.08-3.83 7.08-3.83s0.29 5.46 0.86 6.32c0.96-3.35 1.34-4.69 1.34-4.69s4.11 4.49 4.78 6.31c0.38-2-0.48-7.07-0.48-7.07s8.04 1.33 10.24 4.11c-0.96-3.64-10.62-11-10.62-11l-0.77-13.68s0.67-1.72 2.2-2.1 2.68-0.67 2.78-1.91c0.19 2.19 1.53 4.68 4.49 3.53 2.3 2.3 3.83 0.1 4.21-1.72 2.01-0.48 1.91-2.58 1.91-2.58s2.2 0.1 2.3-1.34c1.15-0.38 1.53-1.91 0-2.39zm-21.99 5.93c-0.32 0.16-0.49-1.33-1.72-0.94 0-0.17-0.52-1.37-2.04-1.04 0-0.85-0.72-1.82-2.18-0.91 1.88-1.14 0.71-3.18 0.71-3.18 1.4 0.09 3.09-1.01 3.09-1.01s0.84 0.23 2.24 0.06c0 0.78 1.72 1.98 1.72 1.98s-0.13 1.08 0.06 2.21c-0.97 0.23-1.55 2.67-1.88 2.83z"
         id="path192"
         fill="#289728" />
      <g
         id="g194"
         fill="none">
        <path
           d="m326.13 435.36c0.19-0.48-0.29-2.78 1.91-3.35 2.2-0.58 2.68 1.15 2.68 1.15"
           id="path196" />
        <path
           d="m327.56 426.85s0.67 1.91 3.25 1.24"
           id="path198" />
        <path
           d="m330.33 422.54s-0.38 4.31 4.78 2.2 0.2 4.02 4.21 1.53"
           id="path200" />
        <path
           d="m334.35 422.73c0.19 0.48 1.34 2.39 2.3 2.49"
           id="path202" />
        <path
           d="m339.13 419.58c0.29 0 6.03-0.58 5.26 4.11 3.44-2.87 5.84 0.38 6.22 2.87"
           id="path204" />
        <path
           d="m342.38 413.74c-0.19 0.86-1.05 2.49 0.58 3.06"
           id="path206" />
        <path
           d="m345.06 416.04s1.82 1.53 1.63 3.06"
           id="path208" />
        <path
           d="m352.62 425.22c0.57 0.19 6.41 3.25 1.24 6.6"
           id="path210" />
        <path
           d="m355.87 431.91c0.57 0.1 2.2 3.83-3.35 4.69"
           id="path212" />
        <path
           d="m333.95 429s2 3.2 5.54 0.55"
           id="path214" />
        <path
           d="m341.9 430.2c0.45 0.38 0.33 0.85 1.45 0.82"
           id="path216" />
        <path
           d="m343.75 428.31c0 0.1-0.3 1.49 0.7 1.69"
           id="path218" />
        <path
           d="m347.96 429.23c0.07-0.05-0.05 2.27-2.74 2.14"
           id="path220" />
        <path
           d="m340.46 431.75c0.25 0.05 1.62 0.29 2.39-0.73 0 1.22 1.35 1.32 1.45 1.3 0.09-0.02-1.8 1.59 0.1 3.11-0.45-0.19-1.6-0.19-2.1 1.5"
           id="path222" />
      </g>
      <path
         d="m271.22 465.22s-7.31 3.44-8.67-8.31-1.29-15.05-1.29-15.05l-3.58 0.14-1.07 2.01s-11.76-0.5-16.77-9.6c5.01-9.31 8.6-16.48 10.75-17.05 2.15-0.58 3.65 1.36 7.16 0.28 3.51-1.07 4.66-4.58 10.18-3.36 5.51 1.22 8.59 3.29 11.75 3.01 3.15-0.29 9.6-2.37 12.25 3.94 2.65 6.3 2.86 8.67 3.37 10.03 0.5 1.36-1.44 1.79-3.16 3.44-1.72 1.64-2.51 4.94-3.65 5.94-1.15 1.01-11.54 4.37-11.54 4.37s-1.79-3.36-2.15-3.36h-4.08s-1.29 2.22-2.29 6.87c-1 4.66-1.36 11.9 0.14 13.11 1.5 1.22 3.58-0.49 2.65 3.59z"
         id="path224"
         fill="#fff" />
      <g
         id="g226"
         fill="none">
        <path
           d="m257.32 442.22s-0.5-4.23-0.36-6.02c0.15-1.79-2.5-3.29-2.58-6.44-0.07-3.16 1.94-5.95 2.58-7.38"
           id="path228" />
        <path
           d="m261.26 441.86s0-3.51-0.14-3.72c-0.15-0.22-1.15 0.14-1.15 0.14"
           id="path230" />
        <path
           d="m270 442.94c0.72-3.08 0.29-5.16 1.36-5.45"
           id="path232" />
        <path
           d="m275.09 441.86c-0.29-1.57-0.43-3.72 0.57-5.3 1.01-1.58 3.01-4.66 3.23-7.31 0.21-2.65-1.79-3.87-1.72-7.95"
           id="path234" />
        <path
           d="m283.26 431.62c0.57 0.43 2.22 1.64 1.72 4.44"
           id="path236" />
        <path
           d="m286.12 428.32c0.22 0 2.87 2.22 2.15 5.16"
           id="path238" />
        <path
           d="m278.96 419.94c2.58 1.07 6.73-1.79 8.17 1"
           id="path240" />
        <path
           d="m263.13 420.15c2.5-0.57 5.73-1.14 6.94 0.22"
           id="path242" />
        <path
           d="m249.51 423.02c1.94-1.58 4.66-1.93 5.23-0.86"
           id="path244" />
        <path
           d="m246.14 429.04s-2.65 4.15-2.93 4.44"
           id="path246" />
        <path
           d="m249.58 430.47s-2.72 3.37-3.44 4.52"
           id="path248" />
        <path
           d="m251.59 433.19s-2.8 1.87-2.72 3.44"
           id="path250" />
      </g>
      <path
         d="m256.72 444.1s-1.74 10.73-3.49 16.15c4.42-5.08 8.08-15.5 8.08-15.5l0.04-2.89-3.37 0.14-1.26 2.1z"
         id="path252"
         fill="#fff" />
      <path
         d="m274.4 441.5s-0.17 14.08 1.5 20c-5.09-6.58-5.92-18.25-5.92-18.25l1.25-1.58 3.17-0.17z"
         id="path254"
         fill="#fff" />
      <path
         d="m258.26 432.44c1.1-0.39 1.5-0.73 2.33-0.24 0.82 0.49 1.37 1.71 1.37 1.71"
         id="path256"
         fill="none" />
      <path
         d="m260.31 432.29s-0.52 0.18-0.43 1.25c0.1 1.08 1.81 0.86 1.72-0.18-0.06-0.7-1.29-1.07-1.29-1.07z"
         id="path258" />
      <path
         d="m275.79 431.16c-1.1-0.4-1.5-0.73-2.33-0.24-0.82 0.48-1.37 1.71-1.37 1.71"
         id="path260"
         fill="none" />
      <path
         d="m273.74 431.01s0.52 0.18 0.43 1.25-1.81 0.86-1.71-0.18c0.06-0.7 1.28-1.07 1.28-1.07z"
         id="path262" />
      <path
         d="m156.15 513.23s11.54 7.54 3.99 19.98c-7.54 12.43-11.32 14.98-7.88 21.09 3.44 6.1 18.21 8.21 26.31 6.77 8.11-1.45 50.18-5.11 70.94 2.11 5.43 4.22 16.98 21.31 16.31 23.86-0.66 2.56-2.66 3.78-7.88 5-5.21 1.22-5.99 5.22-2.55 6.66s28.76 6.82 53.12 6.38c24.37-0.44 45.88-5.93 51.15-9.88 0.88-3.29-11.43-1.66-12.38-9.18s6.85-20.83 11.53-23.06 25.07-5.21 39.82-6.09c14.75-0.87 43.25 4.25 55.25-2s9.75-13.5 1.75-19.75-9.5-19.12-1.13-24.75c-2.12 9 5 17.13 11 21.88s13.75 14.5 4.38 24.5c-9.38 10-28.38 12.37-28.38 12.37s10.5 3.5 7.62 16.38c-2.87 12.88-21.12 19.38-36.87 5.12 10.63 3.38 23.63 4.38 25.25-3.12s-8.25-12-34.12-12.75c-25.88-0.75-40.5 1.75-43.63 4.5 2 5 11 4.5 11.75 8.63 0.75 4.12-1.88 15.24-5.88 19.87-3.24 3.13-21 11.25-48.87 11.75s-56-1.75-66.75-6.12c-9-11.38-11.12-19.88-11.12-22 0-2.13 1.62-4.63 6.24-5.76 4.63-1.12 6.76-2.12 7-5.62-8.37-3.25-27.74-5.88-49.5-5-21.74 0.88-32.5 8.62-27.24 17 5.24 8.38 19.62 4.38 22 2.75-5.88 5-20.26 8.87-28.76 2.13-8.5-6.76-5.87-18.88 0.26-22.26-9.63-2.87-30.88-13.87-31.5-20.87-0.63-7 3-11.13 11.5-18.87 8.5-7.76 10.29-16.3 7.27-21.65z"
         id="path264"
         stroke-width="1.25"
         fill="#fff" />
      <g
         id="g266"
         stroke-width="1.25"
         fill="none">
        <path
           d="m244.12 577.75s20.13 4.13 21.13 7.13"
           id="path268" />
        <path
           d="m238.75 591.88s3.13 4.5 19.25 7.5"
           id="path270" />
        <path
           d="m347.5 586.62c-0.12-1.87 1-4.24 14-8.37"
           id="path272" />
        <path
           d="m371.12 587.38c-0.12 2.24-6.37 5.5-12.74 8.62"
           id="path274" />
      </g>
    </g>
    <path
       d="m189.18 564.86 0.77 4.73c0.2 1.23 0.68 1.74 2.17 1.49 1.41-0.23 1.7-0.87 1.5-2.09l-0.77-4.73 1.53-0.25 0.77 4.72c0.12 0.77 0.16 1.38-0.22 1.95-0.52 0.78-1.37 1.25-2.6 1.46-1.32 0.21-2.27 0.07-3.07-0.52-0.62-0.47-0.72-1.07-0.83-1.79l-0.77-4.72 1.52-0.25z"
       id="path276" />
    <path
       d="m198.82 571.14-0.28-7.53 1.58-0.06 5.45 5.51-0.29-5.7 1.52-0.05 0.29 7.53-1.49 0.05-5.56-5.67 0.32 5.86-1.54 0.06z"
       id="path278" />
    <path
       d="m210.22 570.83v-7.54h1.54v7.54h-1.54z"
       id="path280" />
    <path
       d="m216.08 570.88 0.18-6.51-2-0.05 0.03-1.02 5.53 0.15-0.02 1.01-2-0.05-0.18 6.51-1.54-0.04z"
       id="path282" />
    <path
       d="m221.93 571.09 0.49-7.52 5.52 0.36-0.06 1-3.98-0.26-0.15 2.24 3.99 0.26-0.07 0.99-3.98-0.26-0.15 2.25 3.99 0.26-0.07 1.04-5.53-0.36z"
       id="path284" />
    <path
       d="m271.94 613.78 0.69-7.5 3.42 0.31c3.23 0.3 5.19 2.05 4.98 4.28-0.12 1.29-0.98 2.29-2.42 2.86-1.19 0.48-2.28 0.46-3.69 0.33l-2.98-0.28zm3.45-0.69c2.39 0.23 3.94-0.69 4.09-2.35 0.16-1.7-1.24-2.91-3.87-3.15l-1.58-0.15-0.51 5.48 1.87 0.17z"
       id="path286" />
    <path
       d="m282.85 614.72 0.5-7.52 1.54 0.1-0.5 7.52-1.54-0.1z"
       id="path288" />
    <path
       d="m298.13 611.66c-0.25 2.39-2.57 3.85-5.6 3.73-1.59-0.06-2.93-0.55-3.98-1.46-0.87-0.74-1.31-1.68-1.27-2.72 0.04-1.05 0.65-1.99 1.78-2.71 1.06-0.69 2.35-0.99 3.91-0.93 2.17 0.09 3.82 0.91 4.59 2.24l-1.9-0.07c-0.68-0.67-1.66-1.04-2.86-1.08-1-0.05-1.94 0.19-2.66 0.67-0.78 0.51-1.22 1.23-1.26 1.95-0.03 0.8 0.33 1.54 1 2.07 0.72 0.57 1.71 0.92 2.7 0.96 1.6 0.06 2.88-0.49 3.74-1.66l-4.82-0.2 0.04-1.06 6.59 0.27z"
       id="path290" />
    <path
       d="m300.12 615.5 0.09-7.54 1.59 0.01 5.17 5.77-0.01-5.71 1.53 0.02-0.09 7.54-1.48-0.02-5.29-5.93 0.04 5.87-1.55-0.01z"
       id="path292" />
    <path
       d="m311.66 615.56-0.06-7.54 1.55-0.01 0.05 7.54-1.54 0.01z"
       id="path294" />
    <path
       d="m318.31 615.46-0.23-6.51-1.99 0.07-0.03-1.02 5.53-0.19 0.03 1.02-1.99 0.07 0.22 6.51-1.54 0.05z"
       id="path296" />
    <path
       d="m325.63 615.09-0.77-7.5 5.5-0.56 0.11 1-3.97 0.41 0.23 2.23 3.97-0.41 0.1 0.98-3.97 0.41 0.23 2.25 3.97-0.41 0.1 1.03-5.5 0.57z"
       id="path298" />
    <path
       d="m368.41 572.3-1.01-6.44-1.97 0.31-0.16-1 5.47-0.86 0.15 1-1.97 0.31 1.02 6.44-1.53 0.24z"
       id="path300" />
    <path
       d="m374.3 571.48-0.6-7.51 3.07-0.25c2.59-0.2 4 0.56 4.13 2.12 0.09 1.2-1.04 2.23-2.85 2.44l3.25 2.64-1.93 0.15-3.81-3.2 0.28 3.48-1.54 0.13zm2.05-3.8c2.11-0.17 3.11-0.73 3.04-1.73-0.08-1-1.04-1.33-2.91-1.18l-1.15 0.09 0.23 2.88 0.79-0.06z"
       id="path302" />
    <path
       d="m384.32 570.79-1.64 0.04 3.98-7.64 1.5-0.04 4.36 7.42-1.69 0.05-1.23-2.16-4.14 0.1-1.14 2.23zm3.12-6.2-1.45 2.9 3.03-0.08-1.58-2.82z"
       id="path304" />
    <path
       d="m396.18 570.62-4.06-7.57 1.64 0.01 2.88 5.65 2.98-5.6 1.62 0.01-4.15 7.51-0.91-0.01z"
       id="path306" />
    <path
       d="m401.67 570.68-1.63-0.06 4.44-7.38 1.49 0.06 3.9 7.68-1.69-0.07-1.09-2.23-4.14-0.15-1.28 2.15zm3.5-5.99-1.63 2.8 3.03 0.11-1.4-2.91z"
       id="path308" />
    <path
       d="m412.07 571.17 0.58-7.52 1.54 0.12-0.58 7.52-1.54-0.12z"
       id="path310" />
    <path
       d="m417.06 571.6 0.97-7.47 1.53 0.2-0.83 6.44 3.47 0.45-0.14 1.03-5-0.65z"
       id="path312" />
    <g
       id="g314"
       stroke-linejoin="round"
       stroke-linecap="round"
       stroke="#000">
      <path
         d="m200.03 325.03c-11.24 0-20.37 9.07-20.37 20.25s9.13 20.25 20.37 20.25 20.35-9.07 20.35-20.25-9.11-20.25-20.35-20.25zm0 3.47c9.33 0 16.88 7.48 16.88 16.72s-7.55 16.75-16.88 16.75c-9.32 0-16.91-7.51-16.91-16.75s7.59-16.72 16.91-16.72z"
         transform="matrix(.91735 0 0 .89823 120.81 264.49)"
         id="path316"
         stroke-width="1.377"
         fill="#289728" />
      <g
         id="g318"
         stroke-width="1.25"
         fill="#fff">
        <path
           d="m293.48 598.61c0.37-0.05 10.83-22.99 10.83-22.99l10.82 22.99-10.82-4.29z"
           id="path320" />
        <path
           d="m293.47 550.64c0.37 0.05 10.82 22.99 10.82 22.99l10.83-22.99-10.83 4.29z"
           id="path322" />
        <path
           d="m279.37 585.24c0.05-0.36 23.48-10.6 23.48-10.6l-23.48-10.6 4.38 10.6z"
           id="path324" />
        <path
           d="m329.22 564.02c-0.05 0.36-23.48 10.6-23.48 10.6l23.48 10.6-4.38-10.6z"
           id="path326" />
      </g>
      <ellipse
         rx="12.299"
         transform="matrix(.92407 0 0 1.0997 22.383 -57.311)"
         ry="9.98"
         cy="574.63"
         cx="305.08"
         id="ellipse328"
         stroke-width=".90046"
         fill="#fff"
         d="m 317.37899,574.63 c 0,5.51181 -5.50645,9.98 -12.299,9.98 -6.79255,0 -12.299,-4.46819 -12.299,-9.98 0,-5.5118 5.50645,-9.97999 12.299,-9.97999 6.79255,0 12.299,4.46819 12.299,9.97999 z" />
      <ellipse
         rx="12.299"
         ry="9.98"
         transform="matrix(.74314 0 0 .88435 77.507 66.508)"
         cy="574.63"
         cx="305.08"
         id="ellipse330"
         stroke-width="1.1197"
         fill="#005cab"
         d="m 317.37899,574.63 c 0,5.51181 -5.50645,9.98 -12.299,9.98 -6.79255,0 -12.299,-4.46819 -12.299,-9.98 0,-5.5118 5.50645,-9.97999 12.299,-9.97999 6.79255,0 12.299,4.46819 12.299,9.97999 z" />
      <polygon
         transform="matrix(.81206 0 0 .81175 56.061 108.19)"
         points="308.62 575.75 310.55 581.68 305.51 578.01 300.47 581.68 302.4 575.75 297.35 572.09 303.58 572.09 305.51 566.16 307.44 572.09 313.66 572.09"
         id="polygon332"
         stroke-linejoin="miter"
         stroke-linecap="butt"
         stroke-width="1.118"
         fill="#ffd200" />
      <g
         id="g334"
         stroke-width="1.35">
        <path
           d="m246.48 305.73c-0.4 2.37 4.34 7.77 3.16 10.93-1.19 3.16-7.77 3.95-24.88 7.89-17.11 3.95-16.19 15.93-14.61 23.57-13.69-10.01-6.19-25.15-1.19-30.02-8.16 1.19-21.06-1.84-29.35-5.26-8.3-3.43-11.85-7.24-18.96-6.06 0 0 5.92-2.89 21.72 0 15.8 2.9 36.73 4.21 53.05-4.08-6.05-10.53-6.97-11.98 10.93-16.58 17.9-4.61 39.62-6.59 67.79-6.59s52.26 7.9 59.37 10.4 0.53 7.77-1.05 10.67c6.32 3.02 19.22 10.79 34.75 8.16 15.53-2.64 26.46-6.85 41.33-3.69-10.13 1.32-15.4 3.29-22.24 7.51-6.85 4.21-23.17 7.76-32.12 5.79 11.45 8.95 10.92 21.98 3.03 29.09 1.97-10.66 0.52-19.35-18.7-24.62-19.22-5.26-26.98-2.24-19.87-17.24-6.98-4.35-36.34-7.51-53.32-7.64s-47.39 3.56-58.84 7.77z"
           id="path336"
           fill="#fff" />
        <path
           d="m239.31 309.9c-0.22-2.02 4.73-4.05 9.2-4.94-2.32 1.83-2.46 0.58-1.43 2.95s2.06 5.19 2.06 5.19-2.15-1.52-4.34-1.97-3.7-0.29-5.49-1.23z"
           id="path338" />
        <path
           d="m372.46 300.6s-5.31 7.71-7.41 10.07c-2.11 2.36-7.92 0.08-9.01 3.37"
           id="path340"
           fill="none" />
        <path
           d="m356.29 304.52 2.44 1.1c-2.14 3.6-2.41 7.74-2.44 8.46 0.04-0.45 0.33-2.06 2.86-2.06 2.95 0 5.31-0.84 5.31-0.84l1.77-2.19c-2.28-2.36-9.94-4.47-9.94-4.47z"
           id="path342" />
        <path
           d="m356.29 314.2s0-0.04 0.01-0.12c-0.01 0.08-0.01 0.12-0.01 0.12z"
           id="path344" />
      </g>
    </g>
    <path
       style="color:#000000"
       d="m518.95 393.3c0 113.69-92.05 205.85-205.6 205.85s-205.6-92.16-205.6-205.85 92.05-205.85 205.6-205.85 205.6 92.16 205.6 205.85z"
       id="path346"
       stroke-opacity="0"
       fill="none" />
    <g
       transform="translate(-8.9092 106.98)"
       id="g348">
      <path
         d="m263.59 193.47-0.31-1.4 4.2-8.63q0.45-0.91 0.88-1.62l-6.37 1.43-0.3-1.34 8.17-1.84 0.31 1.35-4.63 9.35-0.51 0.96 7.28-1.64 0.3 1.35z"
         id="path350" />
      <path
         d="m272.86 185.56q-0.48-2.87 0.79-4.75t3.71-2.29q1.59-0.27 3 0.28 1.42 0.55 2.32 1.8 0.9 1.26 1.19 2.99 0.29 1.75-0.19 3.26-0.48 1.5-1.65 2.43-1.18 0.93-2.69 1.18-1.63 0.27-3.04-0.3t-2.3-1.83q-0.89-1.25-1.14-2.77zm1.57-0.23q0.35 2.08 1.67 3.09 1.32 1.02 3.02 0.73 1.72-0.28 2.63-1.68t0.54-3.63q-0.23-1.41-0.89-2.38-0.65-0.97-1.66-1.39-1.01-0.43-2.16-0.24-1.62 0.27-2.6 1.58t-0.55 3.92z"
         id="path352" />
      <path
         d="m295.75 188.15-0.75-11.67 1.55-0.1 0.37 5.79 5.42-6.16 2.1-0.13-4.6 5.04 5.56 6.61-2.04 0.13-4.53-5.64-1.79 1.99 0.26 4.04z"
         id="path354" />
      <path
         d="m308.75 187.46-3.11-11.7h1.59l1.78 7.67q0.29 1.2 0.5 2.39 0.45-1.87 0.53-2.16l2.21-7.9h1.87l1.68 5.92q0.63 2.2 0.92 4.14 0.22-1.11 0.58-2.55l1.82-7.52h1.56l-3.2 11.7h-1.49l-2.47-8.91q-0.31-1.11-0.37-1.37-0.18 0.81-0.34 1.37l-2.48 8.92z"
         id="path356" />
      <path
         d="m322.16 187.6 0.73-11.68 8.44 0.53-0.09 1.38-6.9-0.43-0.22 3.57 6.46 0.41-0.09 1.37-6.45-0.41-0.25 3.98 7.16 0.44-0.08 1.38z"
         id="path358" />
      <path
         d="m341.1 189.26 0.22-1.42 7.09-6.46q0.75-0.69 1.41-1.18l-6.44-1.02 0.21-1.37 8.28 1.31-0.22 1.37-7.75 6.98-0.83 0.7 7.37 1.17-0.21 1.36z"
         id="path360" />
      <path
         d="m352.62 185.33q0.61-2.85 2.49-4.13t4.29-0.76q1.59 0.35 2.7 1.38 1.1 1.03 1.48 2.52 0.37 1.5 0 3.22-0.37 1.74-1.37 2.96t-2.44 1.65q-1.44 0.42-2.93 0.1-1.61-0.35-2.71-1.4-1.11-1.05-1.47-2.54t-0.04-3zm1.56 0.36q-0.45 2.07 0.4 3.5 0.86 1.43 2.54 1.79 1.7 0.37 3.07-0.6 1.36-0.96 1.84-3.17 0.3-1.39 0.05-2.54-0.25-1.14-1.03-1.91-0.79-0.77-1.92-1.01-1.61-0.35-3 0.51-1.4 0.85-1.95 3.43z"
         id="path362" />
    </g>
    <text
       xml:space="preserve"
       style="font-size:6.08240366px;font-style:normal;font-variant:normal;font-weight:normal;font-stretch:normal;text-align:start;line-height:80.00000119%;letter-spacing:0px;word-spacing:0px;writing-mode:lr-tb;text-anchor:start;fill:#000000;fill-opacity:1;stroke:none;font-family:Arial;-inkscape-font-specification:Sans"
       x="319.26608"
       y="348.63687"
       id="text3387"
       transform="scale(0.87033391,1.1489843)"><tspan
         sodipodi:role="line"
         id="tspan3389"
         x="319.26608"
         y="348.63687">1<tspan
   style="font-size:3.95361805px;line-height:80.00000119%;baseline-shift:super"
   id="tspan3391">ER</tspan> DÉCEMBRE 1958</tspan></text>
  </g>
  <g
     transform="matrix(.24789 0 0 .24789 219.76 247.84)"
     id="g396"
     style="fill:#000000;fill-opacity:1">
    <g
       id="#e9221fff"
       style="fill:#000000;fill-opacity:1">
      <path
         d="m34.06 20.07c-0.03-3.15 5.56-5.68 6.83-3.1-0.56 5.03 7.11 13.06 10.5 6.5 6.13 0.8 12.12 7.43 18.47 9.75 18.34 6.73 26.67 27.28 45.24 33.61 6.28 1.85 9.07 7.91 11.67 13.31 3.48 23.59 19.74 42.38 32.22 61.87 1.48 2.1 5.74 4.33 3.24 7.23-8.95 9.63-17.15 20.41-26.86 29.16-13.33 0.5-27.27-2.54-39.99-6.84-8.93-6.87-22.47-10.22-25.42-22.55-3.08-15.12-17.57-23.46-24.5-36.5-5.27-6.29-14.82-15.95-8.25-24.31 4.2-6.26 12.46-4.54 18.18-1.69 5.18 3.25 5.26-3.15 8.51-4.61 2.92-3.09 11.93-1.21 11.1-6.82-1.63-2.91-4.07-5.43-6.93-7.18-8.75-4.78-8.11-17.47-17.2-21.71-8.03-6.53-18.32-14.64-16.81-26.12m7.25 70.1c-4.84 4.15-0.27 15.45 5.54 16.76 5.16-4.43 4.04-19.34-5.54-16.76m40.03 5.1c-5.45 1.78-5.19 9.4-4.54 13.85 1.76 5.9 14.17 13.98 14.26 2.91 2.99-6.92 0.46-19.97-9.72-16.76z"
         id="path399"
         fill="#d21034"
         style="fill:#000000;fill-opacity:1" />
    </g>
    <g
       id="#ffffffff"
       fill="#fff"
       style="fill:#000000;fill-opacity:1">
      <path
         d="m40.89 16.97c4.48-0.3 7.11 4.26 10.5 6.5-3.39 6.56-11.06-1.47-10.5-6.5z"
         id="path402"
         style="fill:#000000;fill-opacity:1" />
      <path
         d="m41.31 90.17c9.58-2.58 10.7 12.33 5.54 16.76-5.81-1.31-10.38-12.61-5.54-16.76z"
         id="path404"
         style="fill:#000000;fill-opacity:1" />
    </g>
  </g>
  <path
     style="fill:#ffffff;stroke:#000000;stroke-width:1px;stroke-linecap:butt;stroke-linejoin:miter;stroke-opacity:1;fill-opacity:1"
     d="m 231.37365,274.34688 0.14979,-0.13985 0.1914,-0.24609 0.20313,-0.40235 0.10156,-0.33984 0.082,-0.45313 0.0312,-0.52343 -0.0273,-0.41016 -0.10938,-0.50391 -0.16015,-0.39062 -0.23047,-0.34375 -0.28906,-0.24609 -0.21485,-0.10938 -0.29297,-0.10156 -0.38281,-0.0156 -0.42544,0.0712 -0.18784,0.19838 -0.13672,0.23047 -0.12109,0.30469 -0.0547,0.30859 0.008,0.4375 0.043,0.33985 0.082,0.29687 0.11719,0.36328 0.16016,0.33204 0.15625,0.30078 0.20703,0.27343 0.30859,0.33594 0.28516,0.20703 z"
     id="path1218"
     inkscape:connector-curvature="0" />
  <path
     style="fill:#ffffff;stroke:#000000;stroke-width:0.1;stroke-linecap:butt;stroke-linejoin:miter;stroke-opacity:1;stroke-miterlimit:4;stroke-dasharray:none;fill-opacity:1"
     d="m 232.49907,253.65798 -0.19048,0.29514 -0.1875,0.1836 -0.1914,0.0977 -0.22656,0.0352 -0.14063,0.004 -0.12891,-0.0234 -0.17578,-0.0664 -0.19531,-0.0937 -0.17187,-0.10937 -0.17969,-0.14844 -0.15625,-0.16797 -0.15235,-0.18359 -0.14062,-0.20313 -0.12891,-0.23437 -0.0977,-0.21485 -0.0664,-0.1914 -0.0586,-0.26172 -0.0117,-0.16016 -0.002,-0.16815 0.17409,1.8e-4 0.19141,0.0117 0.17187,0.0391 0.19922,0.082 0.20313,0.10547 0.24609,0.15234 0.16797,0.13281 0.19141,0.17188 0.26953,0.25 0.29687,0.27343 0.25782,0.22266 z"
     id="path1222"
     inkscape:connector-curvature="0" />
</svg>
