<?xml version="1.0" encoding="UTF-8" standalone="no"?>
<!-- Created with Inkscape (http://www.inkscape.org/) -->

<svg
   xmlns:dc="http://purl.org/dc/elements/1.1/"
   xmlns:cc="http://creativecommons.org/ns#"
   xmlns:rdf="http://www.w3.org/1999/02/22-rdf-syntax-ns#"
   xmlns:svg="http://www.w3.org/2000/svg"
   xmlns="http://www.w3.org/2000/svg"
   xmlns:xlink="http://www.w3.org/1999/xlink"
   xmlns:sodipodi="http://sodipodi.sourceforge.net/DTD/sodipodi-0.dtd"
   xmlns:inkscape="http://www.inkscape.org/namespaces/inkscape"
   width="199.68716mm"
   height="176.72513mm"
   viewBox="0 0 199.68716 176.72513"
   version="1.1"
   id="svg8"
   inkscape:version="0.92.4 (5da689c313, 2019-01-14)"
   sodipodi:docname="ivory.svg">
  <defs
     id="defs2">
    <linearGradient
       xlink:href="#b"
       x1="951.29999"
       gradientUnits="userSpaceOnUse"
       x2="1090"
       id="r" />
    <linearGradient
       id="b">
      <stop
         id="stop11"
         offset="0"
         stop-color="#00511c" />
      <stop
         id="stop13"
         offset="1"
         stop-color="#009033" />
    </linearGradient>
    <linearGradient
       id="c">
      <stop
         id="stop16"
         offset="0"
         stop-color="#fff" />
      <stop
         id="stop18"
         offset="1"
         stop-color="#fc0" />
    </linearGradient>
    <linearGradient
       id="a">
      <stop
         id="stop21"
         offset="0"
         stop-color="#60361a" />
      <stop
         id="stop23"
         offset="1"
         stop-color="#ffc659" />
    </linearGradient>
    <linearGradient
       id="d">
      <stop
         id="stop26"
         offset="0"
         stop-color="#666" />
      <stop
         id="stop28"
         offset="1"
         stop-color="#fff" />
    </linearGradient>
    <linearGradient
       xlink:href="#b"
       x1="938.79999"
       gradientUnits="userSpaceOnUse"
       x2="1084"
       id="t" />
    <linearGradient
       x1="978.09998"
       y1="681.70001"
       x2="969.09998"
       gradientUnits="userSpaceOnUse"
       xlink:href="#a"
       y2="721.70001"
       id="av" />
    <linearGradient
       y2="551"
       y1="512.59998"
       x2="0"
       gradientUnits="userSpaceOnUse"
       xlink:href="#a"
       id="ai" />
    <linearGradient
       x1="210"
       gradientUnits="userSpaceOnUse"
       x2="558.20001"
       id="ay">
      <stop
         id="stop34"
         offset="0"
         stop-color="#f77f00" />
      <stop
         id="stop36"
         offset="0.31277302"
         stop-color="#fc0" />
      <stop
         id="stop38"
         offset="1"
         stop-color="#009e60" />
    </linearGradient>
    <linearGradient
       y2="733.40002"
       y1="702.90002"
       x2="0"
       gradientUnits="userSpaceOnUse"
       xlink:href="#a"
       id="aw" />
    <linearGradient
       y2="57.919998"
       y1="144.8"
       x2="0"
       gradientUnits="userSpaceOnUse"
       xlink:href="#c"
       id="ax" />
    <linearGradient
       x1="927.09998"
       y1="681.70001"
       x2="940.09998"
       gradientUnits="userSpaceOnUse"
       xlink:href="#a"
       y2="718.90002"
       id="au" />
    <linearGradient
       y2="651.20001"
       y1="611.29999"
       x2="0"
       gradientUnits="userSpaceOnUse"
       xlink:href="#a"
       id="aq" />
    <linearGradient
       x1="928.09998"
       y1="599.09998"
       x2="947.09998"
       gradientUnits="userSpaceOnUse"
       xlink:href="#a"
       y2="645.59998"
       id="ao" />
    <linearGradient
       x1="991.09998"
       y1="599.5"
       x2="972.09998"
       gradientUnits="userSpaceOnUse"
       xlink:href="#a"
       y2="632.59998"
       id="ap" />
    <linearGradient
       x1="930.09998"
       y1="639.79999"
       x2="946.09998"
       gradientUnits="userSpaceOnUse"
       xlink:href="#a"
       y2="677.5"
       id="ar" />
    <linearGradient
       x1="980.09998"
       y1="644.59998"
       x2="969.09998"
       gradientUnits="userSpaceOnUse"
       xlink:href="#a"
       y2="681"
       id="as" />
    <linearGradient
       y2="611.90002"
       y1="565.29999"
       x2="0"
       gradientUnits="userSpaceOnUse"
       xlink:href="#a"
       id="an" />
    <linearGradient
       y2="597.79999"
       y1="551.70001"
       x2="0"
       gradientUnits="userSpaceOnUse"
       xlink:href="#a"
       id="am" />
    <linearGradient
       x1="925.09998"
       y1="552.70001"
       x2="952.09998"
       gradientUnits="userSpaceOnUse"
       xlink:href="#a"
       y2="599.20001"
       id="al" />
    <linearGradient
       y2="569.90002"
       y1="520.5"
       x2="0"
       gradientUnits="userSpaceOnUse"
       xlink:href="#a"
       id="ak" />
    <linearGradient
       y2="686.70001"
       y1="649.5"
       x2="0"
       gradientUnits="userSpaceOnUse"
       xlink:href="#a"
       id="at" />
    <linearGradient
       y2="520.09998"
       y1="487.10001"
       x2="0"
       gradientUnits="userSpaceOnUse"
       xlink:href="#a"
       id="ah" />
    <linearGradient
       y2="512.5"
       y1="471.39999"
       x2="0"
       gradientUnits="userSpaceOnUse"
       xlink:href="#a"
       id="af" />
    <linearGradient
       xlink:href="#b"
       x1="832.59998"
       gradientUnits="userSpaceOnUse"
       x2="978.29999"
       id="s" />
    <linearGradient
       y2="488.5"
       y1="451.70001"
       x2="0"
       gradientUnits="userSpaceOnUse"
       xlink:href="#a"
       id="ae" />
    <linearGradient
       y2="503.10001"
       y1="471.79999"
       x2="0"
       gradientUnits="userSpaceOnUse"
       xlink:href="#a"
       id="ag" />
    <linearGradient
       x1="997.09998"
       y1="422.89999"
       x2="975.09998"
       gradientUnits="userSpaceOnUse"
       xlink:href="#a"
       y2="473.89999"
       id="ac" />
    <linearGradient
       xlink:href="#a"
       x1="945.09998"
       gradientUnits="userSpaceOnUse"
       x2="971.09998"
       id="ab" />
    <linearGradient
       xlink:href="#b"
       x1="955.90002"
       gradientUnits="userSpaceOnUse"
       x2="1058"
       id="z" />
    <linearGradient
       y2="537.90002"
       y1="506.70001"
       x2="0"
       gradientUnits="userSpaceOnUse"
       xlink:href="#a"
       id="aj" />
    <linearGradient
       xlink:href="#b"
       x1="953.20001"
       gradientUnits="userSpaceOnUse"
       x2="1066"
       id="y" />
    <linearGradient
       x1="933.09998"
       y1="419.89999"
       x2="976.09998"
       gradientUnits="userSpaceOnUse"
       xlink:href="#a"
       y2="405.10001"
       id="aa" />
    <linearGradient
       x1="918.09998"
       y1="425.89999"
       x2="939.09998"
       gradientUnits="userSpaceOnUse"
       xlink:href="#a"
       y2="473.89999"
       id="ad" />
    <linearGradient
       xlink:href="#b"
       x1="914.5"
       gradientUnits="userSpaceOnUse"
       x2="990.79999"
       id="p" />
    <linearGradient
       xlink:href="#b"
       x1="819.59998"
       gradientUnits="userSpaceOnUse"
       x2="961.09998"
       id="v" />
    <linearGradient
       xlink:href="#b"
       x1="938.20001"
       gradientUnits="userSpaceOnUse"
       x2="1086"
       id="u" />
    <linearGradient
       xlink:href="#b"
       x1="865.70001"
       gradientUnits="userSpaceOnUse"
       x2="969.79999"
       id="x" />
    <linearGradient
       xlink:href="#b"
       x1="910.59998"
       gradientUnits="userSpaceOnUse"
       x2="978"
       id="q" />
    <linearGradient
       x1="1108"
       y1="373.60001"
       x2="1050"
       gradientUnits="userSpaceOnUse"
       xlink:href="#c"
       y2="316.60001"
       id="o" />
    <linearGradient
       xlink:href="#b"
       x1="819.09998"
       gradientUnits="userSpaceOnUse"
       x2="960.40002"
       id="w" />
    <linearGradient
       x1="1170"
       y1="345.29999"
       x2="1147"
       gradientUnits="userSpaceOnUse"
       xlink:href="#c"
       y2="241.3"
       id="m" />
    <linearGradient
       x1="1149"
       y1="341.5"
       x2="1111"
       gradientUnits="userSpaceOnUse"
       xlink:href="#c"
       y2="273.20001"
       id="n" />
    <linearGradient
       x1="1126"
       y1="366.29999"
       x2="1077"
       gradientUnits="userSpaceOnUse"
       xlink:href="#c"
       y2="290.29999"
       id="l" />
    <radialGradient
       r="31.469999"
       gradientTransform="matrix(2.215,0,0,1.121,-611.2,-81)"
       cx="503.10001"
       cy="600.20001"
       gradientUnits="userSpaceOnUse"
       xlink:href="#d"
       id="h" />
    <radialGradient
       r="141.5"
       gradientTransform="matrix(1.951,-0.048,0.015,0.623,-375.7,253.2)"
       cx="385"
       cy="637.09998"
       gradientUnits="userSpaceOnUse"
       id="g">
      <stop
         id="stop77"
         offset="0"
         stop-color="#fff" />
      <stop
         id="stop79"
         offset="1"
         stop-color="#e6e6e6" />
    </radialGradient>
    <radialGradient
       r="143"
       gradientTransform="matrix(1,0,0,0.538,0,240.7)"
       cx="163.8"
       cy="532.5"
       gradientUnits="userSpaceOnUse"
       id="f">
      <stop
         id="stop82"
         offset="0"
         stop-color="#ffa442" />
      <stop
         id="stop84"
         offset="1"
         stop-color="#f77f00" />
    </radialGradient>
    <radialGradient
       r="173"
       gradientTransform="matrix(1.036,0,0,1.044,-743.2,-37.1)"
       cx="1089"
       cy="286.29999"
       gradientUnits="userSpaceOnUse"
       xlink:href="#c"
       id="k" />
    <radialGradient
       r="31.469999"
       gradientTransform="matrix(2.562,-0.174,0.076,1.119,347.7,157.8)"
       cx="267.29999"
       cy="597.79999"
       gradientUnits="userSpaceOnUse"
       xlink:href="#d"
       id="i" />
    <radialGradient
       r="142.89999"
       gradientTransform="matrix(1,0,0,0.534,0,242.5)"
       cx="606.29999"
       cy="531.90002"
       gradientUnits="userSpaceOnUse"
       id="e">
      <stop
         id="stop89"
         offset="0"
         stop-color="#00e98e" />
      <stop
         id="stop91"
         offset="1"
         stop-color="#009e60" />
    </radialGradient>
    <radialGradient
       r="26.200001"
       gradientTransform="matrix(1.043,0,0,0.963,809.2,202.6)"
       cx="39.43"
       cy="476.5"
       gradientUnits="userSpaceOnUse"
       xlink:href="#d"
       id="j" />
    <linearGradient
       inkscape:collect="always"
       xlink:href="#c"
       id="linearGradient1374"
       gradientUnits="userSpaceOnUse"
       x1="1126"
       y1="366.29999"
       x2="1077"
       y2="290.29999" />
    <linearGradient
       inkscape:collect="always"
       xlink:href="#c"
       id="linearGradient1376"
       gradientUnits="userSpaceOnUse"
       x1="1170"
       y1="345.29999"
       x2="1147"
       y2="241.3" />
    <linearGradient
       inkscape:collect="always"
       xlink:href="#c"
       id="linearGradient1378"
       gradientUnits="userSpaceOnUse"
       x1="1149"
       y1="341.5"
       x2="1111"
       y2="273.20001" />
    <linearGradient
       inkscape:collect="always"
       xlink:href="#c"
       id="linearGradient1380"
       gradientUnits="userSpaceOnUse"
       x1="1108"
       y1="373.60001"
       x2="1050"
       y2="316.60001" />
  </defs>
  <sodipodi:namedview
     id="base"
     pagecolor="#ffffff"
     bordercolor="#666666"
     borderopacity="1.0"
     inkscape:pageopacity="0.0"
     inkscape:pageshadow="2"
     inkscape:zoom="0.52591067"
     inkscape:cx="308.03816"
     inkscape:cy="337.98523"
     inkscape:document-units="mm"
     inkscape:current-layer="g380"
     showgrid="false"
     inkscape:window-width="1294"
     inkscape:window-height="704"
     inkscape:window-x="72"
     inkscape:window-y="27"
     inkscape:window-maximized="1"
     fit-margin-top="0"
     fit-margin-left="0"
     fit-margin-right="0"
     fit-margin-bottom="0" />
  <metadata
     id="metadata5">
    <rdf:RDF>
      <cc:Work
         rdf:about="">
        <dc:format>image/svg+xml</dc:format>
        <dc:type
           rdf:resource="http://purl.org/dc/dcmitype/StillImage" />
        <dc:title></dc:title>
      </cc:Work>
    </rdf:RDF>
  </metadata>
  <g
     inkscape:label="Layer 1"
     inkscape:groupmode="layer"
     id="layer1"
     transform="translate(-6.9444796,-20.658152)">
    <g
       id="g380"
       transform="matrix(0.26458333,0,0,0.26458333,-8.6601034,20.334895)">
      <path
         id="path97"
         d="m 296.33952,596.49854 c 0,0 21.8,-0.66 49.6,3.87 14.76,2.41 32.3,9.85 46.77,11.76 17.1,2.25 41.1,3.32 44.1,3.26 2.84,-0.05 25.78,-1.82 41,-4.37 17.1,-2.87 37.53,-10.7 54.94,-14.23 24.47,-4.96 43.52,-5.29 43.52,-5.29 v 41.75 c 0,0 -12.69,11.94 -35.1,20.91 -12.39,4.97 -29.99,7.08 -44.75,10.38 -18.8,4.21 -51.64,3.28 -58.2,3.28 -7.43,0 -45.3,1.05 -67.96,-4 -11.67,-2.61 -29.62,-6.62 -39.4,-10 -24.7,-8.69 -34.5,-24.1 -34.5,-24.1 v -33.16 z"
         inkscape:connector-curvature="0"
         style="fill:#ffd942;fill-opacity:1;stroke:#222222;stroke-width:2.5"
         inkscape:export-xdpi="336.32999"
         inkscape:export-ydpi="336.32999" />
      <g
         transform="translate(-759.56048,-192.90146)"
         id="az"
         inkscape:export-xdpi="336.32999"
         inkscape:export-ydpi="336.32999">
        <g
           id="g145"
           style="fill:#ffd942;fill-opacity:1;stroke:#401e04;stroke-width:2.5">
          <path
             id="path99"
             d="m 942.5,452.7 28.1,0.94 24.35,-45.89 -29,-21.54 -30.9,22.48 7.49,44 z"
             inkscape:connector-curvature="0"
             style="fill:#ffd942;fill-opacity:1" />
          <path
             id="path101"
             d="m 947.2,468.3 c 0,0 -0.45,-26.91 1.87,-33.2 1.65,-4.49 8.43,-13.1 8.43,-13.1 0,0 8.11,10.38 9.37,14.98 1.77,6.51 2.81,31.37 2.81,31.37"
             inkscape:connector-curvature="0"
             style="fill:#ffd942;fill-opacity:1" />
          <path
             id="path103"
             d="m 978,454.5 c 2.8,-10.72 17,-29.92 17,-29.92 0,0 -30.1,14 -36.52,27.2 -3.82,7.83 -1.87,31.84 -1.87,31.84 l 20.61,4.66 c 0,0 -1.5,-25 0.78,-33.78 z"
             inkscape:connector-curvature="0"
             style="fill:#ffd942;fill-opacity:1" />
          <path
             id="path105"
             d="m 936.7,457.6 c -2.8,-10.72 -17,-29.92 -17,-29.92 0,0 30.1,14 36.52,27.2 3.82,7.83 1.87,31.84 1.87,31.84 l -17.79,3.73 c 0,0 -1.32,-24.1 -3.6,-32.85 z"
             inkscape:connector-curvature="0"
             style="fill:#ffd942;fill-opacity:1" />
          <path
             id="path107"
             d="m 944.8,498.8 c 0,0 -0.45,-26.92 1.87,-33.2 1.65,-4.49 10.3,-12.17 10.3,-12.17 0,0 8.11,9.44 9.37,14.1 1.77,6.51 0.94,31.37 0.94,31.37"
             inkscape:connector-curvature="0"
             style="fill:#ffd942;fill-opacity:1" />
          <path
             id="path109"
             d="m 939.6,500.2 c -2.8,-10.72 -10.45,-27.1 -10.45,-27.1 0,0 26.37,11.22 32.78,24.35 3.82,7.83 1.87,31.84 1.87,31.84 l -17.8,3.74 c 0,0 -4.12,-24.1 -6.41,-32.82 z"
             inkscape:connector-curvature="0"
             style="fill:#ffd942;fill-opacity:1" />
          <path
             id="path111"
             d="m 976.2,500.6 c 2.8,-10.72 10.45,-27.1 10.45,-27.1 0,0 -23.56,7.47 -29.97,20.6 -3.82,7.83 -4.68,35.59 -4.68,35.59 l 24.35,2.8 c 0,0 -2.43,-23.1 -0.15,-31.88 z"
             inkscape:connector-curvature="0"
             style="fill:#ffd942;fill-opacity:1" />
          <path
             id="path113"
             d="m 948.4,518.3 c 0.16,-7.34 1.02,-15.98 1.92,-19 1.34,-4.52 8.69,-10.43 8.69,-10.43 0,0 7.52,5.86 8.55,10.49 0.63,2.85 3.29,12.73 3.67,18.89 0.5,8 -11.46,16.32 -11.46,16.32 0,0 -11.55,-8.11 -11.38,-16.27 z"
             inkscape:connector-curvature="0"
             style="fill:#ffd942;fill-opacity:1" />
          <path
             id="path115"
             d="m 939.5,541.5 c -2.8,-10.72 -10.45,-27.1 -10.45,-27.1 0,0 26.37,4.84 32.78,17.98 3.82,7.83 1.87,38.2 1.87,38.2 l -17.8,3.74 c 0,0 -4.12,-24.1 -6.41,-32.82 z"
             inkscape:connector-curvature="0"
             style="fill:#ffd942;fill-opacity:1" />
          <path
             id="path117"
             d="m 979.8,535.5 c 2.8,-10.72 10.45,-27.1 10.45,-27.1 0,0 -23.56,7.47 -29.97,20.6 -3.82,7.83 -4.68,35.59 -4.68,35.59 l 24.35,2.8 c 0,0 -2.43,-23.1 -0.15,-31.88 z"
             inkscape:connector-curvature="0"
             style="fill:#ffd942;fill-opacity:1" />
          <path
             id="path119"
             d="m 948,567.6 c 0,0 -2.93,-8 -2.72,-16.1 0.2,-7.29 3.49,-14.1 4.59,-17.1 1.65,-4.49 8.43,-12.17 8.43,-12.17 0,0 8.11,9.44 9.37,14 0.77,2.83 5.15,9 5.62,15.1 0.61,7.95 -2.81,16.28 -2.81,16.28"
             inkscape:connector-curvature="0"
             style="fill:#ffd942;fill-opacity:1" />
          <path
             id="path121"
             d="m 937.6,581.5 c -2.8,-10.72 -10.45,-27.1 -10.45,-27.1 0,0 26.37,4.84 32.78,17.98 3.82,7.83 1.87,38.2 1.87,38.2 l -21.44,3.74 c 0,0 -0.48,-24.1 -2.77,-32.82 z"
             inkscape:connector-curvature="0"
             style="fill:#ffd942;fill-opacity:1" />
          <path
             id="path123"
             d="m 981.1,579.7 c 2.8,-10.72 4.99,-26.2 4.99,-26.2 0,0 -20.91,3.93 -27.31,17.1 -3.82,7.83 -1.87,38.2 -1.87,38.2 l 21.43,3.75 c 0,0 0.48,-24.1 2.76,-32.82 z"
             inkscape:connector-curvature="0"
             style="fill:#ffd942;fill-opacity:1" />
          <path
             id="path125"
             d="m 946.4,603.6 c 0.2,-9.12 3.45,-20.33 4.53,-24.1 1.63,-5.62 8.33,-12.49 8.33,-12.49 0,0 8.92,8.16 10.16,13.93 0.76,3.54 4.18,14.94 4.64,22.59 0.6,9.95 -13.88,20.29 -13.88,20.29 0,0 -14,-10.1 -13.78,-20.2 z"
             inkscape:connector-curvature="0"
             style="fill:#ffd942;fill-opacity:1" />
          <path
             id="path127"
             d="m 939.5,628 c -2.8,-10.72 -9.54,-27.1 -9.54,-27.1 0,0 26.37,4.84 32.78,17.98 3.82,7.83 1.87,38.2 1.87,38.2 l -25.1,6.47 c 0,0 2.25,-26.81 -0.03,-35.55 z"
             inkscape:connector-curvature="0"
             style="fill:#ffd942;fill-opacity:1" />
          <path
             id="path129"
             d="m 980.1,628.4 c 2.8,-10.72 9.54,-27.1 9.54,-27.1 0,0 -26.37,4.84 -32.78,17.98 -3.82,7.83 -1.87,38.2 -1.87,38.2 l 23.48,7.97 c 0,0 -0.66,-28.31 1.63,-37.1 z"
             inkscape:connector-curvature="0"
             style="fill:#ffd942;fill-opacity:1" />
          <path
             id="path131"
             d="m 946.4,649.6 c 0.2,-9.12 2.53,-19.42 3.62,-23.2 1.63,-5.62 9.24,-13.4 9.24,-13.4 0,0 8.92,8.16 10.16,13.93 0.76,3.54 4.18,14.94 4.64,22.59 0.6,9.95 -13.88,20.29 -13.88,20.29 0,0 -14,-10.1 -13.78,-20.2 z"
             inkscape:connector-curvature="0"
             style="fill:#ffd942;fill-opacity:1" />
          <path
             id="path133"
             d="m 935.9,696.7 c 0,0 4.08,-24.1 1.79,-32.82 -2.8,-10.72 -5.9,-29.85 -5.9,-29.85 0,0 16.35,7.58 22.76,20.71 3.82,7.83 6.42,35.48 6.42,35.48 l -25.1,6.48 z"
             inkscape:connector-curvature="0"
             style="fill:#ffd942;fill-opacity:1" />
          <path
             id="path135"
             d="m 973.5,700.9 c 0,0 1.82,-23.35 4.59,-31.96 3.39,-10.54 7.55,-29.47 7.55,-29.47 0,0 -16.75,6.65 -23.88,19.41 -4.25,7.6 -8.39,35.1 -8.39,35.1 l 20.1,6.95 z"
             inkscape:connector-curvature="0"
             style="fill:#ffd942;fill-opacity:1" />
          <path
             id="path137"
             d="m 944.5,687.8 c 0.2,-9.12 1.62,-21.24 2.71,-24.99 1.63,-5.62 10.15,-11.58 10.15,-11.58 0,0 8.92,9.1 10.16,14.84 0.76,3.54 4.18,14 4.64,21.68 0.6,9.95 -13.88,20.28 -13.88,20.28 0,0 -14,-10.1 -13.78,-20.23 z"
             inkscape:connector-curvature="0"
             style="fill:#ffd942;fill-opacity:1" />
          <path
             id="path139"
             d="m 929.5,713 c 0,0 3.63,-4.64 2.28,-13.58 -1.65,-10.95 -2.72,-30.3 -2.72,-30.3 0,0 15.46,9.26 20.45,22.99 2.97,8.19 2.88,18.77 2.88,18.77 z"
             inkscape:connector-curvature="0"
             style="fill:#ffd942;fill-opacity:1" />
          <path
             id="path141"
             d="m 976.7,723.7 c 0,0 -1.93,-18.37 1.21,-26.84 3.85,-10.38 8.84,-29.1 8.84,-29.1 0,0 -17,5.91 -24.71,18.34 -4.58,7.41 -9.21,35.52 -9.21,35.52 l 23.86,2.09 z"
             inkscape:connector-curvature="0"
             style="fill:#ffd942;fill-opacity:1" />
          <path
             id="path143"
             d="m 943.6,720.2 c 0,0 -0.13,-17.2 0.96,-20.95 1.63,-5.62 10.15,-11.58 10.15,-11.58 0,0 8.92,9.1 10.16,14.84 0.76,3.54 0.94,16.53 0.94,16.53 l -22.2,1.17 z"
             inkscape:connector-curvature="0"
             style="fill:#ffd942;fill-opacity:1" />
        </g>
        <path
           id="path147"
           d="m 952.6,433.6 15,-11.48 c 0,0 9.65,-9.73 12.66,-14.72 2.74,-4.55 6.48,-16.49 6.48,-16.49 l -9.42,8.25 10,-16.2 c 0,0 2.07,-6.52 2.36,-9.42 0.51,-5.19 -0.88,-17.37 -0.88,-17.37 l -6.18,8.25 c 0,0 4.58,-12.55 2.95,-17.67 l -4.81,-15 c 0,0 -4,-9.31 -5.79,-12.97 -3.61,-7.44 -8.62,-11.78 -15.61,-16.2 -2.24,-1.42 -8.68,-4.55 -14.46,-5.75 -12.74,-2.66 -29.42,-2.79 -29.42,-2.79 l 38.58,39.2 2.65,63.3 -4.12,37.1 z"
           inkscape:connector-curvature="0"
           style="fill:#ffd942;fill-opacity:1;stroke:#112b00;stroke-width:2" />
        <g
           id="g155"
           style="fill:#ffd942;fill-opacity:1;stroke:#17280b;stroke-width:2.5">
          <path
             id="path149"
             d="m 956.2,432.6 c 0,0 -10.39,-7.63 -13.23,-12.23 -1.12,-1.82 -5.18,-9.1 -5.18,-9.1 0,0 8.4,4.65 10.62,5.72 1.77,0.85 5.89,2.87 5.89,2.87 0,0 -5.73,-3.71 -7.83,-5.77 -1.63,-1.6 -3.04,-3.32 -4.16,-4.82 -1.52,-2.04 -4.48,-7.8 -4.48,-7.8 0,0 7.44,4.46 9.9,5.62 2.2,1.04 7.7,2.53 7.7,2.53 0,0 -7.56,-4.17 -9.45,-5.7 -2.51,-2.04 -3,-1.93 -4.61,-4.74 -0.88,-1.56 -5.1,-8.61 -5.1,-8.61 0,0 8,4.23 10.1,5.35 2.76,1.52 9.47,4.54 9.47,4.54 0,0 -7.5,-4.77 -10.1,-6.52 -2.34,-1.59 -4.61,-2.36 -6.23,-4.67 -1.1,-1.58 -5.18,-9.1 -5.18,-9.1 0,0 8.63,6.32 12.58,7.46 1.97,0.57 10.22,2.3 10.22,2.3 0,0 -5.58,-1.79 -7.78,-2.99 -3.51,-1.9 -7.8,-3.11 -10.25,-6.26 -1.94,-2.49 -8.91,-12.8 -8.91,-12.8 0,0 9.53,5.4 11.96,6.64 1.7,0.87 4.11,1.86 6,2.15 3.23,0.5 10.89,-0.39 10.89,-0.39 0,0 -8.76,-0.89 -12.29,-2.15 -3.13,-1.12 -7,-3.42 -9.64,-5.44 -1.65,-1.26 -4.09,-3 -4.88,-4.92 -1.11,-2.72 -4.45,-10.13 -4.45,-10.13 0,0 9.24,6.12 11.76,8.1 1.54,1.2 3.83,2.61 5.71,3.14 2.99,0.83 10.34,0.41 10.34,0.41 0,0 -8.43,-1.45 -11.74,-2.95 -1.15,-0.52 -2.5,-1.58 -3.47,-2.39 -2.51,-2.08 -6.93,-4.99 -7.72,-7.66 -0.79,-2.67 -4.73,-9.15 -4.73,-9.15 0,0 12.77,6.44 15.9,7.77 4.22,1.8 8.87,2.2 13.46,2.16 1.03,0 3.34,-0.85 3.34,-0.85 0,0 -8.97,-0.79 -11.49,-1.6 -3.28,-1.05 -6.15,-2.25 -9.3,-3.63 -4,-1.77 -7.33,-3.22 -9.89,-6.79 -1.36,-1.9 -4,-9 -4,-9 0,0 12.14,4.59 16.38,5.35 3.99,0.71 13.47,0.99 13.47,0.99 0,0 -10.36,-1.89 -14.61,-3.35 -3.36,-1.15 -8.7,-2.09 -10.72,-5 -1.5,-2.16 -3.91,-9.76 -3.91,-9.76 0,0 10,3.3 13.1,3.87 5.48,1.03 18.5,1.69 18.5,1.69 0,0 -10.68,-1.33 -15.96,-3.1 -2.55,-0.85 -10.71,-2.62 -12.41,-4.7 -1.83,-2.24 -7.39,-6.19 -7.39,-6.19 0,0 15.62,1.83 19.8,3.34 3.09,1.12 12,2.05 12,2.05 0,0 -29.88,-6.47 -31.56,-9.21 -1.02,-1.66 -3.43,-3.92 -3.89,-5.81 -0.66,-2.76 -6.86,-7.59 -6.86,-7.59 0,0 18.1,2.39 31.95,8.22 9.49,3.98 15.47,10.67 18.62,14.96 7.5,10.21 12.33,24.93 13.68,38.5 1.16,11.69 0.82,29.55 -2.82,41.3 -3.43,11.1 -17.1,35.82 -17.1,35.82 z"
             inkscape:connector-curvature="0"
             style="fill:#ffd942;fill-opacity:1" />
          <path
             id="path151"
             d="m 952.6,380.9 c 0,0 6,11.4 10.17,14.87 1.64,1.38 8.21,6.45 8.21,6.45 0,0 -3.38,-8.99 -4.11,-11.34 -0.58,-1.88 -1.98,-6.25 -1.98,-6.25 0,0 2.84,6.21 4.57,8.59 1.35,1.85 2.84,3.49 4.16,4.82 1.8,1.8 7.1,5.57 7.1,5.57 0,0 -3.32,-8 -4.12,-10.62 -0.71,-2.33 -1.38,-7.99 -1.38,-7.99 0,0 3,8.09 4.26,10.19 1.65,2.78 1.47,3.26 4,5.25 1.41,1.1 7.78,6.3 7.78,6.3 0,0 -3,-8.57 -3.82,-10.76 -1.1,-2.95 -3.11,-10 -3.11,-10 0,0 3.62,8.11 4.98,10.92 1.24,2.54 1.66,4.9 3.71,6.85 1.4,1.32 8.21,6.45 8.21,6.45 0,0 -4.99,-9.46 -5.54,-13.53 -0.27,-2.03 -0.78,-10.45 -0.78,-10.45 0,0 0.96,5.79 1.82,8.13 1.37,3.75 1.94,8.17 4.69,11.1 2.18,2.29 11.36,10.68 11.36,10.68 0,0 -3.95,-10.22 -4.82,-12.8 -0.61,-1.81 -1.24,-4.33 -1.25,-6.25 -0.03,-3.27 1.98,-10.71 1.98,-10.71 0,0 -0.4,8.8 0.33,12.47 0.65,3.25 2.37,7.42 3.97,10.33 1,1.82 2.37,4.49 4.16,5.55 2.53,1.5 9.37,5.88 9.37,5.88 0,0 -4.71,-10 -6.27,-12.81 -0.96,-1.7 -2.03,-4.17 -2.27,-6.11 -0.38,-3.08 1.1,-10.28 1.1,-10.28 0,0 0.21,8.55 1.2,12 0.35,1.22 1.2,2.7 1.85,3.79 1.69,2.79 3.92,7.58 6.45,8.75 2.53,1.17 8.36,6 8.36,6 0,0 -4.5,-13.57 -5.37,-16.86 -1.16,-4.44 -0.88,-9.1 -0.17,-13.63 0.16,-1.02 1.33,-3.18 1.33,-3.18 0,0 -0.53,8.99 -0.1,11.6 0.56,3.4 1.33,6.41 2.24,9.73 1.16,4.24 2.11,7.72 5.27,10.77 1.68,1.62 8.36,5.29 8.36,5.29 0,0 -2.77,-12.68 -2.9,-16.99 -0.12,-4.05 0.98,-13.48 0.98,-13.48 0,0 0.35,10.52 1.18,14.94 0.65,3.49 0.79,8.91 3.38,11.34 1.92,1.8 9.1,5.3 9.1,5.3 0,0 -1.8,-10.43 -1.91,-13.5 -0.22,-5.57 1.03,-18.55 1.03,-18.55 0,0 -0.25,10.76 0.73,16.24 0.47,2.65 0.85,8.62 2.66,10.61 1.94,2.14 9.8,7.48 9.8,7.48 0,0 -3,-13.95 -3.9,-18.3 -0.66,-3.22 -1.36,-10.89 -1.36,-10.89 0,0 2.47,9.62 3.8,13.66 1,3.06 1.36,7.97 3.83,10 1.49,1.25 4.56,0.49 6.37,1.21 2.63,1.06 7.93,5.14 7.93,5.14 0,0 -11.94,-29.1 -21.28,-38.3 -9,-8.91 -22.86,-15.84 -36.1,-19.1 -11.39,-2.85 -29.1,-5.13 -41.3,-3.25 -11.48,1.77 -37.94,11.71 -37.94,11.71 z"
             inkscape:connector-curvature="0"
             style="fill:#ffd942;fill-opacity:1" />
          <path
             id="path153"
             d="m 977,368.9 c 0,0 -10.82,7 -16.1,8 -2.1,0.41 -10.31,1.64 -10.31,1.64 0,0 7.33,-6.21 9.11,-7.91 1.42,-1.36 4.77,-4.5 4.77,-4.5 0,0 -5.5,4.05 -8.17,5.28 -2.08,0.96 -4.18,1.67 -5.98,2.18 -2.45,0.7 -8.88,1.43 -8.88,1.43 0,0 6.8,-5.38 8.76,-7.27 1.75,-1.69 5.1,-6.3 5.1,-6.3 0,0 -6.58,5.6 -8.68,6.82 -2.79,1.63 -2.87,2.14 -6.1,2.63 -1.77,0.27 -9.86,1.72 -9.86,1.72 0,0 6.8,-6 8.58,-7.54 2.4,-2.04 7.6,-7.25 7.6,-7.25 0,0 -7.11,5.32 -9.67,7.11 -2.32,1.62 -3.84,3.48 -6.58,4.17 -1.87,0.47 -10.31,1.64 -10.31,1.64 0,0 8.97,-5.83 11.43,-9.12 1.23,-1.64 5.77,-8.74 5.77,-8.74 0,0 -3.65,4.59 -5.55,6.22 -3,2.61 -5.67,6.19 -9.48,7.38 -3,0.94 -15.1,3.8 -15.1,3.8 0,0 8.42,-7 10.44,-8.83 1.42,-1.28 3.19,-3.18 4.13,-4.85 1.61,-2.84 3.49,-10.32 3.49,-10.32 0,0 -3.93,7.88 -6.36,10.73 -2.15,2.53 -5.68,5.33 -8.5,7.09 -1.76,1.1 -4.25,2.76 -6.33,2.82 -2.94,0.08 -11,0.57 -11,0.57 0,0 9,-6.48 11.72,-8.14 1.67,-1.02 3.8,-2.65 4.96,-4.23 1.84,-2.5 4,-9.52 4,-9.52 0,0 -4.35,7.37 -6.91,9.94 -0.89,0.89 -2.36,1.78 -3.46,2.4 -2.84,1.61 -7.12,4.71 -9.9,4.51 -2.78,-0.21 -10.23,1.19 -10.23,1.19 0,0 10.54,-9.66 12.9,-12.1 3.18,-3.31 5.2,-7.52 6.79,-11.82 0.36,-0.97 0.38,-3.43 0.38,-3.43 0,0 -3.91,8.11 -5.56,10.18 -2.14,2.7 -4.28,4.95 -6.69,7.41 -3.08,3.13 -5.6,5.72 -9.85,6.84 -2.26,0.6 -9.88,0.55 -9.88,0.55 0,0 8.6,-9.73 10.8,-13.43 2.08,-3.48 5.7,-12.25 5.7,-12.25 0,0 -5.43,9 -8.3,12.48 -2.27,2.73 -5,7.4 -8.48,8.26 -2.55,0.64 -10.52,0.2 -10.52,0.2 0,0 6.64,-8.23 8.25,-10.86 2.9,-4.76 8.13,-16.7 8.13,-16.7 0,0 -5,9.52 -8.55,13.83 -1.7,2.08 -4.94,7.11 -7.49,7.97 -2.74,0.92 -12.2,1.76 -12.2,1.76 0,0 9.42,-10.71 12.32,-14.1 2.15,-2.5 6.49,-8.85 6.49,-8.85 0,0 -6.84,7.2 -9.97,10.1 -2.37,2.18 -5.07,6.3 -8.23,6.9 -1.91,0.37 -4.23,-1.8 -6.15,-2.04 -2.81,-0.36 -9.43,0.63 -9.43,0.63 0,0 24.59,-19.58 37.2,-23.1 12.2,-3.4 27.68,-2.71 40.84,0.84 11.34,3.06 27.92,9.69 37.65,17.27 9.16,7.14 27.44,28.7 27.44,28.7 z"
             inkscape:connector-curvature="0"
             style="fill:#ffd942;fill-opacity:1" />
        </g>
        <path
           id="path157"
           d="m 939.8,382.9 5.34,-18.1 c 0,0 5.63,-12.5 9.21,-17.1 3.27,-4.19 13.1,-11.96 13.1,-11.96 l -4.32,11.75 11.53,-15.1 c 0,0 5.35,-4.27 7.95,-5.57 4.67,-2.33 16.54,-5.4 16.54,-5.4 l -5.48,8.73 c 0,0 10.3,-7.51 15.44,-9.1 6.47,-1.98 22.5,-1.38 22.5,-1.38 l -5.44,5.56 c 0,0 8.81,-4.65 12.86,-4.3 8.24,0.71 14.1,3.82 20.71,8.77 2.13,1.59 7.36,6.48 10.55,11.44 7,10.94 13.1,26.47 13.1,26.47 l -50.4,-21.98 -60.1,20.2 -33.2,17.1 z"
           inkscape:connector-curvature="0"
           style="fill:#ffd942;fill-opacity:1;stroke:#112b00;stroke-width:2" />
        <path
           id="path159"
           d="m 939.4,379.1 c 0,0 10.85,6.97 16.2,7.97 2.11,0.4 10.32,1.59 10.32,1.59 0,0 -7.36,-6.18 -9.15,-7.87 -1.43,-1.35 -4.79,-4.48 -4.79,-4.48 0,0 5.52,4 8.2,5.25 2.08,0.95 4.19,1.65 5.99,2.16 2.45,0.69 8.88,1.39 8.88,1.39 0,0 -6.83,-5.35 -8.8,-7.23 -1.76,-1.68 -5.12,-6.28 -5.12,-6.28 0,0 6.6,5.57 8.71,6.78 2.8,1.61 2.88,2.13 6.08,2.61 1.77,0.27 9.87,1.67 9.87,1.67 0,0 -6.83,-5.99 -8.61,-7.5 -2.41,-2.03 -7.63,-7.21 -7.63,-7.21 0,0 7.13,5.29 9.7,7.1 2.32,1.61 3.85,3.46 6.59,4.14 1.87,0.47 10.32,1.59 10.32,1.59 0,0 -9,-5.8 -11.47,-9.1 -1.24,-1.64 -5.81,-8.72 -5.81,-8.72 0,0 3.67,4.57 5.58,6.2 3,2.59 5.7,6.17 9.51,7.33 3,0.92 15.1,3.73 15.1,3.73 0,0 -8.46,-6.97 -10.48,-8.79 -1.42,-1.28 -3.21,-3.17 -4.16,-4.83 -1.63,-2.83 -3.54,-10.3 -3.54,-10.3 0,0 3.97,7.87 6.41,10.7 2.16,2.52 5.7,5.31 8.53,7 1.77,1.09 4.26,2.75 6.34,2.79 2.94,0.06 11,0.52 11,0.52 0,0 -9,-6.43 -11.75,-8.1 -1.67,-1 -3.81,-2.64 -4.97,-4.21 -1.85,-2.49 -4.09,-9.5 -4.09,-9.5 0,0 4.38,7.35 6.96,9.9 0.9,0.89 2.37,1.77 3.47,2.39 2.84,1.6 7.14,4.68 9.92,4.46 2.78,-0.22 10.23,1.14 10.23,1.14 0,0 -10.58,-9.61 -12.95,-12.1 -3.19,-3.3 -5.24,-7.49 -6.84,-11.79 -0.36,-0.97 -0.4,-3.42 -0.4,-3.42 0,0 3.95,8.09 5.61,10.15 2.16,2.69 4.3,4.93 6.73,7.38 3.09,3.12 5.63,5.69 9.88,6.8 2.26,0.59 9.88,0.5 9.88,0.5 0,0 -8.64,-9.69 -10.87,-13.38 -2.1,-3.47 -5.76,-12.22 -5.76,-12.22 0,0 5.47,8.99 8.36,12.44 2.28,2.72 5.07,7.37 8.51,8.22 2.55,0.62 10.52,0.15 10.52,0.15 0,0 -6.68,-8.2 -8.3,-10.82 -2.92,-4.75 -8.21,-16.67 -8.21,-16.67 0,0 5.07,9.5 8.61,13.79 1.71,2.07 6.28,9.1 8.83,9.91 2.74,0.91 8.43,4.68 8.43,4.68 0,0 -7.3,-13.93 -10.21,-17.29 -2.16,-2.49 -6.23,-10.51 -6.23,-10.51 0,0 16.74,25.58 19.91,26.2 1.91,0.36 4.89,1.8 6.82,1.55 2.81,-0.37 9.55,3.69 9.55,3.69 0,0 -8.7,-16 -19.1,-26.89 -7.12,-7.43 -15.5,-10.62 -20.64,-12 -12.22,-3.34 -27.69,-2.58 -40.84,1.02 -11.33,3.11 -27.88,9.82 -37.57,17.44 -9.13,7.18 -27.31,28.83 -27.31,28.83 z"
           inkscape:connector-curvature="0"
           style="fill:#ffd942;fill-opacity:1;stroke:#17280b;stroke-width:2.5" />
        <path
           id="path161"
           d="m 960.1,394.8 -11.48,-15 c 0,0 -9.73,-9.65 -14.72,-12.66 -4.55,-2.74 -16.49,-6.48 -16.49,-6.48 l 8.25,9.42 -16.2,-10 c 0,0 -6.52,-2.07 -9.42,-2.36 -5.19,-0.51 -17.37,0.88 -17.37,0.88 l 8.25,6.18 c 0,0 -12.31,-3.32 -17.67,-2.94 -6.75,0.47 -21.5,6.77 -21.5,6.77 l 7.1,3.24 c 0,0 -9.89,-1.19 -13.55,0.59 -7.44,3.61 -11.78,8.62 -16.2,15.61 -1.42,2.24 -4.55,8.68 -5.75,14.46 -2.66,12.74 -2.79,29.42 -2.79,29.42 l 39.2,-38.58 63.3,-2.65 37.1,4.12 z"
           inkscape:connector-curvature="0"
           style="fill:#ffd942;fill-opacity:1;stroke:#112b00;stroke-width:2" />
        <g
           id="g167"
           style="fill:#ffd942;fill-opacity:1;stroke:#17280b;stroke-width:2.5">
          <path
             id="path163"
             d="m 959.2,391.1 c 0,0 -7.63,10.39 -12.23,13.23 -1.82,1.12 -9.1,5.18 -9.1,5.18 0,0 4.65,-8.4 5.72,-10.62 0.85,-1.77 2.87,-5.89 2.87,-5.89 0,0 -3.71,5.73 -5.77,7.83 -1.6,1.63 -3.32,3.04 -4.82,4.16 -2.04,1.52 -7.79,4.48 -7.79,4.48 0,0 4.46,-7.44 5.62,-9.9 1.04,-2.2 2.53,-7.7 2.53,-7.7 0,0 -4.17,7.56 -5.71,9.45 -2.04,2.51 -1.93,3 -4.74,4.61 -1.55,0.88 -8.61,5.1 -8.61,5.1 0,0 4.23,-8 5.35,-10.1 1.52,-2.76 4.54,-9.47 4.54,-9.47 0,0 -4.77,7.5 -6.52,10.1 -1.59,2.34 -2.36,4.61 -4.67,6.23 -1.58,1.1 -9.1,5.18 -9.1,5.18 0,0 6.32,-8.63 7.46,-12.58 0.57,-1.97 2.3,-10.22 2.3,-10.22 0,0 -1.79,5.58 -2.99,7.78 -1.9,3.51 -3.11,7.8 -6.26,10.25 -2.49,1.94 -12.8,8.91 -12.8,8.91 0,0 5.4,-9.53 6.64,-11.96 0.87,-1.7 1.86,-4.11 2.15,-6 0.5,-3.23 -0.39,-10.89 -0.39,-10.89 0,0 -0.89,8.76 -2.15,12.29 -1.12,3.13 -3.42,7 -5.44,9.64 -1.26,1.65 -3,4.09 -4.92,4.88 -2.72,1.11 -10.13,4.45 -10.13,4.45 0,0 6.12,-9.24 8.1,-11.76 1.2,-1.55 2.61,-3.83 3.14,-5.71 0.83,-2.99 0.41,-10.34 0.41,-10.34 0,0 -1.46,8.43 -2.95,11.74 -0.52,1.15 -1.58,2.5 -2.39,3.47 -2.08,2.51 -4.99,6.93 -7.66,7.72 -2.67,0.79 -9.15,4.73 -9.15,4.73 0,0 6.44,-12.77 7.77,-15.9 1.8,-4.22 2.2,-8.87 2.16,-13.46 0,-1.03 -0.85,-3.34 -0.85,-3.34 0,0 -0.79,8.97 -1.6,11.49 -1.05,3.28 -2.25,6.15 -3.63,9.3 -1.77,4 -3.22,7.33 -6.79,9.89 -1.9,1.36 -9,4 -9,4 0,0 4.59,-12.14 5.35,-16.38 0.71,-3.99 0.99,-13.47 0.99,-13.47 0,0 -1.89,10.36 -3.35,14.61 -1.15,3.36 -2.09,8.7 -5,10.72 -2.16,1.5 -9.76,3.91 -9.76,3.91 0,0 3.3,-10.1 3.87,-13.1 1.03,-5.48 1.69,-18.5 1.69,-18.5 0,0 -1.33,10.68 -3.1,15.96 -0.85,2.55 -2.62,10.71 -4.7,12.41 -2.24,1.83 -6.19,7.39 -6.19,7.39 0,0 1.83,-15.62 3.34,-19.8 1.12,-3.09 2.05,-12 2.05,-12 0,0 -6.47,29.88 -9.21,31.56 -1.66,1.02 -3.92,3.43 -5.81,3.89 -2.76,0.66 -7.59,6.86 -7.59,6.86 0,0 2.39,-18.1 8.22,-31.95 3.98,-9.49 10.67,-15.47 14.96,-18.62 10.21,-7.5 24.93,-12.33 38.5,-13.68 11.69,-1.16 29.55,-0.82 41.3,2.82 11.1,3.43 35.82,17.1 35.82,17.1 z"
             inkscape:connector-curvature="0"
             style="fill:#ffd942;fill-opacity:1" />
          <path
             id="path165"
             d="m 968.6,394.8 c 0,0 -0.41,12.89 -2.59,17.83 -0.87,1.96 -4.54,9.4 -4.54,9.4 0,0 -0.92,-9.56 -1.3,-11.99 -0.3,-1.94 -0.97,-6.48 -0.97,-6.48 0,0 0.18,6.83 -0.32,9.73 -0.39,2.25 -1.02,4.39 -1.62,6.16 -0.82,2.41 -3.89,8.11 -3.89,8.11 0,0 -0.54,-8.66 -0.97,-11.35 -0.39,-2.4 -2.27,-7.78 -2.27,-7.78 0,0 0.84,8.6 0.65,11 -0.26,3.22 0.12,3.58 -1.3,6.48 -0.78,1.61 -4.21,9.1 -4.21,9.1 0,0 -1.07,-9 -1.3,-11.35 -0.31,-3.13 -1.62,-10.37 -1.62,-10.37 0,0 0.31,8.88 0.32,11.99 0,2.83 0.67,5.13 -0.32,7.78 -0.68,1.8 -4.54,9.4 -4.54,9.4 0,0 0.33,-10.7 -0.97,-14.59 -0.65,-1.95 -3.89,-9.73 -3.89,-9.73 0,0 1.68,5.62 1.95,8.11 0.42,3.97 1.85,8.19 0.65,11.99 -0.95,3 -5.51,14.59 -5.51,14.59 0,0 -0.95,-10.92 -1.3,-13.62 -0.25,-1.89 -0.79,-4.44 -1.62,-6.16 -1.41,-2.95 -6.48,-8.75 -6.48,-8.75 0,0 4.23,7.73 5.19,11.35 0.85,3.21 1.14,7.71 0.97,11 -0.1,2.08 -0.16,5.07 -1.3,6.81 -1.61,2.46 -5.84,9.4 -5.84,9.4 0,0 -0.18,-11.1 0,-14.26 0.11,-1.95 0,-4.63 -0.65,-6.48 -1,-2.94 -5.51,-8.75 -5.51,-8.75 0,0 3.57,7.77 4.21,11.35 0.22,1.24 0.11,2.95 0,4.21 -0.29,3.25 -0.19,8.53 -1.95,10.7 -1.75,2.17 -4.86,9.1 -4.86,9.1 0,0 -1.92,-14.17 -2.59,-17.51 -0.91,-4.5 -3.21,-8.56 -5.84,-12.32 -0.59,-0.85 -2.59,-2.27 -2.59,-2.27 0,0 4.42,7.84 5.19,10.37 0.99,3.3 1.63,6.34 2.27,9.73 0.82,4.32 1.5,7.87 0,11.99 -0.8,2.2 -5.19,8.43 -5.19,8.43 0,0 -3.09,-12.61 -4.86,-16.53 -1.67,-3.69 -6.81,-11.67 -6.81,-11.67 0,0 4.31,9.61 5.51,13.94 0.95,3.42 3.2,8.35 1.95,11.67 -0.93,2.46 -5.84,8.75 -5.84,8.75 0,0 -2.97,-10.15 -4.21,-12.97 -2.25,-5.1 -9.1,-16.21 -9.1,-16.21 0,0 4.95,9.56 6.48,14.91 0.74,2.59 3,8.12 2.27,10.7 -0.81,2.77 -5.51,11 -5.51,11 0,0 -3.42,-13.85 -4.54,-18.1 -0.83,-3.19 -3.57,-10.37 -3.57,-10.37 0,0 2,9.73 2.59,13.94 0.44,3.19 2.28,7.75 0.97,10.7 -0.79,1.78 -3.88,2.45 -5.19,3.89 -1.9,2.11 -4.86,8.11 -4.86,8.11 0,0 -2.05,-31.37 2.27,-43.77 4.17,-11.96 13.56,-24.28 23.99,-33.1 8.98,-7.57 23.89,-17.41 35.66,-21.1 11.1,-3.45 39.2,-6.16 39.2,-6.16 z"
             inkscape:connector-curvature="0"
             style="fill:#ffd942;fill-opacity:1" />
        </g>
        <path
           id="path169"
           d="m 954.2,397.4 18,-5.62 c 0,0 13.52,-2.25 19.33,-1.82 5.3,0.39 17.2,4.24 17.2,4.24 l -12.17,2.93 19,1.19 c 0,0 6.52,2.08 9.1,3.52 4.53,2.59 13.67,10.76 13.67,10.76 l -10.3,0.28 c 0,0 11.96,4.4 16.1,7.81 5.23,4.28 13.63,17.95 13.63,17.95 l -7.64,-1.44 c 0,0 8.76,4.74 10.71,8.31 3.98,7.25 4.63,13.84 4.2,22.1 -0.14,2.65 -1.31,9.71 -3.66,15.1 -5.19,11.94 -14.73,25.62 -14.73,25.62 l -9.67,-54.1 -50.1,-38.75 -32.66,-18.1 z"
           inkscape:connector-curvature="0"
           style="fill:#ffd942;fill-opacity:1;stroke:#112b00;stroke-width:2" />
        <g
           id="g175"
           style="stroke-width:2.5">
          <path
             id="path171"
             d="m 957.1,395 c 0,0 0.22,12.89 2.34,17.87 0.84,1.97 4.4,9.47 4.4,9.47 0,0 1.06,-9.55 1.47,-11.98 0.33,-1.94 1.07,-6.47 1.07,-6.47 0,0 -0.28,6.82 0.18,9.73 0.36,2.26 0.96,4.4 1.53,6.18 0.78,2.42 3.77,8.16 3.77,8.16 0,0 0.66,-8.65 1.14,-11.33 0.42,-2.39 2.38,-7.75 2.38,-7.75 0,0 -0.97,8.58 -0.81,11 0.21,3.23 -0.17,3.57 1.2,6.5 0.76,1.62 4.08,9.14 4.08,9.14 0,0 1.2,-9 1.46,-11.33 0.35,-3.13 1.77,-10.35 1.77,-10.35 0,0 -0.44,8.87 -0.5,11.99 -0.05,2.83 -0.74,5.12 0.21,7.78 0.65,1.81 4.4,9.47 4.4,9.47 0,0 -0.17,-10.7 1.18,-14.57 0.68,-1.94 4,-9.67 4,-9.67 0,0 -1.76,5.59 -2.06,8.1 -0.48,3.96 -1.97,8.16 -0.82,11.98 0.91,3 5.3,14.67 5.3,14.67 0,0 1.1,-10.9 1.49,-13.6 0.27,-1.89 0.86,-4.43 1.71,-6.14 1.46,-2.93 6.61,-8.66 6.61,-8.66 0,0 -4.34,7.67 -5.35,11.27 -0.89,3.2 -1.25,7.69 -1.13,11 0.07,2.08 0.08,5.07 1.2,6.83 1.58,2.48 5.7,9.49 5.7,9.49 0,0 0.34,-11.1 0.21,-14.26 -0.08,-1.95 0.08,-4.63 0.74,-6.47 1.05,-2.92 5.64,-8.67 5.64,-8.67 0,0 -3.68,7.72 -4.38,11.28 -0.24,1.24 -0.16,2.95 -0.06,4.21 0.25,3.25 0.07,8.54 1.79,10.73 1.72,2.19 4.73,9.15 4.73,9.15 0,0 2.13,-14.1 2.85,-17.47 0.97,-4.48 3.33,-8.51 6,-12.23 0.6,-0.84 2.63,-2.23 2.63,-2.23 0,0 -4.54,7.78 -5.34,10.3 -1.04,3.29 -1.72,6.31 -2.41,9.69 -0.88,4.31 -1.61,7.84 -0.17,11.99 0.77,2.21 5.07,8.5 5.07,8.5 0,0 3.27,-12.56 5.1,-16.46 1.72,-3.67 6.97,-11.57 6.97,-11.57 0,0 -4.45,9.54 -5.71,13.86 -1,3.41 -3.32,8.31 -2.11,11.64 0.9,2.47 5.71,8.84 5.71,8.84 0,0 3.12,-10.1 4.4,-12.91 2.33,-5.06 9.31,-16.1 9.31,-16.1 0,0 -5.09,9.49 -6.7,14.82 -0.78,2.57 -4.05,10.25 -3.34,12.85 0.77,2.79 0.78,9.61 0.78,9.61 0,0 7.54,-13.8 8.71,-18.1 0.87,-3.17 5.29,-11 5.29,-11 0,0 -11.99,28.1 -10.72,31.1 0.76,1.79 1.22,5.07 2.5,6.53 1.87,2.13 2.23,9.99 2.23,9.99 0,0 8.49,-16.1 11.76,-30.82 2.23,-10.1 0.23,-18.79 -1.45,-23.85 -4,-12 -13.21,-24.47 -23.51,-33.41 -8.87,-7.7 -23.64,-17.75 -35.4,-21.58 -11,-3.61 -39.1,-6.72 -39.1,-6.72 z"
             inkscape:connector-curvature="0"
             style="fill:#ffd942;fill-opacity:1;stroke:#17280b" />
          <path
             id="path173"
             d="m 1141,361.5 c 0,0 -9.77,-27.6 -17.75,-37.46 -7.9,-9.76 -22.2,-17.45 -29.92,-27.34 -7.79,-9.95 -12.41,-27.87 -22.2,-35.86 -4.86,-3.97 -13.9,-9 -21.6,-10.34 -8.1,-1.38 -14.76,1.12 -14.76,1.12 0,0 17.26,7.46 22.2,15.75 4.92,8.29 3.66,20.1 8.14,28.69 5.48,10.45 17.72,23.87 24.29,33.67 8.49,12.67 18.4,47.3 18.4,47.3 l 33.2,-15.51 z"
             inkscape:connector-curvature="0"
             style="fill:url(#linearGradient1374);stroke:#554400" />
        </g>
        <g
           id="g199"
           style="stroke-width:2.5">
          <g
             id="g191"
             style="stroke:#554400">
            <path
               id="path177"
               d="m 1034,251 c 0,0 22.1,4.25 28.99,11.62 7.83,8.33 10.91,27.3 17.1,36.87 5.39,8.36 17.87,17.54 23.65,25.63 8.61,12.1 20,43.48 20,43.48"
               inkscape:connector-curvature="0"
               style="fill:none" />
            <path
               id="path179"
               d="m 1185,345.7 c 0,0 0.12,-29.3 -4.06,-41.2 -4.14,-11.86 -14.98,-23.92 -18.93,-35.84 -3.97,-12 -2.27,-30.42 -8.79,-41.2 -3.24,-5.38 -10,-13.2 -16.84,-17 -7.16,-4 -14.27,-3.93 -14.27,-3.93 0,0 13.72,12.85 15.55,22.31 1.83,9.47 -3.36,20.2 -2.03,29.75 1.63,11.69 8.62,28.45 11.5,39.9 3.71,14.79 1.35,50.72 1.35,50.72 l 36.51,-3.38 z"
               inkscape:connector-curvature="0"
               style="fill:url(#linearGradient1376)" />
            <path
               id="path181"
               d="m 1123,205.8 c 0,0 19.34,11.45 23.37,20.73 4.55,10.48 1.06,29.35 3.64,40.48 2.25,9.69 10.9,22.54 13.61,32.1 4,14.26 4.16,47.68 4.16,47.68"
               inkscape:connector-curvature="0"
               style="fill:none" />
            <path
               id="path183"
               d="m 1165,331.9 -81.47,-115.6 45.85,133.8 35.63,-18.19 z"
               inkscape:connector-curvature="0"
               style="fill:url(#linearGradient1378)" />
            <path
               id="path185"
               d="m 1086,220.7 61.39,120.2"
               inkscape:connector-curvature="0"
               style="fill:none" />
            <path
               id="path187"
               d="m 1121,358.9 -114.2,-83.39 86.3,112 27.92,-28.65 z"
               inkscape:connector-curvature="0"
               style="fill:url(#linearGradient1380)" />
            <path
               id="path189"
               d="m 1010,279 96.7,94.2"
               inkscape:connector-curvature="0"
               style="fill:none" />
          </g>
          <g
             id="g197"
             style="fill:#ffd942;fill-opacity:1;stroke:#222222">
            <path
               id="path193"
               d="m 837.5,647.4 c 0,0 6.73,-6.57 8.54,-10 1.41,-2.67 1.18,-9.42 1.18,-9.42 0,0 6.07,3.87 8.25,5.89 4.42,4.1 7.51,11.96 11.45,16.52 5.31,6.15 20.1,17.64 20.1,17.64 0,0 -15.73,6 -22.67,5.3 -7.27,-0.76 -17.3,-4.78 -22.1,-10.31 -3.2,-3.7 -4.71,-15.61 -4.71,-15.61 z"
               inkscape:connector-curvature="0"
               style="fill:#ffd942;fill-opacity:1" />
            <path
               id="path195"
               d="m 1101,799.6 c -6.11,4.35 -15.67,7.5 -22.91,9.45 -4.33,1.17 -11.54,-0.12 -14.6,3.15 -1.6,1.71 -1.84,5.49 -1.14,7.73 1,3.25 4.77,5.42 6.59,8.3 2.26,3.59 8.68,12.67 8.68,12.67 0,0 -21.52,-10.5 -26.72,-18.1 -2.43,-3.54 -3.21,-7.54 -2.29,-11.74 0.73,-3.33 4.37,-7.47 5.73,-10.6 1.34,-3.09 1.14,-14.79 1.14,-14.79 l 47.54,-11.84 5.14,19.2 c 0,0 -4.62,4.76 -7.16,6.59 z"
               inkscape:connector-curvature="0"
               style="fill:#ffd942;fill-opacity:1" />
          </g>
        </g>
      </g>
      <use
         id="use202"
         height="680"
         transform="matrix(-1,0,0,1,872.67904,3.6728749e-8)"
         xlink:href="#az"
         width="770"
         x="0"
         y="0"
         style="fill:#ffd942;fill-opacity:1"
         inkscape:export-xdpi="336.32999"
         inkscape:export-ydpi="336.32999" />
      <g
         id="g210"
         style="stroke:#554400;stroke-width:2.5"
         inkscape:export-xdpi="336.32999"
         inkscape:export-ydpi="336.32999"
         transform="translate(51.339518,-1.9014636)">
        <path
           id="path204"
           d="m 365,143.3 20,-140 20,140 z"
           inkscape:connector-curvature="0"
           style="fill:url(#ax)" />
        <path
           id="path206"
           d="m 385,8.27 v 135"
           inkscape:connector-curvature="0"
           style="fill:none" />
        <ellipse
           id="ellipse208"
           cx="385"
           cy="261.89999"
           ry="149.39999"
           rx="152.5"
           style="fill:url(#k)" />
      </g>
      <g
         id="g220"
         style="stroke:#222222"
         inkscape:export-xdpi="336.32999"
         inkscape:export-ydpi="336.32999"
         transform="translate(51.339518,-1.9014636)">
        <path
           id="path212"
           d="m 210,184.8 v 286.3 10.1 c 0,14.21 28.2,41.69 46.65,48.86 l 96.2,37.4 c 18.46,7.17 32.49,25.68 32.49,39.9 0,-14.21 8.57,-33.2 27.2,-39.9 l 104.4,-37.4 c 18.62,-6.66 43.1,-34.65 43.1,-48.86 v -12.79 -283.6 z"
           inkscape:connector-curvature="0"
           style="fill:#00ab68;fill-opacity:1;stroke-width:3.5" />
        <g
           id="g218"
           style="fill:#ffffff;fill-opacity:1;stroke-width:3">
          <path
             id="path214"
             d="m 258.8,298.6 c 2.35,-6.46 14.89,-16.5 20.55,-25.51 5.66,-9 6.21,-22.27 13.7,-32.1 7.49,-9.84 24.92,-21.44 39.3,-25.72 14.33,-4.28 42.96,-1.07 52.65,-3.58 9.69,-2.51 6.76,-0.6 12.32,-2.04 5.56,-1.44 12.25,-0.54 18.62,-1.72 6.37,-1.18 14.72,-4.93 20.47,-6.19 5.74,-1.26 15.92,-2.89 23.2,-1.35 7.28,1.54 19.62,7.31 25.72,13.54 3.81,3.89 5.17,11.51 8.69,15.67 9.41,11.1 30.44,12.61 35.81,26.1 6.41,16.1 -1.8,43.49 -7.96,59.72 -6.2,16.34 -22.1,34.38 -29.78,50.1 -4.4,9 -7.13,23.2 -14.48,29.98 -8.1,7.51 -23.91,5.56 -32.9,11.98 -4.49,3.21 -5.91,12.38 -10.83,14.89 -3.26,1.66 -8.83,-1.45 -12.18,0 -9.23,3.98 -14.33,17.56 -23,22.64 -2.89,1.69 -10.5,3.71 -13.7,2.71 -4.12,-1.29 -7.5,-5.84 -9.48,-9.68 -6.49,-12.61 -7.96,-45.4 -7.96,-45.4 0,0 -15.28,11.75 -21.49,17.97 -4.14,4.14 -9.61,11.18 -12.55,16.24 -4.1,7.1 -9.69,18 -9.69,18 0,0 -7.63,-4.9 -8.11,-12.1 -0.11,-1.64 -1.84,-4.53 -1.79,-7.74 0.11,-7.25 2.2,-16.2 2.2,-16.2 0,0 -7.71,15.6 -7.9,23.6 -0.19,7.84 4,16.65 8.85,22.83 5.2,6.66 11.22,12.94 18.61,17 7.32,4.06 15.1,7.97 23.31,9.63 2.12,0.43 9.17,1.83 15.77,1.81 7,-0.02 13.64,-1.48 16.1,-1.97 7.24,-1.46 13.26,-4.26 18.71,-6.61 6,-2.59 14,-6.52 18.95,-10.83 5,-4.38 8.8,-12.92 13.54,-17.6 2.89,-2.85 10.83,-8.12 10.83,-8.12 0,0 3.26,4.43 5.33,5.33 4.27,1.86 11.13,-1.02 15.5,0.57 1.85,0.67 5.17,4 5.17,4 0,0 -6.18,4.23 -8.61,6.32 -3.14,2.7 -6.87,6.79 -9.76,9.76 -6.29,6.46 -14.1,15.71 -20.67,21.82 -5.85,5.4 -13.77,12.69 -20.67,16.65 -8.79,5.1 -21.71,9.73 -31.58,12.1 -5.1,1.2 -12,1.53 -17.23,1.72 -6.37,0.23 -14.92,0.23 -21.25,-0.57 -9.12,-1.16 -22.62,-5.43 -31,-9.19 -7.89,-3.54 -15.9,-8.64 -22.39,-14.36 -4.11,-3.62 -11.17,-9.21 -16.1,-14.21 -5.43,-5.47 -7.96,-7.65 -11.67,-12.35 -5.54,-7 -9,-10.85 -12.16,-19.23 -2.05,-5.53 -1.24,-15.45 -2.53,-21.2 -0.36,-1.6 -2,-9.49 -2.3,-11.1 -1.63,-9.51 -2.84,-21.95 -2.3,-31.58 0.37,-6.59 0.94,-15.51 2.87,-21.82 0.56,-1.84 2.43,-3.87 2.87,-5.74 0.51,-2.18 0.61,-5.31 0,-7.46 -0.72,-2.53 -3.88,-4.94 -4.59,-7.46 -1.59,-5.64 0.21,-16.45 1.72,-21.25 1.51,-4.8 5.42,-6.2 6.32,-9.76 0.9,-3.56 -1.25,-4.49 1.11,-10.95 z"
             inkscape:connector-curvature="0"
             style="fill:#ffffff;fill-opacity:1" />
          <path
             id="path216"
             d="m 237.9,498 c 0,0 7.21,-0.69 10.65,-1.97 6.96,-2.6 15.21,-8.25 20.9,-13 4.69,-3.93 10.8,-9.36 14.99,-13.81 6.29,-6.67 14.18,-16.1 19.33,-23.67 4.1,-6.1 8.39,-14.85 11.83,-21.3 2.69,-5 9.1,-17 9.1,-17 0,0 -4,-7 -7.45,-8.28 -3.88,-1.44 -13.48,-0.9 -13.48,-0.9 0,0 -2.42,8.1 -5.13,15.1 -2.31,6 -5.8,13.93 -8.68,19.72 -2.71,5.46 -6.5,12.67 -9.86,17.75 -4.14,6.26 -10.59,13.95 -15.38,19.72 -4.34,5.22 -10.26,12.1 -14.99,16.96 -3.5,3.6 -11.83,10.65 -11.83,10.65 z"
             inkscape:connector-curvature="0"
             style="fill:#ffffff;fill-opacity:1" />
        </g>
      </g>
      <path
         id="path222"
         d="m 458.83952,474.39854 -2.91,1.97 c 0,0 0.7,1.04 1.47,2.34 0.77,1.31 1.56,2.98 1.69,3.56 0.15,0.66 0.14,2.66 0,4.28 -0.14,1.62 -0.34,2.97 -0.34,2.97 0,0 3,-1.37 3.16,-3.11 0.16,-1.75 0.99,-3.24 0.62,-4.89 -0.35,-1.57 -1.26,-3.18 -2.09,-4.59 -0.83,-1.41 -1.59,-2.53 -1.59,-2.53 z m -19.94,5.22 -1.5,3.16 c 0,0 0.95,0.46 2.03,1.09 1.08,0.63 2.32,1.61 2.47,1.81 0.05,0.06 0.5,1.22 0.72,2.19 0.21,0.97 0.34,1.81 0.34,1.81 0,0 1.66,-1.2 2.22,-2.69 0.48,-1.28 -0.08,-2.84 -0.47,-3.37 -0.94,-1.29 -2.28,-2.07 -3.5,-2.78 -1.22,-0.71 -2.31,-1.22 -2.31,-1.22 z m -39.75,-4.34 c 0,0 -0.79,0.5 -1.69,1.16 -0.89,0.66 -1.87,1.36 -2.59,2.41 -0.77,1.12 -1.92,4.62 -1.24,5.64 l 2.22,3.36 c 0,0 0.63,-3.38 0.92,-4.44 0.3,-1.06 0.81,-2.34 0.97,-2.56 0.11,-0.16 1.03,-1.01 1.81,-1.59 0.79,-0.58 1.47,-1.03 1.47,-1.03 l -1.88,-2.94 z m -13.28,-5.66 c 0,0 -2.18,1.31 -3.85,3.36 -1.4,1.71 -2.38,4.07 -2.06,5.29 l 0.73,2.79 c 0,0 1.68,-2.85 2.25,-3.56 1.19,-1.49 5.28,-5.28 5.28,-5.28 l -2.34,-2.59 z m -10,-7.66 c 0,0 -1.34,0.17 -2.91,0.47 -1.57,0.3 -3.3,0.61 -4.72,1.53 -1.51,0.99 -4.08,3.24 -3.63,4.94 l 1.28,4.73 c 0,0 0.68,-2.32 1.59,-3.64 0.91,-1.32 2.2,-2.8 2.66,-3.09 0.36,-0.23 2.05,-0.76 3.47,-1.03 1.42,-0.27 2.63,-0.41 2.63,-0.41 l -0.38,-3.5 z m -51.1,-19.61 c 0,0 -8.6,2.73 -11.84,3.16 -1.07,0.14 -4.94,0 -4.94,0 l -0.19,3.5 c 0,0 3.59,0.54 5.59,-0.03 4.24,-0.56 5.92,-0.89 7.98,-2.28 1.37,-0.92 3.39,-4.35 3.39,-4.35 z m -4.23,-15.31 c 0,0 -3.05,0.47 -4.27,0.94 -1.22,0.47 -2.77,0.91 -3.22,0.94 -0.67,0.04 -2.62,-0.31 -4.19,-0.72 -1.57,-0.41 -2.88,-0.81 -2.88,-0.81 l -1.09,3.31 c 0,0 1.4,0.47 3.09,0.91 1.69,0.44 3.56,0.91 5.25,0.81 1.47,-0.08 3.69,-0.46 4.54,-1.61 l 2.76,-3.76 z m -17.76,-16.2 -0.94,3.38 c 0,0 4.69,1.3 7.13,1.66 2.15,0.31 5.11,1.28 7.22,0.44 2.65,-0.14 2.79,-0.83 3.81,-1.52 1.09,-0.74 3,-3.17 3,-3.17 0,0 -5.25,1.09 -7,1.19 -1.86,0.1 -4.59,-0.12 -6.53,-0.41 -1.77,-0.26 -6.69,-1.56 -6.69,-1.56 z m -2.76,-15.96 -1.28,3.28 c 0,0 1.99,0.76 4.44,1.56 2.44,0.8 5.24,1.66 7.44,1.78 3,0.17 9.36,0.8 12,-1.8 l 4.64,-4.48 c 0,0 -2.94,0.8 -6.5,1.53 -3.56,0.74 -7.81,1.37 -9.97,1.25 -1.34,-0.08 -4.22,-0.82 -6.56,-1.59 -2.34,-0.77 -4.25,-1.53 -4.25,-1.53 z m 0.79,-14.59 -1.28,3.28 c 0,0 1.12,0.45 2.53,0.94 1.41,0.49 3,1 4.34,1.19 1.84,0.24 4.37,0.12 6.56,-0.03 2.2,-0.15 5.22,-3.84 5.22,-3.84 0,0 -3.35,0.2 -5.47,0.34 -2.12,0.14 -4.67,0.22 -5.84,0.06 -0.68,-0.09 -2.33,-0.57 -3.66,-1.03 -1.33,-0.46 -2.41,-0.91 -2.41,-0.91 z m 1.37,-17.98 -1.53,3.16 c 0,0 1.9,0.93 4.25,1.91 2.35,0.98 5,2.04 7.22,2.31 3.29,0.41 8.26,0.66 12.16,-0.75 0,0 2.32,-0.61 3.17,-1.15 1.28,-0.81 3.58,-3.57 3.58,-3.57 0,0 -3.29,0.66 -7.28,1.25 -4,0.59 -8.78,1.05 -11.19,0.75 -1.3,-0.16 -4.06,-1.13 -6.31,-2.06 -2.25,-0.94 -4.06,-1.84 -4.06,-1.84 z m 4.33,-15.34 -1.22,3.28 c 0,0 4.27,2.21 6.78,2.09 0,0 2.39,0.16 3.34,-0.16 1.48,-0.49 4.29,-2.91 4.29,-2.91 0,0 -5.32,-0.07 -7,-0.38 -1.53,-0.28 -6.19,-1.94 -6.19,-1.94 z m 87.1,-72.85 c 0,0 -2.11,6.3 -6.14,8.88 -1.3,0.83 -3.19,0.89 -5.5,0.75 -2.31,-0.14 -4.96,-0.48 -7.56,0.53 -3.34,1.29 -7.39,4.84 -7.65,7.93 l -0.41,4.88 c 0,0 1.08,-1.94 2.84,-4.13 1.76,-2.19 4.21,-4.53 6.47,-5.41 1.54,-0.59 3.69,-0.46 6.09,-0.31 2.4,0.15 5.96,1.11 7.59,-1.28 l 3.59,-5.26 0.68,-6.59 z m 103.5,-46.84 c -2.16,0.13 -4.29,0.67 -5.91,1.25 -4.54,1.64 -8.1,5.56 -11.47,9.28 -3.41,3.72 -6.72,7.21 -10,8.5 -3.04,1.18 -7.28,1.19 -11.72,0.97 -4.44,-0.22 -9.1,-0.64 -13.16,0.19 -1.75,0.36 -4.12,0.71 -6.44,1.38 -2.32,0.67 -4.65,1.6 -6.22,3.53 -3.44,4.24 -4.28,11.7 -4.66,18.31 -0.38,6.61 -0.03,12.31 -0.03,12.31 0,0 3.17,-5.75 3.53,-12.1 0.36,-6.38 1.69,-13.62 3.88,-16.31 0.78,-0.96 2.46,-1.8 4.47,-2.38 2,-0.58 4.29,-0.93 6.19,-1.31 3.31,-0.68 7.73,-0.32 12.25,-0.09 4.52,0.23 9.15,0.33 13.16,-1.22 4.48,-1.74 7.97,-5.7 11.38,-9.41 3.4,-3.71 6.74,-7.15 10.1,-8.34 1.32,-0.48 3.2,-0.93 4.91,-1.03 1.71,-0.1 3.16,0.22 3.81,0.75 0.16,0.13 0.38,0.51 0.47,1.38 0.08,0.86 10e-4,2.05 -0.06,3.28 -0.061,1.23 -0.15,2.5 0.06,3.78 0.21,1.28 0.92,2.77 2.38,3.44 2.09,0.96 4.31,0.43 6.13,-0.59 1.82,-1.02 3.44,-2.52 5.06,-4 1.62,-1.48 3.21,-3 4.69,-4.09 1.48,-1.09 2.74,-1.62 3.75,-1.56 0.97,0.05 2.55,0.63 3.84,1.5 1.29,0.87 2.28,2.04 2.56,2.84 0.39,1.13 0.31,2.49 -0.25,4.13 -0.56,1.64 -1.57,3.49 -2.63,5.41 -2.12,3.83 -4.76,7.94 -3.94,12.31 1.09,5.77 5.9,10.1 10.5,14.28 4.6,4.17 9.1,8.23 10.44,12.31 0.73,2.2 0.13,5.65 -0.56,9.31 -0.7,3.66 -1.51,7.56 0,11.1 1.17,2.71 3.79,4.05 6,5.38 2.21,1.33 3.98,2.61 4.38,3.72 0.25,0.69 0.04,3.43 -0.53,5.69 l 1.97,5.38 c 0,0 0.78,-2.03 1.41,-4.5 0.63,-2.47 1.35,-5.25 0.47,-7.72 -1,-2.82 -3.64,-4.23 -5.88,-5.56 -2.24,-1.33 -4.11,-2.63 -4.59,-3.75 -0.9,-2.08 -0.47,-5.41 0.22,-9 0.69,-3.59 1.62,-7.5 0.44,-11.1 -1.82,-5.49 -6.84,-9.67 -11.41,-13.81 -4.56,-4.14 -8.59,-8.2 -9.38,-12.34 -0.46,-2.43 1.39,-6.1 3.53,-9.97 1.07,-1.94 2.18,-3.92 2.88,-5.97 0.7,-2.05 0.99,-4.24 0.25,-6.38 -0.68,-1.95 -2.18,-3.46 -3.91,-4.63 -1.73,-1.17 -3.69,-1.96 -5.63,-2.06 -2.24,-0.12 -4.22,0.9 -6,2.19 -1.78,1.29 -3.42,2.9 -5,4.38 -1.58,1.48 -3.12,2.8 -4.41,3.53 -1.29,0.73 -2.1,0.87 -2.97,0.47 -0.17,-0.08 -0.23,-0.12 -0.34,-0.81 -0.12,-0.7 -0.1,-1.82 -0.03,-3 0.07,-1.21 0.16,-2.51 0.03,-3.81 -0.13,-1.3 -0.49,-2.76 -1.72,-3.75 -1.78,-1.44 -4.06,-1.66 -6.22,-1.53 z m -84.7,67.4 c 0,0 -1.31,7.29 -1.4,14.96 -0.06,4.96 1.03,10.1 1.19,13.47 0.24,5.15 2.1,12.35 3.97,19.56 1.87,7.22 3.76,14.44 4.13,18.91 0.88,10.85 -2.5,30.91 -2.5,30.91 l 3.44,0.59 c 0,0 3.52,-19.9 2.56,-31.78 -0.41,-5.1 -2.35,-12.29 -4.22,-19.5 -1.87,-7.2 -3.36,-14.44 -3.88,-18.84 l -1.55,-13.31 z m -43.65,56.1 c -2.84,5.62 -6.32,12.34 -8.63,16.23 -2.05,3.47 -5.97,8.59 -7.28,13.25 -0.78,2.78 -0.59,6.57 -0.34,9.88 0.25,3.31 0.66,6 0.66,6 l 0.22,1.66 1.66,-0.16 c 0,0 2.26,-0.24 4.94,-0.31 2.68,-0.07 5.88,0.13 7.16,0.56 1.65,0.56 4.17,2.39 5.28,3.81 0.17,0.22 0.73,1.46 1.09,2.5 0.36,1.04 0.63,1.94 0.63,1.94 l 0.28,1.13 1.19,0.16 c 0,0 1.27,0.12 2.78,0.19 1.51,0.07 3.18,0.16 4.66,-0.25 2.37,-0.66 4.22,-2.39 5.53,-3.25 2.44,-1.59 5.97,-3.63 8.38,-5.94 1.84,-1.76 3.78,-4.28 5,-6.47 2.71,-4.73 3.89,-11.4 6.1,-15.19 0.52,-0.92 1.63,-2.1 2.78,-3.34 1.15,-1.25 2.38,-2.57 3.06,-4.31 0.61,-1.55 0.71,-3.4 0.78,-5.06 0.07,-1.66 -1.27,-3.55 -1.27,-3.55 0,0 -2.17,1.86 -2.23,3.39 -0.06,1.53 -0.32,3.4 -0.53,3.94 -0.35,0.88 -1.27,2 -2.38,3.22 -1.11,1.22 -2.38,2.44 -3.25,3.97 -2.7,4.73 -3.92,11.4 -6.09,15.19 -1.04,1.82 -2.91,4.26 -4.41,5.69 -1.9,1.81 -5.29,3.87 -7.84,5.53 -1.66,1.08 -3.51,2.52 -4.56,2.81 -0.48,0.13 -2.18,0.22 -3.56,0.16 -0.77,-0.04 -0.94,-0.08 -1.41,-0.13 -0.11,-0.38 -0.13,-0.44 -0.31,-0.97 -0.4,-1.17 -0.82,-2.43 -1.66,-3.5 -1.66,-2.12 -4.3,-4.09 -6.91,-4.97 -2.37,-0.8 -5.55,-0.82 -8.38,-0.75 -1.9,0.05 -2.57,0.15 -3.47,0.22 -0.13,-0.93 -0.27,-1.9 -0.44,-4.19 -0.24,-3.16 -0.23,-6.98 0.25,-8.69 0.97,-3.45 4.67,-8.62 6.91,-12.41 2.49,-4.21 6.75,-11 9,-17 l 4.17,-10.89 c 0,0 -6.46,7.69 -7.58,9.92 z m 66.6,-142.6 c 0,0 -4.73,3.19 -6.84,5.28 -7.34,7.23 -17.78,17.3 -21.75,27.53 -1.39,3.6 -2.84,9.17 -1.75,13.81 l 2.12,8.99 c 0,0 1.3,-4.31 1.38,-8.93 0.08,-4.62 0.55,-10.1 1.53,-12.59 3.48,-8.98 13.57,-19.1 20.91,-26.31 1.44,-1.42 6.38,-4.88 6.38,-4.88 l -1.97,-2.91 z m -90.9,96.7 c -1.92,0.41 -3.77,1.15 -5.27,2.04 -1.88,1.11 -2.2,2.49 -3.32,4.11 -1.12,1.63 -0.52,4.12 -1.4,5 -2.33,2.41 -4.8,3.55 -4.9,3.72 0,0 -3.69,4.37 -3.69,4.37 0.05,-0.04 2.09,0.21 3.73,-0.78 1.68,-1 4,-1.31 4.25,-1.28 0.001,0 0.57,0.29 1.25,1.06 0.69,0.77 1.4,1.85 2.68,2.67 1.81,1.16 2.97,1.93 5.31,2.52 1.87,0.47 4.56,1.19 7.16,0.31 3.13,-1.06 5.13,-2.41 6.67,-4.3 1.06,-1.31 1.5,-2.8 1.99,-4 0.49,-1.21 1.04,-2.08 1.36,-2.33 0.4,-0.3 1.98,-2.1 3.85,-2.43 1.87,-0.33 3.36,-0.03 3.36,-0.03 0,0 -1.48,-3.47 -3.69,-3.72 -2.35,-0.27 -5.15,-0.79 -6.19,-1.25 -0.61,-0.27 -1.69,-1.3 -2.84,-2.51 -1.15,-1.21 -2.44,-2.69 -4.53,-3.2 -1.87,-0.46 -3.86,-0.37 -5.79,0.03 z m 157.8,136.8 c 0,0 -1.59,1.15 -2.1,2.72 -0.58,1.78 -0.07,4 0.43,4.71 0.94,1.26 1.48,1.54 3.14,2.3 3.34,1.52 7.96,0.28 10.48,-0.21 3.25,-0.43 4.52,-1.42 5.95,-2.15 1.48,-0.77 4.23,-3.25 4.23,-3.25 0,0 -7.72,0.5 -9.96,0.79 -2.76,0.37 -5.8,0.25 -7.33,-0.45 -0.19,-0.09 -2.06,-0.63 -2.89,-1.74 -0.82,-1.1 -1.94,-2.73 -1.94,-2.73 z"
         inkscape:connector-curvature="0"
         style="fill:#222222"
         inkscape:export-xdpi="336.32999"
         inkscape:export-ydpi="336.32999" />
      <path
         id="path224"
         d="m 350.33952,311.39854 2.79,2.09 c 0,0 1.04,1.68 1.49,3.48 0.4,1.59 0.58,3.95 -0.51,5.44 -0.88,1.2 -1.84,2.59 -3.31,2.79 -0.92,0.12 -3.69,0.46 -4.49,0.23 -0.8,-0.22 -1.4,-0.49 -1.4,-0.49 l -3.05,-2.56 3.13,1.08 c 0,0 0.95,-0.19 1.87,-0.53 0.92,-0.34 3,-1.4 3.51,-1.94 0.27,-0.3 0.69,-1.13 1.02,-1.97 0.33,-0.84 0.62,-1.71 0.71,-2.19 0.19,-1.02 -0.13,-2.61 -0.13,-2.61 l -1.7,-2.8 z"
         inkscape:connector-curvature="0"
         style="fill:#ffffff"
         inkscape:export-xdpi="336.32999"
         inkscape:export-ydpi="336.32999" />
      <g
         id="g232"
         style="stroke:#222222;stroke-width:2.5"
         inkscape:export-xdpi="336.32999"
         inkscape:export-ydpi="336.32999"
         transform="translate(51.339518,-1.9014636)">
        <path
           id="path226"
           d="m 30.74,451.7 c 0,0 -3.28,11.32 2.65,16.1 13.64,10.91 34.3,7.29 57.77,6.67 17.1,-0.45 40.57,4.42 52.88,7.7 27.54,7.33 70.4,39.77 105.1,59.5 24.85,14.16 41.3,9.6 50.4,12.93 2.44,0.89 1.64,-10e-4 3.56,3 7.33,11.47 -6.66,44.88 -6.66,44.88 0,0 -55.81,0.48 -91.5,-20.73 -14.9,-8.9 -28.8,-22.3 -41.7,-31.2 -14.2,-9.9 -30.6,-15 -42.5,-18.9 -16.6,-5.4 -47.71,-2.3 -66.9,-8.9 -3.8,-1.3 -7.1,-11.9 -9.64,-16.5 -3.16,-5.6 -10.5,-13.3 -15.38,-20.7 -6.93,-10.44 -6.65,-20.78 -6.34,-22.94 0.8,-5.59 8.31,-10.96 8.31,-10.96 z"
           inkscape:connector-curvature="0"
           style="fill:#ffd942;fill-opacity:1" />
        <path
           id="path228"
           d="m 473.1,602 c 0,0 4.61,4.77 7.16,6.59 6.11,4.35 15.67,7.5 22.91,9.45 4.33,1.17 11.54,-0.12 14.6,3.15 1.6,1.71 1.84,5.49 1.14,7.73 -1,3.25 -4.77,5.42 -6.59,8.3 -2.26,3.59 -8.88,13.17 -8.88,13.17 0,0 21.72,-11 26.92,-18.61 2.43,-3.54 3.21,-7.54 2.29,-11.74 -0.73,-3.33 -4.37,-7.47 -5.73,-10.6 -1.34,-3.09 -1.14,-13.58 -1.14,-13.58 l -47.54,-13 -5.15,19.2 z"
           inkscape:connector-curvature="0"
           style="fill:#ffd942;fill-opacity:1" />
        <path
           id="path230"
           d="m 739.3,451.7 c 0,0 3.28,11.32 -2.65,16.1 -13.64,10.91 -34.3,7.29 -57.77,6.67 -17.1,-0.45 -40.57,4.42 -52.88,7.7 -27.54,7.33 -70.4,39.77 -105.1,59.5 -25.1,14.28 -40.85,9.11 -49.93,12.64 -2.34,0.91 -2.2,0.36 -4.06,3.28 -7.11,11.19 6.66,43.68 6.66,43.68 0,0 55.81,1.69 91.5,-19.52 14.94,-8.88 28.82,-22.29 41.72,-31.2 14.23,-9.85 30.6,-14.97 42.56,-18.88 16.54,-5.39 47.67,-2.29 66.86,-8.86 3.8,-1.3 7.1,-11.91 9.64,-16.5 3.16,-5.61 10.5,-13.31 15.38,-20.66 6.93,-10.44 6.65,-20.78 6.34,-22.94 -0.8,-5.59 -8.31,-10.96 -8.31,-10.96 z"
           inkscape:connector-curvature="0"
           style="fill:#ffd942;fill-opacity:1" />
      </g>
      <path
         id="path234"
         d="m 712.33952,512.09854 c 1.2,-1.4 0.9,-3.3 -1.7,-11.4 -2.4,-7.7 -3.5,-9.8 -4.8,-9.9 -4.4,-0.3 -1.7,-2.4 6.2,-4.5 8.5,-2.3 8.6,-2.3 9.8,0.5 1.5,3.3 -0.1,4.5 -1.9,1.5 -0.9,-1.5 -2.1,-1.7 -4.9,-0.8 -3.6,1.1 -3.7,1.3 -2.3,5.5 1.2,3.9 1.6,4.3 3.9,3.6 1.5,-0.5 2.4,-1.6 2.4,-2.8 -0.1,-1.1 0.6,0.1 1.5,2.8 1.3,3.8 1.3,4.5 0,3.3 -0.9,-0.9 -2.6,-1.3 -3.7,-0.9 -1.8,0.6 -1.8,1.2 -0.1,5.7 1.8,4.7 2.1,5 5.1,4.5 2.5,-0.5 3.5,-1.5 4.9,-5.1 l 1.7,-4.5 1.3,4 1.3,4 -10,3.1 c -7.3,2.3 -9.6,2.7 -8.6,1.5 z m -27.6,7 c 1.3,-1.4 1.1,-3.3 -1.3,-12 -2.3,-8.5 -3.1,-10.3 -4.4,-10 -0.9,0.2 -1.7,-0.1 -1.9,-0.7 -0.5,-1.7 11.8,-4.6 15.8,-3.6 4.6,1.1 6.2,6.2 3.2,9.8 l -2.1,2.5 3.9,3.2 c 2.1,1.7 5.5,3.7 7.5,4.3 l 3.7,1.2 -3.8,1 c -3.3,0.9 -4.6,0.4 -9.6,-3.3 -3.2,-2.4 -6.2,-4.2 -6.8,-4.1 -0.5,0.1 -0.4,2.2 0.3,4.7 1,3.6 1.7,4.5 3.8,4.8 2,0.3 1.1,0.8 -3.6,2.1 -4.7,1.3 -5.8,1.3 -4.7,0.1 z m 8.4,-16.6 c 2.1,-4 -1.6,-8.8 -5.9,-7.6 -2.1,0.6 -2.2,1.2 -1.1,5.6 1.2,4.4 1.6,4.9 3.7,4.3 1.3,-0.4 2.8,-1.4 3.3,-2.3 z m -17.5,24.4 c 1,-1.6 0.5,-3.4 -3.4,-11.6 -3.8,-8 -4.9,-9.6 -6,-9 -0.8,0.4 -1.7,0.2 -1.9,-0.3 -0.3,-0.6 1.7,-2.1 4.4,-3.3 2.7,-1.2 5.1,-1.8 5.3,-1.3 0.3,0.6 -0.2,1.3 -1,1.7 -1.2,0.6 -0.6,2.5 3.1,10.4 3.9,8.2 4.9,9.8 6.8,10 1.7,0.2 0.9,0.8 -3.1,2.8 -4,2 -5.1,2.1 -4.1,0.7 z m -19,9.2 c -4.6,0.9 -8.2,-0.4 -11.6,-4.1 -8,-8.6 -2,-22.7 9.7,-22.6 5.2,0 8.6,2.2 11.4,7.5 3.1,5.8 2.7,10.8 -1.4,14.9 -3.4,3.4 -3.8,3.6 -8,4.4 z m 7.5,-8.5 c 0.8,-2.9 0.4,-4.7 -1.7,-8.6 -3.6,-6.6 -8.1,-8.8 -12.9,-6.1 -1.9,1 -3.7,2.5 -4.1,3.2 -1.2,2.5 -0.4,6.9 2.1,11.5 3.1,5.7 8.2,7.9 12.7,5.4 1.8,-1 3.3,-3 3.9,-5.3 z m -47,3.5 c 2.8,-1.9 4.9,-2.5 5.1,-2.1 0.3,0.5 -0.1,1.3 -0.8,1.7 -0.8,0.5 -1.3,1 -1.2,1.2 l 16.3,12 -1,-6.6 c -1.2,-8.2 -2.9,-13 -4.3,-12 -0.6,0.3 -1.3,0.2 -1.6,-0.3 -0.3,-0.5 0.9,-1.9 2.6,-2.9 3.4,-2.1 4.3,-1.8 3.4,1.1 -0.1,0.4 -1,0.4 -0.9,1.9 0.2,2.7 1.6,7.9 2.4,12.3 1.2,6.8 1.8,12.5 1.5,12.8 -0.3,0.2 -20.4,-15.7 -22,-16 -0.3,0 -1.6,0.9 -2.3,0.9 -0.3,0 -1,-0.3 -0.3,-1.2 0.6,-0.8 2.5,-2.3 3.1,-2.6 z m -6.9,4.3 1,-0.5 c 2.6,-1.1 0.2,1.6 0.2,1.6 l -0.6,1 4.8,9.4 c 4.6,9 4.9,9.4 7.4,9.2 2,-0.2 1.3,0.4 -3,2.8 -1.3,0.7 -3.6,2.1 -4.4,2.4 -1.1,0.5 -0.3,-0.3 0.1,-0.7 1.2,-1.2 0.7,-2.7 -4,-11.3 -4.4,-8.2 -5.7,-9.8 -6.8,-9.1 -0.8,0.4 -1.6,0.3 -1.9,-0.2 -0.3,-0.5 2.5,-1.8 7.3,-4.6 z m -9,14.4 c 1.3,-2.3 0,-5.1 -1.9,-4 -1.5,0.8 -3.3,-1.5 -2.4,-3.1 0.6,-1.2 5,-0.1 5.8,1.5 1.2,2.1 0.6,6 -0.9,6.8 -1.5,0.8 -1.6,0.7 -0.5,-1.1 z m -17.8,27.9 c 1.5,-2.8 -8.4,-21.3 -10.7,-20 -0.8,0.4 -1.5,0.2 -1.4,-0.5 0.1,-2 10.7,-7.4 15.2,-7.8 5.4,-0.4 9,1.8 12,7.4 1.9,3.5 2.4,5.7 1.8,8.8 -0.7,3.8 -1.2,4.3 -9.4,9.1 -6.5,3.8 -8.4,4.6 -7.6,3.1 z m 13.4,-11.3 c 0.7,-4.4 -3.7,-12 -8.1,-14 -2.6,-1.2 -4.2,-1.1 -7.1,0.5 l -3.7,2 5.1,9.3 c 2.8,5.1 5.6,9.5 6.2,9.7 2,0.7 7.1,-4.3 7.6,-7.4 z m -98,83 c 1.4,-1.2 1.5,-3.1 0.2,-12 -1.3,-9.3 -1.7,-10.6 -3.3,-10.4 -1.3,0.2 -1.5,-0.2 -0.9,-1.1 0.5,-0.8 4.3,-1.7 8.9,-2.1 l 7.9,-0.7 0.7,3.3 0.7,3.3 -2.1,-2.3 c -1.4,-1.6 -3.2,-2.2 -5.7,-1.8 -3.5,0.5 -3.6,0.6 -3,5 0.6,4 0.9,4.5 3.2,4.2 1.6,-0.2 2.7,-1.2 2.8,-2.4 0.1,-1.1 0.5,0.2 0.9,3 0.4,2.8 0.4,4.2 -0.1,3.2 -0.5,-1.2 -1.8,-1.8 -3.4,-1.5 -2.5,0.3 -2.6,0.7 -1.6,5.7 1,4.8 1.3,5.3 4,5.3 3.5,-0.1 7,-2.5 6.7,-4.7 -0.1,-0.9 0.2,-2 0.8,-2.4 0.6,-0.5 1.2,0.8 1.5,3.2 l 0.6,4 -10.4,1.4 c -7.6,1 -9.9,1 -8.7,0 z m -21.7,2.9 c 2.2,-1.1 2.3,-1.9 1.6,-12 l -0.8,-10.8 -3.2,0.2 c -2,0.1 -3.7,1.2 -4.6,2.9 -1.5,2.6 -1.5,2.6 -1.7,-1 l -0.3,-3.7 11.8,-0.8 11.8,-0.8 0.2,3.7 c 0.2,3.5 0.1,3.6 -1.2,1.2 -1,-1.8 -2.3,-2.4 -4.9,-2.2 l -3.6,0.3 0.8,10.8 c 0.7,10.2 0.9,10.9 3.3,11.7 1.9,0.6 0.7,1 -4.5,1.4 -5.2,0.4 -6.4,0.2 -4.6,-0.7 z m -27,2.3 c -7,-2.7 -9.7,-6.5 -9.7,-13.9 0,-11.5 14.4,-17 22.7,-8.6 7.7,7.9 3.2,21 -7.8,22.7 -2,0.3 -4.3,0.2 -5.2,-0.1 z m 9.6,-4.6 c 3.6,-4.8 2.7,-16 -1.4,-18.9 -0.6,-0.5 -2.9,-0.8 -5,-0.9 -5.8,0 -8,3.2 -8,11.6 0,5.8 0.4,7.1 2.5,9 3.8,3.2 9.2,2.8 11.9,-0.8 z m -10.7,-23.6 c 0,-1.7 3.5,-6.4 4.8,-6.4 0.7,0 1.9,1.3 2.6,2.9 1,2.4 1.9,3.9 1.5,4 -0.3,0.1 -1.4,-0.8 -2.4,-1.7 -1.2,-1.1 -1.7,-2.7 -2.4,-2.5 -0.5,0.1 -1,1.7 -1.9,2.5 -1.2,1.1 -2.1,1.7 -2.1,1.3 z m -26,28.5 c -5.9,-2.1 -9.7,-7 -9.7,-12.9 0,-9.8 11,-17 17.9,-12 1.8,1.3 2.4,1.4 2.8,0.3 0.9,-2.8 2,0.1 1.6,4.4 -0.3,3.6 -0.5,4 -1.3,2.1 -1.9,-4.6 -4.1,-6.3 -8.2,-6.3 -5.3,0 -7.4,3.1 -7.4,10.9 0,4.2 0.6,6.7 2.2,8.9 3.8,5.1 10.6,3.6 13.3,-3 l 1.5,-3.7 v 5.7 c 0,3.3 -0.3,5.1 -0.8,4.2 -0.7,-1.2 -1.7,-1.1 -4.8,0.3 -4.1,1.8 -4.6,1.9 -7.2,1 z m -43,-4.9 c 1.6,-0.9 2.1,-2.7 2.6,-11.8 0.6,-9.3 0.4,-10.8 -1.1,-10.9 -1.3,-0.1 -1.5,-0.5 -0.6,-1.2 0.7,-0.6 4.6,-0.8 9.1,-0.3 l 7.9,0.8 0.1,3.4 0.1,3.4 -1.6,-2.7 c -1.1,-1.9 -2.7,-2.7 -5.3,-2.9 -3.6,-0.2 -3.7,-0.1 -4,4.3 -0.3,4.1 0,4.6 2.4,4.7 1.7,0.1 2.7,-0.5 2.8,-1.6 0.1,-1 0.6,-1.4 1.1,-1 0.6,0.4 0.9,2.5 0.8,4.7 -0.1,2.2 -0.7,3.9 -1.3,3.8 -0.6,0 -1,-0.8 -1,-1.8 0.1,-1.1 -0.9,-1.8 -2.6,-1.9 -2.6,-0.2 -2.7,0.1 -2.8,5.2 0,4.2 0.4,5.5 1.9,5.9 3.5,0.9 7.1,-0.5 8.9,-3.5 l 1.8,-3 -0.2,4.3 -0.2,4.3 -10.4,-0.7 c -7.6,-0.5 -9.9,-1 -8.5,-1.7 z m -29,-4.5 c 4,-0.5 7.3,-22.3 3.5,-22.9 -1.5,-0.3 -1.5,-0.4 0,-1.1 2.6,-1.3 12.5,0.5 16,2.9 6,3.9 7.8,10.5 4.7,17 -3.1,6.4 -6.6,7.6 -17,5.8 -5,-0.8 -8.3,-1.6 -7.3,-1.8 z m 16.5,-0.2 c 2.7,-1.6 3.3,-2.8 4.1,-7.9 1.2,-8 -0.9,-12.3 -6.8,-13.2 l -4.2,-0.6 -1.4,9.5 c -0.8,5.2 -1.3,10.3 -1.1,11.4 0.5,2.7 5.6,3.1 9.4,0.9 z m -56.6,-65 c 1.8,-0.6 2.5,-2.4 4.5,-11.2 1.4,-6.3 1.9,-10.6 1.3,-10.7 -0.6,-0.1 -0.9,-0.8 -0.8,-1.4 0.2,-0.7 3.2,-0.4 8.2,1 7.7,2.1 8,2.2 8,5.4 0.1,3.8 -1,4 -2.1,0.4 -0.6,-1.7 -1.9,-2.8 -4.5,-3.3 -3.6,-0.8 -3.7,-0.7 -4.7,3.6 -0.9,4 -0.7,4.5 1.6,5 1.7,0.4 2.8,0 3,-1.1 0.2,-1 0.8,-1.3 1.3,-0.8 0.5,0.5 0.5,2.6 0,4.7 -0.5,2.1 -1.3,3.7 -1.9,3.6 -0.6,-0.1 -0.9,-1 -0.7,-1.9 0.2,-1 -0.6,-1.9 -2.3,-2.3 -2.5,-0.6 -2.7,-0.3 -3.5,4.7 -0.8,5.1 -0.7,5.4 2.4,6.4 3.2,1.1 7.2,-0.5 9.1,-3.7 1.5,-2.5 1.7,-0.2 0.4,3.4 l -1.3,3.5 -10,-2.3 c -7.4,-1.7 -9.5,-2.5 -8,-3 z m -23.5,-7.5 c -3.1,-3.5 -3,-5 1,-14.7 2.9,-7 3.1,-8 1.5,-9.3 -1,-0.8 -1.3,-1.7 -0.8,-2.1 1.3,-1 10.8,3.1 10.3,4.4 -0.2,0.6 -1.1,0.8 -1.9,0.4 -1.2,-0.5 -2.2,1.1 -5.4,8.8 -3.5,8.5 -3.8,9.6 -2.3,11.5 2.1,2.8 8.4,3.9 10.7,1.9 1,-0.9 3.2,-4.9 4.9,-9 2.4,-5.7 2.8,-7.8 1.9,-8.7 -2.2,-2.2 -0.5,-3.1 3,-1.7 3.8,1.6 4,2.2 0.8,3.6 -1.5,0.7 -3.1,3.3 -5.6,9.3 -3.1,7.5 -3.7,8.4 -6.4,8.9 -4.4,0.9 -8.9,-0.4 -11.7,-3.5 z m -18.7,-0.2 c -2.9,-3.4 -4.4,-4.4 -6.2,-4.2 -1.3,0.2 -2.8,-0.1 -3.3,-0.6 -0.6,-0.5 0.6,-1.1 2.7,-1.3 3.3,-0.4 3.5,-0.6 2,-1.9 -4.1,-3.6 -5.6,-6.4 -5.8,-11 -0.2,-4.4 0.1,-5.2 3,-8.6 5.7,-6.6 15.6,-6.7 20.9,-0.1 3.2,4.1 3.6,8 1.3,13.7 -1.7,4.1 -2.8,5.3 -6.5,6.9 -2.4,1.1 -5,1.7 -5.8,1.4 -0.7,-0.3 -1.8,-0.2 -2.3,0.1 -0.5,0.4 1.7,2.8 4.8,5.3 4.6,3.6 6.3,4.5 8.2,4.1 3.1,-0.6 2.4,1 -0.9,2.3 -3.4,1.3 -7.5,-0.7 -12,-6.1 z m 4.1,-8.5 c 2.3,-0.7 3.7,-2.3 5.9,-6.5 3.7,-7.3 2.8,-12.3 -2.7,-14.6 -2,-0.8 -4.3,-1.4 -5.1,-1.2 -4.9,1.1 -10,11 -8.6,16.9 1.1,4.4 5.9,6.9 10.5,5.4 z m -29,-12 c 1.9,0 3.1,-1.5 7.7,-9.3 4.5,-7.6 5.2,-9.4 4.1,-10 -0.8,-0.4 -1.1,-1.3 -0.8,-1.8 0.3,-0.5 2.7,0.2 5.2,1.7 2.5,1.5 4.4,3.2 4.1,3.7 -0.3,0.5 -1.2,0.6 -2,0.2 -1.1,-0.7 -2.4,0.9 -6.8,8.5 -4.6,7.8 -5.3,9.6 -4.4,11.2 0.8,1.5 -0.2,1.3 -4.1,-1 -3.9,-2.3 -4.6,-3 -2.9,-3 z m -21,-11.8 c 2.4,0.6 3,0.1 8.8,-7.7 5.6,-7.5 6.1,-8.5 4.8,-10 -0.7,-1 -0.9,-2 -0.3,-2.2 1.5,-0.6 9.7,5.7 8.9,6.8 -0.4,0.5 -1.3,0.5 -2,0 -1.1,-0.8 -2.5,0.7 -8.1,8.2 l -6.8,9.1 3,2.2 c 2.9,2.2 3.9,2.2 9.1,0.4 2.4,-0.9 2.4,-0.7 0.1,2.5 l -2.5,3.4 -8.8,-6.6 c -6.1,-4.6 -8,-6.5 -6.2,-6 z m -19.4,-13.5 c 2.4,0.5 3,0 8.7,-7.8 5.5,-7.6 6,-8.6 4.7,-10.1 -2.4,-3 0.6,-2.8 4.9,0.3 6,4.3 8.4,8.4 7,11.8 -0.9,2.1 -1.9,2.8 -4.2,3 l -3,0.3 1.1,3.1 c 0.7,2.1 0.5,3.9 -0.9,5.8 -3,4.2 -6.7,3.6 -14.4,-2 -4.8,-3.5 -5.8,-4.6 -3.9,-4.2 z m 11.2,5.9 c 5,-1 6.8,-6.9 2.9,-9.7 -1.8,-1.3 -2.3,-1 -5.3,3.2 -2.8,3.9 -3.1,4.8 -1.7,5.8 0.9,0.7 2.8,1 4.1,0.8 z m 7.6,-11.3 c 3.4,-1 4.7,-5.7 2.2,-7.6 -1.9,-1.4 -2.4,-1.2 -4.8,2.1 -2.2,3 -2.4,3.9 -1,4.9 0.9,0.6 2.6,0.9 3.7,0.6 z m -38,0.5 c -3.3,-3.5 -3.1,-7.4 0.5,-16 2.7,-6.6 3.1,-8.3 1.9,-8.8 -0.8,-0.3 -1.3,-1.1 -1,-1.7 0.2,-0.6 2.7,-0.1 5.4,1 2.7,1.1 4.8,2.5 4.5,3.1 -0.2,0.6 -1.1,0.8 -1.9,0.4 -1.2,-0.5 -2.2,1.1 -5.2,8.3 -3.3,8 -3.5,9.1 -2.2,11.4 0.8,1.4 2.4,2.9 3.6,3.4 1.1,0.5 3.3,0.5 4.9,0.1 2.6,-0.6 3.3,-1.6 6.6,-9.6 3,-7.2 3.4,-9 2.2,-9.5 -0.8,-0.3 -1.3,-1.1 -1,-1.7 0.2,-0.6 2.2,-0.3 4.4,0.6 4,1.7 4.7,3.5 1.4,3.5 -1.3,0 -2.5,1.8 -5,7.8 -2.8,6.7 -3.8,8.1 -6.6,9.6 -3.7,1.9 -9.7,0.9 -12.4,-1.9 z m -24.7,-8.9 c 2.9,-0.3 3.9,-1.8 6.3,-9.9 2.6,-8.8 2.8,-11.4 0.6,-12 -0.8,-0.2 -1.1,-0.8 -0.5,-1.3 1.4,-1.3 12.3,2.2 14.8,4.7 1.6,1.6 1.9,3.2 1.3,6.2 -1,4.9 -4.6,6.7 -10,5.2 -3.1,-0.9 -3.5,-0.7 -4.4,2.6 -1.2,4 -0.9,5.9 1.1,7.5 0.7,0.6 -1.4,0.3 -4.8,-0.7 -3.4,-1 -5.4,-1.9 -4.5,-2 z m 18,-13.4 c 1.2,-4.1 1.1,-4.4 -2,-5.7 -3.2,-1.3 -3.3,-1.3 -4.7,3.7 -1.4,5 -1.5,5 2,5.7 3.3,0.6 3.5,0.4 4.7,-3.7 z m -40.6,10.4 c 1.7,-0.8 2.2,-2.6 3.3,-11.6 0.8,-6.4 0.9,-10.7 0.2,-10.8 -0.6,-0.1 -1,-0.7 -0.9,-1.3 0.1,-0.7 3.2,-0.7 8.3,0.1 7.9,1.3 8.2,1.4 8.6,4.5 0.5,3.8 -0.6,4.1 -2.1,0.6 -0.7,-1.7 -2.2,-2.6 -4.8,-2.9 -3.6,-0.4 -3.7,-0.3 -4.3,4.1 -0.5,4.1 -0.3,4.6 2.1,4.8 1.7,0.2 2.7,-0.3 2.9,-1.4 0.1,-1 0.7,-1.4 1.2,-0.9 0.5,0.5 0.8,2.6 0.5,4.7 -0.3,2.1 -1,3.8 -1.5,3.8 -0.6,-0.1 -1,-0.9 -0.9,-1.8 0.1,-1.1 -0.8,-1.8 -2.5,-2 -2.6,-0.3 -2.7,-0.1 -3.1,5.1 -0.3,5.2 -0.2,5.4 3,6.2 3.3,0.8 7.1,-1.2 8.7,-4.6 1.2,-2.6 1.7,-0.4 0.7,3.4 l -1,3.6 -10.3,-1.3 c -7.5,-0.9 -9.7,-1.5 -8.3,-2.2 z m 11.8,-28 c 2.6,-3 4.8,-3.9 4.6,-1.9 -0.1,1.1 -5.3,5.3 -6.5,5.1 -0.4,-0.1 0.4,-1.5 1.9,-3.2 z m -37.8,30 c 4.1,-1.2 3.8,-23 -0.3,-23 -0.9,0 -1.3,-0.5 -0.9,-1.1 0.8,-1.5 11.3,-1.7 14.9,-0.4 5.5,2.1 6.4,8.5 1.5,11.4 l -2.6,1.5 3.9,4.6 c 2.1,2.5 4.9,5.2 6.3,5.9 2.2,1.2 2.1,1.3 -1.5,1.5 -3.5,0.1 -4.4,-0.5 -8,-5.5 -4.8,-6.6 -7.1,-7.2 -7,-1.8 0.1,4.1 1,5.9 3.4,6.8 0.9,0.3 -1.3,0.7 -4.8,0.7 -3.5,0.1 -5.7,-0.1 -4.7,-0.4 z m 12,-14 c 1.8,-1.4 2.3,-4.1 1.3,-6.8 -0.7,-1.9 -1.8,-2.5 -4.2,-2.5 -3.1,0.1 -3.3,0.2 -3.1,5.2 0.1,4.6 0.4,5.1 2.5,5 1.3,0 2.9,-0.5 3.5,-0.9 z"
         inkscape:connector-curvature="0"
         style="fill:#ffffff;stroke:#000000;stroke-width:0.37795275;stroke-miterlimit:4;stroke-dasharray:none"
         inkscape:export-xdpi="336.32999"
         inkscape:export-ydpi="336.32999" />
    </g>
  </g>
</svg>
