<?xml version="1.0" encoding="UTF-8" standalone="no"?>
<svg
   xmlns:dc="http://purl.org/dc/elements/1.1/"
   xmlns:cc="http://creativecommons.org/ns#"
   xmlns:rdf="http://www.w3.org/1999/02/22-rdf-syntax-ns#"
   xmlns:svg="http://www.w3.org/2000/svg"
   xmlns="http://www.w3.org/2000/svg"
   xmlns:sodipodi="http://sodipodi.sourceforge.net/DTD/sodipodi-0.dtd"
   xmlns:inkscape="http://www.inkscape.org/namespaces/inkscape"
   version="1.0"
   x="0px" y="0px" width="600px" height="680px" viewBox="-1.5 -1.5 600 680"
   inkscape:version="0.47 r22583">
<metadata><rdf:RDF><cc:Work
       rdf:about=""><dc:format>image/svg+xml</dc:format><dc:type
         rdf:resource="http://purl.org/dc/dcmitype/StillImage" /></cc:Work></rdf:RDF></metadata>
<g
   id="g236">
	
		<rect
   x="502.15"
   y="107.457"
   transform="matrix(-0.7844 -0.6202 0.6202 -0.7844 819.1045 576.8354)"
   fill="#FFCE2A"
   stroke="#120B15"
   stroke-width="3"
   width="15.309"
   height="77.206"
   id="rect238"
   style="fill:#fcd116;fill-opacity:1" />
	
		<rect
   x="162.179"
   y="519.61"
   transform="matrix(-0.7845 -0.6202 0.6202 -0.7845 -43.1371 1101.4335)"
   fill="#FFCE2A"
   stroke="#120B15"
   stroke-width="3"
   width="15.308"
   height="77.206"
   id="rect240"
   style="fill:#fcd116;fill-opacity:1" />
	<g
   id="g242">
		<path
   fill="#FFCE2A"
   stroke="#120B15"
   stroke-width="3"
   d="M464.754,157.706L150.516,544.691c0,0,8.236,10.449,17.957,17.832    c9.702,7.369,22.043,11.168,22.043,11.168l315.276-385.175c0,0-2.483-7.303-15.92-17.964    C477.486,160.725,464.754,157.706,464.754,157.706z"
   id="path244"
   style="fill:#fcd116;fill-opacity:1" />
		<g
   id="g246">
			<line
   fill="none"
   stroke="#120B15"
   stroke-width="3"
   x1="200.5"
   y1="502.879"
   x2="158.5"
   y2="553.879"
   id="line248" />
			<line
   fill="none"
   stroke="#120B15"
   stroke-width="3"
   x1="211"
   y1="510.879"
   x2="169.5"
   y2="562.379"
   id="line250" />
			<line
   fill="none"
   stroke="#120B15"
   stroke-width="3"
   x1="220.5"
   y1="518.379"
   x2="181"
   y2="569.379"
   id="line252" />
			<polygon
   fill="#FACC2B"
   stroke="#120B15"
   stroke-width="3"
   points="225.5,530.379 216.5,541.379 157.5,535.879 166.5,525.379         "
   id="polygon254"
   style="fill:#fcd116;fill-opacity:1" />
			<polygon
   fill="#FACC2B"
   stroke="#120B15"
   stroke-width="3"
   points="179,509.879 187.5,500.379 206.5,552.879 198.284,562.949         "
   id="polygon256"
   style="fill:#fcd116;fill-opacity:1" />
		</g>
		<g
   id="g258">
			<line
   fill="none"
   stroke="#120B15"
   stroke-width="3"
   x1="455.557"
   y1="226.823"
   x2="497.557"
   y2="175.823"
   id="line260" />
			<line
   fill="none"
   stroke="#120B15"
   stroke-width="3"
   x1="445.057"
   y1="218.823"
   x2="486.557"
   y2="167.323"
   id="line262" />
			<line
   fill="none"
   stroke="#120B15"
   stroke-width="3"
   x1="423.277"
   y1="226.545"
   x2="475.057"
   y2="160.323"
   id="line264" />
			<polygon
   fill="#FACC2B"
   stroke="#120B15"
   stroke-width="3"
   points="431.833,199.162 440.557,188.323 500.557,193.823      490.557,204.323    "
   id="polygon266"
   style="fill:#fcd116;fill-opacity:1" />
			<polygon
   fill="#FACC2B"
   stroke="#120B15"
   stroke-width="3"
   points="477.057,221.823 467.557,232.323 449.557,176.823      458.658,166.241    "
   id="polygon268"
   style="fill:#fcd116;fill-opacity:1" />
		</g>
	</g>
	<path
   fill="#FFFFFF"
   stroke="#120B15"
   stroke-width="3"
   d="M594.28,137.243c0,0,9.887,34.636-13.779,59.969   c-22.046,23.599-54.667,14.667-54.667,14.667s5-28.333,1.333-39c-3.59-10.441-4.443-10.833-10.146-16.25   s-20.857-20.291-26.521-25.75c-9.334-9-10.667-14.667-7.334-18c1.841-1.841,8.641-0.684,18.667,5.667   c10,6.333,24.285,19.479,41.131,24.685c17.202,5.315,27.202,3.982,34.78,0.855C585.171,141.022,594.28,137.243,594.28,137.243z"
   id="path270" />
</g>
<g
   id="g272">
	
		<rect
   x="80.37"
   y="107.457"
   transform="matrix(0.7844 -0.6202 0.6202 0.7844 -71.616 86.0865)"
   fill="#FFCE2A"
   stroke="#120B15"
   stroke-width="3"
   width="15.309"
   height="77.206"
   id="rect274"
   style="fill:#fcd116;fill-opacity:1" />
	
		<rect
   x="420.341"
   y="519.61"
   transform="matrix(0.7844 -0.6202 0.6202 0.7844 -253.9508 385.7855)"
   fill="#FFCE2A"
   stroke="#120B15"
   stroke-width="3"
   width="15.308"
   height="77.206"
   id="rect276"
   style="fill:#fcd116;fill-opacity:1" />
	<g
   id="g278">
		<path
   fill="#FFCE2A"
   stroke="#120B15"
   stroke-width="3"
   d="M133.075,157.706l314.239,386.986c0,0-8.236,10.449-17.957,17.832    c-9.701,7.369-22.043,11.168-22.043,11.168L92.037,188.517c0,0,2.483-7.303,15.92-17.964    C120.342,160.725,133.075,157.706,133.075,157.706z"
   id="path280"
   style="fill:#fcd116;fill-opacity:1" />
		<g
   id="g282">
			<line
   fill="none"
   stroke="#120B15"
   stroke-width="3"
   x1="397.329"
   y1="502.879"
   x2="439.329"
   y2="553.879"
   id="line284" />
			<line
   fill="none"
   stroke="#120B15"
   stroke-width="3"
   x1="386.829"
   y1="510.879"
   x2="428.329"
   y2="562.379"
   id="line286" />
			<line
   fill="none"
   stroke="#120B15"
   stroke-width="3"
   x1="377.329"
   y1="518.379"
   x2="416.829"
   y2="569.379"
   id="line288" />
			<polygon
   fill="#FACC2B"
   stroke="#120B15"
   stroke-width="3"
   points="372.329,530.379 381.329,541.379 440.329,535.879      431.329,525.379    "
   id="polygon290"
   style="fill:#fcd116;fill-opacity:1" />
			<polygon
   fill="#FACC2B"
   stroke="#120B15"
   stroke-width="3"
   points="418.829,509.879 410.329,500.379 391.329,552.879      399.546,562.949    "
   id="polygon292"
   style="fill:#fcd116;fill-opacity:1" />
		</g>
		<g
   id="g294">
			<line
   fill="none"
   stroke="#120B15"
   stroke-width="3"
   x1="142.272"
   y1="226.823"
   x2="100.272"
   y2="175.823"
   id="line296" />
			<line
   fill="none"
   stroke="#120B15"
   stroke-width="3"
   x1="152.772"
   y1="218.823"
   x2="111.272"
   y2="167.323"
   id="line298" />
			<line
   fill="none"
   stroke="#120B15"
   stroke-width="3"
   x1="174.551"
   y1="226.545"
   x2="122.772"
   y2="160.323"
   id="line300" />
			<polygon
   fill="#FACC2B"
   stroke="#120B15"
   stroke-width="3"
   points="165.996,199.162 157.272,188.323 97.272,193.823      107.272,204.323    "
   id="polygon302"
   style="fill:#fcd116;fill-opacity:1" />
			<polygon
   fill="#FACC2B"
   stroke="#120B15"
   stroke-width="3"
   points="120.772,221.823 130.272,232.323 148.272,176.823      139.17,166.241    "
   id="polygon304"
   style="fill:#fcd116;fill-opacity:1" />
		</g>
	</g>
	<path
   fill="#FFFFFF"
   stroke="#120B15"
   stroke-width="3"
   d="M3.548,137.243c0,0-9.887,34.636,13.779,59.969   c22.046,23.599,54.667,14.667,54.667,14.667s-5-28.333-1.333-39c3.59-10.441,4.443-10.833,10.146-16.25s20.857-20.291,26.521-25.75   c9.334-9,10.667-14.667,7.334-18c-1.841-1.841-8.641-0.684-18.667,5.667c-10,6.333-24.285,19.479-41.131,24.685   c-17.202,5.315-27.202,3.982-34.78,0.855C12.658,141.022,3.548,137.243,3.548,137.243z"
   id="path306" />
</g>
<g
   id="g308">
	<g
   id="g310">
		<path
   fill="#00AE4D"
   d="M446.351,464.013c33.098-47.089,66.895-139.891,47.283-273.245c-0.735-5.002-80,76-126.251-5h-64.497    h-4.252H233.93c-46.251,81-125.516-0.002-126.251,5c-19.77,134.434,14.736,227.655,48.086,274.379L301.5,187.187L446.351,464.013z    "
   id="path312"
   style="fill:#007a5e;fill-opacity:1" />
	</g>
</g>
<g
   id="Ebene_2_Kopie_2">
	<g
   id="g315">
		<path
   fill="#FFCE2A"
   d="M301.002,187.155h67.938c45.705,80.443,124.035-0.002,124.762,4.965    c19.764,135.066-15.364,228.251-48.671,274.104c-54.103,74.484-144.029,122.032-144.029,122.032V187.155z"
   id="path317"
   style="fill:#fcd116;fill-opacity:1" />
	</g>
</g>
<g
   id="Ebene_7">
	<g
   id="g320">
		<path
   fill="#EE2526"
   d="M300.757,586.777l-1.395-0.775c-21.256-11.917-94.273-55.807-141.222-120.118    c-0.206-0.282-0.411-0.568-0.617-0.856l143.975-274.605l143.098,273.473c-0.477,0.672-0.951,1.335-1.427,1.986    C396.237,530.179,323.366,574.076,302.15,586L300.757,586.777L300.757,586.777z"
   id="path322"
   style="fill:#ce1126;fill-opacity:1" />
		<path
   fill="#120B15"
   d="M301.5,187.187l144.851,276.826c-0.657,0.935-1.313,1.856-1.969,2.755    c-47.709,65.357-122.938,110.11-141.496,120.54l-2.128,1.185l-2.124-1.18c-18.583-10.419-93.986-55.177-141.703-120.545    c-0.388-0.532-0.777-1.076-1.166-1.621L301.5,187.187 M301.497,193.652L159.282,464.9c0.024,0.033,0.048,0.066,0.073,0.1    c20.125,27.57,47.436,54.574,81.17,80.259c27.132,20.659,50.702,34.462,59.576,39.437l0.655,0.364l0.671-0.373    c8.847-4.972,32.373-18.78,59.456-39.437c33.674-25.683,60.952-52.683,81.076-80.251c0.294-0.403,0.588-0.811,0.882-1.223    L301.497,193.652L301.497,193.652z"
   id="path324" />
	</g>
</g>
<g
   id="Ebene_2">
	<g
   id="g327">
		<path
   fill="#120B15"
   d="M367.383,185.768c15.58,27.285,34.905,36.188,53.714,36.188c17.664,0,34.873-7.853,48.093-15.706    c13.221-7.854,22.452-15.706,24.162-15.706c0.165,0,0.26,0.073,0.282,0.225c20,136-15.548,229.829-49.252,276    c-47.709,65.357-122.938,110.11-141.496,120.54l-2.128,1.185l-2.124-1.18c-18.583-10.419-93.986-55.177-141.703-120.545    c-33.704-46.171-69.252-140-49.252-276c0.022-0.152,0.117-0.225,0.282-0.225c1.711,0,10.943,7.853,24.163,15.706    c13.222,7.854,30.426,15.706,48.093,15.706c18.807,0,38.136-8.905,53.714-36.188h64.704h4.252H367.383 M365.655,188.768h-62.77    h-4.252h-62.977c-14.179,24.013-32.825,36.188-55.441,36.188c-14.915,0-31.611-5.426-49.625-16.127    c-7.045-4.185-12.924-8.335-17.217-11.365c-1.138-0.803-2.293-1.619-3.295-2.305c-8.352,59.648-6.669,115.688,5.011,166.625    c9.179,40.031,24.899,76.688,44.264,103.216c20.127,27.571,47.437,54.575,81.171,80.26c27.132,20.659,50.702,34.462,59.576,39.438    l0.655,0.363l0.671-0.373c8.847-4.972,32.373-18.78,59.456-39.437c33.674-25.683,60.952-52.683,81.076-80.251    c19.365-26.528,35.085-63.185,44.264-103.216c11.68-50.937,13.362-106.978,5.011-166.625c-1.001,0.686-2.156,1.501-3.293,2.304    c-4.293,3.03-10.173,7.181-17.219,11.366c-18.015,10.701-34.711,16.127-49.625,16.127    C398.48,224.955,379.835,212.781,365.655,188.768L365.655,188.768z"
   id="path329" />
	</g>
</g>
<g
   id="g331">
	<polygon
   fill="#FFCE2A"
   points="318.724,286.832 316.034,285.416 301.492,277.762 286.944,285.399 284.252,286.813    284.768,283.818 287.555,267.623 275.795,256.148 273.62,254.026 276.627,253.591 292.889,251.237 300.171,236.506    301.517,233.781 302.86,236.508 310.124,251.246 326.384,253.618 329.391,254.055 327.213,256.177 315.439,267.641    318.209,283.834 318.724,286.832  "
   id="polygon333"
   style="fill:#fcd116;fill-opacity:1" />
	<path
   fill="#120B15"
   d="M301.514,237.169l7.613,15.446l17.039,2.485l-12.338,12.013l2.902,16.975l-15.238-8.022l-15.247,8.005   l2.92-16.971l-12.325-12.027l17.042-2.467L301.514,237.169 M301.518,230.391l-2.693,5.449l-6.931,14.024l-15.481,2.241   l-6.016,0.871l4.351,4.245l11.196,10.925l-2.653,15.417l-1.031,5.991l5.382-2.826l13.85-7.272l13.843,7.288l5.379,2.832   l-1.024-5.992l-2.637-15.42l11.208-10.913l4.355-4.241l-6.016-0.877l-15.479-2.258l-6.915-14.031L301.518,230.391L301.518,230.391z   "
   id="path335"
   style="stroke:#000000;stroke-opacity:1;stroke-width:0;stroke-miterlimit:4;stroke-dasharray:none;fill:none;fill-opacity:1" />
</g>
<path
   fill="#4B5EAA"
   stroke="#120B15"
   stroke-width="2"
   d="M301.5,299.643c-4.5-0.375-4.5-3.875-8,3.625  c-3.234,6.931-2.5,5,1.5,11.5s4-1.25,5,11.5s4,15-0.5,21.5c-5.438,7.854-10.5,5.5-14,17s-7,15-10.5,25.5s0,14-7,23  s-19,17.5-29.5,21.5s-9,2-18.5,12c-9.17,9.652-8,10.5-12.5,19s-4,9.5-7,12.5s-4,1-2.5,8.5c2.287,11.436,12.5,4,16,10  c9.083,15.572,10.5,6,13.5,13c7.661,17.876,4.5,17,12.5,17.5s6.5,0.5,16.5-1.5s4,0.5,20-4s13.5-4.5,23-4.5s-1.5-2,14,1.5  s19,7.5,28.5,7.5s9.5,3.5,16,0.5c6.307-2.911,6.5-7.5,7-15s-5.5-14.5-11.5-17s-12.5-2-19-5.5s-8.5-3-7.5-10s1.5-12.5,2.5-18  s-0.5-10.5,1-18s0.5-8.5,2-17.5s2-12,2.5-15.5s3.5-3,1-11s2-4-7.5-9.5c-9.169-5.309-11-1.5-13.5-11c-3.474-13.198-4-9-2-13.5  c2.445-5.502,7-3.5,10-6s6.5-5,3.5-9s-6-7-7-12s-0.5-7-3-10.5s-3-4-4-9s0-5.5-3-9.5S301.5,299.643,301.5,299.643z"
   id="path337" />
<g
   id="g339">
	<g
   id="g341"
   style="fill:#ffffff;fill-opacity:1;stroke:#000000;stroke-opacity:1">
		<path
   fill="#E7E8E9"
   stroke="#120B15"
   stroke-width="3"
   d="M273.833,482.373c0,12.334-17.013,22.332-38,22.332    s-38-9.998-38-22.332H273.833z"
   id="path343"
   style="fill:#ffffff;fill-opacity:1;stroke:#000000;stroke-opacity:1" />
		<line
   fill="none"
   stroke="#120B15"
   stroke-width="3"
   x1="239.167"
   y1="342.705"
   x2="197.74"
   y2="481.235"
   id="line345"
   style="fill:#ffffff;fill-opacity:1;stroke:#000000;stroke-opacity:1" />
		<line
   fill="none"
   stroke="#120B15"
   stroke-width="3"
   x1="239.167"
   y1="342.705"
   x2="237.833"
   y2="481.372"
   id="line347"
   style="fill:#ffffff;fill-opacity:1;stroke:#000000;stroke-opacity:1" />
		<line
   fill="none"
   stroke="#120B15"
   stroke-width="3"
   x1="239.167"
   y1="342.705"
   x2="273.954"
   y2="481.465"
   id="line349"
   style="fill:#ffffff;fill-opacity:1;stroke:#000000;stroke-opacity:1" />
	</g>
	<g
   id="g351">
		<path
   fill="#E7E8E9"
   stroke="#120B15"
   stroke-width="3"
   d="M402.678,482.373c0,12.334-17.013,22.332-38,22.332    c-20.986,0-38-9.998-38-22.332H402.678z"
   id="path353"
   style="fill:#ffffff;fill-opacity:1" />
		<line
   fill="none"
   stroke="#120B15"
   stroke-width="3"
   x1="368.012"
   y1="342.705"
   x2="326.585"
   y2="481.235"
   id="line355" />
		<line
   fill="none"
   stroke="#120B15"
   stroke-width="3"
   x1="368.012"
   y1="342.705"
   x2="366.678"
   y2="481.372"
   id="line357" />
		<line
   fill="none"
   stroke="#120B15"
   stroke-width="3"
   x1="368.012"
   y1="342.705"
   x2="402.799"
   y2="481.465"
   id="line359" />
	</g>
	<line
   x1="237.69153"
   y1="344.70499"
   x2="369.48746"
   y2="344.70499"
   id="line361"
   style="fill:#000000;stroke:#120b15;stroke-width:6.06832075" />
	<polygon
   fill="#120B15"
   stroke="#120B15"
   stroke-width="6"
   points="301.5,290.142 287.5,536.768 301.5,547.144 315.5,537.268  "
   id="polygon363"
   style="fill:#000000" />
	
		<rect
   x="291"
   y="550.268"
   transform="matrix(0.7119 -0.7023 0.7023 0.7119 -307.0563 373.538)"
   fill="#120B15"
   stroke="#120B15"
   stroke-width="2"
   width="21.5"
   height="21.5"
   id="rect365" />
	<path
   fill="none"
   stroke="#120B15"
   stroke-width="10"
   d="M262.5,515.517c5.677-4.825,17.684-7.749,39.5-7.749   c21.814,0,35.242,3.509,39.5,7.749"
   id="path367" />
</g>
<path
   fill="#FACC2B"
   stroke="#120B15"
   stroke-width="3"
   d="M300.86,619.052"
   id="path369" />
<g
   id="g371">
	<path
   fill="#FACC2B"
   stroke="#120B15"
   stroke-width="3"
   d="M300.86,619.052c-76.268,0.035-132.458-39.733-132.458-39.733   l-15.519,19.809C118,577.768,91.167,540.435,91.167,540.435l-24.333,22.11c0,0,75.667,112.972,234.778,113.2"
   id="path373"
   style="fill:#fcd116;fill-opacity:1" />
	<path
   fill="#FFCE2A"
   stroke="#120B15"
   stroke-width="3"
   d="M296.585,619.052c76.269,0.035,132.458-39.733,132.458-39.733   l15.52,19.809c34.883-21.359,62.717-57.692,62.717-57.692l23.332,21.11c0,0-75.666,112.972-234.777,113.2"
   id="path375"
   style="fill:#fcd116;fill-opacity:1" />
</g>
<g
   id="g377">
	<path
   d="m 75.685,565.538 16.417,-13.844 5.883,6.977 c 1.479,1.754 2.407,3.153 2.783,4.197 0.375,1.044 0.388,2.122 0.037,3.236 -0.352,1.113 -1.012,2.079 -1.982,2.897 -1.232,1.039 -2.555,1.535 -3.968,1.487 -1.413,-0.047 -2.832,-0.703 -4.256,-1.968 0.187,1.069 0.226,2.048 0.12,2.937 -0.107,0.888 -0.465,2.267 -1.074,4.134 l -1.512,4.706 -3.343,-3.965 1.551,-5.408 c 0.559,-1.928 0.872,-3.188 0.94,-3.782 0.068,-0.594 0.015,-1.118 -0.157,-1.572 -0.173,-0.455 -0.58,-1.063 -1.222,-1.825 l -0.567,-0.672 -6.853,5.779 -2.797,-3.314 z m 12.269,-4.674 2.068,2.452 c 1.341,1.59 2.246,2.526 2.713,2.809 0.468,0.282 0.961,0.397 1.479,0.344 0.517,-0.053 1.022,-0.287 1.515,-0.702 0.553,-0.466 0.874,-0.99 0.965,-1.571 0.091,-0.581 -0.045,-1.179 -0.409,-1.791 -0.189,-0.301 -0.85,-1.123 -1.983,-2.467 l -2.182,-2.587 -4.166,3.513 z"
   id="path379" />
	<path
   d="m 92.477,584.729 14.994,-15.374 11.399,11.118 -2.537,2.601 -8.295,-8.091 -3.324,3.408 7.718,7.528 -2.526,2.59 -7.718,-7.527 -4.081,4.184 8.588,8.377 -2.526,2.59 -11.692,-11.404 z"
   id="path381" />
	<path
   d="m 109.796,601.11 13.592,-16.626 5.387,4.404 c 2.041,1.668 3.304,2.84 3.788,3.513 0.749,1.028 1.103,2.223 1.062,3.584 -0.041,1.36 -0.601,2.702 -1.683,4.025 -0.834,1.021 -1.722,1.728 -2.661,2.12 -0.939,0.392 -1.856,0.555 -2.751,0.484 -0.896,-0.069 -1.69,-0.281 -2.385,-0.635 -0.931,-0.496 -2.157,-1.366 -3.676,-2.608 l -2.189,-1.789 -5.127,6.271 -3.357,-2.743 z m 14.649,-11.069 -3.857,4.718 1.837,1.502 c 1.323,1.082 2.278,1.718 2.867,1.909 0.588,0.19 1.161,0.204 1.717,0.041 0.556,-0.163 1.035,-0.491 1.437,-0.982 0.494,-0.604 0.725,-1.249 0.69,-1.933 -0.035,-0.684 -0.283,-1.297 -0.747,-1.841 -0.339,-0.403 -1.113,-1.1 -2.323,-2.088 l -1.621,-1.326 z"
   id="path383" />
	<path
   d="m 140.518,598.175 3.589,2.434 -6.528,9.626 c -1.036,1.528 -1.663,2.548 -1.881,3.061 -0.34,0.832 -0.37,1.664 -0.091,2.496 0.279,0.833 0.92,1.589 1.922,2.269 1.019,0.69 1.927,1.003 2.727,0.938 0.799,-0.065 1.458,-0.365 1.974,-0.9 0.516,-0.535 1.251,-1.506 2.205,-2.912 l 6.668,-9.832 3.588,2.435 -6.331,9.335 c -1.447,2.133 -2.566,3.575 -3.358,4.324 -0.792,0.749 -1.653,1.25 -2.585,1.503 -0.933,0.253 -1.957,0.263 -3.074,0.03 -1.117,-0.233 -2.378,-0.825 -3.785,-1.779 -1.697,-1.15 -2.852,-2.22 -3.463,-3.206 -0.611,-0.987 -0.958,-1.966 -1.043,-2.938 -0.085,-0.972 0.025,-1.856 0.33,-2.652 0.456,-1.178 1.358,-2.761 2.707,-4.749 l 6.429,-9.483 z"
   id="path385" />
	<path
   d="m 160.181,611.163 7.518,4.143 c 1.488,0.82 2.563,1.494 3.227,2.021 0.663,0.526 1.175,1.146 1.535,1.857 0.36,0.712 0.553,1.501 0.577,2.367 0.024,0.866 -0.188,1.706 -0.635,2.519 -0.485,0.881 -1.168,1.559 -2.048,2.032 -0.88,0.474 -1.828,0.671 -2.843,0.591 0.962,0.965 1.53,2.02 1.703,3.163 0.173,1.143 -0.04,2.258 -0.639,3.344 -0.472,0.855 -1.128,1.577 -1.972,2.167 -0.843,0.589 -1.742,0.936 -2.697,1.039 -0.955,0.104 -1.968,-0.066 -3.038,-0.512 -0.671,-0.28 -2.221,-1.079 -4.651,-2.396 l -6.402,-3.528 10.365,-18.807 z m -2.05,12.702 -2.771,5.029 3.515,1.938 c 1.368,0.754 2.258,1.193 2.668,1.319 0.621,0.209 1.219,0.212 1.793,0.01 0.574,-0.202 1.045,-0.637 1.413,-1.304 0.311,-0.564 0.438,-1.119 0.381,-1.663 -0.057,-0.544 -0.295,-1.049 -0.713,-1.514 -0.418,-0.465 -1.492,-1.174 -3.219,-2.125 l -3.067,-1.69 z m 4.122,-7.479 -2.396,4.35 2.489,1.371 c 1.479,0.815 2.411,1.301 2.793,1.456 0.692,0.281 1.328,0.339 1.904,0.172 0.577,-0.167 1.033,-0.555 1.368,-1.162 0.321,-0.581 0.42,-1.142 0.3,-1.683 -0.121,-0.54 -0.476,-1.023 -1.066,-1.449 -0.353,-0.25 -1.423,-0.867 -3.21,-1.853 l -2.182,-1.202 z"
   id="path387" />
	<path
   d="m 172.454,641.948 8.636,-19.47 3.963,1.758 -7.169,16.162 9.855,4.372 -1.467,3.307 -13.818,-6.129 z"
   id="path389" />
	<path
   d="m 192.646,650.467 7.48,-20.13 4.064,1.51 -7.48,20.13 -4.064,-1.51 z"
   id="path391" />
	<path
   d="m 221.539,656.99 c 0.806,1.031 1.746,1.938 2.818,2.722 l -2.396,2.487 c -0.573,-0.373 -1.11,-0.811 -1.613,-1.314 -0.112,-0.104 -0.856,-0.985 -2.231,-2.642 -1.522,0.193 -3.104,0.049 -4.743,-0.434 -3.167,-0.932 -5.373,-2.593 -6.619,-4.985 -1.246,-2.392 -1.373,-5.274 -0.38,-8.646 0.989,-3.363 2.658,-5.716 5.007,-7.056 2.349,-1.34 5.063,-1.557 8.146,-0.649 3.054,0.897 5.201,2.545 6.441,4.94 1.24,2.395 1.365,5.274 0.375,8.638 -0.523,1.78 -1.232,3.271 -2.125,4.475 -0.679,0.92 -1.572,1.742 -2.68,2.464 z m -2.655,-3.331 c 0.719,-0.471 1.342,-1.111 1.871,-1.923 0.529,-0.812 0.963,-1.794 1.302,-2.946 0.7,-2.379 0.698,-4.312 -0.005,-5.796 -0.703,-1.484 -1.903,-2.476 -3.599,-2.975 -1.696,-0.499 -3.244,-0.313 -4.646,0.558 -1.401,0.87 -2.45,2.491 -3.147,4.861 -0.708,2.407 -0.711,4.363 -0.008,5.868 0.703,1.504 1.859,2.493 3.471,2.968 0.599,0.176 1.195,0.244 1.787,0.205 -0.681,-0.801 -1.411,-1.484 -2.191,-2.05 l 1.865,-2.031 c 1.229,0.871 2.33,1.958 3.3,3.261 z"
   id="path393" />
	<path
   d="m 234.522,640.924 4.254,0.841 -2.255,11.41 c -0.358,1.811 -0.538,2.994 -0.538,3.552 0.012,0.898 0.308,1.676 0.89,2.333 0.582,0.658 1.467,1.104 2.655,1.339 1.207,0.238 2.166,0.172 2.876,-0.2 0.71,-0.372 1.199,-0.905 1.466,-1.6 0.267,-0.693 0.564,-1.874 0.894,-3.541 l 2.303,-11.654 4.254,0.841 -2.187,11.064 c -0.5,2.529 -0.968,4.294 -1.404,5.292 -0.436,0.999 -1.034,1.797 -1.794,2.394 -0.76,0.596 -1.699,1.005 -2.818,1.227 -1.119,0.222 -2.512,0.169 -4.179,-0.161 -2.012,-0.397 -3.492,-0.932 -4.439,-1.602 -0.948,-0.67 -1.65,-1.436 -2.107,-2.298 -0.457,-0.861 -0.701,-1.719 -0.731,-2.57 -0.04,-1.263 0.174,-3.071 0.64,-5.429 l 2.22,-11.238 z"
   id="path395" />
	<path
   d="m 255.459,666.568 2.435,-21.336 15.82,1.806 -0.412,3.609 -11.512,-1.313 -0.54,4.729 10.711,1.223 -0.41,3.595 -10.712,-1.223 -0.663,5.808 11.92,1.36 -0.411,3.595 -16.226,-1.853 z"
   id="path397" />
	<path
   d="m 291.601,647.944 7.925,0.092 c 1.787,0.021 3.146,0.174 4.082,0.458 1.255,0.386 2.326,1.057 3.213,2.015 0.889,0.958 1.559,2.125 2.011,3.502 0.453,1.378 0.668,3.072 0.645,5.084 -0.021,1.768 -0.258,3.288 -0.712,4.563 -0.555,1.556 -1.336,2.812 -2.344,3.767 -0.761,0.724 -1.783,1.283 -3.066,1.679 -0.961,0.292 -2.242,0.428 -3.843,0.409 l -8.159,-0.094 0.248,-21.475 z m 4.293,3.683 -0.165,14.223 3.237,0.038 c 1.211,0.014 2.086,-0.044 2.625,-0.175 0.705,-0.168 1.292,-0.459 1.761,-0.873 0.469,-0.415 0.855,-1.102 1.159,-2.06 0.304,-0.959 0.466,-2.268 0.485,-3.928 0.019,-1.66 -0.113,-2.937 -0.396,-3.828 -0.283,-0.891 -0.685,-1.59 -1.206,-2.095 -0.521,-0.504 -1.188,-0.849 -1.995,-1.033 -0.604,-0.144 -1.79,-0.227 -3.557,-0.247 l -1.948,-0.022 z"
   id="path399" />
	<path
   d="m 315.068,647.796 4.321,-0.357 0.96,11.591 c 0.152,1.84 0.304,3.027 0.456,3.563 0.258,0.86 0.757,1.527 1.496,2 0.739,0.474 1.713,0.659 2.92,0.56 1.227,-0.102 2.13,-0.429 2.712,-0.981 0.581,-0.553 0.904,-1.199 0.971,-1.939 0.067,-0.74 0.029,-1.958 -0.111,-3.651 l -0.979,-11.839 4.321,-0.357 0.93,11.24 c 0.213,2.569 0.247,4.395 0.101,5.475 -0.146,1.08 -0.502,2.011 -1.069,2.793 -0.567,0.782 -1.358,1.433 -2.374,1.953 -1.015,0.52 -2.369,0.85 -4.063,0.99 -2.044,0.169 -3.613,0.062 -4.709,-0.323 -1.095,-0.385 -1.979,-0.929 -2.655,-1.632 -0.676,-0.704 -1.146,-1.461 -1.408,-2.272 -0.384,-1.203 -0.675,-3.001 -0.873,-5.396 l -0.947,-11.418 z"
   id="path401" />
	<path
   d="m 366.036,654.167 4.392,0.413 c -0.135,2.428 -0.814,4.355 -2.038,5.784 -1.225,1.43 -2.964,2.388 -5.216,2.875 -2.787,0.603 -5.284,0.146 -7.49,-1.369 -2.207,-1.517 -3.667,-3.926 -4.382,-7.228 -0.756,-3.494 -0.44,-6.402 0.945,-8.726 1.385,-2.324 3.548,-3.803 6.488,-4.438 2.567,-0.556 4.817,-0.248 6.749,0.923 1.148,0.69 2.143,1.824 2.983,3.4 l -3.978,1.91 c -0.484,-1.034 -1.188,-1.781 -2.111,-2.241 -0.924,-0.459 -1.949,-0.567 -3.075,-0.323 -1.556,0.337 -2.697,1.168 -3.424,2.494 -0.728,1.326 -0.82,3.24 -0.279,5.741 0.574,2.653 1.46,4.439 2.658,5.359 1.198,0.92 2.561,1.215 4.088,0.884 1.126,-0.243 2.018,-0.812 2.674,-1.702 0.657,-0.891 0.996,-2.143 1.016,-3.756 z"
   id="path403" />
	<path
   d="m 397.606,653.213 -4.499,1.416 -3.253,-4.09 -8.188,2.578 -0.226,5.186 -4.388,1.381 1.529,-22.995 4.373,-1.377 14.652,17.901 z m -10.166,-5.707 -5.216,-6.712 -0.373,8.472 5.589,-1.76 z"
   id="path405" />
	<path
   d="m 403.32,651.081 -8.445,-19.745 5.967,-2.552 9.343,11.937 -2.218,-14.983 5.979,-2.558 8.445,19.744 -3.704,1.584 -6.647,-15.542 2.729,17.219 -3.839,1.642 -10.554,-13.872 6.647,15.543 -3.703,1.583 z"
   id="path407" />
	<path
   d="m 429.671,639.251 -10.294,-18.847 13.974,-7.633 1.741,3.188 -10.169,5.555 2.282,4.179 9.462,-5.169 1.734,3.176 -9.461,5.168 2.802,5.13 10.528,-5.752 1.734,3.176 -14.333,7.829 z"
   id="path409" />
	<path
   d="m 450.458,627.52 -11.921,-17.861 7.59,-5.066 c 1.909,-1.274 3.403,-2.039 4.482,-2.296 1.079,-0.257 2.152,-0.148 3.22,0.325 1.068,0.473 1.953,1.238 2.658,2.294 0.895,1.34 1.239,2.71 1.034,4.109 -0.205,1.398 -1.016,2.735 -2.432,4.009 1.084,-0.065 2.061,0.005 2.932,0.21 0.871,0.205 2.2,0.715 3.988,1.529 l 4.507,2.028 -4.313,2.879 -5.201,-2.146 c -1.853,-0.771 -3.07,-1.223 -3.653,-1.356 -0.582,-0.134 -1.109,-0.141 -1.58,-0.02 -0.472,0.121 -1.121,0.458 -1.949,1.011 l -0.731,0.488 4.977,7.456 -3.608,2.407 z m -3.273,-12.715 2.669,-1.781 c 1.729,-1.154 2.761,-1.948 3.094,-2.382 0.333,-0.434 0.503,-0.91 0.508,-1.431 0.005,-0.52 -0.172,-1.048 -0.529,-1.584 -0.401,-0.602 -0.886,-0.979 -1.453,-1.135 -0.567,-0.156 -1.176,-0.087 -1.826,0.206 -0.319,0.154 -1.21,0.72 -2.672,1.695 l -2.814,1.879 3.023,4.533 z"
   id="path411" />
	<path
   d="m 464.104,605.397 c -1.379,-1.698 -2.281,-3.33 -2.709,-4.896 -0.31,-1.156 -0.411,-2.339 -0.303,-3.546 0.108,-1.207 0.421,-2.291 0.938,-3.251 0.682,-1.282 1.701,-2.475 3.059,-3.576 2.457,-1.993 5.041,-2.827 7.753,-2.5 2.712,0.328 5.169,1.849 7.372,4.563 2.185,2.692 3.162,5.393 2.933,8.1 -0.23,2.709 -1.569,5.057 -4.019,7.044 -2.48,2.012 -5.065,2.855 -7.757,2.53 -2.692,-0.325 -5.113,-1.813 -7.267,-4.468 z m 3.376,-2.928 c 1.532,1.888 3.13,2.966 4.793,3.232 1.663,0.266 3.165,-0.145 4.508,-1.234 1.342,-1.089 2.051,-2.466 2.127,-4.131 0.076,-1.665 -0.67,-3.465 -2.239,-5.398 -1.551,-1.911 -3.127,-2.997 -4.728,-3.257 -1.601,-0.261 -3.096,0.172 -4.483,1.299 -1.388,1.126 -2.12,2.51 -2.197,4.15 -0.076,1.641 0.663,3.42 2.219,5.339 z"
   id="path413" />
	<path
   d="m 477.265,580.305 3.098,-3.034 8.138,8.311 c 1.291,1.318 2.167,2.136 2.626,2.451 0.748,0.498 1.557,0.693 2.429,0.585 0.871,-0.108 1.739,-0.586 2.604,-1.434 0.879,-0.86 1.366,-1.689 1.461,-2.486 0.094,-0.796 -0.069,-1.501 -0.491,-2.113 -0.422,-0.611 -1.227,-1.524 -2.416,-2.739 l -8.312,-8.487 3.098,-3.034 7.892,8.06 c 1.804,1.842 2.995,3.225 3.572,4.149 0.577,0.924 0.896,1.869 0.959,2.833 0.063,0.964 -0.131,1.97 -0.58,3.019 -0.45,1.048 -1.281,2.167 -2.496,3.355 -1.465,1.436 -2.741,2.354 -3.83,2.757 -1.089,0.403 -2.117,0.55 -3.086,0.439 -0.97,-0.11 -1.814,-0.394 -2.534,-0.851 -1.063,-0.681 -2.436,-1.88 -4.116,-3.596 l -8.016,-8.185 z"
   id="path415" />
	<path
   d="m 510.304,577.484 -16.427,-13.833 2.718,-3.227 16.631,2.515 -10.969,-9.237 2.595,-3.081 16.426,13.832 -2.803,3.328 -16.288,-2.398 10.712,9.021 -2.595,3.08 z"
   id="path417" />
</g>
<g
   id="g419">
	<path
   d="M161.105,599.359l7.836-11.981l5.312,3.475c1.068,0.698,1.81,1.337,2.225,1.916c0.415,0.579,0.61,1.249,0.586,2.012   c-0.024,0.762-0.252,1.473-0.683,2.132c-0.556,0.85-1.299,1.387-2.231,1.609c-0.932,0.224-2.024,0.038-3.277-0.556   c0.288,0.476,0.476,0.883,0.566,1.222c0.185,0.728,0.276,1.546,0.273,2.454l-0.049,4.624l-1.994-1.304l0.045-3.53   c0.007-1.021-0.014-1.821-0.064-2.399c-0.05-0.577-0.144-1.02-0.281-1.327s-0.309-0.571-0.515-0.792   c-0.155-0.155-0.437-0.367-0.845-0.634l-1.839-1.203l-3.48,5.32L161.105,599.359z M167.068,593.703l3.408,2.229   c0.725,0.475,1.34,0.771,1.847,0.888s0.974,0.081,1.402-0.11c0.428-0.19,0.769-0.479,1.022-0.866   c0.371-0.566,0.469-1.167,0.297-1.801c-0.173-0.634-0.703-1.241-1.591-1.822l-3.792-2.48L167.068,593.703z"
   id="path421" />
	<path
   d="M175,608.185l6.898-12.546l9.071,4.988l-0.814,1.48l-7.411-4.075l-2.113,3.843l6.94,3.815l-0.809,1.472l-6.94-3.815   l-2.348,4.27l7.702,4.235l-0.814,1.48L175,608.185z"
   id="path423" />
	<path
   d="M188.5,615.394l5.965-13.014l4.909,2.25c0.864,0.396,1.505,0.74,1.923,1.032c0.59,0.399,1.033,0.848,1.328,1.345   c0.295,0.496,0.451,1.074,0.467,1.733c0.016,0.66-0.123,1.312-0.419,1.957c-0.507,1.106-1.289,1.882-2.344,2.325   c-1.056,0.444-2.504,0.244-4.344-0.6l-3.338-1.53l-2.425,5.291L188.5,615.394z M193.351,609.356l3.365,1.542   c1.113,0.511,1.998,0.666,2.655,0.466c0.657-0.2,1.158-0.676,1.503-1.428c0.25-0.544,0.326-1.073,0.228-1.587   s-0.343-0.937-0.735-1.267c-0.255-0.21-0.773-0.494-1.554-0.853l-3.329-1.525L193.351,609.356z"
   id="path425" />
	<path
   d="M216.319,611.489l1.775,0.66l-2.882,7.753c-0.501,1.349-1.052,2.363-1.652,3.043s-1.391,1.12-2.372,1.321   c-0.981,0.201-2.119,0.062-3.412-0.419c-1.257-0.468-2.205-1.066-2.843-1.797s-0.976-1.57-1.012-2.518   c-0.037-0.948,0.209-2.133,0.738-3.555l2.883-7.753l1.776,0.66l-2.879,7.744c-0.433,1.165-0.645,2.064-0.633,2.697   c0.011,0.633,0.225,1.197,0.642,1.692c0.417,0.495,1.006,0.885,1.77,1.168c1.306,0.485,2.346,0.536,3.122,0.15   s1.477-1.421,2.103-3.104L216.319,611.489z"
   id="path427" />
	<path
   d="M217.923,627.146l4.021-13.74l5.155,1.509c1.05,0.307,1.851,0.692,2.404,1.156s0.924,1.037,1.114,1.72   c0.19,0.684,0.193,1.341,0.008,1.972c-0.172,0.587-0.493,1.094-0.963,1.519c-0.47,0.426-1.074,0.703-1.811,0.834   c0.759,0.486,1.277,1.09,1.552,1.808s0.295,1.477,0.061,2.276c-0.188,0.644-0.499,1.202-0.933,1.676s-0.895,0.802-1.382,0.984   c-0.488,0.183-1.056,0.263-1.703,0.239c-0.648-0.023-1.409-0.163-2.284-0.419L217.923,627.146z M220.216,626.058l3.421,1.001   c0.587,0.172,1.006,0.271,1.256,0.296c0.44,0.048,0.827,0.025,1.16-0.067c0.332-0.093,0.638-0.279,0.917-0.561   c0.279-0.281,0.482-0.641,0.61-1.078c0.15-0.513,0.149-0.996-0.003-1.451s-0.438-0.827-0.858-1.116   c-0.421-0.289-1.069-0.562-1.943-0.817l-3.177-0.93L220.216,626.058z M222.072,619.712l2.971,0.869   c0.806,0.236,1.399,0.353,1.781,0.349c0.502-0.002,0.917-0.129,1.245-0.379s0.562-0.615,0.703-1.097   c0.133-0.456,0.142-0.89,0.024-1.3c-0.117-0.411-0.36-0.74-0.729-0.987c-0.369-0.246-1.046-0.515-2.034-0.804l-2.746-0.804   L222.072,619.712z"
   id="path429" />
	<path
   d="M232.706,631.276l3.172-13.96l1.847,0.419l-2.797,12.313l6.875,1.563l-0.375,1.647L232.706,631.276z"
   id="path431" />
	<path
   d="M245.923,634.093l2.573-14.083l1.864,0.341l-2.573,14.083L245.923,634.093z"
   id="path433" />
	<path
   d="M263.842,631.757l1.814,0.726c-0.6,1.49-1.466,2.571-2.597,3.244s-2.436,0.91-3.913,0.712   c-1.529-0.204-2.731-0.682-3.606-1.434c-0.875-0.751-1.483-1.75-1.825-2.998c-0.342-1.248-0.422-2.549-0.241-3.904   c0.198-1.478,0.653-2.729,1.365-3.753c0.712-1.025,1.627-1.753,2.746-2.185c1.118-0.432,2.304-0.563,3.556-0.396   c1.419,0.19,2.565,0.712,3.436,1.564c0.871,0.852,1.409,1.959,1.615,3.319l-1.907,0.188c-0.191-1.077-0.568-1.893-1.13-2.447   c-0.563-0.555-1.319-0.896-2.267-1.023c-1.091-0.146-2.037-0.006-2.839,0.418c-0.803,0.425-1.411,1.058-1.826,1.899   c-0.415,0.841-0.685,1.729-0.81,2.665c-0.162,1.206-0.127,2.283,0.104,3.23c0.231,0.947,0.688,1.693,1.37,2.238   c0.683,0.544,1.456,0.874,2.321,0.99c1.052,0.141,1.983-0.043,2.793-0.553C262.81,633.75,263.424,632.916,263.842,631.757z"
   id="path435" />
	<path
   d="M276.63,631.01c0.102-2.374,0.819-4.206,2.151-5.494c1.333-1.289,3.007-1.89,5.023-1.804   c1.321,0.057,2.498,0.423,3.531,1.099c1.033,0.677,1.804,1.591,2.312,2.743s0.731,2.444,0.67,3.875   c-0.062,1.45-0.41,2.735-1.044,3.855s-1.501,1.951-2.599,2.494c-1.099,0.542-2.269,0.787-3.511,0.734   c-1.346-0.058-2.536-0.435-3.568-1.131c-1.032-0.695-1.798-1.617-2.296-2.767C276.799,633.467,276.576,632.265,276.63,631.01z    M278.58,631.122c-0.074,1.724,0.332,3.102,1.216,4.133c0.884,1.032,2.026,1.577,3.424,1.638c1.424,0.061,2.618-0.39,3.582-1.353   c0.963-0.962,1.484-2.363,1.563-4.204c0.05-1.165-0.104-2.189-0.46-3.074c-0.356-0.886-0.903-1.583-1.641-2.094   s-1.578-0.786-2.521-0.826c-1.34-0.058-2.513,0.354-3.518,1.232S278.672,628.97,278.58,631.122z"
   id="path437" />
	<path
   d="M294.548,638.631l-0.366-14.312l9.655-0.247l0.044,1.688l-7.762,0.199l0.113,4.432l6.717-0.172l0.043,1.688l-6.716,0.173   l0.167,6.501L294.548,638.631z"
   id="path439" />
	<path
   d="M325.982,632.076l1.928,0.319c-0.266,1.584-0.879,2.825-1.84,3.726c-0.96,0.9-2.183,1.412-3.669,1.536   c-1.537,0.129-2.813-0.08-3.83-0.625c-1.016-0.546-1.824-1.392-2.427-2.536c-0.602-1.146-0.96-2.399-1.073-3.762   c-0.124-1.485,0.051-2.806,0.526-3.959s1.213-2.062,2.213-2.723c0.999-0.662,2.129-1.046,3.388-1.151   c1.427-0.119,2.657,0.145,3.691,0.789c1.034,0.646,1.797,1.611,2.29,2.896l-1.822,0.594c-0.417-1.011-0.961-1.727-1.63-2.147   s-1.479-0.592-2.434-0.512c-1.097,0.092-1.991,0.431-2.684,1.019c-0.692,0.587-1.15,1.335-1.375,2.246   c-0.225,0.91-0.298,1.836-0.219,2.776c0.102,1.214,0.366,2.258,0.796,3.134c0.43,0.875,1.035,1.506,1.819,1.891   c0.783,0.386,1.609,0.542,2.479,0.469c1.057-0.088,1.927-0.468,2.609-1.139C325.402,634.245,325.823,633.298,325.982,632.076z"
   id="path441" />
	<path
   d="M331.013,636.629l3.471-14.938l2.021-0.282l7.778,13.371l-2.138,0.298l-2.252-4.063l-5.929,0.825l-0.959,4.512   L331.013,636.629z M334.293,630.236l4.808-0.67l-2.027-3.721c-0.617-1.13-1.089-2.063-1.415-2.8   c-0.054,0.935-0.183,1.872-0.387,2.814L334.293,630.236z"
   id="path443" />
	<path
   d="M347.707,634.204l-2.867-14.026l2.794-0.571l5.351,9.253c0.495,0.862,0.859,1.509,1.094,1.939   c0.055-0.543,0.15-1.344,0.287-2.401l1.363-10.445l2.497-0.511l2.867,14.026l-1.789,0.366l-2.399-11.74l-1.677,12.573l-1.675,0.342   l-6.497-11.111l2.44,11.94L347.707,634.204z"
   id="path445" />
	<path
   d="M366.025,630.231l-3.805-13.801l9.979-2.751l0.449,1.628l-8.152,2.248l1.165,4.227l7.635-2.104l0.446,1.619l-7.635,2.105   l1.295,4.697l8.474-2.336l0.448,1.629L366.025,630.231z"
   id="path447" />
	<path
   d="M380.794,626.004l-4.718-13.517l5.993-2.092c1.205-0.42,2.163-0.618,2.875-0.595c0.712,0.024,1.362,0.278,1.952,0.762   c0.589,0.484,1.014,1.098,1.273,1.842c0.335,0.959,0.307,1.876-0.085,2.75s-1.204,1.627-2.439,2.258   c0.553,0.063,0.991,0.161,1.314,0.297c0.689,0.297,1.394,0.724,2.111,1.279l3.636,2.858l-2.25,0.785l-2.771-2.188   c-0.806-0.629-1.452-1.1-1.94-1.412s-0.896-0.508-1.224-0.587c-0.327-0.078-0.642-0.104-0.941-0.074   c-0.218,0.027-0.558,0.122-1.019,0.282l-2.074,0.725l2.095,6.002L380.794,626.004z M379.947,617.829l3.845-1.342   c0.817-0.286,1.428-0.594,1.829-0.923c0.402-0.33,0.658-0.723,0.769-1.179c0.109-0.455,0.089-0.901-0.063-1.338   c-0.224-0.64-0.639-1.084-1.247-1.334c-0.607-0.249-1.412-0.199-2.414,0.15l-4.278,1.492L379.947,617.829z"
   id="path449" />
	<path
   d="M392.926,614.277c-0.948-2.179-1.105-4.139-0.472-5.881c0.633-1.742,1.875-3.016,3.726-3.821   c1.212-0.527,2.431-0.713,3.655-0.558s2.318,0.64,3.279,1.453s1.728,1.877,2.299,3.19c0.58,1.331,0.829,2.639,0.75,3.924   c-0.08,1.284-0.495,2.411-1.245,3.38s-1.694,1.701-2.835,2.197c-1.235,0.538-2.47,0.721-3.703,0.547   c-1.232-0.173-2.324-0.667-3.275-1.481S393.428,615.43,392.926,614.277z M394.729,613.524c0.688,1.582,1.656,2.644,2.903,3.184   s2.512,0.53,3.795-0.028c1.308-0.568,2.184-1.496,2.628-2.783s0.3-2.775-0.436-4.465c-0.466-1.068-1.052-1.923-1.76-2.563   s-1.506-1.027-2.392-1.163c-0.887-0.137-1.763-0.017-2.628,0.36c-1.23,0.535-2.104,1.418-2.623,2.648   C393.698,609.946,393.868,611.549,394.729,613.524z"
   id="path451" />
	<path
   d="M408.45,607.377c-1.12-2.096-1.434-4.037-0.942-5.824c0.492-1.787,1.629-3.156,3.408-4.107   c1.166-0.623,2.366-0.905,3.6-0.849s2.361,0.452,3.385,1.187c1.023,0.733,1.872,1.732,2.548,2.996   c0.684,1.28,1.037,2.563,1.061,3.851s-0.301,2.443-0.971,3.469c-0.669,1.026-1.553,1.832-2.649,2.418   c-1.188,0.635-2.404,0.915-3.647,0.841c-1.242-0.074-2.37-0.479-3.384-1.215C409.845,609.407,409.042,608.485,408.45,607.377z    M410.187,606.482c0.813,1.521,1.862,2.502,3.148,2.94s2.547,0.328,3.781-0.332c1.258-0.672,2.057-1.667,2.396-2.985   s0.076-2.79-0.792-4.415c-0.55-1.027-1.202-1.832-1.959-2.413c-0.758-0.581-1.583-0.904-2.478-0.969s-1.758,0.126-2.591,0.57   c-1.183,0.632-1.983,1.582-2.402,2.851C408.873,602.997,409.171,604.582,410.187,606.482z"
   id="path453" />
	<path
   d="M427.607,604.797l-7.731-12.05l1.636-1.05l12.399,5.4l-6.07-9.461l1.529-0.98l7.73,12.049l-1.636,1.05l-12.403-5.408   l6.074,9.469L427.607,604.797z"
   id="path455" />
</g>
<g
   id="g457">
	<path
   d="M7.434,80.861c1.038-1.07,2.463-2.381,4.435-3.835c2.424-1.787,4.613-2.532,6.488-2.349   c1.707,0.133,3.346,1.056,4.592,2.747c1.268,1.719,1.757,3.445,1.525,5.137c-0.277,2.336-1.871,4.598-4.266,6.364   c-0.732,0.54-1.43,1.011-2.098,1.285l5.609,7.607l-2.451,1.808L7.434,80.861z M16.636,88.21c0.64-0.253,1.357-0.696,2.174-1.298   c2.959-2.181,3.702-4.948,1.771-7.568c-1.849-2.507-4.518-2.409-7.222-0.415c-1.07,0.789-1.825,1.476-2.165,1.9L16.636,88.21z"
   id="path459" />
	<path
   d="M32.556,82.082l2.432,7.427l-2.535,1.87l-7.549-23.745l2.958-2.181l20.48,14.21l-2.62,1.932l-6.432-4.477L32.556,82.082z    M37.37,75.575l-5.89-4.095c-1.337-0.927-2.45-1.848-3.541-2.738l-0.057,0.042c0.549,1.334,1.091,2.718,1.576,4.143l2.192,6.865   L37.37,75.575z"
   id="path461" />
	<path
   d="M39.579,56.811L53.58,75.799l-2.45,1.808L37.128,58.619L39.579,56.811z"
   id="path463" />
	<path
   d="M68.258,64.978l-5.519-2.411c-2.17-0.879-3.559-1.464-4.961-2.127l-0.056,0.042c0.274,1.494,0.487,2.902,0.728,5.292   l0.792,5.852l-2.817,2.078l-1.279-13.886l-12.496-5.269l2.846-2.098l5.789,2.602c1.618,0.72,2.86,1.283,4.115,1.924l0.084-0.062   c-0.296-1.522-0.461-2.749-0.65-4.479l-0.689-6.362l2.818-2.078l1.037,13.499l13.104,5.386L68.258,64.978z"
   id="path465" />
	<path
   d="M27.827,111.38c0.741-0.764,1.759-1.7,3.168-2.738c1.729-1.276,3.293-1.809,4.632-1.677   c1.219,0.095,2.388,0.754,3.278,1.961c0.904,1.227,1.254,2.46,1.09,3.668c-0.199,1.668-1.336,3.283-3.047,4.543   c-0.523,0.386-1.021,0.722-1.496,0.918l4.004,5.432l-1.75,1.291L27.827,111.38z M34.398,116.627   c0.456-0.181,0.969-0.497,1.552-0.927c2.113-1.558,2.645-3.533,1.264-5.403c-1.319-1.791-3.225-1.721-5.156-0.297   c-0.764,0.563-1.303,1.054-1.545,1.357L34.398,116.627z"
   id="path467" />
	<path
   d="M50.745,105.351l-5.271,3.886l3.604,4.888l5.874-4.331l1.082,1.469l-7.623,5.622l-9.998-13.559l7.322-5.399l1.083,1.468   l-5.571,4.108l3.158,4.285l5.271-3.886L50.745,105.351z"
   id="path469" />
	<path
   d="M57.358,103.704l1.736,5.303l-1.811,1.335l-5.391-16.956l2.112-1.557l14.624,10.147l-1.871,1.379l-4.592-3.197   L57.358,103.704z M60.796,99.058l-4.205-2.924c-0.955-0.663-1.75-1.319-2.529-1.955l-0.04,0.029   c0.393,0.953,0.778,1.941,1.126,2.958l1.564,4.902L60.796,99.058z"
   id="path471" />
	<path
   d="M79.472,93.299c-0.406,0.797-1.441,2.088-3.092,3.304c-3.822,2.818-8.493,2.505-11.771-1.94   c-3.129-4.245-2.373-9.243,1.831-12.342c1.69-1.246,3.022-1.67,3.663-1.771l0.631,1.74c-0.9,0.168-2.025,0.624-3.151,1.455   c-3.179,2.343-3.792,5.933-1.167,9.493c2.447,3.319,5.931,4.042,9.23,1.61c1.065-0.786,1.988-1.808,2.44-2.669L79.472,93.299z"
   id="path473" />
	<path
   d="M84.327,80.589l-5.271,3.886l3.604,4.888l5.874-4.331l1.083,1.469l-7.624,5.622l-9.997-13.559l7.322-5.399l1.083,1.468   l-5.572,4.108l3.158,4.285l5.271-3.886L84.327,80.589z"
   id="path475" />
</g>
<g
   id="g477">
	<path
   d="M513.775,27.061c1.328,0.676,3.002,1.65,4.973,3.105c2.422,1.789,3.779,3.662,4.157,5.508   c0.376,1.67-0.022,3.507-1.271,5.197c-1.268,1.717-2.773,2.694-4.459,2.973c-2.313,0.424-4.945-0.432-7.338-2.199   c-0.732-0.541-1.388-1.068-1.848-1.625l-5.613,7.604l-2.45-1.81L513.775,27.061z M509.467,38.021   c0.432,0.536,1.066,1.091,1.883,1.694c2.957,2.184,5.818,2.078,7.752-0.541c1.852-2.506,0.971-5.027-1.732-7.023   c-1.07-0.789-1.949-1.309-2.454-1.508L509.467,38.021z"
   id="path479" />
	<path
   d="M520.018,51.425l-6.379,4.515l-2.534-1.871l20.463-14.217l2.956,2.183l-7.537,23.761l-2.619-1.934l2.381-7.467   L520.018,51.425z M527.654,54.105l2.176-6.835c0.492-1.551,1.043-2.885,1.572-4.19l-0.057-0.043   c-1.113,0.918-2.275,1.845-3.494,2.729l-5.913,4.119L527.654,54.105z"
   id="path481" />
	<path
   d="M543.684,52.018l-5.771-4.262l1.538-2.084l14.051,10.376l-1.538,2.083l-5.801-4.283l-12.477,16.896l-2.478-1.83   L543.684,52.018z"
   id="path483" />
	<path
   d="M555.424,57.859c1.427,0.662,3.305,1.83,4.994,3.078c2.619,1.934,3.954,3.66,4.348,5.604   c0.333,1.553-0.088,3.242-1.17,4.707c-1.851,2.506-4.654,3.002-7.152,2.201l-0.063,0.085c1.09,1.589,0.965,3.585-0.041,5.888   c-1.334,3.105-2.236,5.268-2.382,6.291l-2.534-1.871c0.106-0.792,0.869-2.709,2.08-5.47c1.371-3.034,1.086-4.769-1.077-6.496   l-2.309-1.705l-6.071,8.223l-2.45-1.81L555.424,57.859z M551.49,68.313l2.506,1.852c2.619,1.934,5.341,1.725,6.941-0.443   c1.81-2.45,0.826-4.831-1.744-6.771c-1.183-0.873-2.109-1.385-2.588-1.563L551.49,68.313z"
   id="path485" />
	<path
   d="M573.209,70.602L559.193,89.58l-2.449-1.81l14.015-18.979L573.209,70.602z"
   id="path487" />
	<path
   d="M579.871,91.099l-7.377-5.448l-5.054,6.843l8.223,6.071l-1.518,2.057l-10.673-7.882l14.016-18.979l10.249,7.569   l-1.519,2.055l-7.799-5.76l-4.43,5.998l7.378,5.447L579.871,91.099z"
   id="path489" />
	<path
   d="M474.583,43.451l7.298,5.389l-1.083,1.469l-5.549-4.098l-3.325,4.503l5.127,3.786l-1.07,1.447l-5.127-3.785l-4.527,6.133   l-1.75-1.293L474.583,43.451z"
   id="path491" />
	<path
   d="M478.142,60.432l-4.556,3.225l-1.81-1.337l14.611-10.151l2.11,1.559l-5.382,16.967l-1.87-1.381l1.7-5.332L478.142,60.432z    M483.594,62.346l1.554-4.88c0.352-1.107,0.745-2.061,1.122-2.993l-0.04-0.029c-0.794,0.656-1.624,1.316-2.495,1.947l-4.223,2.941   L483.594,62.346z"
   id="path493" />
	<path
   d="M495.043,60.859l-4.121-3.044l1.099-1.488l10.032,7.409l-1.098,1.488l-4.143-3.059l-8.908,12.063l-1.77-1.307   L495.043,60.859z"
   id="path495" />
	<path
   d="M505.313,66.143l-4.186,5.67l6.554,4.841l4.187-5.67l1.77,1.306l-10.008,13.553l-1.769-1.307l4.692-6.354l-6.555-4.84   l-4.691,6.354l-1.75-1.293l10.007-13.551L505.313,66.143z"
   id="path497" />
	<path
   d="M518.378,86.914l-5.269-3.891l-3.607,4.886l5.871,4.335l-1.084,1.469l-7.621-5.627l10.008-13.553l7.318,5.405l-1.084,1.468   l-5.568-4.113l-3.163,4.283l5.269,3.891L518.378,86.914z"
   id="path499" />
	<path
   d="M526.437,82.021c1.019,0.473,2.359,1.307,3.565,2.198c1.871,1.38,2.824,2.613,3.104,4.001   c0.237,1.107-0.063,2.314-0.835,3.36c-1.321,1.79-3.323,2.145-5.107,1.573l-0.045,0.061c0.779,1.133,0.689,2.559-0.027,4.203   c-0.954,2.217-1.598,3.762-1.701,4.492l-1.811-1.336c0.076-0.566,0.621-1.935,1.486-3.906c0.979-2.166,0.774-3.404-0.77-4.638   l-1.648-1.218l-4.336,5.871l-1.75-1.291L526.437,82.021z M523.628,89.486l1.789,1.32c1.87,1.381,3.813,1.232,4.957-0.316   c1.292-1.749,0.589-3.449-1.245-4.834c-0.845-0.624-1.508-0.989-1.849-1.116L523.628,89.486z"
   id="path501" />
	<path
   d="M537.39,89.83l1.749,1.292l-8.922,12.083l5.79,4.276l-1.084,1.468l-7.54-5.567L537.39,89.83z"
   id="path503" />
	<path
   d="M542.215,107.747l-4.557,3.224l-1.809-1.336l14.611-10.152l2.11,1.559l-5.382,16.967l-1.87-1.381l1.7-5.332   L542.215,107.747z M547.666,109.661l1.555-4.881c0.352-1.106,0.744-2.06,1.121-2.993l-0.039-0.029   c-0.795,0.656-1.625,1.316-2.495,1.948l-4.222,2.94L547.666,109.661z"
   id="path505" />
	<path
   d="M549.183,119.48l10.007-13.553l1.91,1.411l-0.72,10.063c-0.167,2.33-0.438,4.337-0.819,6.199l0.056,0.01   c1.175-1.928,2.353-3.606,3.912-5.718l4.187-5.67l1.648,1.218l-10.007,13.552l-1.769-1.307l0.774-10.054   c0.169-2.205,0.407-4.422,0.808-6.395l-0.076-0.025c-1.161,1.783-2.323,3.442-3.986,5.693l-4.275,5.791L549.183,119.48z"
   id="path507" />
	<path
   d="M572.289,115.881c1.184,0.627,2.541,1.441,3.928,2.465c2.514,1.856,3.872,3.762,4.242,5.743   c0.389,1.997-0.064,4.084-1.684,6.276c-1.633,2.211-3.652,3.516-5.84,3.827c-2.203,0.331-4.799-0.529-7.432-2.474   c-1.247-0.922-2.248-1.754-3.059-2.508L572.289,115.881z M565.189,129.156c0.383,0.407,1.012,0.902,1.695,1.406   c3.739,2.762,7.314,2.17,10.017-1.488c2.38-3.182,2.07-6.549-1.629-9.281c-0.905-0.668-1.647-1.092-2.185-1.333L565.189,129.156z"
   id="path509" />
</g>
<g
   id="g511">
	<path
   d="M247.739,2.766h-7.176v-2.59h17.467v2.59h-7.21v21.002h-3.081V2.766z"
   id="path513" />
	<path
   d="M260.653,0.49c1.54-0.315,3.746-0.49,5.846-0.49c3.255,0,5.355,0.595,6.826,1.925c1.19,1.05,1.855,2.66,1.855,4.48   c0,3.115-1.96,5.181-4.446,6.021v0.105c1.82,0.63,2.905,2.311,3.465,4.761c0.77,3.29,1.33,5.565,1.82,6.476h-3.15   c-0.385-0.7-0.91-2.695-1.575-5.636c-0.7-3.255-1.96-4.48-4.726-4.585h-2.87v10.221h-3.045V0.49z M263.699,11.236h3.115   c3.255,0,5.321-1.785,5.321-4.48c0-3.045-2.206-4.375-5.426-4.411c-1.47,0-2.52,0.14-3.01,0.28V11.236z"
   id="path515" />
	<path
   d="M283.473,16.347l-2.45,7.421h-3.15l8.016-23.592h3.675l8.051,23.592h-3.255l-2.521-7.421H283.473z M291.209,13.967   l-2.31-6.791c-0.525-1.54-0.875-2.94-1.225-4.305h-0.07c-0.35,1.4-0.735,2.835-1.19,4.27l-2.31,6.826H291.209z"
   id="path517" />
	<path
   d="M304.403,23.768l-7.701-23.592h3.29l3.676,11.621c1.016,3.185,1.891,6.056,2.521,8.821h0.069   c0.666-2.73,1.646-5.706,2.695-8.786l3.991-11.656h3.255l-8.436,23.592H304.403z"
   id="path519" />
	<path
   d="M320.573,16.347l-2.45,7.421h-3.15l8.016-23.592h3.676l8.051,23.592h-3.256l-2.52-7.421H320.573z M328.309,13.967   l-2.31-6.791c-0.525-1.54-0.875-2.94-1.226-4.305h-0.07c-0.35,1.4-0.734,2.835-1.189,4.27l-2.311,6.826H328.309z"
   id="path521" />
	<path
   d="M341.223,0.175v23.592h-3.045V0.175H341.223z"
   id="path523" />
	<path
   d="M346.543,0.175h3.045v21.037h10.082v2.555h-13.127V0.175z"
   id="path525" />
	<path
   d="M272.462,53.768l-4.274-16.846h2.299l2,8.523c0.5,2.099,0.95,4.199,1.25,5.823h0.05c0.275-1.674,0.8-3.674,1.375-5.849   l2.25-8.498h2.274l2.049,8.548c0.475,2,0.925,3.999,1.175,5.773h0.05c0.35-1.85,0.825-3.724,1.35-5.824l2.224-8.498h2.225   l-4.774,16.846h-2.274l-2.125-8.773c-0.525-2.149-0.875-3.799-1.1-5.499h-0.05c-0.3,1.675-0.675,3.324-1.3,5.499l-2.399,8.773   H272.462z"
   id="path527" />
	<path
   d="M305.259,45.17c0,5.798-3.524,8.873-7.823,8.873c-4.449,0-7.573-3.449-7.573-8.548c0-5.349,3.324-8.848,7.823-8.848   C302.285,36.647,305.259,40.171,305.259,45.17z M292.187,45.445c0,3.599,1.95,6.823,5.374,6.823c3.449,0,5.398-3.174,5.398-6.999   c0-3.349-1.749-6.848-5.373-6.848C293.987,38.421,292.187,41.746,292.187,45.445z"
   id="path529" />
	<path
   d="M308.087,37.146c1.1-0.225,2.675-0.35,4.175-0.35c2.324,0,3.823,0.425,4.873,1.375c0.85,0.75,1.324,1.899,1.324,3.199   c0,2.225-1.398,3.699-3.174,4.299v0.075c1.3,0.45,2.074,1.649,2.475,3.399c0.55,2.35,0.949,3.974,1.3,4.624h-2.249   c-0.275-0.5-0.65-1.924-1.125-4.024c-0.5-2.325-1.4-3.199-3.375-3.274h-2.049v7.298h-2.175V37.146z M310.262,44.82h2.225   c2.324,0,3.799-1.275,3.799-3.199c0-2.174-1.574-3.125-3.874-3.149c-1.05,0-1.8,0.1-2.149,0.2V44.82z"
   id="path531" />
	<path
   d="M321.537,36.922h2.175v8.123h0.075c0.449-0.65,0.899-1.25,1.324-1.8l5.148-6.323h2.699l-6.098,7.148l6.573,9.698h-2.575   l-5.548-8.273l-1.6,1.85v6.423h-2.175V36.922z"
   id="path533" />
</g>
</svg>