<svg xmlns="http://www.w3.org/2000/svg" width="600" height="601.708"><g transform="translate(-115.66 296.922)"><circle r="231.317" cy="-33.896" cx="415.926" fill="#fff"/><path d="M415.908-265.2C288.22-265.2 184.61-161.61 184.61-33.92c0 127.688 103.61 231.278 231.298 231.278 127.678 0 231.328-103.59 231.328-231.278 0-127.688-103.65-231.279-231.328-231.279zm0 9.5c122.419 0 221.8 99.39 221.8 221.779 0 122.488-99.381 221.779-221.8 221.779-122.428 0-221.779-99.29-221.779-221.78 0-122.388 99.35-221.778 221.78-221.778z" fill="#06376c"/><path d="M415.908-246.601c-117.389 0-212.65 95.29-212.65 212.68 0 117.389 95.261 212.68 212.65 212.68 117.4 0 212.68-95.291 212.68-212.68 0-117.39-95.28-212.68-212.68-212.68zm-.1 31.597c99.93 0 181.033 81.092 181.033 181.083 0 99.99-81.102 181.083-181.033 181.083-99.93 0-181.033-81.093-181.033-181.083s81.102-181.083 181.033-181.083z" fill="#06376c"/><path d="M230.397 39.313a204.063 204.063 0 0 0 8.687 19.663h353.453a204.064 204.064 0 0 0 8.686-19.663zm16.33 33.433c4.203 6.916 8.84 13.535 13.804 19.865H571.09c4.964-6.33 9.6-12.949 13.804-19.865zm25.386 33.4a201.601 201.601 0 0 0 21.918 20.167H537.59a201.602 201.602 0 0 0 21.918-20.168z" fill="#06376c"/><path d="M311.188 14.174l-1.87-5.8-8.079 2.6-1.43-4.4c-.88-2.699 1.3-3.799 3.49-4.699.6-.3 2.75-1.1 3.33-1.8l-1.86-5.699c-.55 1-3.79 2.2-4.7 2.5-2.05.9-4.47 2.5-4.26 5h-.1c-1.66-2-4.3-2.4-6.699-1.6-4.47 1.4-4.99 5.799-3.72 9.799l3.68 11.299zm-19.428-.1l-1.5-4.6c-.52-1.6-.2-3.2 1.45-3.7 1.68-.6 2.91.101 3.48 1.8l1.57 4.9zm12.429-21.598l-2.31-18.798-5.19.7 1.57 12.699-4.41.5-1.4-11.3-4.669.6 1.4 11.3-4.06.5-1.52-12.4-4.829.6 2.26 18.399zm-2.72-21.298l.21-6-7.77-.3.17-4.999c.18-5.1-1.96-8.5-7.739-8.7-5.52-.199-7.649 3.8-7.799 8.2l-.39 10.999zm-18.238-6.7l.14-4.099c.1-1.8 1-3.2 3.18-3.1 2.129.1 2.859 1.5 2.799 3.4l-.15 4zm-7.49-30.996l4.03 4.2.89-3.9-3.59-6zm8.47-8.7l-1.37 6 13.688 3.1c2.93.7 4.18 2.1 3.51 5-.67 2.899-2.41 3.699-5.34 2.999l-13.688-3.2-1.37 5.9 13.339 3.1c6.59 1.5 10.569-.7 12.159-7.6 1.59-6.9-1-10.699-7.59-12.199zm16.898-7.599l2.06-4.4c.77-1.7 2-2.7 3.86-1.8 1.75.8 1.81 2.3.99 4l-2.05 4.4zm6.7 9.8l4.739-10.2c2.11-4.5 2.3-8.899-2.74-11.299-2.4-1.1-5-.6-6.7 1.4-.1-2.1-1.07-3.9-2.969-4.8-4.41-2.1-7.22 1.5-8.86 5.1l-4.619 9.9zm-14.31-13.4l1.99-4.2c.53-1.199 1.55-2.099 3.09-1.299 1.51.7 1.41 2.2.96 3.1l-1.99 4.3zm24.248-6.999l9.97-13.699-4.23-3.1-6.4 8.8-14.638-10.599-3.57 4.9zm11.34-15.198l3.989-4.6-17.608-15.299-3.99 4.6zm12.878-32.697c-3.74-4.2-9.979-3.1-13.829.1-5.409 4.6-5.439 11.599-1.1 16.798 4.35 5.2 11.32 6.4 16.729 1.9 4.53-3.8 5.64-9.399 2.02-14.199l-4.65 3.9c1.54 2.2 1.34 4.5-.83 6.3-3.01 2.6-6.39.9-8.609-1.8-2.23-2.6-3.3-6.3-.3-8.8 1.95-1.6 4.15-1.8 5.92-.3zm11.7-8.9v-.1l6.218 5.9-4.63 2.6zm-2.12 20.399l5.459-3-.74-4.4 7.12-3.9 3.279 2.9 5.54-3-18.939-16.198-5.4 3zm31.396-14.999l9.78-2.2c6.899-1.6 10.208-6.6 8.489-14.098-1.62-7-6.77-10.3-13.74-8.7l-9.778 2.3zm1.85-18.998l2.8-.6c4.05-1 6.74.5 7.69 4.7 1.049 4.499-.33 6.699-4.79 7.799l-2.8.7zm21.748 14.598l18.918-.4-.1-5.199-12.839.2-.1-4.4 11.43-.2-.101-4.7-11.429.2-.1-4.099 12.509-.2-.1-4.9-18.579.3zm56.385-7.699c1.3-5.5-3.14-9.999-8-11.299-6.819-1.8-12.628 2.2-14.378 8.7-1.75 6.599 1.27 12.998 8.09 14.798 5.709 1.5 10.878-.7 12.758-6.5l-5.88-1.5c-.91 2.5-2.91 3.6-5.659 2.9-3.78-1-4.34-4.7-3.44-8.099.89-3.3 3.24-6.3 7.03-5.3 2.46.7 3.91 2.4 3.61 4.7zm14.038 4.7l.1.1-1.41 8.4-4.719-2.4zm-18.138 9.699l5.57 2.9 3.2-3.1 7.249 3.7-.61 4.399 5.64 2.9 2.819-24.798-5.5-2.8zm32.787 7.3l3.84 2.999c1.44 1.1 2.15 2.5.88 4.1-1.18 1.6-2.66 1.3-4.18.1l-3.84-3zm-11.089 4.299l8.84 6.9c3.939 3.099 8.198 4.199 11.618-.101 1.63-2.1 1.75-4.8.23-6.9 2.01.4 4.03-.1 5.32-1.8 3-3.799.17-7.399-3.04-9.798l-8.6-6.7zm16.259-11l3.71 2.9c1 .8 1.61 2 .57 3.3-1.03 1.4-2.5.9-3.33.3l-3.71-2.9zm9.779 17c-5.1 4.399-6.45 11.098-1.63 16.698 4.83 5.499 11.619 5.1 16.728.7 5.1-4.5 6.45-11.1 1.63-16.699-4.83-5.5-11.619-5.1-16.728-.7zm3.99 4.599c2.619-2.3 6.219-3.4 8.788-.5 2.57 3 .94 6.4-1.67 8.699-2.61 2.2-6.209 3.4-8.789.4-2.57-2.9-.94-6.3 1.67-8.6zm37.726 39.196l-2.68-5.7-17.658 3.2v-.1l13.788-11.399-2.68-5.8-18.028 16.5 2.95 6.399zm-21.258 10.699l4.58 18.398 5.069-1.3-3.1-12.398 4.31-1.1 2.77 11.099 4.56-1.2-2.77-11.1 3.969-1 3.02 12.2 4.73-1.2-4.5-17.998zm5.34 20.998l.22 6.1 8.488-.3.16 4.599c.1 2.8-2.31 3.3-4.65 3.5-.65.1-2.939.3-3.699.9l.21 5.999c.82-.9 4.24-1.1 5.22-1.2 2.22-.3 4.97-1.1 5.47-3.6h.1c1.03 2.4 3.459 3.5 5.969 3.5 4.71-.2 6.43-4.3 6.28-8.4l-.41-11.898zm18.667 5.4l.16 4.9c.1 1.699-.67 3.099-2.4 3.099-1.77.1-2.78-.9-2.84-2.7l-.18-5.1zm-18.218 17.098l-1.23 9.999c-.86 7 2.7 11.799 10.29 12.799 7.159.8 11.998-2.9 12.868-10l1.22-9.898zm17.219 8.3l-.35 2.799c-.5 4.1-2.82 6.2-7.04 5.6-4.64-.5-6.2-2.6-5.73-7.2l.35-2.8zM528.518-3.125l-5.85 17.998 4.97 1.6 3.97-12.199 4.229 1.4-3.54 10.799 4.48 1.5 3.53-10.9 3.89 1.3-3.87 11.9 4.629 1.5 5.74-17.699z" fill="#1f1a17"/><path d="M494.778 9.112H337.06l39.43-68.293 39.43-68.293 39.429 68.293z" fill="#06376c"/><g fill="#fcd116" stroke="#000" stroke-width="1.129"><path d="M415.922-296.358a9.687 9.687 0 0 0-9.687 9.688 9.687 9.687 0 0 0 9.687 9.687 9.687 9.687 0 0 0 9.688-9.687 9.687 9.687 0 0 0-9.688-9.688zm0 5.089a4.606 4.606 0 0 1 4.6 4.599 4.606 4.606 0 0 1-4.6 4.598c-2.534 0-4.56-2.064-4.56-4.598 0-2.535 2.026-4.6 4.56-4.6z" stroke-width="1.12889839"/><path d="M410.726-276.983c.196 3.892-4.28 11.816-13.304 11.816m42.045.006h-47.089c5.475 0 15.696-7.031 15.696-11.82h15.697c0 4.906 9.925 11.82 15.696 11.82zm-24.701-11.826s-.986 11.822-8.526 11.822m9.682 70.592l30.39-70.587h-60.78zm-18.499-70.586l18.5 70.577m-10.13-70.577l10.13 70.581m-25.119-70.581l25.12 70.58" stroke-width="1.12889839"/></g><path d="M490.038 241.319a27.682 27.682 0 0 0-10.875 2.794l-39.056 19.225c-10.832 5.327-18.334 18.153-12.592 29.83 5.743 11.677 20.48 13.576 31.312 8.249l39.056-19.191c10.832-5.327 18.3-18.187 12.558-29.864-3.948-8.028-12.146-11.43-20.403-11.043zm1.515 10.571c4.14.089 7.754 1.921 9.36 5.185 2.568 5.223-.926 12.236-7.744 15.589l-39.022 19.191c-6.818 3.353-14.502 1.822-17.07-3.4-2.568-5.223.892-12.236 7.71-15.589l39.056-19.191c2.557-1.258 5.226-1.838 7.71-1.785zM339.58 241.313c-7.465.283-14.592 3.745-18.18 11.044-5.743 11.677 1.759 24.536 12.591 29.864l39.022 19.19c10.833 5.328 25.57 3.43 31.312-8.248 5.742-11.677-1.726-24.503-12.558-29.83l-39.056-19.225a27.64 27.64 0 0 0-13.13-2.795zm.707 10.572c2.484-.053 5.187.527 7.744 1.785l39.022 19.19c6.818 3.354 10.312 10.366 7.744 15.59-2.569 5.222-10.252 6.753-17.07 3.4l-39.056-19.191c-6.818-3.353-10.278-10.366-7.71-15.589 1.605-3.264 5.186-5.096 9.326-5.185z" fill="#fcd116" stroke="#000" stroke-width="1.077"/><path d="M385.055 278.83h61.038c3.996 0 5.873 2.845 5.873 5.481 0 2.547-1.845 5.482-5.873 5.482h-61.038c-3.871 0-5.176-2.948-5.176-5.482 0-2.623 1.593-5.481 5.176-5.481z" fill="#fcd116" stroke="#000" stroke-width="1.129"/><g fill="#00923f" stroke="#00923f" stroke-width="1.129"><path d="M533.303 250.321l1.194 6.024c72.2-38.54 129.579-101.39 159.581-170.099-26.973 52.547-76.916 119.744-160.775 164.075z" stroke-width="1.12889839"/><path d="M560.316 234.203c-6.392-22.62 2.77-37.014 14.851-50.166-4.956 19.362-9.826 24.822-14.85 50.166zm10.766.043c20.847 6.135 44.654-.188 63.244-20.679-18.91 8.519-41.406 18.076-63.244 20.679zm8.885-13.694c-1.77-32.866 4.904-45.872 22.515-68.086-7.662 24.732-14.407 48.444-22.515 68.086zm16.56-5.639c17.247 2.61 44.95-4.615 61.516-25.114-15.893 9.223-40.837 15.64-61.517 25.114zm10.873-16.275c-3.624-33.233 3.51-52.552 21.954-72.718-6.128 27.017-17.346 48.322-21.954 72.718zm14.668-7.566c40.387.272 51.965-15.82 64.613-36.428-21.023 21.808-32.281 20.222-64.613 36.428zm8.959-15.75c-2.3-21.676 4.468-54.036 25.759-74.923-7.678 30.36-17.03 47.69-25.76 74.923zm15.566-10.867c25.47 2.785 43.536-19.211 52.177-39.902-19.497 18.156-30.05 29.377-52.177 39.902zm6.438-14.668c.34-23.986 13.648-52.356 33.425-69.698-9.794 23.292-15.486 33.678-33.425 69.698zm14.71-14.328c19.932-16.45 24.236-26.492 40.216-44.92-2.35 15.753-20.678 47.29-40.216 44.92zm17.78-32.553c7.228-27.587 15.876-34.298 29.575-59.283-5.17 25.776-5.658 33.157-29.576 59.283z" stroke-linejoin="round" stroke-width="1.12889839"/></g><g fill="#00923f" stroke="#00923f" stroke-width="1.129"><path d="M298.018 249.622l-1.194 6.023c-72.2-38.54-129.578-101.39-159.58-170.099 26.972 52.547 76.916 119.744 160.774 164.076z" stroke-width="1.12889839"/><path d="M271.005 233.503c6.392-22.62-2.77-37.014-14.85-50.166 4.955 19.363 9.825 24.822 14.85 50.166zm-10.766.043c-20.847 6.135-44.653-.188-63.244-20.679 18.91 8.519 41.407 18.076 63.244 20.679zm-8.885-13.694c1.77-32.866-4.904-45.872-22.515-68.086 7.663 24.732 14.407 48.444 22.515 68.086zm-16.559-5.639c-17.248 2.61-44.95-4.615-61.517-25.113 15.894 9.222 40.837 15.638 61.517 25.113zm-10.873-16.275c3.623-33.233-3.511-52.552-21.954-72.718 6.128 27.017 17.345 48.323 21.954 72.718zm-14.668-7.566c-40.387.272-51.966-15.82-64.613-36.428 21.022 21.808 32.28 20.222 64.613 36.428zm-8.96-15.75c2.3-21.676-4.467-54.036-25.758-74.923 7.677 30.36 17.03 47.69 25.759 74.923zm-15.566-10.867c-25.47 2.785-43.535-19.211-52.176-39.902 19.497 18.157 30.049 29.377 52.176 39.902zm-6.437-14.667c-.34-23.987-13.649-52.357-33.426-69.699 9.794 23.292 15.486 33.678 33.426 69.699zm-14.71-14.329c-19.933-16.45-24.236-26.492-40.216-44.92 2.35 15.753 20.678 47.29 40.216 44.92zm-17.78-32.553c-7.229-27.587-15.876-34.298-29.576-59.283 5.17 25.777 5.659 33.157 29.576 59.283z" stroke-linejoin="round" stroke-width="1.12889839"/></g><g fill="#fcd116" stroke="#fcd116" stroke-width="28222.221"><path d="M208.63-196.53l-10.001 7.236 3.836 11.73-9.97-7.273-9.97 7.273 3.835-11.73-9.999-7.237 12.342.024 3.792-11.745 3.791 11.745zm-28.522 45.63l-10 7.236 3.835 11.73-9.97-7.272-9.97 7.273 3.836-11.73-10-7.237 12.343.024 3.791-11.745 3.791 11.745zm-16.956 49.031l-10 7.236 3.835 11.73-9.97-7.272-9.97 7.273 3.836-11.73-10-7.237 12.343.024 3.791-11.745 3.791 11.745zm-7.866 50.875l-10 7.236 3.835 11.73-9.97-7.273-9.97 7.273 3.836-11.73-9.999-7.236 12.342.023 3.791-11.744 3.792 11.744zm8.019 52.112l-10.001 7.236 3.837 11.73-9.97-7.273-9.97 7.274 3.835-11.731-9.999-7.236 12.342.024 3.791-11.745 3.791 11.745zM623.228-196.53l10 7.236-3.835 11.73 9.97-7.273 9.97 7.273-3.836-11.73 10-7.237-12.343.024-3.791-11.745-3.791 11.745zm28.522 45.63l10 7.236-3.836 11.73 9.97-7.272 9.97 7.273-3.835-11.73 9.999-7.237-12.342.024-3.792-11.745-3.79 11.745zm16.956 49.031l10 7.236-3.836 11.73 9.97-7.272 9.97 7.273-3.836-11.73 10-7.237-12.342.024-3.792-11.745-3.79 11.745zm7.866 50.875l10 7.236-3.836 11.73 9.97-7.273 9.97 7.273-3.835-11.73 9.998-7.236-12.341.023-3.792-11.744-3.791 11.744zm-8.02 52.112l10.002 7.236-3.837 11.73 9.97-7.273 9.97 7.274-3.835-11.731 9.999-7.236-12.342.024-3.792-11.745-3.79 11.745z" stroke-width="1.12889839"/></g><path d="M402.852-58.76c-9.083.345-7.79-7.487-6.137-12.117 5.504 2.588 10.298 7.328 6.137 12.118zM419.218-97.472c-12.656 7.294-22.567 21.63-8.498 34.306l3.148-5.193 5.35 6.138c1.133-6.937 8.887-12.18 6.767-20.458 0 0-1.731 2.99-4.564 2.832.644-3.69-2.699-10.052-2.203-17.625z" fill="#fff" fill-rule="evenodd" stroke="#06376c" stroke-width="2.155"/><rect rx="2.072" y="-51.639" x="386.976" ry="2.072" height="8.908" width="57.834" fill="#fff"/><path d="M411.108-16.606c0-3.097-.08-14.58-11.733-14.58v-4.671h33.037v4.794c-11.15 0-11.343 10.949-11.343 14.458V9.882h-9.961z" fill="#fff"/><rect rx="4.707" y="-16.789" x="405.993" ry="4.707" height="9.414" width="19.801" fill="#fff" stroke="#06376c" stroke-width="4.31"/><path d="M434.64-77.8c4.128 16.545-.568 17.677-4.091 19.356-9.028-2.615-5.34-15.118 4.091-19.357z" fill="#fff" fill-rule="evenodd" stroke="#06376c" stroke-width="2.155"/></g></svg>