<?xml version="1.0" encoding="UTF-8" standalone="no"?>
<svg
   xmlns:dc="http://purl.org/dc/elements/1.1/"
   xmlns:cc="http://creativecommons.org/ns#"
   xmlns:rdf="http://www.w3.org/1999/02/22-rdf-syntax-ns#"
   xmlns:svg="http://www.w3.org/2000/svg"
   xmlns="http://www.w3.org/2000/svg"
   xmlns:sodipodi="http://sodipodi.sourceforge.net/DTD/sodipodi-0.dtd"
   xmlns:inkscape="http://www.inkscape.org/namespaces/inkscape"
   width="217.5"
   height="262.5"
   viewBox="0 0 174 210"
   version="1.1"
   id="svg2"
   inkscape:version="0.91 r13725"
   sodipodi:docname="Coat_of_Arms_of_Christmas_Island_Fixed.svg">
  <metadata
     id="metadata46">
    <rdf:RDF>
      <cc:Work
         rdf:about="">
        <dc:format>image/svg+xml</dc:format>
        <dc:type
           rdf:resource="http://purl.org/dc/dcmitype/StillImage" />
        <dc:title></dc:title>
      </cc:Work>
    </rdf:RDF>
  </metadata>
  <defs
     id="defs44" />
  <sodipodi:namedview
     pagecolor="#ffffff"
     bordercolor="#666666"
     borderopacity="1"
     objecttolerance="10"
     gridtolerance="10"
     guidetolerance="10"
     inkscape:pageopacity="0"
     inkscape:pageshadow="2"
     inkscape:window-width="1128"
     inkscape:window-height="680"
     id="namedview42"
     showgrid="false"
     fit-margin-top="0"
     fit-margin-left="0"
     fit-margin-right="0"
     fit-margin-bottom="0"
     inkscape:zoom="1.2714453"
     inkscape:cx="129.59832"
     inkscape:cy="79.649267"
     inkscape:window-x="232"
     inkscape:window-y="22"
     inkscape:window-maximized="0"
     inkscape:current-layer="svg2" />
  <path
     d="M 0.81,0 174,0 l 0,125.53 c -1.08,7.76 -1.79,15.62 -4.3,23.09 -8.65,28.12 -32.46,50.9 -60.97,58.17 -5.04,1.53 -10.43,1.45 -15.41,3.21 l -4.08,0 C 83.88,209.21 78.41,209.53 73.09,208.38 59.29,206.19 46.26,200.2 35.03,191.97 19.96,179.98 8.2,163.4 3.54,144.57 0.08,132.68 0.77,120.2 0.83,107.97 0.9,105.56 0.61,103.16 0,100.82 l 0,-1.150001 c 0.43,-1.88 0.69,-3.78 0.8,-5.7 C 0.78,62.65 0.73,31.32 0.81,0 z"
     id="path6"
     inkscape:connector-curvature="0"
     style="fill:#027fb8" />
  <path
     sodipodi:type="star"
     style="fill:#ffffff;fill-opacity:1;stroke:none;stroke-width:0.16;stroke-linecap:round;stroke-miterlimit:4;stroke-dasharray:none;stroke-opacity:1"
     id="path3352"
     sodipodi:sides="8"
     sodipodi:cx="130.27499"
     sodipodi:cy="16.61"
     sodipodi:r1="9.7600002"
     sodipodi:r2="6.2665224"
     sodipodi:arg1="0.78539816"
     sodipodi:arg2="1.1780972"
     inkscape:flatsided="false"
     inkscape:rounded="0"
     inkscape:randomized="0"
     d="m 137.17636,23.511363 -4.50327,-1.111851 -2.3981,3.970489 -2.39809,-3.970488 -4.50327,1.11185 1.11185,-4.503268 -3.97049,-2.398094 3.97049,-2.398094 -1.11185,-4.5032687 4.50327,1.1118507 2.39809,-3.9704886 2.3981,3.9704886 4.50327,-1.1118508 -1.11185,4.5032678 3.97048,2.398095 -3.97048,2.398094 z" />
  <path
     sodipodi:type="star"
     style="fill:#fdfefe;fill-opacity:1;stroke:none;stroke-width:0.16;stroke-linecap:round;stroke-miterlimit:4;stroke-dasharray:none;stroke-opacity:1"
     id="path3348"
     sodipodi:sides="8"
     sodipodi:cx="31.195"
     sodipodi:cy="33.759998"
     sodipodi:r1="19.164801"
     sodipodi:r2="12.304985"
     sodipodi:arg1="0.78539816"
     sodipodi:arg2="1.1780972"
     inkscape:flatsided="false"
     inkscape:rounded="0"
     inkscape:randomized="0"
     d="m 44.74656,47.311559 -8.842646,-2.183237 -4.708914,7.796477 -4.708914,-7.796477 -8.842647,2.183237 2.183237,-8.842647 -7.796477,-4.708914 7.796477,-4.708914 -2.183237,-8.842646 8.842647,2.183237 4.708914,-7.796477 4.708914,7.796476 8.842646,-2.183236 -2.183236,8.842646 7.796476,4.708914 -7.796476,4.708914 z" />
  <path
     d="M 162.20137,37.686362 157.6981,36.574512 155.3,40.545 l -2.39809,-3.970488 -4.50327,1.11185 1.11185,-4.503268 L 145.54,30.785 l 3.97049,-2.398094 -1.11185,-4.503268 4.50327,1.11185 L 155.3,21.025 l 2.3981,3.970488 4.50327,-1.111851 -1.11186,4.503268 3.97049,2.398095 -3.97049,2.398094 z"
     inkscape:randomized="0"
     inkscape:rounded="0"
     inkscape:flatsided="false"
     sodipodi:arg2="1.1780972"
     sodipodi:arg1="0.78539816"
     sodipodi:r2="6.2665224"
     sodipodi:r1="9.7600002"
     sodipodi:cy="30.785"
     sodipodi:cx="155.3"
     sodipodi:sides="8"
     id="path3354"
     style="fill:#ffffff;fill-opacity:1;stroke:none;stroke-width:0.16;stroke-linecap:round;stroke-miterlimit:4;stroke-dasharray:none;stroke-opacity:1"
     sodipodi:type="star" />
  <path
     d="m 106.76636,50.556361 -4.50327,-1.111851 -2.398092,3.970489 -2.398094,-3.970488 -4.503268,1.11185 1.11185,-4.503268 -3.970488,-2.398094 3.970488,-2.398094 -1.111851,-4.503269 4.503268,1.111851 2.398095,-3.970488 2.398092,3.970488 4.50327,-1.111851 -1.11185,4.503268 3.97049,2.398095 -3.97049,2.398094 z"
     inkscape:randomized="0"
     inkscape:rounded="0"
     inkscape:flatsided="false"
     sodipodi:arg2="1.1780972"
     sodipodi:arg1="0.78539816"
     sodipodi:r2="6.2665224"
     sodipodi:r1="9.7600002"
     sodipodi:cy="43.655"
     sodipodi:cx="99.864998"
     sodipodi:sides="8"
     id="path3350"
     style="fill:#fdfefe;fill-opacity:1;stroke:none;stroke-width:0.16;stroke-linecap:round;stroke-miterlimit:4;stroke-dasharray:none;stroke-opacity:1"
     sodipodi:type="star" />
  <path
     sodipodi:type="star"
     style="fill:#ffffff;fill-opacity:1;stroke:none;stroke-width:0.16;stroke-linecap:round;stroke-miterlimit:4;stroke-dasharray:none;stroke-opacity:1"
     id="path3356"
     sodipodi:sides="8"
     sodipodi:cx="122.18"
     sodipodi:cy="65.435"
     sodipodi:r1="9.7600002"
     sodipodi:r2="6.2665224"
     sodipodi:arg1="0.78539816"
     sodipodi:arg2="1.1780972"
     inkscape:flatsided="false"
     inkscape:rounded="0"
     inkscape:randomized="0"
     d="m 129.08136,72.33636 -4.50327,-1.111851 -2.39809,3.970489 -2.39809,-3.970489 -4.50327,1.111851 1.11185,-4.503268 -3.97049,-2.398094 3.97049,-2.398094 -1.11185,-4.503269 4.50327,1.111851 2.39809,-3.970489 2.39809,3.970489 4.50327,-1.111851 -1.11185,4.503268 3.97049,2.398095 -3.97049,2.398094 z" />
  <path
     d="M 10.05,81.919999 C 16.58,77.34 25.27,77.19 32.68,79.48 c -4.91,0.33 -11.1,0.51 -14,5.219999 -1.83,2.5 -0.42,6.04 1.92,7.69 2.72,2.73 6.82,3.12 10.45,2.61 5.42,-0.9 10.16,-4.07 13.8,-8.08 4.3,-3.73 9.14,-8.189999 15.22,-7.919999 2.99,-0.03 5.43,1.96 7.37,4.019999 -3.63,0.08 -8.49,-1.03 -10.82,2.58 -2.85,3.47 0.01,8.87 4.17,9.56 6.22,1.2 12.46,-2.17 16.62,-6.62 3.62,-3.56 7.07,-8.429999 12.6,-8.759999 3.35,-0.47 6.22,1.44 8.74,3.349999 -3.33,0.33 -7.22,0.28 -9.64,3.03 -1.94,1.68 -2.230966,4.668225 -1.23,6.71 1.014586,2.069556 3.6,3.4 6.14,3.18 8.45,-0.65 14.91,-6.77 20.82,-12.23 3.85,-3.549999 9.43,-3.029999 14.02,-1.45 -3.88,1.12 -8.19,2.59 -9.86,6.67 -1.08,3.51 2.82,5.96 5.92,5.3 6.53,-0.96 12.06,-5.21 16.39,-9.98 2.26,-2.53 4.93,-5.219999 8.55,-5.349999 3.06,-0.47 5.74,1.25 8.33,2.589999 -3.33,1.07 -7.24769,1.702961 -9.32,4.62 -1.42009,1.998958 -0.4,4.84 2.29,5.51 5.28,1 10.97258,-1.149194 15.17,-4.42 1.87728,-1.462852 2.29,-4.28 4.48,-5.26 0.26,0.26 0.77,0.78 1.02,1.04 0.43,5.48 0.01,10.99 0.17,16.48 -3,2.940001 -6.27,5.750001 -10.25,7.250001 -3.39,1.38 -7.38,2.82 -9.08,6.31 0.55,11.21 0.14,22.81 -4.07,33.38 -1.91,4.36 -4.39,9.31 -9.39,10.62 -0.55,-3.49 0.90887,-6.86646 1.34,-10.23 0.0864,-0.6739 -0.68246,-1.6952 -1.82,-2 -2.30962,-0.61886 -4.95634,-0.65364 -7.14,0.6 -4.76635,2.73637 -7.28,7.86 -10.74,11.9 -1.76,-3.27 0.59492,-9.56962 -2.84,-10.49 -6.71224,-1.79854 -18.351587,3.49214 -20.66,12.36 -4.192229,16.10461 -4.42,32.9 -4.37,49.42 -1.33,-0.02 -2.66,-0.04 -3.98,-0.06 0.36,-17.57 0.95,-35.17 -0.23,-52.71 -0.58,-3.28 -0.29,-7.26 -3.34,-9.41 -3.07,3.8 -2.5,8.93 -3.25,13.47 -0.75,16.04 -0.71,32.11 -0.33,48.16 -0.79,0.02 -2.37,0.06 -3.16,0.07 0.6,-9.69 1.400285,-19.40283 0.67,-29.11 -0.569787,-7.57378 -1.063183,-15.70208 -5.41,-22.15 -5.876297,-8.7167 -16.88,-13.05 -27.25,-12.12 1.63,3.18 4.26,6.63 2.65,10.37 -4.64,-1.85 -6.46,-6.86 -8.77,-10.88 -2.27,-5.17 -9,-4.59 -13.72,-4.45 1.1,4.78 2.86,9.44 3.23,14.37 C 22.38,152.01 17.816644,143.60367 17.03,136.09 15.875765,125.06527 17.09388,110.42454 10.672699,103.6219 8.4025338,101.21688 4.58,100.91 1.25,100.72 2.13,93.789999 4.21,86.319999 10.05,81.919999 Z"
     id="path18"
     inkscape:connector-curvature="0"
     style="fill:#fdfefe"
     sodipodi:nodetypes="ccccccccccccccsccccccccscscccccccssscsscccccccsscccccsscc" />
  <path
     d="M 84.53,97.709999 C 87.33,100.11 89.98,103.2 90.17,107.05 c 0.49,4.89 -1.63,9.91 -5.53,12.92 -3.97,-6.49 -7.06,-16.59 -0.11,-22.260001 z"
     id="path20"
     inkscape:connector-curvature="0"
     style="fill:#027fb8" />
  <path
     d="m 23.09,113.91 c -0.29,-2.88 3.4,-4.34 5.55,-2.79 4.87,3.79 7.19,9.89 8.61,15.7 0.5,2.44 1.29,5.8 -1.5,7.18 -4.09,0.02 -7.59,-2.59 -11.05,-4.47 -0.68,-5.19 -1.7,-10.38 -1.61,-15.62 z"
     id="path24"
     inkscape:connector-curvature="0"
     style="fill:#027fb8" />
  <path
     d="m 136.85,116.83 c 1.88,-2.36 3.98,-5.17 7.2,-5.57 3.44,0.68 3.19,5.05 2.94,7.74 -1.03,7.39 -3.15,14.69 -6.55,21.35 -4.72,-0.15 -9.45,-0.05 -14.17,-0.18 2.79,-8.08 5.98,-16.1 10.58,-23.34 z"
     id="path26"
     inkscape:connector-curvature="0"
     style="fill:#027fb8" />
  <path
     d="m 39.43,111.92 c 4.6,0.69 9.47,1.35 13.17,4.44 6.04,4.73 10.43,11.5 13,18.68 0.64,2.63 1.42,7.14 -1.84,8.23 -3.02,-1.19 -4.85,-4.26 -7.92,-5.4 -2.74,-0.75 -5.62,-0.7 -8.44,-0.86 -0.39,-0.38 -1.18,-1.14 -1.57,-1.52 -1.02,-8.14 -4.14,-15.75 -6.4,-23.57 z"
     id="path28"
     inkscape:connector-curvature="0"
     style="fill:#027fb8" />
  <path
     d="m 118.27,116.19 c 4.43,-2.87 9.81,-3.55 14.99,-3.41 -2.63,3.71 -4.97,7.64 -6.66,11.88 -1.89,4.63 -2.57,9.67 -4.47,14.3 -0.47,1.2 -1.37,2.21 -2.5,2.83 -5.33,1.74 -10.92,2.88 -16.54,2.36 -0.58,-1.28 -1.37,-2.64 -0.84,-4.1 1.21,-4.86 3.75,-9.26 6.44,-13.43 2.73,-3.85 5.33,-8.08 9.58,-10.43 z"
     id="path30"
     inkscape:connector-curvature="0"
     style="fill:#027fb8" />
  <path
     d="m 86.06,122.18 c 2.66,-4.62 7.85,-7.21 12.71,-8.94 -1.18,6.36 -3.41,13.24 -8.83,17.27 -2.58,-1.89 -5.62,-4.83 -3.88,-8.33 z"
     id="path32"
     inkscape:connector-curvature="0"
     style="fill:#027fb8" />
  <path
     d="m 69.69,114.58 c 5.61,1.52 11.62,3.95 15.05,8.89 1.84,3.29 -1.05,6.36 -3.69,8 -6.18,-3.61 -8.63,-10.69 -11.36,-16.89 z"
     id="path34"
     inkscape:connector-curvature="0"
     style="fill:#027fb8" />
  <path
     d="m 92.18,132.3 c 3.25,-3.89 6.74,-7.63 10.86,-10.61 -1.26,6.81 -0.96,14.85 -6.11,20.14 -1.99,2.59 -6.06,0.89 -7.16,-1.66 -1.11,-2.83 0.83,-5.65 2.41,-7.87 z"
     id="path36"
     inkscape:connector-curvature="0"
     style="fill:#027fb8" />
  <path
     d="m 68.87,129.38 c 5.9,0.96 12.56,2.42 16.39,7.43 2.17,3.27 -1.24,6.92 -4.29,8.02 -6.51,-2.39 -9.6,-9.48 -12.1,-15.45 z"
     id="path40"
     inkscape:connector-curvature="0"
     style="fill:#027fb8" />
</svg>
