<?xml version="1.0" encoding="UTF-8" standalone="no"?>
<svg
   xmlns:dc="http://purl.org/dc/elements/1.1/"
   xmlns:cc="http://creativecommons.org/ns#"
   xmlns:rdf="http://www.w3.org/1999/02/22-rdf-syntax-ns#"
   xmlns:svg="http://www.w3.org/2000/svg"
   xmlns="http://www.w3.org/2000/svg"
   xmlns:xlink="http://www.w3.org/1999/xlink"
   xmlns:sodipodi="http://sodipodi.sourceforge.net/DTD/sodipodi-0.dtd"
   xmlns:inkscape="http://www.inkscape.org/namespaces/inkscape"
   width="500"
   height="540"
   viewBox="0 0 132.29166 142.875"
   version="1.1"
   id="svg847"
   sodipodi:docname="djibouti.svg"
   inkscape:version="1.0.2 (e86c870879, 2021-01-15, custom)">
  <defs
     id="defs841" />
  <sodipodi:namedview
     id="base"
     pagecolor="#ffffff"
     bordercolor="#666666"
     borderopacity="1.0"
     inkscape:pageopacity="0.0"
     inkscape:pageshadow="2"
     inkscape:zoom="1.4142136"
     inkscape:cx="256.82306"
     inkscape:cy="307.91118"
     inkscape:document-units="px"
     inkscape:current-layer="layer1"
     inkscape:document-rotation="0"
     showgrid="false"
     inkscape:snap-smooth-nodes="true"
     inkscape:showpageshadow="false"
     borderlayer="true"
     units="px"
     inkscape:window-width="1920"
     inkscape:window-height="1017"
     inkscape:window-x="-8"
     inkscape:window-y="-4"
     inkscape:window-maximized="1"
     inkscape:snap-global="true"
     showguides="true"
     inkscape:guide-bbox="true" />
  <metadata
     id="metadata844">
    <rdf:RDF>
      <cc:Work
         rdf:about="">
        <dc:format>image/svg+xml</dc:format>
        <dc:type
           rdf:resource="http://purl.org/dc/dcmitype/StillImage" />
        <dc:title />
      </cc:Work>
    </rdf:RDF>
  </metadata>
  <g
     inkscape:label="Layer 1"
     inkscape:groupmode="layer"
     id="layer1"
     transform="translate(-43.273778,-53.04689)">
    <path
       id="path1098"
       style="font-variation-settings:normal;opacity:1;vector-effect:none;fill:#0c7739;fill-opacity:1;stroke:none;stroke-width:0.132292;stroke-linecap:butt;stroke-linejoin:miter;stroke-miterlimit:4;stroke-dasharray:none;stroke-dashoffset:0;stroke-opacity:1;stop-color:#000000;stop-opacity:1"
       d="m 119.2726,53.04689 c 2.02746,0.506606 3.34598,0.885157 5.27755,2.030032 1.93158,1.14487 3.18583,3.02201 3.65967,4.188412 0.47381,1.166404 1.04485,2.415836 2.01345,3.366394 l 0.17359,1.258074 c 0,0 -1.26013,-1.021908 -3.55461,-1.812462 -2.29449,-0.790555 -3.86559,-2.829456 -4.64722,-4.376857 -0.78162,-1.547402 -1.06342,-3.078961 -2.92243,-4.653593 z m -2.88224,2.542547 c 0.46537,0.0069 0.96939,0.07809 1.51466,0.244877 2.18106,0.667159 3.02556,2.089081 3.9319,2.961294 l -10.88582,-1.71779 c 0,0 1.12758,-0.182064 2.19251,-0.619021 0.7987,-0.32772 1.85063,-0.890032 3.24675,-0.86936 z m 12.84172,2.052785 c 2.04056,1.835491 3.07223,1.957051 5.23461,3.512045 2.16239,1.554994 3.09864,2.763317 3.88532,5.332697 0.78664,2.569369 1.59909,3.124861 2.6438,4.349549 l 0.0822,1.400993 c 0,0 -1.86788,-1.80352 -4.49647,-2.977685 -2.62859,-1.174158 -3.86906,-2.736535 -4.85915,-5.222546 -0.9901,-2.486008 -0.82882,-3.741489 -2.49033,-6.395053 z m 10.19609,7.327229 c 2.53997,2.284711 3.9351,2.654798 6.18561,4.040943 2.25054,1.38615 4.07728,3.87959 5.05648,7.077794 0.97918,3.198187 -0.0415,3.873245 2.2181,7.938057 l -1.2744,0.416934 c 0,0 -0.81138,-2.180912 -3.45959,-4.263974 -2.64812,-2.083125 -4.2727,-3.466025 -5.73617,-7.14061 -1.46347,-3.67459 -0.37053,-4.436502 -2.99003,-8.069144 z m 13.17516,11.871581 c 1.94273,2.973551 3.53833,2.849221 5.92252,5.360009 2.38419,2.510785 3.42347,5.802657 3.53451,8.813788 0.11102,3.011118 -0.82803,4.292002 -0.14532,8.856578 l -1.8956,-0.07739 c 0,0 -0.33238,-3.124879 -2.08745,-5.458324 -1.75495,-2.333469 -3.34919,-5.03544 -4.11004,-8.716386 -0.76087,-3.680947 0.0727,-5.063395 -1.21867,-8.778287 z m 13.38894,13.132384 c 0.92733,3.927573 2.013,5.444759 3.00556,7.709566 0.99258,2.264815 1.62707,6.885458 0.41841,10.654468 -1.20871,3.76898 -2.53654,3.82479 -3.08506,9.29627 l -1.64347,-0.53345 c 0,0 0.68386,-2.66661 -0.48509,-6.47061 -1.1688,-3.804 -1.93053,-6.36852 -1.24242,-11.134215 0.68812,-4.765705 2.9757,-5.051733 3.03207,-9.522029 z m 6.69445,18.776424 c 0.16794,4.70609 1.06637,6.68845 1.68733,9.50564 0.62097,2.8172 0.2947,8.25025 -1.94677,12.29215 -2.24149,4.04185 -3.77354,3.80514 -5.64663,9.94533 l -1.7604,-0.98225 c 0,0 1.38983,-2.89826 0.9172,-7.51748 -0.47263,-4.61921 -0.76143,-7.7271 1.11086,-13.02769 1.87232,-5.30061 4.55661,-5.11055 5.63841,-10.2157 z m 2.44375,23.82144 c 0.66678,2.95785 0.44844,6.54619 0.12799,9.41279 -0.32054,2.86662 -2.22558,7.86348 -6.04678,11.33176 -3.82117,3.46822 -5.27781,2.62942 -8.55078,6.82017 l -1.10904,-2.2039 c 0,0 2.4439,-1.31058 3.48608,-5.83611 1.04219,-4.52553 1.54386,-6.89281 5.02634,-11.31264 3.48246,-4.41982 5.51903,-4.27642 7.06628,-8.21207 z m -0.68426,19.72043 c -0.14443,4.04009 -0.69174,5.93401 -2.00523,8.50427 -1.31348,2.5703 -5.46403,6.75194 -10.26642,8.65633 -4.80241,1.90438 -7.57088,1.57045 -10.55968,3.0596 l 0.0776,-1.92444 c 0,0 1.86824,-0.86976 4.21145,-4.12378 2.3432,-3.25401 4.7898,-5.83416 9.22955,-8.09099 4.43976,-2.25684 6.01798,-2.44461 9.31268,-6.08099 z m -18.72495,20.64896 c 4.85012,0.0142 7.60933,1.07581 12.02684,0.39599 -3.85204,2.10997 -4.01265,2.77009 -6.78674,4.73734 -2.77408,1.96725 -7.57067,3.03563 -12.98879,2.39417 -5.46601,-0.64712 -8.08215,0.86754 -8.08215,0.86754 l -0.55269,-1.18433 c 0,0 2.17992,-1.99687 5.12133,-3.59945 2.94142,-1.60257 6.41209,-3.62535 11.2622,-3.61126 z m -15.28363,9.06049 c 0.91006,0.005 1.84961,0.0573 2.82743,0.16471 5.21501,0.57348 6.64711,1.46269 11.39375,0.22576 -4.86894,1.90837 -4.75428,2.96331 -8.83673,5.08143 -4.08246,2.1181 -10.75183,2.53661 -14.20382,1.94538 -5.81279,-0.99555 -8.89355,-2.81666 -11.84686,-1.36458 -2.69031,1.32276 -15.22183,6.72033 -17.49624,7.86796 h -6.521806 c 0,0 18.318536,-7.95465 21.269176,-9.21161 2.95065,-1.25695 8.04877,-1.32174 12.47813,-2.72096 3.59886,-1.13686 6.99341,-2.00876 10.93697,-1.98816 z" />
    <path
       id="path1100"
       style="font-variation-settings:normal;opacity:1;vector-effect:none;fill:#98ba3b;fill-opacity:1;stroke:none;stroke-width:0.264582;stroke-linecap:butt;stroke-linejoin:miter;stroke-miterlimit:4;stroke-dasharray:none;stroke-dashoffset:0;stroke-opacity:1;stop-color:#000000;stop-opacity:1"
       d="m 110.95116,57.077818 c 0,0 1.22944,0.217523 3.97575,0.04097 2.74632,-0.176558 6.91006,1.676821 6.91006,1.676821 -2.12618,0.882788 -5.50665,0.702673 -7.38784,-0.10286 -1.47905,-0.633337 -3.49797,-1.614923 -3.49797,-1.614923 z m 3.80949,3.406447 c 1.93516,0.520001 4.21357,-0.14186 6.75202,0.394173 2.65841,0.561341 3.96249,1.797298 5.59272,2.71915 1.63023,0.921843 3.38378,1.533899 3.38378,1.533899 l 0.0237,1.071457 c 0,0 -1.68244,-0.715254 -4.56133,-0.639963 -2.85366,0.07464 -4.45462,-0.145719 -6.38386,-0.909417 -1.92925,-0.763683 -3.75562,-3.031661 -4.80708,-4.169299 z m 6.98954,6.309481 c 3.28535,1.046369 4.9837,0.26904 7.89669,1.02503 3.05066,0.791702 4.9158,2.106842 6.75568,3.261701 1.83987,1.154862 4.64172,2.405087 4.64172,2.405087 l -0.32796,1.023206 c 0,0 -2.72847,-1.0586 -6.06869,-1.124255 -3.31094,-0.06506 -5.15372,-0.404427 -7.34856,-1.391891 -2.19485,-0.987458 -3.83165,-3.160401 -5.54888,-5.198878 z m 9.37938,7.451033 c 4.2884,0.678755 5.85923,0.04942 9.45154,1.748738 3.76211,1.779636 5.24237,4.661213 7.34309,6.613529 2.10072,1.95232 4.06254,3.293566 4.06254,3.293566 l -0.95282,1.432855 c 0,0 -1.44359,-2.290923 -5.76175,-3.199804 -4.2803,-0.900889 -6.31437,-1.981436 -8.23288,-4.267615 -1.91849,-2.286174 -3.84216,-4.980063 -5.90972,-5.621269 z m 11.21926,10.17655 c 4.24505,2.084349 6.26867,2.381061 9.25788,4.758281 3.3651,2.676176 4.91305,5.186813 5.96819,7.921672 1.05513,2.73486 2.32133,5.016808 2.32133,5.016808 l -0.95466,0.49795 c 0,0 -1.38295,-2.53652 -4.98523,-4.129237 -3.57072,-1.578746 -5.3719,-3.500593 -6.85252,-5.772389 -1.4806,-2.271787 -2.86271,-7.235462 -4.75499,-8.293085 z m 5.90698,12.486965 c 4.36609,3.723796 6.01014,2.84506 9.27433,5.924416 3.58788,3.38469 4.60526,6.59461 5.09758,10.02907 0.49234,3.43447 1.34931,6.40052 1.34931,6.40052 l -1.23421,0.32407 c 0,0 -0.45707,-3.33752 -4.19226,-6.12468 -3.70247,-2.76273 -5.73802,-5.40937 -6.84427,-8.42144 -1.10625,-3.01206 -1.54698,-6.412819 -3.45048,-8.131956 z m 3.90633,13.109626 c 3.84584,4.79332 5.75424,4.19739 8.56998,8.0919 3.09496,4.2807 3.63758,8.11958 3.55917,11.88888 -0.0785,3.7693 0.16724,6.69546 0.16724,6.69546 l -1.36485,0.0937 c 0,0 -0.0582,-3.60419 -3.42852,-7.28535 -3.3409,-3.64889 -4.951,-6.8428 -5.50869,-10.23482 -0.55769,-3.39199 -0.33688,-7.05937 -1.99428,-9.24984 z m 1.54937,13.79965 c 3.24227,5.40197 6.02443,7.10267 7.78251,11.04228 1.93242,4.33027 1.53897,9.48363 0.55999,12.88206 -0.97898,3.39837 -1.10904,5.66587 -1.10904,5.66587 l -1.90018,0.67182 c 0,0 0.78237,-4.4459 -1.74029,-8.70001 -2.50057,-4.21682 -3.474,-8.44392 -3.30887,-12.22387 0.16512,-3.77993 1.00704,-6.60626 -0.28412,-9.33815 z m -0.11137,16.23388 c 1.37853,4.87344 3.81407,7.3088 4.28362,12.57163 0.5161,5.78468 -2.13429,9.85607 -4.16486,12.75551 -2.03057,2.89942 -2.65293,5.08327 -2.65293,5.08327 l -2.33412,0.17843 c 0,0 2.68892,-3.02367 1.57404,-8.39504 -1.10511,-5.32433 -0.85468,-9.74322 0.52986,-13.26622 1.38453,-3.52298 3.09824,-5.92628 2.76439,-8.92758 z m -4.84362,14.97215 c -0.31767,4.34316 0.51596,7.9633 -0.55269,11.98537 -1.17464,4.42093 -4.26944,7.94195 -7.16952,9.97901 -2.90007,2.03707 -4.23154,3.87891 -4.23154,3.87891 0,0 -1.00269,-0.37479 -2.25555,-0.62447 0,0 3.56106,-1.93046 4.34848,-7.3591 0.78052,-5.3811 2.86366,-9.68147 5.48858,-11.84245 2.62493,-2.16095 3.76007,-3.49285 4.37224,-6.01727 z m -9.31361,12.8329 c -1.23861,1.4866 -1.1358,2.97146 -2.27564,6.63538 -1.13984,3.66388 -5.24144,8.34765 -9.6708,9.74687 -4.42936,1.39921 -6.58769,1.21458 -9.53834,2.47153 -2.95064,1.25696 -20.787736,9.21161 -20.787736,9.21161 h -4.99435 c 2.27441,-1.14763 21.361526,-9.37086 24.051836,-10.69362 2.95331,-1.45208 4.09709,-3.46585 6.66523,-6.27852 2.11917,-2.32096 6.71566,-6.06733 9.39491,-7.45741 2.67925,-1.39008 5.41182,-2.24826 7.15489,-3.63584 z" />
    <path
       id="path872"
       style="font-variation-settings:normal;opacity:1;vector-effect:none;fill:#98ba3b;fill-opacity:1;stroke:none;stroke-width:0.132292;stroke-linecap:butt;stroke-linejoin:miter;stroke-miterlimit:4;stroke-dasharray:none;stroke-dashoffset:0;stroke-opacity:1;stop-color:#000000;stop-opacity:1"
       d="m 99.566614,53.046892 c -2.02746,0.506605 -3.34598,0.885156 -5.27756,2.030031 -1.93158,1.14487 -3.18583,3.02201 -3.65966,4.188413 -0.47382,1.166403 -1.04486,2.415836 -2.01346,3.366394 l -0.17357,1.258073 c 0,0 1.26012,-1.021907 3.55461,-1.812461 2.29448,-0.790555 3.86558,-2.829456 4.6472,-4.376858 0.78163,-1.547402 1.06343,-3.078961 2.92244,-4.653592 z m 2.882236,2.542545 c -0.46538,0.0069 -0.96939,0.07808 -1.51466,0.244879 -2.181066,0.667157 -3.025566,2.08908 -3.931896,2.961293 l 10.885806,-1.71779 c 0,0 -1.12758,-0.182063 -2.19251,-0.61902 -0.7987,-0.327721 -1.85063,-0.890032 -3.24674,-0.869362 z m -12.841716,2.052786 c -2.04056,1.835491 -3.07224,1.957051 -5.23462,3.512045 -2.16239,1.554996 -3.09864,2.763318 -3.88532,5.332697 -0.78663,2.569369 -1.59908,3.124862 -2.6438,4.349549 l -0.0822,1.400994 c 0,0 1.86789,-1.803521 4.49648,-2.977685 2.62859,-1.174158 3.86905,-2.736536 4.85915,-5.222546 0.9901,-2.486009 0.82881,-3.74149 2.49033,-6.395054 z m -10.19609,7.32723 c -2.53997,2.284711 -3.9351,2.654798 -6.18562,4.040943 -2.25053,1.38615 -4.07728,3.879589 -5.05648,7.077794 -0.97917,3.198187 0.0415,3.873245 -2.21809,7.938057 l 1.2744,0.416934 c 0,0 0.81138,-2.180913 3.4596,-4.263975 2.6481,-2.083124 4.27268,-3.466025 5.73616,-7.140609 1.46347,-3.674589 0.37052,-4.436503 2.99003,-8.069144 z m -13.17517,11.871581 c -1.94273,2.973551 -3.53833,2.849222 -5.92251,5.360008 -2.38419,2.510787 -3.42347,5.802657 -3.53451,8.813789 -0.11101,3.011118 0.82803,4.292002 0.14525,8.856576 l 1.89561,-0.07738 c 0,0 0.33238,-3.124879 2.08745,-5.458324 1.75496,-2.333469 3.3492,-5.03544 4.11005,-8.716386 0.76085,-3.680947 -0.0727,-5.063395 1.21866,-8.778286 z m -13.38893,13.132385 c -0.92733,3.927572 -2.013,5.444758 -3.00556,7.709566 -0.99258,2.264822 -1.62708,6.885455 -0.41841,10.654465 1.20871,3.76899 2.53654,3.82479 3.08505,9.29628 l 1.64347,-0.53346 c 0,0 -0.68385,-2.6666 0.48509,-6.47061 1.16879,-3.80399 1.93053,-6.36852 1.24243,-11.134213 -0.68812,-4.765705 -2.97571,-5.051734 -3.03207,-9.522028 z m -6.69446,18.776421 c -0.16789,4.70609 -1.06636,6.68845 -1.68732,9.50564 -0.62097,2.81721 -0.2947,8.25025 1.94676,12.29215 2.24149,4.04185 3.77355,3.80514 5.64664,9.94534 l 1.7604,-0.98225 c 0,0 -1.38983,-2.89827 -0.9172,-7.51748 0.47262,-4.61922 0.76143,-7.72711 -1.11088,-13.0277 -1.8723,-5.30061 -4.5566,-5.11055 -5.6384,-10.2157 z m -2.44374,23.82144 c -0.66679,2.95785 -0.44844,6.54619 -0.12789,9.41279 0.32054,2.86663 2.22556,7.86349 6.04676,11.33176 3.82119,3.46823 5.27782,2.62942 8.55079,6.82017 l 1.10905,-2.20389 c 0,0 -2.44392,-1.31059 -3.4861,-5.83611 -1.04217,-4.52554 -1.54386,-6.89281 -5.02633,-11.31265 -3.48247,-4.41982 -5.51903,-4.27641 -7.06628,-8.21207 z m 0.68425,19.72044 c 0.14441,4.04009 0.69174,5.93401 2.00523,8.50427 1.31349,2.57029 5.46403,6.75192 10.26643,8.65632 4.80241,1.90437 7.57088,1.57045 10.55969,3.0596 l -0.0777,-1.92444 c 0,0 -1.86824,-0.86976 -4.21145,-4.12378 -2.34322,-3.25401 -4.78981,-5.83416 -9.22956,-8.09099 -4.43975,-2.25684 -6.01797,-2.4446 -9.31269,-6.08098 z m 18.72495,20.64895 c -4.85011,0.0146 -7.60932,1.07582 -12.02683,0.39599 3.85203,2.10997 4.01264,2.7701 6.78673,4.73735 2.77409,1.96724 7.57067,3.03563 12.9888,2.39416 5.46601,-0.64711 8.08214,0.86755 8.08214,0.86755 l 0.5527,-1.18434 c 0,0 -2.17992,-1.99686 -5.12134,-3.59944 -2.94142,-1.60257 -6.41208,-3.62536 -11.2622,-3.61127 z m 15.28363,9.0605 c -0.91005,0.005 -1.84961,0.0572 -2.82742,0.16477 -5.21502,0.57349 -6.64712,1.46269 -11.39375,0.22576 4.86893,1.90838 4.75427,2.96332 8.83673,5.08144 4.08245,2.11811 10.75183,2.5366 14.20382,1.94537 5.81279,-0.99554 8.89355,-2.81666 11.84686,-1.36458 2.690296,1.32276 15.221826,6.72034 17.496236,7.86796 h 6.5218 c 0,0 -18.31853,-7.95465 -21.26918,-9.2116 -2.950646,-1.25695 -8.048766,-1.32176 -12.478126,-2.72097 -3.59885,-1.13686 -6.9934,-2.00876 -10.93697,-1.98815 z" />
    <path
       id="path887"
       style="font-variation-settings:normal;opacity:1;vector-effect:none;fill:#0c7739;fill-opacity:1;stroke:none;stroke-width:0.264582;stroke-linecap:butt;stroke-linejoin:miter;stroke-miterlimit:4;stroke-dasharray:none;stroke-dashoffset:0;stroke-opacity:1;stop-color:#000000;stop-opacity:1"
       d="m 107.88815,57.077818 c 0,0 -1.22943,0.217523 -3.97575,0.04097 -2.74632,-0.176558 -6.910056,1.676821 -6.910056,1.676821 2.12618,0.882788 5.506646,0.702673 7.387836,-0.10286 1.47905,-0.633337 3.49797,-1.614923 3.49797,-1.614923 z m -3.80949,3.406447 c -1.93516,0.520001 -4.213566,-0.14186 -6.752006,0.394173 -2.65842,0.561341 -3.9625,1.797298 -5.59273,2.71915 -1.63024,0.921843 -3.38378,1.533899 -3.38378,1.533899 l -0.0238,1.071457 c 0,0 1.68244,-0.715254 4.56133,-0.639963 2.85367,0.07464 4.45462,-0.145719 6.38386,-0.909417 1.929246,-0.763683 3.755616,-3.031661 4.807076,-4.169299 z m -6.989536,6.309481 c -3.28535,1.046369 -4.9837,0.26904 -7.89669,1.02503 -3.05066,0.791702 -4.9158,2.106842 -6.75568,3.261701 -1.83987,1.154862 -4.64172,2.405087 -4.64172,2.405087 l 0.32796,1.023206 c 0,0 2.72847,-1.0586 6.06869,-1.124255 3.31094,-0.06506 5.15372,-0.404427 7.34856,-1.391891 2.19485,-0.987458 3.83165,-3.160401 5.54888,-5.198878 z m -9.37938,7.451033 c -4.2884,0.678755 -5.85923,0.04942 -9.45155,1.748738 -3.76209,1.779636 -5.24236,4.661213 -7.34307,6.613529 -2.10072,1.95232 -4.06254,3.293566 -4.06254,3.293566 l 0.95282,1.432855 c 0,0 1.44358,-2.290923 5.76173,-3.199804 4.28031,-0.900889 6.31438,-1.981436 8.23289,-4.267615 1.91849,-2.286174 3.84216,-4.980063 5.90972,-5.621269 z m -11.21926,10.17655 c -4.24504,2.084349 -6.26869,2.381061 -9.25787,4.758281 -3.3651,2.676176 -4.91308,5.186813 -5.9682,7.921672 -1.05514,2.73486 -2.32132,5.016808 -2.32132,5.016808 l 0.95466,0.49795 c 0,0 1.38293,-2.53652 4.98521,-4.129237 3.57073,-1.578746 5.37191,-3.500593 6.85251,-5.772389 1.4806,-2.271787 2.86272,-7.235462 4.75501,-8.293085 z m -5.90699,12.486965 c -4.36607,3.723796 -6.01013,2.84506 -9.27432,5.924416 -3.58788,3.38469 -4.60526,6.59461 -5.09758,10.02907 -0.49233,3.43447 -1.3493,6.40052 -1.3493,6.40052 l 1.23418,0.32407 c 0,0 0.45707,-3.33752 4.19226,-6.12468 3.70249,-2.76273 5.73805,-5.40937 6.84429,-8.42144 1.10625,-3.01206 1.54699,-6.412819 3.45047,-8.131956 z m -3.90632,13.109626 c -3.84583,4.79332 -5.75423,4.19739 -8.56998,8.0919 -3.09496,4.2807 -3.63757,8.11958 -3.55917,11.88888 0.0783,3.7693 -0.16723,6.69546 -0.16723,6.69546 l 1.36484,0.0937 c 0,0 0.0582,-3.60419 3.42853,-7.28535 3.3409,-3.64889 4.95099,-6.8428 5.50868,-10.23482 0.5577,-3.39199 0.33688,-7.05937 1.99428,-9.24984 z m -1.54938,13.79965 c -3.24226,5.40197 -6.02441,7.10267 -7.78249,11.04228 -1.93243,4.33027 -1.53898,9.48363 -0.56,12.88206 0.97897,3.39837 1.10905,5.66587 1.10905,5.66587 l 1.90017,0.67182 c 0,0 -0.78236,-4.4459 1.7403,-8.70001 2.50056,-4.21682 3.47399,-8.44392 3.30886,-12.22387 -0.16511,-3.77993 -1.00704,-6.60626 0.28411,-9.33815 z m 0.11155,16.23388 c -1.37853,4.87344 -3.81407,7.3088 -4.28363,12.57163 -0.51609,5.78468 2.13429,9.85607 4.16486,12.75551 2.03057,2.89942 2.65294,5.08327 2.65294,5.08327 l 2.33412,0.17843 c 0,0 -2.68893,-3.02367 -1.57405,-8.39504 1.10512,-5.32433 0.85469,-9.74322 -0.52985,-13.26622 -1.38454,-3.52298 -3.09825,-5.92628 -2.76439,-8.92758 z m 4.84361,14.97215 c 0.31768,4.34316 -0.51596,7.9633 0.55271,11.98537 1.17463,4.42093 4.26942,7.94195 7.1695,9.97901 2.90007,2.03707 4.23155,3.87891 4.23155,3.87891 0,0 1.00268,-0.37479 2.25555,-0.62447 0,0 -3.56107,-1.93046 -4.34849,-7.3591 -0.78051,-5.3811 -2.86366,-9.68147 -5.48858,-11.84245 -2.62491,-2.16095 -3.76004,-3.49285 -4.37224,-6.01727 z m 9.31361,12.8329 c 1.23862,1.4866 1.1358,2.97146 2.27565,6.63538 1.13984,3.66388 5.24143,8.34765 9.6708,9.74687 4.42935,1.39921 6.58768,1.21458 9.538326,2.47153 2.95065,1.25696 20.78775,9.21161 20.78775,9.21161 h 4.99435 c -2.27441,-1.14763 -21.36154,-9.37086 -24.05184,-10.69362 -2.953306,-1.45208 -4.097086,-3.46585 -6.665226,-6.27852 -2.11918,-2.32096 -6.71567,-6.06733 -9.39491,-7.45741 -2.67925,-1.39008 -5.41183,-2.24826 -7.1549,-3.63584 z" />
    <path
       sodipodi:type="star"
       style="opacity:1;fill:#d40000;fill-opacity:1;stroke:none;stroke-width:0.132292;stroke-linecap:round;stroke-miterlimit:4;stroke-dasharray:none;paint-order:fill markers stroke"
       id="path1102"
       sodipodi:sides="5"
       sodipodi:cx="109.41963"
       sodipodi:cy="72.113434"
       sodipodi:r1="11.299019"
       sodipodi:r2="4.3155689"
       sodipodi:arg1="-1.5707963"
       sodipodi:arg2="-0.94247777"
       inkscape:flatsided="false"
       inkscape:rounded="0"
       inkscape:randomized="0"
       d="m 109.41963,60.814415 2.53663,7.80765 8.20938,-2.2e-4 -6.64166,4.825173 2.53705,7.807514 -6.6414,-4.825529 -6.64139,4.825529 2.53704,-7.807514 -6.641653,-4.825173 8.209373,2.2e-4 z"
       inkscape:transform-center-x="1.8255104e-05"
       inkscape:transform-center-y="1.7945316e-06" />
    <g
       id="g1434"
       transform="matrix(1.7678197,0,0,1.7678197,-33.226456,-40.730449)"
       style="stroke-width:0.565669">
      <path
         id="path1422"
         style="fill:#734215;fill-opacity:1;stroke:none;stroke-width:0.282835;stroke-linecap:round;stroke-miterlimit:4;stroke-dasharray:none;paint-order:fill markers stroke"
         d="m 300.51201,314.2933 -2.9e-4,133.68717 c -1.80319,1.35642 -2.97461,3.50733 -2.97461,5.9375 0,4.10555 3.32804,7.43359 7.43359,7.43359 4.10556,0 7.43555,-3.32804 7.43555,-7.43359 0,-2.42918 -1.17266,-4.57903 -2.97461,-5.93555 l 2.9e-4,-133.68912 z"
         transform="scale(0.26458333)"
         sodipodi:nodetypes="ccsssccc" />
      <path
         id="path1426"
         style="fill:#4e2705;fill-opacity:1;stroke:none;stroke-width:0.282835;stroke-linecap:round;stroke-miterlimit:4;stroke-dasharray:none;paint-order:fill markers stroke"
         d="m 304.97099,312.2933 -2.9e-4,134.19108 c 1.67637,0 3.21743,0.56192 4.46094,1.49804 l 2.9e-4,-133.68912 z"
         transform="scale(0.26458333)"
         sodipodi:nodetypes="ccccc" />
      <path
         style="font-variation-settings:normal;vector-effect:none;fill:#38699e;fill-opacity:1;stroke:none;stroke-width:0.149666;stroke-linecap:butt;stroke-linejoin:miter;stroke-miterlimit:4;stroke-dasharray:none;stroke-dashoffset:0;stroke-opacity:1;stop-color:#000000"
         d="m 80.161239,83.156769 h 1.709292 v -2.924658 c 0.466906,-0.233452 1.784654,-1.697887 1.026196,-4.463952 -0.980224,-3.574832 -2.206321,-7.38861 -2.206321,-7.38861 z"
         id="path1151"
         sodipodi:nodetypes="cccscc" />
      <path
         style="font-variation-settings:normal;vector-effect:none;fill:#7bb1c7;fill-opacity:1;stroke:none;stroke-width:0.149666;stroke-linecap:butt;stroke-linejoin:miter;stroke-miterlimit:4;stroke-dasharray:none;stroke-dashoffset:0;stroke-opacity:1;stop-color:#000000"
         d="m 80.690406,68.379549 c 0,0 -1.226097,3.813778 -2.206321,7.38861 -0.758458,2.766065 0.55929,4.2305 1.026197,4.463952 v 2.924658 h 1.180124 z"
         id="path1145"
         sodipodi:nodetypes="cscccc" />
    </g>
    <g
       id="g1174"
       transform="matrix(1.7678197,0,0,1.7678197,-33.226456,-40.730449)"
       style="stroke-width:0.565669">
      <g
         id="g1381"
         transform="matrix(-0.97429087,0,0,-0.97429087,159.30633,192.3481)"
         style="stroke-width:0.580597">
        <circle
           style="opacity:1;fill:#d1963b;fill-opacity:1;stroke:#734215;stroke-width:0.153616;stroke-linecap:round;stroke-miterlimit:4;stroke-dasharray:none;stroke-opacity:1;paint-order:fill markers stroke"
           id="path1128"
           cx="80.690407"
           cy="97.42643"
           r="10.495042" />
        <circle
           style="opacity:1;fill:none;fill-opacity:1;stroke:#734215;stroke-width:0.153616;stroke-linecap:round;stroke-miterlimit:4;stroke-dasharray:none;stroke-opacity:1;paint-order:fill markers stroke"
           id="circle1130"
           cx="80.690407"
           cy="97.426422"
           r="8.3862009" />
        <g
           id="g1177"
           transform="matrix(0.90535045,0,0,0.90535045,7.6373099,9.2213663)"
           style="fill:#734215;fill-opacity:1;stroke-width:0.641298">
          <path
             id="path1168"
             style="color:#000000;font-style:normal;font-variant:normal;font-weight:normal;font-stretch:normal;font-size:medium;line-height:normal;font-family:sans-serif;font-variant-ligatures:normal;font-variant-position:normal;font-variant-caps:normal;font-variant-numeric:normal;font-variant-alternates:normal;font-variant-east-asian:normal;font-feature-settings:normal;font-variation-settings:normal;text-indent:0;text-align:start;text-decoration:none;text-decoration-line:none;text-decoration-style:solid;text-decoration-color:#000000;letter-spacing:normal;word-spacing:normal;text-transform:none;writing-mode:lr-tb;direction:ltr;text-orientation:mixed;dominant-baseline:auto;baseline-shift:baseline;text-anchor:start;white-space:normal;shape-padding:0;shape-margin:0;inline-size:0;clip-rule:nonzero;display:inline;overflow:visible;visibility:visible;opacity:1;isolation:auto;mix-blend-mode:normal;color-interpolation:sRGB;color-interpolation-filters:linearRGB;solid-color:#000000;solid-opacity:1;vector-effect:none;fill:#734215;fill-opacity:1;fill-rule:nonzero;stroke:none;stroke-width:2.19439;stroke-linecap:butt;stroke-linejoin:miter;stroke-miterlimit:4;stroke-dasharray:none;stroke-dashoffset:0;stroke-opacity:1;color-rendering:auto;image-rendering:auto;shape-rendering:auto;text-rendering:auto;enable-background:accumulate;stop-color:#000000;stop-opacity:1"
             d="m 304.33594,331.5332 0.33594,3.8711 h 0.5996 l 0.33594,-3.8711 z m 0.13867,8 0.49784,21.34766 0.4963,-21.34766 z m 0.49784,36.04102 -0.49784,21.34766 h 0.99414 z m -0.30057,25.47656 -0.33594,3.8711 h 1.27148 l -0.33594,-3.8711 z"
             transform="matrix(0.29224411,0,0,0.29224411,-8.4357498,-10.185411)"
             sodipodi:nodetypes="cccccccccccccccccc" />
          <path
             id="path1340"
             style="color:#000000;font-style:normal;font-variant:normal;font-weight:normal;font-stretch:normal;font-size:medium;line-height:normal;font-family:sans-serif;font-variant-ligatures:normal;font-variant-position:normal;font-variant-caps:normal;font-variant-numeric:normal;font-variant-alternates:normal;font-variant-east-asian:normal;font-feature-settings:normal;font-variation-settings:normal;text-indent:0;text-align:start;text-decoration:none;text-decoration-line:none;text-decoration-style:solid;text-decoration-color:#000000;letter-spacing:normal;word-spacing:normal;text-transform:none;writing-mode:lr-tb;direction:ltr;text-orientation:mixed;dominant-baseline:auto;baseline-shift:baseline;text-anchor:start;white-space:normal;shape-padding:0;shape-margin:0;inline-size:0;clip-rule:nonzero;display:inline;overflow:visible;visibility:visible;opacity:1;isolation:auto;mix-blend-mode:normal;color-interpolation:sRGB;color-interpolation-filters:linearRGB;solid-color:#000000;solid-opacity:1;vector-effect:none;fill:#734215;fill-opacity:1;fill-rule:nonzero;stroke:none;stroke-width:0.641298;stroke-linecap:butt;stroke-linejoin:miter;stroke-miterlimit:4;stroke-dasharray:none;stroke-dashoffset:0;stroke-opacity:1;color-rendering:auto;image-rendering:auto;shape-rendering:auto;text-rendering:auto;enable-background:accumulate;stop-color:#000000;stop-opacity:1"
             d="m 91.414132,97.241127 -1.131306,0.09818 v 0.175229 l 1.131306,0.09818 z m -2.337953,0.04053 -6.238727,0.14549 6.238727,0.145041 z m -10.532776,0.14549 -6.238727,-0.14549 v 0.290531 z m -7.445374,-0.08784 -1.131306,-0.09818 v 0.371583 l 1.131306,-0.09818 z"
             sodipodi:nodetypes="cccccccccccccccccc" />
          <path
             id="path1342"
             style="color:#000000;font-style:normal;font-variant:normal;font-weight:normal;font-stretch:normal;font-size:medium;line-height:normal;font-family:sans-serif;font-variant-ligatures:normal;font-variant-position:normal;font-variant-caps:normal;font-variant-numeric:normal;font-variant-alternates:normal;font-variant-east-asian:normal;font-feature-settings:normal;font-variation-settings:normal;text-indent:0;text-align:start;text-decoration:none;text-decoration-line:none;text-decoration-style:solid;text-decoration-color:#000000;letter-spacing:normal;word-spacing:normal;text-transform:none;writing-mode:lr-tb;direction:ltr;text-orientation:mixed;dominant-baseline:auto;baseline-shift:baseline;text-anchor:start;white-space:normal;shape-padding:0;shape-margin:0;inline-size:0;clip-rule:nonzero;display:inline;overflow:visible;visibility:visible;opacity:1;isolation:auto;mix-blend-mode:normal;color-interpolation:sRGB;color-interpolation-filters:linearRGB;solid-color:#000000;solid-opacity:1;vector-effect:none;fill:#734215;fill-opacity:1;fill-rule:nonzero;stroke:none;stroke-width:0.641298;stroke-linecap:butt;stroke-linejoin:miter;stroke-miterlimit:4;stroke-dasharray:none;stroke-dashoffset:0;stroke-opacity:1;color-rendering:auto;image-rendering:auto;shape-rendering:auto;text-rendering:auto;enable-background:accumulate;stop-color:#000000;stop-opacity:1"
             d="m 88.141857,89.71274 -0.730533,0.869376 0.123907,0.123906 0.869375,-0.730533 z m -1.624526,1.681838 -4.308569,4.514324 4.514006,-4.308887 z m -7.34492,7.550675 -4.514324,4.308567 0.205437,0.20544 z m -5.326787,5.202567 -0.869375,0.73053 0.262748,0.26275 0.730533,-0.86938 z"
             sodipodi:nodetypes="cccccccccccccccccc" />
          <path
             id="path1344"
             style="color:#000000;font-style:normal;font-variant:normal;font-weight:normal;font-stretch:normal;font-size:medium;line-height:normal;font-family:sans-serif;font-variant-ligatures:normal;font-variant-position:normal;font-variant-caps:normal;font-variant-numeric:normal;font-variant-alternates:normal;font-variant-east-asian:normal;font-feature-settings:normal;font-variation-settings:normal;text-indent:0;text-align:start;text-decoration:none;text-decoration-line:none;text-decoration-style:solid;text-decoration-color:#000000;letter-spacing:normal;word-spacing:normal;text-transform:none;writing-mode:lr-tb;direction:ltr;text-orientation:mixed;dominant-baseline:auto;baseline-shift:baseline;text-anchor:start;white-space:normal;shape-padding:0;shape-margin:0;inline-size:0;clip-rule:nonzero;display:inline;overflow:visible;visibility:visible;opacity:1;isolation:auto;mix-blend-mode:normal;color-interpolation:sRGB;color-interpolation-filters:linearRGB;solid-color:#000000;solid-opacity:1;vector-effect:none;fill:#734215;fill-opacity:1;fill-rule:nonzero;stroke:none;stroke-width:0.641298;stroke-linecap:butt;stroke-linejoin:miter;stroke-miterlimit:4;stroke-dasharray:none;stroke-dashoffset:0;stroke-opacity:1;color-rendering:auto;image-rendering:auto;shape-rendering:auto;text-rendering:auto;enable-background:accumulate;stop-color:#000000;stop-opacity:1"
             d="m 88.404606,104.87835 -0.869378,-0.73053 -0.123905,0.1239 0.73053,0.86938 z m -1.681841,-1.62453 -4.514324,-4.308565 4.308887,4.514005 z m -7.550674,-7.344915 -4.30857,-4.514324 -0.205436,0.205437 z m -5.202564,-5.326786 -0.730531,-0.869378 -0.262748,0.262749 0.869378,0.730531 z"
             sodipodi:nodetypes="cccccccccccccccccc" />
          <path
             id="path1346"
             style="color:#000000;font-style:normal;font-variant:normal;font-weight:normal;font-stretch:normal;font-size:medium;line-height:normal;font-family:sans-serif;font-variant-ligatures:normal;font-variant-position:normal;font-variant-caps:normal;font-variant-numeric:normal;font-variant-alternates:normal;font-variant-east-asian:normal;font-feature-settings:normal;font-variation-settings:normal;text-indent:0;text-align:start;text-decoration:none;text-decoration-line:none;text-decoration-style:solid;text-decoration-color:#000000;letter-spacing:normal;word-spacing:normal;text-transform:none;writing-mode:lr-tb;direction:ltr;text-orientation:mixed;dominant-baseline:auto;baseline-shift:baseline;text-anchor:start;white-space:normal;shape-padding:0;shape-margin:0;inline-size:0;clip-rule:nonzero;display:inline;overflow:visible;visibility:visible;opacity:1;isolation:auto;mix-blend-mode:normal;color-interpolation:sRGB;color-interpolation-filters:linearRGB;solid-color:#000000;solid-opacity:1;vector-effect:none;fill:#734215;fill-opacity:1;fill-rule:nonzero;stroke:none;stroke-width:0.641298;stroke-linecap:butt;stroke-linejoin:miter;stroke-miterlimit:4;stroke-dasharray:none;stroke-dashoffset:0;stroke-opacity:1;color-rendering:auto;image-rendering:auto;shape-rendering:auto;text-rendering:auto;enable-background:accumulate;stop-color:#000000;stop-opacity:1"
             d="m 85.89138,88.047022 -0.48063,1.028828 0.151753,0.08761 0.650677,-0.930651 z m -1.133881,2.04499 -2.993364,5.475642 3.244972,-5.330377 z m -5.140389,9.194397 -3.245362,5.330151 0.251607,0.14527 z m -3.798758,6.403961 -0.650677,0.93065 0.3218,0.1858 0.48063,-1.02883 z"
             sodipodi:nodetypes="cccccccccccccccccc" />
          <path
             id="path1348"
             style="color:#000000;font-style:normal;font-variant:normal;font-weight:normal;font-stretch:normal;font-size:medium;line-height:normal;font-family:sans-serif;font-variant-ligatures:normal;font-variant-position:normal;font-variant-caps:normal;font-variant-numeric:normal;font-variant-alternates:normal;font-variant-east-asian:normal;font-feature-settings:normal;font-variation-settings:normal;text-indent:0;text-align:start;text-decoration:none;text-decoration-line:none;text-decoration-style:solid;text-decoration-color:#000000;letter-spacing:normal;word-spacing:normal;text-transform:none;writing-mode:lr-tb;direction:ltr;text-orientation:mixed;dominant-baseline:auto;baseline-shift:baseline;text-anchor:start;white-space:normal;shape-padding:0;shape-margin:0;inline-size:0;clip-rule:nonzero;display:inline;overflow:visible;visibility:visible;opacity:1;isolation:auto;mix-blend-mode:normal;color-interpolation:sRGB;color-interpolation-filters:linearRGB;solid-color:#000000;solid-opacity:1;vector-effect:none;fill:#734215;fill-opacity:1;fill-rule:nonzero;stroke:none;stroke-width:0.641298;stroke-linecap:butt;stroke-linejoin:miter;stroke-miterlimit:4;stroke-dasharray:none;stroke-dashoffset:0;stroke-opacity:1;color-rendering:auto;image-rendering:auto;shape-rendering:auto;text-rendering:auto;enable-background:accumulate;stop-color:#000000;stop-opacity:1"
             d="m 90.070324,102.62787 -1.02883,-0.48063 -0.08761,0.15176 0.930649,0.65068 z m -2.044992,-1.13388 -5.475641,-2.993362 5.330376,3.244972 z m -9.194396,-5.140386 -5.330151,-3.245361 -0.145266,0.251607 z m -6.403964,-3.798757 -0.93065,-0.650679 -0.185792,0.3218 1.02883,0.480627 z"
             sodipodi:nodetypes="cccccccccccccccccc" />
          <path
             id="path1350"
             style="color:#000000;font-style:normal;font-variant:normal;font-weight:normal;font-stretch:normal;font-size:medium;line-height:normal;font-family:sans-serif;font-variant-ligatures:normal;font-variant-position:normal;font-variant-caps:normal;font-variant-numeric:normal;font-variant-alternates:normal;font-variant-east-asian:normal;font-feature-settings:normal;font-variation-settings:normal;text-indent:0;text-align:start;text-decoration:none;text-decoration-line:none;text-decoration-style:solid;text-decoration-color:#000000;letter-spacing:normal;word-spacing:normal;text-transform:none;writing-mode:lr-tb;direction:ltr;text-orientation:mixed;dominant-baseline:auto;baseline-shift:baseline;text-anchor:start;white-space:normal;shape-padding:0;shape-margin:0;inline-size:0;clip-rule:nonzero;display:inline;overflow:visible;visibility:visible;opacity:1;isolation:auto;mix-blend-mode:normal;color-interpolation:sRGB;color-interpolation-filters:linearRGB;solid-color:#000000;solid-opacity:1;vector-effect:none;fill:#734215;fill-opacity:1;fill-rule:nonzero;stroke:none;stroke-width:0.641298;stroke-linecap:butt;stroke-linejoin:miter;stroke-miterlimit:4;stroke-dasharray:none;stroke-dashoffset:0;stroke-opacity:1;color-rendering:auto;image-rendering:auto;shape-rendering:auto;text-rendering:auto;enable-background:accumulate;stop-color:#000000;stop-opacity:1"
             d="m 91.000644,94.471959 -1.067348,0.387635 0.04535,0.169259 1.118167,-0.197972 z m -2.2478,0.644251 -5.988492,1.755235 6.063687,-1.474603 z m -10.136225,2.866617 -6.063802,1.474166 0.07519,0.280635 z m -7.214416,1.842161 -1.118166,0.197972 0.09617,0.35892 1.06735,-0.387638 z"
             sodipodi:nodetypes="cccccccccccccccccc" />
          <path
             id="path1352"
             style="color:#000000;font-style:normal;font-variant:normal;font-weight:normal;font-stretch:normal;font-size:medium;line-height:normal;font-family:sans-serif;font-variant-ligatures:normal;font-variant-position:normal;font-variant-caps:normal;font-variant-numeric:normal;font-variant-alternates:normal;font-variant-east-asian:normal;font-feature-settings:normal;font-variation-settings:normal;text-indent:0;text-align:start;text-decoration:none;text-decoration-line:none;text-decoration-style:solid;text-decoration-color:#000000;letter-spacing:normal;word-spacing:normal;text-transform:none;writing-mode:lr-tb;direction:ltr;text-orientation:mixed;dominant-baseline:auto;baseline-shift:baseline;text-anchor:start;white-space:normal;shape-padding:0;shape-margin:0;inline-size:0;clip-rule:nonzero;display:inline;overflow:visible;visibility:visible;opacity:1;isolation:auto;mix-blend-mode:normal;color-interpolation:sRGB;color-interpolation-filters:linearRGB;solid-color:#000000;solid-opacity:1;vector-effect:none;fill:#734215;fill-opacity:1;fill-rule:nonzero;stroke:none;stroke-width:0.641298;stroke-linecap:butt;stroke-linejoin:miter;stroke-miterlimit:4;stroke-dasharray:none;stroke-dashoffset:0;stroke-opacity:1;color-rendering:auto;image-rendering:auto;shape-rendering:auto;text-rendering:auto;enable-background:accumulate;stop-color:#000000;stop-opacity:1"
             d="m 83.645386,107.73714 -0.387638,-1.06735 -0.169255,0.0453 0.197968,1.11817 z m -0.644252,-2.24781 -1.755237,-5.988488 1.474604,6.063688 z m -2.866618,-10.136219 -1.474169,-6.063803 -0.280631,0.07519 z m -1.842159,-7.214413 -0.19797,-1.118169 -0.358921,0.09617 0.387638,1.067348 z"
             sodipodi:nodetypes="cccccccccccccccccc" />
          <path
             id="path1354"
             style="color:#000000;font-style:normal;font-variant:normal;font-weight:normal;font-stretch:normal;font-size:medium;line-height:normal;font-family:sans-serif;font-variant-ligatures:normal;font-variant-position:normal;font-variant-caps:normal;font-variant-numeric:normal;font-variant-alternates:normal;font-variant-east-asian:normal;font-feature-settings:normal;font-variation-settings:normal;text-indent:0;text-align:start;text-decoration:none;text-decoration-line:none;text-decoration-style:solid;text-decoration-color:#000000;letter-spacing:normal;word-spacing:normal;text-transform:none;writing-mode:lr-tb;direction:ltr;text-orientation:mixed;dominant-baseline:auto;baseline-shift:baseline;text-anchor:start;white-space:normal;shape-padding:0;shape-margin:0;inline-size:0;clip-rule:nonzero;display:inline;overflow:visible;visibility:visible;opacity:1;isolation:auto;mix-blend-mode:normal;color-interpolation:sRGB;color-interpolation-filters:linearRGB;solid-color:#000000;solid-opacity:1;vector-effect:none;fill:#734215;fill-opacity:1;fill-rule:nonzero;stroke:none;stroke-width:0.641298;stroke-linecap:butt;stroke-linejoin:miter;stroke-miterlimit:4;stroke-dasharray:none;stroke-dashoffset:0;stroke-opacity:1;color-rendering:auto;image-rendering:auto;shape-rendering:auto;text-rendering:auto;enable-background:accumulate;stop-color:#000000;stop-opacity:1"
             d="m 89.88452,91.904164 -0.930651,0.650676 0.08762,0.151749 1.028828,-0.480629 z m -2.004464,1.204073 -5.330148,3.245363 5.475414,-2.993756 z m -9.048903,5.392387 -5.475645,2.993366 0.145263,0.25161 z m -6.491805,3.646616 -1.028828,0.48063 0.185787,0.3218 0.930653,-0.65067 z"
             sodipodi:nodetypes="cccccccccccccccccc" />
          <path
             id="path1356"
             style="color:#000000;font-style:normal;font-variant:normal;font-weight:normal;font-stretch:normal;font-size:medium;line-height:normal;font-family:sans-serif;font-variant-ligatures:normal;font-variant-position:normal;font-variant-caps:normal;font-variant-numeric:normal;font-variant-alternates:normal;font-variant-east-asian:normal;font-feature-settings:normal;font-variation-settings:normal;text-indent:0;text-align:start;text-decoration:none;text-decoration-line:none;text-decoration-style:solid;text-decoration-color:#000000;letter-spacing:normal;word-spacing:normal;text-transform:none;writing-mode:lr-tb;direction:ltr;text-orientation:mixed;dominant-baseline:auto;baseline-shift:baseline;text-anchor:start;white-space:normal;shape-padding:0;shape-margin:0;inline-size:0;clip-rule:nonzero;display:inline;overflow:visible;visibility:visible;opacity:1;isolation:auto;mix-blend-mode:normal;color-interpolation:sRGB;color-interpolation-filters:linearRGB;solid-color:#000000;solid-opacity:1;vector-effect:none;fill:#734215;fill-opacity:1;fill-rule:nonzero;stroke:none;stroke-width:0.641298;stroke-linecap:butt;stroke-linejoin:miter;stroke-miterlimit:4;stroke-dasharray:none;stroke-dashoffset:0;stroke-opacity:1;color-rendering:auto;image-rendering:auto;shape-rendering:auto;text-rendering:auto;enable-background:accumulate;stop-color:#000000;stop-opacity:1"
             d="m 86.213168,106.62102 -0.650678,-0.93065 -0.151752,0.0876 0.480625,1.02883 z m -1.204075,-2.00446 -3.245361,-5.330151 2.993753,5.475411 z m -5.392385,-9.048906 -2.993368,-5.475641 -0.251608,0.145265 z m -3.646619,-6.491803 -0.480628,-1.028829 -0.3218,0.185791 0.650679,0.93065 z"
             sodipodi:nodetypes="cccccccccccccccccc" />
          <path
             id="path1358"
             style="color:#000000;font-style:normal;font-variant:normal;font-weight:normal;font-stretch:normal;font-size:medium;line-height:normal;font-family:sans-serif;font-variant-ligatures:normal;font-variant-position:normal;font-variant-caps:normal;font-variant-numeric:normal;font-variant-alternates:normal;font-variant-east-asian:normal;font-feature-settings:normal;font-variation-settings:normal;text-indent:0;text-align:start;text-decoration:none;text-decoration-line:none;text-decoration-style:solid;text-decoration-color:#000000;letter-spacing:normal;word-spacing:normal;text-transform:none;writing-mode:lr-tb;direction:ltr;text-orientation:mixed;dominant-baseline:auto;baseline-shift:baseline;text-anchor:start;white-space:normal;shape-padding:0;shape-margin:0;inline-size:0;clip-rule:nonzero;display:inline;overflow:visible;visibility:visible;opacity:1;isolation:auto;mix-blend-mode:normal;color-interpolation:sRGB;color-interpolation-filters:linearRGB;solid-color:#000000;solid-opacity:1;vector-effect:none;fill:#734215;fill-opacity:1;fill-rule:nonzero;stroke:none;stroke-width:0.641298;stroke-linecap:butt;stroke-linejoin:miter;stroke-miterlimit:4;stroke-dasharray:none;stroke-dashoffset:0;stroke-opacity:1;color-rendering:auto;image-rendering:auto;shape-rendering:auto;text-rendering:auto;enable-background:accumulate;stop-color:#000000;stop-opacity:1"
             d="m 91.096804,100.02295 -1.118168,-0.197967 -0.04536,0.169257 1.067347,0.38763 z m -2.268777,-0.565957 -6.063802,-1.474167 5.988607,1.754798 z M 78.616493,96.871444 72.628,95.116207 72.5528,95.396839 Z m -7.168951,-2.011851 -1.067346,-0.387634 -0.09617,0.358919 1.118171,0.197971 z"
             sodipodi:nodetypes="cccccccccccccccccc" />
          <path
             id="path1360"
             style="color:#000000;font-style:normal;font-variant:normal;font-weight:normal;font-stretch:normal;font-size:medium;line-height:normal;font-family:sans-serif;font-variant-ligatures:normal;font-variant-position:normal;font-variant-caps:normal;font-variant-numeric:normal;font-variant-alternates:normal;font-variant-east-asian:normal;font-feature-settings:normal;font-variation-settings:normal;text-indent:0;text-align:start;text-decoration:none;text-decoration-line:none;text-decoration-style:solid;text-decoration-color:#000000;letter-spacing:normal;word-spacing:normal;text-transform:none;writing-mode:lr-tb;direction:ltr;text-orientation:mixed;dominant-baseline:auto;baseline-shift:baseline;text-anchor:start;white-space:normal;shape-padding:0;shape-margin:0;inline-size:0;clip-rule:nonzero;display:inline;overflow:visible;visibility:visible;opacity:1;isolation:auto;mix-blend-mode:normal;color-interpolation:sRGB;color-interpolation-filters:linearRGB;solid-color:#000000;solid-opacity:1;vector-effect:none;fill:#734215;fill-opacity:1;fill-rule:nonzero;stroke:none;stroke-width:0.641298;stroke-linecap:butt;stroke-linejoin:miter;stroke-miterlimit:4;stroke-dasharray:none;stroke-dashoffset:0;stroke-opacity:1;color-rendering:auto;image-rendering:auto;shape-rendering:auto;text-rendering:auto;enable-background:accumulate;stop-color:#000000;stop-opacity:1"
             d="m 78.094374,107.83331 0.19797,-1.11817 -0.169229,-0.0454 -0.38764,1.06735 z m 0.565966,-2.26879 1.474167,-6.063796 -1.754802,5.988606 z m 2.585548,-10.211529 1.755231,-5.988492 -0.280628,-0.0752 z m 2.011847,-7.168945 0.387638,-1.067347 -0.35892,-0.09618 -0.197969,1.118169 z"
             sodipodi:nodetypes="cccccccccccccccccc" />
        </g>
        <circle
           style="opacity:1;fill:none;fill-opacity:1;stroke:#734215;stroke-width:0.153616;stroke-linecap:round;stroke-miterlimit:4;stroke-dasharray:none;stroke-opacity:1;paint-order:fill markers stroke"
           id="circle1132"
           cx="80.690407"
           cy="97.426422"
           r="1.86474" />
        <circle
           style="opacity:1;fill:none;fill-opacity:1;stroke:#734215;stroke-width:0.153616;stroke-linecap:round;stroke-miterlimit:4;stroke-dasharray:none;stroke-opacity:1;paint-order:fill markers stroke"
           id="circle1362"
           cx="80.690414"
           cy="97.426414"
           r="9.9552498" />
        <circle
           style="opacity:1;fill:none;fill-opacity:1;stroke:#734215;stroke-width:0.153616;stroke-linecap:round;stroke-miterlimit:4;stroke-dasharray:none;stroke-opacity:1;paint-order:fill markers stroke"
           id="circle1383"
           cx="80.690407"
           cy="97.426422"
           r="1.083696" />
      </g>
    </g>
    <g
       id="g1897"
       transform="matrix(1.7678197,0,0,1.7678197,-33.226456,-40.730449)"
       style="stroke-width:0.565669">
      <path
         style="font-variation-settings:normal;opacity:1;vector-effect:none;fill:#7bb1c7;fill-opacity:1;stroke:none;stroke-width:0.149666;stroke-linecap:butt;stroke-linejoin:miter;stroke-miterlimit:4;stroke-dasharray:none;stroke-dashoffset:0;stroke-opacity:1;stop-color:#000000;stop-opacity:1"
         d="M 63.55168,104.67611 62.908563,72.052523 c 0,0 4.41997,8.910098 6.033611,12.979276 1.613638,4.069177 1.122532,8.418991 0.491106,11.505953 -0.631422,3.086963 -1.905162,6.532768 -2.104747,9.120568 z"
         id="path1887"
         sodipodi:nodetypes="ccsscc" />
      <path
         style="font-variation-settings:normal;opacity:1;vector-effect:none;fill:#4e2705;fill-opacity:1;stroke:none;stroke-width:0.149666;stroke-linecap:butt;stroke-linejoin:miter;stroke-miterlimit:4;stroke-dasharray:none;stroke-dashoffset:0;stroke-opacity:1;stop-color:#000000;stop-opacity:1"
         d="m 69.000639,115.71434 h -5.928371 c 0,0 0.631714,-1.08724 0.771885,-2.35019 l 0.385726,-1.0291 2.841409,0.0351 0.513216,1.15265 c 0,0 0.574236,1.06901 1.416135,2.19154 z"
         id="path1872"
         sodipodi:nodetypes="ccccccc" />
      <path
         style="font-variation-settings:normal;opacity:1;vector-effect:none;fill:#38699e;fill-opacity:1;stroke:none;stroke-width:0.149666;stroke-linecap:butt;stroke-linejoin:miter;stroke-miterlimit:4;stroke-dasharray:none;stroke-dashoffset:0;stroke-opacity:1;stop-color:#000000;stop-opacity:1"
         d="M 65.182313,104.80886 64.716021,83.180584 c 0,0 2.210326,3.475748 3.068499,5.639831 0.858173,2.164086 0.705607,5.07198 0.261182,7.241668 -0.444424,2.169689 -1.305757,5.503417 -1.383938,9.131537 z"
         id="path1889"
         sodipodi:nodetypes="ccszcc" />
      <path
         style="font-variation-settings:normal;opacity:1;vector-effect:none;fill:#734215;fill-opacity:1;stroke:none;stroke-width:0.0748334;stroke-linecap:butt;stroke-linejoin:miter;stroke-miterlimit:4;stroke-dasharray:none;stroke-dashoffset:0;stroke-opacity:1;stop-color:#000000;stop-opacity:1"
         d="m 78.448957,116.73086 v -7.14376 c 0,0 -3.274218,0.34726 -6.151562,-0.79374 0,0 -0.942577,-1.0418 -1.934765,-2.33164 -0.992187,-1.28984 -1.314348,-1.26697 -2.388728,-1.50281 -0.835617,-0.18343 -2.481174,-0.46989 -3.007361,-0.57513 -0.526187,-0.10523 -0.982216,0.10524 -0.982216,0.10524 0,0 -0.876979,0.14032 -1.192691,0.14032 -0.315712,0 -0.280632,0.28063 -0.175397,0.38587 0,0 -0.07016,0.49111 0.456031,0.8419 0,0 -0.526187,0.24555 -0.596345,0.94713 -0.07016,0.70159 0.350791,1.15762 0.350791,1.15762 0,0 -0.42095,0.31571 -0.42095,1.05237 0,0.73666 0.491108,1.08745 0.491108,1.08745 0,0 -0.280633,0.35079 -0.245554,0.94714 0.03508,0.59634 0.42095,0.80682 0.42095,0.80682 0,0 -0.175396,0.49111 0,0.91206 0.175395,0.42094 0.350791,0.52618 0.77174,0.59634 0.42095,0.0702 0.80682,-0.10524 1.578561,0 0.771741,0.10524 1.318577,-0.31254 1.517014,-0.75902 0,0 0.272852,0.42167 0.644922,0.91777 0,0 1.165821,0.0496 1.860352,0 0.694531,-0.0496 1.079369,-0.3455 1.079369,-0.3455 0,0 1.822779,0.44472 3.757545,1.4369 1.934765,0.99219 4.167186,2.11667 4.167186,2.11667 z"
         id="path1828"
         sodipodi:nodetypes="cccssscsccscscscscsccscsc" />
      <path
         id="path1841"
         style="color:#000000;font-style:normal;font-variant:normal;font-weight:normal;font-stretch:normal;font-size:medium;line-height:normal;font-family:sans-serif;font-variant-ligatures:normal;font-variant-position:normal;font-variant-caps:normal;font-variant-numeric:normal;font-variant-alternates:normal;font-variant-east-asian:normal;font-feature-settings:normal;font-variation-settings:normal;text-indent:0;text-align:start;text-decoration:none;text-decoration-line:none;text-decoration-style:solid;text-decoration-color:#000000;letter-spacing:normal;word-spacing:normal;text-transform:none;writing-mode:lr-tb;direction:ltr;text-orientation:mixed;dominant-baseline:auto;baseline-shift:baseline;text-anchor:start;white-space:normal;shape-padding:0;shape-margin:0;inline-size:0;clip-rule:nonzero;display:inline;overflow:visible;visibility:visible;opacity:1;isolation:auto;mix-blend-mode:normal;color-interpolation:sRGB;color-interpolation-filters:linearRGB;solid-color:#000000;solid-opacity:1;vector-effect:none;fill:#4e2705;fill-opacity:1;fill-rule:nonzero;stroke:none;stroke-width:2.13796;stroke-linecap:butt;stroke-linejoin:miter;stroke-miterlimit:4;stroke-dasharray:none;stroke-dashoffset:0;stroke-opacity:1;color-rendering:auto;image-rendering:auto;shape-rendering:auto;text-rendering:auto;enable-background:accumulate;stop-color:#000000;stop-opacity:1"
         d="m 242.71875,396.03125 c 0,0 -0.87855,0.81087 -3.46875,0.84375 -1.45854,0.0192 -2.30661,-0.21416 -2.83594,-0.42773 0.046,0.18015 0.13328,0.34811 0.2461,0.46093 0,0 0.71484,0.43553 3.15234,0.5293 2.4375,0.0937 2.90625,-1.40625 2.90625,-1.40625 z m -5.85937,1.81055 -0.11329,0.0273 c 0.15746,0.64867 0.56678,1.50742 1.63672,2.2207 0,0 3.914,1.41112 7.59571,0.66602 0.10378,0.0427 2.54281,1.06119 6.76953,0.74609 -4.12298,-0.68602 -6.4336,-2.26758 -6.4336,-2.26757 -5.55732,2.27289 -9.45507,-1.39258 -9.45507,-1.39258 z m 16.44531,4.32617 c 1.02417,0.86052 1.56464,1.80563 1.4375,3.65234 -0.12715,1.84687 -2.55356,2.00881 -4.21485,1.9336 -1.42077,-0.068 -3.17283,-0.16543 -5.19726,-0.0312 -2.90975,0.42973 -5.61265,0.0478 -7.14258,-0.8086 -0.98775,-0.55296 -1.6144,-1.2528 -2.02344,-1.89062 0.24613,1.86224 1.29102,3.02148 1.29102,3.02148 0,0 3.90532,0.94451 7.9414,0.67578 1.95304,-0.12888 3.8437,-0.31183 5.3379,-0.14062 1.49419,0.17121 2.20981,0.87267 2.95898,1.37304 0.74917,0.50034 1.34189,1.09878 1.55078,1.5586 0.44882,0.98793 0.35339,2.01469 0.0293,2.80469 -0.32406,0.78999 -1.4522,1.188 -1.66797,1.20312 -0.75704,0.0582 -1.51947,-0.0459 -3.10938,-0.15625 -1.5899,-0.11036 -3.50059,-0.15461 -5.60937,0.18555 -3.28624,0.80802 -6.73372,0.18117 -8.73047,-1.70313 0.52274,1.54327 1.56445,2.28711 1.56445,2.28711 0,0 3.13374,1.08072 7.32813,0.4043 2.00127,-0.32277 3.82761,-0.2835 5.38086,-0.17578 0.95552,0.0665 1.59215,0.085 2.31445,0.15039 0.93337,0.70106 1.30791,0.91783 1.97656,2.12305 0.30478,0.54931 0.45987,1.39503 0.32422,2.07421 -0.13565,0.67919 -0.46641,1.17368 -1.27539,1.34375 -0.44492,0.0934 -1.03822,0.10705 -2.23828,0.0957 -1.20006,-0.0113 -2.65721,-0.0442 -4.20117,0.0234 -1.74537,0.16403 -5.57383,0.42943 -8.29297,-0.58594 -0.9611,-0.35889 -1.65462,-1.09284 -2.23047,-1.76758 0.17373,2.16729 1.57617,2.94336 1.57617,2.94336 0,0 5.90989,0.54786 8.99219,0.41406 1.50544,-0.0642 2.94273,-0.0426 4.14844,-0.0312 0.24553,0.004 0.35185,-0.0215 0.57617,-0.0215 1.12649,1.95809 -1.43035,3.88448 -2.49609,4.38867 -1.06575,0.50415 -2.80056,-0.15456 -3.79493,-0.2207 -0.99437,-0.0661 -1.6582,-1.39258 -1.6582,-1.39258 0,0 -0.39798,0.53065 -0.13281,1.32617 0,0 -3.25088,0.35601 -5.69141,-1.19727 0.0212,0.0603 0.0318,0.122 0.0566,0.18164 0.66291,1.59096 1.32698,1.98874 2.91797,2.25391 1.59099,0.26532 3.04803,-0.39776 5.96484,0 2.91682,0.39776 4.98438,-1.18166 5.73438,-2.86914 0,0 1.03125,1.59373 2.4375,3.46875 0,0 4.40625,0.18746 7.03125,0 2.625,-0.18746 4.08008,-1.30664 4.08008,-1.30664 0,0 1.69385,0.4186 4.26562,1.28125 -2.57713,-3.31053 -1.36483,-5.90705 -1.4707,-8.24805 6.07525,1.86853 16.1893,8.08521 24.84766,8.61914 -7.75187,-2.11593 -22.41728,-9.22353 -24.06217,-9.98038 -1.64489,-0.75685 -3.38841,-3.52174 -5.02768,-3.72665 0,0 1.68068,1.84225 1.80664,3.92558 0.13319,2.20303 -1.31697,4.68673 -2.44726,5.967 -2.19924,2.49105 -6.96094,2.81252 -8.74219,0.93755 -1.78126,-1.87499 -1.74414,-3.50391 -1.74414,-3.50391 1.18455,-0.24945 1.86126,-1.16842 2.05273,-2.12695 0.19147,-0.95853 -0.004,-1.97642 -0.43554,-2.75391 -0.52559,-0.94737 -1.0981,-1.32333 -1.69532,-1.71875 0.88654,-0.085 1.61524,-0.16442 2.26563,-1.15039 1.1334,1.07206 4.72829,2.47875 6.04297,1.16407 -2.63203,-0.16803 -4.72091,-0.33977 -5.94531,-2.57227 0.18366,-3.12074 -1.17362,-4.18893 -2.01368,-4.75 -0.3369,-0.22473 -0.58512,-0.32532 -0.95117,-0.50976 1.51407,0.0522 2.30929,-1.67762 2.31836,-2.85547 0.009,-1.17786 -0.81369,-3.31948 -2.30859,-3.58594 z m -2.42383,0.25195 c -1.23871,0.0412 -2.7832,0.40819 -3.19336,1.58008 -0.65625,1.87499 0.46875,2.8125 0.46875,2.8125 0,0 -0.28125,-2.71874 1.40625,-3.46875 1.6875,-0.75005 4.125,0.375 4.125,0.375 0,0 -0.65625,-0.8438 -1.21875,-1.125 -0.21094,-0.10548 -0.84467,-0.19854 -1.58789,-0.17383 z m -6.94336,0.26758 c 0,0 -0.9375,1.03123 -0.75,2.53125 0.1875,1.49998 0.9375,1.875 0.9375,1.875 0,0 -0.84375,-2.71873 -0.1875,-4.40625 z m 7.82227,7.87305 c -1.27991,-0.0604 -2.64258,0.36525 -2.75977,1.5957 -0.1875,1.96876 0.75,2.4375 0.75,2.4375 0,0 -0.5625,-1.96876 0.46875,-3 1.03125,-1.03128 3.46875,-0.46875 3.46875,-0.46875 -0.42187,-0.3164 -1.15979,-0.5282 -1.92773,-0.56445 z m -7.63477,0.0957 c 0,0 -0.65625,1.125 -0.46875,2.53125 0.1875,1.40625 0.9375,1.96871 0.9375,1.78125 0,-0.18746 -1.125,-2.43751 -0.46875,-4.3125 z m -0.46875,7.125 c 0,0 -0.46877,0.74998 -0.28125,2.0625 0.1875,1.31248 0.75,1.59375 0.75,1.59375 0,0 -0.84375,-2.62501 -0.46875,-3.65625 z m 7.18359,0.0352 c -0.94922,-0.0352 -1.98047,0.19921 -2.30859,1.27734 -0.65625,2.15626 0.84375,2.625 0.84375,2.625 0,0 -0.56248,-1.03127 -0.28125,-2.34375 0.28125,-1.31252 3.5625,-1.21875 3.5625,-1.21875 0,0 -0.86719,-0.30469 -1.81641,-0.33984 z M 249,423.5 c 0,0 -1.59375,-0.0937 -1.78125,1.5 -0.1875,1.59375 1.125,2.06254 1.78125,2.25 0,0 -0.9375,-0.28118 -1.125,-1.5 -0.1875,-1.21875 1.21875,-1.96875 2.34375,-1.96875 z"
         transform="scale(0.26458333)"
         sodipodi:nodetypes="ccccscccccccccsccscccsssscscccsccsscscscccccsscccscsccsccccczcsscssccccccscsssscsscsscsssscscssccsscsssscscscscccc" />
      <path
         style="font-variation-settings:normal;opacity:1;vector-effect:none;fill:#734215;fill-opacity:1;stroke:none;stroke-width:0.149666;stroke-linecap:butt;stroke-linejoin:miter;stroke-miterlimit:4;stroke-dasharray:none;stroke-dashoffset:0;stroke-opacity:1;stop-color:#000000;stop-opacity:1"
         d="m 63.598453,115.43954 c 0.281532,-0.53981 0.510662,-1.03085 0.604126,-1.69604 0,0 1.012822,-0.31004 1.297199,0.16616 0.538954,0.9025 1.113719,1.52988 1.113719,1.52988 z m 2.354559,-1.64572 c 0.745173,1.12326 1.328751,1.64572 1.328751,1.64572 h 1.052373 c 0,0 -0.825605,-1.08868 -1.351792,-2.14105 0,0 -0.160135,0.28556 -1.029332,0.49533 z"
         id="path1874"
         sodipodi:nodetypes="ccsccccccc" />
    </g>
    <use
       x="0"
       y="0"
       xlink:href="#g1897"
       id="use1899"
       transform="matrix(-1,0,0,1,218.83931,0)"
       width="100%"
       height="100%"
       style="stroke-width:0.565669" />
  </g>
</svg>
