<svg xmlns="http://www.w3.org/2000/svg" width="602" height="590.909"><g transform="translate(-190.57106,-25.950868)"><ellipse cx="491.174" cy="320.58" rx="224.319" ry="226.6" fill="#fff" stroke="#540" stroke-width="2.244"/><path d="m 296.668,419.13008 c 4.13552,-1.65308 11.26959,-0.89606 15.5864,-3.22479 4.74388,-2.33708 11.40997,-3.12414 17.73625,-2.68732 4.78553,2.25058 11.15765,3.67948 17.19881,4.83718 7.40429,0.85689 11.43256,-1.71672 18.60694,-1.05216 4.63864,-1.2147 10.13268,-4.44508 16.58517,-3.24754 5.90786,0.29054 10.92968,3.14619 17.47917,4.2997 6.27517,1.70454 11.7612,-1.51762 18.27371,-0.53748 8.50178,1.43016 18.37424,2.26506 24.6618,4.34679 4.52749,2.16802 11.25543,2.08107 15.98085,0.49038 6.7438,-0.41031 14.36972,0.97069 20.39317,-0.96317 3.00196,-4.13013 10.62444,-1.05456 15.82127,-1.18669 6.21384,1.22191 12.51773,3.20875 18.27371,4.83717 8.76099,-0.0859 17.6721,0.5113 26.13119,-1.07493 6.66888,-1.46968 13.36693,-0.79636 20.09057,0 5.46552,0.009 11.14173,0.35954 15.71493,-1.07493 5.62741,-0.38613 12.38297,-2.42203 14.9204,-6.44952 5.54698,0.0622 7.86907,3.44645 11.82418,4.83714 3.17133,2.26012 9.55559,3.65213 15.5864,5.37463 8.31953,2.24243 17.55735,1.37106 26.13214,2.64488 7.18853,0.26989 14.02707,1.98837 19.96634,3.8623 6.38421,1.49249 11.11965,2.54061 15.70967,5.317 8.3166,-0.56465 9.35377,5.3222 9.67432,14.51146 -1.0574,5.93164 -0.75519,12.30669 -2.14983,18.2737 -3.98893,9.31389 -10.35165,20.07567 -16.88945,29.58764 -8.77066,9.611 -15.79898,19.59235 -26.79542,27.11707 -11.76679,7.77532 -23.72825,15.57239 -36.93447,20.15239 -10.2065,5.91312 -31.22422,9.17262 -36.0737,11.97047 -13.78939,2.67139 -28.04407,6.24896 -42.39578,6.30327 -29.03441,1.32881 -58.12332,2.53474 -87.32595,2.14983 -14.89984,-0.80465 -28.69451,-6.49124 -42.73991,-10.74925 -9.7531,-7.43592 -20.78987,-8.50873 -32.7852,-15.04891 -12.79489,-6.3603 -27.38182,-13.01551 -37.81949,-20.56534 -12.99181,-7.20089 -23.33129,-19.86371 -23.38048,-35.23646 -2.54009,-14.48175 -8.51545,-28.47458 -11.15016,-42.5392 1.2386,-7.78375 -12.18232,-24.76296 -1.28217,-24.20041 -0.5119,0.015 2.89407,-1.06392 5.37462,-1.0749 z" fill="#d4aa00" stroke="#540" stroke-width="2.244"/><path d="m 369.56056,286.37586 c -2.0097,-1.84638 -2.80655,2.30292 -1.72176,2.55425 -3.44675,1.82916 -4.46847,5.89635 -6.88003,8.67706 -1.94956,1.94394 -4.44891,3.27867 -6.2364,5.3873 -2.3166,1.70849 -3.9185,4.18233 -5.5117,6.52027 -0.68012,2.12383 -2.34814,3.39225 -1.69715,5.8071 0.007,3.53844 0.0293,7.07756 -0.0588,10.61528 1.71074,2.40593 -0.12672,5.62936 1.37748,8.07833 1.17846,0.21044 2.86279,-1.86773 4.38406,-2.35695 1.83803,-0.90179 2.8033,-2.71451 3.7241,-4.41884 1.75975,-1.21757 2.11091,-3.32175 3.43336,-4.87559 1.56218,-2.24324 3.32306,-4.38916 5.55375,-5.99647 1.23198,-2.05741 3.1467,-3.57349 4.30639,-5.59759 2.28102,-4.20402 3.35011,-8.90625 4.32182,-13.54847 0.27364,-1.57073 0.42223,-3.17065 0.32499,-4.76509" fill="#d4aa00" stroke="#540" stroke-width="2.244"/><path d="m 385.52237,296.25699 c 1.7918,6.91807 0.2292,14.58376 0.7595,21.79488 -0.0353,5.94552 0.96138,11.72313 1.00222,17.68676 0.71636,6.14753 1.14773,14.76906 -0.19957,19.73412 -3.66991,2.98775 -6.60407,7.95469 -5.20464,13.42034 -3.66991,4.0213 -1.48339,10.34815 1.51121,14.06994 3.40029,4.09542 5.89113,8.98481 7.99979,13.8101 1.95855,4.66369 4.73667,9.12969 8.00234,13.09956 1.93505,4.27016 5.09608,8.0719 7.69465,12.65303 -0.40625,2.56434 3.77526,5.02912 4.15526,7.49346 1.03959,-0.62168 8.49035,1.85959 9.90175,-3.32712 -1.2094,-3.92565 -0.35238,-11.59274 -3.51668,-15.38206 -4.82915,-4.09174 -9.77775,-7.96957 -11.05367,-14.36473 -2.76406,-5.43812 -4.18844,-10.63941 -4.33042,-16.49514 0.65639,-5.95109 -1.5052,-12.58655 1.4742,-17.98481 3.76341,-5.0185 5.98673,-12.71294 8.71208,-18.39205 5.25667,-10.63157 8.25065,-19.57418 9.67931,-31.15498 0.65911,-7.64121 8.23572,-11.96894 10.61155,-18.712 2.71415,-4.13411 1.48034,-9.32046 2.96666,-13.91111" fill="#d4aa00" stroke="#540" stroke-width="2.244"/><path d="m 541.34005,314.49904 c 2.61909,10.40524 1.14318,21.20063 1.52878,31.79519 0.87583,5.33533 -2.74413,9.86291 -1.54296,15.26838 0.12746,6.03132 -0.43602,12.05982 1.0538,18.00409 0.0679,6.74841 2.54734,13.28854 1.9248,20.05616 0.45564,5.26741 1.21077,10.43612 1.58338,15.67002 -0.48963,4.53 1.79389,8.9992 5.8362,11.12438 2.8631,3.98767 2.1641,5.813 0.058,13.16855 -5.62187,0.64598 -0.50568,-0.12088 -6.11306,0.42812 -4.90405,-1.50897 -12.32223,-2.38505 -14.00741,-7.66404 -1.99965,-4.63832 -1.00189,-11.32901 0.021,-16.58114 0.28006,-5.12828 -2.19232,-10.09283 -3.23611,-14.68249 -1.6803,-2.09346 -0.70049,-4.89552 -3.2104,-6.99966 1.53725,3.33706 -1.70352,-3.22468 -2.16192,-7.36462 -0.35959,-5.73754 -2.20728,-10.94832 -0.62212,-16.69905 0.26211,-5.19043 -2.10082,-9.84 -3.28955,-14.76738 -1.86644,-5.2161 -0.9974,-10.97184 -1.84951,-16.11227 -2.50853,-4.58134 -0.34469,-10.64395 -1.04324,-15.8927 10e-4,-0.89031 -10e-4,-1.78066 -0.012,-2.67091" fill="#d4aa00" stroke="#540" stroke-width="2.244"/><path d="m 517.29014,326.81238 c -1.41726,15.74617 4.16203,30.37373 6.07781,45.63033 -3.66182,19.38837 14.40545,35.78127 8.04141,55.54184 -1.18561,9.63563 23.07659,9.54885 8.13492,2.15061 -9.58841,-13.58824 -3.98157,-32.3759 -8.22842,-47.78094 -3.78115,-19.78265 3.0096,-39.06435 0.0933,-59.00152 -4.70641,1.15324 -9.4128,2.30644 -14.11922,3.45968 z" fill="#a80"/><path d="m 394.38569,298.34472 c -0.41934,17.59325 2.26392,35.30913 1.72983,52.78345 -1.64103,6.28759 -7.30592,10.69832 -6.59208,17.62565 -3.63954,9.05128 8.47377,15.04899 9.77125,23.60996 5.17431,10.18503 12.51002,19.45367 17.57889,29.454 1.65767,-7.35573 -4.72004,-11.71851 -9.11671,-16.36334 -9.31698,-13.79188 -12.11099,-32.40532 -6.91936,-48.24846 8.99685,-16.29634 16.35897,-33.79791 18.98147,-52.22242 2.72367,-6.69313 8.91295,-11.35037 11.08032,-18.28018 -12.17121,3.88045 -24.3424,7.7609 -36.51361,11.64134 z" fill="#a80"/><path d="m 413.24,291.899 c -6.74468,1.08014 -12.27094,5.90821 -18.60745,8.36868 -0.23671,12.96513 1.89414,25.84244 1.8701,38.80448 7.51112,-13.43347 8.95678,-29.30386 14.46818,-43.36002 0.42391,-1.11008 2.93641,-3.51135 2.26917,-3.81314 z" fill="#806600"/><path d="m 371.84082,280.29518 c 6.03412,6.49297 15.37377,8.83959 23.85951,6.63192 8.85674,-1.8198 15.72424,4.87709 20.38731,11.4583 6.65688,7.02567 15.18526,12.42806 23.82265,16.77296 8.24084,3.89378 17.59499,4.23339 26.56978,3.83208 7.73794,0.13884 13.43312,7.05706 21.40442,6.95383 8.92099,-1.66107 16.6282,2.18104 24.02181,6.5474 9.86989,5.20398 18.96956,-1.92381 23.17913,-10.73902 4.62076,-7.73816 14.76819,-9.01302 20.03648,-16.25891 4.08225,-5.84101 10.24558,-9.71172 11.301,-18.35779 2.77582,-7.98812 2.96349,-18.42573 -4.41564,-23.72849 -4.16478,-7.46551 -6.2855,-13.0278 -13.29907,-17.60074 -4.48395,-4.65414 -9.11715,-8.78478 -13.96061,-13.85483 -5.26607,-5.42055 -7.44549,-5.83805 -12.10646,-9.54365 -5.95008,-4.98026 -15.3485,-3.97161 -21.66361,-5.15572 -6.06168,-2.38795 -13.21804,-4.27821 -19.0952,-6.84476 -9.5178,-0.21573 -12.77535,-12.05143 -20.51545,-15.59178 -5.75065,-4.62853 -10.24256,-5.14255 -18.30743,-2.90604 -8.75052,4.32531 -15.75922,11.66219 -16.85851,21.41846 -3.62314,7.0946 -12.88104,13.5812 -19.49501,17.64248 -7.38062,5.05103 -9.61062,10.35901 -19.24562,11.8717 -6.90242,4.49798 -13.05727,8.92284 -14.14202,18.30898 -2.99287,5.51376 -3.48478,12.37824 -1.47746,19.14362 z" fill="#d4aa00" stroke="#540" stroke-width="2.244"/><path d="m 418.91761,281.71459 c -7.92988,1.4911 -3.19019,11.42365 0.23377,15.56855 9.23046,10.45253 23.16431,14.05481 37.11536,13.13598 9.79812,-4.53443 19.43079,-7.80263 30.86174,-7.43755 7.20455,-0.2318 -5.40316,-4.7625 -8.41456,-6.58673 -10.46091,-4.46682 -20.57729,8.41938 -30.38905,0.65454 -9.13508,-5.33973 -17.79158,-12.27995 -27.91118,-15.38154 -0.49876,0.012 -1.00131,-0.0359 -1.49608,0.0467 z" fill="#a80"/><path d="m 447.11984,310.67196 c 7.19903,1.74113 12.79616,-2.08103 31.22839,-7.28667 -10.7519,-6.54323 -20.77607,1.04254 -29.17264,-0.87592 -7.85574,-1.79491 -13.66963,-8.79587 -21.25374,-11.51909 -5.59501,-2.00899 -12.67838,-11.18706 -17.50385,-3.41714 0.98074,9.7515 10.60853,12.84624 17.62402,17.03335 5.72997,3.41987 12.23894,4.41145 19.07782,6.06547 z" fill="#806600"/><path d="m 370.41284,272.15683 c -1.53874,7.73624 -3.70273,13.33046 -2.97644,21.29578 -2.06145,3.95994 -1.29498,8.11445 -3.14344,11.8968 1.34052,6.90308 -2.44411,12.4271 -1.48097,19.2534 -3.30196,2.522 -0.37976,8.00437 -3.04798,11.20783 -0.77844,2.59742 -7.09021,8.04886 -8.3599,6.65655 -6.53435,15.05935 -3.35734,28.7937 -4.5352,47.87202 -0.50077,5.43342 1.17068,10.69895 0.74133,16.13539 0,8.1801 -2.68731,19.58496 -4.56842,29.64619 3.57075,2.04682 9.86809,3.60124 14.09948,-1.4371 6.79045,-3.14149 4.44735,-12.36001 4.9106,-18.41658 -1.4073,-7.13526 -1.88688,-14.51442 -1.5225,-22.19848 0.97784,-7.44104 2.10582,-15.10163 3.04266,-22.6289 2.16626,-4.86219 0.68203,-10.99973 4.56052,-15.6735 3.50139,-5.99427 7.64471,-12.19054 13.41424,-15.99276 5.12308,-2.99801 8.00865,-8.39427 13.24994,-11.67855 4.56704,-6.50201 8.25445,-13.57531 11.34014,-20.97421 1.98404,-7.12369 1.51352,-15.06726 6.08068,-21.28241 3.03369,1.64775 1.33439,-2.37918 3.80046,-1.52016" fill="#d4aa00" stroke="#540" stroke-width="2.244"/><path d="m 524.47556,331.41353 c -0.76147,17.38987 7.1445,33.71895 6.03106,51.05361 0.44794,4.99799 1.22685,9.87428 3.45967,14.49324 -2.82531,-17.35016 -2.9802,-35.01719 -0.84154,-52.31592 -1.2934,-4.70515 3.81341,-17.95407 -4.31563,-14.27938 -1.44452,0.34949 -2.88904,0.69897 -4.33356,1.04845 z m 14.16597,99.39558 c -0.0281,2.57376 4.84591,4.13082 1.26232,0.84154 -0.51319,-0.25801 -1.27279,-3.0256 -1.26232,-0.84154 z" fill="#806600"/><path d="m 490.41427,322.09992 c 0.35552,5.40616 1.82485,10.67971 2.24127,16.07528 -0.1535,6.22146 0.0577,12.38234 1.07921,18.52959 0.75297,5.7362 1.07798,11.45139 1.60406,17.20632 0.55615,6.3074 0.38485,12.64645 1.26859,18.93632 0.0563,6.30306 0.43434,12.65408 1.15111,18.94047 2.33058,4.92572 -5.32861,13.9578 2.53665,15.5463 4.50741,2.34771 3.43446,8.8723 6.98767,12.08758 4.58305,2.70892 1.58882,5.69482 6.551,7.82999 2.02255,2.36805 12.39728,0.38817 11.85891,-0.13345 0.66189,0.32369 1.65675,-3.55983 1.6259,-6.65904 1.36062,7.63639 11.45423,3.38781 11.1438,-0.64098 -3.39337,-5.22343 -9.12972,-8.27076 -13.41619,-12.69017 -3.24992,-3.60931 -7.46177,-3.06905 -8.3607,-7.28942 -1.51218,-2.57603 -4.29281,-2.66637 -3.81,-6.59788 -0.62898,-6.01036 1.29207,-11.8114 1.07299,-17.77718 -0.0383,-6.04864 0.96667,-12.00392 1.21933,-18.06767 0.97391,-7.53298 2.21234,-15.03973 3.2978,-22.55847 1.46128,-5.7975 6.26973,-9.84119 8.52189,-15.27503 3.48496,-4.95557 3.53538,-11.01758 4.7957,-16.6954 0.53297,-3.17201 -0.423,-4.26792 1.19594,-6.8479" fill="#d4aa00" stroke="#540" stroke-width="2.244"/><path d="m 551.98128,303.09774 c 3.74666,-0.57353 9.04588,1.46466 11.02079,-1.67072 15.94054,4.16827 24.92537,-5.51831 37.75256,-11.91009 7.67475,-6.72902 10.3773,-9.94933 14.29935,-19.5565 0.0922,-2.6752 -0.3052,2.48657 0.32546,-0.43988 2.89613,-13.71743 3.38128,-27.56238 3.48487,-41.63443 -1.67342,-2.80816 3.52831,-8.34059 2.28085,-10.73264 -2.40859,-3.43655 -6.06491,-5.69102 -10.17837,-7.57805 -2.85697,-4.21624 -8.94765,-5.58952 -12.26008,-8.92795 -1.46544,-3.41387 -6.10561,-5.54853 -6.90774,-4.80235 -1.31027,0.18193 -7.99593,1.01701 -5.01991,0.96509 -3.20382,1.21021 -6.39698,1.51918 -6.53142,5.23791 -2.0487,2.85832 -0.34565,8.45822 -0.90058,12.40721 -0.0356,1.0608 0.0712,6.86091 -0.0485,4.66374 3.29511,9.18517 2.10821,20.76049 -1.47375,31.53269 -3.55091,1.48031 -7.32919,5.3257 -12.06451,5.96324 -4.56842,1.14288 -7.6678,-4.367 -11.77121,-5.93208" fill="#d4aa00" stroke="#540" stroke-width="2.244"/><path d="m 610.45055,216.32552 c 1.15485,19.73748 -1.36309,42.45392 -16.55034,56.71065 -4.42836,3.75703 -10.29127,3.22591 -14.6335,6.40507 -4.24814,-0.84154 -27.60508,16.85785 -26.22048,20.26241 -1.94878,4.1196 21.44478,-1.15922 27.34254,-4.03933 18.71154,-5.27883 35.37598,-20.74767 37.26165,-40.86158 0.33879,-13.07664 1.12764,-26.23132 0.18701,-39.31876 -2.48742,0.58487 -6.69989,-4.16219 -7.38688,0.84154 z" fill="#a80"/><path d="m 616.25087,222.7861 c 2.33868,18.91373 -5.01394,54.40748 -13.30559,57.80133 -4.48069,5.18772 -33.69618,13.05469 -31.67668,17.97681 0.0661,3.70812 6.89775,1.4387 12.63553,-2.44831 26.35286,-7.73307 35.11613,-28.46847 33.73763,-45.25582 0.0974,-9.14278 0.92338,-19.30896 0.17945,-27.87871 -0.53259,0.11879 -2.36739,-2.66329 -1.57034,-0.1953 z" fill="#806600"/><path d="m 597.75064,216.36421 c 3.13672,10.4953 8.89072,12.85981 16.25196,8.54309 4.48434,-0.67349 8.61542,-0.86512 0.69647,-2.02934 -6.74255,-1.20988 -11.33669,-5.4855 -16.94843,-6.51375 z" fill="#806600"/><path d="m 599.10661,215.68783 c 2.1393,2.46661 4.06326,5.43504 7.4042,6.37643 3.21026,1.26643 6.79396,1.80283 10.19229,1.03678 6.8098,1.21302 13.6352,-2.30475 20.56298,-4.5095 3.7395,-2.29295 7.6693,-0.70648 11.6199,0.14901 3.36501,0.46839 9.63838,0.65297 8.11074,-4.51693 0.80968,-2.59856 -1.55451,-5.76638 -1.82701,-7.23538 2.52891,-2.74437 0.93688,-8.04381 -1.97416,-9.84368 -1.03083,-1.11646 -0.84184,1.16153 -1.76962,-1.20173 -0.73215,-2.38011 2.59641,-1.43175 0.29473,-4.14569 -1.34548,-2.19098 -3.78023,-0.75899 -4.18172,-3.48514 -3.32012,-2.55892 -7.33397,-2.05812 -10.96378,-2.88827 -3.2513,-2.93039 -9.66154,-2.45688 -14.83692,-2.48289 -2.49818,1.15151 -3.68573,-2.81908 -6.35067,-1.27992 -7.24451,0.0361 -11.86568,-3.51361 -20.42168,-1.11805 -2.94281,2.62801 -4.23006,6.50668 -6.5383,9.57552 -1.0857,3.1101 -4.20604,0.66857 -5.01649,4.00676 -1.68524,3.27031 -3.24987,6.88839 -2.51431,10.67478 0.11161,0.87242 0.32812,1.73973 0.7267,2.5278" fill="#d4aa00" stroke="#540" stroke-width="2.244"/><path d="m 655.49129,207.37857 c -3.80042,0 -6.79467,1.34365 -10.59509,1.34365 -3.67391,-0.6536 -5.32124,-1.62025 -6.84075,-3.66209 -0.18132,-0.18103 -2.54925,-2.41859 -3.04036,-2.41859 -0.85345,0.15739 -3.31258,-0.12328 -2.41858,0" fill="#d4aa00" stroke="#540" stroke-width="2.244"/><path d="m 651.92701,196.97352 c -2.71355,0.28156 -1.8092,0.84178 -4.21675,1.56639 -2.14118,0.625 -3.00032,-1.77447 -3.61258,-2.36739" fill="#d4aa00" stroke="#540" stroke-width="2.244"/><path d="m 609.34079,196.9083 c 2.9239,-4.79085 9.50769,-0.54819 13.55113,0.0922 1.15854,0.10592 3.57826,0.0503 3.83163,0.0503" fill="#d4aa00" stroke="#540" stroke-width="2.244"/><path d="m 583.55071,192.76661 c -0.74012,4.90006 2.77346,11.80515 8.88295,12.34263 4.76993,-5.87635 -3.32082,-12.5165 -8.88295,-12.34263 z" fill="#806600"/><path d="m 596.02808,190.78941 c 0.25104,-1.33417 0.061,-2.98778 -1.15779,-3.80356 -3.15774,-5.00065 -8.47935,-8.57435 -14.57654,-7.01657 -1.17146,-0.50035 -3.12327,0.83879 -1.64793,1.87823 1.45715,1.81977 1.42349,4.26143 1.48288,6.46811 0.1903,1.42579 1.41876,2.32215 2.14388,3.46051 0.56878,1.10019 0.99115,2.35683 2.07234,3.07665 2.49946,2.06645 5.72668,2.92908 8.83639,3.58915 0.18911,0.0209 0.38491,0.015 0.5663,-0.0488" fill="#d4aa00" stroke="#540" stroke-width="2.244"/><path d="m 539.19991,296.29063 c -4.64204,5.77139 -3.60119,4.05517 -8.80685,14.50649 -6.54322,-10.7519 0.28246,-10.13485 1.78439,-23.09194 0.92785,-8.00459 -8.79587,-13.66963 -11.51909,-21.25374 -2.00899,-5.59501 -11.18706,-12.67838 -3.41714,-17.50385 9.7515,0.98073 13.36026,10.32625 17.03335,17.62402 4.51446,8.96942 8.59193,25.1604 4.92534,29.71902 z" fill="#a80"/><path d="m 311.17947,426.65454 c 1.90761,5.62949 5.82823,5.35858 11.28672,5.91207 4.79071,-3.03114 11.90384,-5.1892 18.27371,-3.22476 0.82272,2.34893 2.80051,0.0859 3.76224,1.61238" fill="none" stroke="#540" stroke-width="2.244"/><path d="m 320.31633,441.16603 c 2.61984,3.3703 4.52994,9.3842 8.06194,13.97401 2.6968,4.80163 10.60703,4.98837 15.04894,6.44953 0.31457,1.21972 1.5444,2.57046 2.14983,2.68731" fill="none" stroke="#540" stroke-width="2.244"/><path d="m 346.65198,444.92824 c 2.31015,1.90487 7.57319,5.43142 6.987,9.13687 0.28216,6.79667 4.52839,11.91335 10.74925,14.51149 h -0.53745" fill="none" stroke="#540" stroke-width="2.244"/><path d="m 389.64894,433.10409 c 6.46494,3.17159 4.96877,13.04666 10.18134,16.91069 0.10024,0.31522 -0.34472,1.20793 0.56791,0.82557" fill="none" stroke="#540" stroke-width="2.244"/><path d="m 398.78581,434.17902 c 3.57975,4.54807 5.28208,8.20888 9.67432,10.74922 h 0.53748 l 0.53745,0.53748" fill="none" stroke="#540" stroke-width="2.244"/><path d="m 408.46013,430.41678 c 5.41065,3.27467 5.97494,6.3088 9.13687,9.13684 0.65746,0.93106 3.00573,0.38993 0.53745,0.53748" fill="none" stroke="#540" stroke-width="2.244"/><path d="m 457.3692,427.19199 c -4.54951,2.32547 -8.65854,8.47425 -13.97401,11.82418 -6.38062,4.92146 -10.32269,7.41991 -17.31637,8.5238 l 0.38629,0.14273 -1.34366,-0.0673" fill="none" stroke="#540" stroke-width="2.244"/><path d="m 497.1414,450.30287 c -3.00549,-2.23338 -8.3461,-0.54835 -12.36163,-1.07493 -4.76051,-0.0778 -7.40402,1.05314 -10.20114,4.13907 l -1.08556,0.16068" fill="none" stroke="#540" stroke-width="2.244"/><path d="m 460.59396,445.46572 c 2.9453,5.92808 3.94166,12.49062 4.2997,18.81116 1.63207,3.87178 6.86576,4.82664 7.52448,10.2118 0.58868,6.16518 -3.18134,12.86649 0.48228,18.31155 1.70612,0.43898 4.03976,2.62179 4.35487,2.64946" fill="none" stroke="#540" stroke-width="2.244"/><path d="m 443.93264,456.21497 c 2.40722,4.19673 7.93797,5.62522 13.43656,7.52446 2.95167,1.48494 5.3266,1.906 8.06194,2.68731" fill="none" stroke="#540" stroke-width="2.244"/><path d="m 420.28431,459.43973 c 0.77012,-1.68045 -6.43974,6.36841 -4.29969,12.45849 0.43,4.17028 -4.35897,5.73075 -6.44956,7.4276" fill="none" stroke="#540" stroke-width="2.244"/><path d="m 410.07251,459.97718 c -4.05727,2.7217 -1.79206,9.09899 -6.44953,10.74925 0.18043,2.00759 -4.23491,2.07488 -4.83717,3.22477" fill="none" stroke="#540" stroke-width="2.244"/><path d="m 525.08943,457.28987 c 0.78299,4.84184 1.30389,10.85455 -1.61238,12.89911 v 2.14983 c 1.36702,-0.57027 -0.32633,1.67944 1.07493,1.61239" fill="none" stroke="#540" stroke-width="2.244"/><path d="m 530.46405,452.99018 c -0.0691,5.35885 0.0886,11.58723 3.76225,15.04894 1.57746,1.50374 2.96702,3.54834 4.29969,6.44956 0.19479,1.46232 1.10156,1.98807 1.07493,3.22476" fill="none" stroke="#540" stroke-width="2.244"/><path d="m 539.60092,461.05212 c 0.62629,5.67117 5.547,7.54893 8.03677,11.3217 1.13816,0.5715 1.20076,2.60401 2.175,3.72724" fill="none" stroke="#540" stroke-width="2.244"/><path d="m 570.23626,469.11405 c 1.21978,7.08458 -6.80886,7.94504 -6.98701,15.5864" fill="none" stroke="#540" stroke-width="2.244"/><path d="m 516.49004,473.9512 c 5.64978,0.22052 11.80964,-0.8881 16.12388,2.14986 5.45705,1.11425 7.78561,4.20714 13.21484,6.64689 2.40874,3.45599 8.59436,4.74576 13.1208,5.71474" fill="none" stroke="#540" stroke-width="2.244"/><path d="m 571.31119,478.25092 c 5.79741,2.59399 12.04632,6.19687 19.88609,5.91207 5.40954,-0.0365 12.57012,0.0718 15.58642,3.22477" fill="none" stroke="#540" stroke-width="2.244"/><path d="m 618.0704,447.0781 c 0.55935,5.57319 -2.15752,11.62553 -6.44956,13.43656 -4.15604,3.86042 -12.44478,1.88545 -13.43656,7.52446" fill="none" stroke="#540" stroke-width="2.244"/><path d="m 614.84561,458.3648 c -2.48313,3.97238 1.03699,7.40723 2.68497,8.98382 0.82476,1.87321 3.75958,2.90434 3.76458,5.52768" fill="none" stroke="#540" stroke-width="2.244"/><path d="m 637.41904,450.84035 c -0.83598,5.20383 2.24393,9.70385 0,13.97401 -0.62192,1.3547 -1.33205,2.9154 -2.14987,3.76224" fill="none" stroke="#540" stroke-width="2.244"/><path d="m 648.70573,432.56661 c -4.85099,2.71275 -10.69521,3.06555 -16.59956,3.76224 -2.88007,-0.11759 -5.67621,1.2e-4 -7.04877,0.53745" fill="none" stroke="#540" stroke-width="2.244"/><path d="m 604.09639,439.55362 c -4.38614,0.65887 -7.49804,3.92076 -9.60607,6.47163 -0.5967,3.28 -6.51487,7.02552 -7.05529,4.8151" fill="none" stroke="#540" stroke-width="2.244"/><path d="m 586.36013,436.8663 c -4.48422,5.32035 -11.65452,8.37684 -17.73625,10.2118 -5.83153,1.82507 -11.77119,1.46412 -17.89484,2.14984 -3.99908,0.72912 -9.67154,-0.009 -12.74053,2.14986" fill="none" stroke="#540" stroke-width="2.244"/><path d="m 396.0985,56.880548 c 7.34531,-8.241077 9.85349,-17.557085 28.4855,-26.335642 12.71994,-4.837174 28.66465,3.762243 39.77221,1.612381 7.70362,-0.17923 14.33232,-2.508172 21.4985,-3.762243 -4.65801,12.361631 -14.69067,16.661324 -22.03598,17.736255 -18.37089,6.850385 -42.89072,-4.810125 -64.49544,13.436562 -1.07493,-0.895761 -2.14986,-1.791552 -3.22479,-2.687313 z" fill="#d4aa00" stroke="#540" stroke-width="2.244"/><path d="m 317.62902,104.71469 c -4.12055,-13.974012 -0.17923,-20.961018 2.14986,-29.022955 12.00332,-17.557115 28.84379,-25.977363 48.90904,-34.93506 -16.31956,31.150136 -29.36968,41.897111 -44.60934,61.808155 -2.14987,0.71662 -4.2997,1.43324 -6.44956,2.14986 z" fill="#d4aa00" stroke="#540" stroke-width="2.244"/><path d="m 323.57533,92.173799 c 6.93434,-18.01659 17.54015,-31.455515 34.20389,-41.42471" fill="#d4aa00" stroke="#540" stroke-width="2.244"/><path d="m 264.42229,168.03319 c -10.6687,-12.39478 -7.35375,-21.77743 -4.38608,-34.7681 2.96771,-12.99067 14.45473,-23.05546 29.71223,-43.053664 -0.1514,37.938704 -12.77293,49.545924 -20.04344,73.542504 -1.76092,1.42642 -3.5218,2.85284 -5.28271,4.27926 z" fill="#d4aa00" stroke="#540" stroke-width="2.244"/><path d="m 265.58223,154.20253 c 0.0805,-9.65217 1.0421,-15.13505 5.77626,-25.4242 3.70117,-8.04404 8.68014,-13.22313 12.44867,-23.85814" fill="#d4aa00" stroke="#540" stroke-width="2.244"/><path d="m 220.97387,337.54646 c -13.57926,-5.2778 -18.98162,-16.08773 -23.9398,-22.85792 -6.56227,-20.2304 -5.97658,-42.88665 3.75518,-63.48334 13.92423,20.55226 11.03581,46.9507 19.76389,77.64202 -0.74654,2.13966 1.16727,6.55958 0.42073,8.69924 z" fill="#d4aa00" stroke="#540" stroke-width="2.244"/><path d="m 214.6808,325.17594 c -14.20408,-19.53915 -9.23956,-30.82608 -10.74802,-55.04906" fill="#d4aa00" stroke="#540" stroke-width="2.244"/><path d="m 227.70415,249.28094 c -10.90057,-14.16009 -12.34371,-29.37378 -12.68413,-38.48585 0.018,-21.26807 7.28093,-24.41444 18.80505,-43.12401 1.79927,31.12829 -2.1618,51.16184 -3.52574,76.19855 -1.37178,1.80376 -1.2234,3.60755 -2.59518,5.41131 z" fill="#d4aa00" stroke="#540" stroke-width="2.244"/><path d="m 225.54645,235.57048 c -2.21411,-9.39512 -2.64492,-15.70207 -1.88422,-24.52398 0.76069,-8.82195 1.95286,-20.91895 6.02503,-29.73279" fill="#d4aa00" stroke="#540" stroke-width="2.244"/><path d="m 241.64037,429.1637 c -14.51048,-1.30285 -22.2206,-11.33634 -28.86264,-16.46501 -11.9178,-17.61529 -18.12104,-34.47146 -17.55843,-60.60504 22.97372,26.62456 27.41315,34.34991 42.23116,67.6214 -0.12358,2.26281 4.31336,7.18583 4.18991,9.44865 z" fill="#d4aa00" stroke="#540" stroke-width="2.244"/><path d="m 229.50174,415.22454 c -11.54758,-12.30969 -17.48856,-26.73183 -24.8173,-42.47268" fill="#d4aa00" stroke="#540" stroke-width="2.244"/><path d="m 252.54464,435.71842 c 11.9971,-6.13151 9.9379,-19.41386 10.19417,-23.4819 0.77671,-21.25392 -7.76607,-38.03257 -10.60248,-65.52049 -17.92264,35.13203 -5.07005,66.35186 -3.50207,83.44115 1.30347,1.85373 2.60691,3.70749 3.91038,5.56124 z" fill="#d4aa00" stroke="#540" stroke-width="2.244"/><path d="m 253.69276,418.67773 c 5.1269,-18.61176 -4.54017,-26.2218 -1.37929,-50.222" fill="#d4aa00" stroke="#540" stroke-width="2.244"/><path d="m 227.97694,350.7145 c 13.74254,-4.83678 14.06117,-13.64182 19.23526,-20.24846 2.59722,-8.47145 7.4084,-23.65952 5.40533,-61.24395 -19.12836,20.4417 -17.54509,44.53391 -23.25151,73.1043 0.67709,2.16261 -2.06623,6.22548 -1.38917,8.38811 z" fill="#d4aa00" stroke="#540" stroke-width="2.244"/><path d="m 236.18618,334.75313 c 10.55087,-16.16669 6.88031,-28.83103 12.05266,-48.17737" fill="#d4aa00" stroke="#540" stroke-width="2.244"/><path d="m 237.14699,260.18686 c 11.14436,-1.86692 17.73294,-11.55524 20.51698,-13.5762 5.06838,-4.6329 14.02036,-25.14115 16.41801,-46.98393 -23.53299,17.07697 -28.63787,29.36658 -39.13913,53.38211 -0.0239,2.26598 -1.57103,3.39184 -1.59616,5.65786 z" fill="#d4aa00" stroke="#540" stroke-width="2.244"/><path d="m 243.47049,249.17257 c 15.03575,-12.10823 11.66942,-23.27306 22.91037,-35.72538" fill="#d4aa00" stroke="#540" stroke-width="2.244"/><path d="m 265.63627,177.852 c 5.96057,4.56336 12.88466,-1.03388 20.73888,-4.93134 18.53698,-10.42651 33.71435,-18.86767 44.38772,-38.07535 -29.03421,4.03988 -40.11819,16.48317 -63.1826,34.48893 -0.90136,2.07919 -1.04265,6.4386 -1.944,8.51776 z" fill="#d4aa00" stroke="#540" stroke-width="2.244"/><path d="m 273.32733,171.88188 c 15.89237,-11.41752 21.844,-14.35028 39.68908,-27.42084" fill="#d4aa00" stroke="#540" stroke-width="2.244"/><path d="m 314.07033,113.95547 c 11.38853,9.08589 25.04663,4.26993 30.73133,4.01278 20.78738,-4.4964 22.01503,-12.73783 52.31962,-28.703931 -33.10426,-5.752922 -33.5374,11.402171 -73.30709,19.148431 -1.47438,1.72088 -8.26944,3.82179 -9.74386,5.54272 z" fill="#d4aa00" stroke="#540" stroke-width="2.244"/><path d="m 332.1082,111.65717 c 15.501,3.41192 32.32722,-14.264608 50.12451,-19.478015" fill="#d4aa00" stroke="#540" stroke-width="2.244"/><path d="m 394.06626,65.312884 c 6.55183,5.213228 17.69367,9.668603 27.31018,12.602589 20.8914,3.985218 44.85061,-6.85969 52.8533,-18.837338 -18.7152,-2.979137 -23.38541,10.003964 -75.97459,3.211298 -2.02969,1.007817 -2.15917,2.015604 -4.18889,3.023451 z" fill="#d4aa00" stroke="#540" stroke-width="2.244"/><path d="m 415.10657,68.492076 c 12.68056,4.084887 21.31618,-1.085343 41.3017,-2.346356" fill="#d4aa00" stroke="#540" stroke-width="2.244"/><path d="m 417.6975,42.029207 c 13.8207,-11.496898 22.07629,0.814883 46.62232,-4.626616" fill="#d4aa00" stroke="#540" stroke-width="2.244"/><path d="m 587.04363,56.880563 c -7.34532,-8.241077 -9.85349,-17.557085 -28.48551,-26.335642 -12.71994,-4.837174 -28.66464,3.762243 -39.7722,1.612381 -7.70363,-0.17923 -14.33232,-2.508172 -21.4985,-3.762243 4.65801,12.361631 14.69066,16.661324 22.03598,17.736255 18.37089,6.850385 42.89072,-4.810125 64.49544,13.436562 1.07493,-0.895761 2.14986,-1.791552 3.22479,-2.687313 z" fill="#cca300" stroke="#540" stroke-width="2.244"/><path d="m 665.51311,104.7147 c 4.12055,-13.974008 0.17923,-20.961014 -2.14987,-29.02295 -12.00332,-17.557115 -28.84378,-25.977363 -48.90904,-34.93506 16.31956,31.150136 29.36969,41.897111 44.60935,61.80815 2.14986,0.71662 4.29969,1.43324 6.44956,2.14986 z" fill="#cca300" stroke="#540" stroke-width="2.244"/><path d="M 659.5668,92.173814 C 652.63246,74.157224 642.02665,60.718299 625.3629,50.749104" fill="#cca300" stroke="#540" stroke-width="2.244"/><path d="m 718.71984,168.03321 c 10.6687,-12.39479 7.35375,-21.77743 4.38607,-34.7681 -2.9677,-12.99067 -14.45473,-23.05547 -29.71222,-43.05367 0.1514,37.9387 12.77293,49.54592 20.04344,73.54251 1.76091,1.42642 3.5218,2.85284 5.28271,4.27926 z" fill="#d4aa00" stroke="#540" stroke-width="2.244"/><path d="m 717.5599,154.20255 c -0.0805,-9.65218 -1.04211,-15.13506 -5.77626,-25.4242 -3.70118,-8.04405 -8.68015,-13.22314 -12.44867,-23.85814" fill="#cca300" stroke="#540" stroke-width="2.244"/><path d="m 762.16826,337.54647 c 13.57926,-5.27779 18.98162,-16.08772 23.9398,-22.85792 6.56227,-20.23039 5.97658,-42.88665 -3.75519,-63.48334 -13.92422,20.55226 -11.0358,46.95071 -19.76388,77.64203 0.74654,2.13966 -1.16727,6.55958 -0.42073,8.69923 z" fill="#cca300" stroke="#540" stroke-width="2.244"/><path d="m 768.46133,325.17596 c 14.20407,-19.53915 9.23955,-30.82609 10.74802,-55.04906" fill="#cca300" stroke="#540" stroke-width="2.244"/><path d="m 755.43798,249.28096 c 10.90056,-14.1601 12.34371,-29.37379 12.68413,-38.48585 -0.018,-21.26807 -7.28093,-24.41444 -18.80506,-43.12401 -1.79927,31.12829 2.1618,51.16183 3.52575,76.19855 1.37178,1.80376 1.2234,3.60755 2.59518,5.41131 z" fill="#cca300" stroke="#540" stroke-width="2.244"/><path d="m 757.59568,235.57049 c 2.21411,-9.39512 2.64492,-15.70207 1.88422,-24.52398 -0.76069,-8.82194 -1.95286,-20.91895 -6.02503,-29.73278" fill="#cca300" stroke="#540" stroke-width="2.244"/><path d="m 741.50176,429.16371 c 14.51047,-1.30284 22.22059,-11.33634 28.86263,-16.46501 11.91781,-17.61528 18.12105,-34.47145 17.55844,-60.60504 -22.97372,26.62457 -27.41315,34.34992 -42.23116,67.6214 0.12358,2.26282 -4.31337,7.18583 -4.18991,9.44865 z" fill="#cca300" stroke="#540" stroke-width="2.244"/><path d="m 750.95307,420.06172 c 16.92221,-11.77223 22.32573,-26.19437 26.96715,-47.30985" fill="#cca300" stroke="#540" stroke-width="2.244"/><path d="m 730.59749,435.71844 c -11.9971,-6.13152 -9.9379,-19.41387 -10.19418,-23.48191 -0.7767,-21.25392 7.76607,-38.03256 10.60249,-65.52048 17.92263,35.13203 5.07005,66.35185 3.50207,83.44114 -1.30347,1.85373 -2.60691,3.70749 -3.91038,5.56125 z" fill="#cca300" stroke="#540" stroke-width="2.244"/><path d="m 729.44937,418.67774 c -5.12691,-18.61176 4.54017,-26.22179 1.37929,-50.222" fill="#cca300" stroke="#540" stroke-width="2.244"/><path d="m 755.16519,350.71452 c -13.74254,-4.83679 -14.06118,-13.64182 -19.23527,-20.24847 -2.59722,-8.47144 -7.40839,-23.65952 -5.40532,-61.24395 19.12835,20.4417 17.54508,44.53392 23.25151,73.10431 -0.6771,2.16261 2.06623,6.22547 1.38917,8.38811 z" fill="#cca300" stroke="#540" stroke-width="2.244"/><path d="m 746.95595,334.75315 c -10.55087,-16.16669 -6.88031,-28.83104 -12.05267,-48.17737" fill="#cca300" stroke="#540" stroke-width="2.244"/><path d="m 745.99514,260.18688 c -11.14437,-1.86693 -17.73294,-11.55525 -20.51699,-13.57621 -5.06837,-4.6329 -14.02036,-25.14114 -16.418,-46.98392 23.53298,17.07696 28.63787,29.36657 39.13912,53.3821 0.0239,2.26599 1.57103,3.39185 1.59617,5.65786 z" fill="#cca300" stroke="#540" stroke-width="2.244"/><path d="M 739.67164,249.17258 C 724.63589,237.06436 728.00221,225.89953 716.76126,213.4472" fill="#cca300" stroke="#540" stroke-width="2.244"/><path d="m 717.50586,177.85202 c -5.96058,4.56336 -12.88466,-1.03388 -20.73888,-4.93134 C 678.23,162.49416 663.05263,154.053 652.37926,134.84532 c 29.03421,4.03989 40.11819,16.48318 63.1826,34.48893 0.90136,2.07919 1.04264,6.43861 1.944,8.51777 z" fill="#d4aa00" stroke="#540" stroke-width="2.244"/><path d="m 709.8148,171.88189 c -15.89237,-11.41751 -21.844,-14.35027 -39.68908,-27.42083" fill="#cca300" stroke="#540" stroke-width="2.244"/><path d="m 669.07179,113.95549 c -11.38852,9.08588 -25.04662,4.26992 -30.73132,4.01278 -20.78738,-4.4964 -22.01504,-12.73784 -52.31962,-28.703936 33.10425,-5.752922 33.5374,11.402166 73.30709,19.148436 1.47438,1.72087 8.26944,3.82178 9.74385,5.54272 z" fill="#cca300" stroke="#540" stroke-width="2.244"/><path d="m 651.03393,111.65719 c -15.501,3.41192 -32.32722,-14.264613 -50.12452,-19.47802" fill="#cca300" stroke="#540" stroke-width="2.244"/><path d="m 589.07587,65.312899 c -6.55183,5.213228 -17.69368,9.668603 -27.31019,12.602589 -20.89139,3.985218 -44.8506,-6.85969 -52.8533,-18.837338 18.7152,-2.979137 23.38541,10.003964 75.97459,3.211298 2.0297,1.007817 2.15917,2.015604 4.1889,3.023451 z" fill="#cca300" stroke="#540" stroke-width="2.244"/><path d="m 568.03556,68.492091 c -12.68057,4.084887 -21.31619,-1.085343 -41.3017,-2.346356" fill="#cca300" stroke="#540" stroke-width="2.244"/><path d="M 565.44462,42.029222 C 551.62393,30.532324 543.36834,42.844105 518.8223,37.402606" fill="#cca300" stroke="#540" stroke-width="2.244"/><path d="m 397.71088,57.417999 c 0,3.583073 0,3.941413 0,7.524486 C 184.15923,155.41528 224.28974,386.70316 253.67101,437.94124 c 12.5408,17.91539 23.46919,37.4432 36.00999,55.35859 -4.65801,3.58308 -4.47887,2.32903 -9.13687,5.91211 C 269.43657,478.07175 256.17918,460.6938 245.07162,439.55362 221.06498,388.67385 164.8106,162.04398 397.71088,57.417999 Z" fill="#d4aa00" stroke="#540" stroke-width="2.244"/><path d="m 389.3228,518.96227 c -15.5039,-9.79442 -47.10274,-31.72038 -66.12751,-52.44595 -22.66466,-26.35955 -28.78555,-37.48943 -38.41137,-56.69163 -0.73691,12.8238 -6.27401,35.74007 -19.35519,42.24998 -13.67372,7.93285 -31.25845,4.00709 -47.12536,-5.32059 15.53993,40.22303 37.94451,68.84235 66.8876,96.53095 31.77439,30.39719 100.93591,71.9286 112.49277,71.44812 9.78132,-1.01721 12.10826,-8.56847 13.68156,-15.20172 6.42577,-27.0917 -6.6985,-57.3353 -22.0425,-80.56916 z" fill="#d4aa00" stroke="#540" stroke-width="2.244"/><path d="m 287.40914,427.40824 c -3.90016,17.03436 -17.43175,33.69796 -36.09284,33.66172 -7.45053,0.42253 -14.84651,-0.97571 -21.78661,-3.50643 27.15601,59.14172 79.14852,102.37696 134.71076,134.15998 10.78738,6.09482 26.12628,18.46818 38.38609,20.48174 9.36273,-4.56045 8.78981,-21.43408 9.36855,-30.16879 -1.51454,-21.85589 -15.58693,-44.83567 -29.66736,-61.42955 -37.71235,-24.0149 -72.6983,-54.26338 -94.91859,-93.19867 z" fill="#00a" stroke="#540" stroke-width="2.244"/><path d="m 348.65817,550.88589 c -3.05454,0.48425 -4.59198,3.19357 -5.70064,6.0807 -1.21176,3.15562 -0.8723,8.66145 2.28026,9.88114 25.81917,9.98912 43.83014,33.83538 63.08715,38.00429 4.51875,0.97825 2.81783,-9.39913 4.56052,-13.68153 2.67568,-6.57511 16.64382,-15.32398 9.88114,-17.48201 -17.35577,-5.53842 -49.25295,-26.74301 -74.10843,-22.80259 z" fill="#d4aa00" stroke="#540" stroke-width="2.244"/><path d="m 361.46729,415.05954 c 2.06207,1.96189 6.09532,6.73776 8.38488,8.45116 2.20217,2.85433 2.6152,6.62642 2.51535,10.10488 -1.72563,1.68773 -8.12369,3.35831 -10.78123,2.33296 -3.17213,-2.23442 -3.62432,-10.22032 -5.93001,-13.12611" fill="#d4aa00" stroke="#540" stroke-width="2.244"/><path d="m 415.6296,409.7498 c 2.06207,1.96189 7.70769,4.85665 9.99726,6.57005 2.20216,2.85433 5.57124,6.62642 5.47139,10.10489 -1.72564,1.68772 -5.97383,1.74592 -8.63138,0.72057 -3.17213,-2.23442 -3.62433,-4.30822 -5.93002,-7.21402" fill="#d4aa00" stroke="#540" stroke-width="2.244"/><path d="m 547.2613,422.77124 c 2.06207,1.9619 9.58881,4.85664 11.87838,6.57004 2.20216,2.85433 5.03379,5.01404 4.93394,8.49251 -1.72563,1.68772 -7.31749,2.01464 -9.97503,0.98929 -3.17213,-2.23442 -2.28068,-4.57694 -4.58637,-7.48274" fill="#d4aa00" stroke="#540" stroke-width="2.244"/><path d="m 523.80337,426.66797 c 2.06207,1.9619 7.17025,5.3941 9.45981,7.1075 2.20217,2.85433 5.03379,5.01404 4.93394,8.49251 -1.72563,1.68772 -6.5113,3.62703 -9.16884,2.60168 -3.17213,-2.23443 -3.08687,-6.18933 -5.39256,-9.09513" fill="#d4aa00" stroke="#540" stroke-width="2.244"/><path d="m 614.56876,196.08171 c -0.388,0.94384 -0.24506,1.93478 0.31743,2.78207 0.80827,0.53275 1.82139,1.43671 2.93145,0.91285 0.98229,-0.44793 1.75932,-1.20764 2.29342,-2.00759 0.39356,-0.94444 -0.61656,-1.71316 -1.42426,-2.24489 -1.70008,-1.12861 -2.64593,0.0209 -4.11804,0.55756 z" fill="#540" stroke="#540" stroke-width="2.244"/><path d="m 617.72872,190.50997 c 1.8426,0.80911 3.45703,4.14119 3.99164,5.87709" fill="#e77817" stroke="#540" stroke-width="2.244"/><path d="m 585.43125,57.418014 c 0,3.583073 0,3.941413 0,7.524486 213.55165,90.4728 173.42114,321.76068 144.03987,372.99875 -12.5408,17.9154 -23.46919,37.4432 -36.00999,55.3586 4.658,3.58307 4.47886,2.32903 9.13687,5.9121 11.10756,-21.14019 24.36495,-38.51813 35.47251,-59.65832 24.00664,-50.87976 80.26103,-277.50964 -152.63926,-382.135616 z" fill="#cca300" stroke="#540" stroke-width="2.244"/><path d="m 590.18563,518.86455 c 15.5039,-9.79443 47.10274,-31.72038 66.1275,-52.44595 22.66466,-26.35955 29.86049,-33.72719 39.48631,-52.92939 0.73691,12.8238 5.19907,31.97783 18.28026,38.48774 13.67372,7.93285 31.25845,4.00709 47.12536,-5.32059 -15.53993,40.22303 -37.94451,68.84234 -66.88761,96.53095 -31.77438,30.39719 -100.9359,71.9286 -112.49276,71.44812 -9.78132,-1.01721 -12.10826,-8.56848 -13.68156,-15.20172 -6.42577,-27.0917 6.6985,-57.33531 22.0425,-80.56916 z" fill="#d4aa00" stroke="#540" stroke-width="2.244"/><path d="m 692.81569,428.57717 c 3.90017,17.03436 17.43176,33.69796 36.09285,33.66172 7.45053,0.42252 14.84651,-0.97571 21.78661,-3.50643 -27.15602,59.14171 -79.14852,102.37696 -134.71076,134.15998 -10.78738,6.09482 -26.12627,18.46818 -38.38608,20.48174 -9.36273,-4.56045 -8.7898,-21.43408 -9.36855,-30.16879 1.51454,-21.85589 15.58694,-44.83567 29.66735,-61.42955 37.71235,-24.0149 72.6983,-54.26338 94.91858,-93.19867 z" fill="#00a" stroke="#540" stroke-width="2.244"/><path d="m 628.95005,551.54825 c 3.05453,0.48425 6.49219,2.43349 7.60084,5.32062 1.21176,3.15561 0.8723,8.66144 -2.28026,9.88113 -25.81917,9.98913 -43.83013,33.83539 -63.08715,38.00429 -4.51875,0.97826 -2.81783,-9.39913 -4.56052,-13.68152 -2.67567,-6.57511 -16.64382,-15.32399 -9.88113,-17.48202 17.35577,-5.53841 47.35273,-25.98292 72.20822,-22.0425 z" fill="#d4aa00" stroke="#540" stroke-width="2.244"/><path d="m 354.28104,552.02145 c -4.23213,-0.10892 -10.66885,11.51862 -4.26193,11.82521 13.45303,4.64599 40.94352,29.94344 60.65879,38.21019 0.55416,-7.83178 5.35339,-16.15996 11.41964,-21.00989 -20.6421,-8.45538 -44.74955,-29.56021 -67.8165,-29.02551 z" fill="#00a" stroke="#540" stroke-width="2.244"/><path d="m 624.86887,552.11544 c 4.23213,-0.10891 10.66885,11.51863 4.26193,11.82522 -13.45303,4.64599 -40.94351,29.94344 -60.65878,38.21019 -0.55416,-7.83178 -5.35339,-16.15996 -11.41964,-21.00989 20.6421,-8.45538 44.74953,-29.56021 67.81649,-29.02552 z" fill="#00a" stroke="#540" stroke-width="2.244"/><path d="m 586.54514,488.12101 c -7.7416,0.79643 -12.04414,11.68768 -45.72384,20.10353 -14.69039,3.66862 -39.05109,5.76017 -51.80165,5.42328 -0.0559,0.003 -0.13045,-0.003 -0.187,0 -0.91354,-0.0269 -1.9297,-0.0413 -2.71164,-0.0934 v 0.18701 c -12.22379,0.32142 -32.76013,-1.76555 -47.40692,-5.42327 -38.49109,-9.61813 -38.65775,-22.39761 -49.37053,-19.72951 -7.52864,4.83939 -9.38183,17.66366 -13.7452,24.31124 -6.1554,17.44799 -23.37194,29.22558 -30.38905,40.30056 64.45381,19.95287 101.83681,43.87576 143.34282,41.0486 0.1547,0.006 0.31271,-0.006 0.46752,0 40.7452,1.76435 82.0101,-21.57651 145.21292,-41.14211 -7.01711,-11.07497 -27.32405,-26.07734 -30.65778,-40.16619 -4.229,-3.96027 -5.85432,-19.60622 -13.38297,-24.44561 -1.33911,-0.3335 -2.54075,-0.48778 -3.64668,-0.37402 z" fill="#d4aa00" stroke="#540" stroke-width="2.244"/><path d="m 377.94035,254.77223 c -6.2279,11.97054 -0.41316,7.81307 -6.22709,19.7185 -5.58793,20.13886 14.88937,-12.66543 19.84496,-19.9453 1.66123,-4.05608 21.45239,-8.12377 14.32071,-9.73542 -0.41279,-6.11414 -5.25329,0.80201 -11.31906,-1.72463 z" fill="#a80"/><path d="m 375.36415,301.41247 c -2.63244,13.23446 -5.17623,11.36626 -7.42941,24.42246 -2.95493,2.93881 3.84115,15.26505 1.70259,18.59972 11.63716,-10.75583 27.02103,-20.19507 29.82191,-37.29654 0.46087,-4.35879 6.8125,-12.96427 -0.48536,-12.51755 -2.10589,-5.75484 -2.87031,-6.44573 -9.40065,-7.17555 z m -11.57086,49.56751 c -6.64694,2.99681 -6.09906,10.30667 -6.54534,16.45684 1.47705,-5.92537 3.07499,-12.02049 7.01286,-16.83086 z" fill="#a80"/><path d="m 592.58531,491.39208 c -12.52293,6.74816 -30.1668,17.44035 -44.43659,20.21992 -38.51164,10.26575 -80.20323,10.33476 -118.66757,0.0594 -13.5708,-3.78152 -29.89166,-14.02834 -41.85688,-20.89976 -6.16883,5.23817 -8.28828,17.3787 -12.50697,24.25389 -6.42932,12.80228 -17.43299,24.50079 -26.27484,33.42192 48.47197,13.5482 112.02799,47.19813 152.40964,40.38949 0.67459,0.33858 36.44156,-5.81152 51.23677,-12.46776 25.69662,-11.56069 47.88757,-15.15683 77.37066,-28.64028 -0.49115,-1.81242 -6.50625,-7.07674 -7.79703,-9.02927 -12.41591,-12.32463 -20.18499,-27.30041 -26.15778,-43.36892 -0.77661,-1.26423 -1.77371,-3.40547 -3.05067,-3.80424 l -0.26874,-0.13434 z" fill="#00a" stroke="#540" stroke-width="2.244"/><path d="m 494.66318,311.63033 c 8.75715,20.03662 4.49185,10.0123 7.12956,62.93862 -3.75103,5.17445 2.93437,45.51391 4.46466,49.3093 2.55747,5.56066 5.313,11.3664 9.02321,15.6153 5.55194,2.6132 3.9005,-5.98339 6.35833,-8.78945 -7.92132,-5.85334 -17.93663,-12.74322 -16.08282,-23.98397 1.99757,-20.4128 -3.20035,-44.22524 3.4612,-63.69918 4.23506,-8.20269 1.88838,-13.74037 1.80319,-23.68066 -9.50632,1.3714 -6.651,-9.08137 -16.15733,-7.70996 z" fill="#a80"/><path d="m 430.59219,208.57116 c -4.77936,8.24893 1.93885,12.80335 -14.9441,24.3856 -11.8699,30.15364 22.58186,-14.14777 25.72331,-22.37492 0.68015,-4.32999 7.7812,-1.45773 7.18838,-7.29181 -1.8129,-5.85376 6.5376,-6.37175 4.37373,-8.85133 -4.13479,-4.73804 -13.0661,1.95576 -17.88894,5.99132 -2.37214,1.98491 -2.90178,5.46486 -4.45238,8.14114 z" fill="#a80"/><path d="m 497.41028,272.84507 c 8.86198,9.38983 2.71209,29.27921 17.09391,37.00049 6.41629,3.44476 -3.80464,-32.94884 -11.83433,-44.91986 -4.90803,-7.3171 -13.76745,-11.30617 -21.77203,-14.98796 -8.72307,-4.01227 -19.01633,-23.20921 -27.84171,-7.38598 8.57441,1.17379 11.53687,-1.50389 14.17676,2.50341 19.25676,29.23158 23.58744,20.80743 30.1774,27.7899 z" fill="#a80"/><path d="m 357.59753,321.83306 c -0.70789,0.13585 -3.21892,5.85288 -3.44104,6.43858 -2.30875,2.87058 -4.23123,1.24147 -5.16529,4.32058 -0.19529,0.14796 -0.30323,0.4304 -0.1357,0.64213" fill="none" stroke="#540" stroke-width="2.244"/><path d="m 520.3982,232.79346 c 3.56091,5.81343 35.11345,34.59963 40.21473,30.01188 -12.13847,-14.33217 -20.26042,-12.92239 -22.27456,-19.67103 -16.56468,-19.84158 -35.96179,-27.58473 -57.54737,-25.11644 -0.81652,12.94242 27.44329,4.65286 39.6072,14.77559 z" fill="#a80"/><path d="m 469.48577,524.95133 c -1.1233,-0.13554 -2.12305,0.18015 -3.00078,0.96672 -0.87778,0.78661 -1.43215,1.76684 -1.64048,2.97688 -0.11983,0.69622 -0.10846,1.35135 0.0383,1.9613 0.14692,0.60996 0.43654,1.1864 0.83104,1.72473 0.39446,0.53834 1.08141,1.29926 2.07207,2.24375 0.99067,0.94451 1.67321,1.52927 1.89312,1.80332 0.32774,0.40243 0.54425,0.7995 0.66526,1.24103 0.12103,0.44152 0.16706,0.88198 0.10996,1.29792 -0.10278,0.74871 -0.4322,1.38825 -0.98005,1.8918 -0.54788,0.5036 -1.22883,0.69087 -2.04348,0.61246 -0.70386,-0.0678 -1.57875,-0.36094 -2.09787,-0.82972 -0.51914,-0.46878 -0.88789,-1.04438 -1.07014,-1.67976 -0.18224,-0.63539 -0.25251,-1.56414 -0.21301,-2.79458 0,0 -0.34,-0.0412 -0.34,-0.0412 0,0 -0.99624,5.7866 -0.99624,5.7866 0,0 0.34,0.0411 0.34,0.0411 0.1125,-0.38407 0.24187,-0.61916 0.35743,-0.73212 0.11549,-0.11295 0.23712,-0.15596 0.39946,-0.13629 0.16881,0.0204 0.56793,0.17123 1.15605,0.50876 0.58812,0.33751 0.97157,0.55494 1.16573,0.62069 0.3248,0.1152 0.97861,0.21871 1.36312,0.25572 1.22524,0.11789 2.29773,-0.23665 3.20389,-1.08923 0.90612,-0.85258 1.63629,-1.93879 1.76787,-3.22364 0.0691,-0.67579 -0.0892,-1.32422 -0.24902,-1.96335 -0.1599,-0.63913 -0.44227,-1.20155 -0.83297,-1.69855 -0.39072,-0.497 -1.14018,-1.23618 -2.26196,-2.20395 -1.37577,-1.18604 -2.09311,-2.1447 -2.38864,-2.81492 -0.20643,-0.45638 -0.27686,-0.91174 -0.1884,-1.42563 0.11565,-0.67132 0.43085,-1.25663 0.96299,-1.72963 0.53213,-0.47297 1.13336,-0.67534 1.80864,-0.59382 0.59735,0.0721 0.90715,0.27864 1.41397,0.72358 0.5068,0.44497 0.84877,1.02578 1.06048,1.72047 0.21168,0.6947 0.29374,1.61216 0.25691,2.74651 0,0 0.36969,0.0356 0.36969,0.0356 0,0 0.8023,-5.84449 0.8023,-5.84449 0,0 -0.36969,-0.0356 -0.36969,-0.0356 -0.11894,0.38471 -0.23538,0.61909 -0.3606,0.73768 -0.12522,0.11864 -0.25363,0.1595 -0.42308,0.14318 -0.14989,-0.015 -0.42001,-0.12403 -0.75641,-0.36708 -0.72807,-0.5168 -1.12422,-0.75167 -1.82546,-0.83634 0,0 -10e-6,5e-5 -10e-6,5e-5 m 23.52363,0.9045 c 0,0 -4.36084,14.07143 -4.36084,14.07143 -0.40448,1.23148 -0.77812,2.04726 -1.11194,2.44963 -0.16366,0.2012 -0.52949,0.38664 -1.08686,0.51295 0,0 8e-4,0.43848 8e-4,0.43848 0,0 4.50087,-0.0188 4.50087,-0.0188 0,0 -0.0159,-0.43827 -0.0159,-0.43827 -0.64473,-0.0422 -1.3441,-0.19053 -1.53801,-0.38705 -0.19388,-0.19654 -0.28704,-0.43431 -0.28752,-0.6939 -6e-4,-0.32658 0.0905,-0.8002 0.31222,-1.46202 0,0 1.00747,-2.70837 1.00747,-2.70837 0,0 5.27348,-0.15708 5.27348,-0.15708 0,0 0.97284,2.40427 0.97284,2.40427 0.31806,0.78114 0.46921,1.36466 0.49521,1.73245 0.0195,0.27586 -0.0353,0.5043 -0.20821,0.70581 -0.17305,0.2015 -0.53203,0.35885 -1.0601,0.41857 0,0 0.031,0.43772 0.031,0.43772 0,0 5.54221,-0.31727 5.54221,-0.31727 0,0 -0.0458,-0.43681 -0.0458,-0.43681 -0.54678,-10e-4 -1.00502,-0.17259 -1.34428,-0.4881 -0.33928,-0.3155 -0.95604,-1.03316 -1.40965,-2.15152 0,0 -5.32356,-13.9208 -5.32356,-13.9208 0,0 -0.34335,0.009 -0.34335,0.009 0,0 0,0 0,0 m 45.22811,-7.36797 c -1.64281,0.49281 -2.57714,1.47234 -3.20713,3.21003 -0.72522,2.00256 -0.48883,4.25768 0.45907,6.84332 0.92736,2.52964 2.40182,4.42858 4.21598,5.67923 1.81414,1.25064 3.83363,1.57962 5.56292,1.0609 1.71073,-0.51316 3.02313,-1.79498 3.48798,-3.77345 0.46483,-1.97847 0.14916,-4.16387 -0.95623,-6.58018 -1.07317,-2.34589 -2.54655,-4.11547 -4.44917,-5.30304 -1.90262,-1.18755 -3.48295,-1.62587 -5.11342,-1.13681 0,0 0,0 0,0 m -117.58323,-5.08049 c 0,0 -2.06121,3.6328 -2.06121,3.6328 0,0 0.34163,0.12373 0.34163,0.12373 0.40698,-0.69197 0.83975,-1.23364 1.27672,-1.56815 0.43698,-0.33447 0.85875,-0.51109 1.24727,-0.54386 0.29642,-0.0205 0.72325,0.0627 1.29536,0.26963 0,0 1.47162,0.53243 1.47162,0.53243 0,0 -6.17781,11.97524 -6.17781,11.97524 -0.45209,0.87634 -0.78979,1.41259 -1.04918,1.61064 -0.42302,0.3213 -0.89731,0.39185 -1.41522,0.20449 0,0 -0.44674,-0.16164 -0.44674,-0.16164 0,0 -0.20766,0.40253 -0.20766,0.40253 0,0 5.45564,1.90412 5.45564,1.90412 0,0 0.19609,-0.40657 0.19609,-0.40657 0,0 -0.42471,-0.14363 -0.42471,-0.14363 -0.48053,-0.16253 -0.74274,-0.46305 -0.8166,-0.86733 -0.0482,-0.29626 0.13255,-0.91494 0.60066,-1.88549 0,0 5.83376,-12.09563 5.83376,-12.09563 0,0 1.75184,0.59257 1.75184,0.59257 0.51094,0.17282 0.84728,0.43232 1.05758,0.75179 0.21026,0.31949 0.32447,0.72881 0.29585,1.24291 -0.0193,0.31863 -0.31403,0.78737 -0.54179,1.4671 0,0 0.34838,0.10966 0.34838,0.10966 0,0 1.5536,-3.80496 1.5536,-3.80496 0,0 -9.58508,-3.34214 -9.58508,-3.34214 0,0 0,0 0,0 m 10.52303,3.63715 c 0,0 -0.19945,0.4447 -0.19945,0.4447 0,0 0.45556,0.14332 0.45556,0.14332 0.29479,0.0928 0.5222,0.2618 0.70803,0.53497 0.12717,0.201 0.17153,0.41583 0.14512,0.6311 -0.0362,0.28382 -0.22143,0.83463 -0.58707,1.64991 0,0 -4.61784,10.29641 -4.61784,10.29641 -0.42892,0.95639 -0.76763,1.54107 -1.02749,1.74557 -0.40566,0.31072 -0.87048,0.38977 -1.38635,0.2275 0,0 -0.45557,-0.14332 -0.45557,-0.14332 0,0 -0.18409,0.41048 -0.18409,0.41048 0,0 5.61829,1.7166 5.61829,1.7166 0,0 0.17169,-0.41424 0.17169,-0.41424 0,0 -0.45973,-0.13375 -0.45973,-0.13375 -0.29751,-0.0865 -0.52181,-0.28703 -0.70961,-0.55435 -0.13928,-0.20007 -0.22535,-0.38542 -0.20535,-0.60122 0.0277,-0.28446 0.2266,-0.83906 0.56431,-1.65388 0,0 2.03162,-4.90188 2.03162,-4.90188 0,0 5.86144,1.67297 5.86144,1.67297 0,0 -1.87994,4.94415 -1.87994,4.94415 -0.37015,0.97344 -0.66657,1.57347 -0.91988,1.78715 -0.38621,0.32763 -1.09111,0.36843 -1.60549,0.21891 0,0 -0.43271,-0.12567 -0.43271,-0.12567 0,0 -0.17167,0.41423 -0.17167,0.41423 0,0 5.92935,1.58903 5.92935,1.58903 0,0 0.14572,-0.42118 0.14572,-0.42118 0,0 -0.68059,-0.1741 -0.68059,-0.1741 -0.30006,-0.0799 -0.5515,-0.28129 -0.75371,-0.54612 -0.13914,-0.1953 -0.20989,-0.37312 -0.19653,-0.58929 0.0188,-0.28498 0.17334,-0.85096 0.48584,-1.6728 0,0 3.98493,-10.48019 3.98493,-10.48019 0.30339,-0.79789 0.53433,-1.29755 0.70483,-1.53771 0.17038,-0.24017 0.38563,-0.40845 0.63422,-0.4828 0.33855,-0.11176 0.67871,-0.12582 0.97876,-0.0458 0,0 0.19521,0.0506 0.19521,0.0506 0,0 0.15779,-0.45629 0.15779,-0.45629 0,0 -4.91862,-1.3198 -4.91862,-1.3198 0,0 -0.18599,0.44877 -0.18599,0.44877 0,0 0.4327,0.12567 0.4327,0.12567 0.29746,0.0865 0.3074,0.17707 0.50337,0.44029 0.14541,0.19699 0.22388,0.41524 0.21055,0.63138 -0.0189,0.28497 -0.19763,0.8357 -0.51315,1.66552 0,0 -1.76079,4.63077 -1.76079,4.63077 0,0 -5.83365,-1.66523 -5.83365,-1.66523 0,0 1.90286,-4.59119 1.90286,-4.59119 0.32786,-0.79108 0.57114,-1.28645 0.75197,-1.52199 0.18092,-0.23547 0.40428,-0.39818 0.64888,-0.46893 0.3419,-0.10443 0.65531,-0.11894 0.95282,-0.0325 0,0 0.45973,0.13375 0.45973,0.13375 0,0 0.18599,-0.44876 0.18599,-0.44876 0,0 -5.13627,-1.57078 -5.13627,-1.57078 0,0 8e-5,2e-5 8e-5,2e-5 m 13.0969,3.73642 c 0,0 -0.15779,0.45627 -0.15779,0.45627 0,0 0.46742,0.11341 0.46742,0.11341 0.52931,0.12836 0.84184,0.38805 0.95741,0.76479 0.0803,0.28105 -0.0491,0.91774 -0.40798,1.95531 0,0 -3.6779,10.63471 -3.6779,10.63471 -0.27539,0.79629 -0.49468,1.31293 -0.65618,1.55273 -0.16149,0.23983 -0.37266,0.41686 -0.6188,0.49664 -0.33492,0.11924 -0.64702,0.14737 -0.94948,0.0741 0,0 -0.46743,-0.1134 -0.46743,-0.1134 0,0 -0.14572,0.42117 -0.14572,0.42117 0,0 10.46014,2.33494 10.46014,2.33494 0,0 2.29555,-3.94309 2.29555,-3.94309 0,0 -0.39043,-0.0757 -0.39043,-0.0757 -0.69751,0.93913 -1.331,1.64688 -1.86714,2.07579 -0.41283,0.3239 -0.78654,0.49755 -1.15498,0.5636 -0.36843,0.0661 -1.14964,-0.0178 -1.87965,-0.17724 0,0 -2.21603,-0.4838 -2.21603,-0.4838 -0.35549,-0.0776 -0.57825,-0.17772 -0.67619,-0.29867 -0.098,-0.12089 -0.12656,-0.27428 -0.12821,-0.44337 -0.001,-0.16908 -0.10173,-0.64409 0.14856,-1.36798 0,0 1.8693,-5.4051 1.8693,-5.4051 0,0 2.82681,0.6183 2.82681,0.6183 0.53956,0.11774 0.93194,0.29468 1.14175,0.51359 0.20982,0.21889 0.3189,0.48422 0.34489,0.79275 0.0182,0.2463 0.0206,0.76867 -0.11341,1.59366 0,0 0.33466,0.0648 0.33466,0.0648 0,0 1.59528,-5.7668 1.59528,-5.7668 0,0 -0.33466,-0.0649 -0.33466,-0.0649 -0.30012,0.93888 -0.61939,1.58445 -1.0655,1.88512 -0.33587,0.22956 -0.89154,0.25851 -1.6279,0.0977 0,0 -2.79851,-0.61177 -2.79851,-0.61177 0,0 2.23344,-6.45804 2.23344,-6.45804 0,0 3.31057,0.72106 3.31057,0.72106 0.64114,0.14004 0.81919,0.24258 1.04097,0.41457 0.27215,0.23333 0.44557,0.53031 0.5183,0.88823 0.0727,0.35794 0.061,0.96755 -0.0462,1.86645 0,0 0.39045,0.0757 0.39045,0.0757 0,0 0.8371,-3.66343 0.8371,-3.66343 0,0 -9.39261,-2.10213 -9.39261,-2.10213 0,0 -8e-5,-3e-5 -8e-5,-3e-5 m 31.34037,5.07675 c 0,0 -0.58123,3.99245 -0.58123,3.99245 0,0 0.37079,0.0266 0.37079,0.0266 0.12432,-0.76427 0.35849,-1.39077 0.64647,-1.82396 0.28798,-0.43316 0.59273,-0.71459 0.94884,-0.84871 0.27341,-0.098 0.47988,-0.14482 1.1021,-0.1152 0,0 1.60049,0.0759 1.60049,0.0759 0,0 -0.88009,13.02402 -0.88009,13.02402 -0.0643,0.95309 -0.18983,1.55254 -0.35189,1.81325 -0.26516,0.42358 -0.68148,0.62648 -1.24475,0.59979 0,0 -0.45729,-0.0217 -0.45729,-0.0217 0,0 -0.0296,0.43778 -0.0296,0.43778 0,0 5.9266,0.2409 5.9266,0.2409 0,0 0.015,-0.43833 0.015,-0.43833 0,0 -0.45786,-0.0105 -0.45786,-0.0105 -0.51806,-0.012 -1.16158,-0.22314 -1.38674,-0.58607 -0.15933,-0.26754 -0.19718,-0.90068 -0.12657,-1.94572 0,0 0.88008,-13.02402 0.88008,-13.02402 0,0 1.60058,0.0426 1.60058,0.0426 0.55083,0.012 1.00275,0.15825 1.33293,0.3962 0.33015,0.23798 0.5791,0.58756 0.76645,1.07772 0.11475,0.30422 0.21535,0.83657 0.26444,1.54134 0,0 0.372,0.009 0.372,0.009 0,0 -0.0398,-4.02184 -0.0398,-4.02184 0,0 -10.27034,-0.44096 -10.27034,-0.44096 0,0 0,0 0,0 m 25.08183,-0.0494 c 0,0 0.27704,4.01453 0.27704,4.01453 0,0 0.3707,-0.0272 0.3707,-0.0272 -0.0347,-0.77078 0.0386,-1.41961 0.23319,-1.88784 0.19459,-0.46822 0.43691,-0.7894 0.76013,-0.9729 0.24917,-0.13599 0.44945,-0.22635 1.06849,-0.2866 0,0 1.59238,-0.15489 1.59238,-0.15489 0,0 1.79724,12.95777 1.79724,12.95777 0.1315,0.94825 0.13061,1.55684 0.0242,1.83695 -0.17461,0.45534 -0.54324,0.71499 -1.10366,0.76949 0,0 -0.45496,0.0443 -0.45496,0.0443 0,0 0.0604,0.43557 0.0604,0.43557 0,0 5.87242,-0.62566 5.87242,-0.62566 0,0 -0.0748,-0.43398 -0.0748,-0.43398 0,0 -0.45333,0.0548 -0.45333,0.0548 -0.51293,0.0619 -0.92007,-0.0872 -1.22678,-0.40552 -0.2196,-0.23573 -0.40679,-0.84996 -0.58531,-1.88596 0,0 -2.22495,-12.91114 -2.22495,-12.91114 0,0 1.84162,-0.22258 1.84162,-0.22258 0.5454,-0.066 1.0203,0.0135 1.39397,0.20073 0.37363,0.18752 0.48096,0.5287 0.77983,0.97841 0.18391,0.27939 0.40767,0.78476 0.62134,1.46768 0,0 0.36674,-0.0528 0.36674,-0.0528 0,0 -0.95566,-3.94079 -0.95566,-3.94079 0,0 -9.9803,1.04785 -9.9803,1.04785 0,0 0,0 0,0 m 11.0241,-1.19838 c 0,0 0.0962,0.46812 0.0962,0.46812 0,0 0.47958,-0.0691 0.47958,-0.0691 0.54306,-0.0782 0.95972,0.0408 1.26032,0.33734 0.21903,0.22333 0.43488,0.84338 0.65382,1.90791 0,0 2.2439,10.91111 2.2439,10.91111 0.16803,0.81699 0.24039,1.36194 0.22045,1.63672 -0.02,0.2748 -0.11759,0.51135 -0.29728,0.67322 -0.23894,0.22989 -0.50496,0.36946 -0.81529,0.41421 0,0 -0.47958,0.0691 -0.47958,0.0691 0,0 0.0889,0.43212 0.0889,0.43212 0,0 10.59878,-1.78369 10.59878,-1.78369 0,0 0.11056,-4.40712 0.11056,-4.40712 0,0 -0.48774,0.0947 -0.48774,0.0947 -0.13898,1.09984 -0.3407,1.96805 -0.59997,2.54979 -0.20297,0.44221 -0.44891,0.7349 -0.74614,0.92884 -0.29721,0.19393 -0.8254,0.38186 -1.56106,0.52181 0,0 -2.44841,0.41473 -2.44841,0.41473 -0.36024,0.0603 -0.61285,0.0518 -0.76406,-0.0211 -0.15119,-0.073 -0.28509,-0.19568 -0.37477,-0.34717 -0.0898,-0.15151 -0.19615,-0.57736 -0.37251,-1.3164 0,0 -1.31687,-5.51809 -1.31687,-5.51809 0,0 2.86325,-0.47921 2.86325,-0.47921 0.54682,-0.0916 0.96488,-0.0857 1.27147,0.0278 0.30658,0.11356 0.57719,0.30163 0.76988,0.56551 0.15155,0.21162 0.358,0.69304 0.66686,1.4844 0,0 0.36291,-0.0691 0.36291,-0.0691 0,0 -1.56589,-5.77247 -1.56589,-5.77247 0,0 -0.3629,0.0691 -0.3629,0.0691 0.21858,0.95454 0.21374,1.66272 -0.0171,2.10163 -0.17199,0.33328 -0.59288,0.57254 -1.3391,0.69742 0,0 -2.86326,0.47921 -2.86326,0.47921 0,0 -1.57339,-6.59307 -1.57339,-6.59307 0,0 3.35949,-0.56898 3.35949,-0.56898 0.64611,-0.12297 1.09912,-0.15058 1.38825,-0.0768 0.36637,0.11056 0.67703,0.31463 0.92876,0.61022 0.25175,0.29561 0.55859,0.84849 0.92995,1.69666 0,0 0.3629,-0.0691 0.3629,-0.0691 0,0 -1.1255,-3.60797 -1.1255,-3.60797 0,0 -9.54546,1.60773 -9.54546,1.60773 0,0 -4e-5,0 -4e-5,0 m 33.51634,-7.89906 c 0,0 0.20293,0.4436 0.20293,0.4436 0,0 0.45445,-0.14571 0.45445,-0.14571 0.30017,-0.0963 0.327,-0.006 0.67995,0.0889 0.25715,0.0732 0.46554,0.20384 0.62271,0.37561 0.20627,0.22722 0.52682,0.74199 0.92518,1.53731 0,0 5.07985,10.14218 5.07985,10.14218 0.47185,0.94205 0.67838,1.57117 0.65688,1.86929 -0.0404,0.4591 -0.56616,0.86967 -1.08076,1.03476 0,0 -0.45445,0.14587 -0.45445,0.14587 0,0 0.18732,0.40946 0.18732,0.40946 0,0 5.58571,-1.92955 5.58571,-1.92955 0,0 -0.20253,-0.40434 -0.20253,-0.40434 0,0 -0.44874,0.15764 -0.44874,0.15764 -0.29038,0.10188 -0.61121,0.076 -0.97021,-0.0159 -0.26319,-0.0711 -0.47505,-0.16086 -0.63223,-0.33265 -0.20625,-0.2272 -0.50039,-0.75126 -0.89875,-1.54659 0,0 -2.48085,-4.95316 -2.48085,-4.95316 0,0 2.24375,-0.78815 2.24375,-0.78815 0.41135,-0.14452 0.76179,-0.15817 1.04204,-0.0886 0.28024,0.0696 0.53472,0.22904 0.7958,0.47329 0.26105,0.24429 0.54826,0.67501 0.85984,1.2829 0,0 0.34316,-0.12044 0.34316,-0.12044 0,0 -2.6665,-5.32379 -2.6665,-5.32379 0,0 -0.34316,0.12044 -0.34316,0.12044 0.35067,0.88473 0.47946,1.51184 0.38555,1.88532 -0.0939,0.37353 -0.37508,0.64688 -0.88928,0.82748 0,0 -2.24375,0.78815 -2.24375,0.78815 0,0 -3.08841,-6.16617 -3.08841,-6.16617 0,0 2.71891,-0.95506 2.71891,-0.95506 0.64121,-0.22522 1.13431,-0.30272 1.51717,-0.25556 0.38284,0.0471 0.78238,0.19283 1.1632,0.46312 0.38079,0.27033 0.81331,0.75359 1.33801,1.4319 0,0 1.75267,-0.65463 1.75267,-0.65463 0,0 -3.27974,-2.89013 -3.27974,-2.89013 0,0 -8.87566,3.09333 -8.87566,3.09333 0,0 -6e-5,2e-5 -6e-5,2e-5 m -6.79319,2.68545 c 1.19814,-0.35938 2.34168,-0.12671 3.47962,0.74168 1.4227,1.09429 2.66061,3.05302 3.90548,5.77428 1.14827,2.51014 1.49843,4.47621 1.23195,5.88148 -0.26652,1.40528 -0.99282,2.31613 -2.17243,2.66997 -1.10551,0.33163 -2.43226,0.0748 -3.54016,-0.81674 -1.4491,-1.17587 -2.70768,-3.09324 -3.75602,-5.73112 -1.02309,-2.5743 -1.34714,-4.65024 -1.0249,-6.22277 0.25843,-1.26344 0.75243,-1.95961 1.87646,-2.29678 0,0 0,0 0,0 m -45.66556,10.34039 c 0,0 2.57485,6.82824 2.57485,6.82824 0,0 -4.64169,0.13375 -4.64169,0.13375 0,0 2.06684,-6.96196 2.06684,-6.96196 0,0 0,0 0,0" style="line-height:125%;-inkscape-font-specification:'Times New Roman';text-align:center" font-weight="400" font-size="22" font-family="Times New Roman" text-anchor="middle" fill="#d4aa00"/><path d="m 579.08368,524.44388 c 0,0 -1.60158,31.67257 -1.60158,31.67257 -0.12657,2.77552 -0.78028,4.86395 -1.3697,5.97027 -0.2861,0.54988 -1.11392,1.22359 -2.48345,2.02108 0,0 0.33059,0.89343 0.33059,0.89343 0,0 11.29505,-4.5208 11.29505,-4.5208 0,0 -0.35046,-0.88556 -0.35046,-0.88556 -1.71137,0.56794 -2.87468,0.7735 -3.5249,0.60313 -0.65029,-0.17039 -1.09076,-0.50966 -1.28649,-1.0043 -0.24629,-0.62228 -0.32963,-1.68159 -0.25006,-3.17792 0,0 0.32069,-6.07895 0.32069,-6.07895 0,0 13.48551,-5.61912 13.48551,-5.61912 0,0 4.02572,3.72031 4.02572,3.72031 1.30835,1.20795 2.10945,2.15959 2.40331,2.85491 0.22034,0.52153 0.17987,1.06303 -0.14676,1.63551 -0.32661,0.57251 -1.17158,1.19291 -2.50961,1.85018 0,0 0.37063,0.87709 0.37063,0.87709 0,0 13.52126,-5.88579 13.52126,-5.88579 0,0 -0.37062,-0.87709 -0.37062,-0.87709 -1.43188,0.52976 -2.65713,0.6515 -3.71101,0.35248 -1.05398,-0.29897 -2.5329,-1.3204 -4.40145,-3.05158 0,0 -22.85357,-21.71395 -22.85357,-21.71395 0,0 -0.89313,0.3641 -0.89313,0.3641 0,0 0,0 0,0 m -194.64647,-4.62677 c 0,0 -0.35457,0.8839 -0.35457,0.8839 0,0 1.22258,0.5052 1.22258,0.5052 1.4263,0.58941 2.3173,1.3289 2.67305,2.21848 0.24982,0.66025 -0.0374,2.01758 -0.86144,4.07201 0,0 -8.44234,21.04623 -8.44234,21.04623 -0.63245,1.57667 -1.13573,2.58476 -1.5355,3.01368 -0.39971,0.42894 -0.93506,0.65331 -1.58065,0.68359 -0.87706,0.0645 -1.7231,-0.0715 -2.53812,-0.40828 0,0 -1.22258,-0.50519 -1.22258,-0.50519 0,0 -0.35456,0.88391 -0.35456,0.88391 0,0 27.07891,10.92809 27.07891,10.92809 0,0 6.08007,-7.03467 6.08007,-7.03467 0,0 -1.02803,-0.39708 -1.02803,-0.39708 -1.86695,1.57869 -3.51836,2.66109 -4.95424,3.24718 -1.10566,0.43768 -2.15218,0.61302 -3.13955,0.52602 -0.98741,-0.0869 -2.46632,-0.511 -4.43674,-1.27204 0,0 -6.20732,-2.52407 -6.20732,-2.52407 -0.95089,-0.39292 -1.56419,-0.73916 -1.83031,-1.06264 -0.26614,-0.32348 -0.40482,-0.66856 -0.41607,-1.03527 -0.012,-0.36667 0.27535,-1.27863 0.85034,-2.71198 0,0 4.28346,-10.6784 4.28346,-10.6784 0,0 7.603,3.13599 7.603,3.13599 1.45638,0.56252 2.47559,1.14013 3.05762,1.73288 0.58194,0.59276 0.9217,1.22993 1.01926,1.91152 0.0711,0.54262 -0.0715,1.65579 -0.42825,3.3394 0,0 0.95098,0.36731 0.95098,0.36731 0,0 4.26608,-11.37811 4.26608,-11.37811 0,0 -0.95097,-0.36731 -0.95097,-0.36731 -0.80188,1.8245 -1.78675,2.93435 -2.95487,3.32948 -0.87915,0.30439 -2.31252,0.0729 -4.30005,-0.69491 0,0 -7.56327,-3.12013 -7.56327,-3.12013 0,0 5.13632,-12.80452 5.13632,-12.80452 0,0 9.17338,3.73832 9.17338,3.73832 1.73053,0.66839 2.89331,1.25545 3.48833,1.76125 0.73013,0.66838 1.20602,1.41332 1.40196,2.2249 0.19587,0.81158 0.13854,2.14169 -0.14632,4.00021 0,0 1.00234,0.38714 1.00234,0.38714 0,0 2.29888,-7.30844 2.29888,-7.30844 0,0 -26.34076,-10.63365 -26.34076,-10.63365 0,0 0,0 0,0 m 31.48099,12.61897 c 0,0 -0.33442,0.89195 -0.33442,0.89195 0,0 1.31079,0.50626 1.31079,0.50626 1.31931,0.50961 1.86951,1.07052 2.29411,2.02618 0.30813,0.67663 0.0996,2.05206 -0.62546,4.12636 0,0 -7.44396,21.29416 -7.44396,21.29416 -0.65715,1.87987 -1.25496,3.00565 -1.7934,3.37735 -0.95653,0.6773 -2.54486,0.64918 -4.0184,0.08 0,0 -1.31081,-0.50626 -1.31081,-0.50626 0,0 -0.3344,0.89193 -0.3344,0.89193 0,0 15.76217,5.58548 15.76217,5.58548 0,0 0.29829,-0.90506 0.29829,-0.90506 0,0 -1.38221,-0.46929 -1.38221,-0.46929 -1.32135,-0.44861 -2.19413,-1.14383 -2.6183,-2.08565 -0.32021,-0.67081 -0.13629,-2.04987 0.55163,-4.13719 0,0 3.17644,-9.6375 3.17644,-9.6375 0.27281,0.11071 0.53424,0.2267 0.79235,0.32338 0.25811,0.0966 0.5042,0.17121 0.73022,0.24791 0.55635,0.18894 1.28325,0.41762 2.18068,0.68603 0,0 7.67722,19.54808 7.67722,19.54808 0,0 10.04583,2.76853 10.04583,2.76853 0,0 0.23547,-0.92393 0.23547,-0.92393 -1.91923,-0.71698 -3.39782,-1.60248 -4.43577,-2.65647 -1.038,-1.05398 -2.43293,-3.07011 -3.49966,-5.77705 0,0 -4.66781,-11.9089 -4.66781,-11.9089 3.18449,0.32313 5.72034,-0.0642 7.58596,-1.16753 1.86557,-1.10317 3.07672,-2.69178 3.65992,-4.75809 0.54579,-1.93404 0.39548,-3.7664 -0.47039,-5.52959 -0.86594,-1.76315 -1.78178,-3.07117 -3.4169,-4.15593 -1.6352,-1.08469 -4.02435,-2.1257 -7.77975,-3.40079 0,0 -12.16944,-4.33441 -12.16944,-4.33441 0,0 0,0 0,0 m 34.51985,10.997 c 0,0 -0.23546,0.92394 -0.23546,0.92394 0,0 0.84272,0.20747 0.84272,0.20747 0.85787,0.19898 1.6347,0.5908 2.3305,1.17545 0.48609,0.43025 0.77132,0.87561 0.85571,1.33612 0.10772,0.60709 -0.0326,1.7739 -0.42136,3.50045 0,0 -4.95897,22.02647 -4.95897,22.02647 -0.46041,2.04508 -0.96546,3.28609 -1.51515,3.72302 -0.86407,0.6639 -2.04673,0.82173 -3.548,0.47357 0,0 -1.74419,-0.43009 -1.74419,-0.43009 0,0 -0.23546,0.92393 -0.23546,0.92393 0,0 17.24053,3.63542 17.24053,3.63542 0,0 0.15002,-0.94208 0.15002,-0.94208 0,0 -1.33017,-0.21822 -1.33017,-0.21822 -0.86872,-0.14257 -2.19553,-0.61219 -2.89084,-1.17111 -0.51702,-0.41829 -0.82472,-0.85625 -0.92313,-1.3139 -0.12627,-0.60338 -0.0215,-1.77405 0.31424,-3.51203 0,0 4.28352,-22.1718 4.28352,-22.1718 0.3977,-2.05854 0.87359,-3.31305 1.42765,-3.76353 0.84336,-0.69071 1.48463,-0.95588 2.98676,-0.70952 0,0 1.33019,0.21822 1.33019,0.21822 0,0 0.15003,-0.94208 0.15003,-0.94208 0,0 -14.10914,-2.9697 -14.10914,-2.9697 0,0 0,0 0,0 m 17.63819,3.54862 c 0,0 -1.72375,8.02558 -1.72375,8.02558 0,0 1.03156,0.16923 1.03156,0.16923 0.37534,-1.54086 0.56713,-2.78785 1.35401,-3.62352 0.78688,-0.8356 1.67327,-1.35529 2.6592,-1.55907 0.75712,-0.14617 1.45329,-0.13884 3.18821,0.0157 0,0 4.4651,0.39767 4.4651,0.39767 0,0 -2.30128,26.61806 -2.30128,26.61806 -0.16884,1.95269 -0.47783,3.1852 -0.92696,3.69752 -0.73447,0.83216 -1.88696,1.17828 -3.4575,1.03841 0,0 -1.31487,-0.11714 -1.31487,-0.11714 0,0 -0.0821,0.95065 -0.0821,0.95065 0,0 17.15153,0.94187 17.15153,0.94187 0,0 0.009,-0.95426 0.009,-0.95426 0,0 -1.29238,-0.0135 -1.29238,-0.0135 -1.44821,-0.015 -3.15892,-0.41065 -3.81986,-1.16655 -0.46869,-0.55701 -0.65117,-1.90886 -0.54746,-4.05561 0,0 1.28909,-26.68821 1.28909,-26.68821 0,0 4.67313,0.0975 4.67313,0.0975 1.53981,0.0151 2.22192,0.26801 3.17959,0.71193 0.95759,0.444 1.72099,1.1433 2.31848,2.12284 0.3664,0.60817 0.67169,1.63101 0.91588,3.06856 0,0 1.04446,-0.0317 1.04446,-0.0317 0,0 -0.65415,-8.18557 -0.65415,-8.18557 0,0 -27.15893,-1.4613 -27.15893,-1.4613 0,0 0,0 0,0 m 29.29901,1.34094 c 0,0 0.0651,0.95201 0.0651,0.95201 0,0 1.39907,-0.0984 1.39907,-0.0984 1.40821,-0.0989 1.90291,0.27842 2.69379,0.95264 0.56673,0.47405 0.96654,1.80514 1.19939,3.99327 0,0 2.39052,22.46303 2.39052,22.46303 0.21105,1.98304 0.15338,3.26054 -0.17297,3.83243 -0.57251,1.03124 -2.28546,1.63391 -3.85825,1.74454 0,0 -1.39907,0.0984 -1.39907,0.0984 0,0 0.0651,0.95203 0.0651,0.95203 0,0 17.19598,-1.91216 17.19598,-1.91216 0,0 -0.13555,-0.94436 -0.13555,-0.94436 0,0 -1.4422,0.21319 -1.4422,0.21319 -1.37873,0.20381 -2.46651,-0.0176 -3.26329,-0.66442 -0.58365,-0.45237 -1.53494,-1.70391 -1.76779,-3.8921 0,0 -1.07519,-10.10323 -1.07519,-10.10323 0.2934,-0.015 0.63322,-0.048 0.90655,-0.0799 0.27332,-0.0317 0.52609,-0.0777 0.76194,-0.11265 0.58049,-0.0859 1.33091,-0.21408 2.25123,-0.38489 0,0 15.91582,13.63541 15.91582,13.63541 0,0 10.68774,-2.61115 10.68774,-2.61115 0,0 -0.25261,-0.91925 -0.25261,-0.91925 -2.01481,0.35614 -4.19313,0.36427 -5.60059,-0.0601 -1.40753,-0.42433 -3.63342,-1.46714 -5.83347,-3.34159 0,0 -9.66579,-8.26436 -9.66579,-8.26436 2.96908,-1.21207 5.02107,-2.79323 6.15194,-4.66001 1.13081,-1.86671 1.45897,-3.84754 1.0113,-5.94837 -0.41904,-1.96627 -1.40432,-3.50924 -2.98811,-4.64814 -1.58381,-1.13887 -2.84192,-1.84583 -4.78613,-2.03755 -1.94426,-0.19163 -4.2912,-0.015 -8.20966,0.56444 0,0 -12.24464,1.28104 -12.24464,1.28104 0,0 0,0 0,0 m 33.84867,-5.85009 c 0,0 0.25261,0.91925 0.25261,0.91925 0,0 1.27144,-0.35991 1.27144,-0.35991 1.48336,-0.41987 2.63394,-0.38855 3.45169,0.094 0.59569,0.36696 1.18709,1.61874 1.77424,3.75532 0,0 6.01483,21.88791 6.01483,21.88791 0.45059,1.63975 0.6605,2.74958 0.60302,3.33709 -0.0574,0.58751 -0.34555,1.09749 -0.83779,1.52245 -0.65465,0.5959 -1.40578,1.0138 -2.25343,1.25376 0,0 -1.27143,0.35991 -1.27143,0.35991 0,0 0.2526,0.91925 0.2526,0.91925 0,0 28.81811,-9.38422 28.81811,-9.38422 0,0 -0.0256,-9.35789 -0.0256,-9.35789 0,0 -1.02976,0.39249 -1.02976,0.39249 -0.37108,2.43744 -1.12067,4.43373 -1.84034,5.82439 -0.56283,1.06045 -1.24809,1.88219 -2.05576,2.46519 -0.80769,0.58302 -2.50189,1.36348 -4.50271,2.03797 0,0 -6.0025,2.02349 -6.0025,2.02349 -0.97431,0.32845 -2.01539,0.55084 -2.42306,0.47091 -0.40768,-0.0799 -0.73009,-0.25832 -0.96715,-0.53526 -0.23709,-0.2769 -0.58298,-1.16744 -1.03013,-2.64697 0,0 -3.33131,-11.02244 -3.33131,-11.02244 0,0 7.80759,-2.56497 7.80759,-2.56497 1.47887,-0.49851 2.63748,-0.72216 3.45921,-0.65337 0.82169,0.0688 1.48725,0.33081 1.99665,0.78586 0.40057,0.36657 1.0024,1.30839 1.80551,2.82541 0,0 0.95885,-0.34555 0.95885,-0.34555 0,0 -4.01354,-11.47258 -4.01354,-11.47258 0,0 -0.95883,0.34555 -0.95883,0.34555 0.55381,1.9171 0.51207,3.41015 -0.12553,4.47928 -0.47537,0.80999 -1.68886,1.56817 -3.70706,2.24851 0,0 -7.76687,2.55177 -7.76687,2.55177 0,0 -3.9946,-13.21707 -3.9946,-13.21707 0,0 9.3991,-3.10595 9.3991,-3.10595 1.75723,-0.59235 2.71562,-0.84449 3.49175,-0.85047 0.98285,0.029 1.82089,0.28356 2.48823,0.77293 0.66727,0.48944 1.47264,1.54036 2.44203,3.14344 0,0 0.85048,-0.31307 0.85048,-0.31307 0,0 -3.03968,-7.02433 -3.03968,-7.02433 0,0 -25.9608,8.43796 -25.9608,8.43796 0,0 0,0 0,0 M 428.75305,539.0623 c 2.27757,0.7733 3.63714,1.92588 4.62777,3.6712 0.99053,1.74534 1.15631,3.64395 0.51598,5.72878 -0.65549,2.13411 -2.04388,3.62206 -4.19136,4.45551 -2.14758,0.83351 -4.92174,0.68043 -8.29466,-0.46476 -0.15647,-0.0531 -0.35908,-0.11295 -0.5998,-0.20366 -0.24075,-0.0908 -0.52221,-0.20456 -0.85254,-0.3167 0,0 4.54698,-13.79582 4.54698,-13.79582 1.82333,0.27459 3.2392,0.58304 4.24764,0.92542 0,0 -1e-5,3e-5 -1e-5,3e-5 m 82.4788,9.72081 c 2.37647,-0.35126 3.89053,0.054 5.56545,1.13419 1.67487,1.08029 2.68898,2.68449 3.07394,4.83296 0.39402,2.19928 -0.15645,4.17091 -1.67843,5.91981 -1.52205,1.74899 -4.05105,2.90436 -7.57041,3.42458 -0.16328,0.0241 -0.37068,0.0634 -0.62586,0.0926 -0.2552,0.0292 -0.55222,0.0676 -0.89852,0.10563 0,0 -1.5391,-14.4625 -1.5391,-14.4625 1.76984,-0.52258 2.62072,-0.89173 3.67293,-1.0473 0,0 0,5e-5 0,5e-5 m 69.8536,-16.51191 c 0,0 11.11474,10.59931 11.11474,10.59931 0,0 -11.94645,4.97161 -11.94645,4.97161 0,0 0.83171,-15.57092 0.83171,-15.57092 0,0 0,0 0,0" style="line-height:125%;-inkscape-font-specification:'Times New Roman';text-align:center" font-weight="400" font-size="64" font-family="Times New Roman" text-anchor="middle" fill="#d4aa00"/><g transform="matrix(1.5991648,0.01057247,-0.01018183,1.6605199,-139.623,-403.88827)" fill="#d4aa00" stroke-width=".23"><path d="m 531.54957,522.09003 c 0.58735,0.67748 1.20942,1.32095 1.80627,1.99035 0.32141,0.3579 0.56012,0.81698 0.92724,1.13383 0.0707,0.061 0.15335,0.10639 0.23003,0.15959 0.0715,0.0648 0.14292,0.12966 0.21439,0.19449 0.42039,0.36848 0.91453,0.64628 1.34644,0.99945 0.5151,0.27641 0.99138,0.61947 1.51378,0.88579 0.56901,0.25829 1.12773,0.53579 1.71297,0.76396 0.70429,0.26863 1.44145,0.42323 2.11133,0.77421 0.593,0.37384 1.03103,0.87691 1.40893,1.45856 0.15425,0.36077 0.30404,0.72038 0.45532,1.08307 0,0 -4.26375,0.17098 -4.26375,0.17098 v 0 c -0.14406,-0.33455 -0.26313,-0.68283 -0.44942,-0.99634 -0.37629,-0.50946 -0.78713,-0.9589 -1.37254,-1.23547 -0.69395,-0.28376 -1.42658,-0.46177 -2.1186,-0.75395 -0.58224,-0.25341 -1.15729,-0.51807 -1.72105,-0.81088 -0.51439,-0.30342 -1.03513,-0.60127 -1.52257,-0.94623 -0.46773,-0.32249 -0.921,-0.66137 -1.35174,-1.03247 -0.52236,-0.45026 -0.92609,-0.99912 -1.35187,-1.539 -0.60691,-0.67457 -1.22502,-1.33864 -1.83298,-2.01221 0,0 4.25782,-0.28773 4.25782,-0.28773 z"/><path d="m 544.89809,532.48017 c 0.11076,1.01547 0.20125,2.03254 0.25912,3.05239 0.007,0.14981 0.013,0.29961 0.0195,0.44942 0,0 -4.24037,0.0163 -4.24037,0.0163 v 0 c -0.005,-0.14792 -0.01,-0.29585 -0.0148,-0.44377 -0.0471,-1.00495 -0.11115,-2.01276 -0.2926,-3.00383 0,0 4.26912,-0.0705 4.26912,-0.0705 z"/><path d="m 486.88127,546.14708 c -0.0329,-0.55234 0.10827,-1.09823 0.12489,-1.64668 0.0153,-0.50478 -0.0956,-1.02529 -0.17276,-1.5213 -0.0275,-0.12905 -0.055,-0.2581 -0.0825,-0.38715 0,0 4.24687,-0.0783 4.24687,-0.0783 v 0 c 0.0216,0.13406 0.0432,0.26811 0.0648,0.40216 0.0785,0.53702 0.17835,1.08204 0.16188,1.62741 -0.06,1.98803 -0.0529,-0.73431 -0.0955,1.10272 -0.004,0.16709 0.0105,0.33411 0.0158,0.50117 0,0 -4.26347,0 -4.26347,0 z"/><path d="m 490.54021,541.80088 c 0.17587,-1.12126 0.23995,-2.26281 0.28991,-3.4017 0,0 4.185,0.0266 4.185,0.0266 v 0 c -0.0435,1.15858 -0.13526,2.31215 -0.2554,3.46224 0,0 -4.21951,-0.0871 -4.21951,-0.0871 z"/><path d="m 496.0233,557.20626 c 0.61267,0.57506 1.20236,1.18113 1.83932,1.73003 0.42675,0.49189 0.9864,0.82058 1.45793,1.26374 0.56697,0.36669 1.00177,0.88593 1.5101,1.32039 0.38886,0.37752 0.73711,0.80301 1.15248,1.15175 0.41254,0.40697 0.84694,0.80163 1.22219,1.24488 1.67825,1.8275 0.24971,1.10305 2.94044,-2.34072 0.47689,-0.51838 0.88351,-1.09171 1.32868,-1.63662 0.4744,-0.55102 0.797,-1.21362 1.04148,-1.89389 0.082,-0.78267 -0.3934,-1.27406 -1.03462,-1.62628 -0.45204,-0.26389 -0.98634,-0.18148 -1.46946,-0.2896 -0.27656,-0.0619 -0.53145,-0.19729 -0.79984,-0.28831 0,0 4.20921,-0.53238 4.20921,-0.53238 v 0 c 0.76569,0.23551 1.59886,0.24447 2.28878,0.69213 0.70907,0.54883 1.16737,1.25309 1.05304,2.1846 -0.23485,0.71828 -0.5535,1.44872 -1.04303,2.02865 -0.41269,0.58807 -0.9105,1.11421 -1.33159,1.69943 -0.59145,0.51556 -1.02376,1.21544 -1.42182,1.88389 -0.51622,0.70546 -0.99509,1.43503 -1.50995,2.14265 -1.30672,1.82313 -3.76538,1.57455 -5.62376,0.36336 -0.55353,-0.34353 -1.13757,-0.63569 -1.6737,-1.00728 -0.43779,-0.31963 -0.8562,-0.65057 -1.20949,-1.0665 -0.39828,-0.41119 -0.79101,-0.82982 -1.22245,-1.20682 -0.37953,-0.38458 -0.76017,-0.7681 -1.14435,-1.14804 -0.48168,-0.46326 -0.97484,-0.91136 -1.50622,-1.31756 -0.48993,-0.41631 -1.02219,-0.78342 -1.45252,-1.2671 -0.60692,-0.57835 -1.20629,-1.16587 -1.85126,-1.70249 0,0 4.25041,-0.38189 4.25041,-0.38189 z"/><path d="m 505.15541,529.50479 c -0.0847,1.04654 8.4e-4,2.07812 0.15115,3.11239 0.0993,0.61396 0.4523,1.05819 0.80758,1.53637 0.34422,0.36605 0.73608,0.68625 1.06463,1.06689 0.42715,0.26793 0.8093,0.59789 1.22506,0.88346 0.39107,0.33389 0.72413,0.7313 1.12044,1.05831 0.35063,0.39693 0.76715,0.71117 1.03835,1.17296 0.18908,0.36687 0.6497,0.6513 0.74376,1.06905 0.0291,0.12938 0.011,0.265 0.0165,0.3975 -0.0745,0.97709 -0.22838,1.91068 -0.76199,2.74466 -0.48961,0.68481 -1.2196,1.11182 -1.9452,1.50536 -0.69159,0.31495 -1.32782,0.70529 -1.94879,1.13986 -0.52878,0.42746 -0.99624,0.91852 -1.49552,1.37794 -0.66288,0.4976 -1.33002,0.98696 -1.98794,1.49129 -0.70819,0.53505 -1.38691,1.10575 -2.12511,1.59983 -3.8722,3.05289 -6.47174,1.28745 -4.77856,-0.37151 -0.49282,1.12743 -0.37074,0.34087 -0.6659,1.59429 -0.3112,0.75296 -0.32531,1.58178 -0.56687,2.34842 -0.0467,0.10795 -0.0934,0.2159 -0.14015,0.32385 0,0 -4.25377,-0.18266 -4.25377,-0.18266 v 0 c 0.0469,-0.0966 0.0938,-0.19324 0.14069,-0.28986 0.31339,-0.72882 0.23289,-1.59756 0.58477,-2.32791 0.0572,-0.17892 0.22045,-0.66869 0.25494,-0.85879 0.10773,-0.59389 0.10521,-1.21344 0.31257,-1.79046 0.0264,-0.0906 0.35674,-1.16916 0.37389,-1.17166 4.09918,-0.59569 3.81952,-1.61763 4.48116,0.014 0.54291,1.0343 0.18069,1.00096 0.60889,1.64642 0.77077,-0.43403 0.85253,-0.39609 1.55195,-0.93339 0.66999,-0.45587 1.2561,-1.03533 1.96653,-1.43747 0.49805,-0.48291 1.004,-0.94697 1.50251,-1.42738 0.61176,-0.48226 1.26111,-0.88352 1.96506,-1.21598 0.70507,-0.31179 1.4176,-0.71828 1.92878,-1.30111 0.58771,-0.69213 0.68428,-1.57203 0.73453,-2.45373 -0.0405,-0.48908 -0.53089,-0.82172 -0.75944,-1.23878 -0.30423,-0.39099 -0.68937,-0.71109 -1.03161,-1.06815 -0.3584,-0.35288 -0.72151,-0.70294 -1.11625,-1.01541 -0.40981,-0.32205 -0.86743,-0.58607 -1.23224,-0.96127 -0.36806,-0.35853 -0.73797,-0.71753 -1.06622,-1.11362 -0.3977,-0.52512 -0.68494,-1.0938 -0.78746,-1.75313 -0.13613,-1.05467 -0.1782,-2.10676 -0.17423,-3.17019 0,0 4.26348,0 4.26348,0 v -3.9e-4 z"/><path d="m 515.22213,520.5807 c 0.90769,-0.39477 1.77552,-0.85287 2.72672,-1.14166 2.01296,-0.44378 4.24924,-0.63196 6.16616,0.16154 0.5389,0.28231 0.8375,0.77959 1.22073,1.22279 0.48879,0.68839 0.7007,1.52513 0.94817,2.32056 0.15888,1.09744 0.2825,2.26117 0.0403,3.35408 -0.24497,0.86037 -0.92315,1.45191 -1.61042,1.97446 -0.62987,0.49187 -1.38149,0.77415 -2.10436,1.09645 0,0 -4.22505,-0.47478 -4.22505,-0.47478 v 0 c 0.69312,-0.36305 1.47516,-0.55543 2.10377,-1.03347 0.65462,-0.39574 1.31351,-0.93907 1.59287,-1.66981 0.29971,-0.98727 0.13391,-2.11058 -0.008,-3.11263 -0.26073,-0.74633 -0.48682,-1.53493 -0.99112,-2.16033 -0.66602,-0.36426 -1.39453,0.0189 -1.63392,0.0121 0,0 -4.22603,-0.54928 -4.22603,-0.54928 v -5e-5 z"/><path d="m 511.38511,532.55603 c -0.94503,-0.47425 -1.56746,-1.26643 -1.89554,-2.25745 -0.10967,-0.76953 0.16675,-1.3813 0.79853,-1.81088 2.10226,-0.64575 4.54736,-0.78368 6.64882,-0.088 0.69623,0.19584 1.2671,0.59453 1.70161,1.16568 0.4643,0.47497 0.74893,1.09325 0.9675,1.71289 0.3208,0.96878 0.45946,1.98116 0.65144,2.97994 0.18365,0.90403 0.27512,1.82121 0.32064,2.74135 -0.0918,0.97212 -0.46647,1.83632 -0.89649,2.6964 -0.40961,0.72098 -1.05057,1.19716 -1.7369,1.6298 -0.72699,0.38926 -1.46229,0.77549 -2.2243,1.09246 0,0 -4.21602,-0.51304 -4.21602,-0.51304 v 0 c 0.77143,-0.25932 1.46425,-0.68126 2.21081,-1.0032 0.63017,-0.41441 1.29291,-0.75572 1.72645,-1.40363 0.42306,-0.83735 0.79248,-1.51344 0.88759,-2.4791 -0.0389,-0.89927 -0.11883,-1.79661 -0.29424,-2.68084 -0.18794,-0.9776 -0.42076,-2.51161 -0.77339,-3.4473 -1.15845,-0.95355 -1.18968,1.4131 -0.9933,1.52873 0,0 -2.88321,0.13621 -2.88321,0.13621 z"/><path d="m 529.03483,539.69317 c 0.55284,0.88657 1.01125,1.83915 1.30389,2.84326 0.22108,0.91732 0.38892,1.77187 0.11844,2.69032 -0.24798,0.79283 -0.83276,1.41036 -1.41929,1.97338 -0.65379,0.55566 -1.41413,0.95937 -2.1347,1.41849 -0.82536,0.59129 -1.68668,1.12812 -2.56428,1.63767 -0.79068,0.50422 -1.6667,0.84055 -2.48382,1.29647 -0.79268,0.40607 -1.48081,0.96643 -2.17408,1.51643 -0.54358,0.27977 -0.88091,0.84992 -1.28452,1.3091 0.13917,-0.0275 0.70954,-0.62869 3.02154,-0.47481 0.0779,0.005 0.11664,0.11087 0.14572,0.18331 0.0992,0.24727 0.024,0.55125 -0.018,0.80019 -0.16109,0.86944 -0.18875,1.7554 -0.21503,2.63696 0.0779,0.97241 -0.21958,1.88426 -0.45504,2.81218 -0.16858,0.97367 -0.68959,1.80137 -1.27744,2.5739 -0.57032,0.70473 -1.29737,1.20268 -2.11343,1.57486 -0.5958,0.26158 -1.20321,0.49329 -1.80886,0.73027 0,0 -4.22671,-0.49124 -4.22671,-0.49124 v 0 c 0.58548,-0.28426 1.22275,-0.45651 1.81709,-0.72512 0.78428,-0.34952 1.53577,-0.70095 2.11358,-1.36887 0.5743,-0.71579 1.09504,-1.47737 1.25478,-2.40012 0.2325,-0.90019 0.54386,-1.77325 0.46338,-2.71959 0.0315,-0.89875 -0.0736,-1.29277 0.048,-2.18483 -0.77274,-0.0118 1.05184,0.32844 -2.9678,-0.31566 -0.57053,-0.0777 -1.16159,-0.31543 -0.70249,-0.98937 0.6185,-0.51231 1.38825,-0.79723 1.98369,-1.34323 0.72786,-0.51626 1.36134,-1.1773 2.1806,-1.5644 0.80805,-0.49676 1.68901,-0.81538 2.49752,-1.30529 0.88757,-0.46859 1.73269,-1.02335 2.54849,-1.60764 0.696,-0.46986 1.42667,-0.87139 2.11942,-1.34267 0.54333,-0.51518 1.1484,-1.03316 1.39834,-1.76304 0.0591,-0.16596 0.1698,-0.43815 0.17934,-0.61897 0.032,-0.60657 -0.16333,-1.22606 -0.27034,-1.81451 -0.29929,-0.95363 -0.724,-1.88405 -1.33577,-2.67959 0,0 4.25782,-0.28773 4.25782,-0.28773 v -1.1e-4 z"/><path d="m 512.02692,566.78834 c 0.12616,0.85242 -0.12369,1.70314 -0.256,2.5423 -0.003,0.4171 -0.0107,0.21118 0.0206,0.61778 0,0 -4.26021,0.0283 -4.26021,0.0283 v 0 c -0.0266,-0.46348 -0.0231,-0.22585 -0.007,-0.71292 0.12632,-0.79148 0.39426,-1.60576 0.23364,-2.40496 0,0 4.26912,-0.0705 4.26912,-0.0705 z"/><path d="m 507.27075,570.81057 c -0.18011,0.92673 -0.24871,1.87 -0.2946,2.81142 -0.005,0.15981 -0.0104,0.31962 -0.0156,0.47943 0,0 -4.23475,-0.0151 -4.23475,-0.0151 v 0 c 0.006,-0.16172 0.0125,-0.32344 0.0187,-0.48516 0.0476,-0.95718 0.12614,-1.9113 0.25711,-2.86112 0,0 4.26912,0.0705 4.26912,0.0705 z"/><path d="m 528.90094,534.14146 c 0.043,0.87113 -0.051,1.69146 -0.28992,2.52624 -0.11411,0.41605 -0.0763,0.21792 -0.12455,0.59213 0,0 -3.67431,-0.0502 -3.67431,-0.0502 v 0 c 0.0603,-0.42633 0.0158,-0.20988 0.13833,-0.64833 0.2653,-0.87182 0.36007,-1.49388 0.27159,-2.41981 0,0 3.67886,0 3.67886,0 z"/><path d="m 524.55986,538.05579 c -0.17099,0.71758 -0.22492,1.44888 -0.26514,2.17798 -0.0169,0.43708 -0.0272,0.23037 0.0201,0.62044 0,0 -3.82923,0.0252 -3.82923,0.0252 v 0 c -0.0323,-0.42869 -0.0288,-0.20825 -0.006,-0.66136 0.0483,-0.74015 0.11179,-1.47993 0.23215,-2.21481 0,0 3.84803,0.0525 3.84803,0.0525 z"/><path d="m 530.44054,533.68927 c 1.97927,-0.80645 4.46302,-1.0459 6.46486,-0.38248 0.58328,0.21835 1.09798,0.63039 1.51338,1.0909 0.42222,0.44234 0.87579,0.86176 1.26715,1.33214 0.39666,0.48948 0.76789,0.98177 0.98733,1.57691 0.2101,0.70345 0.21078,1.44121 0.22181,2.16838 -0.028,0.80057 0.0909,1.61674 -0.0809,2.40294 -0.1781,0.6668 -0.51235,1.23634 -0.88146,1.80919 -0.51152,0.73828 -1.15219,1.36991 -1.74466,2.04054 -0.65386,0.82693 -1.29233,1.65134 -2.19944,2.20736 -0.34544,0.1697 -0.70586,0.30454 -1.06503,0.4413 0,0 -4.21892,-0.52605 -4.21892,-0.52605 v 0 c 0.36319,-0.11052 0.69921,-0.26986 1.06522,-0.37184 0.9515,-0.4383 1.58504,-1.21836 2.20639,-2.04419 0.54083,-0.68483 1.18178,-1.28151 1.70305,-1.98365 0.15553,-0.25965 0.39291,-0.50444 0.52955,-0.76965 0.14674,-0.2848 0.18435,-0.63244 0.35026,-0.9116 0.23121,-0.72433 0.0291,-1.5359 0.0901,-2.28614 -0.0159,-0.67544 -0.0199,-1.36669 -0.23612,-2.01417 -0.23455,-0.53406 -0.60735,-0.98889 -0.98358,-1.43074 -0.41456,-0.43934 -0.82012,-0.888 -1.25472,-1.30776 -0.43057,-0.38745 -0.3709,0.34058 -0.95256,0.23458 -0.90116,0.41009 -1.60607,0.0576 -2.7817,-1.27582 l 10e-6,-1.5e-4 z"/></g><g transform="matrix(1.81344,0,0,1.6337552,660.86297,-346.98076)" fill="#d4aa00" stroke-width=".217"><path d="m -195.375,496.625 c -0.3926,-0.0116 -0.80646,0.15021 -1.1875,0.53125 -0.36121,0.42831 -0.73103,0.85929 -1.0625,1.3125 -0.35063,0.47939 -0.12914,0.24836 -0.375,0.5 -0.44155,0.50344 -0.79181,1.07602 -1.125,1.65625 -0.43259,0.79033 -0.48725,1.65582 -0.40625,2.53125 0.0679,0.54588 0.0774,1.07559 0.0937,1.625 -0.0112,0.19345 0.0256,0.39834 0.0312,0.59375 0,0 0,0.0312 0,0.0312 5.7e-4,0.0308 6.6e-4,0.0631 0,0.0937 -0.006,0.005 -0.0257,-0.005 -0.0312,0 -0.002,-0.013 0.005,-0.0239 0,-0.0312 0.009,-0.0236 0.0227,-0.0389 0.0312,-0.0625 -0.014,0.0173 -0.0432,0.0209 -0.0625,0.0312 -0.0199,0.0107 0.0531,-0.0685 0.0312,-0.0625 -0.059,0.0154 -0.10275,0.0645 -0.15625,0.0937 -0.19823,0.10843 -0.41944,0.18735 -0.625,0.28125 -0.59145,0.27912 -1.19405,0.4816 -1.8125,0.6875 -0.45239,0.14495 -0.94417,0.20989 -1.40625,0.3125 -2.0974,0.49702 -1.37865,3.46578 0.71875,2.96875 0.54166,-0.15225 1.1283,-0.1582 1.65625,-0.375 0.72545,-0.24574 1.4298,-0.48593 2.125,-0.8125 0.27464,-0.12952 0.54646,-0.28776 0.8125,-0.4375 0.0424,-0.006 0.0814,0.009 0.125,0 0.51888,-0.1131 1.03137,-0.29209 1.53125,-0.46875 0.58121,-0.23868 1.12116,-0.54066 1.6875,-0.8125 0.53235,-0.29246 1.06537,-0.60643 1.59375,-0.90625 0.54953,-0.33474 1.12003,-0.60384 1.6875,-0.90625 0.59112,-0.36082 1.13951,-0.77761 1.71875,-1.15625 1.92792,-0.96396 0.58417,-3.68271 -1.34375,-2.71875 -0.67803,0.36586 -1.27124,0.86683 -1.9375,1.25 -0.57542,0.2875 -1.13357,0.57838 -1.6875,0.90625 -0.49578,0.28132 -1.00062,0.56951 -1.5,0.84375 -0.0568,0.0235 -0.10079,0.0674 -0.15625,0.0937 -0.0201,-0.45882 -0.0382,-0.91872 -0.0937,-1.375 -0.0263,-0.2631 -0.0814,-0.49903 0.0312,-0.75 0.2141,-0.40859 0.48259,-0.77558 0.78125,-1.125 0.44667,-0.53481 0.8579,-1.10522 1.28125,-1.65625 1.14312,-1.14312 0.20904,-2.65283 -0.96875,-2.6875 z"/><path d="m -189.42866,513.26667 c -1.33692,-0.27512 -2.00536,-0.79906 -2.66755,-1.99484 -0.3283,-0.78173 -0.54788,-1.63421 -0.30408,-2.47494 0.05,-0.17259 0.14084,-0.33066 0.21126,-0.49598 0.54192,-0.95271 1.43704,-1.35274 2.47307,-1.52311 0.78579,-0.13676 1.54115,-0.0117 2.29271,0.21987 0.58669,0.17797 1.06996,0.55128 1.58962,0.85649 0.42357,0.25554 0.77711,0.60064 1.15874,0.90931 0.47848,0.43321 0.79182,0.99633 1.06624,1.57169 0.48361,0.73656 0.60455,1.3457 0.47901,2.23466 -0.11657,0.77172 -0.51206,1.41936 -0.97896,2.02367 -0.43565,0.5409 -0.96805,1.00723 -1.51063,1.4384 -0.50226,0.40179 -1.07114,0.70825 -1.60111,1.07081 -0.51992,0.30744 -1.05663,0.5812 -1.56262,0.91207 -0.51578,0.3798 -0.97747,0.81959 -1.49928,1.1933 -0.279,0.34469 -1.12453,0.54007 -1.36755,0.84959 -0.007,0.11585 -0.38725,0.18942 -0.44039,0.33631 -1.5222,1.52611 -3.68045,-0.62661 -2.15824,-2.15272 v 0 c 0.23204,-0.21822 0.45696,-0.44406 0.73909,-0.59903 0.48273,-0.3495 1.01753,-0.59945 1.5004,-0.94627 0.57183,-0.34066 0.97858,-0.91714 1.56822,-1.23932 0.49454,-0.31846 1.00667,-0.60422 1.52215,-0.88539 0.48304,-0.32037 0.99089,-0.60614 1.44797,-0.96107 0.40014,-0.26976 0.75153,-0.64793 1.0587,-1.01345 -0.0748,0.29457 0.14967,-0.31065 0.20101,-0.30343 0.0427,0.006 -0.0306,0.16879 -0.0161,0.12825 0.0474,-0.13171 0.0541,-0.27549 0.10013,-0.40781 0.0892,0.0967 0.0112,0.006 0.10651,0.32029 0.057,0.18761 -0.001,-0.061 -0.0712,-0.20173 -0.0857,-0.17293 -0.19602,-0.33309 -0.27915,-0.50729 -0.11141,-0.24984 -0.17558,-0.33791 -0.30715,-0.54434 -0.0117,-0.0184 0.0348,0.0263 0.0522,0.0395 -0.008,-0.0111 -0.015,-0.0221 -0.0226,-0.0332 -0.25034,-0.21648 -0.48941,-0.44128 -0.7656,-0.62597 -0.30342,-0.18673 -0.5865,-0.40051 -0.90788,-0.55037 -0.32248,-0.0996 -0.58947,-0.19686 -0.94102,-0.11838 -0.2376,0.0269 -0.22303,0.0434 -0.19024,-0.14752 -0.024,-0.6093 -0.0204,0.0801 0.068,0.23401 0.0189,0.0576 0.0941,0.13831 0.0464,0.17576 -0.0243,0.0191 -0.10928,-0.0264 -0.0926,-4.9e-4 0.0891,0.13829 0.37028,0.139 0.50348,0.20585 2.12616,0.35436 1.62502,3.3612 -0.50114,3.00684 z"/><path d="m -174.33198,519.6772 c 0.3202,0.79713 0.65923,1.64952 0.63228,2.52592 -0.007,0.22061 -0.058,0.43761 -0.087,0.65641 -0.3234,1.13613 -0.94943,1.6897 -1.95647,2.21448 -0.64904,0.27601 -1.31897,0.47601 -2.01326,0.59573 -0.78926,0.10968 -1.53117,0.12239 -2.31791,0.005 -0.63156,-0.21364 -1.28883,-0.31088 -1.92583,-0.49959 -0.46153,-0.21767 -0.94388,-0.32566 -1.44676,-0.38406 -0.38737,0.0893 -0.79799,0.0631 -1.18244,0.16244 -0.37808,0.0844 -0.62569,0.0538 -0.78939,0.28298 -0.0276,0.0211 0.0262,0.0276 0.0187,0.0403 -0.16827,0.28287 -0.31084,0.49368 -0.41227,0.80634 0.0312,5.1e-4 -0.004,0.10116 0.022,0.0864 0.1296,-0.0743 -0.12949,-0.38441 0.11423,-0.15125 0.56757,0.46802 1.08195,0.99875 1.66802,1.44474 0.31816,0.26953 0.65782,0.51254 0.97518,0.78288 0.29024,0.24724 0.14527,0.20498 0.29659,0.24288 0.26733,0.25672 0.48689,0.27402 0.82228,0.38828 -0.17065,0.0346 0.64803,0.16345 0.42963,0.12546 -0.40263,-0.0701 -0.14998,-0.10296 -0.49402,-0.0178 0.0332,-0.0266 0.0806,-0.0417 0.0995,-0.0798 0.0118,-0.0237 -0.0478,0.0258 -0.0742,0.0288 -0.0263,0.003 -0.0115,-0.053 -0.007,-0.0791 0.006,-0.0333 0.0296,-0.13162 0.0187,-0.0996 -0.0272,0.0799 -0.0452,0.16257 -0.0678,0.24386 0.0114,0.11075 0.0228,0.2215 0.0342,0.33225 -0.82282,-1.99226 1.99466,-3.1559 2.81748,-1.16364 v 0 c 0.0649,0.24025 0.12976,0.48049 0.19464,0.72074 -0.0169,0.23845 -0.0126,0.47935 -0.0507,0.71535 -0.12975,0.80403 -0.70214,1.51866 -1.35089,1.96721 -0.21282,0.10428 -0.41698,0.22852 -0.63847,0.31283 -0.63269,0.24082 -1.3314,0.0946 -1.93956,-0.13689 -0.26158,-0.11322 0.26116,0.10924 -0.44879,-0.14117 -0.40034,-0.14121 -0.77038,-0.35448 -1.09838,-0.6231 -0.47367,-0.35511 -0.91729,-0.74781 -1.38621,-1.11028 -0.73099,-0.57344 -1.40789,-1.21212 -2.09033,-1.84194 -0.8077,-0.96262 -1.04802,-1.74475 -0.71806,-2.96886 0.29264,-0.79239 0.69321,-1.5434 1.29252,-2.14846 0.64497,-0.51484 1.34204,-0.85373 2.1705,-0.94962 0.70615,-0.12723 1.42829,-0.21653 2.14653,-0.19767 0.70156,0.0893 1.39663,0.22717 2.04539,0.51998 0.1469,0.11266 0.0139,0.0226 0.40673,0.0974 0.39882,0.0759 0.79507,0.17598 1.17856,0.30934 -0.1394,0.0622 -0.0838,0.0282 0.2099,0.0223 0.25897,-0.005 0.51795,-0.0138 0.77626,-0.0337 0.0676,-0.005 0.13513,-0.0125 0.2027,-0.0187 0.40754,-0.0625 0.79283,-0.18755 1.17889,-0.32983 0.25815,-0.0722 -0.3134,0.0954 0.2659,-0.1487 0.0535,-0.0226 -0.11784,0.16883 -0.06,0.1636 0.11255,-0.0102 0.0445,-0.21366 0.0869,-0.0457 0.18527,-0.045 -0.21462,-1.0917 -0.27495,-1.26144 -0.96396,-1.92792 1.76254,-3.29117 2.7265,-1.36325 z"/><path d="m -180.60325,537.89012 c 0.23305,1.15408 0.0507,1.98487 -0.55867,2.97998 -0.64318,0.87247 -1.57254,1.26334 -2.59613,1.49772 -0.75522,0.14955 -1.52656,0.16163 -2.29349,0.16915 -0.86132,0.0694 -1.69097,-0.16134 -2.52232,-0.34623 -0.54499,-0.10864 -1.10001,-0.14301 -1.65414,-0.16211 -0.29938,0.0136 -0.804,0.0359 -1.06406,0.15381 -0.1277,-0.001 -1.05951,0.37882 -1.0342,0.42013 -0.11237,0.11812 -0.3991,0.18197 -0.47797,0.35513 -0.004,0.01 0.027,0.0524 0.0294,0.0644 -0.0568,0.31279 0.0143,0.61307 0.0583,0.92337 0.0936,0.22413 0.14829,0.46911 0.31777,0.65019 0.21105,0.0911 0.41191,0.31835 0.65024,0.41194 0.27612,0.17954 0.57271,0.25011 0.89454,0.28108 0.33039,9.9e-4 0.67166,0.0721 1.00205,0.0388 0.0429,-0.004 -0.094,0.009 -0.12814,-0.0178 -0.0186,-0.0144 0.0414,-0.0222 0.0621,-0.0332 0.55888,-0.24193 1.15396,-0.35299 1.75565,-0.41763 0.62096,-0.0465 1.24418,-0.0448 1.86648,-0.0454 0.65302,-0.0116 1.29939,-0.01 1.94492,0.0974 0.92317,0.2282 1.41101,0.60201 1.91735,1.4155 0.35722,0.57693 0.46894,1.23661 0.52568,1.90046 0.0211,0.30439 0.0232,0.60958 0.0271,0.91452 0.0266,2.15533 -3.02148,2.19296 -3.04809,0.0376 v 0 c -0.003,-0.23608 -0.004,-0.47234 -0.0175,-0.70813 -0.0127,-0.17936 -0.009,-0.37635 -0.0808,-0.5429 -0.0395,-0.0643 -0.11727,-0.11746 -0.11852,-0.19292 -1.2e-4,-0.007 0.0608,0.10907 0.26915,0.21685 0.0233,0.012 0.0969,0.0364 0.0759,0.0207 -0.0859,-0.064 -0.17531,-0.0423 -0.0694,-0.058 -0.46923,-0.0879 -0.94631,-0.0426 -1.42284,-0.0529 -0.5199,4.8e-4 -1.04032,-9.3e-4 -1.55952,0.0296 -0.35569,0.033 -0.69927,0.0972 -1.02606,0.25072 -0.77156,0.25909 -1.54211,0.26983 -2.34475,0.17246 -0.68164,-0.0907 -1.34696,-0.25282 -1.94419,-0.60902 -0.62085,-0.34316 -1.21392,-0.75498 -1.68061,-1.29515 -0.4358,-0.61589 -0.74582,-1.29362 -0.88694,-2.03941 -0.11138,-0.79389 -0.17315,-1.58869 0.086,-2.36433 0.32403,-0.82704 0.82772,-1.50314 1.6233,-1.93472 0.60685,-0.36845 1.24801,-0.66993 1.94376,-0.83372 0.63968,-0.15477 1.3022,-0.27415 1.96225,-0.25602 0.74059,0.027 1.48177,0.0806 2.2087,0.23312 0.61002,0.13609 1.19832,0.33683 1.83068,0.27344 0.55747,-0.005 1.11862,-0.006 1.66995,-0.0987 0.24633,-0.0492 0.48849,-0.0928 0.70158,-0.19495 0.26039,-0.25898 0.1612,-0.42805 0.0988,-0.80392 -0.35436,-2.12616 2.65248,-2.6273 3.00684,-0.50114 z"/><path d="m -213.25,499.65625 c -0.21857,0.003 -0.43985,0.0501 -0.6875,0.15625 -0.82205,0.3942 -1.5708,0.91205 -2.3125,1.4375 -0.50475,0.3945 -0.96716,0.81745 -1.4375,1.25 -0.67095,0.66366 -1.03409,1.1991 -1.3125,2.125 -0.002,0.01 0.002,0.0213 0,0.0312 -0.39258,-0.0773 -0.78905,-0.11428 -1.1875,-0.15625 -0.71099,-0.0624 -1.4431,-0.0595 -2.15625,-0.0625 -0.66901,0.0437 -1.33205,0.1314 -2,0.1875 -1.02733,0.10294 -1.65608,0.52709 -2.34375,1.28125 -0.38753,0.54469 -0.20687,0.22437 -0.53125,0.875 -0.88639,1.9648 1.89487,3.24605 2.78125,1.28125 0.002,-0.0894 0.008,-0.05 0.0625,-0.15625 0.04,-0.054 0.1624,-0.14508 0.1875,-0.1875 0.0531,-0.0143 0.004,0.005 0.125,-0.0312 0.57808,-0.05 1.1442,-0.13805 1.71875,-0.21875 0.61368,0.002 1.23164,0.0126 1.84375,0.0625 0.43704,0.0422 0.85661,0.1081 1.28125,0.21875 0.0354,0.38547 0.10132,0.77243 0.15625,1.15625 0.005,0.0454 -0.006,0.0797 0,0.125 -0.0736,0.0618 -0.21888,0.86933 -0.25,1.03125 0.0123,-0.0121 -0.004,0.0145 0,0.0312 -0.22908,0.25117 -0.45452,1.03046 -0.53125,1.34375 -0.17175,0.64061 -0.074,1.2987 0.0312,1.9375 0.11765,0.65065 0.39436,1.2315 0.75,1.78125 0.35192,0.49886 0.77115,0.90671 1.25,1.28125 1.81123,1.16857 3.46749,-1.39393 1.65625,-2.5625 -0.13307,-0.1243 -0.28684,-0.24603 -0.34375,-0.375 -0.12916,-0.1996 -0.2551,-0.3593 -0.3125,-0.625 -0.0602,-0.36214 -0.1178,-0.45201 -0.0625,-0.75 0.0965,-0.51261 0.45277,-0.92446 0.5625,-1.4375 0.1458,-0.74143 0.42175,-1.45201 0.28125,-2.21875 -0.0729,-0.50561 -0.19935,-1.01704 -0.15625,-1.53125 0.007,-0.49495 0.029,-0.98139 0.125,-1.46875 0.0108,-0.0515 0.0305,-0.10365 0.0312,-0.15625 2e-4,-0.0106 -0.0342,-0.0206 -0.0312,-0.0312 0.0548,-0.22765 0.3605,-0.32047 0.4375,-0.53125 0.37346,-0.34933 0.72626,-0.71093 1.125,-1.03125 0.56119,-0.40417 1.13779,-0.77019 1.75,-1.09375 1.73355,-0.74295 1.03,-2.98967 -0.5,-2.96875 z"/><path d="m -203.72931,521.48797 c -0.003,-0.53678 0.15356,-1.06683 0.16096,-1.60209 1.8e-4,-0.0134 -0.0267,-0.0126 -0.0312,-0.0252 -0.0201,-0.0571 -0.0268,-0.11804 -0.0401,-0.17706 -0.0692,-0.5336 -0.1742,-0.64824 -0.4953,-1.03422 -0.41038,-0.49759 -0.91765,-0.94545 -1.46602,-1.28998 -0.21912,-0.0848 -0.60609,-0.30551 -0.84758,-0.19653 -0.38287,0.0294 -0.75347,0.11425 -1.09475,0.29435 -0.51062,0.27467 -1.02687,0.53766 -1.55875,0.77226 -0.49106,0.16267 -0.89599,0.43481 -1.31422,0.72283 -0.54042,0.41958 -1.10147,0.80743 -1.6665,1.19335 0.0229,0.12394 -0.57148,0.22768 -0.63126,0.3952 -0.01,0.027 0.0557,-0.0159 0.08,-0.0309 -0.0631,0.0947 -0.12611,0.18934 -0.18916,0.28401 -0.20775,0.25845 -0.201,0.49763 -0.18718,0.80197 -0.008,0.45094 0.13341,0.85521 0.32939,1.2495 0.16133,0.28532 0.50107,0.40637 0.77417,0.57359 0.4753,0.26202 0.9675,0.4967 1.48734,0.65489 0.95415,0.27086 1.55657,0.94533 1.98244,1.80289 0.22451,0.60349 0.12483,0.24417 0.22459,1.09588 -0.01,2.15547 -3.05779,2.14203 -3.04829,-0.0134 v 0 c 0.094,0.32704 0.11071,0.40012 0.0654,0.2152 -0.02,-0.0579 -0.13306,-0.14754 -0.0752,-0.1676 0.0174,-0.006 0.40666,0.23195 -0.0728,-0.028 -0.74999,-0.24434 -1.47395,-0.56269 -2.15611,-0.96067 -0.7734,-0.47432 -1.51833,-0.97896 -1.9183,-1.83031 -0.38882,-0.7996 -0.63354,-1.64344 -0.64046,-2.5398 -0.004,-0.92256 0.1622,-1.79561 0.70928,-2.56078 0.44974,-0.64726 0.8078,-1.13423 1.55579,-1.46487 0.56271,-0.37937 1.11413,-0.76914 1.65229,-1.18367 0.58204,-0.39738 1.16937,-0.76426 1.83457,-1.00961 0.50818,-0.20629 0.97707,-0.48471 1.46582,-0.73045 0.72813,-0.32832 1.48867,-0.55154 2.29263,-0.58249 0.9354,0.004 1.82492,0.19334 2.62824,0.70056 0.79403,0.53802 1.55386,1.16925 2.15648,1.91782 0.56406,0.71003 1.00282,1.46934 1.11914,2.38508 0.13816,0.79657 0.0982,1.57309 -0.037,2.36831 0,2.15549 -3.04832,2.15549 -3.04832,0 z"/><path d="m -194.78125,522.03125 c -0.85738,-0.0108 -1.73058,0.67903 -1.53125,1.875 0.1049,0.6957 0.11955,1.39793 0.21875,2.09375 0.0793,0.63942 0.3164,1.22356 0.5625,1.8125 0.16483,0.31929 0.33959,0.64785 0.5,0.96875 -0.0167,0.0142 -0.01,0.0106 -0.0312,0.0312 -0.0482,0.0524 -0.10535,0.10538 -0.15625,0.15625 -0.19322,-0.20321 -0.41025,-0.37973 -0.625,-0.5625 -0.41398,-0.41512 -0.85435,-0.83224 -1.34375,-1.15625 -0.55548,-0.39107 -1.13433,-0.72014 -1.78125,-0.9375 -0.74917,-0.23406 -1.53415,-0.3968 -2.3125,-0.5 -2.13382,-0.30483 -2.54007,2.72642 -0.40625,3.03125 0.6152,0.0797 1.22124,0.18832 1.8125,0.375 0.33595,0.12586 0.61824,0.31762 0.90625,0.53125 0.3492,0.22418 0.67946,0.48398 0.96875,0.78125 0.0478,0.0455 0.10741,0.0805 0.15625,0.125 -0.58459,0.33835 -1.0561,0.8194 -1.59375,1.21875 -0.51159,0.41562 -1.02065,0.83401 -1.53125,1.25 -0.55119,0.32612 -1.07103,0.71631 -1.5625,1.125 -0.54136,0.59386 -1.12617,1.17826 -1.65625,1.78125 -1.40518,1.6345 0.90732,3.60326 2.3125,1.96875 0.40008,-0.49013 0.92926,-0.89934 1.3125,-1.40625 0.48613,-0.40431 0.96759,-0.75053 1.5,-1.09375 0.49147,-0.40473 1.00702,-0.81557 1.5,-1.21875 0.46599,-0.37319 0.88727,-0.79161 1.40625,-1.09375 0.039,-0.0246 0.0861,-0.0377 0.125,-0.0625 0.0833,0.13469 0.16659,0.27184 0.25,0.40625 0.3649,0.54543 0.72122,1.08517 1.09375,1.625 0.26549,0.38999 0.60938,0.70039 0.90625,1.0625 0.168,0.16556 0.32963,0.33703 0.5,0.5 1.58438,1.46146 3.64688,-0.78855 2.0625,-2.25 -0.1067,-0.0779 -0.17027,-0.20935 -0.28125,-0.28125 -0.23669,-0.26039 -0.47048,-0.50362 -0.6875,-0.78125 -0.3462,-0.49236 -0.69242,-1.00197 -1.03125,-1.5 -0.0851,-0.13676 -0.16521,-0.26909 -0.25,-0.40625 0.20984,-0.17392 0.38013,-0.35781 0.5625,-0.5625 0.84452,-0.89134 1.29095,-1.80219 0.84375,-3.03125 -0.20963,-0.43062 -0.42492,-0.86287 -0.65625,-1.28125 -0.15281,-0.35757 -0.30425,-0.69645 -0.34375,-1.09375 -0.13342,-0.69776 -0.102,-1.42673 -0.25,-2.125 -0.15503,-0.9302 -0.8019,-1.36664 -1.46875,-1.375 z"/></g><path d="m 452.6778,194.94975 c -12.49315,5.06441 -16.61111,30.8689 -27.06649,36.13329 -11.7819,11.57251 -25.37867,7.63855 -34.42338,21.92808 -0.72768,3.13406 -7.81919,10.57219 -8.37312,14.65352 4.58475,-3.99119 7.99412,-6.99383 10.97162,-9.61895 9.0914,-12.41724 20.44713,-10.60618 31.28651,-21.18197 7.36548,-4.65691 18.83109,-23.17524 22.72454,-30.94983 -0.19332,-2.00069 4.60092,-7.25745 4.88032,-10.96414 z" fill="#806600"/><path d="m 374.31334,270.19528 c -3.36763,1.78906 -2.17786,8.39661 -4.14433,11.51313 -1.46156,10.02614 4.9255,14.83166 3.74766,24.84072 -2.16901,-3.15409 -3.17097,10.3947 -5.20759,12.71351 -0.8001,4.54928 -3.07581,12.14769 -0.1916,16.29392 4.50633,0.88983 -0.68226,-9.59445 1.68165,-11.97005 3.79301,-9.91975 7.64502,-20.49011 5.23626,-31.09034 -1.45866,-7.4669 0.4513,-10.64208 -1.90624,-17.50661 -0.46107,-0.16441 1.29118,-4.97816 0.78419,-4.79428 z" fill="#806600"/><path d="m 587.31722,229.47395 c -4.0418,2.1998 0.76344,9.15186 -0.65454,12.85691 1.66935,7.2351 -0.50961,14.39671 -7.38687,17.85941 -4.09776,-0.59897 -7.13789,6.86446 -2.01036,5.47003 8.82238,-3.95929 15.92129,-12.67539 13.10491,-22.86156 -1.40848,-3.16315 1.79604,-13.14331 -3.05314,-13.32479 z" fill="#806600"/><path d="m 532.34099,263.81601 c -1.80408,4.41153 5.91786,14.19883 6.07323,17.88036 1.32629,5.40332 3.96122,11.38599 -0.18701,14.91401 -1.46704,5.49449 -9.45561,8.65602 -9.02321,14.49324 3.94587,3.12481 5.83736,-6.33691 8.9297,-7.66739 8.70916,-8.35428 6.42175,-22.2309 -0.86017,-30.86509 -0.52404,-0.72718 -3.89104,-8.9764 -4.93254,-8.75513 z" fill="#806600"/><path d="m 461.46122,240.99311 c -2.69486,1.58258 -3.46612,-0.27059 -7.62521,2.06169 4.91881,2.38132 10.17768,-2.05723 14.07704,4.48365 7.23427,6.14114 9.25873,20.60686 19.01618,23.62345 14.93132,9.1575 13.66171,25.12831 23.34149,37.90269 0.6292,3.26837 6.70082,4.81403 5.32977,0.46752 -11.96869,-12.24335 -8.91923,-33.10229 -23.60996,-43.61997 -5.28073,-3.49194 -11.75753,-5.85261 -14.07247,-12.43614 -4.29418,-4.83782 -8.81774,-13.31604 -16.45684,-12.48289 z" fill="#806600"/><path d="m 496.83357,317.53461 c -4.08695,2.65211 1.51098,2.36922 1.69972,5.67825 4.40933,9.1239 -3.60348,20.45074 1.83395,33.34795 1.90093,-6.32783 4.21092,-11.48149 4.19711,-13.99246 0.44332,-10.47228 -0.39795,-22.34134 -8.78945,-29.64101 -0.30219,0.007 -0.62386,-0.0248 -0.84154,0.0467 z" fill="#806600"/><path d="m 476.8405,218.19427 c 7.33731,10.00899 34.02548,8.37536 41.19777,16.54209 13.75388,8.05008 12.24096,20.87378 28.23523,25.94887 3.28225,0.003 12.03599,4.75148 16.23958,4.40704 -4.83718,-3.23724 -8.46911,-5.63748 -11.64386,-7.7331 -14.1199,-5.49902 -14.33907,-15.90775 -26.92133,-23.32835 -6.00624,-5.55936 -26.68785,-11.91029 -35.20529,-13.76315 -1.97711,0.57979 -8.12457,-2.58397 -11.9021,-2.0734 z" fill="#806600"/></g></svg>