<?xml version="1.0" encoding="UTF-8" standalone="no"?>
<svg
   xmlns:dc="http://purl.org/dc/elements/1.1/"
   xmlns:cc="http://creativecommons.org/ns#"
   xmlns:rdf="http://www.w3.org/1999/02/22-rdf-syntax-ns#"
   xmlns:svg="http://www.w3.org/2000/svg"
   xmlns="http://www.w3.org/2000/svg"
   xmlns:xlink="http://www.w3.org/1999/xlink"
   xmlns:sodipodi="http://sodipodi.sourceforge.net/DTD/sodipodi-0.dtd"
   xmlns:inkscape="http://www.inkscape.org/namespaces/inkscape"
   inkscape:version="1.0.2 (e86c870879, 2021-01-15, custom)"
   sodipodi:docname="svg.svg"
   id="svg8"
   version="1.1"
   viewBox="0 0 211.66668 264.58333"
   height="1000"
   width="800.00006">
  <defs
     id="defs2" />
  <sodipodi:namedview
     inkscape:snap-smooth-nodes="true"
     inkscape:snap-center="true"
     inkscape:object-nodes="true"
     inkscape:showpageshadow="false"
     inkscape:window-maximized="1"
     inkscape:window-y="-4"
     inkscape:window-x="-8"
     inkscape:window-height="1017"
     inkscape:window-width="1920"
     units="px"
     showgrid="false"
     inkscape:document-rotation="0"
     inkscape:current-layer="layer2"
     inkscape:document-units="px"
     inkscape:cy="356.80675"
     inkscape:cx="409.49163"
     inkscape:zoom="0.64593754"
     inkscape:pageshadow="2"
     inkscape:pageopacity="0.0"
     borderopacity="1.0"
     bordercolor="#666666"
     pagecolor="#ffffff"
     id="base"
     inkscape:snap-others="true"
     inkscape:lockguides="true"
     inkscape:snap-global="true" />
  <metadata
     id="metadata5">
    <rdf:RDF>
      <cc:Work
         rdf:about="">
        <dc:format>image/svg+xml</dc:format>
        <dc:type
           rdf:resource="http://purl.org/dc/dcmitype/StillImage" />
        <dc:title />
      </cc:Work>
    </rdf:RDF>
  </metadata>
  <g
     transform="translate(-245.38773,-64.418794)"
     inkscape:label="Шар 2"
     id="layer2"
     inkscape:groupmode="layer"
     style="display:inline;opacity:1;mix-blend-mode:normal">
    <g
       style="display:inline;opacity:1;mix-blend-mode:normal;stroke:#000000;stroke-width:0.259019;stroke-miterlimit:4;stroke-dasharray:none"
       transform="matrix(2.0378675,0,0,2.0378675,236.917,-70.285518)"
       id="g1376">
      <path
         style="font-variation-settings:normal;opacity:1;mix-blend-mode:normal;vector-effect:none;fill:#c8102e;fill-opacity:1;fill-rule:evenodd;stroke:#000000;stroke-width:0.259084;stroke-linecap:butt;stroke-linejoin:miter;stroke-miterlimit:4;stroke-dasharray:none;stroke-dashoffset:0;stroke-opacity:1;marker:none;marker-start:none;marker-mid:none;marker-end:none;stop-color:#c8102e;stop-opacity:1"
         d="m 107.89387,66.230165 v 77.989105 c 0,20.09414 -16.462809,51.58524 -51.803828,51.58524 -35.341019,0 -51.8038372,-31.4911 -51.8038372,-51.58524 V 66.230165 Z"
         id="path1292"
         sodipodi:nodetypes="cszscc" />
      <g
         id="g1316"
         style="mix-blend-mode:normal;stroke:#000000;stroke-width:0.259019;stroke-miterlimit:4;stroke-dasharray:none">
        <use
           style="stroke:#000000;stroke-width:0.259019;stroke-miterlimit:4;stroke-dasharray:none"
           height="100%"
           width="100%"
           transform="translate(25.60625)"
           id="use1294"
           xlink:href="#g1300"
           y="0"
           x="0" />
        <g
           transform="translate(-0.08181655)"
           style="stroke:#000000;stroke-width:0.259019;stroke-miterlimit:4;stroke-dasharray:none"
           id="g1300">
          <path
             sodipodi:nodetypes="ccccccccccc"
             d="m 12.721867,71.48129 c 1.187268,0.815586 2.936737,1.235022 2.936737,1.235022 0,0 1.749469,-0.419436 2.936737,-1.235022 -0.408783,1.381189 -0.267074,3.174645 -0.267074,3.174645 0,0 0.939522,1.534231 2.082077,2.41136 -1.43991,0.03803 -3.101798,0.727016 -3.101798,0.727016 0,0 -1.168812,1.367643 -1.649942,2.725325 -0.48113,-1.357682 -1.649942,-2.725325 -1.649942,-2.725325 0,0 -1.661888,-0.688981 -3.101798,-0.727016 1.142555,-0.877129 2.082077,-2.41136 2.082077,-2.41136 0,0 0.14171,-1.793456 -0.267074,-3.174645 z"
             style="font-variation-settings:normal;vector-effect:none;fill:#ffffff;fill-opacity:1;fill-rule:evenodd;stroke:#000000;stroke-width:0.259019;stroke-linecap:butt;stroke-linejoin:miter;stroke-miterlimit:4;stroke-dasharray:none;stroke-dashoffset:0;stroke-opacity:1;marker:none;marker-start:none;marker-mid:none;marker-end:none;stop-color:#c8102e"
             id="path1296" />
          <path
             transform="scale(0.26458333)"
             d="m 59.128906,270.58984 a 5.615987,5.615987 0 0 0 -5.5625,5.61719 5.615987,5.615987 0 0 0 0.38086,2.03125 5.616032,5.616032 0 0 0 -1.814454,-0.99023 5.616032,5.616032 0 0 0 -7.076171,3.60547 5.616032,5.616032 0 0 0 3.605468,7.07617 5.616032,5.616032 0 0 0 2.048829,0.26562 5.6159349,5.6159349 0 0 0 -1.501954,1.41797 5.6159349,5.6159349 0 0 0 1.242188,7.8457 5.6159349,5.6159349 0 0 0 7.845703,-1.24218 5.6159349,5.6159349 0 0 0 0.884766,-1.86914 5.6159349,5.6159349 0 0 0 0.886718,1.86914 5.6159349,5.6159349 0 0 0 7.84375,1.24218 5.6159349,5.6159349 0 0 0 1.242188,-7.8457 5.6159349,5.6159349 0 0 0 -1.501953,-1.41992 5.616032,5.616032 0 0 0 2.048828,-0.26367 5.616032,5.616032 0 0 0 3.607422,-7.07617 5.616032,5.616032 0 0 0 -7.078125,-3.60547 5.616032,5.616032 0 0 0 -1.8125,0.98828 5.615987,5.615987 0 0 0 0.380859,-2.0293 5.615987,5.615987 0 0 0 -5.617187,-5.61719 5.615987,5.615987 0 0 0 -0.05273,0 z m 0.02344,9.51563 a 5.3366543,5.3366543 0 0 1 0.0293,0 5.3366543,5.3366543 0 0 1 5.33789,5.33789 5.3366543,5.3366543 0 0 1 -5.33789,5.33594 5.3366543,5.3366543 0 0 1 -5.335938,-5.33594 5.3366543,5.3366543 0 0 1 5.306641,-5.33789 z"
             style="font-variation-settings:normal;opacity:1;vector-effect:none;fill:#ffffff;fill-opacity:1;fill-rule:evenodd;stroke:#000000;stroke-width:0.978971;stroke-linecap:butt;stroke-linejoin:miter;stroke-miterlimit:4;stroke-dasharray:none;stroke-dashoffset:0;stroke-opacity:1;marker:none;marker-start:none;marker-mid:none;marker-end:none;stop-color:#c8102e;stop-opacity:1"
             id="path1298" />
        </g>
        <use
           style="stroke:#000000;stroke-width:0.259019;stroke-miterlimit:4;stroke-dasharray:none"
           x="0"
           y="0"
           xlink:href="#g1300"
           id="use1302"
           transform="translate(81.026498)"
           width="100%"
           height="100%" />
        <use
           height="100%"
           width="100%"
           transform="translate(70.670944,24.883889)"
           id="use1304"
           xlink:href="#g1300"
           y="0"
           x="0"
           style="stroke:#000000;stroke-width:0.259019;stroke-miterlimit:4;stroke-dasharray:none" />
        <use
           height="100%"
           width="100%"
           transform="translate(0,32.455487)"
           id="use1306"
           xlink:href="#g1300"
           y="0"
           x="0"
           style="stroke:#000000;stroke-width:0.259019;stroke-miterlimit:4;stroke-dasharray:none" />
        <use
           x="0"
           y="0"
           xlink:href="#g1300"
           id="use1308"
           transform="translate(0,65.575224)"
           width="100%"
           height="100%"
           style="stroke:#000000;stroke-width:0.259019;stroke-miterlimit:4;stroke-dasharray:none" />
        <use
           height="100%"
           width="100%"
           transform="translate(25.60625,65.575224)"
           id="use1310"
           xlink:href="#g1300"
           y="0"
           x="0"
           style="stroke:#000000;stroke-width:0.259019;stroke-miterlimit:4;stroke-dasharray:none" />
        <use
           x="0"
           y="0"
           xlink:href="#g1300"
           id="use1312"
           transform="translate(81.026498,65.575224)"
           width="100%"
           height="100%"
           style="stroke:#000000;stroke-width:0.259019;stroke-miterlimit:4;stroke-dasharray:none" />
        <use
           x="0"
           y="0"
           xlink:href="#g1300"
           id="use1314"
           transform="translate(40.513249,91.260981)"
           width="100%"
           height="100%"
           style="stroke:#000000;stroke-width:0.259019;stroke-miterlimit:4;stroke-dasharray:none" />
      </g>
      <g
         style="stroke:#000000;stroke-width:0.259019;stroke-miterlimit:4;stroke-dasharray:none"
         id="g1374">
        <g
           style="stroke:#000000;stroke-width:0.259019;stroke-miterlimit:4;stroke-dasharray:none"
           id="g1334">
          <path
             id="path1318"
             style="color:#000000;overflow:visible;opacity:1;mix-blend-mode:normal;fill:#ffc72c;fill-opacity:1;fill-rule:evenodd;stroke:#000000;stroke-width:0.259019;stroke-linecap:round;stroke-linejoin:miter;stroke-miterlimit:4;stroke-dasharray:none;stroke-opacity:1"
             d="m 17.386629,84.040265 1.044472,-1.044473 c 0.626519,-0.626518 1.635283,-0.626518 2.261802,1e-6 l 1.044472,1.044472 c 0.626519,0.626519 0.626519,1.635283 0,2.261802 l -1.044472,1.044472 c -0.626519,0.626519 -1.635283,0.626519 -2.261802,10e-7 l -1.044472,-1.044473 c -0.62652,-0.626519 -0.62652,-1.635283 0,-2.261802 z" />
          <path
             id="path1320"
             style="font-variation-settings:normal;opacity:1;mix-blend-mode:normal;vector-effect:none;fill:#ffffff;fill-opacity:1;fill-rule:evenodd;stroke:#000000;stroke-width:0.978971;stroke-linecap:butt;stroke-linejoin:miter;stroke-miterlimit:4;stroke-dasharray:none;stroke-dashoffset:0;stroke-opacity:1;marker:none;marker-start:none;marker-mid:none;marker-end:none;stop-color:#c8102e;stop-opacity:1"
             d="m 163.45216,420.43262 -45.97549,-22.66092 -9.05732,-46.43674 -1.94137,-2.76855 c 11.03829,-5.83219 14.21343,-16.53054 14.21343,-16.53054 l -0.28907,-21.57493 c -6.38179,-4.25453 -12.32226,-9.58985 -12.32226,-9.58985 -0.4814,0.98175 -0.77958,1.92703 -0.95117,2.83399 l -0.0449,0.17383 c 0.0106,-0.0634 0.0135,-0.1237 0.0254,-0.1875 0,0 -3.90626,2.40346 -3.90626,4.20898 v 1.47852 c 0,-1.80553 -3.904292,-4.20899 -3.904292,-4.20899 0,0 -3.904297,2.40346 -3.904297,4.20899 v 1.47851 c 0,-1.80552 -3.904297,-4.20898 -3.904297,-4.20898 0,0 -3.904297,2.40346 -3.904296,4.20898 v 1.47852 c 0,-1.80552 -3.904297,-4.20899 -3.904297,-4.20899 0,0 -3.90625,2.40347 -3.90625,4.20899 v 25.03515 c 0,0 1.096953,-0.53808 2.46875,-1.54492 0.245094,2.50106 1.498901,8.81376 8.03125,12.93945 l -2.503614,2.77005 1.307634,56.692 52.136659,40.39343 28.31736,-12.69885 z"
             transform="scale(0.26458333)"
             sodipodi:nodetypes="ccccccccsccsccsccscccccccccc" />
          <path
             id="path1322"
             style="font-variation-settings:normal;opacity:1;mix-blend-mode:normal;vector-effect:none;fill:none;fill-opacity:1;fill-rule:evenodd;stroke:#000000;stroke-width:0.978971;stroke-linecap:square;stroke-linejoin:miter;stroke-miterlimit:4;stroke-dasharray:none;stroke-dashoffset:0;stroke-opacity:1;marker:none;marker-start:none;marker-mid:none;marker-end:none;stop-color:#c8102e;stop-opacity:1"
             transform="scale(0.26458333)"
             d="m 103.20315,309.37891 -3e-5,23.99218 c 4.0529,-3.64199 6.856,-4.51438 6.856,-4.51438 0,0 -1.10936,-6.79479 0.63229,-15.06765 0,0 -4.69439,-4.16012 -3.58203,-10.09765 m -11.714819,7.16601 1.04e-4,26.51294 c 0,0 7.809255,-3.83721 7.809255,-10.15966 m -15.617952,-14.87476 -5.63e-4,25.03442 c 0,0 7.80926,-3.83721 7.80926,-10.15966 m -13.150494,8.61547 c 2.266153,-1.70061 5.341234,-4.7603 5.341234,-8.61547"
             sodipodi:nodetypes="ccccccccccccc" />
          <path
             sodipodi:nodetypes="csscsscc"
             id="path1324"
             d="m 33.330193,88.746077 c 0,0 3.876156,-0.896315 5.936576,-0.923646 l 48.214692,-0.639566 c 0.831693,-0.01103 3.136046,-1.118419 4.965892,-2.141208 -1.829846,-1.02279 -4.134199,-1.871158 -4.965892,-1.88219 L 39.266769,82.519901 c -2.06042,-0.02733 -5.936576,-0.923646 -5.936576,-0.923646 z"
             style="font-variation-settings:normal;opacity:1;vector-effect:none;fill:#ffffff;fill-opacity:1;fill-rule:evenodd;stroke:#000000;stroke-width:0.259019;stroke-linecap:butt;stroke-linejoin:miter;stroke-miterlimit:4;stroke-dasharray:none;stroke-dashoffset:0;stroke-opacity:1;marker:none;marker-start:none;marker-mid:none;marker-end:none;stop-color:#c8102e;stop-opacity:1" />
          <path
             style="font-variation-settings:normal;opacity:1;mix-blend-mode:normal;vector-effect:none;fill:#ffc72c;fill-opacity:1;fill-rule:evenodd;stroke:#000000;stroke-width:0.259019;stroke-linecap:butt;stroke-linejoin:miter;stroke-miterlimit:4;stroke-dasharray:none;stroke-dashoffset:0;stroke-opacity:1;marker:none;marker-start:none;marker-mid:none;marker-end:none;stop-color:#c8102e;stop-opacity:1"
             d="m 31.258504,76.537283 c 0,0 0.537577,-0.226123 1.890931,-0.226123 1.353354,0 1.890931,0.226123 1.890931,0.226123 -1.151993,5.426953 -0.0044,8.504374 -0.0044,8.504374 0,0 -1.147593,2.818401 0.0044,8.245355 0,0 -0.537577,0.226122 -1.890931,0.226122 -1.353354,0 -1.890931,-0.226122 -1.890931,-0.226122 1.151993,-5.426954 0.0044,-8.245355 0.0044,-8.245355 0,0 1.147593,-3.077421 -0.0044,-8.504374 z"
             id="path1326"
             sodipodi:nodetypes="czccczccc" />
          <path
             id="path1328"
             style="color:#000000;overflow:visible;opacity:1;mix-blend-mode:normal;fill:#ffc72c;fill-opacity:1;fill-rule:evenodd;stroke:#000000;stroke-width:0.259019;stroke-linecap:round;stroke-linejoin:miter;stroke-miterlimit:4;stroke-dasharray:none;stroke-opacity:1"
             d="m 23.274462,91.998497 h 5.830124 c 0.469926,0 0.848242,0.378316 0.848242,0.848242 v 0.692484 c 0,0.469927 -0.378316,0.848243 -0.848242,0.848243 h -5.830124 c -0.469926,0 -0.848242,-0.378316 -0.848242,-0.848243 v -0.692484 c 0,-0.469926 0.378316,-0.848242 0.848242,-0.848242 z" />
          <path
             style="font-variation-settings:normal;opacity:1;mix-blend-mode:normal;vector-effect:none;fill:#ffc72c;fill-opacity:1;fill-rule:evenodd;stroke:#000000;stroke-width:0.259019;stroke-linecap:butt;stroke-linejoin:miter;stroke-miterlimit:4;stroke-dasharray:none;stroke-dashoffset:0;stroke-opacity:1;marker:none;marker-start:none;marker-mid:none;marker-end:none;stop-color:#c8102e;stop-opacity:1"
             d="m 30.69525,107.65098 c 3.801706,0.42241 4.377721,-2.07365 4.377721,-2.07365 -1.974722,-0.32536 -3.228395,-2.01255 -3.417696,-3.99372 -2.18886,0.65282 -2.726475,3.5713 -2.726475,3.5713 h -6.336174 l 0.652818,5.10734 4.72333,2.22726 c 0.787143,-1.63845 1.671615,-3.39209 2.726476,-4.83853 z"
             id="path1330"
             sodipodi:nodetypes="cccccccc" />
          <path
             sodipodi:nodetypes="cccc"
             id="path1332"
             d="m 27.388672,88.306641 -0.166016,-0.205079 c -1.340237,1.251031 -1.506836,2.333008 -1.506836,2.333008 0,0 0.701998,-1.234513 1.672852,-2.127929 z"
             style="color:#000000;font-style:normal;font-variant:normal;font-weight:normal;font-stretch:normal;font-size:medium;line-height:normal;font-family:sans-serif;font-variant-ligatures:normal;font-variant-position:normal;font-variant-caps:normal;font-variant-numeric:normal;font-variant-alternates:normal;font-variant-east-asian:normal;font-feature-settings:normal;font-variation-settings:normal;text-indent:0;text-align:start;text-decoration:none;text-decoration-line:none;text-decoration-style:solid;text-decoration-color:#000000;letter-spacing:normal;word-spacing:normal;text-transform:none;writing-mode:lr-tb;direction:ltr;text-orientation:mixed;dominant-baseline:auto;baseline-shift:baseline;text-anchor:start;white-space:normal;shape-padding:0;shape-margin:0;inline-size:0;clip-rule:nonzero;display:inline;overflow:visible;visibility:visible;opacity:1;isolation:auto;mix-blend-mode:normal;color-interpolation:sRGB;color-interpolation-filters:linearRGB;solid-color:#000000;solid-opacity:1;vector-effect:none;fill:#000000;fill-opacity:1;fill-rule:evenodd;stroke:none;stroke-width:0.259019;stroke-linecap:butt;stroke-linejoin:miter;stroke-miterlimit:4;stroke-dasharray:none;stroke-dashoffset:0;stroke-opacity:1;marker:none;color-rendering:auto;image-rendering:auto;shape-rendering:auto;text-rendering:auto;enable-background:accumulate;stop-color:#c8102e;stop-opacity:1" />
        </g>
        <g
           style="stroke:#000000;stroke-width:0.259019;stroke-miterlimit:4;stroke-dasharray:none"
           id="g1344">
          <path
             style="font-variation-settings:normal;opacity:1;vector-effect:none;fill:#ffc72c;fill-opacity:1;fill-rule:evenodd;stroke:#000000;stroke-width:0.259019;stroke-linecap:butt;stroke-linejoin:miter;stroke-miterlimit:4;stroke-dasharray:none;stroke-dashoffset:0;stroke-opacity:1;marker:none;marker-start:none;marker-mid:none;marker-end:none;stop-color:#c8102e;stop-opacity:1"
             d="m 31.534441,174.7428 c 0,0 -7.494408,-4.72474 -9.395164,-5.64796 -1.900755,-0.92322 -2.715365,-1.03184 -3.964433,-0.27153 -1.249068,0.7603 -0.325844,1.79214 -0.325844,1.79214 -0.923224,0.10861 -1.900755,-0.38016 -2.280906,-1.4663 -0.380151,-1.08615 1.086146,-2.11799 1.086146,-2.11799 -0.81461,-0.97753 -0.380152,-2.49814 1.900755,-3.04121 2.280907,-0.54307 3.529975,-1.5206 3.529975,-1.5206 0,0 0.380151,1.5206 -0.760302,2.33521 0,0 2.335214,0.48877 5.213501,2.11799 2.878287,1.62922 7.711637,3.6929 7.711637,3.6929 z"
             id="path1336"
             sodipodi:nodetypes="cczcscsscscc" />
          <path
             style="font-variation-settings:normal;opacity:1;vector-effect:none;fill:#ffffff;fill-opacity:1;fill-rule:evenodd;stroke:#000000;stroke-width:0.259019;stroke-linecap:butt;stroke-linejoin:miter;stroke-miterlimit:4;stroke-dasharray:none;stroke-dashoffset:0;stroke-opacity:1;marker:none;marker-start:none;marker-mid:none;marker-end:none;stop-color:#c8102e;stop-opacity:1"
             d="m 34.756674,170.59734 c 0,0 11.208374,6.29965 22.273712,6.29965 11.065338,0 17.479232,-2.49814 20.194598,-3.6929 0,0 3.25844,3.25844 7.711639,3.47567 -0.738744,0.89235 -9.747371,7.55115 -24.632359,7.53939 -16.484239,-0.013 -28.37157,-9.05999 -28.37157,-9.05999 z"
             id="path1338"
             sodipodi:nodetypes="czccscc" />
          <path
             sodipodi:nodetypes="zczzzzcsczzzzczz"
             id="path1340"
             d="m 33.21357,174.94892 c -0.615452,1.13876 -1.941014,3.77598 -1.941014,3.77598 0,0 1.328834,0.44761 1.161842,1.66246 -0.166991,1.21485 -1.296578,1.63841 -2.336594,1.16409 -1.040017,-0.47432 -1.476185,-1.48034 -0.857852,-2.79075 0.618333,-1.31042 1.746896,-3.36934 2.298025,-4.62157 0.551128,-1.25223 -0.06995,-2.21988 -0.06995,-2.21988 0,0 1.443388,-0.905 1.949066,-1.71786 0.502202,-0.80728 2.017816,-4.04477 2.017816,-4.04477 -0.515152,-0.0192 -1.40572,-0.48602 -1.238644,-1.70086 0.167076,-1.21484 1.37338,-1.48482 2.413396,-1.0105 1.040017,0.47432 1.284178,1.59552 0.78105,2.75235 -0.50313,1.15681 -1.746896,3.67655 -2.298025,4.92879 -0.551129,1.25224 -0.04525,2.60388 -0.04525,2.60388 0,0 -1.218411,0.0799 -1.833863,1.21864 z"
             style="font-variation-settings:normal;opacity:1;vector-effect:none;fill:#ffc72c;fill-opacity:1;fill-rule:evenodd;stroke:#000000;stroke-width:0.259019;stroke-linecap:butt;stroke-linejoin:miter;stroke-miterlimit:4;stroke-dasharray:none;stroke-dashoffset:0;stroke-opacity:1;marker:none;marker-start:none;marker-mid:none;marker-end:none;stop-color:#c8102e;stop-opacity:1" />
          <path
             id="path1342"
             style="color:#000000;font-style:normal;font-variant:normal;font-weight:normal;font-stretch:normal;font-size:medium;line-height:normal;font-family:sans-serif;font-variant-ligatures:normal;font-variant-position:normal;font-variant-caps:normal;font-variant-numeric:normal;font-variant-alternates:normal;font-variant-east-asian:normal;font-feature-settings:normal;font-variation-settings:normal;text-indent:0;text-align:start;text-decoration:none;text-decoration-line:none;text-decoration-style:solid;text-decoration-color:#000000;letter-spacing:normal;word-spacing:normal;text-transform:none;writing-mode:lr-tb;direction:ltr;text-orientation:mixed;dominant-baseline:auto;baseline-shift:baseline;text-anchor:start;white-space:normal;shape-padding:0;shape-margin:0;inline-size:0;clip-rule:nonzero;display:inline;overflow:visible;visibility:visible;opacity:1;isolation:auto;mix-blend-mode:normal;color-interpolation:sRGB;color-interpolation-filters:linearRGB;solid-color:#000000;solid-opacity:1;vector-effect:none;fill:#000000;fill-opacity:1;fill-rule:evenodd;stroke:none;stroke-width:0.978971;stroke-linecap:butt;stroke-linejoin:miter;stroke-miterlimit:4;stroke-dasharray:none;stroke-dashoffset:0;stroke-opacity:1;marker:none;color-rendering:auto;image-rendering:auto;shape-rendering:auto;text-rendering:auto;enable-background:accumulate;stop-color:#c8102e;stop-opacity:1"
             d="m 136.35156,626.48047 c 0,0 -1.73299,1.39241 -3.81445,0.71875 l 1.32617,1.07812 c 1.62664,-0.28724 2.48828,-1.79687 2.48828,-1.79687 z m -18.05468,49.03125 c -1.64203,0.17953 -2.59961,1.6289 -2.59961,1.6289 0,0 1.819,-1.27415 3.85156,-0.46484 z"
             transform="scale(0.26458333)" />
        </g>
        <g
           style="display:inline;opacity:1;mix-blend-mode:normal;stroke:#000000;stroke-width:0.259019;stroke-miterlimit:4;stroke-dasharray:none"
           id="g1352">
          <path
             sodipodi:nodetypes="zzscccccsccczcscccszsscccsccccccccccccccsscccssccccccz"
             id="path1346"
             style="color:#000000;font-style:normal;font-variant:normal;font-weight:normal;font-stretch:normal;font-size:medium;line-height:normal;font-family:sans-serif;font-variant-ligatures:normal;font-variant-position:normal;font-variant-caps:normal;font-variant-numeric:normal;font-variant-alternates:normal;font-variant-east-asian:normal;font-feature-settings:normal;font-variation-settings:normal;text-indent:0;text-align:start;text-decoration:none;text-decoration-line:none;text-decoration-style:solid;text-decoration-color:#000000;letter-spacing:normal;word-spacing:normal;text-transform:none;writing-mode:lr-tb;direction:ltr;text-orientation:mixed;dominant-baseline:auto;baseline-shift:baseline;text-anchor:start;white-space:normal;shape-padding:0;shape-margin:0;inline-size:0;clip-rule:nonzero;display:inline;overflow:visible;visibility:visible;opacity:1;isolation:auto;mix-blend-mode:normal;color-interpolation:sRGB;color-interpolation-filters:linearRGB;solid-color:#000000;solid-opacity:1;vector-effect:none;fill:#ffc72c;fill-opacity:1;fill-rule:evenodd;stroke:#000000;stroke-width:0.259019;stroke-linecap:butt;stroke-linejoin:miter;stroke-miterlimit:4;stroke-dasharray:none;stroke-dashoffset:0;stroke-opacity:1;marker:none;color-rendering:auto;image-rendering:auto;shape-rendering:auto;text-rendering:auto;enable-background:accumulate;stop-color:#c8102e;stop-opacity:1"
             d="m 90.170064,150.93677 c -0.484149,4.56281 -3.156082,10.32354 -5.426897,11.27707 -2.270815,0.95353 -3.816817,0.0369 -4.76692,-0.39554 -0.9501,-0.43242 -1.400473,-1e-4 -1.620119,0.93876 -1.75354,-0.0936 -4.612275,2.52196 -3.48781,4.89385 0.496255,-0.69418 1.295957,-1.91777 3.000254,-1.87717 0,0 0.07226,0.88029 0.428476,1.26997 0.356214,0.39008 1.749172,-0.11977 4.068282,-0.23351 0,0 -2.67194,1.5163 -3.683733,1.50867 -0.998259,-0.008 -1.496155,0.50823 -1.315451,1.46934 -1.964555,0.94973 -2.944406,4.67628 -0.362586,6.4942 -0.05297,-1.71913 0.282254,-2.98804 1.79454,-3.77499 0,0 0.213121,0.8422 1.398399,0.94779 1.185279,0.10559 1.775466,-1.56164 4.133497,-2.43674 -0.440589,1.03047 -1.395214,1.96101 -1.323435,2.53783 0.04549,0.36553 0.482957,0.49808 0.846461,0.70384 -0.274355,1.973 1.207784,5.70534 4.847235,5.34977 -0.888054,-0.85658 -2.14053,-2.28804 -1.677398,-3.92872 0.537718,-0.23301 0.799741,-0.20528 1.254492,-0.42045 0.524664,-0.24824 0.267267,-1.68949 0.734014,-4.32288 0.466747,-2.63339 1.41032,-3.66557 1.901667,-3.97843 0.491347,-0.31286 0.531246,0.37471 0.936566,0.73308 0.405318,0.35838 1.410767,0.0538 1.410767,0.0538 0.689235,0.74154 0.834851,1.59218 0.557004,2.69633 1.153377,-0.0821 2.162314,-2.23018 1.519927,-3.89642 0,0 0.586109,-0.88954 0.157152,-1.68093 -0.428958,-0.79138 -2.101792,-1.66509 -0.16378,-5.16457 0.738376,0.33499 1.376831,0.0766 1.376831,0.0766 l 0.49357,-1.55134 c 0,0 -1.345026,-0.5781 -1.270605,-2.15368 0.26672,0.35071 0.766782,1.21635 2.121471,0.91518 l 0.664668,-1.51497 c 0,0 -1.638968,-0.3998 -1.496448,-2.39304 0,0 0.600615,1.59508 2.143412,1.41539 l 0.820713,-1.58668 c 0,0 -1.644022,-0.24628 -1.676964,-2.74479 0,0 1.063708,1.5335 2.458044,1.19523 l 0.66214,-1.43822 c 0,0 -2.893316,-1.97801 -0.93472,-5.44829 l -1.790845,-2.78696 c 0,0 -2.350047,0.19152 -2.549155,-1.92824 -0.199109,-2.11977 0.453736,-4.44199 2.077467,-7.07802 1.623733,-2.63604 2.584443,-6.1392 2.584443,-6.1392 l -2.956606,-3.55539 -7.209542,1.91408 c 0,0 -2.229692,3.64731 -3.411039,9.07044 -1.111598,5.10294 -2.214544,5.80897 -3.195995,6.0422 -0.981451,0.23323 -2.126531,-0.76166 -2.126531,-0.76166 l -0.664667,1.51497 c 0,0 0.773547,2.17712 3.03248,1.25258 -1.111174,1.99771 0.574745,2.47566 0.722141,4.90338 0,0 1.042589,-0.15776 1.463507,-0.10547 0,0 0.599731,-0.71025 0.563438,-1.94095 1.110195,0.29502 3.422337,1.50011 2.938188,6.06292 z"
             transform="rotate(43.112823,70.985275,97.713642)" />
          <path
             sodipodi:nodetypes="ccccccccccccccccccccccccccccccc"
             id="path1348"
             d="m 50.509766,143.16406 0.208984,0.16211 c 0.955849,-1.24334 1.103137,-2.34729 2.266602,-2.72461 -1.587368,0.22969 -1.530909,1.48393 -2.475586,2.5625 z m 4.605468,11.58203 0.230469,0.13086 c 0,0 0.898534,-1.55536 0.0029,-2.68066 0.563637,1.10196 -0.233398,2.5498 -0.233398,2.5498 z m -2.929687,1.24414 0.224609,0.14063 c 0,0 0.945719,-1.48344 0.25,-2.74415 0.379511,1.19699 -0.474609,2.60352 -0.474609,2.60352 z m -2.990235,1.3086 0.230469,0.13086 c 0.39247,-0.81278 0.720434,-1.95556 0.201172,-2.66016 0.200954,0.96017 -0.02302,1.71766 -0.431641,2.5293 z m -17.085937,-1.49219 -0.08008,0.25195 c 0,0 1.028348,0.32595 2.095703,0.27246 -1.006301,-0.2071 -2.015625,-0.52441 -2.015625,-0.52441 z m 14.15625,3.82813 0.255859,-0.0625 c -0.20333,-1.47282 1.128874,-1.69947 0.339844,-3.26661 0.328701,1.77523 -0.689125,1.54747 -0.595703,3.32911 z m -15.669922,0.58398 0.06445,0.25586 c 0,0 1.886571,-0.48268 3.043945,-1.07227 -1.223491,0.33204 -3.108398,0.81641 -3.108398,0.81641 z"
             style="color:#000000;font-style:normal;font-variant:normal;font-weight:normal;font-stretch:normal;font-size:medium;line-height:normal;font-family:sans-serif;font-variant-ligatures:normal;font-variant-position:normal;font-variant-caps:normal;font-variant-numeric:normal;font-variant-alternates:normal;font-variant-east-asian:normal;font-feature-settings:normal;font-variation-settings:normal;text-indent:0;text-align:start;text-decoration:none;text-decoration-line:none;text-decoration-style:solid;text-decoration-color:#000000;letter-spacing:normal;word-spacing:normal;text-transform:none;writing-mode:lr-tb;direction:ltr;text-orientation:mixed;dominant-baseline:auto;baseline-shift:baseline;text-anchor:start;white-space:normal;shape-padding:0;shape-margin:0;inline-size:0;clip-rule:nonzero;display:inline;overflow:visible;visibility:visible;opacity:1;isolation:auto;mix-blend-mode:normal;color-interpolation:sRGB;color-interpolation-filters:linearRGB;solid-color:#000000;solid-opacity:1;vector-effect:none;fill:#000000;fill-opacity:1;fill-rule:evenodd;stroke:none;stroke-width:0.259019;stroke-linecap:butt;stroke-linejoin:miter;stroke-miterlimit:4;stroke-dasharray:none;stroke-dashoffset:0;stroke-opacity:1;marker:none;color-rendering:auto;image-rendering:auto;shape-rendering:auto;text-rendering:auto;enable-background:accumulate;stop-color:#c8102e;stop-opacity:1" />
          <path
             style="font-variation-settings:normal;display:inline;opacity:1;mix-blend-mode:normal;vector-effect:none;fill:none;fill-opacity:1;fill-rule:evenodd;stroke:#000000;stroke-width:0.259019;stroke-linecap:butt;stroke-linejoin:miter;stroke-miterlimit:4;stroke-dasharray:none;stroke-dashoffset:0;stroke-opacity:1;marker:none;marker-start:none;marker-mid:none;marker-end:none;stop-color:#c8102e;stop-opacity:1"
             d="m 68.897865,132.54603 c 0,0 -0.977532,0.38015 -1.574914,1.30337 0,0 3.434538,0.83052 4.932648,3.9842"
             id="path1350"
             sodipodi:nodetypes="ccc" />
        </g>
        <g
           style="stroke:#000000;stroke-width:0.259019;stroke-miterlimit:4;stroke-dasharray:none"
           id="g1360">
          <path
             sodipodi:nodetypes="sssscssccscssscscccssscccscscccscscccscsscccsccccccccccccscccssssccccccsssscccccccccccscccsssscccsccccccccccccsccccccccccccscccccccccccscsssssccccssscssscccccc"
             transform="scale(0.26458333)"
             d="m 326.41992,331.96094 c -3.8179,-10e-4 -7.92614,0.38945 -12.31836,1.27148 -17.56888,3.52814 -29.12334,19.94 -30.27539,34.95313 -1.19092,15.51953 8.25686,29.4754 17.75,35.33007 9.49315,5.85468 10.5441,7.24721 13.58203,9.01172 -4.2955,2.48477 -14.93771,6.94779 -19.45312,15.56836 -4.51554,8.62082 -1.84731,14.5726 0,18.67774 1.8473,4.10509 1.00227,9.6326 -1.02539,13.34179 h 22.57812 c 0,0 7.18377,-7.38813 4.72071,-19.29296 -2.46308,-11.90487 5.0947,-17.13255 7.62695,-19.44532 6.56548,4.62078 10.7682,7.9539 14.51562,13.03321 6.83966,9.27053 8.42027,20.15776 3.4043,31.92578 -4.85951,11.40087 -14.89479,16.40482 -23.29101,17.64258 -8.71807,1.28519 -15.23843,0.12369 -24.85938,-3.4629 -9.62095,-3.58646 -25.83787,-16.22636 -39.38477,-27.7207 -13.54689,-11.49434 -23.39843,-31.60937 -23.39843,-31.60937 l -61.57618,-0.82227 -11.20312,5.18164 c 0,0 -3.47147,9.88015 -17.11133,17.19531 -13.63986,7.3152 -29.64252,16.56593 -43.47851,18.71289 -13.835996,2.14697 -21.599606,-4.89508 -26.115238,-13.31054 -4.361809,-8.12882 -6.309831,-7.49756 -9.646484,-4.31055 -6.414841,-5.18332 -18.817292,-1.98705 -20.935547,6.97852 3.057482,-1.0263 8.828019,-3.07956 13.957031,0.82031 0,0 -2.340771,2.93358 -2.113281,4.91602 0.227489,1.98243 5.396474,5.96288 14.427734,10.47851 0,0 -8.063394,-1.19416 -15.492187,-5.11523 -7.175747,-3.78751 -8.805315,-2.07703 -9.998047,1.81445 -8.216077,-0.71626 -16.104532,8.24617 -12.648438,18.30273 1.962812,-2.55908 5.604467,-7.07509 12.037109,-6.70507 0,0 -0.919772,2.71479 1.197266,4.64257 2.117042,1.92783 8.663851,-0.41191 17.035156,3.00977 -5.443948,1.73851 -8.983874,2.48283 -10.132812,4.35547 -0.728024,1.18662 -0.06837,2.35319 0.519531,3.81836 -6.843572,4.60244 -7.352879,16.53196 1.652344,22.1875 -0.07967,-3.22417 0.06256,-9.02541 5.300781,-12.77735 2.137504,0.58054 2.828519,1.67292 5.734375,1.84375 2.905856,0.17084 6.224325,-6.18027 10.701172,-8.63867 4.47685,-2.45851 8.041682,-2.95628 10.21875,-2.66601 2.177068,0.29026 1.160156,2.4679 1.160156,4.06445 0,1.59651 2.757813,2.4668 2.757813,2.4668 -0.145134,2.85853 -1.740696,4.99668 -5.369141,6.67578 2.612481,1.68238 10.207079,2.22119 12.480469,-3.77344 0,0 3.774308,0.87211 4.499998,-2.17578 0.72569,-3.04789 1.74193,-11.75586 20.0293,-11.75586 0,0 0.24089,2.75636 2.41797,4.49805 0,0 4.93526,-0.14504 8.27344,-1.88672 -0.43514,-7.55694 1.82249,-6.97748 4.93359,-11.75586 0,0 -3.77258,6.67648 1.16211,11.17578 l 8.12695,-2.17774 c -1.32959,-6.69883 1.08032,-6.90509 4.20899,-12.77148 0,0 -3.48285,7.83717 3.6289,11.75586 l 7.25781,-2.03125 c -2.65114,-7.24021 -1.73038,-7.65191 3.62696,-14.07813 -1.16111,2.75762 -3.04636,9.28756 2.90429,12.91602 l 6.9668,-1.5957 c -1.71547,-7.89865 0.55248,-8.38058 2.90234,-12.33789 10e-6,0 -2.90343,6.82225 2.03126,11.03125 0,0 5.51629,-0.28972 7.69335,-2.4668 0,0 -0.95645,-3.56217 0.14454,-5.80664 0,0 7.47333,7.62492 27.51367,13.13086 20.04033,5.50594 34.23212,10.71899 45.17773,21.52148 10.94561,10.8025 9.90638,19.42043 14.53711,31.58008 4.70823,12.36318 8.10049,20.04044 3.33789,24.38281 -4.76259,4.34238 -8.85351,2.61329 -8.85351,2.61329 0,0 0.21041,3.95507 1.95507,6.21289 0.20527,0.1028 4.10511,2.77024 9.03125,-0.10352 0,0 -0.8212,4.72138 1.33399,7.28711 2.42005,1.95771 5.25574,1.83716 8.20898,1.12891 -4.40479,-7.03771 2.85275,-13.2345 -0.92187,-18.98633 0,0 7.2918,1.6532 14.11328,2.3789 6.82148,0.72567 17.42666,5.45417 20.91602,22.28516 3.48935,16.83099 2.87341,28.73546 -6.56836,29.76172 -5.9426,0.64592 -11.78602,-0.64495 -15.37696,-2.2793 -3.59093,-1.63434 -6.39081,-3.36846 -7.80664,1.75 -8.23552,-0.43944 -16.41203,9.42026 -12.87304,17.92578 1.87561,-2.62367 5.34762,-7.66907 11.78906,-7.51562 0,0 -0.1764,3.74789 1.16992,5.2207 1.34632,1.47432 5.22426,1.97032 13.57812,0.80078 0,0 -6.63661,2.70923 -11.8496,2.66992 -5.14326,-0.0389 -6.03191,1.95936 -6.70704,7.14454 -7.42509,3.58953 -12.48657,19.22677 -2.72851,26.09765 -0.64972,-6.07665 2.42489,-12.84601 8.14062,-15.82031 0,0 0.59888,2.80251 3.4043,3.375 2.80541,0.57275 8.32041,-6.28485 16.9043,-8.44141 -1.66522,3.89466 -5.27325,7.41166 -5.00196,9.5918 0.17193,1.38153 1.82535,1.88248 3.19922,2.66016 -1.03693,7.457 3.95905,17.91312 15.34571,17.94336 -2.07479,-2.46917 -6.19964,-8.73065 -4.44922,-14.93165 2.03232,-0.88066 3.25399,-0.4602 5.63086,-2.14062 2.37686,-1.68038 1.00572,-8.71258 2.96875,-13.42773 1.96295,-4.71519 3.25817,-8.25895 5.11523,-9.44141 1.85706,-1.18246 1.57746,1.25686 3.10938,2.61133 1.53191,1.3545 5.33203,0.20312 5.33203,0.20312 1.89403,2.34357 2.55599,6.57879 1.50586,10.75196 4.35922,-0.31042 9.15448,-7.38014 6.72656,-13.67774 0,0 4.72904,-2.0963 2.61523,-5.99609 -2.11381,-3.89976 -6.8918,-11.77683 -2.87304,-21.62696 4.66214,1.76342 7.33007,-0.49414 7.33007,-0.49414 l 0.41016,-7.59375 c -6.18573,0.55023 -6.45406,-3.00679 -11.08398,-5.95312 6.36293,4.10513 10.46875,2.25781 10.46875,2.25781 l 1.02539,-8.20898 c -7.42184,-0.22606 -8.18343,-5.29617 -11.69922,-8.82618 6.56819,5.13139 11.28906,3.69336 11.28906,3.69336 l 0.41016,-8.20898 c -6.38523,-0.31903 -7.40599,-4.52375 -11.08399,-6.97852 5.95243,3.48934 10.87891,1.23047 10.87891,1.23047 v -8.41601 c -3.69461,0.6158 -7.79918,-0.61576 -11.9043,-4.51563 -4.10512,-3.89987 -3.69531,-12.10937 -3.69531,-12.10937 l -11.69922,-6.77344 c -13.75215,5.95242 -20.25195,-7.25195 -20.25195,-7.25195 3.89986,0.61576 5.74804,-2.25782 5.74804,-2.25782 1.08319,-2.39463 1.17853,-5.07922 0.61524,-7.18359 -7.01956,3.30849 -8.56619,-0.82691 -12.31641,-3.08008 5.74717,3.6946 10.34766,0.41016 10.34766,0.41016 1.12163,-3.50393 -0.084,-7.59375 -0.084,-7.59375 -5.59882,2.94777 -7.0672,-1.17226 -10.46875,-2.87305 5.33666,1.84732 8.82618,-1.84765 8.82618,-1.84765 1.23153,-2.46305 0.61523,-6.56836 0.61523,-6.56836 -7.38921,4.31036 -13.33008,-4.76368 -13.33008,-4.76368 0,0 6.99316,2.18683 18.01172,0.5625 8.75646,-1.29086 18.85915,-5.79049 25.99024,-14.76562 9.1366,-4.21538 11.82421,3.26367 11.82421,3.26367 3.1314,-3.2095 4.55274,-6.91992 4.55274,-6.91992 0,0 -0.64106,-8.64173 -10.19922,-7.16602 6.83536,-10.35488 13.3418,-4.05859 13.3418,-4.05859 1.39503,-4.26149 1.03515,-8.2168 1.03515,-8.2168 0,0 -4.08543,-6.96064 -11.49609,-2.46875 0.034,-1.42541 -0.0166,-2.84079 -0.12695,-4.24609 5.74733,-7.1763 11.77929,-2.87695 11.77929,-2.87695 0.41052,-4.51563 -0.41015,-7.59375 -0.41015,-7.59375 0,0 -5.92064,-7.35264 -13.73633,-0.42579 -1.3787,-3.78164 -3.29345,-7.38909 -5.75,-10.71874 -4.01563,-5.44286 -8.40148,-9.84241 -14.35742,-14.33204 1.79313,-1.46018 5.78604,-3.92896 11.88672,-9.27343 6.59443,-5.77705 13.40622,-14.46179 16.03125,-28.38477 2.71194,-14.38405 -2.62607,-28.50156 -13.46485,-36.36328 -5.96602,-4.32735 -14.79631,-7.85364 -26.25,-7.85742 z m 1.78516,13.1289 c 0,0 8.41838,1.30567 5.51562,10.88477 0,0 4.49898,0.8713 7.54688,-0.58008 0,0 2.68748,-4.82453 -0.21289,-10.13281 1.9868,0.84326 3.81569,1.86647 5.45117,3.05273 7.31389,5.30501 11.32731,15.21077 9.30859,25.91797 -2.10564,11.1682 -8.00457,18.38569 -15.83398,24.3457 -3.83954,2.92279 -8.48786,5.26628 -12.78906,7.44336 -4.65443,-3.37379 -7.95182,-3.89249 -17.44727,-10.0625 -9.49545,-6.17 -15.83592,-16.78944 -15.03906,-27.17382 0.41065,-5.3515 1.52276,-9.58067 5.71484,-14.64454 4.19207,-5.06386 8.71756,-1.16043 7.85156,2.9961 4.04881,0.12741 7.67774,-0.60938 7.67774,-0.60938 0,0 2.93728,-5.36097 -1.07227,-10.07226 0,0 8.53814,0.66686 5.49024,9.81054 0,0 4.21005,1.15977 7.69336,-0.14648 0,0 4.35353,-6.23975 0.14453,-11.0293 z"
             style="color:#000000;font-style:normal;font-variant:normal;font-weight:normal;font-stretch:normal;font-size:medium;line-height:normal;font-family:sans-serif;font-variant-ligatures:normal;font-variant-position:normal;font-variant-caps:normal;font-variant-numeric:normal;font-variant-alternates:normal;font-variant-east-asian:normal;font-feature-settings:normal;font-variation-settings:normal;text-indent:0;text-align:start;text-decoration:none;text-decoration-line:none;text-decoration-style:solid;text-decoration-color:#000000;letter-spacing:normal;word-spacing:normal;text-transform:none;writing-mode:lr-tb;direction:ltr;text-orientation:mixed;dominant-baseline:auto;baseline-shift:baseline;text-anchor:start;white-space:normal;shape-padding:0;shape-margin:0;inline-size:0;clip-rule:nonzero;display:inline;overflow:visible;visibility:visible;opacity:1;isolation:auto;mix-blend-mode:normal;color-interpolation:sRGB;color-interpolation-filters:linearRGB;solid-color:#000000;solid-opacity:1;vector-effect:none;fill:#ffc72c;fill-opacity:1;fill-rule:evenodd;stroke:#000000;stroke-width:0.97896453;stroke-linecap:butt;stroke-linejoin:miter;stroke-miterlimit:4;stroke-dasharray:none;stroke-dashoffset:0;stroke-opacity:1;marker:none;color-rendering:auto;image-rendering:auto;shape-rendering:auto;text-rendering:auto;enable-background:accumulate;stop-color:#c8102e;stop-opacity:1"
             id="path1354" />
          <path
             sodipodi:nodetypes="zcczczczcszcccccccccccccccccccccccccccccccccccsccssccsscccsscccsscccscccccccccccccccccccc"
             transform="scale(0.26458333)"
             d="m 302.8026,446.08412 c 4.16599,7.49875 -1.11341,13.95885 -1.11341,13.95885 h 2.08889 c 0,0 4.80439,-6.43462 0.60236,-13.99823 -4.20203,-7.56361 -2.11587,-12.66678 0.3129,-15.80451 -3.37674,2.66778 -6.05672,8.34513 -1.89074,15.84389 z M 315,430.24023 c -3.99552,3.28751 -5.94781,7.07536 -2.92773,15.625 3.02008,8.54964 -1.78286,14.17774 -1.78286,14.17774 h 1.70048 c 0,0 4.81226,-5.97808 1.37036,-14.58971 -3.4419,-8.61164 -0.78603,-12.07923 1.63975,-15.21303 z m -119.44922,19.1543 c -1.68308,3.46583 -1.11585,6.82324 0.62305,8.96094 -3.85918,7.75264 -5.87696,12.52148 -5.87695,12.52148 l 0.92382,0.38282 c 0,0 2.17732,-4.60274 6.09961,-12.82227 -1.66641,-2.0383 -2.4687,-5.36205 -1.76953,-9.04297 z m -12.48437,7.83594 c 0.2612,4.77377 -2.62305,10.86328 -2.62305,10.86328 l 0.90039,0.43555 c 0,0 3.04766,-6.16801 1.72266,-11.29883 z m -12.18946,3.05273 c -0.0421,3.06369 -1.73691,6.27457 -3.18945,8.79102 l 0.86328,0.50195 c 1.46436,-2.53689 3.34252,-5.91925 2.32617,-9.29297 z m -14.36914,4.49805 c -0.60192,3.98914 -3.36328,8.70117 -3.36328,8.70117 l 0.91602,0.39844 c 0,0 3.4226,-6.07198 2.44726,-9.09961 z m -83.589841,1.76172 -0.244141,0.9668 c 0,0 2.808265,0.71203 7.101563,0.65625 -4.124701,-0.92667 -6.857422,-1.62305 -6.857422,-1.62305 z m 69.943361,2.5918 c -0.0147,3.27159 -1.95606,5.72722 -3.19531,8.08984 l 0.88476,0.46484 c 1.65349,-2.76378 3.23406,-5.74922 2.31055,-8.55468 z m -15.23633,5.6582 c -0.0577,5.96137 -3.46969,6.22542 -3.64648,11.83594 l 1.0039,-0.0586 c 0.24136,-4.309 4.19278,-7.60731 2.64258,-11.77734 z m -51.769531,5.41797 c -3.455603,0.38524 -11.050782,2.27734 -11.050781,2.27734 l 0.24414,0.97461 c 0,0 7.585909,-1.89548 10.806641,-3.25195 z M 305.85352,504.5957 c 0,0 2.84674,1.32423 5.55078,2.82032 l 0.48828,-0.8711 c -2.83609,-1.56914 -6.03906,-1.94922 -6.03906,-1.94922 z m 1.25976,9.85742 c -0.56735,-0.0378 -1.13425,0.008 -1.69531,0.15626 2.61145,0.2211 4.35826,1.80298 6.18555,2.86132 l 0.49609,-0.86328 c -1.57585,-1.16745 -3.28426,-2.04085 -4.98633,-2.1543 z m 2.73047,12.18555 c -0.16983,-0.003 -0.33945,0.002 -0.50977,0.0176 3.08796,0.94798 5.74428,3.12758 8.42774,3.40039 l 0.0879,-0.99609 c -2.94877,-0.33981 -5.45839,-2.37692 -8.00586,-2.42188 z m 34.99609,35.63086 c -0.35525,0.0134 -0.72358,0.0441 -1.10546,0.0937 6.46058,0.90788 7.81513,3.93703 10.49218,5.4668 l 0.4961,-0.8711 c -2.13377,-1.21928 -4.55401,-4.89038 -9.88282,-4.68945 z m -0.72851,11.49805 c -0.31296,0.006 -0.63214,0.0255 -0.95703,0.0605 4.77146,0.44036 8.18934,3.56664 10.3789,5.44336 l 0.65039,-0.75976 c -2.02512,-1.7358 -5.37785,-4.82721 -10.07226,-4.74414 z m 1.65625,13.55859 c 3.7686,1.59383 5.27439,5.07526 8.03906,6.76758 l 0.51758,-0.85547 c -3.07192,-1.88821 -4.69658,-5.71894 -8.55664,-5.91211 z m 0.14453,13.4961 c 4.84336,1.04609 7.89203,5.72877 11.29101,7.34179 l 0.41211,-0.9082 c -4.00746,-2.81061 -6.96114,-6.66063 -11.70312,-6.43359 z m -27.57617,26.85156 c -3.49281,0.82945 -7.45508,2.00781 -7.45508,2.00781 l 0.28125,0.96094 c 0,0 3.99029,-1.18576 7.17383,-2.96875 z m 5.80273,9.57812 c -3.3203,2.9105 -6.37695,7.66602 -6.37695,7.66602 l 0.83984,0.53906 c 0,0 3.0519,-4.72942 5.53711,-8.20508 z"
             style="color:#000000;font-style:normal;font-variant:normal;font-weight:normal;font-stretch:normal;font-size:medium;line-height:normal;font-family:sans-serif;font-variant-ligatures:normal;font-variant-position:normal;font-variant-caps:normal;font-variant-numeric:normal;font-variant-alternates:normal;font-variant-east-asian:normal;font-feature-settings:normal;font-variation-settings:normal;text-indent:0;text-align:start;text-decoration:none;text-decoration-line:none;text-decoration-style:solid;text-decoration-color:#000000;letter-spacing:normal;word-spacing:normal;text-transform:none;writing-mode:lr-tb;direction:ltr;text-orientation:mixed;dominant-baseline:auto;baseline-shift:baseline;text-anchor:start;white-space:normal;shape-padding:0;shape-margin:0;inline-size:0;clip-rule:nonzero;display:inline;overflow:visible;visibility:visible;opacity:1;isolation:auto;mix-blend-mode:normal;color-interpolation:sRGB;color-interpolation-filters:linearRGB;solid-color:#000000;solid-opacity:1;vector-effect:none;fill:#000000;fill-opacity:1;fill-rule:evenodd;stroke:none;stroke-width:0.978971;stroke-linecap:butt;stroke-linejoin:miter;stroke-miterlimit:4;stroke-dasharray:none;stroke-dashoffset:0;stroke-opacity:1;marker:none;color-rendering:auto;image-rendering:auto;shape-rendering:auto;text-rendering:auto;enable-background:accumulate;stop-color:#c8102e;stop-opacity:1"
             id="path1356" />
          <path
             style="font-variation-settings:normal;display:inline;opacity:1;mix-blend-mode:normal;vector-effect:none;fill:none;fill-opacity:1;fill-rule:evenodd;stroke:#000000;stroke-width:0.259019;stroke-linecap:butt;stroke-linejoin:miter;stroke-miterlimit:4;stroke-dasharray:none;stroke-dashoffset:0;stroke-opacity:1;marker:none;marker-start:none;marker-mid:none;marker-end:none;stop-color:#c8102e;stop-opacity:1"
             d="m 87.208273,111.48933 c 0.796963,-0.77745 1.411123,-1.30582 2.278108,-1.994 m -6.100829,-0.34752 c 1.335271,-0.69821 1.962179,-1.09734 3.183899,-1.72137"
             id="path1358"
             sodipodi:nodetypes="cccc" />
        </g>
        <g
           style="stroke:#000000;stroke-width:0.259019;stroke-miterlimit:4;stroke-dasharray:none"
           id="g1370">
          <path
             sodipodi:nodetypes="zssccszcz"
             id="path1362"
             d="m 38.167053,95.155178 c -1.048337,1.701009 -0.785527,5.548662 3.776287,5.440052 4.561813,-0.10862 7.168565,-0.977535 10.318387,0.10861 3.149825,1.08615 3.692898,2.33522 3.692898,2.33522 l 0.03181,-1.47562 c 0,0 -3.111424,-3.744473 -8.922303,-3.147094 -5.810883,0.597382 -5.992439,-0.906187 -5.890414,-2.043912 0.102025,-1.137724 1.545829,-1.683525 1.545829,-1.683525 -0.456884,-1.084611 -3.504158,-1.23474 -4.552494,0.466269 z"
             style="font-variation-settings:normal;opacity:1;vector-effect:none;fill:#ffc72c;fill-opacity:1;fill-rule:evenodd;stroke:#000000;stroke-width:0.259019;stroke-linecap:butt;stroke-linejoin:miter;stroke-miterlimit:4;stroke-dasharray:none;stroke-dashoffset:0;stroke-opacity:1;marker:none;marker-start:none;marker-mid:none;marker-end:none;stop-color:#c8102e;stop-opacity:1" />
          <path
             style="font-variation-settings:normal;opacity:1;mix-blend-mode:normal;vector-effect:none;fill:#ffc72c;fill-opacity:1;fill-rule:evenodd;stroke:#000000;stroke-width:0.259019;stroke-linecap:butt;stroke-linejoin:miter;stroke-miterlimit:4;stroke-dasharray:none;stroke-dashoffset:0;stroke-opacity:1;marker:none;marker-start:none;marker-mid:none;marker-end:none;stop-color:#c8102e;stop-opacity:1"
             d="m 48.295349,80.814893 c -1.958454,2.265663 -2.290877,3.782648 -2.290877,3.782648 0.192006,0.460814 0.30721,0.652819 -0.230405,1.574445 -0.537615,0.921623 -2.611273,4.569727 -2.611273,4.569727 0,0 0.460814,1.152032 2.073659,1.80485 0,0 0,1.536042 0.576016,2.688074 0,0 0.883224,0.268808 1.80485,0.422412 0,0 -0.0384,1.420839 1.036828,2.265662 0,0 0.207912,-2.493339 1.881652,-3.293173 1.67374,-0.799834 3.201983,-0.526803 4.253201,1.619433 1.051218,2.146236 1.273039,4.536669 0.06361,7.175539 -1.209415,2.63886 -4.284663,2.00947 -5.168236,0.58806 -0.883573,-1.42141 -0.876636,-2.78738 -0.723032,-3.4786 0,0 -1.177633,-0.0768 -1.600045,2.03527 0,0 -0.806422,0.30721 -1.651245,0.30721 0,0 -0.192005,0.46081 -0.0384,1.42084 0.153605,0.96002 -1.344038,3.5329 -3.648101,2.84168 0,0 -0.153606,1.11363 0.268806,1.95845 0,0 1.344037,0.92163 2.764877,0.38401 -2.215644,1.15546 -4.405459,0.76266 -5.721759,2.49607 0,0 0.576016,1.15203 0.537615,1.95846 2.1858,-1.26066 4.150326,-0.35705 6.84819,-1.68965 0,0 -1.152032,1.76644 -0.460813,3.53289 l 1.843251,0.57602 c 0,0 -0.0768,-1.92005 1.881652,-2.76487 0,0 -0.384011,1.80485 0.307209,3.07208 0.615279,0.28075 1.369511,0.46094 2.18886,0.53762 0,0 -0.691219,-2.15046 1.459241,-3.87851 0,0 -0.268808,2.64967 1.075229,3.8017 0.618649,0.21771 1.700445,0.27482 2.227262,0.11521 -1.148104,-1.86602 0.09044,-2.18472 0.422412,-4.72333 0.652366,1.55747 0.734051,3.15993 2.150459,4.30091 0.817456,-0.0459 1.355007,-0.0969 2.265663,-0.38401 -1.565404,-2.01107 -0.572218,-3.14581 -1.305636,-5.03054 1.218385,1.54096 2.362841,2.63249 4.684929,2.53448 0.528776,-0.76244 0.858597,-1.75208 0.960027,-2.49608 -3.321969,-0.40271 -2.85631,-1.97668 -4.646528,-4.10891 0,0 2.227261,2.22727 4.147314,0.92162 l 0.422412,-2.15045 c -2.974053,-0.0587 -2.124848,-1.02279 -4.396921,-2.93768 1.459578,0.58404 2.57272,1.71896 4.166515,1.01762 0.307209,-0.92162 0.384011,-2.38086 0.384011,-2.38086 -2.026573,0.0736 -2.622876,-0.0957 -4.032112,-1.72805 0,0 2.112059,1.53604 3.494497,0.49921 l 0.576015,-2.073652 c -1.839368,0.101941 -2.36197,0.01915 -3.840106,-1.42084 0,0 1.80485,1.07523 3.148887,-0.0768 l 0.268808,-1.817652 c 0,0 -2.342465,0.268807 -3.801705,-1.305636 0,0 2.112058,0.499213 3.187288,-0.806423 l 0.0384,-1.881652 c 0,0 -1.536043,0.614417 -2.726476,0.192004 0,0 0.04995,-1.274982 0.554869,-3.076978 l -1.834108,-4.642597 z"
             id="path1364"
             sodipodi:nodetypes="cscccccczzzzccczccccccccccccccccccccccccccccccccccccccc" />
          <path
             transform="scale(0.26458333)"
             d="m 181.77168,321.1547 c -0.44063,0.0435 -0.88474,0.19261 -1.34637,0.44188 0.88838,0 2.73094,0.56467 3.952,2.52679 -0.99188,1.84147 -2.68105,4.97701 0.1856,7.95619 -0.84919,0.58832 -1.67208,0.97169 -2.73936,1.34191 0,0 4.25677,0.49389 9.28437,-4.06578 0,0 3.53907,1.39048 6.08591,0.14075 -5.22142,0.19931 -9.40815,-3.34895 -11.65703,-5.85469 -1.68666,-1.8793 -2.4432,-2.61783 -3.76512,-2.48705 z m 34.75371,0.59921 c -2.77923,1.64429 -6.70312,2.19336 -6.70312,2.19336 0,0 4.23035,0.23223 7.24218,-1.34375 z m -31.20416,3.36317 c 0,0 2.78395,2.7856 4.78804,3.40225 0,0 -1.41139,1.679 -4.60658,3.19162 0,0 -1.19176,-1.27499 -1.19176,-3.202 0,-1.927 1.0103,-3.39187 1.0103,-3.39187 z m 36.25104,0.35167 c -1.8114,0.0623 -3.55079,1.45703 -3.55079,1.45703 0,0 3.16274,-0.63263 4.24805,0.66797 1.08532,1.3006 0.0332,3.90039 0.0332,3.90039 0,0 3.85652,-2.53849 1.62891,-5.0293 -0.69613,-0.77837 -1.53601,-1.02442 -2.35937,-0.99609 z m 8.46875,3.46094 c -0.94745,1.89489 -2.25618,4.1304 -4.8379,6.04492 3.41692,-1.08417 4.78699,-3.70482 5.72461,-5.58008 z m -6.28907,9.52929 c 5.35204,1.23124 9.09513,5.9006 13.48633,7.39649 l 0.31055,-0.95117 c -4.90201,-2.12346 -8.7464,-6.17298 -13.79688,-6.44532 z m -46.30859,5.82422 c -0.0169,0.73823 0.15786,1.44476 -0.91824,2.64415 -1.07611,1.1994 -4.11106,2.48671 -4.11106,2.48671 0,0 2.84908,-0.027 4.72266,-1.64258 1.87358,-1.61569 1.02503,-3.28302 0.30664,-3.48828 z m 47.74805,5.7461 c -0.23645,0.002 -0.47312,0.0164 -0.71094,0.043 4.38506,0.46222 7.4209,3.88569 10.85351,5.21093 l 0.35547,-0.9375 c -3.54984,-1.7496 -6.95136,-4.34845 -10.49804,-4.3164 z m 1.46289,12.38086 c 6.30617,1.06277 9.94922,4.8457 9.94922,4.8457 l 0.71679,-0.69336 c 0,0 -3.90979,-4.054 -10.66601,-4.15234 z m 2.0957,12.80664 c -0.66538,0.02 -1.3636,0.0997 -2.0918,0.25586 5.49515,-0.20187 9.09766,3.12304 9.09766,3.12304 l 0.67187,-0.73242 c 0,0 -3.02006,-2.7866 -7.67773,-2.64648 z m 0.69727,12.82226 c -0.427,-0.01 -0.87464,0.008 -1.33985,0.0605 3.39006,0.56765 5.73633,2.22461 5.73633,2.22461 l 0.57617,-0.81836 c 0,0 -1.9837,-1.39978 -4.97265,-1.4668 z m -2.78907,13.99414 c 4.38703,1.05083 6.41016,3.91992 6.41016,3.91992 l 0.82031,-0.58398 c 0,0 -2.32867,-3.22565 -7.23047,-3.33594 z m -51.23437,7.40039 c -2.07111,2.75864 -5.29297,3.87891 -5.29297,3.87891 l 0.32422,0.95117 c 0,0 3.55655,-1.20267 4.96875,-4.83008 z m 4.93359,5.36914 c -0.49827,5.73925 -4.11523,9.06446 -4.11523,9.06446 l 0.67969,0.73828 c 0,0 3.93382,-3.64071 3.43554,-9.80274 z m 43.39453,1.01954 c 3.99528,2.13698 5.5,5.43359 5.5,5.43359 l 0.90821,-0.42188 c 0,0 -1.69521,-3.66541 -6.40821,-5.01171 z m -32.21679,2.02929 c 1.05728,7.14788 -2.96485,11.10938 -2.96485,11.10938 l 0.70117,0.70898 c 0,0 4.39943,-4.45247 2.26368,-11.81836 z m 11.90234,0.43555 c 2.49073,5.39939 0,9.76562 0,9.76562 l 0.87109,0.4961 c 0,0 2.73397,-4.92095 -0.87109,-10.26172 z m 11.75195,2.75781 c 2.00035,1.88818 2.25977,4.26172 2.25977,4.26172 l 0.99609,-0.10937 c 0,0 -0.32155,-2.84747 -3.25586,-4.15235 z"
             style="color:#000000;font-style:normal;font-variant:normal;font-weight:normal;font-stretch:normal;font-size:medium;line-height:normal;font-family:sans-serif;font-variant-ligatures:normal;font-variant-position:normal;font-variant-caps:normal;font-variant-numeric:normal;font-variant-alternates:normal;font-variant-east-asian:normal;font-feature-settings:normal;font-variation-settings:normal;text-indent:0;text-align:start;text-decoration:none;text-decoration-line:none;text-decoration-style:solid;text-decoration-color:#000000;letter-spacing:normal;word-spacing:normal;text-transform:none;writing-mode:lr-tb;direction:ltr;text-orientation:mixed;dominant-baseline:auto;baseline-shift:baseline;text-anchor:start;white-space:normal;shape-padding:0;shape-margin:0;inline-size:0;clip-rule:nonzero;display:inline;overflow:visible;visibility:visible;opacity:1;isolation:auto;mix-blend-mode:normal;color-interpolation:sRGB;color-interpolation-filters:linearRGB;solid-color:#000000;solid-opacity:1;vector-effect:none;fill:#000000;fill-opacity:1;fill-rule:evenodd;stroke:none;stroke-width:0.978971;stroke-linecap:butt;stroke-linejoin:miter;stroke-miterlimit:4;stroke-dasharray:none;stroke-dashoffset:0;stroke-opacity:1;marker:none;color-rendering:auto;image-rendering:auto;shape-rendering:auto;text-rendering:auto;enable-background:accumulate;stop-color:#c8102e;stop-opacity:1"
             id="path1366"
             sodipodi:nodetypes="sccccccsscccccccscscscssccccccccczcscccccscsccssccsscccscccccccccccccccccccccccccccccc" />
          <path
             transform="matrix(0.26549999,0.11189767,-0.11189767,0.26549999,50.785645,69.459341)"
             sodipodi:nodetypes="cccczzccsscccccsscczccccccccc"
             id="path1368"
             d="M 7.3422043,39.675995 C 7.5474326,23.66603 0.43908773,1.089291 0.43908773,1.089291 4.1451034,-0.15689481 10.367528,1.4371965 11.904965,7.6806094 c 4.837984,0.07166 8.913335,2.7191096 9.271256,9.4856236 -2.410469,0.0011 -4.822753,-0.0565 -5.614564,2.520586 -0.791848,2.577086 0.454643,4.314164 2.737875,4.107108 2.283231,-0.207055 3.267097,-4.23967 3.267097,-4.23967 l 4.906146,-0.03247 c 0,0 0,4.414254 3.338155,4.414254 3.338192,0 4.421555,-3.901115 1.663937,-6.658734 -2.757619,-2.757596 -6.531213,-0.222841 -6.531213,-0.222841 -1.761297,-7.2601591 2.646199,-9.731089 6.095773,-9.3738481 1.537436,-6.2433977 5.873084,-7.83750411 6.901682,-8.33297372 1.028598,0.49546961 5.364246,2.52498892 6.901682,8.76838662 3.304441,0.078161 7.131363,3.8553452 5.660371,9.0835732 0,0 -3.338192,-2.389618 -6.095811,0.367974 -2.757618,2.757619 -1.674255,6.368459 1.663937,6.368459 3.338155,0 3.773556,-4.414254 3.773556,-4.414254 l 5.250595,0.362155 c 0,0 -0.204472,4.565892 2.216996,5.070893 2.421392,0.505002 3.871559,-1.011957 3.702387,-3.70264 -0.168945,-2.69068 -2.81862,-3.632459 -6.178394,-3.615024 1.490268,-6.931997 5.489991,-9.2820055 11.517619,-7.062603 3.243536,-5.0181184 10.244145,-5.6671517 13.557468,-3.5912462 0,0 -10.302625,18.6841952 -14.271166,36.3327212 l -9.260307,-0.669874 c -0.371527,-3.573007 -1.610041,-6.183542 -3.188031,-7.325439 -7.526138,0.446465 -8.468296,4.130774 -10.889726,6.300752 z"
             style="font-variation-settings:normal;opacity:1;mix-blend-mode:normal;vector-effect:none;fill:#ffc72c;fill-opacity:1;fill-rule:evenodd;stroke:#000000;stroke-width:0.899008;stroke-linecap:butt;stroke-linejoin:miter;stroke-miterlimit:4;stroke-dasharray:none;stroke-dashoffset:0;stroke-opacity:1;marker:none;marker-start:none;marker-mid:none;marker-end:none;stop-color:#c8102e;stop-opacity:1" />
        </g>
        <g
           style="stroke:#000000;stroke-width:0.259019;stroke-miterlimit:4;stroke-dasharray:none"
           transform="rotate(43.112823,70.985274,97.713641)"
           id="g1372" />
      </g>
    </g>
  </g>
</svg>
