<svg height="660" viewBox="-300 -300 600 660" width="600" xmlns="http://www.w3.org/2000/svg" xmlns:xlink="http://www.w3.org/1999/xlink"><radialGradient id="a" cx="-80" cy="-80" gradientTransform="matrix(1 0 0 .99983257 0 -.049961)" gradientUnits="userSpaceOnUse" r="405"><stop offset="0" stop-color="#fff" stop-opacity=".31"/><stop offset=".19" stop-color="#fff" stop-opacity=".25"/><stop offset=".6" stop-color="#6b6b6b" stop-opacity=".125"/><stop offset="1" stop-opacity=".125"/></radialGradient><path d="m-298.5-298.50003h597v258.5433c0 286.24794-298.5 398.45673-298.5 398.45673s-298.5-112.20879-298.5-398.45673z"/><g fill="#5ab532" stroke="#313131" stroke-width="1.303322" transform="matrix(1.1506516 0 0 1.1511586 251.59934 11.011531)"><path d="m-134.54136 91.15503c2.8569 3.648325 7.87946 4.786038 11.98226 6.646552 26.646489 10.079108 53.688467 19.088128 80.299858 29.257088 2.096136.73587 4.058684 2.15825 1.27914-.34402-2.253858-4.09032-7.71537-5.1046-11.708838-7.12862-17.293393-6.64274-35.087899-11.87677-52.51048-18.16769-8.85375-3.052226-17.65524-6.279057-26.24052-10.006206-.86324-.07522-2.37156-1.047511-3.10142-.257104z"/><path d="m-108.43035 107.23258c8.42752 5.3089 17.701754 9.1816 26.636053 13.57044 11.339412 5.18223 22.603547 10.64159 34.413651 14.68288.83687-1.58708 1.620499-3.3883 2.298479-4.6246-4.284966-3.52579-10.124201-4.49758-15.149273-6.67791-15.669985-5.70054-31.261829-11.6179-46.71746-17.87784-.70217-.53436-2.60284-.30939-1.48145.92703z"/><path d="m-315.94516-3.77054c2.08688 5.1012 9.49012 8.58825 19.42551 9.44656 6.72381.4772 3.63955-2.4225-5.75716-5.84677-4.41367-1.4111-9.55473-4.07378-11.73758-5.65846-3.84364-2.97911-3.84364-2.97911-1.93077 2.05867z"/><path d="m-409.53415-41.93937c5.37025 7.97246 11.48122 13.72005 23.3328 21.69251 8.70351 5.933 16.29593 10.56815 16.66629 10.19733.74073-.92703-42.59163-41.16014-45.55452-42.27257-1.11109-.37082 1.29626 4.26433 5.55543 10.38273z"/><path d="m-298.04524.51132c4.02063 1.87677 9.15444 3.35576 11.74346 3.44305 3.05977.10311 2.24753-.64977-3.46312-2.8737-4.47016-1.74681-9.81627-4.68393-12.18933-6.50515-4.25417-3.48071-4.25417-3.48071-3.80835-.41856.25476 1.74977 3.46131 4.46971 7.71734 6.35436z"/><path d="m-323.05513-35.66219c2.59254 10.38273 13.33304 29.47955 17.03666 30.22117 3.33325.55622 3.33325.37081.55554-2.78109-4.62953-5.37677-14.6293-25.0298-14.6293-28.73792 0-2.03947-.92591-3.52271-2.03699-3.52271-1.29627 0-1.66663 1.85406-.92591 4.82055z"/><path d="m-434.36234-48.68096c-.0643.36517 3.41169 3.04976 7.76737 6.07791 4.35569 3.02816 9.43027 7.31281 11.11475 9.49286 2.88617 3.89832 19.23584 13.5623 20.76967 12.32695 1.50167-1.05275-19.5583-18.13762-28.46261-23.09838-10.59935-6.01307-10.96409-6.07747-11.18918-4.79934z"/><path d="m-428.39652-34.41711c0 .37081 3.88881 2.41028 8.70351 4.63515 4.81471 2.22487 10.55532 5.56219 12.59231 7.41625 3.51844 3.33731 21.29582 10.01192 22.59208 8.52867 1.29627-1.29784-22.4069-14.46167-32.03631-17.79898-11.48122-4.07893-11.85159-4.07893-11.85159-2.78109z"/><path d="m-345.80579-27.87514c7.03688 12.97842 14.25894 21.50709 17.22183 20.58006 1.48144-.55622-1.85181-5.93299-9.07386-14.64707-6.48134-7.60164-12.03677-14.27626-12.59231-14.83247-.55555-.55622 1.48145 3.52271 4.44434 8.89948z"/><path d="m-336.70533-32.93386c0 2.03946 7.22207 16.13033 11.48122 22.06332 2.40735 3.33731 5.18506 5.19137 8.33314 5.19137 4.62953 0 4.62953 0-2.40735-7.97246-4.07398-4.26434-9.44422-10.75355-12.22194-14.27627-2.77771-3.52272-5.18507-5.74759-5.18507-5.00596z"/><path d="m-353.73109-26.94761c0 2.78109 13.53686 21.32169 15.63412 21.32169.9533 0-1.33462-4.44975-5.33848-9.82652-8.96102-12.2368-10.29564-13.53464-10.29564-11.49517z"/><path d="m-366.51922 24.14383c-12.22194 4.82055-14.81448 6.48921-14.81448 9.08489 0 1.11244 1.29627.92703 3.33326-.74162 1.66663-1.66866 7.7776-3.89353 13.33303-5.19137s12.22195-3.52271 14.81448-4.82056l4.62953-2.41027h-5.55543c-2.9629.1854-10.18496 2.03946-15.74039 4.07893z"/><path d="m-401.22305-7.35152c9.13121 8.31346 39.67052 24.01803 55.1449 28.63883 4.19294 1.23431 10.99609 1.51742 14.84038.70844l7.16654-1.42774-7.07313-3.73624c-11.40874-5.90505-30.14459-18.41336-36.87032-24.44653-7.32712-6.60325-7.08912-4.32231.36529 4.7995 2.91217 3.6741 11.5207 10.00766 19.06852 13.96552 7.61116 4.13207 12.92815 7.91632 12.05808 8.2334-2.26217.82435-23.1495-11.09722-39.03716-22.27579-17.26441-12.2553-17.97645-12.58773-11.55077-4.66947 3.14952 3.7849 8.9732 8.96297 13.19813 11.36943 4.11426 2.64413 6.9311 4.97181 6.06103 5.28887-1.74013.63415-12.56349-5.28694-26.69439-14.34343-3.94024-2.70754-9.30457-6.07993-11.63072-7.5999-2.5635-1.6308-.2687.88713 4.95362 5.49511z"/><path d="m-399.8784-9.94425-7.40724 2.41028 5.55543.92703c2.9629.74162 6.8517.37081 8.70351-.55622 1.66663-.92703 4.99988-1.66866 7.40724-1.85406 4.07398 0 4.07398-.18541.55554-1.66866-4.62952-2.03946-5.74061-2.03946-14.81448.74163z"/><path d="m-390.75133-4.91191c-3.14808 2.41028-2.96289 2.59569 3.8888 1.48325 4.07398-.55622 9.99978-1.66865 12.96267-2.41028 4.81471-1.29784 4.44435-1.48325-3.8888-1.66865-5.55543-.18541-10.7405.92703-12.96267 2.59568z"/><path d="m-436.75626-24.40568c30.55486 5.56218 91.84978 26.14225 88.14616 29.66496-.92591.92703-18.14774-3.33731-20.5551-5.00596-.9259-.92703-9.99977-.55622-19.99954.74162-18.70328 2.03947-21.85136 3.70812-21.481 11.30977.18518 3.70812.18518 3.70812 1.11109 0 1.66663-6.86002 4.44434-8.34327 14.99966-8.34327 11.48122 0 42.96199 4.63515 56.85056 8.34327 18.5181 5.19137 19.07365 5.19137 12.96267 1.85406-7.96278-4.44975-19.99954-12.60761-22.22172-15.01789-4.07398-4.63515-77.96119-25.02981-88.70169-24.659-4.99989.37082-5.18507.37082-1.11109 1.11244z"/><path d="m-422.7086-14.52639c-2.22217 1.66865-4.62953 5.56218-5.18507 8.71408-1.11109 5.37677-1.11109 5.37677 1.85181 1.85406 7.7776-9.82652 8.33314-10.19733 17.96255-10.38274 7.77761-.1854 8.88869-.55622 5.18507-1.66865-7.7776-2.41028-15.5552-1.85406-19.81436 1.48325z"/><path d="m-328.31899-3.08447c1.48145 2.59568 15.92557 9.82652 17.03665 8.71408.55555-.55622-1.11108-2.03947-3.33326-3.33731-2.40735-1.29784-5.55543-3.33731-6.85169-4.82055-2.9629-2.78109-8.51833-3.33731-6.8517-.55622z"/><path d="m-327.20485 14.53066c1.48145 2.59568 15.92557 9.82651 17.03665 8.71408.55555-.55622-1.11108-2.03947-3.33325-3.33731-2.40736-1.29784-5.55543-3.33731-6.8517-4.82056-2.9629-2.78109-8.51833-3.3373-6.8517-.55621z"/><path d="m-347.90764-7.54502c.26644-.25756 4.43308 1.1265 9.37618 3.04861 4.94311 1.9221 11.32851 3.73826 14.07563 3.91738 4.84188.21572 21.98659 8.38266 21.82136 10.34656-.032 1.83518-25.95536-6.09185-35.04222-10.70873-10.90621-5.43552-11.16349-5.7022-10.23095-6.60382z"/><path d="m-317.2353 6.00508c-3.45459 1.33672-6.92874 3.75438-8.00818 5.48393-1.2757 2.04403-.19609 2.06358 4.25951-.17727 3.49384-1.74945 8.53842-3.18457 11.30608-3.42068 5.18206-.25597 5.18206-.25597 1.88419-2.31923-1.88452-1.17901-5.88886-1.06071-9.4416.43325z"/><path d="m-338.56119 19.31095c-10.5543 9.47681-12.88828 16.08454-9.5076 25.90178l2.92287 8.40664-.81392-8.50787c-1.25836-11.67735 1.88564-16.989 14.66334-26.21438 6.00578-4.29314 10.77873-8.18523 10.66429-8.5379-.62945-1.93964-12.56159 3.8915-17.92898 8.95173z"/><path d="m-403.89919-56.48068c5.74061 10.93896 29.07342 36.15417 42.03609 45.79529 3.51844 2.59568 9.81459 5.19136 13.70339 5.74758l7.22206 1.11244-5.37025-5.93299c-8.7035-9.45571-22.03654-27.6255-26.2957-35.59796-4.62952-8.71408-5.18507-6.48921-1.29627 4.63515 1.48145 4.44975 7.40724 13.34924 13.14785 19.65304 5.74062 6.48921 9.44424 11.86598 8.51833 11.86598-2.40735 0-17.96256-18.35519-29.07342-34.30011-12.03676-17.42816-12.5923-17.98438-9.25905-8.34327 1.66663 4.63515 5.37025 11.49518 8.51833 15.2033 2.9629 3.89352 4.81471 7.04542 3.8888 7.04542-1.85181 0-9.99977-9.2703-20.18473-22.61953-2.77771-3.89352-6.66651-8.89949-8.33314-11.12436-1.85181-2.41028-.55555.74163 2.77771 6.86002z"/><path d="m-344.16576-4.56724c0 1.29784 2.77771 4.63515 6.11097 7.23084 9.8146 7.41624 35.92512 19.83844 39.25837 18.5406 2.037-.74163-1.11108-2.78109-9.99977-6.1184-15.5552-6.1184-29.81414-14.27626-29.81414-17.05735 0-1.48325 6.11097-1.66866 21.29581-.74163 22.77727 1.29784 29.62896-1.29784 8.88869-3.1519-21.85136-2.22487-35.73993-1.66865-35.73993 1.29784z"/><path d="m-393.05354 15.2712c-7.96279 1.85406-12.22195 4.63515-12.22195 7.97246 0 1.29784.74072 1.11244 1.66663-.37081 1.48145-2.41028 16.66629-6.86002 18.14774-5.37677.37036.37081-.18518 3.1519-1.29627 5.93299s-1.48145 5.56218-.92591 6.1184c.55555.74162 1.48145-.74163 2.037-2.78109 2.22217-7.97246 9.07386-10.38274 25.55497-8.89949 8.33315.74162 17.5922 1.66865 20.55509 1.85406 3.14808.1854 7.40724 1.29784 9.62942 2.59568 4.8147 2.59569 23.51798 2.78109 21.85135.18541-.55554-.92703-4.07398-2.22487-7.96278-2.78109-3.70362-.55622-11.48122-2.41028-17.22183-3.89353-11.48122-2.96649-48.14706-3.33731-59.81346-.55622z"/><path d="m-325.43118 36.67262c-13.95666-2.49248-20.59423-.26582-26.2396 8.44555l-4.81698 7.48169 6.19506-5.88012c8.41602-8.18209 14.53219-8.97175 29.65982-4.57028 7.0765 2.09526 13.07828 3.46476 13.28538 3.15734 1.13904-1.69079-10.79651-7.5148-18.08368-8.63418z"/><path d="m-343.50334 31.5073c-25.74016 7.04543-28.70306 9.64111-24.99944 21.32169 1.48145 4.44974 1.48145 4.26434 1.66663-1.48325.18518-3.1519 1.85181-7.60164 3.70362-9.4557 3.33326-3.33731 18.33292-7.60165 36.66584-10.56815 4.44435-.55621 7.40724-1.85406 6.8517-2.78109-1.48145-2.41027-7.40724-1.66865-23.88835 2.9665z"/><path d="m-321.62662 40.56581c-12.96267 5.74759-17.22183 11.30977-17.03665 21.6925l.18518 8.89949 1.85181-8.34327c2.40735-11.49517 7.03688-15.5741 22.03654-20.39466 7.03687-2.22487 12.77749-4.44974 12.77749-4.82055 0-2.03947-13.14786-.18541-19.81437 2.96649z"/><path d="m-324.08692 56.4836c-2.22217 2.9665-3.8888 6.86002-3.8888 8.89949 0 2.41028.92591 1.85406 3.51844-2.41028 2.03699-3.33731 5.55543-7.23083 7.7776-8.89949 4.25916-2.96649 4.25916-2.96649.37036-2.96649-2.22217 0-5.55543 2.22487-7.7776 5.37677z"/><path d="m-123.87596 86.69824c15.32037 5.251769 31.147401 8.878149 46.701459 13.37231 14.75484 3.9312 29.218471 8.86458 43.896647 13.041 3.041719 1.79835 3.465457-1.2313 4.28409-3.42923-1.538365-2.27407-7.606173-2.1501-10.875887-3.48481-23.804044-5.52937-47.340161-12.111892-70.736949-19.151991-5.12424-1.280299-10.1341-3.445688-15.43998-3.720449-3.2005.619784 1.20808 3.065726 2.17062 3.37317z"/><path d="m-120.0613 82.07242c15.49416 4.71328 31.437897 7.784402 47.13914 11.732333 15.253128 3.489452 30.237207 8.173757 45.626453 11.036757 2.626592 1.05171 2.20841-2.76561 3.195754-4.33225-3.667803-1.324438-8.615241-1.811703-12.788696-2.750171-20.005332-3.56228-39.873004-7.859491-59.497624-13.139186-8.213947-1.966716-16.320877-4.51443-24.661827-5.872792-4.79103-.297227-1.16413 2.803824.9868 3.325309z"/><path d="m-128.69862 90.05967c15.02477 6.047332 30.640633 10.49809 45.93845 15.80111 14.158998 4.59852 28.058576 9.94174 41.716978 15.85456 2.81751 1.76326 4.768139.9365 5.392462-2.2003.592769-3.0134-6.514295-2.55975-8.908764-4.25674-27.209395-8.73428-54.11732-18.363663-81.144676-27.632447-2.07041-1.402574-8.89726-1.550985-4.46066 1.598717l.67775.414874z"/><path d="m-132.44347 93.85629c14.688 6.82631 30.04988 12.08927 45.049532 18.18662 13.741082 5.27543 27.275177 11.15393 39.99128 18.60755 2.568591 1.78823 5.219683 2.30825 5.937671-1.23664 1.597784-3.18923-5.783145-2.93712-7.796926-4.81926-21.456741-9.02136-42.938235-17.98045-64.504717-26.736865-6.62025-2.521539-13.01556-5.808084-19.89548-7.546249-3.9992-.368217-.1692 3.060749 1.21864 3.544844z"/><path d="m-135.9703 98.63892c14.44106 7.33537 29.61019 13.13191 44.388165 19.74966 13.369038 5.68856 26.60655 11.86262 38.56593 20.19527 2.374695 1.69279 5.5673 3.58332 6.416191-.30466 2.37856-3.25446-4.976497-3.17216-6.779813-5.09878-18.357249-8.75897-36.583739-17.79918-55.250913-25.89149-9.24636-4.01794-18.24679-8.679439-27.73465-12.096375-4.66736-1.125537-1.63186 2.559339.39509 3.446375z"/><path d="m-139.95095 102.99719c14.03778 8.08199 28.88318 14.66547 43.294973 22.0485 12.901599 6.30753 25.767684 13.01938 36.641042 22.54034 2.14458 1.67344 5.662739 5.06638 6.816094.93492 3.004291-3.15389-3.976611-3.46953-5.672433-5.43229-16.784903-9.51736-33.20275-19.71385-50.585326-28.13832-10.2516-5.09859-20.18158-10.91048-30.70875-15.415501-4.60231-1.368534-1.76317 2.470461.2144 3.462351z"/></g><path d="m11.510742 176.32921 6.860413 4.88656c9.835128 6.83291 15.243579 16.33022 14.707945 26.1313l-.363326 8.0945 3.228509-7.96395c3.531722-8.33432 3.045509-20.95432-1.12604-30.30111l-2.433735-5.45008 7.72865 3.35584c11.043981 4.64541 18.315803 12.81186 19.834551 22.51301l1.331744 7.99327 1.497375-8.46221c1.71644-8.88583-1.387844-21.12484-7.418756-29.40185l-3.517029-4.82928 8.260279 1.67992c11.770629 2.25409 20.585243 8.73528 24.094259 17.91022l2.969373 7.54299-.300546-8.58877c-.172311-9.04702-5.762425-20.37615-13.385551-27.22237l-4.446711-3.99397 8.429917-.0679c11.983015-.2358 21.957059 4.27506 27.301387 12.52412l4.47477 6.75962-2.08243-8.33696c-2.05439-8.80992-9.883218-18.73355-18.767292-23.84924l-5.182708-2.98549 8.232227-1.81313c11.671783-2.71905 22.368473-.37169 29.314363 6.58645l5.78648 5.68453-3.77617-7.72283c-3.84563-8.19311-13.57255-16.2783-23.328873-19.43964l-5.69163-1.84112 7.673883-3.4824c10.84896-5.07838 21.80078-5.0011 30.04636.36238l6.84706 4.36299-5.30292-6.77297c-5.47126-7.21791-16.67017-13.106285-26.87263-14.174709l-5.94943-.622141 6.78027-4.998433c9.55328-7.215268 20.28203-9.414741 29.4653-5.875049l7.6071 2.845596-6.5986-5.523358c-6.8564-5.92434-19.03845-9.364106-29.24091-8.292992l-5.94943.62213 5.58877-6.294694c7.84087-9.039043 17.87768-13.41268 27.59795-11.85399l8.03319 1.204323-7.60709-4.032624c-7.94104-4.373637-20.57323-5.211583-30.32954-2.050266l-5.691636 1.842449 4.154186-7.313816c5.78513-10.468524 14.69058-16.827151 24.52304-17.321405l8.10932-.48492-8.28163-2.367342c-8.6797-2.631113-21.21039-.829969-30.094458 4.283055l-5.18271 2.984149 2.540596-8.017242c3.476957-11.438357 10.860982-19.5035459 20.376862-22.0254137l7.8315-2.15685772-8.59421-.59816753c-9.03901-.77533444-20.920516 3.58231675-28.543642 10.42854295l-4.44671 3.993973.81347-8.3676109c1.015171-11.9126239 6.557199-21.3313531 15.339755-25.7729441l7.210377-3.731511-8.531434 1.194979c-9.002955 1.116405-19.71567 7.844052-25.745246 16.1210808l-3.517029 4.8292645-.948384-8.354303c-1.489361-11.8593213 1.966224-22.2265873 9.630758-28.3880493l6.274016-5.146329-8.095979 2.937524c-8.572844 2.958844-17.647928 11.760753-21.820812 21.107539l-2.433735 5.45406-2.670167-7.97595c-3.929776-11.291805-2.708898-22.147979 3.503673-29.764218l5.065165-6.334631-7.306554 4.550792c-7.768721 4.672062-14.812131 15.163214-16.945323 25.170767l-1.243584 5.8391-4.274401-7.245896c-6.197879-10.234044-7.26648-21.102217-2.778359-29.842872l3.633241-7.245838-6.197881 5.965598c-6.62532 6.182803-11.3271616 17.907584-11.3271616 28.137618v5.966977l-5.6916309-6.201433c-8.1934903-8.720646-11.5048151-19.134536-8.9375027-28.613175l2.0410256-7.842742-4.8180493 7.124686c-5.1920591 7.417708-7.3466241 19.860557-5.2134311 29.870776l1.242248 5.836412-6.859078-4.886542c-9.835128-6.832896-15.243579-16.33022-14.707944-26.135312l.361989-8.094495-3.228508 7.967976c-3.530387 8.334294-3.044174 20.950299 1.126038 30.297086l2.433736 5.454083-7.72865-3.357182c-11.04398-4.644076-18.315803-12.811846-19.834551-22.511668l-1.331743-7.993258-1.496039 8.460861c-1.716439 8.883171 1.386508 21.12618 7.418755 29.403196l3.515694 4.826609-8.258943-1.681255c-11.770629-2.252775-20.585242-8.732645-24.094257-17.908908l-2.969373-7.541629.300543 8.587414c.172312 9.047042 5.762426 20.376163 13.385552 27.2210551l4.44671 3.99396296-8.429916.0679086c-11.983014.23712266-21.95706-4.27507816-27.301388-12.52012366l-4.4761-6.762284 2.08377 8.335616c2.05438 8.8139071 9.883209 18.7375425 18.767282 23.853232l5.181374 2.984138-8.230891 1.813144c-11.671785 2.716376-22.368455.373018-29.314365-6.585108l-5.78779-5.6858728 3.77614 7.7228078c3.84697 8.194432 13.5739 16.27562 23.330216 19.436958l5.691631 1.845115-7.673887 3.481058c-10.85029 5.079729-21.80211 5.00111-30.04769-.363689l-6.84705-4.361662 5.30292 6.770295c5.47123 7.217913 16.67016 13.106282 26.87262 14.176051l5.95076.624807-6.78026 4.995789c-9.55463 7.217901-20.28336 9.413386-29.46664 5.875049l-7.6071-2.844287 6.5986 5.522015c6.85641 5.927007 19.03845 9.364117 29.24091 8.294336l5.95076-.622141-5.59011 6.292028c-7.84086 9.041721-17.87769 13.412691-27.59793 11.856679l-8.0332-1.206989 7.60708 4.035267c7.94237 4.37498 20.57458 5.21161 30.33089 2.050278l5.691627-1.843783-4.155507 7.316485c-5.78513 10.46717-14.69059 16.82714-24.52305 17.31873l-8.10931.48358 8.28162 2.37002c8.6797 2.63111 21.21039.82997 30.094453-4.28438l5.182711-2.98551-2.539261 8.01726c-3.476957 11.44103-10.860983 19.50754-20.376863 22.02808l-7.83149 2.15686 8.59421.5995c9.03901.77267 20.920506-3.58632 28.543633-10.43254l4.446711-3.99398-.813472 8.37161c-1.01517 11.90862-6.557196 21.33001-15.339754 25.76892l-7.210378 3.73419 8.531435-1.19364c9.002955-1.1164 19.715671-7.84805 25.745246-16.12507l3.51703-4.8266.949718 8.35561c1.489362 11.85933-1.967561 22.2226-9.632094 28.38674l-6.275353 5.14633 8.095981-2.93752c8.572843-2.95751 17.649265-11.76343 21.822147-21.10888l2.432402-5.4514 2.670164 7.97195c3.929775 11.2958 2.708901 22.14799-3.503673 29.76689l-5.065163 6.33599 7.306551-4.55349c7.768723-4.67073 14.812134-15.16454 16.945326-25.17211l1.243583-5.83641 4.274399 7.24724c6.19788 10.23135 7.26648 21.1022 2.778361 29.84149l-3.633239 7.24722 6.197878-5.96963c6.625321-6.1788 11.3271603-17.90357 11.3271603-28.13494v-5.9683l5.6916298 6.20276c8.1934908 8.72199 11.5048149 19.13453 8.9388391 28.61321l-2.0436974 7.84272 4.8180503-7.12466c5.1920599-7.4204 7.3466249-19.86059 5.2147679-29.86948l-1.243582-5.83641" fill="#fcef3c" stroke="#313131" stroke-width="3"/><g transform="translate(-300 -300)"><path d="m1.5 1.5h597v180h-597z" fill="#2b5df2" stroke="#313131" stroke-width="3"/><g id="b" fill="#fcef3c" stroke="#000" stroke-width="1.317374" transform="matrix(1.8965674 0 0 1.8988638 42.18054 6.293671)"><path d="m29.738807 62.945549c-2.689943 6.351213-6.015432 8.922247-9.243665 12.043068 3.618431.01652 7.225043-.678341 10.962762-3.813951.06366 9.674934 1.458013 12.982212 4.819106 16.232778 3.322963-3.148967 4.858497-6.547149 4.847287-16.232778 3.737718 3.135613 7.334938 3.830472 10.953368 3.813951-3.227999-3.120592-6.544434-5.692883-9.234271-12.043068z" fill="#fcef3c" fill-rule="evenodd" stroke="#000" stroke-width="1.317374"/><path d="m21.706974 58.178268h29.158859v4.771534h-29.158859z" fill="#fcef3c" stroke="#000" stroke-width="1.317374"/><path d="m126.28125 7.9375c-34.941678 37.094566-48.391726 79.825556-20.625 133.34375 6.34161 16.25846 11.33844 33.04455 10.3125 52.25h20.625c-1.02594-19.20545 3.97088-35.99154 10.3125-52.25 27.76673-53.518189 14.31668-96.249184-20.625-133.34375z" fill="#fcef3c" fill-rule="evenodd" stroke="#000" stroke-width="4.382379" transform="matrix(.300607 0 0 .300607 -1.678333 0)"/><path d="m52.25 100c-35.235309.84534-58.7273133 60.01799 15.21875 88.875-24.439711-47.87444 20.895745-30.13204 26.875 4.65625h17.53125c-9.67933-70.66082-37.052039-94.072804-59.625-93.53125z" fill="#fcef3c" fill-rule="evenodd" stroke="#000" stroke-width="4.382379" transform="matrix(.300607 0 0 .300607 -1.678333 0)"/><path d="m198.96875 100c-22.30142.41761-48.7644 24.28444-58.25 93.53125h17.5c5.97956-34.78829 51.34596-52.53069 26.90625-4.65625 74.89409-29.22698 49.82147-89.548704 13.84375-88.875z" fill="#fcef3c" fill-rule="evenodd" stroke="#000" stroke-width="4.382379" transform="matrix(.300607 0 0 .300607 -1.678333 0)"/></g><use id="c" height="100%" transform="translate(189.00001 .000011)" width="100%" xlink:href="#b"/><use height="100%" transform="translate(188)" width="100%" xlink:href="#c"/></g><path d="m-298.5-298.5h597v258.5c0 286.2-298.5 398.39-298.5 398.39s-298.5-112.19-298.5-398.39z" fill="url(#a)" height="100%" stroke-width=".999916" transform="matrix(1 0 0 1.0001675 0 .04997)" width="100%"/><path d="m-298.5-298.50001h597v258.502973c0 286.203287-298.5 398.394577-298.5 398.394577s-298.5-112.19129-298.5-398.394577z" fill="none" stroke="#313131" stroke-width="3"/></svg>