<svg clip-rule="evenodd" fill-rule="evenodd" height="360mm" image-rendering="optimizeQuality" shape-rendering="geometricPrecision" text-rendering="geometricPrecision" viewBox="0 0 221000 360000" width="221mm" xmlns="http://www.w3.org/2000/svg"><g clip-rule="evenodd" fill-rule="evenodd" image-rendering="optimizeQuality" shape-rendering="geometricPrecision" text-rendering="geometricPrecision" transform="matrix(5.70084851 0 0 5.70081701 640814.586911 130676.34396)"><g stroke-width="1.000001"><path d="m-92965.792-20938.985s-18122.518 14420.0187-18122.518 29399.0385c0 14981.0185 18122.529 29783.0375 18122.529 29783.0375s18006.518-13724.016 18006.518-29783.0375c0-16057.0198-18006.529-29399.0385-18006.529-29399.0385z" fill="#92dbfc"/><path d="m-109083.23 17603.255c4716.23 11327.581 16117.43700000001 20639.796 16117.43700000001 20639.796s11603.936-8844.164 16181.363-20640.673" fill="#008ce7"/><path d="m-76721.288 14334.038c-2794.00199999999 1999.001-18515.011 1039-18515.011 1039l-879.001 2238.002 18719.012 57.999c78-306.998 264.999-671.999 329.999-982.001z" fill="#9c8431"/><path d="m-104851.31 23597.045c796.00999999999 26.008 1589.00999999999 193.997 2301.00999999999 576 1273 667.999 2011 662.998 3382.99800000001 683.998 1436.001 21.987 2563.00199999999 1079.003 4115.003 1123.003 2859.00199999999 80 4061.003 1500 1838.001 1499-1050.001-1.059-3301.00199999999-706.001-4389.003-558.001-1654.001 168-2609.999 294.002-3833.999 1267.002-1166-1400-2332-2940.002-3414.01-4591.002zm5656.008 7128.004c709.001-485.002 1197.001-864.002 1885.001-885.002 1337.001-41 1793.00199999999-868 3338.003-867 1756.001 322.001 4136.00199999999-211 5529.003-520.001 2473.00199999999-570 1300.001-2300.002-197-2928.001-1210.001-518.001-3478.00199999999-26.009-4885.003-540.001-1065.001-416-187-1079 386-1220 578-106 1198.001 85.001 1917.001 201.999 1284.001 113.001 2897.00199999999-7.011 4025.003-181.999 2331.001-356.999 2235-1041 3360.003-1057.002 821-38 1446.001-281.998 2005.999-682.001 658.001-438.999 1343.00199999999-1340.001 2139.003-1303.999l468.001 20.003c-4916.004 9510.006-13745.01 15753.008-13745.01 15753.008s-2853.00199999999-2184-6226.004-5790.001z" fill="#ffde52"/><path d="m-87894.295 23759.044c305.001 1180.002 628.001 1581.002 1868.00199999999 1884 1224.001 303.001 3094.001-887 1935.00199999999-2042.002-1103.003-1073.999-2265.003-1348.999-3253.003-2316.001-1533.001-1519.999-3636.003-4662.003-4635.003-7633.005-1093.001-3248.001-903.001-12392.0077-854.001-17024.0107 1.00599999999-54 133-86 148-108 71-102 139 33 28.001-646-29.001-174-167.001-354-166.001-530 1.00599999999-314.001-1084 343-1370.001 903-65 128 208.001 493 208.001 565 37 4444.003-441.001 13218.0077 739 17190.0127 730 2459.001 2062.001 4358.003 3268.00199999999 6115.003 723.001 1126 1769.001 2341.001 2084.001 3642.003z" fill="#8c4200"/><g fill-rule="nonzero"><g fill="#fff"><path d="m-101416.3 10748.033c-14-2.117-69-8.996-122-16.007-377-46.001-780-204.999-1075-425-420-312.9997-698-814.0017-791-1429.0017-26.00999999999-172-25.00999999999-615 1-784 74-474.998 248-894.001 498-1199.999 74-90.001 216-228.002 303-293.002 205-155.999 470-278.001 749-345.999 200-50.001 323-65 563-72.001 334-7.99 569 22.014 833 110.001 338 111.001 600.004 290.999 785.004 537.001 125 165.999 287 534.998 310 705.001 11.999 92.998-25.001 161.999-107 196.998-26.001 11.006-156 50.001-290 86-269.004 72.001-307.004 74.001-367.004 23.998-40-33.999-54-60-89-169-16-46.001-55-139.999-88-207-51-102.999-72-134.001-141-203.001-69-69.998-99-90.998-202-140.999-228-111.001-484-149-779-113.001-216 26.008-450 114.001-597 225.001-327 245.999-509 731.999-490 1306 25 783 357 1214.001 1040 1351.002 131 26.008 417 26.008 557 0 204-38 503-155.001 672-263.001l61-38v-248.999l1.00999999999-250.002-539-3.995-539-3.996-34-23.997c-19-13.997-45-40-58-59-24-33.001-24-38.002-24-331.002 1-292.999 1-298 25-330.999 13-18.997 40-45 59-58.002l34-25.003 923 2.117 923.999 2.117 33 23.997c19 12.991 45 42 59 64l24.001 39.003 2.00999999999 765c2.011 814.999 0 848-49 906.9997-13.999 17.012-78 69-141 115.001-436 320.998-900 511.998-1377 566.999-123 13.997-481 18.997-557 7.991z"/><path d="m-96587.3 10789.036c-483-37.002-848.001-181.002-1114.001-438.002-262-253-392-569.9997-450-1097.9997-16.999-147-18-302.001-16.999-1496.002 2.00999999999-1285.999 3-1334 23-1372.999 11.001-22.014 37-53.002 57-69.001l38-28.001 317-2.99c306-2.116 319-2.116 364 20.003 28 13.996 56 39.002 71 62l24.001 39.002 4 1380c3.001 1216.002 5.001 1393 20 1489.001 40 250 80 343.001 197 460 147 145.999 300 200.001 590 209.999 267.001 7.991 450.001-22.013 607.001-98.999 181-88 263-226.999 325-544.999 23-120.002 23-139.002 32-1501.003 9.001-1542.999 2.011-1414.999 85-1477.999l39-29.001h330.001c368 1.058 357-1.058 416 76.999l30 39 1.005 1238.001c1.00599999999 1242.002-5 1502.002-38 1736.003-71 497.998-236 812.9977-554 1058.9997-107 82.999-151 111-256.001 162.999-161 80.999-347 136.001-558 165.999-110 16.008-471 27.001-583 18.997z"/><path d="m-92265.297 10722.035c-13.999-2.99-45-26.008-70-50.001-51-51.001-65-97.999-50-161.999 18.999-79.002 1583.001-4115.0037 1608.001-4147.0017 49-66.001 63-68.001 429-67.001 366 0 380 2.99 430 68.001 12.999 18.997 401.001 958 862.001 2088.999 732 1797.0017 837 2062.0007 837 2110.0017 0 60.999-24 102.999-81 143.999-34 23.998-35 23.998-401 22.992h-367l-40-30.998c-51-39-50-35.002-287.001-655-108-283.0007-201-523.0017-207-532.9997-9.001-17.992-55-18.997-735-20.003-681.001-1.058-726.001 0-733 17.013-4.001 10.001-96.001 261.998-205.001 559.9977-108 297-206 556.001-218 575.001-11.999 18.997-37 45-55 58.002-33 23.997-39 23.997-363 25.003-181 1.058-340-1.058-354-3.995zm2343.001-2066.0017c-15.999-45-404-1083-414-1108-4-11.007-9.001-6.006-16.999 16.007-18 54.001-415.001 1113.001-420.001 1122-3 3.995 191 7.99 430 8.996h436.001z"/><path d="m-86608.294 10718.035c-46-13.997-96-67.001-109-116.002-7.001-27.998-9.001-712.9987-4-2120.9997l7.001-2079.001 28-37.999c56-73.001 51-72.001 552-71.001 417 1.058 451.999 2.116 487.001 20.002 20.00199999999 11.007 46.99800000001 34.999 58.999 52.999 11.986 17.013 244.999 702 517.001 1520.002 273 818.002 497.999 1488.001 500.999 1488.001 2.99000000001 0 235.001-665.001 516.001-1477.002 319.001-923.999 520.999-1492.999 538.00199999999-1518.999 55.999-81 50.99800000001-80 510-79 390.99800000001 0 408.99800000001 1.059 446 22.014 21.008 11.985 49.99800000001 39.999 65 60.999l26.00900000001 40-2.99000000001 2091.002c-3.995 1970.9997-5.001 2092.9997-22.992 2125.0007-10.00199999999 17.992-36.00199999999 46.998-58.00199999999 63l-39 29.998-319-1.058c-316 0-319 0-352.999-25.003-18.997-12.991-45.001-39.002-58.00199999999-58.002l-25.003-33.999-2.99000000001-1200.0017-2.99000000001-1198.999-55.999 158.999c-31.001 88-221.001 632-422.00199999999 1209-353 1011.0017-367.999 1052.0017-408.999 1094.0017-25.003 26.009-56.001 46-77.001 50.001-20.003 3.995-153.001 6.985-297 6.985-251-1.058-263.999-2.117-308.999-25.003-26.00900000001-12.991-57.00199999999-39-69.001-56.999-12.012-17.992-206.999-581.002-433.001-1251.0007-225.999-669.001-414.999-1217.001-418.999-1217.001-5.001 0-8.999 542.002-10.999 1206-2.011 1351.0017 4 1252.0027-80 1308.0017l-43 28.001-298 1.058c-164.001 1.059-313.001-2.99-331.001-8.996z"/></g><g fill="#bd0728"><path d="m-101444.3 10563.034c-542-62-1030-302.001-1324-651.9997-248-293.999-408-682-461-1118.002-17-143.999-16-484 2.00999999999-621.998 62-475.001 250-918.001 519-1223.002 459-520.999 1412-731.002 2186-481 488 156.999 777.999 454.999 942.999 965.999 23 71.001 40 131.001 38 134.001-6.001 3.996-422 117.002-453 123-17.999 2.99-26.999-13.997-53.999-93.999-77-226.002-194-414.001-324-518.001-284-225.999-684-308.999-1153-238.001-300 46.001-598 200.002-769 398-257 297.003-384 661-400 1142.002-15 475.999 71 838.999 270 1139 323 487.9997 1075 706.0007 1744 505.9997 214-63.9997 447-174.9977 611-291.9997l75.99800000001-53.999 1.00599999999-385v-386.001l-604.004-1.058-605-1.058 1.00999999999-236.001v-236l864 2.116 864 1.059-2.011 752.001-1.00599999999 751.999-95 70.0007c-389 286.001-779.003 459.002-1196.003 533-154 27.001-522 37-678 18.997z"/><path d="m-96657.3 10600.033c-392-43-697.001-169-913.001-379-197-191-310-427.9997-369-772.9977-42-248.002-45-376.002-43-1696.003l2.011-1293.001 265 1.059h264l2.011 1379c2.011 1467.001 1.00599999999 1443.001 57 1664.002 71 282.001 281 491 581.001 578.0007 240 70 564 71 837 2.989 324-80.999 498-254.9997 586-585.0007 68-253 67.001-229 74-1690l7.001-1345.001 265.001 1.058h263.999l-3 1247c-1.005 718-7.001 1317-13.999 1413.002-45 631.999-209 973.9997-592 1232.9997-151 103-356.001 180.999-582.001 222.999-98 17.992-576 31.001-688 18.997z"/><path d="m-92183.297 10486.035c12.999-33.002 366-948.0017 785-2034.0027l763.001-1974.001 286-2.117 287-2.989 822.001 2020.001c452 1111.001 825 2029.0017 829 2040.0027 7.001 18.998-11.001 20.003-292 20.003l-300-1.058-52-135.001c-29-73.999-134-350.999-235-613.9997l-183.001-478.002-862-3.995-862.001-5.001-224 616-224 616.0007-281-1.059h-280zm2534.001-1625.0017c-3-11.007-121-325.999-261-700.001-140-373.999-298-808-350-966.001-52-156.999-97-287.999-99-291-3-2.989-23 66.001-44 153.001-69 288.999-135 487-381 1137.002-133 354.999-246 654-250 664.998-8.001 18.997 30 20.003 691 21.008 660 1.059 699 0 694-18.997z"/><path d="m-86537.294 8507.0333 4.001-2039 400 3.995 399 3.995 539.999 1625.002c297 893 557.001 1680.001 577.001 1749.002 21.008 68 40 121.999 43 119.999 2.117-2.99 69.001-196.001 148-430.001 80.00199999999-233 350.001-1017 601.001-1742.001l457.00199999999-1318.001 357.999-2.116 358-2.117-3.995 2038.001-3.995 2039.0027-253-1.058h-253l2.99000000001-1713.0017c2.11599999999-942.002-1.05899999999-1707.002-7.012-1701.001-5 6.006-256 717.999-557.001 1582.002-300.99800000001 863.999-567.999 1628.9987-593 1699.9997l-46 129.001h-238.99800000001-239.001l-582.001-1726.0017c-319.999-948.999-585.999-1733.002-590.999-1743.001-5.001-8.996-10.999 767.001-12.999 1725.002l-4.001 1740.9997h-253l-253-1.058z"/></g></g><path d="m-104229.31-4684.9757c77 106.001 66 563.001 66 563.001 63 38 1085.00999999999-870.001 1085.00999999999-829.001 1 191.001 24 585.001 24 585.001s1058-1006.001 1102-900.001c49 119-4 702.001-4 702.001s704-776.001 833-916.001c93-100 78 126 87 491 2.00999999999 65 1153.997-849.9996 1223.997-865.9996 149.001-32 195.001 474.9996 187.001 601.9996-6.001 94 1063-609.9996 1016-517 0 0 79 541 79 541 298.001-41 1008.001-306 1435.001-237 137 22 130 91 8.001 141-2058.001 833.001-3641 2089.001-4563 3839.003-314 596.00003-410 1116.00003-327 1247.00003 0 0 370-796.00003 787-921.00003 56-16 93 510.00003 150 480.00003 0 0 316-798.00103 544-1092.00103 61-79 163 419.001 228 345.001 0 0 164-534.001 484.99800000001-906.001 46-53 129 505 180 458 333.001-307 646.001-1077 771.001-1134 87-68 102 640 185 579 0 0 475.001-954.001 759.001-1127.001 182-112 175 521 175 521 362-357 761-949 950-1206 87.001-118 39 780 132 815 119 46 899.001-688 987.001-703 58-10.001 126 209-26.001 385-12.001 13.999-964 1112.001-964 1112.001 185 35 257-17 390 17.999 395 104-740.001 755.001-721.001 877.001 0 0 547.001-10.002 364.001 96-132 77-855.001 1008.00003-855.001 975.00103 0-17 363 8.001 361 112-3 193-601 1188-607 1182-33-33 321-43 369 55 88 181.001-614 986.00097-477 1123.00097 18.999 19 401 6.001 571 44 82 18 312 1462.001 254 1404.001-12.99800000001-13.999 246.001-1354.001 403.001-1762.001 96-247 403 373 428 318-12.999 0-62-881.00097-19-1282.00097 11.999-112 233 117 230 10.002-8.001-243.001-28-503.001004 22-740.001 38-179 226 323 299.001 187.999996 0 0-228.001-871.999996-133-1118.000026 63-162.001 215 392.00003 315 414.00003 0 0-56-678.00103 49-853.00103 0 0 317 340.001 317 340.001 69-109.001 56-1165.001 120-1264.001 53-83 382 396 431 321 44-68-139-852.001-98-914.001 58-89 419.001 218 426 212.001 147-148.001 142.001-517.001 204.001-654.001 166-371 1118-419 1230-155 55.001 128 17 293-5 492 9.001 8.001 477 42 481 6.001 0 0-56 437-23 918.001 5 64 475-16 481 48 43 453-61 495-61 495 4 33 317-48 322-12.999 34 221-37 490-177 749.00003-21 37.001 448-36.00003 455 7.001 57 340 68 610.001 9.001 1090.001-5 39 459.001-339 466.001-300 70 404-10.999 840 31 1257.99997 10.001 97.001 307-288.99997 334-176.99897 27 110-66 909.99997-21 954.99997 0 0 497-25 541 17 394.001 370 319 1016 319 1016 108-80 67.001-858-42-1570.001-12.001-75 382.001-46 370.001-116 0 0-432.001-259.99997-574.001-984.00097-30-155.000004 417.001-123.000004 417.001-123.000004-124.001-284.999996-342.001-338.999996-527.001-612.999996-60-90 464-131 464-157 1.00599999999-273-442-403.00003-671-687.00003-98-121 478-127.001 478-127.001-169-235-726-338-1010-649-155-169 565-335 556-364-79-249-756-327-1084.001-608.001-68-58 428.001-254 428.001-254-50-106-1131.001-817-581.001-752 232 28 703.001 358 740.001 308 0 0-20-415 28-465 181-188.001 805 798 1017 758 0 0 78-706 174.001-725 228-43 506 1028 731 1028 30 0 47-619 163-653 131-38 278 694 444 856.001 154.001 149 156.001-572.001 246.001-435.001 153 221 190 682.001 399 885.001 136 132 161-636.001 312-533.001 175 119.001 134 517.001 331 713.001 94 93 157-507 264-419 95 77 159 811 261.001 927 130 148 280-387 415-302 97 62 74 697 164 833 183.999 282.001 280.001-341 402-245 85 65 268.999 795.00103 346.001 853.00103 171 130 264.999-332.00003 394.999-267.00003 94.001 46.00003 284.001 986.000026 362 962.000026 51.001-15.999 177.001-2142.001026-641.001-3039.002026-1332.999-1462.001-3720.001-2306.001-5668.00199999999-2327.001 0 0 979.001-195 1005-357 52.001-322.9996 538.001-284.9996 877.001-210.9996 60 12.999 28-571.001 36-574.001 303-7.001 574.001 172 864.001 348 90 55-183.001-585-87-530 372 215 786 278 1037 539 66 69.001-76-493-76-493 186-45 553.001 223 697.001 474 70 124.001-4.001-655 51-517 0 0 647.999 220 718 493 0 0 53.001-494 139.999-468 260.001 68 488.003 507 691.00199999999 570 0 0-84-440-17.992-423 488 123 1018 425 1017 423-275-688-1318.001-1409.001-3153.00199999999-1602.001-337-34.999-1704.001-91-2863.00199999999 178.001-950 220-1700.001 345-1546.001 195 628.001-615.001 1643.001-690.001 1922.00199999999-833.001 200-102-673.001-439-500.001-487 172-41 952.001-106 952.001-106 169-132-567.001-390.001-457.001-582.001 220.001-385 1521.00199999999-35 1632.00199999999-181 36-49-559.001-401-534.001-452.9997 95-195 1253.001 143.9997 1280.001-26.001 0 0-351-262-601-477-30-26 1034-312 1034-312-20-20-182-134-426-229-223-87 934.001-388 934.001-388-1466.001-670.001-5271.004 1236-6026.004 3214.0017-196 472-202-41.001-161-441.001 39-430 93-807 47-1202.001-13.999-117-311 311.001-331 197.001-76-420.0007 149-881.0007 46-1347.0007-34-157-428.001 463-480.001 306-144-431 108-1037.001 6.001-1631.001-40-232-413 497-538 289-146-241-82-1134.001-151-1269.001-56-108-388.001 428-416.001 327-450-1637.001 148.001-1841.001-716-918-30 32-222-968.001-255-934.001-354 758.001-934.001-540-1132.001-419-148 92 404 594 410 820 3.001 109-508 116-508 116 10.999 187 972.001 711.001 1003.001 916.001 25 169-680.001 127-680.001 127 22 229 823.001 447 867.001 690.001 25 134-375 164-362 300 21 209 774 622 799 835.001 16.999 148-481 209-493 347-14.999 167 1000 727 1001 884 1.00599999999 222-404 108-588 220-259 157.0007 831 793.0007 877.001 974.0007 36 159-436.001 19-452.001 164-20 190 534.001 477.001 661.001 803.001 127 322-3.001 404-185.001 276-365-257-1837.001-1821.001-2228.001-2238.0017-568-606-1731.001-1285-2891.00199999999-1325-121 37 624.001 564 629.001 755 1.005 49-335.001 122-320.001 137 206.001 206 847.001 451 847.001 451s-184 331.0007-184 331.0007c43 97 347 123 834 283 0 0-365 226-338 247 258 206 758.001 358 758.001 358s-492.001 165-492.001 165c-29 95 1107.001 550.001 1107.001 550.001s-355 306-339 322c87 87 922 280 922 280 14 13.999-590 202-586 206 219 219 823.001 290 964.001 652.001 0 0 83 206-156 167-940.001-341-2396.00199999999-1047.001-5219-770.001-2886.01 376.001-5085.01 2885.0016-5047.01 3135.0016 0 0 1032-740 1141-590z" fill="#109421"/></g><g fill="#8c4200"><ellipse cx="-76406.734" cy="-54552.762" rx="609.9892" ry="646.73071" stroke-width=".259887" transform="matrix(.8408211 -.54131311 .54149361 .84070487 0 0)"/><ellipse cx="80113.359" cy="46920.699" rx="696.67413" ry="738.63727" stroke-width=".296818" transform="matrix(-.8408212 -.54131296 -.54149568 .84070353 0 0)"/><ellipse cx="80494.336" cy="47852.852" rx="743.69092" ry="788.48462" stroke-width=".316849" transform="matrix(-.84082123 -.5413129 -.54149373 .84070479 0 0)"/></g><g stroke-width="1.000001"><path d="m-99303.305 20150.041h919.001v687h-919.001z"/><path d="m-103899.31 20592.042s6037.00900000001 459.999 9739.011-334.999c0 0 311.001 210.999-136 732.999-447 521.001-1578 632.999-2199.001 745 0 0-149 335-137 509 12.999 174.001 392 156.001 578 118.002 186-37.002 186-37.002 186-37.002s-87 652.002-2372.001 739.002c-750.001 28.998-3222.999 81-3745.999-652.002 0 0 453 37.002 571 0 118-36.999 32-509-12.00999999999-578.001-42.99000000001-67.998-1603 0-2422-757.999-203-216.001-300-446-300-528 0-7.012 250 44 250 44zm3146.01 1267s1651.99800000001 211 3553 0c0 0 50 360-37.001 497.001-87 136.999-2280.001 242.001-3385.999 50.001-178-57.002-184-275.003-130-547.002z" fill="#8c4200"/><path d="m-103059.3 20298.042s2240-2382.001 1554-7352.007c0 0 2333.99800000001 601.001 4713 4034.005 0 0 694 697 1510.001 3183.001z" fill="#fdf9ff"/><path d="m-92962.298-22666.99s-19181.012 14279.0087-19181.012 31116.021c0 16839.012 19181.012 31522.022 19181.012 31522.022s19058.02000000001-13472.01 19058.02000000001-31522.022c0-18049.0133-19058.02000000001-31116.021-19058.02000000001-31116.021zm-7 3456.003s-17064.012 12703.0067-17064.012 27682.018c0 14981.012 17064.012 28044.022 17064.012 28044.022s16955.02000000001-11985.01 16955.02000000001-28044.022c0-16057.0113-16955.02000000001-27682.018-16955.02000000001-27682.018z" fill="#c62139"/></g></g></svg>