<?xml version="1.0" encoding="UTF-8"?><svg xmlns="http://www.w3.org/2000/svg" xmlns:xlink="http://www.w3.org/1999/xlink" width="500" height="491.927" viewBox="-1 -0.968 2 1.968"><g id="A"><path d="M-.548.836A.912.912 0 0 0 .329-.722 1 1 0 0 1-.548.836"/><path d="M.618.66A.764.764 0 0 0 .422-.741 1 1 0 0 1 .618.661M0 1l-.05-1L0-.787a.31.31 0 0 0 .118.099V-.1l-.04.993z"/><path d="M-.02-.85L0-.83a.144.144 0 0 0 .252-.136A.136.136 0 0 1 0-.925"/></g><use xlink:href="#A" transform="scale(-1 1)"/></svg>