<?xml version="1.0" encoding="UTF-8" standalone="no"?>
<!-- Created with Inkscape (http://www.inkscape.org/) -->

<svg
   xmlns:dc="http://purl.org/dc/elements/1.1/"
   xmlns:cc="http://creativecommons.org/ns#"
   xmlns:rdf="http://www.w3.org/1999/02/22-rdf-syntax-ns#"
   xmlns:svg="http://www.w3.org/2000/svg"
   xmlns="http://www.w3.org/2000/svg"
   xmlns:sodipodi="http://sodipodi.sourceforge.net/DTD/sodipodi-0.dtd"
   xmlns:inkscape="http://www.inkscape.org/namespaces/inkscape"
   width="504"
   height="570"
   id="svg3354"
   sodipodi:version="0.32"
   inkscape:version="0.47 r22583"
   version="1.0"
   sodipodi:docname="Coat_of_Arms_of_Kuwait-2.svg"
   inkscape:output_extension="org.inkscape.output.svg.inkscape">
  <defs
     id="defs3356">
    <inkscape:perspective
       sodipodi:type="inkscape:persp3d"
       inkscape:vp_x="0 : 285 : 1"
       inkscape:vp_y="0 : 1000 : 0"
       inkscape:vp_z="504 : 285 : 1"
       inkscape:persp3d-origin="252 : 190 : 1"
       id="perspective47" />
  </defs>
  <sodipodi:namedview
     id="base"
     pagecolor="#ffffff"
     bordercolor="#666666"
     borderopacity="1.0"
     gridtolerance="10000"
     guidetolerance="10"
     objecttolerance="10"
     inkscape:pageopacity="0.0"
     inkscape:pageshadow="2"
     inkscape:zoom="15.839192"
     inkscape:cx="352.25132"
     inkscape:cy="365.34799"
     inkscape:document-units="px"
     inkscape:current-layer="g5347"
     showgrid="false"
     showguides="true"
     inkscape:guide-bbox="true"
     inkscape:window-width="1280"
     inkscape:window-height="1004"
     inkscape:window-x="-8"
     inkscape:window-y="-8"
     inkscape:window-maximized="1" />
  <metadata
     id="metadata3359">
    <rdf:RDF>
      <cc:Work
         rdf:about="">
        <dc:format>image/svg+xml</dc:format>
        <dc:type
           rdf:resource="http://purl.org/dc/dcmitype/StillImage" />
      </cc:Work>
    </rdf:RDF>
  </metadata>
  <g
     inkscape:label="Layer 1"
     inkscape:groupmode="layer"
     id="layer1"
     transform="translate(-211.95061,-80.619967)">
    <g
       inkscape:label="White patches"
       id="layer2"
       inkscape:groupmode="layer"
       transform="translate(-968.12726,206.14984)" />
    <g
       id="g2445"
       transform="translate(-1028.9224,202.53633)" />
    <path
       sodipodi:type="arc"
       id="path5218"
       style="fill:#000000;stroke:none"
       sodipodi:cx="-684.07068"
       sodipodi:cy="116.14146"
       sodipodi:rx="1.5"
       sodipodi:ry="1.5"
       d="m -682.57068,116.14146 c 0,0.82842 -0.67157,1.5 -1.5,1.5 -0.82843,0 -1.5,-0.67158 -1.5,-1.5 0,-0.82843 0.67157,-1.5 1.5,-1.5 0.82843,0 1.5,0.67157 1.5,1.5 z" />
    <g
       id="g5347"
       transform="translate(0.683055,2.0657738)">
      <path
         inkscape:transform-center-y="97.538385"
         inkscape:transform-center-x="-206.55367"
         sodipodi:nodetypes="csc"
         id="path5327"
         d="M 642.32322,150.32625 C 651.72372,146.61159 659.00675,144.56651 666.33274,156.63735 C 689.79777,195.30006 700.47756,240.40409 696.50776,284.74537 L 667.79884,272.69463"
         style="fill:#ffffff;fill-opacity:1;fill-rule:nonzero;stroke:#000000;stroke-width:4.28839254;stroke-linecap:butt;stroke-linejoin:round;stroke-miterlimit:4;stroke-dashoffset:0;stroke-opacity:1" />
      <path
         inkscape:transform-center-y="95.231703"
         inkscape:transform-center-x="-167.93057"
         style="fill:#feb402;fill-opacity:1;fill-rule:nonzero;stroke:#000000;stroke-width:4.28839254000000030;stroke-linecap:butt;stroke-linejoin:round;stroke-miterlimit:4;stroke-dashoffset:0;stroke-opacity:1"
         d="M 579.57839,109.4918 C 587.15754,102.80413 593.31245,98.406192 604.30388,107.2698 C 667.52573,158.25257 699.02716,242.78117 674.47835,325.28517 L 653.51312,301.6232"
         id="path5329"
         sodipodi:nodetypes="csc" />
      <path
         inkscape:transform-center-y="74.131341"
         inkscape:transform-center-x="-126.49603"
         sodipodi:nodetypes="cssc"
         id="path5331"
         d="M 513.51312,94.480344 C 518.87026,85.908915 523.51531,79.938294 536.57809,85.299156 C 611.71418,116.13442 666.0141,188.16874 666.0141,274.2475 C 666.0141,283.7025 665.36621,293.0071 664.11243,302.11928 L 664.11243,302.11928 L 643.15598,294.48034"
         style="fill:#ffffff;fill-opacity:1;fill-rule:nonzero;stroke:#000000;stroke-width:4.28839254;stroke-linecap:butt;stroke-linejoin:round;stroke-miterlimit:4;stroke-dashoffset:0;stroke-opacity:1" />
      <path
         inkscape:transform-center-y="78.548425"
         inkscape:transform-center-x="-94.488705"
         style="fill:#feb402;fill-opacity:1;fill-rule:nonzero;stroke:#000000;stroke-width:4;stroke-linecap:butt;stroke-linejoin:round;stroke-miterlimit:4;stroke-dashoffset:0;stroke-opacity:1"
         d="M 463.26758,103.23034 C 463.26758,88.944629 477.53173,87.160701 489.04227,88.814995 C 581.10753,102.04661 652.24499,180.64083 652.24499,276.26606 C 652.24499,285.08521 651.64067,293.76408 650.47121,302.26347 L 650.47121,302.26347 L 627.44169,305.90891"
         id="path5333"
         sodipodi:nodetypes="cssc" />
      <path
         style="opacity:1;fill:#ffffff;fill-opacity:1;fill-rule:nonzero;stroke:#000000;stroke-width:4.28839254;stroke-linecap:butt;stroke-linejoin:round;stroke-miterlimit:4;stroke-dashoffset:0;stroke-opacity:1"
         d="M 284.21194,150.32625 C 274.81144,146.61159 267.52841,144.56651 260.20242,156.63735 C 236.73739,195.30006 226.0576,240.40409 230.0274,284.74537 L 258.73632,272.69463"
         id="path5325"
         sodipodi:nodetypes="csc" />
      <path
         sodipodi:nodetypes="csc"
         id="path5323"
         d="M 346.95677,109.4918 C 339.37762,102.80413 333.22271,98.406192 322.23128,107.2698 C 259.00943,158.25257 227.508,242.78117 252.05681,325.28517 L 273.02204,301.6232"
         style="opacity:1;fill:#feb402;fill-opacity:1;fill-rule:nonzero;stroke:#000000;stroke-width:4.28839254000000030;stroke-linecap:butt;stroke-linejoin:round;stroke-miterlimit:4;stroke-dashoffset:0;stroke-opacity:1" />
      <path
         style="opacity:1;fill:#ffffff;fill-opacity:1;fill-rule:nonzero;stroke:#000000;stroke-width:4.28839254;stroke-linecap:butt;stroke-linejoin:round;stroke-miterlimit:4;stroke-dashoffset:0;stroke-opacity:1"
         d="M 413.02204,94.480344 C 407.6649,85.908915 403.01985,79.938294 389.95707,85.299156 C 314.82098,116.13442 260.52106,188.16874 260.52106,274.2475 C 260.52106,283.7025 261.16895,293.0071 262.42273,302.11928 L 262.42273,302.11928 L 283.37918,294.48034"
         id="path5321"
         sodipodi:nodetypes="cssc" />
      <path
         transform="translate(749.23325,76.334253)"
         sodipodi:nodetypes="cssc"
         id="path5312"
         d="M -285.96567,26.896091 C -285.96567,12.610376 -300.22982,10.826448 -311.74036,12.480742 C -403.80562,25.712358 -474.94308,104.30658 -474.94308,199.93181 C -474.94308,208.75096 -474.33876,217.42983 -473.1693,225.92922 L -473.1693,225.92922 L -450.13978,229.57466"
         style="opacity:1;fill:#feb402;fill-opacity:1;fill-rule:nonzero;stroke:#000000;stroke-width:4;stroke-linecap:butt;stroke-linejoin:round;stroke-miterlimit:4;stroke-dashoffset:0;stroke-opacity:1" />
      <path
         id="path5297"
         d="M 464.3627,102.68247 C 370.07974,102.68247 293.41417,178.04372 290.9877,271.74497 C 291.11808,270.42734 291.17044,269.11459 291.4877,267.77622 C 292.01709,265.54299 292.7867,263.2956 293.8002,261.11997 C 294.8137,258.94434 296.06661,256.84373 297.51895,254.86997 C 298.97129,252.89621 300.64181,251.0601 302.4877,249.43247 C 304.33359,247.80484 306.35603,246.3822 308.5502,245.24497 C 309.64728,244.67635 310.78079,244.19519 311.95645,243.77622 C 313.13211,243.35725 314.36412,242.99625 315.6127,242.74497 C 316.86128,242.49369 318.14061,242.34179 319.45645,242.27622 C 320.77229,242.21065 322.11026,242.23179 323.4877,242.36997 C 324.86514,242.50815 326.27307,242.76001 327.70645,243.11997 C 329.13983,243.47993 330.59779,243.95769 332.08145,244.55747 C 331.95518,242.5056 331.93922,240.48851 332.0502,238.52622 C 332.16118,236.56393 332.40427,234.66279 332.7377,232.80747 C 333.07113,230.95215 333.50912,229.16343 334.0502,227.43247 C 334.59128,225.70151 335.22251,224.02168 335.95645,222.43247 C 336.69039,220.84326 337.5132,219.3313 338.4252,217.90122 C 339.3372,216.47114 340.34994,215.12354 341.4252,213.86997 C 342.50046,212.6164 343.63897,211.46088 344.8627,210.40122 C 346.08643,209.34156 347.38031,208.37459 348.7377,207.52622 C 350.09509,206.67785 351.54269,205.92716 353.01895,205.30747 C 354.49521,204.68778 356.00111,204.21235 357.58145,203.83872 C 359.16179,203.46509 360.81809,203.1989 362.4877,203.08872 C 364.15731,202.97854 365.83736,203.01181 367.58145,203.18247 C 369.32554,203.35313 371.12143,203.68234 372.9252,204.15122 C 374.72897,204.6201 376.54529,205.24172 378.39395,206.02622 C 380.24261,206.81072 382.10895,207.75248 383.9877,208.86997 C 385.86645,209.98746 387.78116,211.27709 389.6752,212.74497 C 390.59065,211.45071 391.50647,210.33904 392.45645,209.43247 C 393.40643,208.5259 394.38806,207.8247 395.3627,207.27622 C 396.33734,206.72774 397.31076,206.33995 398.3002,206.11997 C 399.28964,205.89999 400.27458,205.85355 401.26895,205.93247 C 402.26332,206.01139 403.27951,206.20924 404.26895,206.55747 C 405.25839,206.9057 406.23181,207.37578 407.20645,207.96372 C 408.18109,208.55166 409.13147,209.25941 410.08145,210.05747 C 411.03143,210.85553 411.9785,211.76638 412.89395,212.74497 C 412.32574,209.43041 412.07652,206.35315 412.08145,203.55747 C 412.08638,200.76179 412.35368,198.24414 412.8627,195.99497 C 413.37172,193.7458 414.10614,191.76376 415.0502,190.08872 C 415.52223,189.2512 416.04486,188.49628 416.6127,187.80747 C 417.18054,187.11866 417.80143,186.50036 418.45645,185.96372 C 419.11147,185.42708 419.81663,184.96975 420.5502,184.58872 C 421.28377,184.20769 422.02796,183.90443 422.83145,183.68247 C 423.63494,183.46051 424.49793,183.33566 425.3627,183.27622 C 426.22747,183.21678 427.10153,183.23218 428.01895,183.33872 C 429.8538,183.5518 431.77528,184.09728 433.76895,184.99497 C 435.76262,185.89266 437.84176,187.13504 439.9252,188.74497 C 441.72452,186.18802 443.84293,183.57063 446.2377,181.05747 C 448.63247,178.5443 451.29246,176.12246 454.14395,173.99497 C 455.56969,172.93122 457.03629,171.96069 458.5502,171.05747 C 460.06411,170.15424 461.62171,169.31994 463.20645,168.61997 C 464.79119,167.92 466.41197,167.35519 468.0502,166.90122 C 469.68843,166.44724 471.34458,166.12897 473.01895,165.96372 C 474.69332,165.79847 476.38827,165.76626 478.08145,165.93247 C 479.77463,166.09868 481.48056,166.45456 483.1752,166.99497 C 484.86984,167.53537 486.55893,168.25638 488.2377,169.21372 C 489.91647,170.17106 491.59215,171.35921 493.2377,172.77622 C 494.88325,174.19323 496.48645,175.8568 498.08145,177.77622 C 499.67645,179.69563 501.24185,181.87417 502.76895,184.33872 C 504.29605,186.80327 505.79584,189.53629 507.2377,192.58872 C 508.67956,195.64115 510.05467,198.99943 511.39395,202.68247 C 514.07252,202.41461 516.54504,202.33635 518.8002,202.40122 C 521.05536,202.46609 523.10991,202.6953 524.9877,203.08872 C 526.86549,203.48214 528.56624,204.0272 530.1127,204.74497 C 531.65916,205.46274 533.03904,206.33202 534.3002,207.36997 C 535.56136,208.40792 536.7158,209.60979 537.7377,210.96372 C 538.7596,212.31765 539.65902,213.82923 540.4877,215.49497 C 541.31638,217.16071 542.0562,218.99037 542.7377,220.96372 C 543.4192,222.93707 544.03235,225.06193 544.6127,227.33872 C 546.62162,225.95479 548.58899,224.94531 550.4877,224.24497 C 552.38641,223.54463 554.21873,223.14899 555.9877,223.02622 C 557.75667,222.90345 559.46175,223.05245 561.08145,223.40122 C 562.70115,223.74999 564.25556,224.31193 565.70645,225.02622 C 567.15734,225.74051 568.50639,226.61495 569.76895,227.58872 C 571.03151,228.56249 572.18301,229.61774 573.2377,230.74497 C 574.29239,231.8722 575.25417,233.0703 576.08145,234.24497 C 576.90873,235.41964 577.6261,236.5664 578.20645,237.68247 C 580.92968,235.53961 583.72138,233.73441 586.58145,232.27622 C 589.44152,230.81803 592.36854,229.72878 595.26895,228.96372 C 596.71916,228.58119 598.1705,228.26513 599.6127,228.05747 C 601.0549,227.84981 602.47182,227.74545 603.89395,227.71372 C 605.31608,227.68199 606.7227,227.72472 608.1127,227.86997 C 609.5027,228.01522 610.89189,228.26542 612.2377,228.58872 C 613.58351,228.91202 614.88565,229.30507 616.1752,229.80747 C 617.46475,230.30987 618.73521,230.90617 619.95645,231.58872 C 621.17769,232.27127 622.34684,233.03745 623.4877,233.90122 C 624.62856,234.76499 625.75178,235.73018 626.8002,236.77622 C 627.84862,237.82226 628.82503,238.9531 629.76895,240.18247 C 630.71287,241.41184 631.59785,242.73746 632.4252,244.15122 C 633.25255,245.56498 634.03897,247.08326 634.7377,248.68247 C 635.23288,249.81581 635.6248,251.04929 636.0502,252.27622 C 624.32597,167.83759 552.01153,102.68247 464.3627,102.68247 z"
         style="opacity:1;fill:#0182d6;fill-opacity:1;fill-rule:nonzero;stroke:none;stroke-width:4;stroke-linecap:butt;stroke-linejoin:round;stroke-miterlimit:4;stroke-dasharray:none;stroke-dashoffset:0;stroke-opacity:1" />
      <path
         sodipodi:nodetypes="ccssccccccccc"
         d="M 635.7886,253.7544 C 636.74531,261.12751 637.09038,268.63367 637.09038,276.26606 C 637.09038,372.07749 559.33038,449.83748 463.51896,449.83748 C 367.70753,449.83748 289.94753,372.07749 289.94753,276.26606 C 289.94753,180.45463 289.85093,291.55983 289.85093,274.38724 C 289.85093,257.21465 307.51591,234.96066 331.25449,244.55711 C 329.23419,211.72715 358.52861,189.25126 388.83319,212.7373 C 396.15679,202.38324 404.74309,204.90862 412.0667,212.7373 C 407.52101,186.2208 422.42076,175.86673 439.08828,188.74618 C 453.48295,168.29059 489.15127,143.76606 510.57984,202.69463 C 532.00841,200.55178 539.15127,209.1232 543.79412,227.33749 C 559.86555,216.26606 572.7227,228.76606 577.36555,237.69463 C 599.15127,220.55178 626.86003,225.18296 635.7886,253.7544 z"
         style="fill:#ffffff;fill-rule:evenodd;stroke:none;stroke-width:4;stroke-linecap:butt;stroke-linejoin:miter;stroke-miterlimit:4;stroke-dasharray:none;stroke-opacity:1"
         id="path5175" />
      <g
         transform="translate(732.83759,-0.8263245)"
         id="g5165">
        <path
           transform="translate(211.95061,80.619967)"
           id="path5163"
           d="M -384.91072,195.91395 C -378.39286,195.11038 -369.64286,205.02109 -366.78572,205.91395 C -363.92857,206.80681 -357.94643,206.98538 -357.94643,206.98538 L -369.10714,220.64609 C -369.10714,220.64609 -370.08929,221.27109 -372.76786,221.00323 C -375.44643,220.73538 -380.98214,217.52109 -385.53572,213.32466 C -390.08929,209.12823 -397.58929,208.86038 -397.58929,208.86038 L -384.91072,195.91395 z"
           style="fill:#ffffff;fill-rule:evenodd;stroke:#000000;stroke-width:1px;stroke-linecap:butt;stroke-linejoin:miter;stroke-opacity:1" />
        <path
           style="fill:#007a3d;fill-opacity:1;fill-rule:evenodd;stroke:none;stroke-width:1px;stroke-linecap:butt;stroke-linejoin:miter;stroke-opacity:1"
           d="M -384.28125,195.875 C -384.48904,195.87979 -384.70257,195.88114 -384.90625,195.90625 L -386,197.03125 L -384.28125,202.625 C -378.12054,202.08928 -371.88393,211.53125 -368.9375,211.53125 C -367.64484,211.53125 -364.6771,211.62229 -361.78125,211.71875 L -357.9375,207 C -357.9375,207 -363.92411,206.7991 -366.78125,205.90625 C -369.5491,205.04129 -377.83962,195.72659 -384.28125,195.875 z"
           id="path5151"
           transform="translate(211.95061,80.619967)" />
        <path
           style="fill:#ce1126;fill-opacity:1;fill-rule:evenodd;stroke:none;stroke-width:1px;stroke-linecap:butt;stroke-linejoin:miter;stroke-opacity:1"
           d="M -391.875,204.40625 L -395.28125,206.53125 L -397.59375,208.875 C -397.59375,208.875 -390.08483,209.11607 -385.53125,213.3125 C -380.97767,217.50893 -375.45983,220.73215 -372.78125,221 C -370.10268,221.26786 -369.09374,220.65625 -369.09375,220.65625 L -364.5625,215.09375 C -367.48251,215.40696 -370.52023,215.59429 -372.40625,215.1875 C -376.95982,214.20536 -381.88394,208.0491 -386.4375,207.15625 L -391.875,204.40625 z"
           transform="translate(211.95061,80.619967)"
           id="path5156" />
        <path
           style="fill:none;fill-rule:evenodd;stroke:#000000;stroke-width:1px;stroke-linecap:butt;stroke-linejoin:miter;stroke-opacity:1"
           d="M -384.91072,195.91395 C -378.39286,195.11038 -369.64286,205.02109 -366.78572,205.91395 C -363.92857,206.80681 -357.94643,206.98538 -357.94643,206.98538 L -369.10714,220.64609 C -369.10714,220.64609 -370.08929,221.27109 -372.76786,221.00323 C -375.44643,220.73538 -380.98214,217.52109 -385.53572,213.32466 C -390.08929,209.12823 -397.58929,208.86038 -397.58929,208.86038 L -384.91072,195.91395 z"
           id="path5149"
           transform="translate(211.95061,80.619967)" />
      </g>
      <path
         sodipodi:nodetypes="ccccccccccccccccccsccccccccccccccccccccccccccccccccccccccccccccccccccccccccccccccccccccccccccccccccccccccccccccccccccccccccccccccccccccccccccccccccccccccccccccccccccccccccccccccccccccccccccccccccccccccc"
         id="path5143"
         d="m 475.73187,206.98732 c 15.3628,-7.45756 30.64569,-14.99813 45.9506,-22.53528 5.68157,0.77627 0.67399,2.96978 -1.80753,4.82844 -14.72205,10.16547 -28.71418,22.10866 -38.60044,37.15416 -6.19229,12.24508 -11.88001,24.81308 -16.02403,37.9083 6.28498,-3.01339 11.90448,-7.30975 17.90846,-10.87361 6.4533,-11.73999 12.29236,-23.85869 19.39316,-35.21217 3.26062,2.34282 2.00725,6.97761 3.07366,10.43458 -0.0206,7.03699 1.90168,11.40586 8.13036,5.07191 14.51967,-9.17685 28.87087,-18.61524 43.38181,-27.80658 3.392,4.08074 -4.73099,6.7062 -5.91563,10.37545 -3.80465,4.13701 -6.93546,8.72762 -9.04264,13.94774 -7.81296,6.00196 -10.36336,16.1274 -14.71879,24.58975 -1.86899,8.1684 -5.149,16.13552 -4.56771,24.65334 -0.31806,7.99768 -0.77109,16.00244 0.85976,23.89848 3.48223,-0.21443 7.5693,0.9107 10.70534,-0.07 8.76729,-10.48408 15.9875,-17.79867 25.33739,-27.77058 0.14958,1.63246 0.2836,-0.0749 1.59324,0.36332 -3.11803,0.0961 3.19319,7.24928 2.04379,9.10452 -2.35161,3.79571 -4.39477,1.30177 -10.98425,2.88594 -4.10234,1.47096 -4.48669,1.02352 -7.37471,4.65223 -2.94842,3.61154 -5.89675,7.22308 -8.8451,10.83462 11.08442,0.26528 22.16883,0.53064 33.25324,0.79593 -8.28157,9.36923 -23.20184,36.86485 -27.40585,48.69836 -42.51781,7.0348 -88.41079,-0.0495 -135.36663,0.99689 -3.93236,-7.85123 -16.6933,-21.19454 -22.47266,-27.7172 -5.09505,-4.77272 -10.1901,-9.54536 -15.28515,-14.31809 -8.84101,1.0223 -17.7306,1.84378 -26.62467,2.12816 -3.95176,-11.8702 -1.36668,-24.76883 3.18982,-36.01574 3.28999,-2.69407 2.9913,-4.92267 -0.82606,-6.69458 22.13402,-11.65363 44.96512,-22.19065 67.42696,-33.3067 6.05334,-18.59424 11.90112,-37.3627 18.05621,-55.85657 1.49086,-2.1826 2.10095,5.00291 3.68797,6.41768 3.87471,10.93092 7.94441,21.90674 12.57819,32.49295 9.8263,-4.55106 19.53904,-9.34901 29.29189,-14.0556 m -17.3325,103.19992 c 6.50001,2.79348 1.48841,-11.71491 0.35767,-7.60194 -0.66987,2.53067 -4.62184,5.09579 -2.9638,7.60194 0.86871,0 1.73742,0 2.60613,0 z m 12.40633,0 c 2.25407,-0.60626 8.59744,1.70266 7.37915,-2.2532 -1.71472,-2.67019 -1.25085,-8.5171 -5.63699,-7.29185 -5.15781,0.22939 -14.96862,-1.28328 -9.55312,6.71194 -0.24264,4.89792 4.82964,2.11423 7.81096,2.83311 z m 12.62572,-0.15536 c 4.85489,1.47414 2.03551,-4.84555 3.9726,-6.21209 3.81218,1.96667 7.69241,-3.22209 2.63889,-3.18372 -5.13651,0.54099 -16.47239,-2.48013 -10.98929,5.71868 1.10656,2.66295 0.76015,4.83736 4.3778,3.67713 z m -138.86183,-2.09617 c 3.62636,-5.01174 13.41594,-3.27852 15.1189,-8.70605 1.27269,-5.14204 5.69143,-0.13714 8.68047,0.43107 1.62624,0.0876 9.53248,-0.16404 6.54771,-2.13158 -8.63784,-7.21496 -16.69595,-15.36538 -26.03881,-21.54571 -2.23084,1.433 -2.85502,6.04263 -4.49246,8.64891 -2.14909,8.04599 -3.81109,16.64826 -1.50494,24.84532 0.56304,-0.51401 1.12608,-1.02802 1.68913,-1.54196 z m 9.25047,1.36837 c 3.61364,-0.47939 15.86198,0.55994 7.95347,-4.14458 -3.22889,0.61104 -12.73694,2.99103 -11.19651,4.16742 1.08102,-0.008 2.16203,-0.0153 3.24304,-0.0228 z m 69.84299,-0.012 c 4.04598,0.033 8.09196,0.0661 12.13795,0.0992 1.17439,-4.55694 -4.77728,-1.46738 -7.35672,-1.99635 -3.8331,0.2383 -15.98344,1.28097 -15.78461,1.80708 3.6678,0.03 7.33558,0.06 11.00338,0.09 z m 24.43373,0.0992 c 4.52172,1.23943 6.75695,-1.36024 7.92608,-5.50434 -0.71589,-3.48881 -10.99123,-0.54903 -13.61469,2.04801 -1.5068,4.3309 2.8646,3.4779 5.68861,3.45633 z m -66.11694,-2.22566 c 5.52232,1.11574 0.22218,-4.61362 -2.28155,-4.13089 -4.20553,-0.31097 -7.13424,-0.13236 -2.30341,3.02152 1.26415,1.8581 2.6566,1.38532 4.58496,1.10937 z m 7.39791,-0.95806 c 4.34254,-2.69558 0.40081,-5.2128 -3.65546,-3.97966 -3.26621,-1.19629 3.35925,4.98213 3.65546,3.97966 z m 11.60125,-0.42965 c 6.23324,1.02309 14.74441,-3.3523 4.48637,-2.88581 -4.03016,-0.25493 -8.06031,-0.51003 -12.09046,-0.76505 -4.45342,5.68248 2.579,3.91416 6.0103,3.75123 0.53126,-0.0334 1.06252,-0.0669 1.59379,-0.10037 z m 13.33185,-1.34687 c 8.91262,-0.34981 -8.89292,-0.27205 0,0 z m 29.34801,-1.07348 c 4.21186,-4.0688 15.16929,0.81209 15.14141,-6.28555 -1.97873,-6.98541 -2.91237,-14.46104 -5.88791,-21.03145 -4.17491,2.69041 -8.34981,5.38081 -12.52471,8.07122 0.53285,6.61268 0.9979,13.23762 1.97587,19.80341 0.43178,-0.18585 0.86356,-0.37178 1.29534,-0.55763 z m 67.09236,0.4622 c 8.39878,0.61351 1.53328,-1.68212 -3.26735,-1.89869 -5.18449,0.4528 0.79418,2.90825 3.26735,1.89869 z m -75.74615,-0.79593 c 3.28336,-3.09554 -3.07061,-4.15484 -0.22862,0 l 0.22862,0 z m 86.62737,-0.11931 c 0.0197,-9.44253 -1.54216,-18.89096 0.20565,-28.27674 0.69604,-11.93428 5.60663,-23.09618 10.22089,-33.9772 -1.75328,-3.34944 -3.77575,-6.62119 -8.01103,-6.83785 -5.68371,-1.78527 -9.69101,3.69623 -14.41539,5.87175 -5.24588,3.6433 1.69635,12.92839 0.6253,18.60951 2.30446,14.60797 4.26897,29.27412 6.83365,43.83832 1.51455,0.24889 3.04637,0.41492 4.54093,0.77221 z m -94.06761,-1.58804 c 4.76613,0.84575 3.9573,-6.95644 7.51091,-9.38268 -0.88494,-20.10372 -1.69895,-40.25264 -2.84547,-60.35517 -3.64005,1.88206 -10.22445,1.99898 -9.45064,7.53946 -3.08807,20.16373 -6.88227,40.26315 -9.26471,60.5013 4.67566,0.62306 9.34187,1.36009 14.04991,1.69709 z m 86.03848,-0.0183 c 3.59493,-5.196 -2.12605,-17.80029 -2.14084,-25.84859 -1.58605,-10.97168 -3.59019,-21.90849 -4.82356,-32.91654 -4.56477,-1.21706 -1.79823,4.74279 -2.43257,7.37335 0.51717,16.88139 0.2531,33.81881 1.80934,50.64384 2.52746,0.26664 5.05377,0.54737 7.58763,0.74794 z m -48.81713,-1.51712 c 4.82841,-0.20225 12.60006,0.33938 7.88516,-5.89308 -1.68663,-5.48453 -4.71002,-13.16996 -7.57451,-3.46588 -0.28618,2.77931 -6.65182,8.07775 -2.7358,9.27085 l 1.12835,0.0762 1.2968,0.0119 0,0 z m 26.0861,-0.0892 c 5.03981,-3.31434 2.32739,-15.11068 4.47364,-21.33311 1.17984,-10.11454 2.33604,-20.23194 3.50539,-30.34767 -2.34942,-1.72741 -5.39447,2.97184 -8.01417,3.74159 -3.59372,2.50663 -8.17771,4.09348 -9.50978,8.70073 -3.83556,7.27895 -8.11118,14.36314 -11.25141,21.97686 1.57922,5.55003 3.96362,10.82928 6.01444,16.21599 4.92791,0.33883 9.85994,0.62695 14.78189,1.04561 z m -104.41904,-1.15052 c 10.91281,1.02787 8.82096,-14.03251 13.00841,-21.16604 3.5031,-11.66828 8.06174,-23.24096 10.54361,-35.08721 -2.61922,0.41954 -6.24801,2.92075 -9.25412,4.13805 -16.81376,8.18201 -33.62753,16.36395 -50.4413,24.54597 -0.66482,3.18428 4.38002,4.5649 6.06225,7.0077 8.03719,7.02306 16.07444,14.04604 24.11168,21.06894 1.98983,-0.16914 3.97965,-0.33827 5.96947,-0.50741 z m 16.71457,0.50287 c 2.6448,-0.82792 8.43438,1.75097 8.85272,-1.45814 2.98645,-20.50352 6.91785,-40.89847 9.45371,-61.44727 -7.08633,2.26252 -11.1132,7.25484 -11.98055,14.85447 -5.02928,16.00674 -10.63699,31.90969 -15.08113,48.05094 2.91842,0 5.83684,0 8.75525,0 z m 56.98453,-3.18372 c 2.45306,-4.68589 6.02004,-9.48361 7.54037,-14.35479 -1.92087,-3.2895 -2.12632,-11.61813 -5.58983,-11.4759 -9.58852,3.16901 -6.40775,11.73132 -3.74503,19.4899 0.5907,2.11375 1.06833,4.26754 1.79449,6.34079 z m -19.99853,-15.1227 c 8.17626,-3.71334 15.67191,-8.44826 9.97004,-18.05937 -2.89529,-12.02175 -5.94871,-24.00466 -8.92965,-36.00539 -3.11909,1.59377 -7.37115,2.56441 -5.45557,6.92635 1.55619,15.69967 2.79267,31.49493 4.41518,47.13841 z m 29.53474,-2.78576 c 3.01114,-5.48763 8.70116,-13.71104 9.00412,-18.11309 -4.88931,2.67154 -9.46083,5.87142 -14.16206,8.85211 1.72226,2.46691 2.65202,11.62505 5.15794,9.26098 z m -11.59721,-8.43552 c 7.62693,-1.96961 0.77377,-9.05492 -0.18007,-13.88853 -3.86459,-10.07761 -7.77156,-20.1389 -11.65987,-30.20743 -4.36147,-1.32586 -3.39536,3.8219 -2.39815,6.40144 3.39986,13.39123 6.51605,26.8642 10.20919,40.17345 1.34297,-0.82626 2.68594,-1.6526 4.0289,-2.47893 z m 6.05879,-7.53509 c 5.12396,-11.80398 8.46996,-24.43422 15.59591,-35.27464 0.26554,-2.32389 -3.62328,-6.64412 -6.40244,-6.72515 -4.18234,-1.00478 -6.5537,3.1351 -9.68499,5.11601 0.35375,-2.9978 0.19691,-7.37812 -3.31092,-7.69029 -4.20255,1.97542 -8.40512,3.95085 -12.60771,5.92619 4.06852,13.82294 9.84355,27.31501 15.23908,40.72359 0.26747,0.84648 0.92271,-1.91676 1.17107,-2.07571 z m 61.9891,-76.75541 c -1.42768,-1.0168 1.42767,-1.0168 0,0 z m -38.90667,65.26638 c 4.28916,-2.14265 8.16803,-5.01285 12.2224,-7.56135 0.41578,-6.26159 1.41624,-12.47129 2.13316,-18.70439 -5.01358,5.63607 -7.79072,13.72521 -11.8231,20.41485 -0.40065,1.5266 -3.66731,5.32208 -2.53246,5.85089 z m 17.46528,-11.14304 c 3.02821,0.11669 -1.24018,-11.20743 -1.14708,-10.17781 -0.0319,3.39265 -0.0637,6.78523 -0.0956,10.17781 0.41422,0 0.82844,0 1.24266,0 z m -86.5319,-4.31442 c 6.35753,-1.15713 4.70527,-8.36493 6.06156,-13.1636 1.04846,-8.15861 4.52323,-23.78705 3.64323,-27.34908 -4.97017,14.06507 -9.43033,28.3128 -13.78199,42.57867 1.35907,-0.68871 2.71813,-1.37735 4.0772,-2.06599 z m 9.69406,-4.8481 c 4.35825,-0.8218 4.6998,-3.99295 3.95809,-7.79782 -0.39392,-9.30548 -0.86636,-18.61366 -0.79267,-27.93019 -2.84989,3.17775 -1.85482,8.18663 -3.03175,12.16111 -1.40669,8.57123 -2.51643,17.20303 -4.33708,25.69689 1.40115,-0.70997 2.80228,-1.42002 4.20341,-2.12999 z m 7.58256,-3.57238 c 6.13073,-0.48377 4.70072,-4.84149 3.30513,-8.94293 -2.29403,-8.271 -3.66353,-17.01296 -6.99924,-24.82447 1.74806,11.1565 1.81523,22.8317 3.69411,33.7674 z m 6.44016,-3.18373 c 6.21309,-4.08337 -4.68154,-17.97906 -5.33107,-21.90141 1.45317,7.36699 3.32789,14.66703 5.33107,21.90141 z"
         style="fill:#000000;fill-opacity:1;fill-rule:nonzero;stroke:none;stroke-width:1;stroke-linecap:butt;stroke-linejoin:round;stroke-miterlimit:4;stroke-dashoffset:0;stroke-opacity:1" />
      <path
         id="path4032"
         d="M 305.74668,347.72514 C 307.12335,350.67661 308.44076,353.66446 309.98466,356.53836 C 310.72469,357.91591 311.59099,359.21818 312.36658,360.57642 C 317.39354,358.1997 322.02856,355.11641 326.44159,352.24392 C 335.32712,346.46025 343.27767,341.53987 351.65288,341.53987 C 360.02811,341.53986 367.97866,346.46024 376.86418,352.24392 C 385.74969,358.02761 395.57164,364.67857 407.58173,364.67857 C 419.59181,364.67858 429.4447,358.0276 438.33022,352.24392 C 447.21573,346.46025 455.1663,341.53987 463.54151,341.53987 C 471.91673,341.53986 479.83635,346.46024 488.72186,352.24392 C 497.60739,358.02761 507.42934,364.67857 519.43941,364.67857 C 531.4495,364.67858 541.27145,358.0276 550.15697,352.24392 C 559.04247,346.46025 566.99304,341.53987 575.36825,341.53987 C 583.74345,341.53986 591.69402,346.46024 600.57955,352.24392 C 604.95528,355.09214 609.55277,358.1439 614.53082,360.51232 C 615.40894,358.96006 616.39054,357.4786 617.22209,355.8974 C 618.63039,353.21949 619.82488,350.41677 621.08884,347.66105 C 616.23691,345.68247 611.34966,342.70266 606.11674,339.29651 C 597.23121,333.51284 587.37833,326.86185 575.36825,326.86185 C 563.35816,326.86185 553.53622,333.51284 544.6507,339.29651 C 535.76517,345.08019 527.81461,350.00056 519.43941,350.00056 C 511.06419,350.00057 503.14458,345.08019 494.25906,339.29651 C 485.37356,333.51284 475.55157,326.86185 463.54151,326.86185 C 451.53142,326.86185 441.67852,333.51284 432.79302,339.29651 C 423.9075,345.08019 415.95695,350.00056 407.58173,350.00056 C 399.20651,350.00057 391.2869,345.08019 382.40137,339.29651 C 373.51586,333.51284 363.66297,326.86185 351.65288,326.86185 C 339.64281,326.86185 329.82086,333.51284 320.93532,339.29651 C 315.63253,342.74815 310.66227,345.75082 305.74668,347.72514 z"
         style="fill:#0182d6;fill-opacity:1;fill-rule:evenodd;stroke:#000000;stroke-width:0;stroke-linecap:butt;stroke-linejoin:miter;stroke-miterlimit:4;stroke-dasharray:none;stroke-opacity:1" />
      <path
         id="path4041"
         d="M 311.43856,359.00607 C 313.34486,362.42314 315.29578,365.81323 317.40884,369.10121 C 317.83936,369.77111 318.33156,370.39196 318.76994,371.05614 C 321.41497,369.47503 323.96808,367.85897 326.44159,366.24893 C 335.32712,360.46526 343.27767,355.54487 351.65288,355.54487 C 360.02811,355.54486 367.97866,360.46526 376.86418,366.24893 C 385.74969,372.0326 395.57164,378.65153 407.58173,378.65153 C 419.59181,378.65153 429.4447,372.0326 438.33022,366.24893 C 447.21573,360.46526 455.1663,355.54487 463.54151,355.54487 C 471.91673,355.54486 479.83635,360.46526 488.72186,366.24893 C 497.60739,372.0326 507.42934,378.65153 519.43941,378.65153 C 531.4495,378.65153 541.27145,372.0326 550.15697,366.24893 C 559.04247,360.46526 566.99304,355.54487 575.36825,355.54487 C 583.74345,355.54486 591.69402,360.46526 600.57955,366.24893 C 603.0167,367.8353 605.55511,369.43145 608.1584,370.99204 C 608.79292,370.02828 609.48954,369.11721 610.10724,368.13976 C 611.99731,365.14895 613.74083,362.05381 615.45884,358.94197 C 612.41625,357.26246 609.34716,355.37216 606.11674,353.26946 C 597.23121,347.4858 587.37833,340.83481 575.36825,340.83481 C 563.35816,340.83481 553.53622,347.4858 544.6507,353.26946 C 535.76517,359.05314 527.81461,363.97351 519.43941,363.97351 C 511.06419,363.97352 503.14458,359.05314 494.25906,353.26946 C 485.37356,347.4858 475.55157,340.83481 463.54151,340.83481 C 451.53142,340.83481 441.67852,347.4858 432.79302,353.26946 C 423.9075,359.05314 415.95695,363.97351 407.58173,363.97351 C 399.20651,363.97352 391.2869,359.05314 382.40137,353.26946 C 373.51586,347.4858 363.66297,340.83481 351.65288,340.83481 C 339.64281,340.83481 329.82086,347.4858 320.93532,353.26946 C 317.66164,355.40033 314.52034,357.31247 311.43856,359.00607 z"
         style="fill:#ffffff;fill-opacity:1;fill-rule:evenodd;stroke:#000000;stroke-width:0;stroke-linecap:butt;stroke-linejoin:miter;stroke-miterlimit:4;stroke-dasharray:none;stroke-opacity:1" />
      <path
         id="path4050"
         d="M 317.59445,369.35759 C 320.11522,373.26594 322.74613,377.09728 325.51357,380.79875 C 325.81522,380.60215 326.14213,380.41682 326.44159,380.22189 C 335.32712,374.4382 343.27767,369.51782 351.65288,369.51782 C 360.02811,369.51782 367.97866,374.43821 376.86418,380.22189 C 385.74969,386.00555 395.57164,392.62449 407.58173,392.62449 C 419.59181,392.62448 429.4447,386.00557 438.33022,380.22189 C 447.21573,374.4382 455.1663,369.51782 463.54151,369.51782 C 471.91673,369.51782 479.83635,374.43821 488.72186,380.22189 C 497.60739,386.00555 507.42934,392.62449 519.43941,392.62449 C 531.4495,392.62448 541.27145,386.00557 550.15697,380.22189 C 559.04247,374.4382 566.99304,369.51782 575.36825,369.51782 C 583.74345,369.51782 591.69402,374.43821 600.57955,380.22189 C 600.84002,380.39143 601.12172,380.56381 601.38383,380.73465 C 601.63781,380.39659 601.90511,380.08129 602.15718,379.74116 C 604.6575,376.36738 607.04209,372.8602 609.3339,369.29349 C 608.26031,368.61127 607.21739,367.95884 606.11674,367.24242 C 597.23121,361.45874 587.37833,354.83982 575.36825,354.83982 C 563.35816,354.83981 553.53622,361.45874 544.6507,367.24242 C 535.76517,373.02609 527.81461,377.94647 519.43941,377.94647 C 511.06419,377.94646 503.14458,373.02609 494.25906,367.24242 C 485.37356,361.45874 475.55157,354.83982 463.54151,354.83982 C 451.53142,354.83981 441.67852,361.45874 432.79302,367.24242 C 423.9075,373.02609 415.95695,377.94647 407.58173,377.94647 C 399.20651,377.94646 391.2869,373.02609 382.40137,367.24242 C 373.51586,361.45874 363.66297,354.83982 351.65288,354.83982 C 339.64281,354.83981 329.82086,361.45874 320.93532,367.24242 C 319.79845,367.98242 318.70255,368.65434 317.59445,369.35759 z"
         style="fill:#0182d6;fill-opacity:1;fill-rule:evenodd;stroke:#000000;stroke-width:0;stroke-linecap:butt;stroke-linejoin:miter;stroke-miterlimit:4;stroke-dasharray:none;stroke-opacity:1" />
      <path
         id="path4072"
         d="M 324.33808,379.06816 C 324.81114,379.71439 325.21937,380.41542 325.69918,381.05513 C 328.0336,384.16754 330.49213,387.14402 332.9687,390.09268 C 339.34466,386.26887 345.37148,383.49078 351.65288,383.49078 C 360.02811,383.49078 367.97866,388.41116 376.86418,394.19484 C 385.74969,399.97854 395.57164,406.62949 407.58173,406.62949 C 412.01553,406.62949 416.08159,405.53053 419.9863,404.09769 C 420.31509,403.07471 420.66478,402.07167 421.13086,401.21337 C 421.69569,400.17323 422.35296,399.24892 423.07971,398.42519 C 423.80646,397.60145 424.58554,396.88115 425.4307,396.24591 C 427.12103,394.97544 429.00304,394.04547 430.90603,393.36159 C 432.80903,392.67771 434.73745,392.2399 436.50511,391.91943 C 437.21218,389.3098 438.09965,387.02008 439.1345,384.99704 C 440.16936,382.974 441.3407,381.21995 442.59912,379.70912 C 443.85754,378.19828 445.21187,376.93639 446.58962,375.86335 C 447.96737,374.79031 449.37287,373.91299 450.76573,373.20336 C 452.15858,372.49373 453.54528,371.92544 454.84902,371.50481 C 456.15276,371.08417 457.38886,370.81348 458.49924,370.60747 C 460.72002,370.19541 462.4411,370.12674 463.26309,370.12674 C 465.54935,370.12674 467.7325,370.39385 469.7902,370.8959 C 471.84788,371.39795 473.7836,372.13974 475.57487,373.07516 C 477.36613,374.01059 479.00642,375.1401 480.49339,376.44021 C 481.98035,377.74032 483.30817,379.20263 484.45295,380.79875 C 485.59774,382.39486 486.56508,384.13506 487.32983,385.95849 C 488.09457,387.78192 488.65344,389.68099 489.00027,391.66304 C 489.1601,392.57655 489.12068,393.54673 489.18587,394.48327 C 497.95412,400.19595 507.63132,406.62949 519.43941,406.62949 C 531.4495,406.6295 541.27145,399.97853 550.15697,394.19484 C 559.04247,388.41117 566.99304,383.49078 575.36825,383.49078 C 581.61692,383.49078 587.62035,386.23569 593.95965,390.02859 C 596.78276,386.70856 599.5224,383.29639 602.15718,379.74116 C 602.32716,379.51181 602.48303,379.26639 602.65213,379.0361 C 594.65816,373.89688 585.86425,368.81278 575.36825,368.81278 C 563.35816,368.81279 553.53622,375.46375 544.6507,381.24742 C 535.76517,387.0311 527.81461,391.95147 519.43941,391.95147 C 511.06419,391.95148 503.14458,387.0311 494.25906,381.24742 C 485.37356,375.46375 475.55157,368.81278 463.54151,368.81278 C 451.53142,368.81279 441.67852,375.46375 432.79302,381.24742 C 423.9075,387.0311 415.95695,391.95147 407.58173,391.95147 C 399.20651,391.95148 391.2869,387.0311 382.40137,381.24742 C 373.51586,375.46375 363.66297,368.81278 351.65288,368.81278 C 341.13612,368.81279 332.34449,373.91852 324.33808,379.06816 z"
         style="fill:#ffffff;fill-opacity:1;fill-rule:evenodd;stroke:#000000;stroke-width:0;stroke-linecap:butt;stroke-linejoin:miter;stroke-miterlimit:4;stroke-dasharray:none;stroke-opacity:1" />
      <path
         id="path4063"
         d="M 489.00027,391.85533 C 489.32297,393.7791 489.47705,395.77705 489.37148,397.78422 C 489.26249,399.85622 488.92237,401.94034 488.31971,404.0336 C 487.978,405.2205 487.85762,406.3123 487.60823,407.46274 C 487.98455,407.70645 488.3421,407.92061 488.72186,408.1678 C 497.60739,413.95148 507.42934,420.60244 519.43941,420.60244 C 531.4495,420.60243 541.27145,413.95148 550.15697,408.1678 C 559.04247,402.38412 566.99304,397.46374 575.36825,397.46374 C 578.67531,397.46374 581.91688,398.39052 585.17437,399.67506 C 588.01262,396.74815 590.81869,393.73563 593.52657,390.57341 C 594.07707,389.93055 594.591,389.23855 595.13514,388.58642 C 589.1478,385.34812 582.69162,382.78572 575.36825,382.78572 C 563.35816,382.78573 553.53622,389.43669 544.6507,395.22038 C 535.76517,401.00405 527.81461,405.92443 519.43941,405.92443 C 511.06419,405.92444 503.14458,401.00405 494.25906,395.22038 C 492.5576,394.11288 490.77885,392.97303 489.00027,391.85533 z"
         style="fill:#0182d6;fill-opacity:1;fill-rule:evenodd;stroke:#000000;stroke-width:0;stroke-linecap:butt;stroke-linejoin:miter;stroke-miterlimit:4;stroke-dasharray:none;stroke-opacity:1" />
      <path
         sodipodi:nodetypes="cscsssccccsssc"
         id="path4059"
         d="M 331.7932,388.65052 C 332.7808,389.84735 333.7239,391.10294 334.73193,392.27196 C 336.97191,394.86963 339.30449,397.31873 341.63024,399.7712 C 344.96223,398.43382 348.27104,397.46374 351.65288,397.46374 C 360.02811,397.46374 367.97866,402.38412 376.86418,408.1678 C 385.74969,413.95148 395.57164,420.60244 407.58173,420.60244 C 419.59181,420.60243 429.4447,413.95148 438.33022,408.1678 C 438.05493,406.98165 437.62232,405.73162 437.21659,404.54636 C 436.29638,401.33129 427.26377,403.09902 419.73882,404.7066 C 419.97937,403.84696 420.33107,403.11524 420.66685,402.3671 C 416.28863,404.50841 411.99797,405.92443 407.58173,405.92443 C 399.20651,405.92444 391.2869,401.00405 382.40137,395.22038 C 373.51586,389.43669 363.66297,382.78572 351.65288,382.78572 C 344.28392,382.78572 337.81117,385.38248 331.7932,388.65052 z"
         style="fill:#0182d6;fill-opacity:1;fill-rule:evenodd;stroke:#000000;stroke-width:0;stroke-linecap:butt;stroke-linejoin:miter;stroke-miterlimit:4;stroke-dasharray:none;stroke-opacity:1" />
      <path
         id="path4091"
         d="M 488.07224,405.25142 C 487.46376,407.56633 486.93807,409.85048 486.6802,412.01356 C 486.37595,414.56598 486.30862,417.0156 486.46366,419.32052 C 486.50131,419.88017 486.67849,420.34726 486.74208,420.89088 C 487.40611,421.31825 488.04726,421.70164 488.72186,422.14075 C 497.60739,427.92444 507.42934,434.5754 519.43941,434.5754 C 531.4495,434.5754 541.27145,427.92443 550.15697,422.14075 C 557.90391,417.09819 564.95631,412.92666 572.18205,411.88537 C 573.03809,411.15066 573.89843,410.49545 574.74958,409.73814 C 577.99086,406.85423 581.20177,403.79994 584.33914,400.60445 C 584.94089,399.99156 585.50559,399.30538 586.10239,398.68156 C 582.69783,397.58977 579.16769,396.75868 575.36825,396.75868 C 563.35816,396.75868 553.53622,403.40965 544.6507,409.19333 C 535.76517,414.97701 527.81461,419.89738 519.43941,419.89738 C 511.06419,419.89737 503.14458,414.977 494.25906,409.19333 C 492.25972,407.89194 490.18023,406.55418 488.07224,405.25142 z"
         style="fill:#ffffff;fill-opacity:1;fill-rule:evenodd;stroke:#000000;stroke-width:0;stroke-linecap:butt;stroke-linejoin:miter;stroke-miterlimit:4;stroke-dasharray:none;stroke-opacity:1" />
      <path
         id="path4087"
         d="M 340.70221,398.77772 C 341.91308,400.07066 343.09076,401.4362 344.32151,402.68757 C 347.44359,405.86198 350.63315,408.86801 353.8492,411.75718 C 361.42476,412.52117 368.764,416.86826 376.86418,422.14075 C 385.74969,427.92444 395.57164,434.5754 407.58173,434.5754 C 419.59181,434.5754 429.4447,427.92443 438.33022,422.14075 C 439.33557,421.48635 440.28567,420.90837 441.26896,420.28197 C 441.03865,418.20318 440.74763,416.10366 440.18626,413.80825 C 439.5887,411.36483 438.70467,408.72929 437.71154,406.05262 C 436.05258,407.09976 434.38345,408.15809 432.79302,409.19333 C 423.9075,414.97701 415.95695,419.89738 407.58173,419.89738 C 399.20651,419.89737 391.2869,414.977 382.40137,409.19333 C 373.51586,403.40966 363.66297,396.75868 351.65288,396.75868 C 347.75905,396.75868 344.18229,397.63718 340.70221,398.77772 z"
         style="fill:#ffffff;fill-opacity:1;fill-rule:evenodd;stroke:#000000;stroke-width:0;stroke-linecap:butt;stroke-linejoin:miter;stroke-miterlimit:4;stroke-dasharray:none;stroke-opacity:1" />
      <path
         id="path4104"
         d="M 486.4946,418.32703 C 486.50744,418.64532 486.44259,419.00711 486.46366,419.32052 C 486.61872,421.62544 486.99424,423.77585 487.57729,425.79423 C 488.16035,427.81261 488.9485,429.6778 489.92828,431.37059 C 490.90807,433.06339 492.07862,434.59326 493.42384,435.92142 C 494.76906,437.24959 496.29179,438.39402 497.97116,439.31851 C 499.65051,440.243 501.49521,440.95192 503.47742,441.43369 C 505.45963,441.91545 507.56514,442.17079 509.81891,442.17079 C 512.33783,442.17079 515.02245,441.92099 517.79991,441.43369 C 520.57736,440.94638 523.4463,440.20391 526.43052,439.25441 C 529.41474,438.30493 532.50969,437.14777 535.64888,435.76117 C 538.78807,434.37459 541.99606,432.78459 545.23845,430.98602 C 548.48083,429.18744 551.75075,427.17849 555.04455,424.99303 C 558.33835,422.80756 561.65003,420.4256 564.94346,417.87836 C 567.76967,415.69248 570.56703,413.32699 573.35754,410.89188 C 562.26732,411.5851 553.02787,417.7135 544.6507,423.16629 C 535.76517,428.94996 527.81461,433.87034 519.43941,433.87034 C 511.06419,433.87034 503.14458,428.94995 494.25906,423.16629 C 491.76701,421.54419 489.16096,419.91854 486.4946,418.32703 z"
         style="fill:#0182d6;fill-opacity:1;fill-rule:evenodd;stroke:#000000;stroke-width:0;stroke-linecap:butt;stroke-linejoin:miter;stroke-miterlimit:4;stroke-dasharray:none;stroke-opacity:1" />
      <path
         id="path4100"
         d="M 352.92119,410.85983 C 353.38822,411.28457 353.84468,411.75536 354.31322,412.1738 C 357.68525,415.1852 361.07259,418.06199 364.49053,420.73064 C 367.90848,423.39928 371.35273,425.86904 374.76065,428.16579 C 378.16859,430.46253 381.56505,432.58356 384.90704,434.47926 C 388.24902,436.37495 391.52397,438.04529 394.74408,439.5108 C 397.96419,440.9763 401.10573,442.22222 404.14804,443.22838 C 407.19036,444.23454 410.15569,445.01819 412.96426,445.53584 C 415.30474,445.96721 417.47252,446.10321 419.61509,446.1768 C 426.43805,443.74201 432.6203,439.8624 438.33022,436.14576 C 438.76304,435.86403 439.16999,435.62171 439.59852,435.34456 C 439.62443,435.2859 439.66588,435.24339 439.69132,435.18431 C 440.46467,433.38734 441.01734,431.3839 441.33082,429.19133 C 441.64431,426.99876 441.72965,424.61131 441.54736,422.0446 C 441.46081,420.82598 441.10202,419.43414 440.89775,418.13475 C 438.1077,419.78377 435.38894,421.47658 432.79302,423.16629 C 423.9075,428.94996 415.95695,433.87034 407.58173,433.87034 C 399.20651,433.87034 391.2869,428.94995 382.40137,423.16629 C 373.83451,417.59004 364.35248,411.30974 352.92119,410.85983 z"
         style="fill:#0182d6;fill-opacity:1;fill-rule:evenodd;stroke:#000000;stroke-width:0;stroke-linecap:butt;stroke-linejoin:miter;stroke-miterlimit:4;stroke-dasharray:none;stroke-opacity:1" />
      <path
         transform="translate(749.23325,76.334253)"
         d="m -112.14287,199.93181 c 0,95.86085 -77.71057,173.57142 -173.57142,173.57142 -95.86086,0 -173.57143,-77.71057 -173.57143,-173.57142 0,-95.86085 77.71057,-173.571428 173.57143,-173.571428 95.86085,0 173.57142,77.710578 173.57142,173.571428 z"
         sodipodi:ry="173.57143"
         sodipodi:rx="173.57143"
         sodipodi:cy="199.93181"
         sodipodi:cx="-285.71429"
         id="path5173"
         style="opacity:1;fill:none;fill-opacity:1;fill-rule:nonzero;stroke:#000000;stroke-width:4;stroke-linecap:butt;stroke-linejoin:round;stroke-miterlimit:4;stroke-dasharray:none;stroke-dashoffset:0;stroke-opacity:1"
         sodipodi:type="arc" />
      <path
         id="path3952"
         sodipodi:nodetypes="ccccccccccssscccscccccccccc"
         d="M 552.25209,501.37295 L 552.25209,501.37295 C 558.61601,498.72131 582.1272,487.23089 582.1272,487.23089 C 582.1272,487.23089 576.11682,478.03854 567.63158,473.79593 C 592.02664,469.90686 624.73018,454.17381 640.28644,432.60716 C 629.6799,432.60716 614.47717,431.54651 614.47717,431.54651 C 671.04544,400.78751 691.55144,362.25038 691.55144,362.25038 C 679.17713,362.95748 667.50992,361.18973 667.50992,361.18973 C 698.97602,325.83456 707.46126,277.75154 709.22902,250.17451 C 686.24816,270.68051 659.73179,294.36847 633.92252,302.50016 C 626.85148,376.39244 550.13813,438.15307 509.83325,438.15307 C 491.80212,438.15307 481.96064,422.66847 488.3199,401.34817 C 493.14141,385.18335 481.55855,368.61431 463.26755,368.61431 C 459.97938,368.61431 442.16494,369.49819 436.50811,389.65063 C 429.43708,390.88806 419.89119,394.07003 419.0073,406.09078 C 422.54282,404.14625 428.90675,402.55526 437.21522,401.84817 C 447.46821,426.95033 438.98297,442.15305 420.95184,442.15305 C 380.64696,442.15305 299.68363,376.39244 292.61259,302.50016 C 266.80332,294.36847 240.28695,270.68051 217.30609,250.17451 C 219.07386,277.75154 227.5591,325.83456 259.02519,361.18973 C 259.02519,361.18973 247.35799,362.95748 234.98368,362.25038 C 234.98368,362.25038 255.48967,400.78751 312.05794,431.54651 C 312.05794,431.54651 296.85522,432.60716 286.24867,432.60716 C 301.80494,454.17381 334.50846,469.90686 358.90353,473.79593 C 350.41829,478.03854 344.40791,487.23089 344.40791,487.23089 C 344.40791,487.23089 367.9191,498.72131 374.28302,501.37295 L 374.28302,501.37295"
         style="fill:#feb402;fill-opacity:1;fill-rule:evenodd;stroke:#000000;stroke-width:3.95977830999999990;stroke-linecap:butt;stroke-linejoin:miter;stroke-miterlimit:4;stroke-dasharray:none;stroke-opacity:1" />
      <path
         id="path3973"
         d="M 463.28109,446.91894 L 462.53863,447.7542 L 461.42495,448.99164 C 448.25677,463.90777 429.11049,469.96955 411.86584,472.2244 C 394.62011,474.47938 379.74621,472.90498 374.27889,472.90498 L 372.79397,472.90498 L 371.80402,472.90498 L 371.80402,473.89493 L 371.80402,475.37985 C 371.80402,507.70398 374.41796,537.8295 387.05536,566.08352 C 399.693,594.3381 422.34168,620.56803 461.95085,645.15535 L 462.75518,645.65032 L 463.28109,645.99061 L 463.807,645.65032 L 464.58039,645.15535 C 504.18957,620.56803 526.83825,594.3381 539.47589,566.08352 C 552.11329,537.8295 554.72722,507.70399 554.72722,475.37985 L 554.72722,473.89493 L 554.72722,472.90498 L 553.73728,472.90498 L 552.25236,472.90498 C 546.78503,472.90498 531.91114,474.47937 514.6654,472.2244 C 497.42091,469.96958 478.30591,463.90836 465.13724,448.99164 L 464.02355,447.7542 L 463.28109,446.91894 z"
         style="fill:#000000;fill-opacity:1;fill-rule:evenodd;stroke:none;stroke-width:2;stroke-linecap:butt;stroke-linejoin:miter;stroke-miterlimit:4;stroke-dasharray:none;stroke-opacity:1" />
      <path
         id="path3906"
         d="M 375.83865,483.23255 C 376.2714,512.30875 379.37857,539.25442 390.65688,564.46988 C 398.15573,581.2354 409.28648,597.28292 425.70711,612.76061 L 425.70711,520.35547 L 375.83865,483.23255 z"
         style="fill:#ce1126;fill-opacity:1;fill-rule:evenodd;stroke:#000000;stroke-width:0;stroke-linecap:butt;stroke-linejoin:miter;stroke-miterlimit:4;stroke-dasharray:none;stroke-opacity:1" />
      <path
         id="path3908"
         d="M 430.47122,520.07705 L 430.47122,617.12256 C 439.76692,625.321 450.61682,633.34634 463.26313,641.25246 C 475.91408,633.34495 486.75509,625.32044 496.05505,617.12256 L 496.05505,520.07705 L 430.47122,520.07705 z"
         style="fill:#ffffff;fill-rule:evenodd;stroke:none;stroke-width:1px;stroke-linecap:butt;stroke-linejoin:miter;stroke-opacity:1" />
      <path
         id="path3917"
         d="M 550.68761,483.23255 L 500.81916,520.35547 L 500.81916,612.76061 C 517.24446,597.28583 528.40084,581.23681 535.90032,564.46988 C 547.17863,539.25442 550.25487,512.30876 550.68761,483.23255 z"
         style="fill:#007a3d;fill-opacity:1;fill-rule:evenodd;stroke:#000000;stroke-width:0;stroke-linecap:butt;stroke-linejoin:miter;stroke-miterlimit:4;stroke-dasharray:none;stroke-opacity:1" />
      <path
         d="M 438.10157,399.84291 C 442.47655,398.9679 443.97655,404.71789 454.164,404.71789 C 464.35145,404.71789 470.78891,400.9679 474.5389,399.96791 C 467.60143,405.71788 456.97648,412.15535 439.10158,403.96789 M 456.85148,382.2805 C 462.60146,382.2805 467.91393,386.84297 467.91393,386.84297 L 446.03904,386.84297 C 446.03904,386.84297 450.68541,382.21799 456.85148,382.2805 z"
         style="fill:#000000;fill-rule:evenodd;stroke:none;stroke-width:1px;stroke-linecap:butt;stroke-linejoin:miter;stroke-opacity:1"
         id="path3962"
         sodipodi:nodetypes="cscccccc" />
      <path
         transform="translate(211.95061,80.619967)"
         id="path5183"
         d="M 251.5625,22.0625 C 196.93579,22.0625 148.19956,47.355268 116.375,86.84375 L 151.78125,113.9375 C 151.78125,113.9375 187.96695,65.937496 251.3125,65.9375 C 314.65805,65.9375 350.84375,113.9375 350.84375,113.9375 L 386.59375,86.59375 C 354.76529,47.240722 306.08019,22.0625 251.5625,22.0625 z"
         style="fill:#ffffff;fill-rule:evenodd;stroke:#000000;stroke-width:3;stroke-linecap:butt;stroke-linejoin:miter;stroke-miterlimit:4;stroke-dasharray:none;stroke-opacity:1" />
      <path
         sodipodi:nodetypes="ccccccccc"
         id="path5171"
         d="M 289.85093,274.38724 C 289.85093,257.21465 307.51591,234.96066 331.25449,244.55711 C 329.23419,211.72715 358.52861,189.25126 388.83319,212.7373 C 396.15679,202.38324 404.74309,204.90862 412.0667,212.7373 C 407.52101,186.2208 422.42076,175.86673 439.08828,188.74618 C 453.48295,168.29059 489.15127,143.76606 510.57984,202.69463 C 532.00841,200.55178 539.15127,209.1232 543.79412,227.33749 C 559.86555,216.26606 572.7227,228.76606 577.36555,237.69463 C 599.15127,220.55178 627.00841,225.19463 635.93698,253.76606"
         style="fill:none;fill-rule:evenodd;stroke:#000000;stroke-width:4;stroke-linecap:butt;stroke-linejoin:miter;stroke-miterlimit:4;stroke-dasharray:none;stroke-opacity:1" />
      <path
         d="M 355.67305,159.70429 C 355.67305,161.3771 354.31541,162.73475 352.6426,162.73475 C 350.96978,162.73475 349.61214,161.3771 349.61214,159.70429 C 349.61214,158.03148 350.96978,156.67383 352.6426,156.67383 C 354.31541,156.67383 355.67305,158.03148 355.67305,159.70429 z M 360.09247,156.04249 C 360.09247,157.7153 358.73483,159.07294 357.06202,159.07294 C 355.3892,159.07294 354.03156,157.7153 354.03156,156.04249 C 354.03156,154.36967 355.3892,153.01203 357.06202,153.01203 C 358.73483,153.01203 360.09247,154.36967 360.09247,156.04249 z M 376.50745,167.15417 C 376.50745,168.82698 375.14981,170.18463 373.477,170.18463 C 371.80418,170.18463 370.44654,168.82698 370.44654,167.15417 C 370.44654,165.48136 371.80418,164.12371 373.477,164.12371 C 375.14981,164.12371 376.50745,165.48136 376.50745,167.15417 z M 380.92687,163.49237 C 380.92687,165.16518 379.56923,166.52282 377.89642,166.52282 C 376.2236,166.52282 374.86596,165.16518 374.86596,163.49237 C 374.86596,161.81955 376.2236,160.46191 377.89642,160.46191 C 379.56923,160.46191 380.92687,161.81955 380.92687,163.49237 z M 345.319,173.84643 C 346.20289,173.21508 347.84439,176.87689 351.00111,176.87689 C 352.66339,176.87689 357.86312,174.43451 361.81605,170.51074 C 365.36987,166.98313 367.7949,162.08869 367.7949,159.57802 C 367.7949,156.92637 366.40594,153.26457 366.40594,153.26457 C 366.40594,153.26457 372.97193,154.40099 372.97193,152.88576 C 372.97193,151.37053 369.4364,149.35023 369.4364,146.82485 C 369.4364,144.29947 376.88627,149.4765 376.88627,153.26457 C 376.88627,157.05264 373.22447,157.05264 371.70924,158.4416 C 370.19401,159.83056 371.70924,167.15417 363.88056,174.73031 C 356.05188,182.30646 351.00111,181.67511 347.97066,178.51838 C 344.9402,175.36166 343.55124,175.36166 345.319,173.84643 z M 381.6845,169.80582 L 381.6845,169.80582 C 384.46242,165.63894 391.28095,158.4416 391.28095,150.23411 C 387.55042,152.38793 380.54807,156.4213 380.54807,145.68843 C 380.54807,134.95556 391.02841,144.1732 394.43767,144.1732 C 398.35201,144.1732 441.40977,127.0006 439.89454,124.22269 C 438.37931,121.44477 412.87296,137.10213 401.63501,137.10213 C 390.39706,137.10213 398.03634,127.19001 408.201,117.02535 C 410.91579,114.31056 411.484,117.78296 408.07473,121.19223 C 404.66547,124.60149 398.73082,131.42002 400.87739,132.80898 C 403.02397,134.19794 430.04555,119.42446 438.75812,119.42446 C 447.47068,119.42446 446.46053,122.20238 446.46053,123.84388 C 446.46053,125.48538 444.06142,128.13703 444.06142,130.40987 C 444.06142,132.68271 445.70291,135.33436 448.98591,135.33436 C 452.26891,135.33436 454.54175,133.18779 454.54175,128.51583 C 454.54175,123.84388 449.99606,112.60593 449.86979,110.33309 C 449.74352,108.06024 455.5519,108.18651 455.04683,111.34324 C 454.54175,114.49997 456.56205,127.0006 456.56205,130.66241 C 456.56205,134.32421 454.85333,140.98098 448.85964,139.37497 C 442.86595,137.76897 441.6623,132.17764 442.16738,129.52599 C 434.59124,133.81913 409.46369,147.32992 394.05887,147.32992 C 394.05887,156.67383 396.45798,160.84071 381.6845,169.80582 z M 464.76954,108.18651 C 462.37043,110.45936 464.01193,129.77852 464.26447,133.44033 C 467.42119,127.63195 465.7797,112.35339 464.76954,108.18651 z M 490.40216,116.0152 C 490.40216,127.12687 486.61409,129.52599 499.11473,137.48094 C 511.61537,145.43589 517.42374,147.32992 525.3787,147.32992 C 533.33365,147.32992 538.63695,129.77852 539.77337,128.01076 C 540.90979,126.24299 543.43517,130.03106 541.03606,133.18779 C 538.63695,136.34452 538.51068,135.5869 535.9853,141.26901 C 533.45992,146.95112 533.33365,150.23411 524.62108,150.23411 C 515.90852,150.23411 504.5443,147.70873 496.21054,141.39528 C 487.87678,135.08183 487.49798,130.66241 487.49798,127.88449 C 484.97259,130.53614 481.56333,131.16748 478.4066,127.50568 C 475.24988,123.84388 476.13376,121.82357 481.94214,121.82357 C 487.75051,121.82357 488.00305,121.06596 489.0132,118.54058 C 490.02336,116.0152 490.14963,114.7525 490.40216,116.0152 z M 474.23972,112.60593 C 474.36599,110.71189 477.90153,110.08055 479.41676,110.08055 C 480.93198,110.08055 480.17437,111.97459 481.6896,111.97459 C 483.20483,111.97459 484.46752,110.71189 485.60394,110.71189 C 486.74036,110.71189 487.75051,111.46951 487.75051,113.11101 C 487.75051,114.7525 485.98275,116.394 484.21498,116.14146 C 482.44721,115.88893 482.44721,114.12116 480.67945,114.12116 C 478.91168,114.12116 479.03795,115.25758 477.14391,115.25758 C 475.24988,115.25758 474.11345,114.62624 474.23972,112.60593 z M 517.04494,129.21031 C 522.53764,129.21031 525.50497,129.39972 526.70452,129.14718 C 527.90408,128.89464 524.24227,131.67256 517.29748,131.54629 C 510.35268,131.42002 507.00655,128.4527 508.71118,127.82135 C 510.41581,127.19001 510.92089,129.21031 517.04494,129.21031 z M 559.47134,153.51711 C 559.47134,160.20937 557.07223,165.76521 544.44533,165.76521 C 531.81842,165.76521 528.15662,155.53741 530.17692,156.4213 C 532.19723,157.30518 535.73276,163.23983 545.96055,163.23983 C 552.27401,163.23983 555.30447,162.22967 554.16804,160.58818 C 553.03162,158.94668 549.24355,159.83056 549.24355,154.02219 C 549.24355,148.21381 552.40028,148.21381 555.1782,148.21381 C 557.95612,148.21381 559.34508,150.36038 559.47134,153.51711 z M 572.35079,164.50252 C 575.25498,164.50252 575.63379,168.92194 575.63379,172.3312 C 575.63379,175.74047 574.24483,182.68527 568.31018,182.68527 C 562.37553,182.68527 556.18835,176.75062 556.18835,173.9727 C 556.18835,171.19478 557.82985,170.6897 558.84,170.6897 C 559.85015,170.6897 562.75434,178.51838 568.31018,178.51838 C 573.86602,178.51838 571.84571,175.61419 571.84571,172.58374 C 571.84571,169.55328 569.82541,170.18463 569.82541,168.16432 C 569.82541,166.14401 569.82541,164.37625 572.35079,164.50252 z M 582.19978,159.70429 C 582.19978,160.46191 566.79495,159.45175 565.53226,157.55772 C 564.26957,155.66368 571.0881,158.31533 575.50752,158.31533 C 579.92693,158.31533 583.58874,158.18906 582.19978,159.70429 z"
         style="fill:#000000;fill-opacity:1;fill-rule:nonzero;stroke:none;stroke-width:3;stroke-linecap:butt;stroke-linejoin:round;stroke-miterlimit:4;stroke-dashoffset:0;stroke-opacity:1"
         id="path5193" />
    </g>
  </g>
</svg>
