<?xml version="1.0" encoding="UTF-8"?>
<svg width="313" height="313" version="1.1" viewBox="0 0 82.815 82.815" xmlns="http://www.w3.org/2000/svg" xmlns:cc="http://creativecommons.org/ns#" xmlns:dc="http://purl.org/dc/elements/1.1/" xmlns:rdf="http://www.w3.org/1999/02/22-rdf-syntax-ns#">
 <metadata>
  <rdf:RDF>
   <cc:Work rdf:about="">
    <dc:format>image/svg+xml</dc:format>
    <dc:type rdf:resource="http://purl.org/dc/dcmitype/StillImage"/>
    <dc:title/>
   </cc:Work>
  </rdf:RDF>
 </metadata>
 <g transform="translate(-463.65 -193.29)">
  <path d="m502.1 276.09c-0.17091-0.019-0.75021-0.0775-1.2873-0.12999-0.53712-0.0525-1.2363-0.13448-1.5537-0.18221-1.2389-0.18633-1.745-0.2697-2.0864-0.34373-0.19533-0.0423-0.59484-0.12658-0.88782-0.18717-0.54963-0.11365-1.7626-0.41401-2.6191-0.6485-0.88254-0.24165-2.9149-0.92923-3.64-1.2315-0.12208-0.0509-0.30186-0.1218-0.39952-0.15761-0.0976-0.0358-0.27744-0.10888-0.39951-0.16237-2.3259-1.0192-3.3302-1.5175-4.8386-2.4009-0.53713-0.31455-1.1164-0.65123-1.2873-0.74815-3.4088-1.9333-8.3942-6.5364-11.24-10.377-1.8471-2.4935-3.9919-6.1651-4.7772-8.1778-0.0859-0.22-0.2168-0.54-0.29101-0.7111-0.24267-0.55951-0.28091-0.6567-0.61201-1.5556-0.3427-0.93033-0.7096-2.0201-0.84542-2.5111-0.0439-0.15888-0.11709-0.41889-0.16255-0.57777-1.6174-5.6532-1.9654-12.106-0.97678-18.111 0.14889-0.90445 0.30672-1.7844 0.35074-1.9556 0.0441-0.17111 0.20246-0.81111 0.35209-1.4222 0.47522-1.9408 1.2152-4.1503 2.0548-6.135 3.9383-9.3103 11.809-17.32 21.119-21.49 0.85553-0.38324 1.0821-0.47745 2.0998-0.87308 1.7349-0.67449 3.6573-1.2728 4.9865-1.5519 0.21079-0.0443 0.41054-0.0968 0.4439-0.11666 0.0728-0.0435 2.0458-0.44048 2.8573-0.57499 0.59311-0.0983 1.4464-0.20664 2.939-0.37312 1.1039-0.12312 6.1578-0.12312 7.2617 0 3.3448 0.37307 5.0309 0.68663 7.7332 1.4381 0.72292 0.20104 0.86703 0.24302 1.3317 0.38792 0.26857 0.0838 0.5682 0.1859 0.66586 0.22701 0.0976 0.0412 0.35734 0.13314 0.57708 0.20453 0.36935 0.12001 2.0293 0.78321 2.7522 1.0996 0.61135 0.26756 2.8065 1.3567 3.3293 1.6519 1.4052 0.79337 1.5019 0.8533 3.1435 1.9503 0.65467 0.43747 1.3766 0.94134 1.6043 1.1197 0.22769 0.1784 0.54789 0.42435 0.71154 0.54658 3.8005 2.8383 8.0595 7.7674 10.574 12.238 0.45732 0.81302 1.7175 3.32 1.8913 3.7625 0.14084 0.35858 0.26082 0.64369 0.50501 1.2 0.45359 1.0334 1.4873 4.2301 1.7677 5.4667 1.4507 6.3971 1.6007 12.564 0.44003 18.089-1.3549 6.4493-3.6943 11.683-7.5292 16.844-3.9206 5.2768-10.041 10.238-15.727 12.749-0.31739 0.14015-0.81679 0.36202-1.1098 0.49305-0.29298 0.13104-0.7724 0.32904-1.0654 0.44003-0.29298 0.11098-0.61259 0.23769-0.71025 0.28157-0.73651 0.33089-4.0664 1.322-5.3269 1.5854-1.5056 0.31469-1.7105 0.35239-3.18 0.58522-1.6457 0.26073-2.6527 0.32489-5.5206 0.35175-1.709 0.0159-3.2472 0.0135-3.4181-5e-3zm7.2357-0.7371c13.575-1.5204 25.163-9.3203 31.673-21.319 1.842-3.3953 3.458-7.9219 4.1026-11.491 0.57352-3.1763 0.70321-4.6379 0.69802-7.8667-5e-3 -3.282-0.29304-6.2338-0.82327-8.4444-0.0469-0.19555-0.15015-0.63555-0.22943-0.97778-2.2872-9.8726-8.5282-18.839-17.087-24.549-8.6821-5.7919-19.336-8.0431-29.586-6.2517-0.28077 0.049-0.72024 0.12597-0.97659 0.17089-2.0628 0.36148-5.1057 1.276-7.6934 2.3122-0.72117 0.28879-3.4234 1.6111-4.1812 2.046-0.36622 0.21019-0.78572 0.4512-0.93221 0.53557-4.3255 2.4911-8.6561 6.376-11.931 10.703-0.50927 0.67284-2.3206 3.381-2.525 3.7751-0.067 0.12929-0.26926 0.49506-0.44939 0.81284-2.3833 4.2044-4.0752 9.2388-4.7649 14.178-0.45629 3.2675-0.47777 8.3956-0.0466 11.111 0.0233 0.14667 0.0882 0.58667 0.14426 0.97778 2.4389 17.018 16.563 31.252 33.689 33.952 0.4883 0.077 1.0077 0.16062 1.1542 0.18584 2.0304 0.34977 7.2226 0.42345 9.766 0.13859zm-7.0137-0.14415c-11.637-0.84648-21.895-6.2662-29.13-15.39-5.9666-7.5245-9.1682-17.477-8.6528-26.898 0.15154-2.77 0.34652-4.2945 0.86121-6.7333 3.3449-15.85 16.276-28.475 32.127-31.366 0.93091-0.16982 1.4747-0.25185 2.9742-0.4487 2.4147-0.31701 6.803-0.31743 9.1001-8e-4 0.34182 0.0471 0.94109 0.12795 1.3317 0.17965 1.3729 0.1817 3.45 0.60841 4.7942 0.9849 0.76634 0.21464 3.0429 0.93933 3.2849 1.0457 0.0976 0.0429 0.61702 0.24792 1.1542 0.45559 9.0587 3.5022 17.192 11.145 21.468 20.172 9.0074 19.018 2.2013 41.52-15.844 52.381-2.8372 1.7077-5.8708 3.0267-9.5305 4.1441-4.0374 1.2326-9.4252 1.8024-13.939 1.4741zm6.8362-1.1041c0.39063-0.0534 1.0299-0.14065 1.4205-0.19391 1.9661-0.26802 3.8302-0.67153 5.7708-1.2492 0.85106-0.25334 1.6512-0.51474 1.8644-0.60911 0.0976-0.0433 0.36774-0.14025 0.60017-0.21563 0.41278-0.13388 1.1502-0.43146 1.9079-0.76999 0.20752-0.0927 0.56709-0.25289 0.79903-0.35597 0.90458-0.40196 2.2232-1.0929 3.7066-1.9422 4.8485-2.7759 10.773-8.5392 13.253-12.893 0.0975-0.17111 0.40714-0.69111 0.68816-1.1556 0.88895-1.4692 2.0559-3.8642 2.6637-5.4667 0.1298-0.34222 0.2712-0.70223 0.31423-0.80001 0.3749-0.85188 1.3672-4.3714 1.6666-5.9111 0.79575-4.092 0.99618-8.5695 0.54314-12.133-0.34759-2.7343-0.64543-4.3131-1.1882-6.2989-0.25639-0.93794-1.1198-3.4725-1.4274-4.19-0.0629-0.14667-0.23808-0.56667-0.38935-0.93334-0.36715-0.88994-1.6602-3.4456-2.1362-4.2222-0.20977-0.34221-0.4583-0.75695-0.55229-0.92162-0.56228-0.98502-2.2099-3.2477-3.4067-4.6784-5.1355-6.1391-12.456-10.767-20.194-12.766-5.6487-1.4593-12.769-1.6725-17.712-0.5304-0.19532 0.0451-0.59483 0.13127-0.88781 0.19142-1.5292 0.31394-3.5291 0.9042-5.3423 1.5767-0.70504 0.26149-0.84999 0.32141-1.737 0.71803-0.23141 0.10351-0.44251 0.18812-0.46912 0.18812-0.19657 0-3.8604 1.9435-4.5262 2.4009-0.19557 0.13438-0.51518 0.33375-0.71025 0.44306-2.4098 1.3504-6.5572 5.0376-9.149 8.1338-0.3962 0.47331-0.62262 0.7655-1.5499 2-1.2874 1.714-3.3246 5.2793-4.1648 7.2889-0.11242 0.26888-0.2761 0.64888-0.36375 0.84444-0.43871 0.97896-1.5078 4.2204-1.7738 5.3778-0.48557 2.1134-0.66437 3.1426-0.99603 5.7333-0.15418 1.2044-0.15418 6.7068 0 7.9111 0.29615 2.3132 0.44759 3.2566 0.72784 4.5333 0.48007 2.1871 1.393 5.0814 2.1236 6.7324 0.10255 0.23168 0.18641 0.44208 0.18641 0.46751 0 0.49369 2.9949 5.8075 4.0831 7.2446 0.12958 0.17111 0.49084 0.65111 0.80281 1.0667 2.5682 3.421 6.3897 6.9609 10.029 9.2904 0.71249 0.45602 0.69835 0.44762 2.1752 1.2926 2.0152 1.153 5.2503 2.5471 7.4133 3.1947 0.36622 0.10964 0.76573 0.23181 0.8878 0.27147 1.9352 0.62878 5.7423 1.2928 8.3455 1.4556 1.0068 0.063 6.0202-0.0272 6.703-0.1205zm-6.5698-0.90182c-2.783-0.28267-4.0018-0.46727-5.8596-0.88752-1.1246-0.25438-1.4918-0.34543-2.1308-0.5282-0.1709-0.0489-0.44057-0.12475-0.59927-0.16858-0.71071-0.19631-2.0228-0.6585-2.1651-0.76268-0.14741-0.10792-0.13734-0.17421 0.17195-1.1319 0.18068-0.55948 0.3298-1.0542 0.33135-1.0993 6e-3 -0.19136 0.25937-0.41849 0.37173-0.33398 0.0626 0.047 0.41339 0.17999 0.77961 0.29541 0.89702 0.28271 0.9527 0.34035 0.81757 0.8462-0.14812 0.55452-0.13684 0.63867 0.0925 0.68904 0.10987 0.0242 0.67918 0.17002 1.2651 0.32418 1.5656 0.41186 3.1247 0.71389 5.5045 1.0662 0.66565 0.0986 0.66587 0.0984 0.66587-0.48023 0-0.60532-0.0215-0.59614 1.1082-0.47262l0.94979 0.10383-0.0638 1.1177c-0.071 1.2447-0.13978 1.5232-0.37182 1.5061-0.0867-6e-3 -0.47718-0.0441-0.86783-0.0838zm4.4893 0.0113c-0.10939-0.0688-0.34279-2.4527-0.24929-2.5463 0.0543-0.0544 1.8513-0.21848 1.921-0.17539 0.0426 0.0263 0.10536 0.27256 0.13964 0.54721l0.0623 0.49936 0.50294-0.0587c1.5698-0.18315 4.3068-0.69801 5.7702-1.0855 0.47224-0.12502 0.96849-0.24747 1.1028-0.27209 0.28415-0.0521 0.30784-0.20582 0.10614-0.68911-0.20748-0.49718-0.15209-0.57469 0.58192-0.81433 0.36622-0.11958 0.75835-0.2639 0.87139-0.32072 0.26082-0.1311 0.29615-0.0775 0.5997 0.91069 0.12766 0.41556 0.28836 0.92696 0.3571 1.1364 0.0688 0.20949 0.12499 0.39599 0.12499 0.41446 0 0.0185-0.28964 0.14041-0.64366 0.27099-2.8593 1.0547-6.8653 1.9043-10.054 2.1323-0.43947 0.0314-0.85896 0.0737-0.93221 0.0939-0.0733 0.0203-0.19045 7.9e-4 -0.26047-0.0433zm-2.3402-1.3938c-0.0345-0.0345-0.0628-0.31624-0.0628-0.62586v-0.56296h1.3398l-0.0262 0.59999-0.0262 0.60001-0.58085 0.0258c-0.31946 0.0142-0.60912-2e-3 -0.64367-0.0371zm-14.912-1.3849c-0.47826-0.20603-0.49469-0.26779-0.23322-0.87633 0.21388-0.49778 0.30584-0.52506 0.90414-0.26829 0.4929 0.21154 0.53431 0.2772 0.37628 0.59656-0.0694 0.14039-0.16772 0.36525-0.21833 0.4997-0.10888 0.2892-0.25065 0.29747-0.82887 0.0484zm29.719-0.30237c-0.2559-0.57934-0.24359-0.61584 0.28394-0.84225 0.60228-0.25847 0.68863-0.23114 0.90324 0.28588 0.25911 0.62423 0.25122 0.64983-0.26635 0.86519-0.63543 0.26439-0.67323 0.25171-0.92083-0.30882zm-16.513-0.17508c-2.8447-0.16702-6.1045-0.81815-9.1445-1.8265-0.78312-0.25977-0.92723-0.31258-1.3761-0.50429-0.12206-0.0522-0.62146-0.26152-1.1098-0.4653-5.4537-2.276-10.872-6.5185-14.437-11.304-1.9863-2.6664-3.0677-4.5733-4.6017-8.1148-0.44469-1.0266-1.3946-4.0577-1.6783-5.3556-0.28278-1.2934-0.43817-2.1637-0.54356-3.0444-0.0497-0.41556-0.13053-1.0919-0.17958-1.503-0.0491-0.41111-0.0891-1.2834-0.0891-1.9384 0-0.65503-0.0464-1.3758-0.10328-1.6018l-0.10329-0.41086 1.3953-1.3136 0.16354 0.20606c0.09 0.11335 0.29003 0.38504 0.44464 0.60379l0.28108 0.39772-0.0196 1.069c-0.036 1.9623 0.39332 5.564 0.8797 7.38 0.0523 0.19556 0.13652 0.51556 0.18698 0.71112 0.0504 0.19555 0.12243 0.45555 0.15994 0.57777 0.0375 0.12223 0.11813 0.40223 0.17918 0.62223 0.061 0.22 0.21076 0.7 0.3327 1.0667 0.19645 0.59069 0.35064 0.9968 0.89436 2.3555 0.30408 0.75987 1.8732 3.7737 2.3602 4.5333 1.6508 2.5748 2.9696 4.2025 5.081 6.271 2.2016 2.157 4.3567 3.7773 7.0768 5.3207 0.71766 0.40723 2.6682 1.3589 3.297 1.6086 0.0976 0.0387 0.3174 0.1312 0.4883 0.20537 0.60819 0.26397 2.4362 0.89044 3.3293 1.141 0.19532 0.0548 0.47498 0.13334 0.62147 0.17456 0.72306 0.20343 1.6578 0.39902 2.9298 0.61307 3.6007 0.60591 7.9182 0.57086 11.053-0.0898 1.7842-0.37593 2.432-0.52883 3.0186-0.71238 0.12207-0.0382 0.46166-0.13872 0.75464-0.22336 0.60561-0.17497 1.8762-0.63204 2.1074-0.75806 0.0848-0.0462 0.1951-0.0841 0.24511-0.0841 0.0864 0 0.28676-0.0842 1.4208-0.5973 0.56538-0.25581 2.1057-1.0299 2.5423-1.2777 0.16427-0.0932 0.4446-0.25222 0.62297-0.35335 9.4603-5.3643 15.999-16.02 16.496-26.883 0.14045-3.0692 0.10937-2.9601 1.2352-4.3349 0.91185-1.1135 1.2985-1.6896 1.2985-1.9347 0-0.43776-0.31632-2.0692-0.45781-2.3612-0.0733-0.15128-0.0134-0.33963 0.31781-1 0.43339-0.86397 0.51878-0.92414 0.92044-0.64857 0.1323 0.0908 0.34986 0.23133 0.48346 0.31234 0.40843 0.2477 0.5075 0.5105 0.77913 2.0668 0.33288 1.9073 0.33352 1.886-0.0715 2.4034-0.87618 1.1192-1.5507 2.0178-1.9211 2.5594l-0.40557 0.59312v0.90079c0 1.2146-0.24371 3.9962-0.44188 5.0435-0.0416 0.22-0.12481 0.7-0.18487 1.0667-0.2888 1.7634-1.4021 5.495-2.0892 7.0026-0.11762 0.25812-0.21386 0.4893-0.21386 0.51374 0 0.31441-2.1515 4.2659-3.0462 5.5947-2.0402 3.0302-5.193 6.3787-7.8739 8.363-1.8429 1.364-2.4126 1.7643-2.9302 2.0587-0.17066 0.097-0.74976 0.43387-1.2869 0.74845-1.3684 0.80146-2.4657 1.3206-5.0605 2.394-0.38316 0.15851-2.0918 0.69677-3.0186 0.9509-1.9274 0.52852-3.1127 0.75861-5.5932 1.0857-0.72536 0.0956-4.4535 0.18217-5.4157 0.12568zm-14.827-0.56143c-0.14649-0.0857-0.60594-0.33609-1.021-0.55659-3.1571-1.6772-5.724-3.6516-8.9268-6.8664-4.2445-4.2603-6.8482-8.1261-9.046-13.431-0.18228-0.43999-0.36628-0.87999-0.40888-0.97778-1.1931-2.7388-2.124-7.7102-2.1554-11.511-0.0197-2.3818-0.11313-2.1685 1.7538-4.0048 1.5653-1.5396 1.4968-1.4322 1.7285-2.7117 0.0537-0.29627 0.0977-0.63627 0.098-0.75556 1e-3 -0.61173 0.16643-0.87092 0.84742-1.331 0.93819-0.63385 0.88601-0.63454 1.1934 0.016 0.28117 0.59506 0.32028 0.89886 0.18139 1.4093-0.0466 0.17111-0.14515 0.72104-0.2191 1.2221-0.0739 0.50102-0.19688 1.0318-0.27321 1.1796-0.12521 0.24244-1.9129 2.0452-2.7193 2.7424-0.59544 0.5147-0.64315 0.72368-0.58045 2.5419 0.0693 2.0084 0.22001 3.2668 0.68709 5.7363 0.29457 1.5574 1.1038 4.1863 1.6894 5.4879 0.0932 0.20725 0.16951 0.4038 0.16951 0.4368 0 0.20045 1.6376 3.5358 2.3065 4.6975 3.1184 5.4166 7.6144 10.182 13.027 13.808 0.79747 0.53419 1.091 0.65393 1.091 0.44511 0-0.0565 0.1013-0.23573 0.22518-0.3983l0.22517-0.29559 0.64045 0.31505c0.88544 0.43558 1.0867 0.55506 1.0694 0.63485-0.0644 0.29728-1.1189 2.3342-1.2058 2.3293-0.061-3e-3 -0.23084-0.0763-0.37733-0.16198zm32.758-1.0052c-0.64427-1.3152-0.63247-1.2775-0.41951-1.3408 0.0855-0.0254 0.48733-0.20977 0.89308-0.40972l0.73773-0.36354 0.17644 0.39935c0.097 0.21965 0.21865 0.39936 0.27024 0.39936 0.25919 0 3.373-2.254 5.2185-3.7775 4.6196-3.8136 8.478-8.8917 10.773-14.178 0.0742-0.17111 0.2164-0.49282 0.31582-0.71492 0.34703-0.77519 1.0479-2.7259 1.2681-3.5295 0.0435-0.1589 0.12177-0.4389 0.17385-0.62222 0.23916-0.84198 0.68411-2.9382 0.83488-3.9333 0.52114-3.4396 0.49021-5.5586-0.0928-6.3556l-0.19505-0.26666 0.50034-0.68416c0.2752-0.37629 0.54373-0.68629 0.59676-0.68889 0.14283-7e-3 1.227 1.1463 1.4161 1.5064 0.3318 0.63181 0.14717 5.0251-0.31378 7.4667-0.0415 0.22-0.12362 0.66-0.1824 0.97778-0.21851 1.1812-0.96372 3.8504-1.3277 4.7556-0.0393 0.0977-0.24232 0.61778-0.45113 1.1556-0.20881 0.53778-0.63205 1.5121-0.94054 2.1652-0.3085 0.6531-0.5609 1.1981-0.5609 1.2112 0 0.0244-0.96611 1.7726-1.3216 2.3916-2.5996 4.526-7.607 9.8356-12.314 13.058-1.5265 1.0449-4.1434 2.5519-4.4313 2.5519-0.0266 0-0.30706-0.52809-0.62324-1.1735zm-30.472 0.39419c-0.54407-0.27454-0.52845-0.21837-0.23764-0.85435 0.26344-0.57614 0.23547-0.56715 0.87878-0.2823 0.5626 0.24911 0.58239 0.31877 0.26737 0.94118-0.25644 0.50667-0.28122 0.51201-0.90851 0.19547zm28.436-0.19072c-0.12422-0.24544-0.22586-0.50747-0.22586-0.58232 0-0.12772 0.7978-0.58094 1.0226-0.58094 0.0922 0 0.6224 1.054 0.55833 1.1099-0.0698 0.061-0.75886 0.38498-0.93337 0.43898-0.16851 0.0522-0.22741-2e-3 -0.42172-0.38564zm-16.34-2.5037c-2.1733-0.2227-3.8867-0.51712-5.4601-0.93821-0.46388-0.12414-0.96328-0.2579-1.1098-0.29722-5.5497-1.4897-11.561-5.5562-15.508-10.491-5.8862-7.3597-8.096-16.617-6.2381-26.133 1.2189-6.2439 4.9788-12.699 9.9377-17.061 0.85186-0.74936 1.323-1.1248 2.7966-2.229 0.35808-0.26828 1.4969-1.0088 1.9532-1.2701 1.1501-0.65859 1.4939-0.84091 2.4859-1.3186 1.0756-0.51791 1.3579-0.64699 1.7312-0.79172 3.3742-1.308 5.5541-1.8315 9.0557-2.1746 2.8305-0.27736 6.5558-0.0678 9.2777 0.52198 7.5461 1.635 14.094 5.831 18.745 12.012 1.4192 1.8861 3.1232 4.9063 3.8866 6.8889 0.16003 0.41554 0.32557 0.83554 0.36788 0.93333 0.57227 1.3225 1.426 4.7459 1.6736 6.7111 0.22268 1.7673 0.2745 2.5728 0.2745 4.2667 0 2.8172-0.27757 5.0784-0.9493 7.7333-0.21092 0.83365-0.84634 2.8993-0.99803 3.2444-0.043 0.0977-0.13752 0.33778-0.2101 0.53333-1.5825 4.2638-4.864 8.915-8.5851 12.169-1.0985 0.96049-3.67 2.898-3.8462 2.898-0.0225 0-0.38488 0.21614-0.80515 0.48032-0.95884 0.6027-2.9668 1.588-4.36 2.1395-0.58596 0.23192-1.1453 0.45332-1.2429 0.49199-0.17298 0.0684-0.38403 0.13855-1.021 0.33899-0.28961 0.0911-0.48391 0.14482-1.7756 0.49059-2.8343 0.7587-7.2999 1.136-10.077 0.8515zm4.6798-0.79181c2.1187-0.20375 2.6013-0.27052 3.9764-0.55009 1.3318-0.27077 4.1299-1.0823 4.5488-1.3193 0.0848-0.048 0.19659-0.0872 0.24843-0.0872 0.0518 0 0.25967-0.08 0.46179-0.17778 0.20213-0.0977 0.39822-0.17777 0.43575-0.17777 0.12788 0 2.5148-1.1912 3.3609-1.6774 4.2352-2.4331 8.4844-6.5476 10.793-10.451 0.14297-0.24171 0.37087-0.62171 0.50642-0.84445 0.38927-0.63959 1.6069-3.1739 1.9242-4.005 0.15866-0.41556 0.36468-0.95556 0.4578-1.2 1.6723-4.3895 2.1302-10.71 1.1494-15.867-0.13316-0.70004-0.38685-1.8194-0.52381-2.3111-1.9893-7.1421-6.2955-13.144-12.457-17.364-0.61831-0.42338-1.1436-0.76977-1.1673-0.76977-0.0237 0-0.30901-0.16176-0.63405-0.35946-2.3872-1.452-5.5398-2.6577-9.06-3.465-0.43645-0.10005-1.7574-0.31126-2.8854-0.46126-2.7677-0.36804-7.9281-0.0214-10.743 0.72163-7.8273 2.0664-14.129 6.5907-18.397 13.209-0.82359 1.277-2.2891 4.0148-2.2891 4.2765 0 0.0202-0.0839 0.22615-0.18641 0.45784-2.3679 5.351-3.0167 12.383-1.6872 18.288 0.044 0.19555 0.12253 0.55555 0.17445 0.8 0.53931 2.5396 2.0299 6.1244 3.6481 8.774 3.2397 5.3043 8.7662 10.087 14.065 12.172 0.25024 0.0985 0.57484 0.23122 0.72133 0.295 0.14649 0.0638 0.40617 0.1647 0.57708 0.22426 0.1709 0.0595 0.39064 0.14287 0.48829 0.18515 0.0976 0.0423 0.45724 0.16134 0.79904 0.26459 0.34181 0.10321 0.72135 0.22302 0.84343 0.26616 0.36111 0.12759 1.8634 0.49877 2.4859 0.61421 0.31738 0.0589 0.75685 0.1407 0.97659 0.18188 2.0579 0.38566 5.4074 0.5476 7.3876 0.35716zm-8.6586-2.0619c-0.16624-0.0607-0.2332-0.13524-0.19976-0.22248 0.0277-0.0721 0.0503-0.24502 0.0503-0.3841 0-0.28951 0.15161-0.35351 0.60631-0.25597 0.40122 0.0861 0.41085 0.10534 0.28222 0.56528-0.12175 0.43538-0.23537 0.48108-0.73906 0.29727zm-0.97069-0.22505c-0.27502-0.0417-0.31483-0.24015-0.14567-0.72597 0.10339-0.29706 0.11937-0.29905 0.6883-0.0858 0.162 0.0607 0.19761 0.12373 0.15657 0.27702-0.0292 0.10912-0.0537 0.28841-0.0543 0.39841-1e-3 0.20759-0.0739 0.22293-0.64487 0.13634zm5.7042-0.53071c-1.3382-0.0589-3.9904-0.46683-5.3269-0.81937-1.2578-0.33178-1.4171-0.38116-2.6191-0.81188-1.4515-0.52015-3.7514-1.7224-5.3231-2.7826-1.3644-0.92035-3.4225-2.5758-3.421-2.7518 5.3e-4 -0.0587 0.41001-0.57346 0.91002-1.144 0.5-0.57049 1.1488-1.318 1.4418-1.6611 0.62313-0.72976 0.57291-0.71123 0.97351-0.35908 0.40952 0.36 0.41197 0.35032-0.28545 1.1268-1.1117 1.2377-1.6144 1.8413-1.6173 1.9422-6e-3 0.20671 2.9593 2.4329 3.2407 2.4329 0.0595 0 0.3192-0.37 0.57733-0.82222 0.25812-0.45222 0.48096-0.83703 0.4952-0.85512 0.0575-0.073 0.44888 0.0859 0.68701 0.27887l0.25335 0.20531-0.50063 0.8354c-0.27535 0.45946-0.48164 0.88495-0.45843 0.94552 0.0789 0.20562 2.2698 1.2282 2.3848 1.113 0.0568-0.0569 0.25005-0.47284 0.4294-0.92434 0.35414-0.89149 0.41336-0.93951 0.90501-0.73384 0.41029 0.17163 0.41112 0.25181 0.013 1.2404-0.17372 0.43133-0.29747 0.83223-0.27499 0.89085 0.0345 0.0902 0.68098 0.3211 2.1727 0.7762 0.36372 0.11097 0.34875 0.12737 0.51169-0.56045 0.36598-1.5448 0.30818-1.458 0.87612-1.3149 0.4789 0.12074 0.49696 0.21574 0.22651 1.1919-0.26132 0.94317-0.25119 0.98858 0.24415 1.0955 1.2113 0.26148 3.4074 0.51833 3.5703 0.41757 0.0567-0.0351 0.092-0.56098 0.092-1.3726 0-2.1808 0.0148-2.224 0.73734-2.1598l0.4266 0.0379-0.0611 1.3018c-0.0337 0.71597-0.0858 1.7418-0.11587 2.2795-0.0627 1.1214 0.0657 1.0153-1.1645 0.96118zm3.1431-0.0115c-0.087-0.0594-0.30494-1.5756-0.30258-2.1053 1e-3 -0.32623 0.27454-0.79431 0.55066-0.94384 0.44002-0.23828 2.3796-0.45859 2.3796-0.27028 0 0.13183 0.18402 1.5625 0.22763 1.7697 0.0542 0.25733 0.21704 0.25507 1.2817-0.0177 0.81086-0.20783 2.8486-0.85072 3.2627-1.0294 0.10987-0.0473 0.30962-0.13152 0.44391-0.18695 1.5511-0.64027 1.6222-0.67932 1.5528-0.85269-0.0361-0.0902-0.39449-0.80838-0.79635-1.5959-0.55344-1.0845-0.70419-1.453-0.62148-1.519 0.15649-0.12493 0.66286-0.37607 0.75831-0.37607 0.0852 0 2.0602 3.8862 2.0593 4.0522-2.6e-4 0.0532-0.28432 0.226-0.63114 0.38405-0.34683 0.15804-0.87619 0.40003-1.1764 0.53772-0.9883 0.45335-1.1583 0.52074-2.0994 0.83236-1.6032 0.53084-3.3613 0.91155-5.5932 1.2112-0.41505 0.0557-0.8564 0.11694-0.98078 0.13603-0.12437 0.0191-0.26623 7e-3 -0.31523-0.0261zm1.7956-1.2169c0.0738-0.022 0.0728-0.16546-4e-3 -0.54801l-0.10433-0.5181-0.39521 0.0312c-0.52874 0.0417-0.60789 0.12312-0.55655 0.57229 0.0687 0.60073 0.0671 0.59918 0.53539 0.54327 0.23374-0.0279 0.46999-0.0643 0.52501-0.0806zm-14.017 0.78179c-0.36703-0.14727-0.39426-0.23997-0.20428-0.69521 0.14939-0.35798 0.11981-0.34955 0.57981-0.16527 0.40394 0.16183 0.40499 0.16458 0.22509 0.59565-0.1706 0.40882-0.20452 0.42376-0.60062 0.26483zm-3.2818-1.7323-0.32981-0.19142 0.19477-0.36209c0.10712-0.19915 0.20518-0.37835 0.21792-0.39822 0.059-0.0922 0.7352 0.30108 0.73489 0.42741-2.6e-4 0.16925-0.32312 0.7207-0.42007 0.71778-0.0373-1e-3 -0.2163-0.0882-0.3977-0.19346zm-0.82435-0.48007c-0.0976-0.0752-0.23206-0.168-0.29867-0.20638-0.0977-0.0563-0.0805-0.14083 0.0888-0.43768 0.24247-0.425 0.2659-0.43149 0.6655-0.18422 0.35028 0.21674 0.35989 0.27317 0.11423 0.67115-0.20448 0.33124-0.30683 0.35946-0.56984 0.15713zm29.078-0.40183c-0.33446-0.46229-0.3342-0.4676 0.0331-0.69492 0.16606-0.10278 0.32411-0.24473 0.35124-0.31551 0.11376-0.29682-0.1754-0.20537-0.97591 0.30865-0.46749 0.30019-0.85978 0.5333-0.87174 0.51804-0.15135-0.19299-0.94603-1.4309-1.0564-1.6456-0.36594-0.71186-0.085-1.4032 0.76936-1.8938 1.0177-0.58439 1.4411-0.38537 2.4486 1.151 0.63758 0.97226 0.67374 1.0542 0.67454 1.5291 1e-3 0.56271-0.0982 0.71982-0.72917 1.1556l-0.3749 0.25892zm-0.68566-1.854c0.494-0.31367 0.48562-0.26991 0.14629-0.76372-0.31816-0.46298-0.34966-0.46886-0.80089-0.14934-0.41336 0.29269-0.41016 0.26917-0.10552 0.77415 0.28876 0.47863 0.23932 0.4696 0.76012 0.13891zm-11.779 1.084c-0.0793-0.1284-0.0956-0.68373-0.0235-0.80044 0.13095-0.21214 0.75667-0.13258 0.81591 0.10373 0.12786 0.51005 0.023 0.71979-0.37441 0.74877-0.20305 0.0148-0.39112-8e-3 -0.41796-0.0521zm1.1384-0.13196c-0.0229-0.0603-0.0513-0.26679-0.0632-0.45895-0.0211-0.33998-0.0123-0.3514 0.32709-0.42413 0.41919-0.0899 0.4932-0.0301 0.55751 0.45003 0.0525 0.39233 0.0453 0.3996-0.48796 0.49203-0.1901 0.033-0.3064 0.0124-0.33343-0.059zm12.579-1.5315c-0.37581-0.42856-0.36524-0.45713 0.39207-1.0595 0.75858-0.60339 0.75008-0.58058 0.38737-1.0391-0.35078-0.44344-0.37454-0.44009-1.0476 0.14765l-0.56549 0.49378-0.19718-0.18544c-0.46266-0.43518-0.47078-0.59212-0.0496-0.95825 1.297-1.1274 1.8122-1.1197 2.8077 0.0421 0.28413 0.33161 0.59038 0.68772 0.68054 0.79135 0.16307 0.18742 0.15836 0.19322-0.90585 1.111-1.2754 1.1-1.1579 1.0486-1.502 0.65637zm-17.325-1.0355c-2.2793-0.23304-3.8491-0.61048-5.9484-1.4302-5.9577-2.3264-10.998-7.8434-12.608-13.801-0.24768-0.91627-0.3419-1.3085-0.43779-1.8222-0.0593-0.31777-0.14154-0.75777-0.18271-0.97777-0.43871-2.3434-0.26572-5.8147 0.42079-8.4444 0.22352-0.8562 0.26805-1.0108 0.45096-1.5661 1.901-5.7712 6.5952-10.714 12.357-13.012 1.3556-0.54062 1.9157-0.71125 3.4847-1.0615 3.2311-0.72125 6.6647-0.57769 10.41 0.43521 0.97068 0.26255 2.8542 1.0274 3.7353 1.5169 0.19178 0.10654 0.56841 0.31621 0.83698 0.46596 7.5041 4.1838 11.773 13.166 10.382 21.844-0.18203 1.1355-0.41624 2.0885-0.83072 3.3803-1.3681 4.2637-4.4724 8.328-8.3459 10.927-1.0044 0.67389-2.4092 1.4628-3.0823 1.7309-0.21284 0.0848-0.50683 0.20728-0.65333 0.27223-2.8155 1.2482-6.8207 1.867-9.9879 1.5432zm3.9952-1.0115c1.3921-0.16582 1.4119-0.16939 2.9742-0.53551 6.1364-1.4382 11.714-6.4883 13.991-12.668 0.29216-0.79288 0.31689-0.87383 0.60934-1.9942 2.3749-9.0983-2.0288-18.867-10.428-23.132-1.3393-0.68006-2.2003-1.029-3.5512-1.439-2.9483-0.89491-6.9162-1.0316-10.032-0.34549-6.6392 1.4617-12.24 6.2643-14.65 12.562-0.85748 2.2406-1.3746 4.999-1.3746 7.3321 0 1.7853 0.27055 3.5989 0.88179 5.9111 0.47558 1.799 1.9009 4.5475 3.3574 6.4742 2.4076 3.1847 6.6845 6.1562 10.21 7.0936 0.15869 0.0422 0.43836 0.11729 0.62147 0.16688 2.3362 0.63278 5.098 0.84732 7.3911 0.57416zm-7.2801-8.4025c-7.2849-0.55222-12.344-7.9219-10.34-15.062 1.8171-6.4734 8.7332-10.161 15.11-8.057 2.1054 0.69468 4.3246 2.242 5.6072 3.9095 0.50472 0.65622 0.45678 0.76324-0.10098 0.22555-0.58518-0.56404-1.168-1.0267-1.5981-1.2685-0.18312-0.10299-0.46278-0.25989-0.62148-0.34868-2.0691-1.1579-4.9057-1.4631-7.3023-0.78563-3.1673 0.89526-5.7117 3.3387-6.7314 6.4642-0.79435 2.4349-0.57939 5.4274 0.54294 7.5584 1.8243 3.4638 5.0122 5.4134 8.8519 5.4134 2.6131 0 4.5868-0.74547 6.6114-2.4971 0.39218-0.33932 0.71308-0.59348 0.71308-0.56481 0 0.34594-2.0619 2.4051-3.063 3.0589-2.3364 1.5259-4.8588 2.1676-7.6796 1.9538zm13.087-6.5296c0.0337-0.39055 0.11745-1.2901 0.18613-1.999 0.0687-0.70889 0.13584-1.4689 0.14923-1.6889l0.0243-0.4-0.53101-0.21206c-0.49804-0.19889-0.90814-0.35282-2.6596-0.99828-1.1283-0.4158-1.1239-0.4689 0.0589-0.71032 0.91085-0.18591 1.5292-0.31985 2.0697-0.44837 0.19533-0.0464 0.53492-0.11897 0.75465-0.16118 0.89925-0.17275 0.852-0.0968 0.91807-1.4763 0.0322-0.6719 0.0585-1.6586 0.0585-2.1928 0-0.73678 0.0267-0.96247 0.11098-0.93523 0.061 0.0197 0.63667 0.91308 1.2792 1.9852 0.64251 1.0721 1.2293 1.9617 1.3039 1.977 0.0747 0.0152 0.40791-0.0531 0.74059-0.15179 0.33269-0.0987 0.8446-0.24429 1.1376-0.32353 2.7385-0.74072 2.6182-0.74362 1.8866 0.0455-0.45429 0.49001-1.0906 1.2098-2.1391 2.42l-0.51602 0.59555 1.2093 1.8377c0.66512 1.0107 1.1897 1.8573 1.1657 1.8813-0.0386 0.0386-0.95025-0.31072-1.6952-0.64955-1.1497-0.52291-2.5889-1.106-2.679-1.0855-0.0846 0.0193-2.2192 2.6205-2.5005 3.0472-0.30255 0.45888-0.39474 0.36014-0.3329-0.35658zm-30.091 10.314c-0.27504-0.36587-0.4869-0.73368-0.47081-0.81733 0.0359-0.18628 1.2814-1.0952 1.5008-1.0952 0.15409 0 1.1469 1.2975 1.1469 1.4989 0 0.14244-1.3049 1.0788-1.5034 1.0788-0.11208 0-0.35038-0.23538-0.67351-0.66523zm42.811 0.35905c-1.0112-0.70068-1.0249-0.75705-0.3901-1.6049 0.58116-0.77622 0.6655-0.78769 1.4393-0.19568 0.77386 0.59204 0.78479 0.66994 0.20548 1.465-0.54083 0.74225-0.63245 0.76675-1.2547 0.33558zm-47.952-5.0382c-0.0805-0.20166-0.13486-0.37657-0.12061-0.3887 0.10616-0.0903 0.61877-0.31131 0.72211-0.31131 0.10866 0 0.47028 0.69136 0.39509 0.75533-0.10617 0.0903-0.61877 0.31133-0.72212 0.31133-0.0704 0-0.19387-0.16499-0.27447-0.36665zm1.9932 0.0884c-0.17004-0.10373-0.3582-0.25363-0.41815-0.333-0.21556-0.28544-0.85021-1.9782-0.77129-2.0572 0.0946-0.0947 1.3473-0.61919 1.4886-0.62323 0.4001-0.0115 0.42727-0.20957 0.15469-1.1282-0.40761-1.3737-0.63838-2.6092-0.89966-4.8164-0.0487-0.4111-0.0885-1.3752-0.0885-2.1425v-1.395l-0.93225-0.0604c-1.2342-0.0799-1.2127-0.0686-1.1806-0.62143l0.0264-0.45551 2.1536 0.0414 0.0552-0.27621c0.0303-0.15191 0.0559-0.4212 0.0568-0.59842 1e-3 -0.30828 0.21795-1.675 0.31324-1.9784 0.0567-0.18057-0.0497-0.22537-1.1139-0.46888l-0.84343-0.19298 5e-3 -0.41999c9e-3 -0.69446 5e-3 -0.69377 1.6812-0.2812 0.53893 0.13266 0.5491 0.12746 0.66484-0.34012 0.19701-0.79587 0.51834-1.8149 0.75582-2.3969 0.0512-0.12533-0.0216-0.19341-0.36772-0.34429-0.90651-0.39511-1.2473-0.54809-1.7632-0.79143-0.29298-0.1382-0.64358-0.29344-0.77912-0.34499-0.33695-0.12814-0.3802-0.30196-0.17307-0.6955 0.21011-0.39922 0.30487-0.40137 1.1246-0.0254 0.71288 0.3269 0.67099 0.3266 0.67099 5e-3 0-0.24778 0.13974-0.61499 0.61764-1.6231 0.40862-0.86192 1.098-1.0081 2.2459-0.47622 0.37864 0.17543 0.71823 0.31987 0.75465 0.32095 0.0364 1e-3 0.15458 0.0711 0.26259 0.15556l0.19639 0.15358-0.35591 0.79751c-0.92572 2.0744-1.8324 4.6025-2.2928 6.3936-0.23907 0.92979-0.31214 1.2667-0.53218 2.4534-0.66351 3.5784-0.0575 7.9935 1.7691 12.889 0.39794 1.0665 0.39619 1.0571 0.20789 1.1181-0.091 0.0295-0.24535 0.0861-0.34301 0.12595-1.681 0.68503-1.8789 0.7215-2.3511 0.43326zm1.1878-1.1014c0.19026-0.0796 0.31717-0.18655 0.29311-0.24702-0.37498-0.94234-0.37014-0.93664-0.66241-0.77915-0.0848 0.0457-0.28401 0.13545-0.4427 0.19947-0.30933 0.1248-0.33172 0.16823-0.21012 0.40755 0.0431 0.0849 0.13103 0.26668 0.19533 0.40397 0.12747 0.27217 0.2089 0.27366 0.82679 0.0152zm0.70778-21.22c0.11441-0.25667 0.29721-0.65479 0.40621-0.88471 0.10902-0.22993 0.17305-0.45879 0.14232-0.50859-0.0482-0.0781-0.79984-0.45115-0.909-0.45115-0.0214 0-0.19908 0.34229-0.39489 0.76065-0.39108 0.83555-0.39512 0.79954 0.14558 1.2992 0.35527 0.32828 0.36973 0.32316 0.60978-0.21535zm46.755 22.232c-1.0441-0.42982-1.2429-0.5244-1.2433-0.59137-2.6e-4 -0.0507 0.47744-1.3104 0.79911-2.1069 0.87163-2.1585 1.3446-4.1079 1.5222-6.2743 0.12256-1.4946 0.11394-1.5374-0.33933-1.6846-0.58698-0.19069-0.8134-0.40975-0.96571-0.93431-0.23957-0.82505-0.17836-0.96847 0.4268-1.0001l0.51049-0.0267v0.30828c0 0.39582 0.076 0.58948 0.23146 0.58948 0.0985 0 0.12367-0.20697 0.12367-1.017 0-0.55934 0.0345-1.0383 0.0767-1.0644 0.23088-0.14287 2.1541-0.0636 2.4727 0.10194 0.87574 0.45502 0.99664 2.0527 0.20575 2.719-0.25427 0.21423-0.55288 0.29231-1.3345 0.34903l-0.31074 0.0226-0.0574 1.0667c-0.0478 0.88786-0.29554 2.6116-0.48738 3.391-0.0409 0.16605 1e-3 0.19912 0.32398 0.25369 0.53018 0.0897 0.49051 0.18634 0.88859-2.1651 0.0913-0.5397 0.20319-0.71856 0.42305-0.67665 0.0837 0.016 0.41179 0.076 0.72918 0.13345 1.4106 0.25531 1.7627 0.79572 1.4259 2.1884-0.0572 0.23691-0.21765 0.9633-0.35638 1.6142-0.29655 1.3914-0.23337 1.295-0.7975 1.2173-0.55975-0.0771-0.57595 0.29514 0.13281-3.0522 0.15586-0.73612 0.0977-0.90408-0.31269-0.90408-0.22982 0-0.24661 0.0305-0.35489 0.64445-0.31295 1.7746-0.71143 2.239-1.7655 2.0577-0.22728-0.0391-0.44723-0.0731-0.48879-0.0755-0.0415-2e-3 -0.13181 0.1756-0.20056 0.39561-0.40605 1.2991-0.49503 1.5729-0.56342 1.7333-0.25354 0.59495-0.64286 1.6546-0.61453 1.6727 0.18286 0.11671 0.73934 0.32725 0.86499 0.32725 0.18765 0 0.26693-0.15016 0.72743-1.3778 0.26427-0.70452 0.27883-0.7151 0.60553-0.43986 0.5066 0.42679 0.51056 0.48615 0.10035 1.5065-0.55863 1.3895-1.0944 1.6349-2.3979 1.0983zm3.2152-11.832c0.021-0.0611 0.0212-0.30111 5.3e-4 -0.53333l-0.0375-0.42222h-1.0475v1.0667h0.52319c0.33906 0 0.53658-0.0391 0.56125-0.11111zm-54.124 11.067c-0.0618-0.0614-0.3177-0.62425-0.3177-0.69855 0-0.051 0.63037-0.30145 0.75899-0.30145 0.1179 0 0.39517 0.47057 0.39517 0.67067 0 0.16417-0.71822 0.44695-0.83646 0.32933zm3.2968-11.011c-0.10982-0.10996-0.0706-0.81212 0.0477-0.85392 0.061-0.0215 0.28278-0.0214 0.49276 2.6e-4l0.38179 0.0395-0.0266 0.41246-0.0266 0.41244-0.40282 0.0264c-0.22156 0.0145-0.4313-2e-3 -0.4661-0.0371zm0.0612-1.1355c-0.0261-0.0682-0.0349-0.2782-0.0194-0.46667 0.0272-0.33131 0.0399-0.34344 0.38323-0.36587 0.52119-0.034 0.61199 0.0581 0.5388 0.5467l-0.0613 0.40983h-0.39686c-0.25757 0-0.41355-0.0435-0.44439-0.12399zm48.486-1.4982c-0.02-0.0611-0.1207-0.5711-0.22378-1.1333-0.47427-2.587-1.1417-4.6166-2.2309-6.7838-1.2423-2.4719-2.8093-4.5969-4.906-6.6531l-1.0573-1.0369 0.69953-0.76525c1.2765-1.3964 1.6969-1.4213 3.0132-0.1783l0.79077 0.74673-0.30669 0.33532c-0.16867 0.18442-0.50353 0.5432-0.74412 0.79728l-0.43744 0.46197 0.34748 0.42234c1.8134 2.2042 3.8962 5.7429 4.57 7.7648 0.0407 0.12222 0.27269 0.80149 0.51546 1.5095l0.44141 1.2873 0.34006-0.0422c1.7059-0.21175 2.0772 0.20551 2.3672 2.66 0.0162 0.1373-0.42073 0.2654-1.5388 0.45113-0.36622 0.0608-0.80569 0.14572-0.97659 0.18863-0.42895 0.10771-0.62069 0.0985-0.66342-0.0321zm1.7954-1.2705c0.14878-0.0469 0.1428-0.67416-8e-3 -0.88117-0.0968-0.1326-0.19883-0.15447-0.54041-0.11593-0.56391 0.0636-0.60731 0.12394-0.48849 0.67864l0.0994 0.46406 0.41345-0.0553c0.22741-0.0304 0.4634-0.0711 0.52444-0.0903zm-7.2579-14.455c0-0.11514-0.57177-0.60738-0.70603-0.60781-0.14721-5.3e-4 -0.71448 0.52175-0.71448 0.65773 0 0.0494 0.14812 0.2418 0.32915 0.42742l0.32916 0.33749 0.38109-0.37448c0.20961-0.20595 0.38111-0.40411 0.38111-0.44035zm-47.486 12.719c-0.18565-0.0744-0.20255-0.12188-0.14846-0.41658 0.0843-0.45923 0.15339-0.50664 0.59785-0.41014 0.36722 0.0798 0.38069 0.0945 0.35807 0.39131-0.0421 0.55297-0.24349 0.66153-0.80746 0.43541zm7.0516-7.5067c-1.6217-1.123-1.8426-1.7237-1.0467-2.8448 0.58035-0.8174 1.3126-0.91658 2.2088-0.29919 0.20523 0.14138 0.39334 0.25706 0.41801 0.25706 0.0853 0 2.1862-2.178 2.1645-2.2439-0.012-0.0363-0.54114-0.61236-1.1759-1.28-0.63478-0.66765-1.1686-1.2514-1.1863-1.2972-0.0404-0.10467 0.51888-0.69005 0.65927-0.69005 0.11268 0 3.2353 3.2362 3.2342 3.352-2.6e-4 0.0386-0.44047 0.46988-0.97807 0.9583-0.53761 0.4884-1.1595 1.0991-1.382 1.3572l-0.40457 0.46916 0.22611 0.26904c0.41537 0.49422 0.46995 0.88885 0.19949 1.4423-0.3695 0.75617-0.47219 0.81452-0.9243 0.52521-0.43679-0.27951-0.448-0.32988-0.1603-0.72031 0.19802-0.26872 0.22264-0.54174 0.0489-0.54174-0.0393 0-0.26094 0.27001-0.49248 0.6-0.79795 1.1373-0.77472 1.1259-1.4087 0.68691zm0.68211-1.4692c0.32409-0.46908 0.31242-0.52983-0.15918-0.82813-0.44944-0.2843-0.5451-0.25354-0.85609 0.27519-0.17508 0.29767-0.14582 0.35838 0.32562 0.67535 0.43735 0.29405 0.39695 0.30123 0.68965-0.12241zm4.361-4.6745c-0.28668-0.37348-0.62113-0.80961-0.7432-0.96918-0.12207-0.15955-0.49163-0.6312-0.82123-1.0481-0.69272-0.87618-0.70104-0.91126-0.29328-1.237 0.43664-0.34882 0.1884-0.56682 2.035 1.7873 1.3015 1.6592 1.323 1.7 0.98829 1.8794-0.12208 0.0654-0.22196 0.15216-0.22196 0.19279 0 0.0406-0.095 0.0739-0.2112 0.0739-0.15848 0-0.34128-0.16948-0.73245-0.67906zm36.784-0.0147c-0.13122-0.13712-0.23856-0.28493-0.23856-0.32847 0-0.11657 0.46065-0.57778 0.57708-0.57778 0.0549 0 0.21452 0.11973 0.35455 0.26607l0.2546 0.26607-0.21579 0.24427c-0.40241 0.4555-0.41766 0.45821-0.73188 0.12984zm-6.2677-0.37811c-0.11767-0.0988-0.27514-0.21395-0.34993-0.25585-0.11216-0.0629-0.0428-0.20619 0.39655-0.81868 0.29287-0.40838 0.90626-1.2725 1.3631-1.9203 0.4568-0.64778 0.85618-1.1778 0.8875-1.1778 0.10088 0 0.80218 0.5461 0.80218 0.62467 0 0.0418-0.0407 0.1011-0.0904 0.13186-0.0497 0.0308-0.38904 0.48312-0.7541 1.0052-2.0112 2.8767-1.8744 2.7303-2.2549 2.4108zm5.4273-0.4429c-0.32368-0.29476-0.30855-0.40196 0.11236-0.79618l0.23708-0.22206 0.62568 0.68356-0.29284 0.3025c-0.35134 0.36292-0.3207 0.36147-0.68228 0.0322zm-33.067-0.37413c-0.53117-0.81977-0.95617-1.764-0.95563-2.1232 1e-3 -0.6519 0.17687-0.84353 1.4496-1.5795 0.82562-0.47738 0.79841-0.47934 1.1183 0.0804 0.0698 0.12222 0.26451 0.46222 0.43258 0.75555 0.16805 0.29333 0.38483 0.67333 0.48172 0.84445 0.0969 0.17111 0.21634 0.3606 0.26542 0.42109 0.12781 0.15748 0.0322 0.33939-0.25701 0.4892-0.51557 0.26703-2.0294 1.1482-2.1106 1.2285-0.13816 0.13667-0.28669 0.0959-0.42434-0.11658zm1.0302-1.452c0.47923-0.26818 0.48248-0.28256 0.1803-0.79879-0.26481-0.45243-0.3015-0.46232-0.73572-0.1983-0.45751 0.27817-0.47082 0.32818-0.21333 0.80185 0.27037 0.49735 0.24183 0.4901 0.76875 0.19524zm25.574 1.5681c-0.0452-0.0439-0.50094-0.32255-1.0127-0.61933l-0.93044-0.5396-0.31251 0.34784c-0.51554 0.57387-0.92204 0.63409-1.7552 0.26003-0.42626-0.19139-0.43089-0.20511-0.23451-0.69651 0.15632-0.39112 0.34491-0.44982 0.74054-0.23046 0.23437 0.12995 0.44838 0.0956 0.44838-0.072 0-0.0571-0.40055-0.27831-0.89009-0.49155-0.48955-0.21323-0.90992-0.41981-0.93415-0.45908-0.10455-0.16937 0.93925-2.1308 1.2276-2.3069 0.70369-0.42959 2.0041 0.0105 2.4251 0.8204 0.18306 0.35225 0.15364 0.70375-0.10979 1.3119-0.12898 0.29779-0.21888 0.55355-0.19975 0.56838 0.53895 0.41787 1.4996 0.74701 1.4996 0.51379 0-0.0455 0.15355-0.33668 0.34123-0.64723 0.18766-0.31055 0.44278-0.74464 0.56692-0.96464 0.80577-1.428 0.73534-1.369 1.2619-1.0579 0.45487 0.26872 0.59203-0.0632-1.4358 3.4744-0.43037 0.75081-0.571 0.91001-0.69641 0.7884zm-2.3892-2.9108c0.27849-0.66734 0.27289-0.69317-0.19406-0.89556-0.27553-0.11941-0.46246-0.15543-0.52723-0.10162-0.15023 0.12484-0.43021 0.91116-0.33731 0.94737 0.0444 0.0173 0.22045 0.10506 0.39136 0.19506 0.4468 0.2353 0.51459 0.22053 0.66724-0.14527zm-21.044 0.88781c-0.20725-0.49663-0.15361-0.56557 0.71209-0.91522 0.86689-0.35013 0.91951-0.4182 0.71047-0.91909-0.18708-0.4483-0.30254-0.4721-0.97767-0.2015-0.74817 0.29988-0.81429 0.29375-0.97455-0.0903-0.23035-0.55196-0.20255-0.59105 0.64248-0.90354 1.3397-0.49541 1.8777-0.29118 2.2952 0.87112 0.18159 0.50559 0.16709 0.50081 0.82847 0.2732 3.2295-1.1114 8.4184-1.1698 13.234-0.14899 0.36623 0.0776 0.69423 0.14118 0.72889 0.14121 0.0972 1e-4 0.26863-0.64851 0.23409-0.88575-0.0324-0.22246-0.0943-0.25104-0.96298-0.44427-1.3245-0.29466-1.3212-0.29136-0.86021-0.83682l0.2913-0.34472 0.75056 0.15747c1.8412 0.38627 2.0856 0.80659 1.6002 2.7513-0.2219 0.88908-0.22224 0.88934-0.90538 0.72465-6.3388-1.5281-10.933-1.2524-16.708 1.0028-0.39583 0.15459-0.49329 0.1193-0.63973-0.23161zm-4.4348-1.8374c-0.30387-0.39888-0.28341-0.51159 0.13409-0.73851l0.35703-0.19406 0.21932 0.34785c0.28622 0.45394 0.28146 0.47878-0.13335 0.69524l-0.35268 0.18406zm0.9461-0.66767c-0.24463-0.43581-0.251-0.40327 0.1219-0.62356 0.41395-0.24452 0.43386-0.24056 0.65202 0.12964 0.253 0.42932 0.23707 0.51554-0.12741 0.68956-0.42087 0.20094-0.42451 0.19984-0.64651-0.19564zm47.373 22.576c-0.43557-0.48505-0.4997-0.67113-0.73814-2.1416-0.25082-1.5469-0.24832-1.559 0.71469-3.4502l0.84729-1.664-0.22018-0.84292c-0.32235-1.2341-0.32875-1.2532-0.5608-1.6714l-0.21305-0.38408 0.22831-0.64422c0.12557-0.35432 0.22831-0.71274 0.22831-0.7965 0-0.22397 0.22851-0.27353 0.55562-0.1205 0.15829 0.074 0.43452 0.19511 0.61384 0.26903 0.44045 0.18154 0.54701 0.37113 1.0408 1.8519 0.68523 2.0548 0.67571 1.9626 0.27813 2.6953-1.6061 2.9598-1.596 2.9258-1.3308 4.4909 0.23743 1.4011 0.23825 1.3959-0.33192 2.1259-0.64144 0.8213-0.63057 0.81853-1.1121 0.28235zm-70.671-0.2101c-0.69743-0.82078-0.67806-0.61643-0.28199-2.9756 0.26193-1.5602 0.20979-1.4792 1.5019-2.3322 0.58596-0.38682 1.3623-0.9154 1.7251-1.1746 0.70753-0.50549 0.64551-0.40038 1.0648-1.8047 0.10213-0.34222 0.23013-0.76724 0.28436-0.94449 0.0818-0.26734 0.17624-0.35678 0.55414-0.52477 0.25055-0.11138 0.62346-0.27988 0.8287-0.37446 0.47053-0.21681 0.50893-0.18933 0.64723 0.46315 0.13558 0.63962 0.0812 1.1256-0.21089 1.8838-0.11937 0.30989-0.3104 0.82071-0.4245 1.1351-0.25952 0.71526-0.47755 0.92418-2.1162 2.0279-1.5698 1.0573-1.6194 1.1439-1.744 3.0448l-0.0496 0.75556-0.54592 0.56192c-0.78448 0.80745-0.76939 0.80429-1.2332 0.25848zm69.669-5.509c-0.7279-0.59479-0.85232-0.81682-1.2251-2.1858-0.40187-1.476-0.37842-1.9124 0.1965-3.6575 0.24941-0.75697 0.45295-1.477 0.45233-1.6-1e-3 -0.26661-0.58309-1.4341-1.0604-2.1281l-0.34082-0.49556 0.0798-0.66666c0.13403-1.119 0.11823-1.0895 0.54917-1.0261 1.0708 0.1575 1.2634 0.28329 1.741 1.1372 0.10256 0.18333 0.27195 0.48332 0.37646 0.66666 0.47946 0.84108 0.87536 1.6432 0.87536 1.7736 0 0.0785-0.14424 0.58668-0.32054 1.1291-0.17631 0.54242-0.45163 1.4384-0.61183 1.991l-0.29128 1.0048 0.22135 0.59522c0.12174 0.32738 0.25226 0.71523 0.29003 0.8619 0.0378 0.14666 0.14768 0.48666 0.24425 0.75555l0.17558 0.48889-0.40866 0.81885c-0.46353 0.92875-0.46376 0.92889-0.94332 0.53701zm-68.339-0.66697c-0.0688-0.13445-0.2116-0.39566-0.31724-0.58049-0.20278-0.35479-0.24971-0.89378-0.10774-1.2376 0.0464-0.1123 0.19166-0.56418 0.32285-1.0042 0.40662-1.3637 0.68402-1.894 1.0756-2.0564 0.4294-0.17802 0.99316-0.42894 1.669-0.74285 0.29298-0.13608 0.79268-0.36615 1.1104-0.51126 0.71763-0.32771 0.66515-0.26437 1.4918-1.8006 0.45985-0.85466 0.60974-1.0409 0.8812-1.0951 0.13497-0.0269 0.44517-0.0966 0.68931-0.1547 0.899-0.21412 0.88425-0.22321 0.91379 0.56249 0.0239 0.63655 4e-3 0.73028-0.2589 1.2-0.15667 0.28023-0.45795 0.82952-0.6695 1.2206-0.3922 0.72505-0.73467 1.0954-1.2217 1.321-0.42961 0.19903-1.2124 0.54665-1.648 0.73183-1.0768 0.45778-1.2819 0.60102-1.5151 1.0583-0.24029 0.47112-0.56828 1.4666-0.66659 2.0232-0.053 0.29988-0.13602 0.38452-0.80669 0.82222-0.87694 0.57232-0.78612 0.54884-0.94248 0.24348zm66.215-5.0042c-0.53902-0.26924-0.70647-0.4706-1.3557-1.6303-0.90035-1.6083-0.93869-1.7517-0.744-2.7833 0.1116-0.59129 0.29563-2.0932 0.30628-2.4995 0.0108-0.41321-0.53041-1.2135-1.3538-2.0018l-0.54228-0.51917v-1.7867l0.73849 0.0461c0.89757 0.0561 0.89239 0.0528 1.8631 1.1691 1.1814 1.3584 1.4283 1.762 1.3568 2.2172-0.58712 3.7383-0.60383 3.615 0.81707 6.0334 0.11172 0.19014 0.12042 0.28359 0.0414 0.44445-0.0551 0.11202-0.18809 0.49368-0.29569 0.84811-0.21761 0.71696-0.26714 0.74451-0.83168 0.4625zm-63.916-0.95505c-0.36276-0.58769-0.53142-1.5478-0.32336-1.8408 0.0347-0.0489 0.23376-0.40888 0.44232-0.8 0.58052-1.0886 1.0464-1.8717 1.1744-1.9739 0.14747-0.11778 0.536-0.23877 1.5362-0.47838 0.43947-0.10528 1.2185-0.30636 1.7312-0.44685 1.0315-0.28266 0.8988-0.17978 2.0744-1.608 0.77164-0.9374 0.81341-0.9567 2.0761-0.95879l0.4661-7.9e-4v0.48636c0 0.79445-0.28416 1.2797-1.4341 2.449-0.88157 0.8964-1.0628 1.0391-1.4512 1.1428-0.24415 0.0652-0.56377 0.15293-0.71026 0.19501-0.14649 0.0421-0.62591 0.15973-1.0654 0.26143-1.4071 0.32563-1.4084 0.32623-1.7712 0.8755-0.18201 0.27553-0.50449 0.86096-0.71662 1.301-0.3211 0.66605-0.43499 0.8201-0.68015 0.92012-0.16195 0.066-0.49819 0.21607-0.74722 0.33334-0.50018 0.23554-0.53836 0.24461-0.60117 0.14286zm60.7-4.2217c-0.54102-0.1943-1.3555-1.0481-2.3078-2.4191-0.23975-0.34519-0.3846-1.4234-0.3846-2.863 0-0.78169-0.0369-1.1728-0.12708-1.3474-0.13874-0.26863-0.9823-1.0373-1.7087-1.557l-0.45966-0.32887-0.19324-0.84927c-0.1079-0.4742-0.15951-0.88305-0.11686-0.92575 0.042-0.0421 0.40454-0.10383 0.80562-0.13736 0.84564-0.0705 0.7317-0.13142 2.3066 1.2312 1.2968 1.1221 1.2414 1.0221 1.3063 2.3559 0.16975 3.4862 0.0251 2.9712 1.2278 4.3717 0.76716 0.89339 0.77393 0.91714 0.58626 2.0549-0.11701 0.70938-0.1148 0.70841-0.93464 0.41397zm-57.511-1.508c-0.16438-0.52811-0.23285-1.3105-0.13141-1.5015 0.14894-0.28052 1.5139-1.9396 2.0444-2.4849 0.41768-0.42933 0.43211-0.43578 0.9747-0.43578 0.48053 0 1.334-0.065 3.0804-0.23449 0.43119-0.0419 0.53496-0.10247 1.3222-0.77213 1.502-1.2777 1.2312-1.151 2.2237-1.0402 1.0438 0.11654 1.0501 0.12172 0.87406 0.72786-0.18198 0.62672-0.41043 0.93465-1.1147 1.5024-0.31739 0.25587-0.73688 0.61556-0.9322 0.79931-0.50857 0.47847-0.98225 0.60308-2.6876 0.70703-0.81683 0.0498-1.5931 0.11273-1.725 0.13985-0.29085 0.0598-1.6792 1.4901-1.9365 1.995-0.14438 0.28335-0.24514 0.36336-0.55375 0.43974-0.20749 0.0513-0.52172 0.13288-0.69829 0.18118-0.43421 0.11878-0.69848 0.11047-0.74011-0.0233zm53.606-2.9049c-0.4444-0.0728-0.72074-0.25955-1.8731-1.2663-1.058-0.92426-1.082-0.97077-1.4924-2.8796-0.17792-0.82756-0.36442-1.6156-0.41446-1.7512-0.13347-0.36165-2.0547-1.5757-2.4936-1.5757-0.14234 0-0.77028-1.3372-0.77028-1.6403 0-0.18456 0.0802-0.23642 0.62875-0.40638 0.77958-0.24157 0.9019-0.21713 1.9842 0.39652 0.47979 0.27204 0.88999 0.49462 0.91155 0.49462 0.0755 0 0.87255 0.56165 1.1144 0.78527 0.13838 0.12797 0.24414 0.31998 0.24414 0.44327 0 0.11962 0.0388 0.36214 0.0863 0.53893 0.0475 0.17677 0.23235 0.94141 0.41078 1.6992 0.36953 1.5693 0.31253 1.4796 1.6558 2.6046l0.86561 0.72497v1.9148l-0.24415-0.0111c-0.13428-6e-3 -0.41037-0.0383-0.61353-0.0716zm-49.304-2.754c0-0.92043-9e-3 -0.90736 1.5093-2.2038 1.389-1.1861 1.2741-1.1343 2.2433-1.0104 2.807 0.35884 3.5269 0.36882 3.8825 0.0538 0.12851-0.11385 0.44618-0.29877 1.1987-0.69778 0.19532-0.10352 0.4202-0.24139 0.49975-0.30628 0.12147-0.0991 0.25648-0.0875 0.84342 0.073 0.38435 0.10501 0.7887 0.2115 0.89856 0.23663 0.59113 0.13519-0.24168 1.4247-1.2651 1.9589-1.8776 0.98006-2.4567 1.0988-3.982 0.81649-0.27923-0.0517-0.83794-0.10163-1.2416-0.11111l-0.73384-0.0171-0.48379 0.39328c-0.26609 0.21629-0.74349 0.64166-1.0609 0.94525l-0.57708 0.55199-1.7312 0.0954zm44.26-0.96366c-0.0966-0.0234-0.39618-0.19037-0.66586-0.37094-0.26967-0.18058-0.82147-0.52061-1.2262-0.75564-0.99283-0.57648-1.1898-0.8688-2.0565-3.0522-0.3597-0.90612-0.52978-1.1281-1.044-1.3626-0.56892-0.25948-1.6791-0.61366-1.9236-0.61366-0.15789 0-0.32244-0.17047-0.70786-0.73333-0.58246-0.85062-0.60266-0.95736-0.21292-1.1256 0.1587-0.0685 0.39459-0.19827 0.5242-0.28837 0.28165-0.19578 0.7854-0.20906 1.2736-0.0336 0.19532 0.0702 0.80921 0.28807 1.3642 0.48412 0.55499 0.19606 1.1056 0.41979 1.2235 0.49717 0.16763 0.10997 0.74157 1.1413 0.74157 1.3325 0 0.0217 0.10318 0.27077 0.22928 0.55333 1.0131 2.2701 0.9809 2.2225 1.7664 2.6101 1.3601 0.67107 1.663 0.89704 1.7775 1.3259 0.25528 0.95655 0.32633 1.3528 0.2543 1.4184-0.0954 0.0868-1.0795 0.17234-1.3177 0.11453zm-38.598-2.3712c-0.81418-0.12564-0.79499-0.11175-0.69047-0.49961 0.0454-0.16862 0.10565-0.45541 0.13382-0.6373 0.0583-0.37655 0.35347-0.76906 0.72252-0.96077 0.13841-0.0719 0.49762-0.2786 0.79823-0.45933 1.8059-1.0857 1.8432-1.0916 3.4952-0.55879 1.7826 0.57502 2.2786 0.69016 2.6634 0.61834 0.1709-0.0319 0.35068-0.0872 0.39952-0.12291 0.0489-0.0357 0.26855-0.12034 0.48829-0.18808 0.21973-0.0677 0.61041-0.21495 0.86816-0.32713 0.25774-0.11218 0.54966-0.20395 0.64869-0.20395 0.2403 0 1.5925 0.70165 1.6521 0.8573 0.0945 0.24641-0.65692 1.0676-1.1533 1.2605-2.5385 0.98634-2.6899 1.0054-4.1464 0.52073-0.21973-0.0731-0.80901-0.25922-1.3095-0.41359l-0.91002-0.28066-0.82122 0.39219c-0.45166 0.21572-1.0399 0.55826-1.3071 0.76121-0.52576 0.39926-0.51893 0.39819-1.5319 0.24188zm32.736-0.57868c-0.24415-0.0913-0.74354-0.27341-1.1098-0.4046-1.3589-0.48682-1.2416-0.38053-2.4528-2.2229-0.48208-0.73334-0.91793-1.3777-0.96856-1.4318-0.17263-0.18475-1.1058-0.42825-2.2163-0.57833l-0.79903-0.10799-0.59928-0.58298c-0.3296-0.32064-0.59927-0.63225-0.59927-0.69244 0-0.0602 0.24912-0.31128 0.5536-0.55795 0.59729-0.48388 0.82695-0.5365 1.6044-0.36762 0.20474 0.0445 0.65191 0.12922 0.99372 0.18833 0.55412 0.0959 1.1101 0.22715 1.708 0.40351 0.10932 0.0322 0.28395 0.20408 0.38809 0.38185 0.73687 1.258 2.0155 3.0402 2.2711 3.1655 0.34566 0.16945 1.9446 0.75903 2.2352 0.8242 0.14501 0.0325 0.26539 0.17428 0.3881 0.457 0.0978 0.22542 0.27291 0.62104 0.38907 0.87916 0.11614 0.25811 0.21116 0.48657 0.21116 0.50767 0 0.079-0.93232 0.3118-1.2368 0.30871-0.17425-2e-3 -0.51657-0.0779-0.76073-0.16927zm-5.7264-1.6474c-0.26855-0.065-0.8878-0.20798-1.3761-0.3177-1.1244-0.25268-1.3669-0.4185-2.6258-1.796-0.54714-0.59872-1.0892-1.1399-1.2044-1.2026-0.21639-0.1177-2.0649-0.16395-2.6305-0.0658-0.24678 0.0428-0.37924-0.0193-0.95251-0.44693-0.77864-0.58079-0.80814-0.64776-0.45637-1.036 0.14596-0.16106 0.33832-0.37609 0.42746-0.47783 0.0891-0.10173 0.29789-0.23175 0.46387-0.28889 0.37975-0.13073 3.0999-0.13955 3.4372-0.0111 0.13401 0.051 0.89513 0.76654 1.6914 1.59 0.79624 0.82351 1.5427 1.5212 1.6588 1.5503 0.11608 0.0292 0.46623 0.093 0.7781 0.14197 0.55763 0.0875 1.2634 0.22143 1.6528 0.31375 0.17434 0.0414 0.99824 1.1253 1.1436 1.5046 0.0338 0.0881-0.13003 0.20891-0.54178 0.39972-0.65342 0.30281-0.76029 0.3132-1.4656 0.14247zm-14.471-0.0687c-0.21833-0.0971-1.5279-0.74784-2.4859-1.2352-0.26857-0.13663-0.59499-0.24968-0.72538-0.25122-0.29684-3e-3 -1.6666 0.473-2.2221 0.77304-0.40427 0.21832-0.4305 0.22117-0.84342 0.0912-0.23441-0.0737-0.61595-0.18773-0.8479-0.25333-0.48901-0.13828-0.50577-0.20344-0.22911-0.89081 0.30578-0.75968 0.48669-0.91039 1.5293-1.274 0.20043-0.0699 0.75843-0.26951 1.24-0.44359 1.1199-0.40484 0.95449-0.42906 2.5484 0.37323 0.75364 0.37934 1.6251 0.80551 1.9366 0.94703l0.56637 0.2573 0.76536-0.18596c0.42093-0.10226 1.0144-0.23379 1.3189-0.29223l0.55353-0.10626 0.46745 0.35566c0.25711 0.19562 0.57733 0.42555 0.71161 0.51097 0.33909 0.2157 0.312 0.31151-0.23447 0.82896-0.48264 0.45701-0.57121 0.49728-1.297 0.5898-0.21973 0.028-0.71912 0.1098-1.1098 0.18177-0.83267 0.15338-1.3344 0.16058-1.6424 0.0236zm6.0805-0.78247c-0.1959-0.0953-0.89505-0.57709-1.5537-1.0707-1.6341-1.2246-1.518-1.1764-2.4605-1.0216-0.42842 0.0703-0.95874 0.17335-1.1785 0.22887-0.82765 0.20913-0.8328 0.20859-1.5841-0.1696-0.83801-0.42185-0.82222-0.37769-0.39845-1.1154 0.34141-0.59433 0.60242-0.77574 1.2723-0.88434 0.17091-0.0277 0.49052-0.0908 0.71025-0.14028 0.21974-0.0494 0.76679-0.15222 1.2157-0.22839 0.95354-0.16183 0.83082-0.20567 2.1169 0.75617 0.48647 0.36381 1.0844 0.81107 1.3287 0.9939 0.80261 0.60062 0.83947 0.61014 2.3665 0.61074l1.3902 5.3e-4 0.56294 0.62924c0.30962 0.34608 0.5752 0.6826 0.59017 0.74782 0.0278 0.12101-0.53794 0.54446-0.9858 0.7379-0.44165 0.19075-2.961 0.13517-3.3928-0.0748z" fill="#bc8c46" stroke-width=".088835"/>
 </g>
</svg>
