<svg xmlns="http://www.w3.org/2000/svg" width="800" height="800" preserveAspectRatio="none"><g transform="matrix(37.383015,0,0,62.943237,-1567.748,-169.43881)"><g transform="matrix(0.10343705,0,0,0.06143146,38.62482,1.4272114)" fill-rule="evenodd" stroke="#70193d"><path d="m 33.06,124.036 c 0,-56.559 45.848,-102.414 102.401,-102.414 56.57,0 102.42,45.855 102.42,102.414 0,56.561 -45.85,102.412 -102.42,102.412 -56.553,0 -102.401,-45.851 -102.401,-102.412 z" stroke-miterlimit="3.864" fill="#fff" stroke-width="1.035"/></g><path d="m 46.177331,8.6022992 c 0.0029,-0.065671 -0.04774,-0.1634451 -0.0313,-0.2218679 L 45.789179,8.7731845 45.607959,8.3821107 45.386811,8.7731845 45.195039,8.3821107 44.983819,8.7676545 44.734537,8.3821107 44.523631,8.7676545 44.293169,8.3821107 44.091779,8.7676545 43.87094,8.3821107 43.678756,8.7731845 43.439093,8.3821107 43.228184,8.7731845 43.006931,8.3821107 42.79592,8.7731845 42.565463,8.3821107 42.383205,8.7731845 42.121206,8.3769576 c -0.0871,0.1825147 -0.05405,0.4538929 -0.05891,0.6381269 -0.07624,3.5677035 4.809006,6.3511915 10.669191,6.3160485 5.512556,0.0052 10.531014,-2.715178 10.497959,-6.3016655 0,-0.184417 -0.06334,-0.6501654 -0.06334,-0.6501654 L 62.8986,8.7731845 62.696896,8.3821107 62.476371,8.7731845 62.265771,8.3821107 62.063343,8.7731845 61.842507,8.3821107 61.631907,8.7731845 61.411588,8.3821107 61.180613,8.7731845 60.960085,8.3821107 60.739145,8.7731845 60.528858,8.3821107 60.326534,8.7731845 60.105902,8.3821107 59.904303,8.7731845 59.674778,8.3821107 59.491174,8.7731845 59.123465,8.381209 c 0,0 -0.08935,0.6348525 -0.09453,1.1022835 -5.99e-4,0.05369 -0.04172,0.09532 -0.04907,0.143545 -0.0039,0.02458 -0.08709,0.124209 -0.09598,0.147553 -0.114607,0.2972045 -0.287443,0.6037075 -0.486352,0.8864155 -0.498463,0.60983 -1.176337,0.915579 -1.781234,1.212108 -0.55701,0.272695 -1.39123,0.649822 -2.437291,0.780732 -1.046057,0.131095 -1.429393,0.199222 -2.629161,0.097 -1.199456,-0.102776 -1.959239,-0.290279 -2.611618,-0.575504 -0.652997,-0.284613 -1.016476,-0.569716 -1.381607,-0.814828 -0.364511,-0.244927 -0.867216,-0.813353 -0.998271,-1.065344 -0.137366,-0.264279 -0.238423,-0.5859935 -0.303899,-0.8727575 -0.03041,-0.133797 -0.09888,-0.212065 -0.06547,-0.319138 0.03538,-0.113894 -0.02024,-0.303783 -0.01166,-0.5009773 z" fill="#70193d" fill-rule="evenodd"/><path d="m 46.074769,9.0408395 c 0,-2.1574097 2.944956,-3.9062399 6.576941,-3.9062399 3.633433,0 6.579008,1.7488302 6.579008,3.9062399 0,2.1574115 -2.945575,3.9067335 -6.579008,3.9067335 -3.631985,-6.4e-5 -6.576941,-1.749322 -6.576941,-3.9067335 z" stroke-miterlimit="3.864" fill="#ffe756" fill-rule="evenodd" stroke="#70193d" stroke-width=".082"/><path d="m 56.108574,10.043955 c 0,0 -0.277935,-7.76e-4 -0.4725,0 -0.221665,8.39e-4 -0.174085,-0.05418 -0.47405,-0.0023 -0.299658,0.05111 -0.183189,0.04036 -0.483881,0.05916 -0.299657,0.01868 -0.261383,-0.003 -0.497635,-0.0172 -0.237491,-0.01382 -0.221562,-0.05658 -0.463088,-0.0564 -0.292002,7.77e-4 -0.391923,0.02813 -0.391923,0.02813 0,0 0.02038,-0.1312765 0.154432,-0.1642055 0.134366,-0.03262 0.118955,-0.06561 0.419022,-0.06561 0.299658,0 0.434438,-0.014 0.497637,-0.02316 0.08616,-0.01321 0.2738,-0.0061 0.236457,-0.159538 -0.03931,-0.166404 -0.245042,-0.745765 -0.259835,-0.900326 -0.01272,-0.1088551 -0.103332,-0.8064716 -0.103332,-0.8064716 0,0 0.03889,-0.1502622 0.04686,-0.1924643 0.0087,-0.042203 0.07975,-0.1828215 0.07975,-0.1828215 0,0 0.149362,0.00473 0.174395,0.042081 0.02285,0.037533 0.135293,0.04669 0.09506,0.1027731 -0.05813,0.079615 -0.104364,0.3839106 -0.05668,0.6115744 0.04086,0.1915433 0.06634,0.4665899 0.107821,0.6190639 0.0482,0.17815 0.271582,0.631536 0.374916,0.715821 0.05813,0.05031 0.102508,0.02364 0.157433,0.0048 0.05555,-0.01899 0.120608,-0.364963 0.149258,-0.510988 0.02421,-0.121264 -0.01407,-0.4651574 -0.01945,-0.5493203 -0.01883,-0.2904462 -0.169533,-0.5950245 -0.406299,-0.8294462 -0.075,-0.073964 0,0.00492 0.0073,-0.042145 0.0084,-0.046811 0.0084,-0.079615 0.0084,-0.079615 0,0 0.08638,0.00456 0.157845,0.014006 0.07158,0.00916 0.07923,0.014069 0.07923,0.014069 0,0 0.16126,0.1502807 0.283109,0.3828595 0.09,0.1728696 0.187673,0.4225273 0.171223,0.736195 -0.01417,0.248736 0.0193,0.831638 0.0193,0.831638 0,0 0.07117,0.05627 0.228182,0.06555 0.158365,0.0093 0.579869,-0.0045 0.871564,0.02365 l -0.614003,0.3647795 z" fill="#7d000b" fill-rule="evenodd"/><path d="m 50.988556,9.0120185 c 0.02271,0.09593 0.135722,0.255587 0.201912,0.336091 l -0.05631,0.03748 c -0.04849,-0.105553 -0.193994,-0.262973 -0.219389,-0.360238 z" fill-rule="evenodd"/><path d="m 49.767162,5.7835604 c 0,0 0.489978,0.4217888 1.258207,1.12782 0.244836,0.2247774 1.137498,0.9394723 1.189524,1.122906 0.0121,0.041897 0.06351,0.9662541 0.06351,0.9662541 l 0.008,0.121697 c 0,0 -0.384272,-0.28885 -1.178771,-0.184233 -0.464741,0.06137 -1.05485,0.28283 -1.06509,0.681643 0,0.03231 -0.441365,-0.333695 -0.559492,-0.867719 -0.0453,-0.2032758 -0.06961,-1.0005336 -0.07147,-1.1396772 -0.0076,-0.3233732 0.298104,-1.3446723 0.387475,-1.5522495 0.02555,-0.066899 -0.104986,-0.2041359 -0.07727,-0.2462159 0.02183,-0.033972 0.04541,-0.030226 0.04541,-0.030226 z" fill="none"/><path d="m 48.99552,10.043955 c 0,0 0.408472,-0.07925 0.558872,-0.01253 0.113573,0.05068 0.258799,0.116719 0.372475,0.09214 0.113989,-0.02439 0.555354,-0.122864 0.724164,-0.122864 0.289209,0 0.517078,0.09215 0.723955,0.07347 0.134674,-0.01168 0.558457,-0.1656185 0.873835,-0.1170255 0.201704,0.03072 0.533322,0.097437 0.688062,0.1009915 0.165293,0.0039 0.398027,-0.02715 0.614728,-0.03926 0.342067,-0.01819 0.781053,0.08029 1.102327,0.06162 0.328312,-0.01867 0.749094,-0.1841105 1.545663,-0.03655 0.01996,0.0038 -0.377546,0.202475 -0.884491,0.429528 -0.435885,0.189575 -0.962896,0.382103 -1.158188,0.461041 -0.548939,0.22097 -1.540587,0.499991 -1.540587,0.499991 0,0 -1.051335,-0.313545 -1.531078,-0.487703 C 50.75302,10.826032 49.955727,10.497005 49.667859,10.36935 49.461192,10.27714 48.99552,10.043948 48.99552,10.043948 Z" fill="#fff" fill-rule="evenodd"/><path d="m 51.442571,8.9193295 c 0.02271,0.09593 0.0837,0.210647 0.149892,0.291151 l -0.05631,0.03748 c -0.0485,-0.105553 -0.141973,-0.218033 -0.167368,-0.315298 z" fill-rule="evenodd"/><path d="m 52.169976,8.9873955 c 0.01638,0.07805 -0.01431,0.20279 -0.0058,0.300466 l -0.07165,-0.04157 c 0.01031,-0.07438 0.01935,-0.18934 0.02675,-0.263731 z" fill-rule="evenodd"/><path d="m 52.210635,9.2788195 0.836036,-0.238331 0.02007,0.03177 -0.8561,0.25422 z" fill-rule="evenodd"/><path d="m 50.591291,9.1299865 c 0.02271,0.09592 0.126265,0.286484 0.192455,0.366988 l -0.05631,0.03748 c -0.0485,-0.10555 -0.184538,-0.293867 -0.209934,-0.391132 z" fill-rule="evenodd"/><path d="m 49.66031,8.9096245 c 0,0 -0.120092,0.03907 -0.182566,0.0626 -0.06351,0.02334 -0.197256,0.06555 -0.197256,0.06555 0,0 -0.01655,0.06598 0.0071,0.08963 0.02421,0.02297 0.118954,0.04177 0.118954,0.07458 0,0.03281 -0.06248,0.319198 -0.09475,0.403175 -0.01251,0.03281 0.008,0.04699 0.02358,0.07532 0.01562,0.02813 0.04535,0.03356 0.0923,0.07147 0.04696,0.03747 0.046,0.09255 0.0578,0.153313 0.0081,0.04227 0.09381,0.1748725 0.258899,0.2017175 0.127124,0.01997 0.286213,-0.0079 0.522464,-0.07014 0.197256,-0.05166 0.397741,-0.0396 0.602649,-0.01147 0.204912,0.02832 0.313288,0.07204 0.574051,0.0396 0.144295,-0.01886 0.28302,-0.06535 0.464655,-0.07947 0.181945,-0.01382 0.155873,-0.01536 0.155873,-0.01536 0,0 0.172826,-0.1562286 0.270123,-0.3112766 0.05067,-0.08076 0.04867,-0.194068 0.04867,-0.194068 0,0 -0.284037,-0.379155 -0.501463,-0.354704 -0.19467,0.02218 -0.579869,0.171577 -0.903833,0.288665 -0.287658,0.10468 -0.400611,0.159969 -0.56818,0.24425 -0.07757,0.03864 -0.254764,0.109534 -0.499912,0.08748 -0.220529,-0.01959 -0.247317,-0.01782 -0.374337,-0.07378 -0.122572,-0.05308 -0.184222,-0.06075 -0.184222,-0.06075 0,0 0.02421,-0.06094 0.04758,-0.07962 0.02369,-0.01849 0.212875,-0.105169 0.29045,-0.142152 0.103128,-0.04902 0.175537,-0.07974 0.175537,-0.07974 0,0 -0.03227,-0.05904 -0.07241,-0.110515 -0.03889,-0.05111 -0.02586,-0.01382 -0.06413,-0.102897 -0.03982,-0.0892 -0.06755,-0.171393 -0.06755,-0.171393 z" fill="#70193d" fill-rule="evenodd"/><path d="m 56.086129,6.8807264 c 0.09475,0.014007 0.189189,0.032927 0.189189,0.032927 0,0 -0.05565,-0.1266712 -0.173053,-0.201432 -0.118642,-0.075316 -0.197873,-0.1081189 -0.402785,-0.098598 -0.20584,0.00928 -0.308861,0.046873 -0.308861,0.046873 0,0 0.05575,-0.046873 0.1505,-0.089077 0.09495,-0.042448 0.205944,-0.028258 0.307724,-0.014375 0.10344,0.014375 0.229321,0.028444 0.229321,0.028444 0,0 -0.221664,-0.1406785 -0.363063,-0.1827583 -0.141707,-0.042266 -0.292002,-0.04681 -0.410026,-0.018981 -0.119363,0.028074 -0.260763,0.1267931 -0.395749,0.2107704 -0.134673,0.084592 -0.315484,0.1455933 -0.315484,0.1455933 0,0 0.008,-0.032621 0.02369,-0.056148 0.01552,-0.023466 0.118126,-0.065916 0.213701,-0.150077 0.09475,-0.08453 0.07034,-0.079615 0.109333,-0.1641454 0.03983,-0.084099 0.05575,-0.07034 0.127021,-0.098537 0.07137,-0.027643 0.316309,0.046873 0.316309,0.046873 0,0 -0.01664,-0.046873 -0.07147,-0.093622 -0.05545,-0.046871 -0.181948,-0.1218804 -0.347449,-0.1548685 -0.165808,-0.03268 -0.213491,0.051542 -0.260555,0.0892 -0.048,0.03735 -0.07117,0.00928 -0.07117,0.00928 0,0 -0.02358,-0.074884 -0.118331,-0.1126029 -0.09454,-0.037165 -0.27111,-0.00252 -0.307519,0.028381 -0.06351,0.051601 0,0.1216951 0,0.1779651 0,0.05615 -0.02421,0.1218803 -0.03227,0.1408636 -0.0076,0.018552 -0.02338,0.014007 -0.06248,-0.014068 -0.03983,-0.028258 -0.03227,-0.056516 -0.03983,-0.1363159 -0.0084,-0.0798 0.01552,-0.074885 0.02421,-0.1358874 0.0069,-0.061061 -0.04096,-0.054058 -0.0722,-0.051601 -0.189292,0.011794 -0.291694,0.070524 -0.315279,0.1171507 -0.02017,0.037903 0.01552,0.032988 -0.08585,0.042263 -0.103437,0.00928 -0.229527,0.037473 -0.388819,0.121819 -0.143261,0.077588 -0.228599,0.169121 -0.244114,0.2626804 -0.01209,0.068988 0.07913,0.084591 0.07913,0.084591 0,0 0.150398,-0.1175178 0.245147,-0.1691189 0.09454,-0.051542 0.181324,-0.056518 0.244111,-0.051542 0.06455,0.00473 0.06455,0.018983 0.08647,0.03772 0.02493,0.018367 -0.01521,0.037287 -0.01521,0.037287 0,0 -0.17967,0.00381 -0.355617,0.065732 -0.06681,0.024451 -0.127641,0.050437 -0.221562,0.089075 -0.05451,0.023345 -0.107574,0.076422 -0.204909,0.1594153 -0.180912,0.1556066 -0.102713,0.3093688 -0.109434,0.3611569 -0.009,0.051355 0.08584,0.1218173 0.133638,0.1408609 0.04696,0.018552 0.04696,0.030287 0.05565,0.060571 0.03134,0.1113148 0.173358,0.1501992 0.173358,0.1501992 0,0 -0.05524,0.1500163 -0.03175,0.2344224 0.02338,0.084283 0.04696,0.1075684 0.181738,0.1876731 0.134677,0.079369 0.21329,0.079369 0.21329,0.079369 l -0.024,-0.1125422 c -0.02928,-0.1216343 0,-0.1637748 0.024,-0.2153784 0.02409,-0.051539 0.101987,-0.047058 0.101987,-0.047058 0,0 0.01665,0.1315863 0.07882,0.2577655 0.06392,0.1266733 0.142951,0.1642064 0.142951,0.1642064 0,0 0.06112,-0.2858403 0.07003,-0.3658232 0.01696,-0.1452238 0.110367,-0.2812327 0.150602,-0.3655169 0.02276,-0.045828 0.150398,-0.01892 0.111401,0.018676 -0.04024,0.037472 -0.07913,0.3704931 -0.03227,0.4829106 0.04789,0.1126057 0.157947,0.1314033 0.157947,0.1314033 0,0 0.008,-0.014128 0.02369,-0.07034 0.01563,-0.056515 0.08782,-0.3938986 0.134677,-0.3891684 0.04696,0.00492 0.135707,0.041529 0.261382,0.1400646 0.127022,0.098228 0.02161,0.2844887 0.07654,0.2566615 0.0993,-0.050376 0.230457,-0.1484183 0.253731,-0.2419798 0.01479,-0.058175 0.0051,-0.076851 -0.0044,-0.082318 0.0211,0.00398 0.07562,0.013084 0.185981,0.030533 0.150397,0.023649 0.06268,-0.032621 0.07158,-0.089075 0.0073,-0.056148 -0.01686,-0.1030825 0.02296,-0.098537 0.03993,0.00497 0.252697,0.084715 0.300897,0.1596005 0.04696,0.075068 0.07116,0.2626806 0.07116,0.2626806 0,0 0.12609,-0.056273 0.165087,-0.1266107 0.0392,-0.070155 0.0392,-0.1501378 0.04686,-0.1827584 0.0061,-0.02236 0.07116,0.00897 0.09578,-0.018921 0.02339,-0.028319 0.06258,-0.2674709 0.03134,-0.3516943 -0.03137,-0.084346 -0.07926,-0.1267962 -0.189727,-0.2018643 -0.109954,-0.074884 -0.275971,-0.089075 -0.275971,-0.089075 0,0 0.1414,-0.070216 0.291694,-0.079615 0.149777,-0.00916 0.181635,0.014374 0.27659,0.02838 z m -2.708602,0.051542 c -0.08171,0.026539 -0.112332,0.035999 -0.136536,0.049635 -0.02141,0.012534 -0.03828,0.029243 -0.0842,0.067575 -0.06507,0.055289 -0.181635,0.1691217 -0.181635,0.1691217 0,0 -0.02339,-0.033051 -0.0076,-0.1032066 0.01552,-0.070462 0.0545,-0.1595984 0.141297,-0.2016782 0.08823,-0.042266 0.39575,-0.079615 0.474674,-0.051603 0.06175,0.020888 -0.04811,0.018614 -0.206048,0.070156 z m 1.453805,0.00492 c 0,0 -0.06443,-0.098966 0.22053,-0.2062254 0.0872,-0.032991 0.253213,-0.056458 0.157946,0 -0.03197,0.018612 -0.103333,0.051601 -0.18153,0.103143 -0.07985,0.051355 -0.196946,0.1030824 -0.196946,0.1030824 z m 0.97055,0.4689665 c 0.01572,0.060818 0.0077,0.098167 0.0077,0.098167 0,0 -0.039,-0.055042 -0.197256,-0.1542544 -0.118642,-0.075499 -0.205838,-0.089321 -0.323033,-0.1035743 -0.118951,-0.014004 -0.205736,-0.027952 -0.205736,-0.027952 0,0 -0.0393,-0.060692 0.06309,-0.070524 0.102817,-0.00909 0.181635,-0.014068 0.371234,0.056088 0.189086,0.070524 0.268317,0.1409855 0.283934,0.2020482 z" fill="#02a03b" fill-rule="evenodd"/><g transform="matrix(0.10343705,0,0,0.06143146,38.62482,1.4272114)" fill-rule="evenodd" fill="#fff"><path d="m 75.866,163.241 2.438,5.775 0.839,-0.194 c 0.308,-0.068 0.503,-0.107 0.586,-0.1 0.093,0.008 0.17,0.045 0.228,0.11 0.056,0.061 0.081,0.136 0.068,0.215 0,0.086 -0.027,0.154 -0.096,0.209 -0.083,0.081 -0.327,0.168 -0.719,0.249 l -5.27,1.159 1.472,1.561 c 0.463,0.5 0.907,1.151 1.333,1.969 0.438,0.827 0.701,1.641 0.781,2.439 0.105,0.796 0.037,1.542 -0.176,2.238 -0.198,0.704 -0.577,1.304 -1.117,1.812 -1.006,0.935 -2.366,1.408 -4.088,1.442 -1.715,0.033 -4.066,-0.563 -7.065,-1.78 -0.367,-1.058 -0.824,-2.238 -1.367,-3.565 -2.496,-1.065 -4.264,-2.188 -5.295,-3.369 -0.74,-0.846 -1.126,-1.659 -1.166,-2.45 -0.025,-0.782 0.185,-1.396 0.654,-1.832 0.497,-0.466 1.193,-0.612 2.085,-0.445 0.895,0.16 1.811,0.777 2.752,1.858 0.37,0.425 0.78,0.992 1.25,1.71 l 1.935,-0.464 -1.268,-1.327 c -0.303,-0.335 -0.658,-0.84 -1.059,-1.5 -0.407,-0.673 -0.657,-1.296 -0.752,-1.871 -0.105,-0.576 -0.065,-1.097 0.095,-1.581 0.164,-0.484 0.423,-0.891 0.774,-1.223 0.562,-0.523 1.244,-0.785 2.043,-0.78 0.503,0 1.136,0.204 1.873,0.6 l 0.108,-0.118 c 0.586,-0.542 1.494,-0.908 2.725,-1.067 1.233,-0.18 3.033,-0.067 5.399,0.32 z m 0.142,6.301 c -0.404,-1.486 -0.762,-2.591 -1.108,-3.324 -0.327,-0.735 -0.682,-1.322 -1.067,-1.754 -0.527,-0.618 -1.135,-0.963 -1.808,-1.034 -0.669,-0.078 -1.231,0.095 -1.679,0.519 -0.438,0.408 -0.673,0.908 -0.673,1.503 0.016,0.594 0.303,1.232 0.883,1.9 0.389,0.437 1.336,1.363 2.857,2.777 z m -5.344,1.184 c -0.83,-0.746 -1.596,-1.523 -2.284,-2.309 -0.771,-0.888 -1.219,-1.61 -1.342,-2.176 -0.12,-0.563 -0.052,-1.136 0.226,-1.717 -0.707,-0.199 -1.272,-0.1 -1.706,0.304 -0.386,0.361 -0.553,0.846 -0.479,1.444 0.086,0.788 0.648,1.775 1.666,2.942 0.469,0.542 1.104,1.199 1.9,1.974 z m -1.5,0.976 c 1.537,1.4 2.558,2.413 3.089,3.021 0.722,0.824 1.099,1.631 1.11,2.416 0.025,0.772 -0.219,1.396 -0.725,1.864 -0.441,0.413 -1.067,0.597 -1.854,0.555 -0.79,-0.031 -2.067,-0.477 -3.841,-1.312 l 1.11,2.484 c 1.262,0.377 2.385,0.519 3.385,0.432 1.009,-0.086 1.858,-0.466 2.58,-1.134 0.46,-0.437 0.79,-1.002 0.99,-1.717 0.201,-0.715 0.179,-1.497 -0.083,-2.346 -0.252,-0.851 -0.722,-1.675 -1.404,-2.452 -0.556,-0.639 -1.324,-1.393 -2.312,-2.26 z m -4.848,1.078 c 0.426,0.759 0.771,1.396 1.015,1.903 0.25,0.511 0.673,1.437 1.259,2.788 1.925,0.84 3.209,0.95 3.866,0.345 0.2,-0.186 0.299,-0.45 0.299,-0.795 0,-0.336 -0.114,-0.649 -0.37,-0.933 -0.306,-0.358 -0.719,-0.754 -1.25,-1.204 -1.438,-1.259 -2.351,-2.115 -2.746,-2.565 z m -0.987,3.155 c -0.963,-2.123 -1.906,-3.709 -2.802,-4.746 -0.472,-0.539 -0.959,-0.855 -1.453,-0.963 -0.346,-0.073 -0.62,-0.005 -0.839,0.204 -0.247,0.217 -0.339,0.495 -0.287,0.84 0.074,0.55 0.386,1.155 0.947,1.802 0.876,0.993 2.352,1.947 4.434,2.863 z"/><path d="m 81.328,179.249 5.597,-0.919 0.274,0.256 -2.453,2.618 1.907,1.777 -0.966,1.104 -1.901,-1.77 -5.754,6.602 0.355,1.796 1.034,0.081 -0.019,0.514 -3.595,-0.218 c -0.059,-1.419 -0.423,-2.681 -1.096,-3.787 l 0.173,-0.199 c 0.41,0.061 0.729,0.031 0.981,-0.084 0.318,-0.142 0.682,-0.439 1.074,-0.897 l 4.897,-5.62 -0.88,-0.817 z"/><path d="m 95.207,188.497 0.299,0.403 c -0.753,0.39 -1.293,0.723 -1.596,0.997 -0.302,0.262 -0.614,0.688 -0.944,1.257 l -2.802,4.818 c -0.472,0.802 -0.7,1.338 -0.7,1.615 0,0.275 0.103,0.458 0.269,0.565 0.086,0.061 0.185,0.087 0.315,0.1 0.074,0 0.327,-0.028 0.747,-0.084 l 0.021,0.521 -3.65,0.567 c -0.296,-0.801 -0.438,-1.439 -0.419,-1.913 0.016,-0.477 0.21,-1.044 0.562,-1.699 l -4.906,0.646 c -0.639,-1.829 -0.654,-3.256 -0.059,-4.287 0.395,-0.687 0.907,-1.243 1.527,-1.678 0.814,-0.571 1.968,-1.118 3.462,-1.623 l 0.367,-3.712 0.339,-0.22 c 0.259,0.204 0.469,0.351 0.605,0.435 0.864,0.533 1.83,0.651 2.897,0.355 0.343,0.646 0.771,1.27 1.287,1.856 0.521,0.594 0.948,0.991 1.284,1.204 0.16,0.089 0.287,0.136 0.395,0.136 0.116,-0.008 0.353,-0.097 0.7,-0.259 z m -4.012,0.447 -3.057,-3.513 -0.361,3.754 1.743,2.659 z m -1.956,3.362 -1.907,-2.924 c -0.941,0.667 -1.614,1.351 -2.015,2.047 -0.707,1.215 -0.756,2.558 -0.151,4.013 l 2.462,-0.351 z"/><path d="m 97.573,190.932 5.125,-2.481 0.336,0.167 -1.666,3.215 2.312,1.167 -0.633,1.338 -2.308,-1.162 -3.761,7.986 0.814,1.631 1.012,-0.22 0.129,0.497 -3.511,0.817 c -0.438,-1.346 -1.126,-2.458 -2.067,-3.335 l 0.108,-0.241 c 0.413,-0.05 0.715,-0.178 0.929,-0.351 0.265,-0.233 0.524,-0.618 0.787,-1.173 l 3.215,-6.798 -1.074,-0.539 z"/><path d="m 110.989,195.122 1.947,5.349 -6.745,1.871 -0.796,2.265 2.386,2.183 2.345,-0.615 0.136,0.469 -4.875,1.346 c -0.639,-0.741 -1.176,-1.299 -1.623,-1.684 -0.444,-0.379 -1.108,-0.855 -1.972,-1.416 l 0.108,-0.312 c 0.327,-0.063 0.58,-0.196 0.747,-0.403 0.194,-0.212 0.429,-0.725 0.704,-1.531 l 2.509,-7.096 c 0.848,0 1.552,-0.019 2.129,-0.068 0.421,-0.039 1.427,-0.159 3,-0.358 z m -2.327,0.733 -0.2,0.023 -1.975,5.623 3.956,-1.097 z"/><path d="m 131.418,200.706 -0.506,9.86 c -1.293,0.469 -2.239,0.856 -2.819,1.17 -0.454,0.229 -0.886,0.521 -1.312,0.88 -1.185,-0.843 -2.185,-1.432 -2.975,-1.774 -0.595,-0.262 -1.284,-0.43 -2.055,-0.508 l -0.111,-0.27 c 0.336,-0.262 0.546,-0.508 0.645,-0.733 0.136,-0.293 0.219,-0.798 0.263,-1.503 l 0.36,-7.24 c 1.577,-0.455 2.959,-1.136 4.107,-2.047 1.167,0.888 2.63,1.61 4.403,2.165 z m -6.353,8.256 3.262,1.595 0.419,-8.38 c -1.023,-0.563 -1.736,-0.935 -2.166,-1.109 -0.293,-0.134 -0.664,-0.252 -1.092,-0.356 z"/><path d="m 140.441,194.324 -0.287,2.223 -2.357,-0.438 0.157,3.178 1.976,-0.112 0.073,1.481 -1.972,0.104 0.453,8.846 1.497,1.039 0.946,-0.883 0.309,0.354 -2.829,2.628 c -1.101,-0.932 -2.212,-1.544 -3.326,-1.837 l -0.093,-0.31 c 0.297,-0.214 0.494,-0.437 0.605,-0.667 0.186,-0.369 0.271,-0.807 0.243,-1.319 l -0.395,-7.709 -1.201,0.063 -0.076,-1.474 1.203,-0.068 -0.161,-3.172 c 1.234,-0.969 2.151,-1.78 2.763,-2.427 z"/><path d="m 166.299,204.69 c -1.402,2.099 -2.991,3.483 -4.765,4.156 -1.327,0.492 -2.74,0.642 -4.228,0.416 -1.484,-0.214 -2.786,-0.793 -3.885,-1.737 -1.113,-0.95 -1.916,-2.154 -2.432,-3.61 -0.293,-0.832 -0.493,-1.673 -0.596,-2.5 -0.107,-0.838 -0.127,-1.845 -0.064,-3.023 0.645,-0.704 1.376,-1.609 2.188,-2.722 0.438,-0.603 1.539,-2.082 3.312,-4.442 0.364,-0.477 0.755,-1.034 1.188,-1.691 1.444,-0.369 2.602,-0.573 3.486,-0.604 1.318,-0.055 2.546,0.109 3.685,0.5 1.15,0.369 2.141,0.953 2.984,1.732 0.841,0.791 1.471,1.754 1.873,2.898 0.37,1.052 0.479,2.131 0.327,3.235 -0.207,1.594 -0.782,3.279 -1.698,5.044 l 4.008,1.178 0.547,-0.947 0.462,0.259 -1.748,3.187 z m -9.32,-12.337 c -0.562,0.171 -1.098,0.349 -1.635,0.529 l 2.578,7.329 c 0.279,0.777 0.418,1.341 0.427,1.684 0.01,0.343 -0.05,0.707 -0.19,1.112 -0.146,0.397 -0.643,1.442 -1.479,3.142 0.923,0.395 1.781,0.617 2.568,0.662 0.793,0.028 1.682,-0.112 2.666,-0.432 z m 1.676,3.12 c 0.762,0.294 1.434,0.464 2.029,0.5 0.6,0.024 1.204,-0.073 1.81,-0.303 0.555,-0.213 1.043,-0.517 1.428,-0.919 0.393,-0.414 0.771,-0.969 1.113,-1.687 -0.669,-0.437 -1.248,-0.732 -1.755,-0.882 -0.896,-0.267 -1.823,-0.4 -2.771,-0.388 -0.923,0.003 -1.933,0.142 -3.01,0.4 z m -5.194,-0.044 c -0.505,0.785 -0.832,1.408 -0.998,1.871 -0.235,0.615 -0.361,1.314 -0.387,2.098 -0.018,0.777 0.107,1.567 0.396,2.376 0.61,1.749 1.839,3.142 3.681,4.165 0.231,-0.492 0.358,-0.935 0.343,-1.327 -0.009,-0.396 -0.195,-1.109 -0.562,-2.133 z m 7.015,5.209 c 0.361,-0.79 0.746,-1.393 1.159,-1.809 0.411,-0.416 0.941,-0.746 1.589,-0.992 0.68,-0.254 1.334,-0.358 1.964,-0.319 0.641,0.042 1.373,0.257 2.212,0.631 -0.073,-0.897 -0.219,-1.651 -0.43,-2.257 -0.193,-0.55 -0.407,-1.018 -0.628,-1.4 -0.18,-0.282 -0.438,-0.615 -0.8,-0.994 -0.491,0.837 -0.959,1.463 -1.386,1.871 -0.438,0.403 -0.975,0.718 -1.595,0.953 -0.574,0.212 -1.127,0.316 -1.657,0.304 -0.547,-0.023 -1.22,-0.17 -1.99,-0.447 z m 1.957,5.547 c 0.983,-0.432 1.748,-0.911 2.271,-1.429 0.823,-0.786 1.443,-1.673 1.888,-2.681 0.445,-1.008 0.706,-2.123 0.79,-3.343 -1.478,-0.662 -2.798,-0.772 -3.946,-0.341 -0.663,0.254 -1.243,0.679 -1.716,1.28 -0.361,0.435 -0.673,1.053 -0.925,1.861 z"/><path d="m 177.339,186.332 0.484,-0.086 c -0.016,0.877 0.018,1.523 0.102,1.932 0.096,0.396 0.303,0.877 0.628,1.45 l 2.806,4.821 c 0.463,0.796 0.815,1.265 1.043,1.393 0.243,0.118 0.454,0.131 0.613,0.026 0.084,-0.055 0.159,-0.136 0.241,-0.24 0.024,-0.071 0.12,-0.314 0.272,-0.726 l 0.453,0.226 -1.219,3.597 c -0.83,-0.105 -1.444,-0.27 -1.839,-0.511 -0.396,-0.249 -0.8,-0.678 -1.185,-1.309 l -1.757,4.782 c -1.866,-0.277 -3.082,-0.932 -3.687,-1.963 -0.396,-0.684 -0.63,-1.414 -0.716,-2.184 -0.099,-1.013 -0.025,-2.322 0.237,-3.919 l -2.999,-2.083 -0.034,-0.411 c 0.309,-0.146 0.527,-0.265 0.663,-0.346 0.854,-0.536 1.416,-1.364 1.664,-2.484 0.712,-0.003 1.452,-0.104 2.193,-0.298 0.743,-0.194 1.289,-0.4 1.62,-0.605 0.15,-0.102 0.26,-0.196 0.312,-0.295 0.033,-0.118 0.085,-0.364 0.105,-0.767 z m -1.498,3.874 -4.437,1.139 3.034,2.089 3.078,-0.329 z m 1.948,3.358 -3.385,0.372 c 0.126,1.173 0.394,2.107 0.789,2.801 0.716,1.223 1.83,1.896 3.359,2.019 l 0.859,-2.406 z"/><path d="m 180.335,185.313 0.185,-5.848 0.295,-0.23 2.025,2.984 2.048,-1.594 0.864,1.19 -2.049,1.597 5.165,7.092 1.784,-0.008 0.274,-1.037 0.491,0.113 -0.902,3.602 c -1.351,-0.204 -2.621,-0.076 -3.803,0.39 l -0.161,-0.209 c 0.136,-0.4 0.175,-0.741 0.117,-1.008 -0.077,-0.356 -0.297,-0.774 -0.654,-1.262 l -4.402,-6.05 -0.95,0.741 z"/><path d="m 193.371,172.785 0.454,-0.183 c 0.144,0.863 0.286,1.486 0.45,1.877 0.163,0.369 0.459,0.798 0.894,1.301 l 3.639,4.175 c 0.604,0.688 1.027,1.084 1.286,1.16 0.262,0.078 0.46,0.042 0.596,-0.092 0.084,-0.078 0.146,-0.165 0.191,-0.288 0.027,-0.073 0.068,-0.33 0.136,-0.762 l 0.487,0.126 -0.539,3.777 c -0.827,0.063 -1.448,0.013 -1.887,-0.139 -0.437,-0.162 -0.909,-0.516 -1.412,-1.053 l -0.834,5.042 c -1.882,0.089 -3.205,-0.309 -3.979,-1.196 -0.521,-0.597 -0.892,-1.265 -1.116,-2.005 -0.279,-0.977 -0.448,-2.272 -0.488,-3.896 l -3.33,-1.45 -0.098,-0.4 c 0.277,-0.204 0.472,-0.358 0.589,-0.477 0.737,-0.691 1.132,-1.61 1.166,-2.757 0.707,-0.148 1.404,-0.387 2.102,-0.729 0.688,-0.338 1.194,-0.645 1.484,-0.919 0.126,-0.123 0.21,-0.238 0.237,-0.346 0.031,-0.121 0.015,-0.367 -0.028,-0.766 z m -0.76,4.1 -4.144,1.987 3.366,1.452 2.959,-0.935 z m 2.535,2.908 -3.259,1.029 c 0.333,1.131 0.766,1.994 1.293,2.597 0.923,1.058 2.141,1.497 3.671,1.319 l 0.393,-2.526 z"/><path d="m 198.431,164.676 3.009,-0.151 0.198,2.654 -2.58,0.06 0.154,1.768 5.949,4.631 1.702,-0.553 -0.043,-1.738 0.507,0.011 0.127,4.332 c -0.923,0.186 -1.634,0.393 -2.139,0.618 -0.494,0.215 -0.978,0.508 -1.441,0.882 l -0.22,-0.173 c 0.016,-0.481 -0.049,-0.846 -0.193,-1.1 -0.152,-0.27 -0.521,-0.639 -1.133,-1.109 l -4.15,-3.241 c -0.521,-0.408 -0.923,-0.609 -1.185,-0.623 -0.263,-0.013 -0.444,0.05 -0.552,0.194 -0.121,0.165 -0.146,0.497 -0.077,0.984 l -0.482,0.018 -0.222,-3.659 c 0.879,-0.251 1.559,-0.361 2.036,-0.327 0.312,0.026 0.647,0.173 1.012,0.458 z"/></g><g transform="matrix(0.10343705,0,0,0.06143146,38.62482,1.4272114)" fill-rule="evenodd"><g><path d="m 119.28,29.556 c 0,-1.29 1.042,-2.339 2.335,-2.339 1.292,0 2.345,1.049 2.345,2.339 0,1.293 -1.052,2.345 -2.345,2.345 -1.292,0 -2.335,-1.052 -2.335,-2.345 z"/></g><g><path d="m 124.556,28.593 c 0,-1.296 1.052,-2.342 2.345,-2.342 1.289,0 2.342,1.046 2.342,2.342 0,1.296 -1.053,2.342 -2.342,2.342 -1.293,0 -2.345,-1.046 -2.345,-2.342 z"/></g><path d="m 140.397,31.848 c 0,-1.292 1.053,-2.335 2.346,-2.335 1.292,0 2.344,1.043 2.344,2.335 0,1.299 -1.052,2.346 -2.344,2.346 -1.293,-0.001 -2.346,-1.047 -2.346,-2.346 z"/><path d="m 145.767,31.808 c 0,-1.293 1.049,-2.345 2.354,-2.345 1.28,0 2.332,1.051 2.332,2.345 0,1.293 -1.052,2.339 -2.332,2.339 -1.306,0 -2.354,-1.046 -2.354,-2.339 z"/><path d="m 199.977,73.803 5.887,0.303 c 0,0 0.118,1.012 1.025,2.98 0.91,1.962 1.923,4.011 3.662,7.751 1.94,4.189 4.141,9.602 4.687,12.088 0.414,1.927 0.127,4.37 -1.357,6.05 -2.116,2.419 -7.263,3.628 -7.263,3.628 0,0 -2.206,-8.67 -3.678,-12.528 -3.309,-8.688 -9.005,-16.528 -9.005,-16.528 l 3.404,-2.759 c 0,0 6.745,10.864 7.893,13.598 2.305,5.412 4.046,11.571 4.046,11.571 0,0 1.45,0.073 1.57,-1.29 0.176,-2.203 -2.573,-8.984 -4.832,-13.829 -2.244,-4.815 -6.039,-11.035 -6.039,-11.035 z"/><path d="m 196.419,50.605 c -2.844,-0.336 -3.576,-0.796 -3.576,-0.796 l -0.19,1.654 -8.442,9.64 c 0,0 -8.085,-6.427 -18.272,-11.108 -3.219,-1.475 -16.082,-5.054 -16.082,-5.054 l 0.642,-10.288 c 0,0 -1.614,0.914 -2.664,1.29 -1.066,0.383 -2.525,0.47 -4.955,0.734 -3.026,0.327 -3.674,4.314 -3.674,4.314 v 7.165 c 0,0 11.752,0.506 22.867,5.048 12.131,4.961 22.866,14.252 22.866,14.252 L 199.145,51.06 c -0.001,-0.001 -0.541,-0.195 -2.726,-0.455 z m -52.896,-6.584 c -0.228,0 -0.21,-1.395 0.093,-2.111 0.673,-1.595 1.925,-0.919 1.925,-0.919 l 0.09,3.212 c 0,0 -1.277,-0.182 -2.108,-0.182 z"/><path d="m 199.823,65.342 c -0.904,-0.586 -3.3,-1.614 -4.536,-2.197 -1.806,-0.852 -3.931,0.679 -3.931,0.679 0,0 -4.024,3.895 -4.312,4.918 -0.259,0.95 2.75,3.74 3.135,4.116 0.37,0.376 -0.562,1.833 -1.839,2.292 -1.203,0.432 -1.931,-0.089 -2.573,-1.045 -0.639,-0.932 -1.216,-3.154 -1.755,-3.91 -0.519,-0.756 -1.2,-1.457 -2.096,-1.836 -0.919,-0.376 -2.58,0.093 -2.58,0.093 0,0 -0.823,1.102 0.646,1.839 0.521,0.392 1.789,0.509 2.086,0.561 0.744,0.161 0.544,0.29 1.2,1.065 0.84,0.981 0.226,0.904 0.987,2.87 0.75,1.959 1.512,3.399 4.002,3.628 2.494,0.229 4.931,-2.502 6.785,-4.088 1.857,-1.592 8.266,-7.714 8.266,-7.714 0,0 -1.997,-0.308 -3.485,-1.271 z m -6.175,4.492 c 0,0 -1.36,-0.379 -1.126,-1.209 0.096,-0.352 0.709,-0.836 1.412,-0.814 0.747,0.018 1.57,0.549 1.57,0.549 z"/><path d="m 131.209,30.58 c -3.935,0.827 -5.487,1.228 -6.514,1.663 -2.03,0.83 -1.65,4.758 -1.731,5.816 -0.071,1.061 0.346,3.579 0.914,3.758 0.494,0.167 5.06,-0.204 5.06,-0.204 l 0.068,2.191 c 0,0 -4.962,0.364 -8.257,1.042 -3.123,0.649 -6.529,1.376 -6.529,1.376 0,0 -1.913,-2.573 -3.573,-3.4 -1.657,-0.833 -4.816,-0.475 -6.572,0.075 -2.95,0.907 -9.818,4.378 -12.694,6.122 -2.873,1.734 -10.133,7.177 -10.133,7.177 0,0 -3.163,-3.928 -4.835,-5.443 -1.453,-1.339 -2.419,-2.191 -2.419,-2.191 l -1.354,7.029 c 0,0 1.438,-0.303 2.413,0.154 0.528,0.247 5.449,5.893 6.276,6.949 0.83,1.055 0.056,2.15 -0.302,2.499 -3.715,3.533 -7.924,9.263 -10.059,11.981 -2.571,3.25 -6.063,10.288 -7.02,12.5 -0.253,0.573 -0.454,-0.154 -1.882,0.074 -1.447,0.228 -3.563,0.907 -3.563,0.907 l 3.403,4.536 c 0,0 1.487,-1 3.375,-1.303 1.466,-0.229 2.749,0.185 3.203,0.85 0.546,0.804 1.29,1.539 1.059,2.944 -0.17,0.977 -0.605,1.969 -1.738,2.945 -1.139,0.981 -1.11,0.993 -1.339,2.357 -0.09,0.574 0.371,1.931 1.379,1.647 1.839,0.099 1.016,-2.413 1.016,-2.413 0,0 -0.151,-0.307 0.151,-1.516 0.305,-1.21 1.888,-1.21 2.496,-2.642 0.605,-1.439 0.596,-3.683 0.293,-4.815 -0.312,-1.136 -1.577,-1.533 -2.335,-2.061 -0.756,-0.531 -0.454,-1.361 -0.454,-1.361 0,0 1.283,-3.101 4.915,-8.991 3.623,-5.896 9.5,-11.222 12.086,-13.753 9.291,-9.103 22.266,-14.268 26.197,-15.526 10.281,-3.308 21.04,-3.524 21.04,-3.524 V 29.525 c -0.002,0 -1.115,0.845 -2.041,1.055 z m -3.94,7.563 c 0,0 -0.213,-1.36 -0.093,-1.743 0.229,-0.756 1.614,-0.71 1.614,-0.71 l 0.033,2.453 z M 99.066,52.382 c -7.402,3.777 -12.904,8.652 -12.904,8.652 0,0 -2.512,-1.364 -1.142,-2.505 1.354,-1.129 5.773,-4.067 8.772,-6.109 4.687,-3.175 10.281,-5.292 10.281,-5.292 0,0 2.194,-0.831 3.403,-0.531 0.923,0.247 1.605,1.287 1.605,1.287 0,0 -6.133,2.53 -10.015,4.498 z"/></g><path d="m 49.912615,5.8172651 c 0,0 0.491224,0.4217891 1.258105,1.1278203 0.245147,0.2247774 1.138429,0.9394723 1.190459,1.1229056 0.01149,0.041898 0.06248,0.9662545 0.06248,0.9662545 l 0.0086,0.121698 c 0,0 -0.383958,-0.288851 -1.178045,-0.184235 -0.465573,0.06137 -1.054747,0.282831 -1.065298,0.681644 -0.607821,-0.612071 -0.834873,-1.2890443 -0.820243,-1.9736915 0.01486,-0.6959328 0.252194,-1.3476639 0.49969,-1.8321702 0.02059,-0.033972 0.04427,-0.030226 0.04427,-0.030226 z" stroke-miterlimit="3.864" fill="#fff" fill-rule="evenodd" stroke="#000" stroke-width=".029"/><path d="m 51.921219,9.1178865 c -0.01696,0.222031 0.02023,0.624801 -0.236441,0.8892105" stroke-miterlimit="3.864" fill="none" stroke="#fff" stroke-width=".029"/><g transform="matrix(0.10343705,0,0,0.06143146,38.62482,1.4272114)" fill="#02bee7" fill-rule="evenodd"><path d="m 103.46801,142.7995 c 0,0 4.66399,1.4665 6.79799,0.8615 1.312,-0.372 2.567,-1.822 5.088,-1.822 2.524,0 3.545,1.296 6.905,1.524 3.364,0.229 4.37,-1.307 5.437,-1.615 1.067,-0.307 2.366,-1.021 5.335,-0.048 2.215,0.729 3.626,1.663 5.225,1.663 1.613,0 4.662,-1.024 5.821,-1.388 1.2,-0.364 2.78,-0.275 4.216,0.05 1.364,0.309 2.882,0.947 4.865,1.023 2.8,0.117 7.798,-1.777 9.101,-1.791 1.601,-0.005 4.58495,1.45266 4.58495,1.45266 l -0.666,0.62615 c 0,0 -2.24095,-1.37481 -3.91895,-1.37481 -2.21,0 -4.707,1.796 -8.001,2 -2.714,0.165 -5.706,-1.696 -8.801,-1.4 -1.299,0.126 -5.042,1.799 -6.797,1.799 -1.757,0 -6.721,-2.5 -7.999,-2.5 -2.604,0 -4.199,2.102 -6.997,2.397 -2.521,0.275 -5.897,-1.696 -8.6,-1.597 -2.008,0.073 -3.128,1.646 -4.001,1.9 -2.62,0.751 -5.696,-0.403 -5.696,-0.403 z"/><path d="m 108.94011,146.8367 c 1.308,-0.366 3.89389,-2.4977 6.41489,-2.4977 2.524,0 3.545,1.296 6.905,1.523 3.364,0.226 4.37,-1.304 5.437,-1.617 1.067,-0.301 2.366,-1.014 5.335,-0.042 2.215,0.725 3.626,1.659 5.225,1.659 1.613,0 4.662,-1.025 5.821,-1.382 1.2,-0.374 2.78,-0.277 4.216,0.05 1.364,0.307 2.882,0.816 4.865,1.019 3.986,0.413 8.5476,-2.17564 11.4436,-1.07164 0.568,0.218 -0.28724,0.94548 -0.81135,0.65545 -1.1853,-0.65592 -6.23925,1.13119 -9.53325,1.32919 -2.714,0.165 -5.706,-1.704 -8.801,-1.4 -1.299,0.126 -5.042,1.799 -6.797,1.799 -1.757,0 -6.721,-2.5 -7.999,-2.5 -2.604,0 -4.199,2.102 -6.997,2.4 -2.521,0.272 -5.897,-1.699 -8.6,-1.597 -2.008,0.073 -4.51349,1.9904 -5.32149,2.3984 z"/><path d="m 111.31362,148.78829 c 1.06401,-0.59789 1.53338,-1.44629 4.04138,-1.64829 3.505,-0.279 3.545,1.296 6.905,1.524 3.364,0.222 4.37,-1.312 5.437,-1.615 1.067,-0.303 2.366,-1.019 5.335,-0.048 2.215,0.729 3.626,1.663 5.225,1.663 1.613,0 4.662,-1.029 5.821,-1.383 1.2,-0.369 2.78,-0.28 4.216,0.05 1.364,0.301 2.882,0.945 4.865,1.016 2.8,0.115 7.49179,-1.9714 8.79479,-1.7846 l -1.29979,0.8996 c -2.209,0 -3.509,1.474 -6.798,1.801 -2.998,0.296 -5.304,-1.704 -8.398,-1.4 -1.299,0.123 -5.042,1.802 -6.797,1.802 -1.757,0 -6.721,-2.506 -7.999,-2.506 -2.604,0 -4.199,2.104 -6.997,2.4 -2.521,0.272 -5.937,-2.097 -8.6,-1.597 -1.598,0.301 -2.15389,1.1257 -3.02389,1.3717 z"/><path d="m 113.51201,150.36319 c 3.602,-1 5.38899,0.67281 8.74899,0.89781 3.364,0.228 4.37,-1.307 5.437,-1.615 1.067,-0.302 2.366,-1.019 5.335,-0.042 2.215,0.728 3.626,1.657 5.225,1.657 1.613,0 4.662,-1.029 5.821,-1.38 1.2,-0.372 2.78,-0.277 4.216,0.05 1.364,0.301 5.10068,1.2494 7.09768,1.3304 L 154.26,151.862 c -2.803,-0.1 -5.706,-1.701 -8.801,-1.403 -1.299,0.126 -5.042,1.802 -6.797,1.802 -1.757,0 -6.721,-2.503 -7.999,-2.503 -2.604,0 -4.211,2.026 -6.997,2.403 -3.706,0.497 -5.897,-2.1 -8.702,-1.103 z"/><path d="m 117.86161,152.9875 c 2.518,0 0.93939,0.5395 4.29939,0.7745 3.357,0.226 4.468,-1.309 5.536,-1.617 1.067,-0.302 2.366,-1.019 5.335,-0.037 2.215,0.72 3.626,1.654 5.225,1.654 1.613,0 4.662,-1.026 5.821,-1.382 1.2,-0.372 2.78,-0.272 4.216,0.042 1.364,0.309 1.82968,0.4331 3.78668,0.7631 0.604,0.099 -0.82768,0.5769 -0.82768,0.5769 -2.293,0 -2.7,-1.104 -5.795,-0.801 -1.299,0.126 -5.042,1.801 -6.797,1.801 -1.757,0 -6.721,-2.502 -7.999,-2.502 -2.604,0 -4.199,2.099 -6.997,2.397 -2.521,0.277 -3.00139,-0.69521 -4.40239,-0.69521 z"/><path d="m 123.264,156.26 c 3.298,0 3.693,-0.976 4.693,-1.45 0.959,-0.45 2.106,-1.083 5.075,-0.107 2.215,0.721 3.626,1.657 5.225,1.657 1.613,0 4.662,-1.028 5.821,-1.382 1.2,-0.369 3.60464,-0.047 5.03864,0.27998 l -1.32029,0.79599 c -2.604,-0.903 -7.38035,1.30603 -9.13535,1.30603 -1.757,0 -6.721,-2.521 -7.999,-2.5 -2.896,0.05 -2.92349,2.03009 -6.07149,2.32909 z"/><path d="m 126.21,158.258 c 1.747,-0.352 1.993,-1.016 3.049,-1.346 0.799,-0.249 0.858,-0.388 3.823,0.589 2.209,0.723 3.74749,1.7795 5.35849,1.7795 1.594,0 4.7231,-2.06179 5.804,-1.377 0.188,0.081 -0.88749,0.6095 -0.88749,0.6095 -1.902,0.145 -2.95,1.445 -5.042,1.445 -2.21,0 -6.755,-2.6 -8.054,-2.348 -2.466,0.476 -1.799,0.646 -2.851,1.099 z"/><path d="m 128.95641,159.61279 c 0.556,-0.152 0.60759,-0.78479 3.57859,0.18621 2.21,0.726 3.62,1.663 5.224,1.663 l -0.796,0.447 c -1.756,0 -5.24939,-1.8994 -7.00539,-1.7994 z"/><path d="m 100.261,140.266 c 0,0 3.761,-1.351 5.208,-0.458 1.133,0.718 1.682,1.523 3.342,1.409 1.944,-0.137 3.583,-1.506 6.26,-1.76 1.229,-0.109 2.756,0.081 4.502,0.537 1.755,0.46 3.067,1.013 5.887,-0.137 1.814,-0.74 3.268,-1.542 6.251,-1.005 2.974,0.531 4.896,1.644 6.652,1.644 1.906,0 6.371,-1.188 9.201,-0.639 2.286,0.45 4.693,1.095 6.598,1.003 2.098,-0.103 5.794,-1.349 8.143,-1.646 1.94829,-0.32173 6.32285,0.40681 7.45083,1.05197 1.219,0.382 0.27117,0.18803 0.27117,0.18803 l -0.9128,0.77251 c 0,0 -1.1462,-0.57251 -2.1612,-0.86151 -0.987,-0.29 -2.231,-0.963 -4.606,-0.508 -2.36,0.464 -5.989,1.604 -8.09,1.604 -2.604,0 -5.508,-0.439 -7.501,-0.9 -1.982,-0.455 -6.785,0.77 -8.501,0.696 -2.543,-0.094 -5.345,-2.044 -8.949,-1.843 -1.922,0.104 -3.693,1.646 -5.896,1.843 -3.125,0.286 -3.444,-0.387 -5.351,-0.696 -1.907,-0.309 -3.208,-0.72 -5.351,0.196 -2.135,0.919 -3.41,1.204 -4.249,1.204 -0.833,0 -1.756,-0.319 -2.598,-0.9 -0.95,-0.651 -2.295,-0.523 -2.749,-0.602 -0.46,-0.073 -1.756,0.602 -1.756,0.602 z"/></g><g transform="matrix(0.10343705,0,0,0.06143146,38.62482,1.4272114)" fill-rule="evenodd" stroke-width=".647" stroke-miterlimit="3.864" fill="#fff" stroke="#000"><path d="m 82.176,120.377 c 0,0 2.777,7.738 7.693,13.583 3.934,4.662 7.803,8.793 14.104,14.002 7.519,6.22 21.984,16.426 31.164,19.483 5.411,1.807 11.537,4.152 11.537,4.152 0.691,0.536 0.916,1.073 0.691,1.751 -0.229,0.686 -0.994,1.296 -1.688,2.217 -0.682,0.914 -0.803,1.684 -0.37,2.215 0.409,0.523 0.989,1.142 2.359,0.609 1.771,-0.706 1.599,-1.374 2.216,-2.979 0.604,-1.6 0.469,-3.142 0.469,-3.142 0,0 1.12,-0.277 1.861,0.095 0.903,0.455 1.86004,0.11836 3.38704,0.35036 1.521,0.229 2.97696,-0.28036 3.36396,0.33264 0.389,0.612 0.765,1.45 1.78,1.636 1.295,0.232 2.413,0.092 3.032,-0.799 0.688,-1.013 0.774,-2.458 -0.234,-3.664 -0.765,-0.914 -2.366,-1.223 -5.042,-1.676 -2.671,-0.461 -4.337,-0.23 -5.032,-0.688 -0.688,-0.455 -1.147,-0.765 -1.073,-1.372 0.083,-0.614 -0.143,-1.148 0.462,-2.06 0.611,-0.919 0.764,-1.228 1.368,-1.835 0.613,-0.612 0.312,-1.681 -0.377,-2.136 -0.688,-0.459 -2.595,-0.459 -3.283,0.764 -0.682,1.218 -0.916,1.597 -0.993,3.207 -0.074,1.6 0,1.5 -0.151,2.06 -0.303,1.218 -1.277,1.063 -3.508,0.38 -8.072,-2.477 -13.42,-4.863 -21.3,-9.468 -11.632,-6.774 -23.972,-15.558 -33.062,-25.387 -4.018,-4.33 -9.374,-11.631 -9.374,-11.631 z"/><path d="m 188.302,120.377 c 0,0 -2.793,7.738 -7.708,13.583 -3.928,4.662 -7.801,8.793 -14.102,14.002 -7.51,6.22 -21.987,16.426 -31.168,19.483 -5.408,1.807 -11.533,4.152 -11.533,4.152 -0.679,0.536 -0.916,1.073 -0.679,1.751 0.222,0.686 0.99,1.296 1.679,2.217 0.688,0.914 0.805,1.684 0.38,2.215 -0.423,0.523 -0.991,1.142 -2.371,0.609 -1.774,-0.706 -1.598,-1.374 -2.212,-2.979 -0.611,-1.6 -0.479,-3.142 -0.479,-3.142 0,0 -1.117,-0.277 -1.854,0.095 -0.907,0.455 -2.243,0.50632 -3.773,0.73832 -1.537,0.229 -2.585,-0.66832 -2.981,-0.0553 -0.385,0.612 -0.768,1.45 -1.783,1.636 -1.281,0.232 -2.41,0.092 -3.024,-0.799 -0.697,-1.013 -0.781,-2.458 0.231,-3.664 0.759,-0.914 2.364,-1.223 5.039,-1.676 2.669,-0.461 4.351,-0.036 5.039,-0.49402 0.679,-0.455 1.142,-0.95898 1.067,-1.56598 -0.077,-0.614 0.154,-1.148 -0.45,-2.06 -0.617,-0.919 -0.778,-1.228 -1.382,-1.835 -0.611,-0.612 -0.302,-1.681 0.385,-2.136 0.682,-0.459 2.589,-0.459 3.277,0.764 0.688,1.218 0.917,1.597 0.991,3.207 0.077,1.6 0,1.5 0.164,2.06 0.299,1.218 1.274,1.063 3.511,0.38 8.072,-2.477 13.404,-4.863 21.294,-9.468 11.636,-6.774 23.965,-15.558 33.064,-25.387 4.014,-4.33 9.378,-11.631 9.378,-11.631 z"/></g><path d="m 49.920612,5.7958055 -0.06621,0.037918 c 0.688513,0.7022248 1.742686,1.5210627 2.526644,2.2582408 l 0.02719,-0.066006 z" fill-rule="evenodd" stroke="#000" stroke-width=".021"/><path d="m 49.460001,9.7901425 c 0.436907,0.124765 0.763321,0.05963 1.036684,-0.03972 0.643656,-0.233923 0.716227,-0.307474 1.404539,-0.50844 0.129135,0.02042 0.25371,0.142538 0.441426,0.345581" fill="none" stroke="#fff" stroke-width=".021"/><path d="m 50.91692,6.5063145 c -0.01106,0.053859 -0.0095,0.1298624 -0.0048,0.1759361 l -0.122527,-0.00246 c 0.0065,-0.059612 -0.03224,-0.1201532 0.0035,-0.1733081 z" fill-rule="evenodd"/></g></svg>