<svg xmlns="http://www.w3.org/2000/svg" width="802" height="864.116" version="1.0"><g transform="matrix(0.64738217,0,0,0.64738217,4.4824863,5.5009244)"><g transform="translate(0,-6.9508711)"><g fill-rule="evenodd"><path d="m 633.25377,308.45746 h -64.6709 c -44.48645,96.15291 -7.62159,111.30908 -17.71805,115.16733 -8.26841,3.14129 -16.53682,0.40156 -24.80524,-0.88589 12.47878,18.68812 28.80013,40.81842 18.60395,46.95283 -11.81204,-1.77179 -17.42272,-2.95301 -22.14756,-14.17443 l -2.65773,53.15414 c -3.48431,13.4054 -16.27936,14.23495 -20.37573,-0.88589 -9.41473,-79.42802 7.05234,-152.97378 49.61053,-220.58974 l -11.51675,-5.31542 c -14.74517,26.02258 -45.04697,34.06908 -37.20788,106.3083 -7.29643,9.81894 -12.76661,8.6804 -17.71805,4.42951 l -2.65773,109.8519 c -5.38256,11.37552 -11.22689,19.74945 -21.26162,0.88594 l -19.48987,-66.44271 c -9.71281,-28.44921 -22.96142,-94.13141 42.52332,-138.20079 22.36259,-16.49671 42.60247,-31.93207 60.24139,-46.06692 l -26.57712,7.08721 c -64.57211,59.24615 -154.66031,77.65743 -141.74438,217.04613 -4.55722,10.27425 -11.57819,15.18769 -20.37575,1.77179 -9.2274,-34.04636 -25.44283,-65.96062 -5.31542,-116.93913 27.28962,-44.53815 58.93896,-75.94426 102.7647,-108.0801 -35.63543,4.44437 -72.17542,2.25512 -100.99289,56.69775 -8.84902,18.49397 -15.62659,14.20185 -22.14756,7.08722 l -9.74493,38.0938 c -10.7603,16.11064 -25.83245,1.85055 -19.48986,-12.40262 7.38253,-17.71806 33.41689,-185.24902 194.89853,-119.59684 18.19749,8.69145 34.84194,6.0071 7.97313,-15.06034 -19.59235,-9.73278 -47.12489,-48.79896 -110.73779,-19.48985 -25.5748,22.04397 -24.29372,-8.09935 -9.74493,-18.60395 -28.22342,12.48372 -55.31662,28.35807 -78.84532,54.92595 -14.95664,13.18482 -24.70999,-0.0953 -18.60396,-13.28855 27.04077,-33.34214 58.30518,-68.93425 131.11357,-69.10038 20.06663,-5.31541 7.84534,-10.63083 3.54361,-15.94625 -67.222,-17.43235 -74.04359,3.06633 -102.76469,30.12069 -4.06838,7.5106 -21.77729,7.12644 -16.83215,-9.74493 38.58908,-77.054882 182.9699,-97.773518 247.16678,7.08723 7.20078,9.67223 16.19646,1.78291 8.85902,-7.08723 -16.14549,-15.30116 -40.68205,-72.677289 -99.22105,-69.986289 -8.46038,0.745775 -20.71542,-7.528591 -14.17443,-13.288541 -36.02672,-8.042536 -82.68425,6.184835 -118.71095,31.006589 -1.12856,3.195663 -34.26613,6.507851 -29.23478,-12.402638 80.38887,-73.5455353 219.57834,-62.214109 265.77072,14.174442 -0.5534,-14.44243 4.39652,-46.053817 -31.89247,-53.154152 -13.54331,-18.239555 46.95984,-46.1724429 60.24138,-40.7515109 29.39908,8.8179449 24.86971,26.1180149 27.46296,41.6374179 2.11943,11.718633 6.0223,16.307325 15.94626,-0.885907 52.0439,-72.968191 155.04804,-29.835544 190.46906,-18.603949 16.61045,11.723365 13.47189,21.925616 -4.4296,23.033465 l -69.10036,-8.859023 c 7.0762,3.423276 9.26023,13.841251 -4.42951,13.288535 -37.333,-6.731291 -60.03501,-1.358915 -75.3314,17.690068 0.13503,1.50814 -3.00456,20.419599 -24.40682,18.303427 -7.69638,0.205155 -17.74299,3.901031 -21.33062,16.178396 -1.28992,7.41375 4.92102,10.13245 10.25828,6.41969 37.78391,-34.660592 132.6706,-72.198893 213.57532,-18.725968 l 45.18101,42.523318 c 17.41774,18.24947 -8.11534,27.81788 -15.06032,16.83215 -64.72957,-58.878512 -118.41278,-46.43045 -179.83825,-28.34889 -2.3104,6.97314 -5.74056,14.58613 7.97309,12.40264 108.98678,-31.94264 196.76403,34.4916 211.73072,97.44927 5.2806,37.64183 -16.2712,34.24244 -26.57707,15.06035 -11.7276,-26.95695 -18.60609,-64.17125 -37.20784,-61.12727 0,0 -4.27971,14.34339 -21.26166,8.85902 -7.4041,-2.39119 -21.98696,-30.57666 -46.067,-32.77839 3.72899,12.976 -68.75447,15.28392 -108.96601,14.17444 -4.09421,4.81657 -9.59037,9.86682 0,12.40263 103.02401,-25.19056 185.47778,4.83392 243.6232,100.10697 l 20.37573,49.61054 c 13.81024,55.52753 -13.37763,53.44458 -34.55016,26.57707 -27.77808,-39.55048 -52.19481,-82.46233 -84.16073,-117.82502 -3.21567,17.55336 -11.75407,13.81574 -19.48988,13.28853 -44.86567,-40.45341 -84.59333,-42.37172 -124.91227,-48.72463 -5.14901,5.46038 -10.92798,11.01077 0,14.17444 75.44217,18.02223 181.29138,54.02338 183.38187,217.93199 0.29519,21.19174 -24.21468,50.68943 -36.32204,13.28855 l 9.74497,-55.81186 c 4.26159,-8.75824 -3.22227,-17.73366 -8.85903,-13.28853 -8.5907,8.25982 -14.43458,7.36364 -15.9463,-7.97312 1.26053,-13.19489 -3.34049,-27.85515 -11.51671,-43.40923 -5.93464,21.54734 -16.97755,14.99896 -27.46301,11.51674 0,0 -48.71363,-53.67867 -54.23175,-55.68758 63.94399,100.84765 26.36382,153.02565 17.02387,169.96898 -10.50403,7.34816 -22.56855,12.72947 -24.80528,-4.42946 1.4717,-18.48682 2.5614,-32.44333 16.83215,-46.06696 9.41348,-16.92773 0.65014,-21.88219 -6.2013,-21.26166 -14.3995,3.80249 -11.23277,-31.04073 -15.06037,-50.49645 -14.93233,-0.80225 -14.40578,-9.33394 -10.63081,-19.48984 9.36027,-16.98321 -4.96184,-25.08552 -13.28853,-35.43611 l -17.71805,4.42951 c 33.68885,57.24442 42.08444,136.67126 37.20788,176.29459 -3.89076,15.13937 -22.05671,24.44316 -31.89248,0.8859 -0.83336,-53.15414 -19.59562,-106.30829 -33.6643,-159.46244 z" fill="#00582b" stroke="#003000" stroke-width="4.123"/><path d="m 713.78516,6.078125 c -32.48337,0.066319 -66.38868,15.436092 -82.75548,44.48072 -2.92037,5.045424 -9.99968,11.427669 -15.59804,6.341546 -7.06599,-8.480609 -4.28073,-20.699288 -7.14258,-30.695313 C 605.9588,13.724393 592.55978,6.8255749 580.89648,6.2167969 565.33024,8.8458658 550.01921,15.448104 537.74609,25.53125 c -3.73861,3.685875 -10.5978,8.505152 -8.05859,14.486328 14.20049,2.375019 29.6628,11.873024 31.42578,27.408203 1.86032,14.188768 0.19823,28.322806 2.91406,42.394529 C 552.10654,93.80825 540.83959,76.309129 523.69976,65.450745 482.8827,37.199086 430.11499,31.580435 382.33008,41.679688 c -31.57753,6.880338 -61.93127,21.252676 -85.71094,43.27539 -0.80758,7.250446 8.91072,8.672322 14.34766,8.517578 10.14814,0.671253 16.78672,-8.249573 25.45117,-11.917968 34.21403,-19.184174 75.53526,-30.234039 114.30664,-19.611329 -1.87498,1.519486 -9.46945,3.747664 -6.67188,7.244141 8.47723,7.131755 20.10189,2.230487 29.94727,5.240234 29.46042,5.132701 52.0696,27.696046 68.4917,51.326936 5.51476,8.28215 12.72918,15.40226 18.01416,23.79025 2.90266,6.48963 -3.13145,15.5704 -10.53906,12.7793 -9.40234,-3.16311 -11.55477,-14.22989 -18.01172,-20.73438 C 502.77883,103.12842 452.47734,82.128915 404.72635,87.031167 364.06651,90.34154 322.30617,110.8349 302.57617,147.77539 c -3.19436,4.53001 0.39972,12.46718 6.39649,9.30273 5.71341,-3.44877 9.23747,-9.6895 14.42649,-13.9334 12.15044,-12.93256 27.12703,-25.63708 45.75124,-26.36738 17.36904,-1.40201 35.15027,2.01137 51.49414,7.03711 3.86422,4.1127 11.49775,9.00907 8.00195,15.66407 -7.31014,9.35722 -20.75715,6.92832 -31.13476,8.01171 -35.8383,2.31384 -70.29875,19.52487 -93.83984,46.79493 -6.41298,7.39682 -14.19236,14.36898 -18.13086,23.38086 -1.50203,4.8891 3.11786,11.62637 8.33007,8.03515 9.18196,-4.89425 14.18797,-14.78751 22.68946,-20.67187 19.58307,-16.77718 42.0766,-30.53639 66.31836,-39.34375 4.33367,-1.03476 4.45034,4.62382 1.50976,6.3789 -5.3802,4.90249 -12.34062,12.93822 -8.78906,20.38086 7.85285,-0.37935 12.30163,-8.68086 19.9668,-10.16211 24.52587,-10.55916 54.46198,-11.74053 77.75586,2.65821 12.17736,7.28097 23.56155,15.96084 34.88671,24.07031 5.30844,4.54161 13.20241,11.15401 10.21094,18.95312 -4.81409,6.99594 -14.90687,3.62338 -21.29682,1.16269 -30.20313,-12.33231 -64.13265,-21.81823 -96.35515,-14.26021 -27.80316,5.58294 -51.1729,25.24703 -66.25992,48.98957 -16.72376,25.51641 -25.22358,55.18393 -33.35764,84.22514 -1.96986,5.89639 4.68069,14.05687 10.33984,8.65235 5.77528,-5.3493 4.37051,-14.22969 7.30543,-21.07306 2.25642,-8.82001 4.51115,-17.64045 6.76879,-26.46015 4.03071,3.22563 7.08323,10.70916 13.09766,9.78125 8.68398,-8.54242 11.8481,-21.25024 20.02294,-30.45133 15.21525,-20.82991 39.79925,-33.58895 65.30919,-35.94516 13.72441,-1.83082 27.53003,-2.9805 41.25771,-4.79491 -43.99466,31.02382 -85.46001,67.80693 -112.8789,114.79492 -11.35196,24.08097 -12.50816,52.12689 -5.9336,77.67187 3.35228,13.05695 7.05047,26.07887 11.87305,38.60352 1.94037,3.1501 6.85505,5.61794 9.05469,1.26562 4.49188,-6.90409 0.25238,-14.91155 1.12109,-22.5957 -1.55086,-40.47957 8.73949,-83.09372 36.4375,-113.73633 30.79349,-35.53716 74.47881,-55.92982 108.54102,-87.68554 13.66065,-3.49379 27.13965,-7.88261 41.18554,-9.64258 -26.01496,23.70796 -55.24624,43.45967 -83.08789,64.85547 -23.01488,19.35746 -37.24372,48.90474 -36.48566,79.1367 0.1865,31.25181 13.57625,59.99266 21.0007,89.85337 3.80637,9.81047 4.23207,21.84666 12.14317,29.5236 3.99427,1.44542 6.12477,-4.81193 7.24218,-7.83399 2.01195,-10.45157 0.3453,-21.36072 1.31123,-32.05048 0.6977,-28.80479 1.39537,-57.60957 2.09307,-86.41436 3.20493,3.72786 10.06462,11.75445 15.11524,5.92773 4.55972,-3.71806 0.46056,-10.06302 1.28671,-15.02365 -1.77432,-25.87473 4.00914,-53.67841 22.18008,-73.1033 6.67349,-7.88823 13.90316,-15.51598 18.56836,-24.84375 5.42391,4.33264 14.24174,4.09985 17.79688,10.70508 -38.71887,59.47656 -57.56381,131.28919 -52.08391,201.96365 0.89091,7.9492 0.11208,17.11074 4.68156,23.95236 4.24747,4.58994 9.37627,-1.24146 9.51758,-5.86914 0.8964,-9.29005 0.28602,-18.713 1.41182,-27.96799 0.52618,-12.92116 1.16648,-25.8428 2.56474,-38.70388 4.77766,8.64897 6.91935,22.40177 18.71289,24.07617 2.19735,0.94381 7.08354,1.6323 5.02149,-2.43555 -3.57704,-15.21265 -14.99923,-26.80282 -22.68946,-39.87304 -0.86352,-5.14261 6.06263,-4.23254 9,-2.98828 5.95086,0.94985 12.24949,2.87792 18.18946,0.875 -7.20068,-17.26711 -7.56741,-36.54749 -3.54887,-54.64069 4.13339,-21.29252 12.42813,-41.48442 21.4102,-61.1308 23.44205,0 46.88411,0 70.32617,0 14.03566,53.66949 33.24947,107.00454 34.70117,163.01172 2.12982,6.46416 9.97037,14.04277 16.7832,9.12305 10.34832,-7.46199 7.55404,-21.74925 8.16944,-32.81835 -0.40759,-50.94919 -11.50367,-102.50703 -35.88428,-147.6172 -2.31703,-4.28573 -7.4141,-9.6151 0.86941,-9.37995 6.61371,-1.65447 13.2284,-3.30505 19.84153,-4.96185 7.31239,9.35226 19.88698,17.70897 18.79297,31.09766 0.007,7.65954 -8.36717,15.0055 -3.7461,22.39453 4.01174,2.56287 12.26382,0.45107 11.78711,7.61328 2.7397,14.66691 0.26749,30.61697 6.99024,44.28711 4.38951,1.54343 10.13225,-0.66742 13.71875,3.49024 7.69688,7.06721 3.74446,19.77783 -2.55257,26.40175 -7.4967,7.94827 -11.86048,18.16159 -12.89275,28.99864 -0.43786,6.19164 -2.91176,14.02581 1.27344,19.32031 5.18074,3.0899 11.04237,-1.93369 15.08008,-4.95703 8.63419,-12.54196 13.81956,-27.44564 16.26562,-42.5918 6.47295,-40.35093 -9.28036,-80.69032 -29.5796,-115.30181 -1.70192,-4.94757 -8.26169,-9.63995 -6.30516,-15.26069 3.45061,-3.07376 7.32204,2.26022 9.84961,4.23047 18.08211,18.21944 35.09499,37.79171 54.1582,54.86914 5.38685,2.46105 14.1862,4.68047 16.9082,-2.58008 2.70602,-5.2664 3.64305,-11.1989 5.48829,-16.77929 9.81497,17.15041 18.17859,36.27812 16.93945,56.45703 0.1442,2.54952 1.59594,9.09424 5.16015,5.5664 3.9476,-4.05801 10.80825,-7.62522 15.71485,-2.90429 6.19801,4.90169 5.29196,13.70254 2.97864,20.31436 -2.62741,17.68554 -7.30441,35.32114 -8.40052,53.0665 1.99642,5.42738 6.15856,14.48337 13.28321,11.93164 13.09798,-6.92774 15.49095,-23.58092 14.07226,-36.88282 -1.74761,-45.72229 -13.22165,-92.94425 -42.27344,-129.14258 -29.65111,-37.62652 -75.33269,-58.5835 -120.89843,-70.35546 -8.28604,-3.4012 -19.95354,-1.91632 -25.47852,-10.20899 -2.65696,-6.70301 4.10041,-12.01144 8.01953,-16.37305 36.4065,4.90734 74.55399,10.39977 105.52477,31.73417 8.18251,5.18984 15.62737,11.61451 23.14711,17.54513 4.79551,1.34614 11.42648,0.20892 12.15429,-5.68945 1.25851,-4.05711 1.75086,-8.2998 2.71875,-12.42774 36.42681,38.29421 61.54289,85.31192 92.78516,127.53907 5.92844,6.20882 13.61153,14.5687 23.09961,12.40625 7.38605,-6.22672 4.43463,-17.03578 4.17383,-25.40039 -3.29924,-20.68845 -14.2653,-38.97777 -21.24414,-58.5 -9.16783,-19.25079 -23.84264,-34.9833 -37.30766,-51.2254 -31.75235,-33.58041 -75.71052,-55.80748 -122.07125,-58.66132 -28.20693,-2.42419 -56.30121,2.22447 -83.71094,7.7539 -6.44975,-0.56903 -10.80289,-9.13017 -5.68036,-13.97575 2.36231,-4.40142 7.12875,-7.85177 12.23895,-6.16995 32.07745,-0.098 64.61715,0.99491 95.83594,-7.2 2.81219,-0.43016 4.34493,-2.33356 3.51563,-4.95703 2.00916,-4.55269 7.93137,-1.15701 11.43555,-0.875 17.28488,4.59602 27.732,20.40277 40.30078,31.67383 6.61305,3.47879 16.12885,-0.78927 16.80859,-8.49219 10.89055,-3.531 20.73335,5.76193 25.02539,14.97656 8.4939,15.8367 11.92467,34.09637 20.36719,49.75196 3.58123,3.96642 7.68583,11.67486 14.17187,9.25 6.58935,-7.29127 4.24116,-18.3273 2.53516,-27.0625 -12.139,-40.46052 -46.5607,-70.4079 -84.60547,-86.26954 -39.02448,-16.15332 -83.39765,-16.26825 -123.61133,-4.21093 -5.98821,1.34431 -14.31465,-2.51434 -12.60742,-9.73047 0.44703,-5.56481 2.80571,-12.39408 9.65689,-12.24716 36.78248,-10.9793 76.8957,-19.970251 114.63608,-8.0712 25.98629,7.73239 48.35109,24.10651 68.19141,42.01367 5.81787,2.60206 14.0785,-4.55901 8.71679,-10.03516 -7.52884,-10.53902 -18.62061,-17.74083 -27.46875,-27.08007 -11.9199,-11.9565 -24.27812,-24.124447 -40.22265,-30.533207 -53.09706,-25.059489 -117.15552,-16.560272 -166.44141,13.283203 -9.29778,5.220164 -17.25071,12.523554 -25.93359,18.501954 -7.40519,3.05798 -15.96851,-4.8906 -13.0586,-12.51758 2.90123,-13.299098 17.61909,-21.191785 30.5625,-19.035155 8.49119,-0.381701 14.94918,-8.3072 15.35743,-16.353516 13.4766,-18.445219 38.00497,-24.516415 59.8052,-22.312305 8.08186,0.24486 16.43723,3.201369 24.34714,1.925587 2.80884,-4.046584 -4.48447,-5.032843 -6.20898,-7.716797 -3.03152,-2.723925 0.82362,-6.248681 3.99218,-5.175782 24.83482,2.602016 49.50139,7.427039 74.38086,8.669922 3.77203,-0.31649 10.05547,-3.447544 6.2168,-7.855468 C 819.78133,25.431817 805.86358,25.248833 795.44781,20.672195 769.03282,12.176157 741.71745,5.5850768 713.78516,6.078125 Z" fill="#006c35"/><path d="M 713.82422,10.078125 C 681.59559,9.8786054 648.06734,26.206143 632.58203,55.458984 628.24449,61.981135 617.32999,66.092299 611.78711,58.75 602.23388,46.928925 610.02095,28.928813 599.33203,17.814453 591.12435,9.7676693 578.27904,8.6069852 568.15789,13.54608 c -13.2858,4.632593 -27.09483,11.415539 -34.99578,23.315248 16.72724,2.640912 32.88096,17.056315 32.39006,34.951983 0.88902,17.298214 0.79743,34.694659 4.56892,51.639809 C 552.54881,103.15343 539.2878,77.476412 514.84961,64.462891 469.19382,36.800866 411.38885,35.006567 361.65298,51.574289 c -22.19169,7.540752 -43.3325,18.969941 -60.65103,35.027273 4.74331,4.428958 12.8999,3.329488 18.31446,0.726563 8.80386,-5.459446 17.33752,-11.350474 26.92498,-15.426969 34.55058,-16.921193 75.64412,-24.267176 112.83088,-11.77225 -2.41925,3.507854 -6.80163,5.473409 -10.00977,7.417969 10.071,3.830898 21.36416,-0.01147 31.45508,4.193359 30.44478,7.833475 52.69792,32.583576 69.56655,57.757706 5.35087,7.60573 14.18173,14.17573 15.23814,23.98448 0.24456,9.14385 -10.81003,16.96259 -18.91016,11.67188 -10.52577,-5.63883 -13.24646,-18.50512 -21.7469,-26.26195 -33.77577,-40.387578 -92.21386,-57.583288 -142.74534,-44.08976 -31.66126,7.88174 -62.20103,26.97123 -76.64057,57.02163 0.52879,4.02476 4.76338,0.13543 5.60678,-1.62 14.99443,-15.53853 31.04112,-34.15711 53.81509,-36.94836 19.79718,-2.37434 40.12014,0.922 58.7168,7.67773 5.86765,4.77116 13.46216,12.89922 8.5,20.85938 -8.44267,11.05816 -24.17977,8.77426 -36.11042,9.83142 -37.58229,2.77252 -72.6009,23.19951 -95.70339,52.65432 -4.13605,5.02734 -10.78535,10.31184 -10.4733,17.29941 2.57191,2.98951 5.49737,-2.39383 7.61133,-3.29882 8.28181,-8.21567 15.95964,-17.11362 25.75938,-23.62505 18.49181,-14.0551 38.85987,-26.64273 61.26015,-33.09175 7.42418,0.31791 7.9125,11.40171 1.91797,14.31836 -3.07875,3.0988 -7.15719,7.11863 -7.23047,11.41992 6.34232,-3.90422 12.18698,-8.97881 19.71875,-10.5918 27.5454,-10.68287 60.92351,-8.52665 84.72035,9.94191 12.54912,8.85637 26.44049,16.64439 36.51402,28.437 4.75419,5.99308 4.37056,16.97077 -3.78906,19.69336 -12.08237,4.50837 -23.50491,-4.29731 -34.72825,-7.4181 -32.0596,-11.72424 -69.07527,-17.1145 -100.76784,-1.29284 -31.12063,15.76915 -50.73162,47.52793 -62.09674,79.67019 -5.2799,15.11684 -10.74649,30.47303 -13.58295,46.17942 0.95975,3.57197 5.28413,2.56559 5.62891,-0.80078 3.15668,-8.53908 3.76575,-17.80733 6.89677,-26.38518 1.89113,-7.39506 3.78269,-14.79 5.67354,-22.18513 6.21316,2.24495 8.31506,9.38185 13.94336,12.24609 8.98458,-11.20385 13.53302,-25.46282 24.01758,-35.58984 18.23806,-20.47674 45.68514,-30.56947 72.62829,-31.82138 15.37651,-1.7007 30.73131,-3.50698 46.11194,-5.24112 -48.22054,33.68615 -95.82022,72.2674 -124.92773,124.50586 -13.02737,29.22405 -9.47513,62.34494 0.81054,91.9707 2.2883,6.51448 3.36501,14.56529 7.80274,19.76563 3.86056,-3.83878 0.79246,-10.63191 1.15177,-15.41956 -2.87846,-44.36597 8.59323,-91.69518 39.71777,-124.70067 31.24029,-34.10306 73.77512,-54.92285 107.56796,-85.89735 17.90116,-4.85898 35.87814,-10.10537 54.49023,-11.29492 -29.90007,29.17017 -65.41163,51.57166 -97.55078,78.01757 -24.62737,23.39883 -35.12647,59.91533 -27.61914,93.02344 5.67991,29.03109 16.83617,56.60694 23.98437,85.26563 0.98253,2.53622 2.44057,6.60121 4.5254,7.32226 5.19179,-10.11587 1.39185,-21.92008 2.87379,-32.77644 0.88902,-32.68911 1.63758,-65.38179 2.43675,-98.07317 5.85742,3.63015 8.1799,12.28331 15.42383,13.40821 3.75029,-4.13615 -0.55154,-10.00133 0.61487,-14.99057 -1.84483,-28.24052 6.71461,-58.05453 27.2815,-78.19231 6.42423,-7.36016 12.42287,-14.93098 16.2423,-23.88744 6.64115,7.5346 20.19112,6.54853 23.76953,17.23828 -42.19521,63.77726 -61.11947,142.64811 -50.96875,218.4043 0.14205,3.0834 3.53938,6.73895 4.41016,1.76953 1.38625,-26.41159 2.05164,-52.99793 5.31836,-79.3125 8.3423,9.03638 8.64668,22.9921 18.18945,30.97852 3.63071,2.68345 4.36713,0.71284 2.28907,-2.7168 -5.03758,-12.78032 -16.20834,-22.39028 -20.79102,-35.19531 0.15316,-6.96312 9.10937,-8.42358 14.21484,-5.86524 3.80547,0.51769 8.02305,1.90025 11.50586,1.42774 -10.21,-29.74002 -1.38775,-61.78238 9.44616,-90.02119 3.49266,-8.93929 7.38344,-17.71614 11.38001,-26.43975 25.32683,0 50.65365,0 75.98047,0 14.37413,54.94165 33.85836,109.50129 35.78711,166.78906 1.59268,5.10065 9.14679,9.81034 12.625,3.82032 6.68482,-9.70823 3.18949,-22.07893 4.07083,-33.08368 -1.09737,-51.41618 -13.82008,-102.6857 -39.30911,-147.53351 -1.57858,-5.73926 5.34816,-8.37529 9.87636,-8.1665 6.62587,-1.65733 13.25161,-3.31515 19.87755,-4.97217 8.18523,10.63054 22.0318,20.10057 21.30664,35.09375 0.77227,7.11919 -6.18132,12.72672 -4.68946,19.79297 5.42952,0.76527 13.07881,3.15417 12.7129,9.97461 2.58797,13.73227 0.13907,28.40002 5.95117,41.46289 7.06757,-0.40318 14.91022,2.50843 17.40234,9.69531 5.09978,11.85946 -3.04446,23.92386 -10.91797,32.26758 -6.78656,10.55411 -8.64885,23.78707 -7.85351,35.8789 3.89822,2.72282 8.28495,-2.69097 10.86523,-5.18164 9.29917,-14.05657 13.94351,-30.51319 15.45107,-47.14117 3.22788,-39.93735 -13.82359,-78.30296 -34.26744,-111.74339 -4.37503,-4.14679 -4.35117,-13.32233 2.32028,-14.97481 6.37637,-0.53244 10.65305,5.82008 15.07061,9.49587 16.61516,17.33772 32.66869,35.63201 50.81611,51.35764 3.86214,2.14328 10.75607,2.47389 11.39257,-3.27344 2.84233,-7.40012 4.13715,-15.29886 7.19922,-22.63085 12.32094,20.16579 23.20941,42.85164 22.09766,67.07421 6.26209,-6.27036 18.30006,-6.03008 22.63281,2.38868 6.37231,10.48127 -0.47343,22.64585 -1.27929,33.63867 -2.24135,13.14288 -5.99385,26.37375 -5.625,39.61328 1.2086,3.57775 5.10127,10.55503 9.44726,6.23437 11.36874,-9.0386 10.21574,-25.17428 9.11719,-38.17187 -2.63654,-48.13468 -17.48789,-98.02138 -52.39042,-132.97887 -33.23988,-33.23438 -78.50301,-50.20549 -123.53927,-60.06605 -7.43274,-1.61975 -15.26904,-8.72036 -12.44531,-16.91602 1.74268,-5.75033 6.74561,-9.54185 10.50976,-13.92969 40.0618,5.06559 82.22457,11.79309 115.35054,36.70424 6.52706,4.11833 11.65744,11.09175 19.04009,13.43639 6.373,-0.77765 4.61009,-9.09284 6.33956,-13.44955 1.10065,-2.46277 0.74998,-11.01621 3.50569,-7.98363 39.5812,39.80278 65.18126,90.67057 99.47925,134.50735 4.01996,3.98658 9.18176,9.23011 15.49776,8.1856 5.35435,-8.50081 1.75519,-19.04433 0.41211,-28.19532 -5.5208,-19.69736 -14.66179,-38.3582 -23.06054,-57.03711 -12.14003,-20.15896 -27.53893,-38.11324 -44.50391,-54.51757 -35.73836,-32.2362 -84.22341,-49.37821 -131.92773,-46.61329 -20.66803,0.62412 -41.13904,5.54088 -61.57618,7.95899 -9.38865,-2.03428 -12.87574,-15.27097 -5.6875,-21.63477 3.82943,-5.99735 11.49624,-7.57795 18.041,-6.20284 30.66513,-0.18521 61.88696,1.0634 91.70705,-7.41044 0.29202,-5.91902 6.95442,-8.50002 11.97544,-6.59027 18.95828,3.14612 31.71484,18.76691 44.35855,31.73871 4.66468,5.25665 13.80559,0.13527 12.5332,-6.5 12.60339,-5.98247 26.74534,3.65678 31.9707,15.20703 10.16404,17.63312 11.94627,39.58961 24.83203,55.44141 1.41789,2.14896 5.40405,4.32432 5.64258,-0.15235 3.89385,-13.08488 -2.51191,-26.43478 -7.97266,-38.08398 -20.78392,-39.39598 -61.40433,-65.08827 -104.20703,-74.125 -31.35277,-6.59568 -64.20017,-3.12639 -94.83203,5.39453 -8.75537,0.70058 -17.30433,-8.06747 -14.11718,-16.85547 0.72689,-7.46932 7.03585,-14.06203 14.7206,-14.00645 37.64844,-11.27273 79.0686,-19.489129 117.37966,-6.42519 25.44495,7.97069 46.90677,24.77013 66.99934,41.53906 3.67979,-0.0599 4.44447,-4.61771 1.16016,-6.15625 -11.1038,-12.89781 -25.11462,-22.8785 -36.51473,-35.50812 -23.66653,-22.371764 -56.53539,-31.74461 -88.56339,-33.216487 -45.59476,-1.657305 -91.21328,15.178264 -126.21875,44.570317 -8.4374,6.59424 -21.52296,-0.70457 -21.63086,-11.0293 0.17209,-15.327543 15.34814,-26.766797 29.92578,-27.103517 5.18637,0.464285 11.09535,0.261228 13.93359,-4.984375 3.06425,-4.477075 2.41195,-10.425238 7.07813,-13.888672 17.75088,-19.063179 46.44242,-22.735318 70.88028,-17.978417 1.74356,0.113588 6.36143,1.631028 3.2994,-0.802833 -4.82957,-4.88749 0.74214,-12.67004 6.92188,-11.751953 25.29578,2.77368 50.52566,8.019919 75.83789,8.625 4.52148,-0.73889 -0.431,-3.530905 -1.69141,-4.941406 -9.58254,-6.890413 -21.94549,-7.45191 -32.57036,-12.099306 C 763.56615,15.046196 739.01038,9.6491307 713.82422,10.078125 Z" fill="#00803f"/><path d="m 713.88672,16.078125 c -31.44888,-0.578103 -63.5289,16.738161 -78.17969,45.234375 -7.23839,9.0956 -24.09278,10.238628 -30.09765,-0.78125 -8.7767,-11.66266 -1.2632,-29.012677 -11.84571,-39.666016 -9.69017,-7.978132 -23.28289,-2.822826 -33.07422,2.089844 -5.97794,2.78629 -12.03842,5.807609 -16.73437,10.652344 17.5744,6.628749 30.08227,25.295058 27.83392,44.217835 0.54328,22.379493 2.69842,44.893723 9.48248,66.375913 C 557.85018,123.47733 544.57185,93.185862 519.44531,74.417969 473.83406,43.086103 412.54141,39.939974 361.28876,58.073117 345.04168,63.900223 329.40721,71.575148 315.76953,82.119141 324.7727,77.819039 332.33975,70.973227 341.7168,67.308594 377.42695,49.435075 419.72786,41.93753 458.58008,53.359375 c 4.54993,0.40029 8.5792,5.85288 5.86133,10.078125 30.54245,0.418188 57.20626,20.085996 75.82498,42.91109 8.91578,11.17581 17.44517,22.65583 26.20236,33.92875 6.0816,8.01676 6.75932,20.69532 -1.45703,27.51172 -7.87204,7.21942 -21.37221,6.34062 -27.9043,-2.24804 -8.95673,-9.40255 -13.69907,-22.18599 -24.02975,-30.4079 -38.22429,-38.430637 -100.55078,-49.622372 -149.95658,-27.75617 21.80813,-2.52191 44.5888,0.43112 64.69922,9.38086 8.52165,6.0738 15.72576,18.88328 8.86133,28.61133 -9.14545,12.29201 -26.25248,11.83439 -39.99414,12.18945 -2.07317,0.38918 -7.31229,-0.40658 -3.61328,2.11719 2.57468,3.11394 3.61406,7.35634 3.07031,11.33203 30.06118,-11.40356 66.24346,-8.60978 92.07324,11.46812 12.99822,9.96334 28.78036,17.60671 38.01661,31.61977 6.59941,9.79693 1.12486,24.91221 -10.64454,27.33008 -7.03208,1.35777 -14.31305,0.14236 -20.92578,-2.4375 -50.92112,35.24729 -102.33588,74.12817 -133.51758,128.83008 -11.9169,24.55036 -10.1402,53.33428 -2.90625,78.96289 0.42104,-43.84385 15.8012,-88.88591 48.25586,-119.37109 31.46288,-30.81941 70.85809,-52.04025 103.86914,-80.82618 23.26702,-6.65875 47.1328,-12.57375 71.50782,-12.20703 -12.11875,12.24206 -24.77431,23.96907 -38.19727,34.77344 8.22161,3.75233 18.83632,7.77383 20.86719,17.77734 -1.03792,2.57983 -2.2238,5.10121 -3.58008,7.5293 h 83.06836 c 14.85496,56.73623 34.68973,113.11185 37.4043,172.14844 2.3171,2.94053 2.56159,-1.70904 3.26562,-3.25195 3.12796,-12.24469 0.24458,-24.96453 0.71875,-37.41407 -2.58062,-46.88103 -15.70224,-93.16603 -38.66992,-134.08984 -2.55613,-8.78913 6.93239,-16.19375 15.09375,-15.5957 7.60411,-1.90324 15.20867,-3.80466 22.8125,-5.70899 4.53647,6.02229 9.74648,11.1981 14.68555,16.91602 1.23077,-7.97588 10.8471,-14.21107 18.17382,-9.56446 12.29095,6.56823 19.69182,19.0424 29.88045,28.14965 11.01262,11.28552 21.34551,24.3181 34.60588,32.62184 1.96464,-3.91074 2.18547,-8.80907 4.00134,-12.93483 2.06212,-7.32568 4.73757,-14.48058 8.21155,-21.25853 13.71029,21.21403 26.56845,44.89913 29.00782,70.07617 4.68107,-1.22701 10.24943,-0.005 14.14453,1.73438 -10.27725,-39.5585 -34.18381,-76.66266 -69.3834,-98.68567 -29.87485,-19.85792 -64.9795,-30.0548 -99.31973,-38.46863 -10.69035,-4.36785 -16.07411,-19.38458 -8.43359,-28.70703 1.66037,-3.15205 5.89457,-5.96756 6.99219,-8.53516 -12.04047,-5.40499 -14.07096,-23.89945 -3.84571,-32.09375 8.94179,-9.96457 23.78172,-5.83423 35.40235,-6.41406 24.44227,-0.14782 49.14227,0.22155 72.66406,-6.5957 4.26724,-9.13493 16.3932,-9.31645 24.46289,-5.67969 17.4632,5.31282 29.11034,20.6809 42.10352,32.11328 2.21721,-1.0766 1.14488,-4.1114 -0.51368,-5.20898 5.66044,-4.19193 12.97574,-5.96704 19.91797,-4.75 -37.26567,-28.33835 -86.78241,-37.58494 -132.34319,-28.42046 -9.83876,1.317 -19.47141,5.64902 -29.44196,5.22319 -12.20007,-2.19895 -19.49127,-16.91299 -14.18164,-28.04883 3.12885,-10.04603 13.77701,-14.87755 23.4833,-15.89986 39.31339,-11.642061 83.04729,-18.000348 122.24589,-2.41671 7.35746,2.68825 15.3355,6.85847 21.49346,10.38493 C 825.6766,90.486928 791.7082,80.571969 759.52562,79.654156 716.56154,78.512905 674.31141,94.621241 640.9445,121.14271 c -7.44764,8.71329 -21.40836,6.70939 -28.23747,-1.54701 -6.70634,-6.76576 -6.0657,-17.36303 -1.8125,-25.244138 7.01898,-14.238983 23.72262,-21.629315 39.05274,-20.347656 5.98488,-3.707431 4.51146,-12.730913 10.38671,-16.83789 17.75154,-19.064892 45.90508,-24.339929 70.82618,-20.6875 1.28183,-9.300751 12.40783,-14.324853 20.74086,-11.050255 14.81478,1.757726 29.49009,4.296241 44.29625,6.009239 -21.14498,-6.366385 -42.12556,-13.020996 -64.24024,-14.681641 -6.0524,-0.535205 -11.98108,-0.778497 -18.07031,-0.677734 z m 27.13086,178.867185 c -16.67768,-0.1182 -33.06066,3.08217 -49.53906,5.61914 40.02061,5.66442 81.93321,16.39673 112.24609,44.73243 2.40559,2.71517 4.30848,1.91596 4.10156,-1.72266 1.36228,-5.68906 0.54803,-14.58226 7.28711,-16.91016 7.53598,-1.26265 10.97616,7.34302 15.7687,11.30428 35.92064,39.04648 59.79482,87.27419 93.51646,127.94963 1.39827,1.01494 5.05408,5.49076 4.83203,1.36523 1.38375,-16.43742 -6.60937,-31.29845 -11.98828,-46.46289 -8.49815,-22.00299 -20.45252,-42.64325 -36.20499,-60.25864 -26.03006,-31.1695 -61.95646,-54.06287 -101.96493,-61.82339 -12.39911,-2.57721 -25.31021,-3.87987 -38.05469,-3.79297 z m 147.99609,12.64453 c 4.15034,11.36028 7.15686,23.28215 13.41797,33.74414 -0.76097,-12.65354 -6.90831,-24.18989 -13.72852,-34.58398 z m -466.38281,14.67969 c -30.01644,-0.37167 -58.35126,16.25771 -75.39453,40.72656 -7.75129,10.72258 -14.82494,23.0234 -19.14844,35.24219 3.25627,1.52378 5.80911,6.13862 8.16992,7.10742 9.20129,-15.77449 18.66975,-32.26151 34.14844,-42.75 21.64947,-16.25606 49.26673,-21.24097 75.70848,-22.64856 13.29119,-1.48934 26.58074,-3.07335 39.88918,-4.49792 -20.13665,-7.9867 -41.53722,-13.48974 -63.37305,-13.17969 z m 83.14062,75.92969 c -19.39032,14.62812 -41.64486,28.52073 -51.76953,51.69531 -11.17504,23.48558 -11.46887,50.90082 -3.55273,75.35742 4.6561,18.15889 10.60022,35.94863 16.02734,53.88282 0.74528,-38.21052 2.16159,-76.39326 2.84766,-114.60938 6.72046,1.06395 11.90429,5.96 15.88476,11.04297 -2.29762,-27.7996 4.85825,-56.86328 22.52344,-78.80469 -0.65364,0.47852 -1.30729,0.95703 -1.96094,1.43555 z m 47.73438,8.5293 c -18.75285,32.4321 -31.66951,68.36403 -38.10547,105.16796 5.29122,-4.63592 12.87532,-4.37869 19.03906,-1.86718 -7.85908,-36.09207 5.9464,-72.22595 20.2568,-104.82594 1.44506,-2.90453 -0.70869,0.83858 -1.19039,1.52516 z m 156.22852,5.78515 c 0.23202,5.2686 -2.55512,10.75437 -4.06836,14.96875 8.70106,2.10903 13.45187,11.2838 12.82812,19.74414 1.37942,10.0771 -0.49729,21.3436 3.97461,30.50196 4.98995,0.30716 10.31846,3.51362 13.48828,6.14648 -3.11315,-25.59659 -13.57868,-49.8731 -26.21094,-72.11523 z m 134.90234,107.28516 c -1.69984,12.93541 -6.04913,25.85446 -5.48633,39.01172 0.8789,4.22705 3.70112,-2.59868 4.55273,-4.03321 4.59162,-11.69772 1.55879,-23.83106 1.10938,-35.8789 z m -110.1836,2.64648 c -6.404,7.32166 -11.34125,15.99968 -11.96093,25.89453 -0.39404,2.39864 -0.83589,6.14803 1.37109,1.94532 5.21431,-8.30887 8.52288,-18.61191 10.58984,-27.83985 z" fill="#009449"/><path d="m 580.5918,26.775391 c -6.37195,0.495269 -12.2451,3.357569 -17.76368,6.390625 15.38666,12.645914 21.55364,33.743386 19.20407,53.079071 0.96292,30.486783 8.4572,60.792233 21.12211,88.594753 -7.42249,-5.79046 -14.80924,-11.62304 -22.17578,-17.48242 -1.72916,15.68892 -17.73876,28.46256 -33.50586,24.9707 -13.64805,-2.33318 -22.80864,-14.05938 -29.02503,-25.50977 -20.00137,-28.81161 -54.28489,-46.52229 -88.55505,-49.85351 14.03912,6.61436 23.49094,23.73774 17.75,38.87891 -1.23932,3.27055 -3.11769,6.30618 -5.54102,8.83203 24.24552,1.86163 46.58986,13.54318 65.01953,28.88477 13.91206,9.25697 29.90407,20.91331 31.96875,38.82422 0.76164,2.26124 -2.26099,7.76212 1.49794,6.24221 20.8644,-4.25042 42.36765,-5.49397 63.5548,-3.20706 -13.06569,14.94241 -27.75795,28.32451 -42.35742,41.73047 5.94888,4.09444 11.01083,10.14844 12.26757,17.42773 20.90522,-0.81924 42.33957,0.69654 62.90039,-0.49804 3.03625,-12.09676 15.97124,-18.52656 27.62631,-18.81516 7.98984,-2.00026 15.97938,-4.00172 23.9694,-6.00125 3.68497,3.37263 5.78016,9.54383 10.03515,11.52149 10.63232,-7.8887 26.34739,-3.92091 34.23047,6.02929 15.53502,14.07663 28.36052,31.05354 43.8125,45.04883 2.0617,-6.52405 4.47475,-12.93803 7.25196,-19.1914 -32.2994,-30.23517 -75.86861,-44.01917 -118.19922,-53.70508 -17.4504,-6.47331 -25.53458,-31.70397 -12.56446,-45.9043 -13.49263,-15.793 -3.90947,-43.94667 16.45118,-48.29883 3.01946,-1.32342 8.22545,-1.09409 9.90429,-1.99414 -12.07373,-10.76863 -12.72981,-30.8656 -2.60351,-43.16601 -13.23837,6.61264 -24.92424,15.53337 -36.64649,24.41015 -19.06925,10.03999 -45.05654,-7.91618 -42.50976,-29.32226 0.43945,-10.565624 6.68007,-20.612168 13.6582,-27.529301 C 597.38846,72.648652 590.17435,57.126997 590.69336,43.195312 590.35713,36.855774 589.86442,25.765584 580.5918,26.775391 Z m 64.81836,36.691406 c -0.43717,1.55675 1.00411,-1.283221 0,0 z M 756.39453,205.66797 c 15.60226,5.78888 30.60579,13.45624 43.83399,23.61133 1.53627,-4.44894 5.34781,-8.38045 8.7539,-10.83985 C 792.12333,211.03753 774.15016,206.91114 755.93359,205.5 Z m -335.08398,26.57812 c -13.89372,-0.0202 -28.06759,4.58498 -39.73047,11.84375 12.97097,-6.16971 27.01258,-9.8497 41.20117,-11.85742 l -0.99996,0.009 z m 426.94336,10.47852 c 23.31389,27.65219 41.64424,59.04656 62.43945,88.4668 C 897.8105,296.65875 876.777,264.37887 847.31055,241.60352 l 0.64385,0.76515 z m -370.04883,89.95703 c -5.75986,6.0856 -11.84542,13.86596 -14.6211,21.04688 3.91144,0.18854 7.83521,0.72745 11.56055,1.9707 0.57529,-8.13461 2.03478,-16.19403 4.11524,-24.07422 l -0.70646,0.70776 z m -19.00196,30.67774 c -5.91897,16.86817 -4.93415,34.8937 -1.11914,52.26171 0.47208,-17.56064 0.93836,-35.12165 1.27344,-52.68554 z m 368.04102,2.09374 c -3.44195,3.61882 3.45549,3.39253 0.75195,0.1504 -0.23019,-0.11669 -0.49328,-0.18038 -0.75195,-0.1504 z" fill="#00a853"/><path d="m 465.16016,133.67383 c 0.87651,3.53315 -2.33085,9.47792 2.71093,9.83398 10.87523,3.47411 21.22437,8.46997 30.9668,14.39649 -8.92027,-11.14276 -21.00028,-18.92436 -33.7207,-24.96485 z m 183.70703,13.45508 c -11.72454,6.56663 -26.64087,8.15646 -38.81055,1.83789 6.41121,18.53246 14.98715,36.30127 24.0332,53.71484 -3.32439,-8.70052 -4.31417,-18.6551 -2.04296,-27.88867 2.50095,-11.00012 8.72342,-21.21394 17.67773,-28.13477 z m -61.97071,35.55859 c -9.44157,11.6803 -25.75442,17.10154 -39.88086,16.12305 2.28098,3.63407 4.20671,7.49701 5.66211,11.53515 26.12854,-3.74962 52.76039,-1.94958 78.66602,2.59961 0.24481,-2.67414 -4.7857,-2.66263 -6.39844,-4.46484 -13.48437,-7.27953 -26.03082,-16.75002 -38.04883,-25.79297 z m 43.91407,35.11914 c -12.95933,19.00767 -30.93038,34.48611 -46.24414,50.91406 13.91365,-1.29261 28.2325,0.81157 42.27539,-0.55859 4.17164,-6.45044 11.18209,-10.97788 17.47656,-14.44531 -9.31469,-9.3359 -14.09021,-23.06957 -13.50781,-35.91016 z" fill="#009449"/></g><g fill="none" stroke="#003000" stroke-width="4.123" stroke-linecap="round"><path d="M 372.20945,366.24234 C 437.15387,246.56941 527.96354,246.07793 599.95118,220.75914 l -51.08914,52.77191 v 0 0"/><path d="m 487.47214,256.06709 c -13.78143,16.26177 -23.10927,20.07286 -41.78718,46.12764"/><path d="m 537.13336,346.55127 62.01317,-124.46929 c 37.55723,39.59583 72.62855,92.39957 82.38894,174.52278"/><path d="m 655.35476,266.01392 c 10.31718,-44.70421 -25.83878,-41.64432 -56.40997,-44.32437 56.6555,-0.43651 85.65114,18.88404 92.71128,53.87278"/><path d="m 598.59625,220.72766 c 97.5363,7.16433 182.73114,69.09325 234.61946,149.08978"/><path d="M 727.3939,264.13464 747.43963,308.611"/><path d="M 758.71529,286.68603 774.376,331.78882"/><path d="m 345.27305,272.90463 c 35.86908,-38.06027 87.1029,-54.23854 138.63053,-53.46784"/><path d="m 356.54876,107.52773 c 82.04161,-2.27609 162.69375,18.52233 234.28396,101.48128 61.84045,-95.65978 132.0284,-157.357392 248.69173,-106.4927"/><path d="M 340.90596,65.720195 C 390.74272,43.088699 542.56137,-3.7303998 591.61637,207.46458 L 582.75735,30.284097"/><path d="M 596.65385,39.052507 584.36409,63.153105"/><path d="M 605.73436,73.159744 586.3574,102.3543"/><path d="m 554.46488,32.186759 c 12.74736,12.457378 21.76892,26.511523 30.45079,40.711272"/><path d="m 583.7846,201.34371 c -20.22759,-16.45237 -42.77025,-9.75342 -64.52047,-10.97935"/><path d="m 554.81229,172.99785 c -28.1887,-9.89411 -56.3774,-5.3398 -84.5661,-5.34151"/><path d="m 522.23809,149.1936 c -28.58587,-4.8802 -57.51457,-10.65193 -82.06045,-5.02829"/><path d="m 407.2886,94.694406 35.08153,20.342024"/><path d="m 428.58714,121.78739 41.34582,1.8624"/><path d="m 671.00749,92.50907 c -7.11196,16.69587 -13.95474,33.45902 -27.56122,48.53127"/><path d="m 617.14187,197.89836 c 75.87262,-55.51273 155.9137,-68.99332 241.80265,-23.50792"/><path d="M 648.46325,67.91462 C 665.90944,34.135285 703.28999,17.442558 767.48607,23.734594"/><path d="m 588.32618,143.08593 c 6.3008,-13.84845 12.73085,-26.79181 20.6737,-29.14574"/><path d="m 632.17613,207.60799 c 149.19352,-27.06868 246.5008,19.01375 293.79617,135.6047"/><path d="m 748.06523,202.59657 31.94936,31.61771"/><path d="m 840.15014,234.54437 c 27.50487,33.49059 54.84128,67.13097 67.65576,113.67975"/></g><g fill-rule="evenodd"><path d="m 603.8592,267.30504 c -4.0957,0 -10.06378,3.01949 -14.77735,7.3086 -13.36287,12.15953 -29.47656,43.67773 -29.47656,43.67773 l 15.94727,10.63086 0.88476,21.26172 h -18.60351 l 17.71875,18.60352 v 19.49023 l -21.26172,0.88477 20.74219,19.38281 0.48242,14.63476 -17.86328,-0.27343 17.71875,18.60546 v 19.48829 l -21.26172,0.88671 20.74219,19.38282 0.24414,24.29687 -17.97852,0.62695 17.71875,18.60352 v 19.49024 l -21.26172,0.88476 20.74219,19.38281 0.48242,14.63477 -17.86328,-0.27344 17.71875,18.60547 v 19.48828 l -21.26172,0.88672 20.74219,19.38281 -0.25781,18.03906 -19.3418,-1.24218 18.79297,23.80468 v 16.28711 l -20.04688,1.25196 18.79297,20.67187 v 20.04492 l -20.04492,0.62696 22.55078,25.05664 0.62695,20.04687 h -20.04687 l 20.04687,20.67188 v 19.41992 l -21.92578,-1.25391 21.29883,28.81641 -0.62695,23.45703 h 59.8125 l -0.62695,-23.45703 21.29882,-28.81641 -21.92578,1.25391 v -19.41992 l 20.04688,-20.67188 h -20.04688 l 0.62696,-20.04687 22.55078,-25.05664 -20.04493,-0.62696 v -20.04492 l 18.79297,-20.67187 -20.04687,-1.25196 v -16.28711 l 18.79297,-23.80468 -19.3418,1.24218 -0.25781,-18.03906 20.74219,-19.38281 -21.26172,-0.88672 v -19.48828 l 17.71875,-18.60547 -17.86329,0.27344 0.48243,-14.63477 20.74218,-19.38281 -21.26171,-0.88476 v -19.49024 l 17.71875,-18.60352 -17.97852,-0.62695 0.24414,-24.29687 20.74219,-19.38282 -21.26172,-0.88671 v -19.48829 l 17.71875,-18.60546 -17.86328,0.27343 0.48242,-14.63476 20.74219,-19.38281 -21.26172,-0.88477 v -19.49023 l 17.71875,-18.60352 h -18.60352 l 0.88477,-21.26172 15.94726,-10.63086 c 0,0 -16.11369,-31.5182 -29.47656,-43.67773 -4.71357,-4.28911 -10.68164,-7.3086 -14.77734,-7.3086 z" fill="#00582b" stroke="#003000" stroke-width="4.123"/><path d="m 603.50231,272.89046 c -14.83747,3.82702 -21.89264,19.08494 -29.93767,30.60907 -3.00773,4.90041 -5.86253,9.89439 -8.58382,14.95929 4.87684,3.25147 9.75456,6.50162 14.63086,9.7539 0.37842,9.05333 0.75361,18.10679 1.13086,27.16016 -4.36182,1.15365 -9.92988,-0.29222 -13.54687,0.30469 4.08439,5.07484 11.11524,9.02441 12.50586,15.59961 0,7.44205 0,14.88411 0,22.32617 -3.78162,0.95345 -15.33925,-0.92231 -14.52735,1.70117 4.71339,4.71779 11.26407,8.82123 13.99805,14.8457 -0.69403,6.00743 2.46779,12.81155 -1.16406,18.28125 -3.62455,1.05122 -7.39324,-0.0884 -11.05274,-0.13672 4.0798,5.17201 11.11362,9.09095 12.56446,15.70703 0,7.44141 0,14.88282 0,22.32422 -3.77944,0.95738 -15.37192,-0.92895 -14.52149,1.71289 4.76758,4.66019 10.98952,8.73838 14.00196,14.68164 0.0932,9.25716 0.18554,18.51433 0.27929,27.77149 -4.12021,1.71629 -9.59171,0.10486 -13.11914,0.82031 4.11282,5.29025 11.37607,9.22236 12.82422,15.97461 0,7.44206 0,14.88412 0,22.32617 -3.78004,0.95329 -15.34451,-0.92198 -14.52539,1.70117 4.71416,4.72218 11.26308,8.8215 13.99609,14.84571 -0.69403,6.00743 2.4678,12.81155 -1.16406,18.28125 -3.62454,1.05122 -7.39324,-0.0885 -11.05273,-0.13672 4.0798,5.172 11.11361,9.09094 12.56445,15.70703 0,7.44141 0,14.88281 0,22.32422 -4.04215,0.77817 -14.05421,-0.55308 -14.94181,1.3349 4.88078,4.82487 11.41762,8.97654 14.42228,15.15729 -0.1046,7.36784 -0.21092,14.73566 -0.31445,22.10351 -4.93947,0.25522 -9.81613,-0.74841 -14.73829,-0.89258 4.72298,6.39533 10.84914,12.18388 14.2461,19.33203 0,6.63803 0,13.27605 0,19.91407 -5.15229,0.9573 -10.47566,0.4166 -15.6211,1.06054 4.78447,5.66342 11.13561,10.57815 14.36719,17.23633 0,7.92774 0,15.85547 0,23.78321 -4.74162,1.0487 -12.07288,-0.40119 -15.08789,0.96875 5.82997,6.90087 13.18159,13.03355 17.58985,20.85156 0.25384,8.05727 0.50303,16.11469 0.75976,24.17187 -3.83822,0.62324 -13.6239,-1.23676 -14.04601,0.81373 4.71434,5.10235 10.87628,9.62348 13.9171,15.85815 0,7.88476 0,15.76953 0,23.65429 -5.90752,-0.33838 -11.8151,-0.6757 -17.72265,-1.01367 5.65441,8.11083 12.77665,15.63215 17.0957,24.44727 -0.17252,6.45052 -0.34505,12.90104 -0.51758,19.35156 17.21615,0 34.43229,0 51.64844,0 0.38407,-7.3868 -2.01781,-15.69888 0.80727,-22.64012 5.21138,-7.05095 10.42276,-14.1019 15.63414,-21.15285 -5.90884,0.33824 -11.81786,0.67321 -17.72657,1.01367 0.90665,-8.7312 -1.3874,-18.07052 1.21485,-26.44531 4.48893,-4.6289 8.97786,-9.25781 13.46679,-13.88672 -4.23501,-1.31918 -14.18314,2.71015 -14.65624,-2.13086 0.80921,-8.0741 -0.62775,-16.76181 1.71484,-24.59179 5.34061,-6.17406 12.10495,-12.9768 16.58203,-18.76953 -5.03832,-0.0819 -10.72959,0.90721 -15.15039,-2.17579 0.75215,-8.2026 -1.27847,-16.90937 1.08594,-24.79882 4.02529,-4.77023 10.0551,-10.38458 12.85937,-14.64063 -5.09609,-0.2363 -10.87259,0.55692 -15.27148,-2.6582 1.11167,-8.81159 -2.94947,-19.59338 5.31572,-26.19547 1.34,-3.16242 11.1434,-11.11117 6.95347,-11.1532 -3.9976,0.30297 -10.7201,2.0037 -12.69054,-2.15055 0.65567,-7.3236 -1.78033,-15.34468 1.00338,-22.24492 4.58854,-4.28776 9.17708,-8.57552 13.76562,-12.86328 -4.7172,-1.63392 -15.74877,2.55124 -15.51299,-3.6457 0.47689,-7.62675 -1.27168,-15.79834 1.05987,-23.08477 2.32096,-3.42241 11.69559,-10.35061 9.829,-11.69272 -3.77233,0.74724 -10.82041,1.19668 -11.05361,-4.15299 0.75835,-6.91634 -2.0014,-16.62373 5.53516,-20.84179 2.42809,-3.4582 15.24925,-10.76939 4.96329,-9.51414 -5.41747,-0.32574 -12.87549,1.40373 -10.47306,-6.23782 0.50265,-6.85412 -1.74687,-14.92005 1.71122,-21.00922 2.48038,-3.4548 10.57571,-9.50606 10.05997,-11.57569 -4.31276,0.69327 -12.27024,0.91022 -12.10322,-5.29595 0.80477,-8.60539 -1.31807,-17.92302 1.50195,-26.0957 4.58854,-4.28776 9.17709,-8.57552 13.76563,-12.86328 -4.71721,-1.63392 -15.74877,2.55124 -15.513,-3.64569 0.47689,-7.62676 -1.27168,-15.79834 1.05987,-23.08478 2.32097,-3.42241 11.69559,-10.35061 9.829,-11.69271 -3.77233,0.74723 -10.8204,1.19668 -11.05361,-4.15299 0.75835,-6.91635 -2.00139,-16.62373 5.53516,-20.8418 2.42809,-3.45819 15.24925,-10.76939 4.96329,-9.51414 -5.41747,-0.32574 -12.87549,1.40373 -10.47306,-6.23781 0.50167,-6.85452 -1.74486,-14.91754 1.70922,-21.00927 1.96382,-3.22245 12.19054,-10.45523 8.91493,-11.1388 -4.08066,0.81759 -12.06885,0.99298 -11.55127,-5.06396 0.31124,-7.45991 0.62064,-14.9199 0.93298,-22.37977 4.8633,-3.24379 9.72799,-6.48549 14.5918,-9.72851 -9.21344,-15.58482 -17.36291,-33.51759 -33.04688,-43.78321 -1.96818,-1.02553 -4.18926,-2.03714 -6.44726,-1.81054 z" fill="#006c35"/><path d="m 604.36328,275.92383 c -14.81169,4.8384 -21.01301,20.81955 -29.3164,32.5664 -0.67467,2.94068 -6.89635,7.38494 -2.32227,9.11133 5.25682,3.30259 13.38677,6.59897 11.53813,14.39606 0.35181,8.45067 0.70417,16.90131 1.05562,25.35199 -1.94613,1.21917 -6.72083,0.93116 -7.39063,1.79492 5.2481,4.90803 7.70494,12.24918 6.22071,19.28906 -0.68772,5.56328 1.35254,13.24112 -0.96842,17.53841 -2.44055,1.11203 -7.20286,0.55041 -8.30697,1.20378 5.67217,4.30356 9.98996,10.89674 8.98437,18.26563 0.95987,5.77859 0.82631,14.54811 -6.20703,16.29882 5.55347,5.12411 7.9087,13.05658 6.16797,20.38477 -0.1822,5.54531 1.60864,11.69358 -1.50195,16.74609 -2.61321,0.67855 -5.32725,0.80534 -8.01368,0.69922 5.8262,4.51907 11.08874,11.46902 9.21707,19.26753 0.0782,7.75197 0.15478,15.50395 0.23411,23.25591 -2.31736,1.20992 -4.86506,1.98273 -7.48243,2.11719 5.70486,5.01596 8.83381,12.70595 7.16016,20.23633 -0.6879,5.56183 1.35283,13.23873 -0.96841,17.5345 -2.44031,1.11376 -7.2104,0.54836 -8.30698,1.20573 5.67362,4.30151 9.99036,10.89534 8.98437,18.26367 0.95979,5.77857 0.82639,14.54836 -6.20703,16.29883 5.55509,5.12503 7.90826,13.05927 6.16797,20.38867 -0.1995,5.54665 1.63332,11.74301 -1.52539,16.78711 -2.6178,0.6717 -5.33516,0.67631 -8.01758,0.61328 5.8891,4.54828 11.1908,11.66042 9.06973,19.50576 -0.0893,6.21618 -0.17603,12.43239 -0.26699,18.64854 -3.24877,0.2856 -6.51835,0.31563 -9.76953,0.0508 6.06276,6.3454 11.72897,14.85285 9.05078,24.0293 0.15281,4.56299 2.63276,12.76153 -3.67383,14.50195 -1.98177,0.94855 -8.64873,-0.55626 -5.49805,2.02344 5.70936,5.11279 9.97321,12.53352 8.19922,20.41015 0,6.27344 0,12.54688 0,18.82032 -3.24983,1.1817 -7.76854,1.07165 -10.50976,1.36328 6.75222,6.72186 15.04957,14.52228 13.25956,25.12152 0.20713,6.57017 0.41403,13.14035 0.6213,19.71051 -3.03076,0.68004 -6.14859,0.84963 -9.24219,0.63477 5.66007,4.86637 10.89739,11.9185 9.0039,19.8164 0,6.81576 0,13.63151 0,20.44727 -4.56093,0.60875 -9.07973,-0.56703 -13.6289,-0.67578 6.47289,8.29331 15.74947,17.72995 12.63394,29.29722 -0.27425,2.52312 -1.43187,8.09274 3.32309,6.18129 13.36719,0 26.73437,0 40.10156,0 -0.98449,-9.29375 -1.45755,-20.28611 6.02735,-27.19336 1.57121,-3.00483 5.42351,-5.84249 6.40039,-8.32422 -4.23708,-0.33031 -11.25202,3.4454 -13.57227,-1.92773 0.97289,-10.10571 -2.25896,-21.15986 2.34961,-30.70313 1.56848,-2.39013 6.06735,-5.17964 6.01172,-6.58398 -5.04538,0.51043 -9.96949,-4.0334 -8.14063,-9.26563 0.42867,-9.76423 -2.03905,-21.80782 6.44727,-29.01562 2.35371,-2.52571 4.81603,-4.95543 7.01562,-7.62109 -5.31566,0.20357 -12.50909,-3.47098 -10.33984,-9.72266 -0.17047,-9.75378 -2.56937,-21.96549 6.41969,-28.91124 2.04653,-1.95228 4.16882,-3.77683 0.13109,-3.58681 -4.78012,-0.49321 -9.58126,-4.48932 -7.99219,-9.75 -0.37268,-8.68299 -1.09315,-19.24978 6.29297,-25.43554 0.87368,-1.7662 4.51132,-4.08079 0.69141,-3.76368 -5.26111,-0.32252 -8.65367,-5.49447 -7.39844,-10.51562 -0.67612,-8.36715 -2.16093,-19.70543 6.21094,-25.09961 1.79538,-1.52015 3.07732,-2.42188 -0.12109,-2.27148 -4.86742,-0.34749 -8.20863,-5.33713 -6.8379,-9.88477 -0.1182,-9.54116 -2.53547,-21.8114 6.64454,-28.24219 -5.24085,-1.23067 -8.20193,-6.88385 -6.85743,-11.94726 -0.6406,-7.77866 0.62212,-16.99914 7.90039,-21.40821 3.08099,-2.14221 -3.00388,-0.94937 -4.57421,-2.51562 -6.43534,-3.23034 -2.27465,-11.18316 -3.52735,-16.6543 -0.963,-7.6888 0.95612,-16.21389 7.58789,-20.89062 -5.66255,-1.12335 -9.24262,-7.17923 -7.57422,-12.6875 0.45899,-8.76981 -2.27995,-19.28888 3.59766,-26.83594 1.20767,-1.57005 5.44138,-3.88959 5.05664,-4.75391 -5.11612,0.38517 -10.50223,-3.9896 -8.99414,-9.33203 0.18636,-9.5248 -2.81727,-21.84006 6.17383,-28.51758 0.0144,-1.20782 -4.30687,-2.13523 -5.125,-4.41992 -2.77364,-4.64371 -0.73865,-10.34696 -1.12891,-15.46289 0.10437,-6.43929 4.14176,-11.68819 9.22461,-15.18555 -5.46325,0.58192 -11.66266,-3.99448 -9.4668,-9.98047 0.18606,-9.2161 -2.19325,-20.70801 5.9043,-27.46874 2.12283,-1.36401 -2.75996,-1.34793 -3.45117,-2.86329 -6.39856,-4.98266 -1.90328,-13.92283 -2.74502,-20.50803 0.44286,-5.31292 -1.29722,-12.13099 4.90908,-14.2947 2.89444,-1.88515 6.26404,-3.2678 8.56055,-5.93359 -8.78683,-14.63207 -16.45004,-32.41172 -32.72852,-40.07227 -0.28263,-0.0361 -0.58439,-0.11992 -0.85156,0.0488 z" fill="#00803f"/><path d="m 604.05859,281.6944 c -12.51152,6.24499 -17.48008,20.68844 -25.26953,31.51758 7.44498,3.72045 13.64154,11.7423 11.58075,20.421 -0.0859,8.75351 1.61659,17.98567 0.51496,26.46767 -1.30788,1.59685 -4.27473,1.42955 -1.9668,4.00586 2.99381,9.24113 0.63629,19.11767 1.24609,28.58789 -0.42539,2.74865 -1.62803,5.52462 -3.86718,7.26758 4.90363,8.82315 5.18978,20.03743 1.95703,29.42773 -1.1703,1.67437 -3.11483,3.25045 -0.63282,4.92188 4.52372,9.58116 1.98685,20.52116 2.21875,30.66601 -0.10973,2.98701 -2.88168,5.66214 -3.45703,7.90821 6.56125,11.19516 1.63924,24.46853 3.52149,36.53906 0.096,2.73488 -0.63421,5.93953 -3.22266,7.36328 5.23196,10.0319 2.22025,21.7541 2.67774,32.5 -0.47759,2.55284 -1.68653,5.07133 -3.77344,6.6875 4.89286,8.82703 5.19029,20.04127 1.94726,29.42969 -1.1818,1.67421 -3.10288,3.24661 -0.63281,4.91601 4.50116,9.54201 2.02734,20.41605 2.29688,30.53125 -0.0394,3.06395 -3.21363,5.70128 -3.55274,8.00977 6.21561,9.96712 1.63054,21.90593 2.99414,32.75586 0.11224,2.89103 -1.29049,6.54937 -3.96289,7.28125 4.89513,8.03974 3.24393,17.63567 3.55469,26.49804 0.0257,4.23287 -2.73904,8.43882 -5.36328,10.82618 6.74776,10.29554 2.97606,22.9488 3.96484,34.37109 -0.11952,3.07042 -1.47075,6.3517 -4.36328,7.76758 8.12671,8.55293 7.69767,21.05923 7.13477,31.99609 0.31487,4.55521 2.33515,11.39219 -2.66016,14.08594 6.10803,11.06038 1.42954,23.99228 2.98633,35.87891 0.32025,3.77073 -3.30589,6.33021 -6.82422,5.58203 4.48128,6.5817 7.41565,14.75891 5.96094,22.77929 10.19557,-0.3892 20.39896,0.0412 30.59765,-0.0703 -0.41969,-8.09218 1.23934,-16.63163 6.05664,-23.24414 -5.69516,-2.02855 -7.89531,-8.59919 -6.44922,-14.07227 -0.62357,-9.69662 -1.28037,-20.75319 3.67969,-29.15039 -6.4802,-6.57753 -2.93718,-16.55892 -3.74219,-24.72656 0.14458,-7.60424 3.58171,-15.48723 8.19727,-20.81836 -5.63644,-3.96554 -5.76255,-11.33386 -5.33808,-17.45872 -0.91076,-8.2631 0.86112,-17.44919 4.33808,-24.37917 -6.05619,-4.22695 -6.25109,-12.16541 -5.72461,-18.76172 -0.0736,-6.98488 1.1583,-14.2519 5.0332,-20.1914 -7.51669,-6.33218 -5.29007,-17.24758 -5.58398,-25.87891 0.2246,-4.42085 1.84025,-8.95028 3.75195,-12.6543 -6.52848,-6.50982 -3.82557,-16.56903 -4.45312,-24.76367 -0.0148,-5.18147 1.98473,-10.5269 3.42969,-15.08594 -5.71182,-8.07873 -3.77068,-19.0171 -1.41211,-27.91015 0.67275,-2.57225 3.73589,-4.91224 0.45898,-6.79883 -4.48673,-7.15776 -2.17589,-16.07761 -2.64258,-24.03976 0.18903,-4.98987 2.34975,-10.05755 3.81055,-14.40165 -6.44962,-7.74562 -3.08156,-18.44227 -3.89063,-27.58398 0.21802,-5.31136 1.21652,-10.79836 4.19532,-15.30273 -6.66239,-6.00499 -4.03845,-15.77825 -4.70703,-23.61915 -0.11865,-5.612 1.91729,-11.45853 3.42187,-16.41406 -5.57412,-7.53996 -3.14115,-17.68209 -2.13672,-26.20898 0.28645,-3.08484 4.95058,-6.02623 1.44531,-8.2793 -5.09729,-6.59649 -2.31533,-15.3267 -2.84075,-22.90774 0.18346,-5.07849 1.81311,-10.26629 3.23529,-14.88523 -7.341,-8.53976 -2.17418,-20.34383 -3.34961,-30.33789 0.0534,-7.1316 5.41716,-13.03181 11.83203,-15.20703 -7.22485,-11.46955 -13.23711,-25.28659 -25.83399,-32.02148 z" fill="#009449"/><path d="m 604.12772,291.19922 c -6.10718,5.31468 -10.69137,13.03003 -13.52065,20.15625 7.62816,7.12072 9.5344,18.50371 7.99842,28.56055 0.66606,8.06997 2.12131,16.68623 -1.03743,24.35742 1.81709,10.77327 1.3308,21.96336 -0.12495,32.72656 -0.79867,2.60723 -2.43377,4.84224 -0.53006,7.4082 3.1963,9.47795 1.21075,19.81288 -0.8538,29.11719 4.12117,12.05372 2.73137,25.54719 0.34833,37.63867 -2.44151,3.14342 1.51326,6.20439 1.10747,9.72461 1.41222,11.44158 0.0794,23.113 -0.0984,34.43945 -3.01033,3.19319 0.13775,6.21404 0.0663,9.74805 1.10128,10.39548 0.88834,21.52633 -2.01049,31.38477 -1.22868,2.00778 1.84223,4.54584 1.4558,6.96094 2.01975,8.45348 0.85925,17.54304 -1.85715,25.51367 4.64736,11.84577 2.70929,25.21997 1.18699,37.3789 -1.02282,1.56841 -2.54589,3.61715 -0.53386,5.0625 2.97171,11.89238 0.81218,24.38517 0.28019,36.34766 -1.6496,2.07989 -2.10368,4.44962 -0.59815,6.65017 1.84147,11.09916 2.54352,23.49652 -2.7451,33.5803 4.65215,12.36586 2.32576,26.27451 1.39902,39.19336 -2.85647,2.24011 1.90949,5.15499 1.68865,7.95898 3.4771,12.05167 2.4265,24.93452 2.18466,37.25781 -1.91771,2.97538 -1.26922,5.9814 -0.22717,9.0293 1.43992,11.56179 0.29747,23.40451 -0.59066,34.84961 -1.0889,2.23532 -4.28123,3.91119 -1.40847,6.45508 1.11474,2.37876 0.99429,6.01919 2.16951,7.75586 4.57298,-0.13 9.24326,0.65212 13.67398,-0.14844 -0.009,-5.50166 5.40045,-11.36392 1.33465,-16.23437 -3.94301,-9.23724 -1.70127,-19.58096 -1.94423,-29.30274 -0.10468,-5.39459 3.79269,-10.72729 1.1264,-15.77344 -2.80865,-10.37539 -0.89277,-21.35499 0.33698,-31.80078 1.19433,-4.7918 6.22002,-9.4369 2.77152,-14.32422 -2.93405,-10.30396 -1.82194,-21.54383 0.23096,-31.86718 2.96984,-4.70882 -1.55748,-8.24598 -2.22062,-12.73633 -2.54923,-10.64509 -0.14744,-21.97794 2.62764,-32.08594 -6.09943,-10.71642 -4.59504,-24.47684 -1.9272,-36.12109 1.47397,-4.16023 -3.27535,-7.9367 -2.42319,-12.41602 -1.10303,-9.7706 -0.11404,-19.72865 2.1752,-29.1582 -1.72761,-5.96471 -3.6612,-12.0118 -2.62008,-18.35938 0.40958,-5.08598 2.00252,-10.04679 2.96273,-14.95507 -4.99962,-9.87988 -2.98216,-21.58415 -2.16194,-32.1875 0.94171,-4.18456 2.63457,-8.16479 0.45435,-12.26563 -2.81675,-11.67263 -1.59557,-24.031 0.42217,-35.69922 2.43206,-4.18761 -2.02899,-7.74207 -1.82118,-12.10547 -1.58876,-10.40087 0.38387,-20.97178 1.8988,-31.11718 -3.7765,-10.36234 -2.81188,-22.03023 0.66258,-32.39063 -5.32478,-8.91176 -2.97002,-19.86181 -2.70904,-29.69336 1.44791,-5.0262 2.80742,-10.30672 0.006,-15.11133 -2.71798,-10.64467 0.19551,-21.65465 0.37673,-32.25195 1.25805,-4.61948 4.3928,-8.37798 7.69552,-11.62305 -4.13131,-6.84161 -8.1206,-15.31771 -14.67733,-19.52734 z" fill="#00a853"/><g><path d="m 522.1088,933.55413 h 177.18048 c -2.22324,-42.21926 30.20462,-67.6568 52.71383,-97.83278 -16.4335,6.74645 -45.30508,21.81451 -63.85023,51.37762 0.61578,-15.94427 8.25651,-22.94053 10.2505,-32.39016 -22.02679,7.53823 -27.77097,28.56785 -37.44283,39.09035 4.67411,-22.07324 12.47247,-45.65573 34.78511,-57.69425 -23.76049,-0.78112 -37.61523,16.93718 -54.92593,42.52324 0.61241,-25.38495 14.15262,-47.87386 30.12069,-62.01312 -13.01533,2.28963 -46.49296,15.76858 -51.49409,58.71439 -7.92069,-18.16544 -1.81591,-42.17761 1.88352,-64.0298 -18.58815,14.82736 -23.62559,40.94701 -28.34886,67.32853 0,0 -20.36211,-48.54884 -26.57707,-60.24138 -0.42135,14.00998 2.50077,47.84513 3.54357,63.785 -18.89922,-28.97226 -32.48309,-44.49861 -46.06691,-51.38236 0,0 24.30813,42.63512 31.89248,56.69777 -22.16829,-14.09153 -44.60328,-27.11623 -69.1004,-31.89244 16.73888,15.5111 36.88909,29.65754 42.52333,49.61048 -25.50352,-13.42316 -42.08626,-16.62628 -58.46955,-17.71804 19.48777,12.99531 41.39002,20.91842 51.38236,46.06695 z" fill="#00582b" stroke="#003000" stroke-width="4.123"/><path d="m 614.47656,824.58398 c -13.56012,19.76448 -15.00764,44.66045 -19.93359,67.5 -7.6416,-17.3253 -15.28529,-34.64968 -22.92774,-51.9746 1.04815,18.86198 2.0966,37.72394 3.14454,56.58593 -12.02059,-17.50634 -22.68769,-36.27734 -38.02344,-51.20312 10.02374,17.80604 20.08005,35.59026 29.94726,53.48437 -20.82494,-12.85027 -41.30267,-26.9197 -64.60156,-35.03906 15.12979,12.86879 30.34419,28.48366 33.25391,49.0332 -14.31017,-8.00693 -29.31663,-14.86512 -45.36719,-18.47461 14.14933,8.55868 28.23706,19.37954 34.82227,35.0586 56.79036,0 113.58072,0 170.37109,0 -0.30368,-29.14385 17.49869,-54.39022 35.84338,-75.45449 4.13485,-4.35154 2.8264,-4.00265 -1.65588,-0.79551 -16.22956,10.32058 -31.39255,23.36441 -40.61523,40.49414 -1.51973,3.43317 -6.59339,2.23012 -6.03907,-1.57813 0.54353,-10.20377 4.31355,-20.51898 8.08203,-29.52148 -15.20788,9.66131 -20.42011,28.2007 -32.18359,40.91797 -3.1009,2.28592 -5.41055,-2.09837 -4.17187,-4.79297 3.83379,-12.83176 7.9286,-25.68069 12.87475,-38.14973 1.99288,-5.06953 5.75893,-11.04888 8.3772,-14.73113 -15.80841,9.37715 -24.65422,26.25275 -35.54102,40.29102 -4.76813,1.31347 -3.57936,-5.46459 -3.28515,-8.1836 0.52,-18.39962 7.29738,-36.40972 18.20703,-51.15625 -19.15322,10.63723 -31.76524,32.02285 -31.82617,53.90039 0.1339,3.55123 -4.68949,4.60224 -5.84961,1.1836 -8.23595,-18.26154 -5.80557,-39.04011 -2.36524,-58.1504 z" fill="#006c35"/><path d="m 632.44336,863.01562 c -2.90717,7.17521 -2.88192,15.47178 -4.58594,22.89844 -4.11959,7.22016 -16.56122,3.88848 -17.11719,-4.20898 -2.472,-6.15358 -3.85937,-12.70446 -4.47851,-19.29492 -3.38151,16.17384 -5.42726,32.63486 -9.94336,48.5625 -5.6281,-12.75854 -11.25653,-25.51692 -16.88477,-38.27539 0.83487,14.99933 1.66655,29.99885 2.50391,44.99804 -14.57425,-13.60326 -35.88243,-23.63112 -53.13281,-34.79101 8.5535,11.73565 13.74262,26.04806 13.61914,40.65039 48.96026,-0.0234 98.00926,0.0469 146.91406,-0.0352 0.84119,-12.698 4.97595,-24.98755 10.78516,-36.24219 -4.32022,4.14112 -5.76486,11.44337 -11.30274,14.11328 -7.78014,2.79456 -15.10939,-6.54099 -11.73828,-13.72851 -3.3438,5.00613 -7.29862,12.65842 -12.31836,17.71289 -2.8547,3.88989 -8.29896,6.87668 -12.6289,3.26172 -5.39962,-4.01089 -4.70972,-11.63352 -1.78891,-16.89546 1.71863,-5.4833 3.38014,-10.98483 5.18539,-16.44048 -4.46628,5.85631 -8.25395,13.19063 -14.66602,16.95313 -7.5261,1.75714 -12.30227,-7.58498 -10.11718,-13.90039 0.19489,-5.3928 0.843,-10.77052 1.94726,-16.05274 z m -110.92969,49.66797 c 2.72626,3.37002 5.14605,6.99853 7.09961,10.8711 3.27826,-0.66497 18.13673,1.71325 9.81081,-2.00134 -5.4328,-2.95951 -11.88831,-6.89255 -16.91042,-8.86976 z" fill="#00803f"/><path d="m 608.42188,894.29297 c -1.44038,7.13884 -3.04851,14.24758 -5.01368,21.26172 14.85482,-0.002 29.70964,0.007 44.56446,-0.002 -5.07561,-3.274 -7.50846,-9.66426 -8.11524,-15.13867 -4.33017,0.38512 -8.58473,-1.74792 -11.82031,-4.16601 -6.29043,3.01217 -14.15883,1.62573 -19.45508,-2.76563 z m -60.68946,9.44726 c 1.07522,3.85282 1.8513,7.79129 2.27735,11.76954 5.54002,-0.0586 11.0792,0.17761 16.61914,0.0859 -6.03235,-4.26886 -12.9252,-8.754 -18.89649,-11.85547 z m 127.14844,2.19922 c -2.59986,3.76809 -5.79542,7.21998 -9.74024,9.59961 5.59228,-0.18527 11.75692,0.31555 16.9961,-0.29297 0.16253,-2.40852 2.91497,-6.29058 -1.10938,-6.18554 -2.21599,-0.53386 -4.45997,-2.3738 -6.14648,-3.1211 z" fill="#009449"/></g></g></g><g transform="translate(0.96221596,-4.7670639)"><g transform="matrix(-1,0,0,1,1223.2093,-0.1061)" fill-rule="evenodd"><path d="m 684.22891,1189.58 c 0,0 -221.38305,-221.87213 -224.13333,-224.13339 C 290.32188,825.85983 144.35986,875.40978 1.1981268,902.5475 c 101.5127532,-84.96745 287.0250132,-154.92339 478.3873332,0 3.01926,2.44434 267.54255,225.9052 267.54255,225.9052 z" fill="#adc8db" stroke="#505050" stroke-width="4.123"/><path d="m 238.07617,816.4707 c -87.14192,0.2558 -151.963773,32.52098 -215.413289,75.89574 -1.193697,1.32168 7.533117,-1.79654 10.003135,-2.10277 74.868404,-18.99127 164.045504,-31.62552 230.299404,-21.60611 73.71053,10.89219 142.64821,45.72989 199.19639,93.62994 21.58823,20.2393 41.74058,41.9568 62.98694,62.5566 l 159.11883,159.1188 56.90625,-55.3008 C 651.46354,1053.2582 562.42594,977.01247 472.27233,902.16342 404.19698,852.65079 323.47225,815.50005 238.07617,816.4707 Z" fill="#c9dbe7"/><path d="m 238.11133,820.4707 c -66.71136,0.14551 -131.69999,24.62119 -188.166391,59.03999 -4.431249,2.52711 -8.150265,4.81592 -1.383023,2.68839 75.875594,-18.40492 155.723814,-30.1834 233.159774,-14.30236 70.23231,14.44293 135.87035,49.12436 188.97831,97.05791 71.38061,70.94417 142.37328,142.29107 213.60664,213.39107 16.9694,-16.4902 33.9388,-32.9805 50.9082,-49.4707 C 644.99928,1053.351 556.10861,976.20428 464.95898,901.8347 398.87946,854.78248 320.70696,819.53791 238.11133,820.4707 Z" fill="#e4edf3"/><path d="m 235.39648,830.47656 c -42.73516,0.59371 -85.00753,11.45121 -124.20312,28.39258 72.34671,-12.37692 148.5105,-12.87358 218.47895,11.65724 69.1635,23.02619 131.00339,65.56268 180.05814,119.18908 58.2957,58.12484 116.43193,116.41224 174.67385,174.59314 11.96354,-11.6257 23.92708,-23.2513 35.89062,-34.877 C 630.0549,1054.2982 542.20547,976.22567 449.93651,903.55445 386.9012,860.39468 312.89627,828.95971 235.39648,830.47656 Z" fill="#f2f7fa"/></g><g fill-rule="evenodd"><path d="m 499.11478,1225.7958 -80.61712,85.0466 c -26.92626,26.9263 -73.74194,18.9439 -91.92315,-9.175 -23.99086,-37.1041 22.01766,-68.3748 49.39982,-49.2945 l 75.30171,-81.5031 c 12.79321,-15.689 4.31123,-22.9682 -6.2013,-29.2347 -5.3634,-3.1971 -10.67145,-6.6194 -15.94626,-13.2886 -22.29676,-28.191 12.0546,-44.6695 27.46296,-28.3488 l 36.32204,38.9797 185.15361,-139.97263 -149.71752,175.40873 38.97972,28.3488 c 30.36478,22.699 0.32076,46.5208 -21.26167,29.2349 l -16.83215,-14.1746 c -12.05604,-6.0644 -21.60796,-3.9749 -30.12069,7.9732 z" fill="#d8ad00" stroke="#9c6000" stroke-width="4.123"/><path d="m 496.53516,1143.7637 c -7.13747,3.204 -12.1436,-4.7461 -15.86133,-9.4785 -12.17267,-10.7341 -20.82972,-25.3959 -34.59961,-34.2227 -8.71168,-3.3883 -21.36767,4.4948 -17.54492,14.5254 4.42942,14.6527 20.56812,19.7046 30.17578,30.0801 6.18547,6.6501 6.53959,17.0985 1.09765,24.2851 -8.08698,12.9651 -20.58399,22.1294 -29.90756,33.8992 -17.63161,19.0845 -35.26411,38.1682 -52.89517,57.2532 -15.29095,-13.0725 -44.3317,-6.6693 -48.92969,14.0859 -3.00637,12.218 1.66628,26.2463 12.65821,32.877 15.98088,13.2575 39.51743,19.2325 58.60546,9.1171 20.51779,-10.2266 32.80061,-30.5208 49.22078,-45.7126 18.73378,-19.22 36.38234,-39.6467 55.72063,-58.2327 12.53423,-7.9139 29.39404,-1.9197 38.08984,9.0098 6.99549,6.8455 18.30554,14.5799 27.95899,8.4863 6.17299,-4.709 3.84646,-14.0054 -1.98047,-17.9062 -11.54552,-11.2326 -26.25536,-18.5185 -38.33594,-29.0489 -3.60306,-1.948 -10.97293,-5.4927 -7.625,-10.6191 38.44597,-45.0436 76.89193,-90.0872 115.33789,-135.1309 -47.06185,35.5775 -94.12369,71.155 -141.18554,106.7325 z" fill="#fc0"/><path d="m 501.36328,1150.1465 c -9.32416,6.1116 -21.15868,-1.1587 -26.125,-9.6485 -12.05027,-10.5477 -19.90868,-26.0753 -34.5293,-33.3964 -4.90047,0.3219 -6.04191,6.7008 -2.4082,9.4765 9.12405,12.6734 27.70408,17.249 32.33984,33.3711 4.27211,14.3109 -5.70097,27.7678 -15.25565,37.3752 -26.53558,27.7151 -52.00944,56.4478 -78.28927,84.4276 -9.04053,-16.019 -38.06906,-13.1359 -41.61718,5.6933 -2.57299,12.2177 6.51649,23.1579 16.87695,28.2695 16.75559,10.8127 40.31405,10.0211 54.90433,-4.3979 18.01721,-15.2765 31.87809,-34.7055 49.25125,-50.6608 15.26078,-15.8832 29.18487,-33.6367 46.84442,-47.0174 16.77338,-7.8666 36.95472,0.8826 47.70117,14.707 3.79002,2.9682 10.17262,7.9249 14.60547,4.0664 -1.52165,-6.9686 -9.66783,-9.3101 -14.20487,-14.107 -11.83172,-9.3539 -25.95915,-16.2391 -36.24044,-27.3422 -4.19694,-7.3245 0.72386,-15.7337 6.55622,-20.4119 20.71824,-24.2735 41.43648,-48.547 62.15471,-72.8205 -27.52148,20.8053 -55.04296,41.6106 -82.56445,62.416 z" fill="#ffd429"/><path d="m 504.58789,1162.1504 c -6.6486,3.3732 -15.14627,1.9278 -21.45703,0.6035 -3.72042,22.2564 -23.52745,36.2607 -37.34173,52.3195 -26.19372,28.1455 -51.9256,56.7233 -78.49616,84.5125 13.37367,4.0389 28.55029,-0.7709 37.0964,-11.8476 28.6359,-28.6372 54.7227,-59.7815 84.15522,-87.6284 5.41127,-4.5791 11.57847,-8.4944 18.49252,-10.3091 -6.32006,-7.7392 -7.09336,-19.487 -1.79492,-27.9668 z m -148.06641,110.8887 c -7.32023,-0.052 -12.49959,8.9763 -6.90429,14.9297 4.89443,5.2077 7.56004,7.1952 13.69824,9.3955 3.01083,-8.251 8.71908,-18.8774 -1.13965,-23.2959 -1.81437,-0.5856 -3.73439,-1.1175 -5.6543,-1.0293 z" fill="#ffdc51"/></g><g transform="matrix(4.4862178,0,0,4.4862178,-7.6608981,-9.358009)" stroke="#9c6000" stroke-linecap="round" fill="none"><path d="m 113.54093,266.78704 h -5.02682 l -0.27926,-5.0268"/><path d="m 106.69887,274.60653 h -5.02681 l -0.27927,-5.02681"/><path d="m 100.27572,282.42603 h -5.026818 l -0.279266,-5.0268"/><path d="m 85.614176,281.30896 5.026806,4.74755"/></g><path style="line-height:normal;font-variant-ligatures:normal;font-variant-position:normal;font-variant-caps:normal;font-variant-numeric:normal;font-variant-alternates:normal;font-feature-settings:normal;text-indent:0;text-align:start;text-decoration-line:none;text-decoration-style:solid;text-decoration-color:#000;text-transform:none;text-orientation:mixed;white-space:normal;shape-padding:0;isolation:auto;mix-blend-mode:normal;solid-color:#000;solid-opacity:1" d="m 664.70699,1009.6246 -148.90035,134.2973 5.5957,6.0586 145.89821,-138.4601 z" color="#000" font-weight="400" font-family="sans-serif" overflow="visible" fill="#9c6000"/><g transform="matrix(-1,0,0,1,1223.063,0)"><g transform="matrix(-1,0,0,1,1223.2093,-0.1061)" fill-rule="evenodd"><path d="m 684.22891,1189.58 c 0,0 -221.38305,-221.87213 -224.13333,-224.13339 C 290.32188,825.85983 144.35986,875.40978 1.1981268,902.5475 c 101.5127532,-84.96745 287.0250132,-154.92339 478.3873332,0 3.01926,2.44434 267.54255,225.9052 267.54255,225.9052 z" fill="#adc8db" stroke="#505050" stroke-width="4.123"/><path d="m 238.07617,816.4707 c -87.14192,0.2558 -151.963773,32.52098 -215.413289,75.89574 -1.193697,1.32168 7.533117,-1.79654 10.003135,-2.10277 74.868404,-18.99127 164.045504,-31.62552 230.299404,-21.60611 73.71053,10.89219 142.64821,45.72989 199.19639,93.62994 21.58823,20.2393 41.74058,41.9568 62.98694,62.5566 l 159.11883,159.1188 56.90625,-55.3008 C 651.46354,1053.2582 562.42594,977.01247 472.27233,902.16342 404.19698,852.65079 323.47225,815.50005 238.07617,816.4707 Z" fill="#c9dbe7"/><path d="m 238.11133,820.4707 c -66.71136,0.14551 -131.69999,24.62119 -188.166391,59.03999 -4.431249,2.52711 -8.150265,4.81592 -1.383023,2.68839 75.875594,-18.40492 155.723814,-30.1834 233.159774,-14.30236 70.23231,14.44293 135.87035,49.12436 188.97831,97.05791 71.38061,70.94417 142.37328,142.29107 213.60664,213.39107 16.9694,-16.4902 33.9388,-32.9805 50.9082,-49.4707 C 644.99928,1053.351 556.10861,976.20428 464.95898,901.8347 398.87946,854.78248 320.70696,819.53791 238.11133,820.4707 Z" fill="#e4edf3"/><path d="m 235.39648,830.47656 c -42.73516,0.59371 -85.00753,11.45121 -124.20312,28.39258 72.34671,-12.37692 148.5105,-12.87358 218.47895,11.65724 69.1635,23.02619 131.00339,65.56268 180.05814,119.18908 58.2957,58.12484 116.43193,116.41224 174.67385,174.59314 11.96354,-11.6257 23.92708,-23.2513 35.89062,-34.877 C 630.0549,1054.2982 542.20547,976.22567 449.93651,903.55445 386.9012,860.39468 312.89627,828.95971 235.39648,830.47656 Z" fill="#f2f7fa"/></g><g fill-rule="evenodd"><path d="m 499.11478,1225.7958 -80.61712,85.0466 c -26.92626,26.9263 -73.74194,18.9439 -91.92315,-9.175 -23.99086,-37.1041 22.01766,-68.3748 49.39982,-49.2945 l 75.30171,-81.5031 c 12.79321,-15.689 4.31123,-22.9682 -6.2013,-29.2347 -5.3634,-3.1971 -10.67145,-6.6194 -15.94626,-13.2886 -22.29676,-28.191 12.0546,-44.6695 27.46296,-28.3488 l 36.32204,38.9797 185.15361,-139.97263 -149.71752,175.40873 38.97972,28.3488 c 30.36478,22.699 0.32076,46.5208 -21.26167,29.2349 l -16.83215,-14.1746 c -12.05604,-6.0644 -21.60796,-3.9749 -30.12069,7.9732 z" fill="#d8ad00" stroke="#9c6000" stroke-width="4.123"/><path d="m 496.53516,1143.7637 c -7.13747,3.204 -12.1436,-4.7461 -15.86133,-9.4785 -12.17267,-10.7341 -20.82972,-25.3959 -34.59961,-34.2227 -8.71168,-3.3883 -21.36767,4.4948 -17.54492,14.5254 4.42942,14.6527 20.56812,19.7046 30.17578,30.0801 6.18547,6.6501 6.53959,17.0985 1.09765,24.2851 -8.08698,12.9651 -20.58399,22.1294 -29.90756,33.8992 -17.63161,19.0845 -35.26411,38.1682 -52.89517,57.2532 -15.29095,-13.0725 -44.3317,-6.6693 -48.92969,14.0859 -3.00637,12.218 1.66628,26.2463 12.65821,32.877 15.98088,13.2575 39.51743,19.2325 58.60546,9.1171 20.51779,-10.2266 32.80061,-30.5208 49.22078,-45.7126 18.73378,-19.22 36.38234,-39.6467 55.72063,-58.2327 12.53423,-7.9139 29.39404,-1.9197 38.08984,9.0098 6.99549,6.8455 18.30554,14.5799 27.95899,8.4863 6.17299,-4.709 3.84646,-14.0054 -1.98047,-17.9062 -11.54552,-11.2326 -26.25536,-18.5185 -38.33594,-29.0489 -3.60306,-1.948 -10.97293,-5.4927 -7.625,-10.6191 38.44597,-45.0436 76.89193,-90.0872 115.33789,-135.1309 -47.06185,35.5775 -94.12369,71.155 -141.18554,106.7325 z" fill="#fc0"/><path d="m 501.36328,1150.1465 c -9.32416,6.1116 -21.15868,-1.1587 -26.125,-9.6485 -12.05027,-10.5477 -19.90868,-26.0753 -34.5293,-33.3964 -4.90047,0.3219 -6.04191,6.7008 -2.4082,9.4765 9.12405,12.6734 27.70408,17.249 32.33984,33.3711 4.27211,14.3109 -5.70097,27.7678 -15.25565,37.3752 -26.53558,27.7151 -52.00944,56.4478 -78.28927,84.4276 -9.04053,-16.019 -38.06906,-13.1359 -41.61718,5.6933 -2.57299,12.2177 6.51649,23.1579 16.87695,28.2695 16.75559,10.8127 40.31405,10.0211 54.90433,-4.3979 18.01721,-15.2765 31.87809,-34.7055 49.25125,-50.6608 15.26078,-15.8832 29.18487,-33.6367 46.84442,-47.0174 16.77338,-7.8666 36.95472,0.8826 47.70117,14.707 3.79002,2.9682 10.17262,7.9249 14.60547,4.0664 -1.52165,-6.9686 -9.66783,-9.3101 -14.20487,-14.107 -11.83172,-9.3539 -25.95915,-16.2391 -36.24044,-27.3422 -4.19694,-7.3245 0.72386,-15.7337 6.55622,-20.4119 20.71824,-24.2735 41.43648,-48.547 62.15471,-72.8205 -27.52148,20.8053 -55.04296,41.6106 -82.56445,62.416 z" fill="#ffd429"/><path d="m 504.58789,1162.1504 c -6.6486,3.3732 -15.14627,1.9278 -21.45703,0.6035 -3.72042,22.2564 -23.52745,36.2607 -37.34173,52.3195 -26.19372,28.1455 -51.9256,56.7233 -78.49616,84.5125 13.37367,4.0389 28.55029,-0.7709 37.0964,-11.8476 28.6359,-28.6372 54.7227,-59.7815 84.15522,-87.6284 5.41127,-4.5791 11.57847,-8.4944 18.49252,-10.3091 -6.32006,-7.7392 -7.09336,-19.487 -1.79492,-27.9668 z m -148.06641,110.8887 c -7.32023,-0.052 -12.49959,8.9763 -6.90429,14.9297 4.89443,5.2077 7.56004,7.1952 13.69824,9.3955 3.01083,-8.251 8.71908,-18.8774 -1.13965,-23.2959 -1.81437,-0.5856 -3.73439,-1.1175 -5.6543,-1.0293 z" fill="#ffdc51"/></g><g transform="matrix(4.4862178,0,0,4.4862178,-7.6608981,-9.358009)" stroke="#9c6000" stroke-linecap="round" fill="none"><path d="m 113.54093,266.78704 h -5.02682 l -0.27926,-5.0268"/><path d="m 106.69887,274.60653 h -5.02681 l -0.27927,-5.02681"/><path d="m 100.27572,282.42603 h -5.026818 l -0.279266,-5.0268"/><path d="m 85.614176,281.30896 5.026806,4.74755"/></g><path d="m 664.70699,1009.6246 -148.90035,134.2973 5.5957,6.0586 145.89821,-138.4601 z" style="line-height:normal;font-variant-ligatures:normal;font-variant-position:normal;font-variant-caps:normal;font-variant-numeric:normal;font-variant-alternates:normal;font-feature-settings:normal;text-indent:0;text-align:start;text-decoration-line:none;text-decoration-style:solid;text-decoration-color:#000;text-transform:none;text-orientation:mixed;white-space:normal;shape-padding:0;isolation:auto;mix-blend-mode:normal;solid-color:#000;solid-opacity:1" color="#000" font-weight="400" font-family="sans-serif" overflow="visible" fill="#9c6000"/></g></g></g></svg>