<?xml version="1.0" encoding="UTF-8" standalone="no"?>
<svg
   xmlns:dc="http://purl.org/dc/elements/1.1/"
   xmlns:cc="http://creativecommons.org/ns#"
   xmlns:rdf="http://www.w3.org/1999/02/22-rdf-syntax-ns#"
   xmlns:svg="http://www.w3.org/2000/svg"
   xmlns="http://www.w3.org/2000/svg"
   xmlns:sodipodi="http://sodipodi.sourceforge.net/DTD/sodipodi-0.dtd"
   xmlns:inkscape="http://www.inkscape.org/namespaces/inkscape"
   width="250"
   height="360"
   viewBox="0 0 250 360"
   version="1.1"
   id="svg125"
   sodipodi:docname="svg.svg"
   inkscape:version="1.0.2 (e86c870879, 2021-01-15, custom)">
  <metadata
     id="metadata129">
    <rdf:RDF>
      <cc:Work
         rdf:about="">
        <dc:format>image/svg+xml</dc:format>
        <dc:type
           rdf:resource="http://purl.org/dc/dcmitype/StillImage" />
      </cc:Work>
    </rdf:RDF>
  </metadata>
  <sodipodi:namedview
     pagecolor="#ffffff"
     bordercolor="#666666"
     borderopacity="1"
     objecttolerance="10"
     gridtolerance="10"
     guidetolerance="10"
     inkscape:pageopacity="0"
     inkscape:pageshadow="2"
     inkscape:window-width="1920"
     inkscape:window-height="1017"
     id="namedview127"
     showgrid="false"
     inkscape:zoom="1.6746458"
     inkscape:cx="117.36277"
     inkscape:cy="149.70374"
     inkscape:window-x="-8"
     inkscape:window-y="-4"
     inkscape:window-maximized="1"
     inkscape:current-layer="svg125"
     inkscape:snap-global="false" />
  <defs
     id="defs6" />
  <path
     id="Tracé_20"
     data-name="Tracé 20"
     d="m 241.76311,178.87463 c 0,95.27239 -52.2961,172.63671 -116.76208,172.63671 C 60.535041,351.51134 8.2379174,274.14702 8.2379174,178.87463 8.2379174,83.959782 60.534014,6.2379195 125,6.2379195 189.11255,6.5964919 241.76311,83.959782 241.76311,178.87463 Z"
     fill="#ffffff"
     style="stroke-width:1.02743" />
  <path
     id="path1741"
     data-name="Tracé 26"
     d="m 132.16477,228.30215 c 0,0 0.35857,-7.16323 5.01385,-8.5965 2.87351,-0.78953 5.95152,-0.12042 8.23792,1.79081 0,0 -2.50692,-6.80568 1.79081,-10.02873 4.29773,-3.22304 7.16323,-1.7908 7.5218,-1.7908 -0.35857,-0.35858 -3.58162,-4.65631 -2.50693,-9.31261 1.07469,-5.01385 7.52181,-5.731 7.52181,-5.731 0,0 -6.44814,-2.14321 -6.44814,-7.52077 0,-5.01385 4.6563,-8.23792 5.01385,-8.59649 -0.35858,0 -6.08854,1.43223 -8.23792,-3.94019 -1.31544,-3.31691 -0.91351,-7.06882 1.07469,-10.03181 -0.35858,0.35857 -5.01385,3.58162 -8.95404,0 -2.8655,-2.8655 -3.58161,-6.80568 -3.22304,-8.59649 -1.07469,1.07469 -3.58162,3.58161 -6.44711,3.22304 -5.731,-0.35857 -7.52181,-6.44711 -7.52181,-6.44711 0,0 -1.7908,6.08854 -7.5218,6.44711 -2.8655,0.35857 -5.37242,-2.14835 -6.44711,-3.22304 0.35857,1.79081 -0.35755,5.73099 -3.22304,8.59649 -3.94019,3.58162 -8.595469,0.35857 -8.954042,0 1.988192,2.96299 2.390132,6.7149 1.07469,10.03181 -2.14938,5.37242 -7.879347,3.94019 -8.237919,3.94019 0.357545,0.35857 5.013849,3.58264 5.013849,8.59649 0,5.37756 -6.448139,7.52077 -6.448139,7.52077 0,0 6.447112,0.71715 7.521802,5.731 1.07469,4.6563 -2.148353,8.95403 -2.506925,9.31261 0.358572,0 3.22407,-1.43224 7.521804,1.7908 4.29773,3.22305 1.79081,10.02873 1.79081,10.02873 2.2864,-1.91123 5.36441,-2.58034 8.23792,-1.79081 4.65527,1.43327 5.01385,8.5965 5.01385,8.5965 0,0 3.58161,-5.37243 7.16425,-5.37243 3.58265,0 7.16426,5.37243 7.16426,5.37243 z"
     fill="#ffce15"
     style="fill:#ffce15;fill-opacity:1;stroke-width:1.02743"
     sodipodi:nodetypes="cccscccscccccccccccccscccsccccc" />
  <path
     id="Tracé_21"
     data-name="Tracé 21"
     d="M 125,172.78609"
     fill="none"
     stroke="#000000"
     stroke-miterlimit="10"
     stroke-width="0.97092" />
  <g
     id="Groupe_26"
     data-name="Groupe 26"
     transform="scale(1.0274282,1.02246)">
    <path
       id="Tracé_23"
       data-name="Tracé 23"
       d="M 165.963,14.1 C 99.031,14.1 44.3,92.885 44.3,190.146 c 0,97.261 54.382,176.046 121.663,176.046 67.281,0 121.663,-78.785 121.663,-176.046 C 287.626,92.885 232.9,14.1 165.963,14.1 Z m 0,344.074 c -62.749,0 -113.645,-75.3 -113.645,-168.028 0,-92.38 50.9,-168.028 113.645,-168.028 62.745,0 113.645,75.3 113.645,168.028 0,92.728 -51.244,168.028 -113.645,168.028 z"
       transform="translate(-44.3,-14.1)"
       fill="#156c52" />
  </g>
  <g
     id="Groupe_27"
     data-name="Groupe 27"
     transform="matrix(1.0274282,0,0,1.0274282,105.30112,177.79994)">
    <path
       id="Tracé_27"
       data-name="Tracé 27"
       d="m 93.222,72.069 c 0,-4.88 -3.137,-7.669 -8.367,-7.669 H 73.7 v 24.054 h 5.229 v -8.367 h 4.183 l 4.188,8.367 h 5.926 L 88.69,79.041 c 2.91662,-1.027754 4.776704,-3.889295 4.532,-6.972 z M 78.929,69.281 h 5.926 c 2.092,0 3.137,1.046 3.137,2.789 0,1.743 -1.046,2.789 -3.137,2.789 h -5.926 z"
       transform="translate(-73.7,-64.051)"
       sodipodi:nodetypes="csccccccccccssscc" />
    <path
       id="path1754"
       data-name="Tracé 28"
       d="m 21.265,0.349 v 5.229 h 6.972 v 18.825 h 5.228 V 5.578 h 6.623 V 0.349 Z"
       sodipodi:nodetypes="ccccccccc" />
  </g>
  <g
     id="Groupe_28"
     data-name="Groupe 28"
     transform="matrix(1.0274282,0,0,1.0274282,50.143632,47.068945)">
    <path
       id="Tracé_29"
       data-name="Tracé 29"
       d="m 62.135,36.489 6.972,6.972 -1.394,1.046 -6.973,-6.972 -1.394,1.394 -1.046,-1.046 4.183,-4.183 1.046,1.046 z"
       transform="translate(-58.3,-13.132)" />
    <path
       id="Tracé_30"
       data-name="Tracé 30"
       d="m 70.707,41.091 -4.532,-2.44 -1.046,0.7 3.137,3.486 -1.045,1.043 -7.321,-8.367 2.44,-2.092 c 1.394,-1.046 2.789,-1.394 4.532,0.349 a 3.329,3.329 0 0 1 0.7,3.486 l 4.88,2.789 z m -7.669,-6.275 -1.046,1.046 2.092,2.44 1.046,-1.046 a 1.458,1.458 0 0 0 0,-2.44 1.307,1.307 0 0 0 -2.093,0 z"
       transform="translate(-54.322,-15.991)" />
    <path
       id="Tracé_31"
       data-name="Tracé 31"
       d="m 70.815,39.318 -2.092,-1.743 -2.092,1.394 1.394,2.789 L 66.632,42.8 62.1,32.346 63.494,31.3 l 9.064,7.321 z m -4.88,-4.183 c -0.7,-0.349 -1.394,-1.394 -1.743,-1.743 a 11.606,11.606 0 0 1 1.046,2.092 l 0.7,1.743 1.394,-1.046 z"
       transform="translate(-48.853,-19.099)" />
    <path
       id="Tracé_32"
       data-name="Tracé 32"
       d="m 72.761,40.507 -1.046,0.7 -8.715,-7.672 1.394,-1.046 4.183,3.835 1.743,1.743 A 5.89,5.89 0 0 0 69.274,35.975 L 67.182,30.746 68.578,29.7 Z"
       transform="translate(-46.616,-23.076)" />
    <path
       id="Tracé_33"
       data-name="Tracé 33"
       d="m 73.318,38.164 -2.092,-2.092 -2.092,1.394 1.046,2.789 -1.394,0.7 L 65.3,29.8 l 1.394,-0.7 8.018,8.367 z m -4.532,-4.88 c -0.349,-0.7 -1.394,-1.394 -1.743,-1.743 a 22.217,22.217 0 0 1 0.7,2.44 l 0.7,1.743 1.394,-1.046 z"
       transform="translate(-40.898,-24.568)" />
    <path
       id="Tracé_34"
       data-name="Tracé 34"
       d="M 72.029,39.007 66.8,28.9 l 1.394,-0.7 5.229,10.11 z"
       transform="translate(-37.169,-26.806)" />
    <path
       id="Tracé_35"
       data-name="Tracé 35"
       d="M 72.432,38.607 67.9,28.5 l 1.394,-0.7 3.835,8.715 3.137,-1.394 0.7,1.394 z"
       transform="translate(-34.434,-27.8)" />
  </g>
  <g
     id="Groupe_29"
     data-name="Groupe 29"
     transform="matrix(1.0274282,0,0,1.0274282,157.95168,45.994255)">
    <path
       id="Tracé_36"
       data-name="Tracé 36"
       d="m 92.583,34.821 -1.046,-0.7 -1.743,4.183 -1.394,-0.7 4.532,-10.104 2.789,1.394 a 2.855,2.855 0 0 1 1.394,4.183 c -1.394,2.092 -3.137,2.441 -4.532,1.744 z m 1.743,-4.532 -1.046,-0.7 -1.394,3.137 1.046,0.7 a 1.554,1.554 0 0 0 2.092,-1.046 c 0.697,-1.045 0.348,-1.743 -0.698,-2.091 z"
       transform="translate(-88.4,-27.5)" />
    <path
       id="Tracé_37"
       data-name="Tracé 37"
       d="m 94.48,39.258 0.7,-2.789 -2.092,-1.046 -2.092,2.44 -1.394,-0.7 7.667,-8.363 1.394,0.7 -2.788,11.153 z m 2.092,-6.275 a 8.868,8.868 0 0 0 0.7,-2.44 c -0.349,0.349 -1.046,1.394 -1.743,2.092 l -1.049,1.394 1.743,0.7 z"
       transform="translate(-85.417,-24.268)" />
    <path
       id="Tracé_38"
       data-name="Tracé 38"
       d="m 98.424,32.437 -5.23,8.363 -1.394,-0.7 5.229,-8.367 -1.743,-1.046 0.7,-1.394 4.88,3.137 -0.7,1.394 z"
       transform="translate(-79.947,-23.025)" />
    <path
       id="Tracé_39"
       data-name="Tracé 39"
       d="m 96.735,42.253 1.394,-4.88 -1.046,-0.7 -2.789,3.837 -1.394,-1.046 6.624,-9.064 2.44,1.743 c 1.394,1.046 2.092,2.44 0.7,4.183 -1.046,1.394 -2.092,1.743 -3.137,1.394 l -1.746,5.23 z m 4.532,-8.715 -1.394,-1.046 -2.092,2.788 1.046,0.7 a 1.494,1.494 0 0 0 2.44,-0.349 c 1.045,-1.048 0.697,-1.745 0,-2.094 z"
       transform="translate(-77.213,-20.29)" />
    <path
       id="Tracé_40"
       data-name="Tracé 40"
       d="m 94.7,40.515 6.972,-8.715 1.046,1.046 -6.972,8.715 z"
       transform="translate(-72.738,-16.81)" />
    <path
       id="Tracé_41"
       data-name="Tracé 41"
       d="m 95.5,40.967 7.669,-8.367 3.831,3.486 -1.046,1.046 -2.789,-2.44 -2.092,2.092 1.743,1.743 -1.046,1.046 -1.743,-1.743 -2.44,2.789 2.789,2.789 -0.7,1.046 z"
       transform="translate(-70.749,-14.821)" />
  </g>
  <g
     id="Groupe_30"
     data-name="Groupe 30"
     transform="matrix(1.0274282,0,0,1.0274282,100.28727,30.951678)">
    <path
       id="Tracé_42"
       data-name="Tracé 42"
       d="M 74.74,35.355 72.3,24.549 73.694,24.2 l 2.092,9.412 3.486,-0.7 0.349,1.394 z"
       transform="translate(-72.3,-21.063)" />
    <path
       id="Tracé_43"
       data-name="Tracé 43"
       d="M 76.043,35.3 74.3,24.149 75.694,23.8 77.437,34.955 Z"
       transform="translate(-67.328,-22.057)" />
    <path
       id="Tracé_44"
       data-name="Tracé 44"
       d="M 79.435,34.8 76.646,35.149 75.6,24 78.389,23.651 c 1.743,-0.349 3.137,0.7 3.486,2.789 a 2.714,2.714 0 0 1 -1.046,2.44 2.322,2.322 0 0 1 1.743,2.44 3.733,3.733 0 0 1 -3.137,3.48 z M 78.04,25.042 h -1.394 l 0.349,3.137 h 1.394 a 1.6,1.6 0 0 0 1.394,-1.743 c 0,-1.046 -0.697,-1.394 -1.743,-1.394 z m 0.7,4.532 h -1.397 l 0.349,3.486 h 1.394 c 1.046,0 1.394,-0.7 1.394,-2.092 10e-4,-1.046 -1.045,-1.395 -1.743,-1.395 z"
       transform="translate(-64.096,-22.601)" />
    <path
       id="Tracé_45"
       data-name="Tracé 45"
       d="M 78.249,34.655 77.9,23.5 h 5.229 v 1.394 h -3.835 v 3.137 h 2.44 v 1.394 h -2.44 v 3.835 h 3.835 v 1.394 z"
       transform="translate(-58.378,-22.803)" />
    <path
       id="Tracé_46"
       data-name="Tracé 46"
       d="m 84.432,34.655 -1.394,-4.88 h -1.395 l -0.349,4.88 H 79.9 l 0.7,-11.155 3.137,0.349 c 1.743,0 3.137,1.046 2.789,3.137 a 2.436,2.436 0 0 1 -2.092,2.789 L 85.826,35 Z m -1.046,-9.761 h -1.394 l -0.349,3.137 h 1.394 c 1.046,0 1.743,-0.349 1.743,-1.394 0.349,-1.045 -0.348,-1.394 -1.394,-1.743 z"
       transform="translate(-53.406,-22.803)" />
    <path
       id="Tracé_47"
       data-name="Tracé 47"
       d="M 86.035,25.692 84.64,35.1 83.246,34.751 84.64,25.339 82.2,24.99 l 0.349,-1.394 5.578,0.7 -0.349,1.394 z"
       transform="translate(-47.688,-22.554)" />
    <path
       id="Tracé_48"
       data-name="Tracé 48"
       d="m 83.8,36.547 2.44,-10.807 5.229,1.046 -0.349,1.394 -3.486,-0.7 -0.7,2.789 2.44,0.7 -0.349,1.394 -2.44,-0.7 -0.7,3.486 3.835,0.7 -0.349,1.394 z m 5.926,-11.5 -1.394,-0.349 1.394,-1.398 2.092,0.349 z"
       transform="translate(-43.71,-23.3)" />
  </g>
  <g
     id="g1579"
     transform="matrix(1.0274282,0,0,1.0274282,0,-2)">
    <path
       id="Tracé_63"
       data-name="Tracé 63"
       d="M 53.335998,239.492"
       fill="#cf3339" />
    <path
       id="Tracé_64"
       data-name="Tracé 64"
       d="m 117.479,307.818 c -0.7,-1.394 -0.349,-1.394 -0.349,-2.789 a 7.246,7.246 0 0 1 0,-2.789 c 0.7,-1.394 -0.7,-3.486 -1.743,-4.183 0,0 -3.835,-2.44 -5.578,-3.486 -2.092,-1.046 -3.486,-2.44 -3.486,-3.835 0,-1.395 1.394,-3.137 1.394,-5.229 0,-2.092 -1.046,-2.789 -0.7,-3.835 0,-1.046 1.743,-3.137 2.789,-4.183 1.046,-1.046 1.394,-5.229 -1.046,-9.412 -1.046,-1.394 -6.275,-7.321 -6.275,-7.321 a 91.732,91.732 0 0 1 -5.578002,-8.018 10.5,10.5 0 0 1 -1.394,-4.88 c 0.349,-2.092 1.046,-3.486 2.44,-3.137 a 2.936,2.936 0 0 1 2.440002,2.44 c 0.349,0.7 0.7,1.046 -0.349,2.789 -1.049002,1.743 0.7,4.532 0.7,4.532 a 1.524,1.524 0 0 1 1.046,-1.394 c 0,0 -0.349,1.394 1.743,4.183 0,0 -0.7,-2.092 0.349,-2.44 0.7,-0.349 1.743,3.486 3.486,5.578 1.743,2.092 5.926,1.743 5.926,1.743 0,0 -2.789,-1.394 -3.835,-9.761 -0.7,-5.229 -3.835,-4.88 -5.926,-4.88 v 0 c -1.046,-0.349 -1.743,-2.092 -2.44,-3.137 -0.7,-1.394 -2.092002,-2.789 -3.486002,-2.789 a 3.572,3.572 0 0 0 -3.486,2.092 c -1.046,1.743 -1.046,2.789 -1.046,5.578 a 16.343,16.343 0 0 0 2.092,7.321 86.412,86.412 0 0 0 5.578002,7.321 c 0,0 4.532,5.229 5.578,7.321 1.046,2.092 0.7,3.835 0,4.532 -1.046,0.7 -4.183,0.349 -4.88,0 -0.7,-0.7 -3.137002,-3.835 -3.137002,-3.835 0,0 -6.275,-6.972 -6.972,-8.715 -0.697,-1.743 -0.7,-6.624 0,-10.11 a 32,32 0 0 0 -0.349,-12.2 c 1.394,0.349 1.743,2.789 1.743,2.789 a 4.465,4.465 0 0 0 0,-4.532 c 2.092,1.743 3.486,0.7 3.486,0.7 -3.137,-3.137 -2.092,-11.155 -2.092,-11.155 0,0 1.394,1.743 2.092,6.275 3.138,-13.254 -3.485,-14.993 -3.485,-14.993 2.789,0.349 5.578,3.486 5.578,3.486 -2.44,-11.155 -8.018,-11.853 -13.247,-10.807 1.743,-2.092 7.321,-2.092 7.321,-2.092 0,0 -6.624,-2.092 -10.458,-1.046 0.7,-1.743 3.486,-3.137 3.486,-3.137 -4.532,0.7 -6.275,1.394 -8.715,3.835 a 5.391,5.391 0 0 1 1.046,-2.789 c 0,0 -3.835,1.046 -5.229,3.486 -1.394,2.44 -0.349,4.183 1.394,4.881 a 7.908,7.908 0 0 0 -1.394,-0.349 7.652,7.652 0 0 0 -4.182,1.739 21.3,21.3 0 0 1 -4.88,2.44 2.656,2.656 0 0 0 0,2.789 c 0.349,0.349 0.349,0.349 0.349,1.046 0,0.349 0.349,3.137 1.743,3.486 l 1.394,0.7 c 0,0 -0.7,-1.394 1.743,-1.743 2.443,-0.349 5.578,1.394 2.092,3.486 -1.046,0.7 -2.789,1.394 -3.835,0.349 a 1.08,1.08 0 0 1 -0.349,-0.7 c 0,0 -0.7,0 -1.046,1.046 -0.346,1.046 -0.349,3.137 1.046,3.486 1.395,0.349 4.88,-0.7 6.275,-1.394 1.743,-0.7 3.486,-2.092 3.486,-4.183 0,0 1.743,1.743 -1.743,4.532 -3.486,2.44 -11.155,2.44 -11.155,9.064 a 7.034,7.034 0 0 1 4.183,-3.835 c 0,0 -4.532,2.789 -3.835,7.321 a 8.464,8.464 0 0 1 5.926,-4.88 c 0,0 -5.926,3.835 -5.229,14.99 v 0.349 c -1.394,-3.137 -0.7,-7.669 -0.7,-7.669 -1.743,0 -2.789,-2.092 -3.486,-3.486 -1.046,-4.532 -1.394,-4.88 -3.137,-5.926 a 10.581,10.581 0 0 0 -3.835,-1.046 1.909,1.909 0 0 0 -1.743,1.394 c 0,0.349 1.394,-0.349 2.44,0.7 a 4.388,4.388 0 0 0 -2.789,0.349 c -0.349,0.349 0,2.092 0,2.092 0.349,0.349 1.743,-0.349 2.44,0 a 8.868,8.868 0 0 0 -2.44,0.7 c -0.349,0.7 0,1.743 0,2.092 0.7,0.7 3.486,-0.349 3.835,4.183 0,0.349 0.349,1.046 0.349,1.394 a 2.439,2.439 0 0 0 2.44,1.046 c 0.349,0.7 2.44,3.486 3.486,5.229 a 34.6,34.6 0 0 1 -5.229,1.046 c -1.046,0 -2.789,-1.394 -2.789,-1.394 l -3.835,-2.092 c 0,0 0,1.743 -1.046,1.394 -0.7,0 -0.7,-2.092 -0.7,-2.092 0,0 -2.092,0.7 -2.092,2.092 -1.046,0 -1.394,2.44 -0.7,3.486 -2.44,3.137 3.137,4.183 3.137,4.183 0,0 3.835,1.394 4.88,1.743 1.045,0.349 3.137,1.394 4.532,1.394 a 18.939,18.939 0 0 0 3.835,-0.7 c 0,0 2.44,-0.349 3.835,-0.7 0,0 3.137,0 6.972,-7.669 0,0 -0.7,6.624 -5.578,8.715 a 18.827,18.827 0 0 0 2.789,2.789 24.762,24.762 0 0 0 4.532,4.183 c 1.743,1.394 6.275,3.137 7.321,4.532 a 10.045,10.045 0 0 1 1.394,3.835 0.683,0.683 0 0 1 0.7,-0.7 c 0.7,0 1.394,2.44 1.394,2.44 0,0 0.7,-2.44 1.046,-1.743 a 5.326,5.326 0 0 1 1.394,3.486 4.823,4.823 0 0 1 -0.7,2.44 l -4.183,4.88 c -2.789,2.789 -3.486,3.137 -4.183,4.532 a 12.231,12.231 0 0 0 -1.743,2.789 c -0.349,1.394 -0.349,2.789 0.7,5.926 0.7,2.44 -0.349,6.972 -2.092,6.972 -4.532,0 -4.532,-1.046 -5.926,0.349 a 13.774,13.774 0 0 0 -2.789,4.183 2.1,2.1 0 0 0 1.743,1.394 c 0.349,0 0,-2.44 1.394,-3.137 a 5.018,5.018 0 0 0 -0.7,3.137 1.408,1.408 0 0 0 1.743,1.046 c 0,-0.349 0,-2.092 0.7,-2.44 v 2.44 a 1.492,1.492 0 0 0 2.092,0.349 c 1.046,-0.7 1.743,-2.789 5.578,-2.092 2.092,0.349 2.44,0 2.44,-1.046 0,-1.394 1.046,-3.486 1.743,-5.578 a 1.868,1.868 0 0 1 1.394,-1.046 1.08,1.08 0 0 1 0.349,0.7 2.722,2.722 0 0 0 0,-1.743 1.08,1.08 0 0 1 0.7,0.349 c 0,0 0,-1.046 -0.7,-1.394 -0.349,-0.7 -1.046,-2.44 -0.7,-3.486 0.7,-1.743 4.183,-4.88 9.761,-4.88 -2.44,-2.44 -2.789,-3.835 -3.137,-6.624 a 21.846,21.846 0 0 1 0,-7.321 c 0,0 0.349,5.578 1.394,7.321 4.183,9.412 16.733002,11.853 16.733002,11.853 a 12.509,12.509 0 0 1 0,3.835 c -1.046,3.486 -1.394,4.88 -1.394,4.88 a 34.669,34.669 0 0 1 -5.926,-1.046 c -1.743002,-0.349 -3.486002,4.532 -3.486002,4.88 a 2.722,2.722 0 0 0 1.394,1.394 c 0.349,0 0.349,-2.092 1.743002,-2.789 0,0 -1.394002,1.743 -1.046,2.789 a 1.392,1.392 0 0 0 1.394,0.7 c 0.349,0 0,-1.743 0.7,-2.44 0,0 -0.349,2.092 0.349,2.44 1.046,0.7 1.046,0.349 1.743,0 a 21.1,21.1 0 0 1 5.229,-0.7 c 1.394,0 1.743,-3.137 3.486,-5.926 1.743,-2.789 2.092,-4.88 2.789,-4.88 0.697,0 1.046,1.743 0,2.44 0.697,-0.002 2.445,-1.047 1.747,-2.442 z m -44.970002,-87.5 c -0.7,0.7 -3.835,0.349 -3.486,-1.046 0.349,-1.395 2.44,-1.743 3.486,-1.046 1.046,1.048 0,1.748 0,2.092 z"
       fill="#d21b33" />
    <path
       id="Tracé_65"
       d="m 61.005859,206.375 -2.439453,3.48633 1.044922,2.09179 -3.833984,17.77735 -1.046875,-13.24609 c -0.293648,-0.55523 -0.528014,-1.13984 -0.699219,-1.74415 -0.349,-0.349 -1.395141,-0.69865 -1.744141,-0.34765 -0.349,0.351 6.1e-4,1.39319 0.34961,1.74219 0.465414,0.59377 1.062516,1.07118 1.74414,1.39453 0,0 -8.015093,12.89872 -6.621093,34.51172 v 0.69921 c 0,0.349 0.348218,2.0918 0.699218,2.0918 1.046,0.349 1.046875,-1.04458 1.046875,-1.39258 v -2.0957 c -0.597747,-11.0261 1.062473,-22.05812 4.878907,-32.41992 l 0.701172,14.64062 -0.701172,3.83594 h 0.349609 l 0.347656,-1.74414 v 1.74414 c 0.349,0 0.700875,0.34766 1.046875,0.34766 l -0.349609,-5.92578 4.183594,-19.52149 1.742187,-1.74219 z m -8.714843,38.74155 -2.091797,9.01626 0.349609,0.34961 2.196678,-9.24957 z m 2.789062,5.27671 0.34961,6.97071 h 1.044921 l -0.347656,-6.27149 c -0.349,0 -0.700875,-0.34822 -1.046875,-0.69922 z m -6.27539,13.2461 c 2.439999,13.944 7.669921,19.42705 7.669921,19.42705 l -1.394531,2.09179 c -0.7,1.046 -0.700609,1.39514 -0.349609,1.74414 0.351,0.349 1.04714,-8.7e-4 1.74414,-1.04687 0.417349,-0.6215 0.658942,-1.34426 0.699219,-2.0918 l -0.699219,-17.33525 c 0,-0.348 -0.348265,-0.34961 -0.697265,-0.34961 l 0.699218,15.94267 c -2.680824,-5.90868 -4.669927,-11.31563 -5.927734,-17.68095 -0.7,-0.349 -1.395141,-0.35017 -1.74414,-0.70117 z"
       sodipodi:nodetypes="ccccccscccscscccccccccccccccccccccccccsccccccc" />
    <path
       id="Tracé_69"
       data-name="Tracé 69"
       d="M 53.336998,239.492 Z" />
  </g>
  <g
     id="g1719"
     transform="matrix(1.0274282,0,0,1.0274282,83.572152,-2)">
    <path
       id="path1701"
       data-name="Tracé 63"
       d="M 108.64989,239.492"
       fill="#cf3339" />
    <path
       id="path1703"
       data-name="Tracé 64"
       d="m 44.50689,307.818 c 0.7,-1.394 0.349,-1.394 0.349,-2.789 a 7.246,7.246 0 0 0 0,-2.789 c -0.7,-1.394 0.7,-3.486 1.743,-4.183 0,0 3.835,-2.44 5.578,-3.486 2.092,-1.046 3.486,-2.44 3.486,-3.835 0,-1.395 -1.394,-3.137 -1.394,-5.229 0,-2.092 1.046,-2.789 0.7,-3.835 0,-1.046 -1.743,-3.137 -2.789,-4.183 -1.046,-1.046 -1.394,-5.229 1.046,-9.412 1.046,-1.394 6.275,-7.321 6.275,-7.321 a 91.732,91.732 0 0 0 5.578002,-8.018 10.5,10.5 0 0 0 1.394,-4.88 c -0.349,-2.092 -1.046,-3.486 -2.44,-3.137 a 2.936,2.936 0 0 0 -2.440002,2.44 c -0.349,0.7 -0.7,1.046 0.349,2.789 1.049002,1.743 -0.7,4.532 -0.7,4.532 a 1.524,1.524 0 0 0 -1.046,-1.394 c 0,0 0.349,1.394 -1.743,4.183 0,0 0.7,-2.092 -0.349,-2.44 -0.7,-0.349 -1.743,3.486 -3.486,5.578 -1.743,2.092 -5.926,1.743 -5.926,1.743 0,0 2.789,-1.394 3.835,-9.761 0.7,-5.229 3.835,-4.88 5.926,-4.88 v 0 c 1.046,-0.349 1.743,-2.092 2.44,-3.137 0.7,-1.394 2.092002,-2.789 3.486002,-2.789 a 3.572,3.572 0 0 1 3.486,2.092 c 1.046,1.743 1.046,2.789 1.046,5.578 a 16.343,16.343 0 0 1 -2.092,7.321 86.412,86.412 0 0 1 -5.578002,7.321 c 0,0 -4.532,5.229 -5.578,7.321 -1.046,2.092 -0.7,3.835 0,4.532 1.046,0.7 4.183,0.349 4.88,0 0.7,-0.7 3.137002,-3.835 3.137002,-3.835 0,0 6.275,-6.972 6.972,-8.715 0.697,-1.743 0.7,-6.624 0,-10.11 a 32,32 0 0 1 0.349,-12.2 c -1.394,0.349 -1.743,2.789 -1.743,2.789 a 4.465,4.465 0 0 1 0,-4.532 c -2.092,1.743 -3.486,0.7 -3.486,0.7 3.137,-3.137 2.092,-11.155 2.092,-11.155 0,0 -1.394,1.743 -2.092,6.275 -3.138,-13.254 3.485,-14.993 3.485,-14.993 -2.789,0.349 -5.578,3.486 -5.578,3.486 2.44,-11.155 8.018,-11.853 13.247,-10.807 -1.743,-2.092 -7.321,-2.092 -7.321,-2.092 0,0 6.624,-2.092 10.458,-1.046 -0.7,-1.743 -3.486,-3.137 -3.486,-3.137 4.532,0.7 6.275,1.394 8.715,3.835 a 5.391,5.391 0 0 0 -1.046,-2.789 c 0,0 3.835,1.046 5.229,3.486 1.394,2.44 0.349,4.183 -1.394,4.881 a 7.908,7.908 0 0 1 1.394,-0.349 7.652,7.652 0 0 1 4.182,1.739 21.3,21.3 0 0 0 4.88,2.44 2.656,2.656 0 0 1 0,2.789 c -0.349,0.349 -0.349,0.349 -0.349,1.046 0,0.349 -0.349,3.137 -1.743,3.486 l -1.394,0.7 c 0,0 0.7,-1.394 -1.743,-1.743 -2.443,-0.349 -5.578,1.394 -2.092,3.486 1.046,0.7 2.789,1.394 3.835,0.349 a 1.08,1.08 0 0 0 0.349,-0.7 c 0,0 0.7,0 1.046,1.046 0.346,1.046 0.349,3.137 -1.046,3.486 -1.395,0.349 -4.88,-0.7 -6.275,-1.394 -1.743,-0.7 -3.486,-2.092 -3.486,-4.183 0,0 -1.743,1.743 1.743,4.532 3.486,2.44 11.155,2.44 11.155,9.064 a 7.034,7.034 0 0 0 -4.183,-3.835 c 0,0 4.532,2.789 3.835,7.321 a 8.464,8.464 0 0 0 -5.926,-4.88 c 0,0 5.926,3.835 5.229,14.99 v 0.349 c 1.394,-3.137 0.7,-7.669 0.7,-7.669 1.743,0 2.788998,-2.092 3.485998,-3.486 1.046,-4.532 1.394,-4.88 3.137,-5.926 a 10.581,10.581 0 0 1 3.835,-1.046 1.909,1.909 0 0 1 1.743,1.394 c 0,0.349 -1.394,-0.349 -2.44,0.7 a 4.388,4.388 0 0 1 2.789,0.349 c 0.349,0.349 0,2.092 0,2.092 -0.349,0.349 -1.743,-0.349 -2.44,0 a 8.868,8.868 0 0 1 2.44,0.7 c 0.349,0.7 0,1.743 0,2.092 -0.7,0.7 -3.486,-0.349 -3.835,4.183 0,0.349 -0.349,1.046 -0.349,1.394 a 2.439,2.439 0 0 1 -2.44,1.046 c -0.349,0.7 -2.44,3.486 -3.486,5.229 a 34.6,34.6 0 0 0 5.229,1.046 c 1.046,0 2.789,-1.394 2.789,-1.394 l 3.835,-2.092 c 0,0 0,1.743 1.046,1.394 0.7,0 0.7,-2.092 0.7,-2.092 0,0 2.092,0.7 2.092,2.092 1.046,0 1.394,2.44 0.7,3.486 2.44,3.137 -3.137,4.183 -3.137,4.183 0,0 -3.835,1.394 -4.88,1.743 -1.045,0.349 -3.137,1.394 -4.532,1.394 a 18.939,18.939 0 0 1 -3.835,-0.7 c 0,0 -2.439998,-0.349 -3.834998,-0.7 0,0 -3.137,0 -6.972,-7.669 0,0 0.7,6.624 5.578,8.715 a 18.827,18.827 0 0 1 -2.789,2.789 24.762,24.762 0 0 1 -4.532,4.183 c -1.743,1.394 -6.275,3.137 -7.321,4.532 a 10.045,10.045 0 0 0 -1.394,3.835 0.683,0.683 0 0 0 -0.7,-0.7 c -0.7,0 -1.394,2.44 -1.394,2.44 0,0 -0.7,-2.44 -1.046,-1.743 a 5.326,5.326 0 0 0 -1.394,3.486 4.823,4.823 0 0 0 0.7,2.44 l 4.183,4.88 c 2.789,2.789 3.486,3.137 4.183,4.532 a 12.231,12.231 0 0 1 1.743,2.789 c 0.349,1.394 0.349,2.789 -0.7,5.926 -0.7,2.44 0.349,6.972 2.092,6.972 4.532,0 4.532,-1.046 5.926,0.349 a 13.774,13.774 0 0 1 2.789,4.183 2.1,2.1 0 0 1 -1.743,1.394 c -0.349,0 0,-2.44 -1.394,-3.137 a 5.018,5.018 0 0 1 0.7,3.137 1.408,1.408 0 0 1 -1.743,1.046 c 0,-0.349 0,-2.092 -0.7,-2.44 v 2.44 a 1.492,1.492 0 0 1 -2.092,0.349 c -1.046,-0.7 -1.743,-2.789 -5.578,-2.092 -2.092,0.349 -2.44,0 -2.44,-1.046 0,-1.394 -1.046,-3.486 -1.743,-5.578 a 1.868,1.868 0 0 0 -1.394,-1.046 1.08,1.08 0 0 0 -0.349,0.7 2.722,2.722 0 0 1 0,-1.743 1.08,1.08 0 0 0 -0.7,0.349 c 0,0 0,-1.046 0.7,-1.394 0.349,-0.7 1.046,-2.44 0.7,-3.486 -0.7,-1.743 -4.183,-4.88 -9.761,-4.88 2.44,-2.44 2.789,-3.835 3.137,-6.624 a 21.846,21.846 0 0 0 0,-7.321 c 0,0 -0.349,5.578 -1.394,7.321 -4.183,9.412 -16.733002,11.853 -16.733002,11.853 a 12.509,12.509 0 0 0 0,3.835 c 1.046,3.486 1.394,4.88 1.394,4.88 a 34.669,34.669 0 0 0 5.926,-1.046 c 1.743002,-0.349 3.486002,4.532 3.486002,4.88 a 2.722,2.722 0 0 1 -1.394,1.394 c -0.349,0 -0.349,-2.092 -1.743002,-2.789 0,0 1.394002,1.743 1.046,2.789 a 1.392,1.392 0 0 1 -1.394,0.7 c -0.349,0 0,-1.743 -0.7,-2.44 0,0 0.349,2.092 -0.349,2.44 -1.046,0.7 -1.046,0.349 -1.743,0 a 21.1,21.1 0 0 0 -5.229,-0.7 c -1.394,0 -1.743,-3.137 -3.486,-5.926 -1.743,-2.789 -2.092,-4.88 -2.789,-4.88 -0.697,0 -1.046,1.743 0,2.44 -0.697,-0.002 -2.445,-1.047 -1.747,-2.442 z m 44.970002,-87.5 c 0.7,0.7 3.835,0.349 3.486,-1.046 -0.349,-1.395 -2.44,-1.743 -3.486,-1.046 -1.046,1.048 0,1.748 0,2.092 z"
       fill="#d21b33" />
    <path
       id="path1705"
       d="m 100.98003,206.375 2.43945,3.48633 -1.04492,2.09179 3.83399,17.77735 1.04687,-13.24609 c 0.29365,-0.55523 0.52802,-1.13984 0.69922,-1.74415 0.349,-0.349 1.39514,-0.69865 1.74414,-0.34765 0.349,0.351 -6.1e-4,1.39319 -0.34961,1.74219 -0.46541,0.59377 -1.06251,1.07118 -1.74414,1.39453 0,0 8.01509,12.89872 6.62109,34.51172 v 0.69921 c 0,0.349 -0.34821,2.0918 -0.69921,2.0918 -1.046,0.349 -1.04688,-1.04458 -1.04688,-1.39258 v -2.0957 c 0.59775,-11.0261 -1.06247,-22.05812 -4.87891,-32.41992 l -0.70117,14.64062 0.70117,3.83594 h -0.3496 l -0.34766,-1.74414 v 1.74414 c -0.349,0 -0.70088,0.34766 -1.04688,0.34766 l 0.34961,-5.92578 -4.18359,-19.52149 -1.74219,-1.74219 z m 8.71484,38.74155 2.0918,9.01626 -0.34961,0.34961 -2.19668,-9.24957 z m -2.78906,5.27671 -0.34961,6.97071 h -1.04492 l 0.34766,-6.27149 c 0.349,0 0.70087,-0.34822 1.04687,-0.69922 z m 6.27539,13.2461 c -2.44,13.944 -7.66992,19.42705 -7.66992,19.42705 l 1.39453,2.09179 c 0.7,1.046 0.70061,1.39514 0.34961,1.74414 -0.351,0.349 -1.04714,-8.7e-4 -1.74414,-1.04687 -0.41735,-0.6215 -0.65894,-1.34426 -0.69922,-2.0918 l 0.69922,-17.33525 c 0,-0.348 0.34827,-0.34961 0.69727,-0.34961 l -0.69922,15.94267 c 2.68082,-5.90868 4.66993,-11.31563 5.92773,-17.68095 0.7,-0.349 1.39514,-0.35017 1.74414,-0.70117 z"
       sodipodi:nodetypes="ccccccscccscscccccccccccccccccccccccccsccccccc" />
    <path
       id="path1707"
       data-name="Tracé 69"
       d="M 108.64889,239.492 Z" />
  </g>
  <g
     id="g1792"
     transform="matrix(1.0274282,0,0,1.0274282,0,-2)">
    <g
       id="Groupe_31"
       data-name="Groupe 31"
       transform="translate(28.236998,91.297)">
      <path
         id="Tracé_49"
         data-name="Tracé 49"
         d="m 69.735,66.124 v 0 c 2.590883,-0.979805 5.278686,-1.681087 8.018,-2.092 H 78.1 c 1.394,-0.349 2.44,-0.349 3.835,-0.7 H 90.3 c 0.49125,-0.05122 0.984834,0.07236 1.394,0.349 v 0 L 87.862,40.327 c -7.321,-0.349 -14.989,1.743 -22.31,4.532 1.046,6.972 2.788,13.944 4.183,21.265 z"
         transform="translate(-18.838,-40.289)"
         fill="#d21b33"
         sodipodi:nodetypes="ssccccscccs" />
      <path
         id="Tracé_50"
         data-name="Tracé 50"
         d="M 75.767,53.253 81,56.39 c -1.046,-1.743 -1.743,-3.835 -2.789,-5.578 a 41.778,41.778 0 0 0 3.835,-4.183 29.989,29.989 0 0 0 -5.578,0.349 41.618,41.618 0 0 1 -2.793,-5.578 38.413,38.413 0 0 0 -0.7,6.275 c -1.743,0.349 -3.835,1.046 -5.578,1.394 a 35.182,35.182 0 0 1 5.229,2.44 34.346,34.346 0 0 0 -0.7,5.926 49.684,49.684 0 0 0 3.835,-4.183"
         transform="translate(-15.109,-37.527)"
         fill="#ffffff" />
      <path
         id="Tracé_51"
         data-name="Tracé 51"
         d="M 100.508,48.572 C 100.159,46.132 99.462,43.692 99.114,41.6 83.426,47.526 68.087,56.59 52.4,52.058 c 0.349,2.789 1.046,5.229 1.394,8.018 a 38.611,38.611 0 0 0 6.624,0.7 c 13.247,0.346 26.494,-7.323 40.09,-12.204 z"
         transform="translate(-52.4,-37.03)"
         fill="#156c52" />
      <path
         id="Tracé_52"
         data-name="Tracé 52"
         d="m 77.9,59.636 c 7.669,-2.789 15.339,-6.275 23.008,-9.064 -0.349,-2.44 -1.046,-4.88 -1.394,-6.972 -13.247,4.88 -26.843,12.55 -40.09,12.2 A 47.633,47.633 0 0 1 52.8,55.1 c 0.349,2.789 1.046,5.229 1.394,8.018 7.67,1.05 15.688,-0.693 23.706,-3.482 z"
         transform="translate(-51.406,-32.058)"
         fill="#ffce15" />
      <path
         id="Tracé_53"
         data-name="Tracé 53"
         d="m 76.557,62.682 c 8.367,-2.789 16.384,-6.972 24.751,-9.761 -0.349,-2.44 -1.046,-4.88 -1.394,-7.321 -7.669,2.789 -15.339,6.275 -23.008,9.064 C 68.887,57.453 61.218,59.2 53.2,57.8 c 0.349,2.44 1.046,5.229 1.394,7.669 v 0 c 7.321,1.396 14.642,-0.347 21.963,-2.787 z"
         transform="translate(-50.411,-27.086)"
         fill="#156c52" />
      <path
         id="Tracé_54"
         data-name="Tracé 54"
         d="M 60.624,65.064 H 54 c 0.349,2.44 1.046,5.229 1.394,7.669 22.659,1.394 45.667,-21.265 68.327,-14.99 l -1.394,-8.018 C 101.759,45.193 81.191,62.972 60.624,65.064 Z"
         transform="translate(-48.422,-18.661)"
         fill="#156c52" />
      <path
         id="Tracé_55"
         data-name="Tracé 55"
         d="m 59.426,70.505 h 2.44 C 82.434,68.414 103,50.635 123.57,55.167 l -1.23566,-8.09717 C 114.77867,45.652212 107.1829,47.609018 100.213,49.592 v 0 c -8.367,2.789 -16.384,6.972 -24.751,9.761 -7.321,2.44 -14.641,4.183 -21.962,3.137 0.349,2.789 1.046,5.229 1.394,7.669 v 0 c 1.46658,0.448592 3.014318,0.566756 4.532,0.346 z"
         transform="translate(-49.665,-24.103)"
         fill="#ffce15"
         sodipodi:nodetypes="cccccsccssc" />
    </g>
    <path
       id="Tracé_24"
       data-name="Tracé 24"
       d="m 107.80317,153.038 -0.80352,0.23438 -10.499288,-66.46938 -1.901341,-2.789 1.394,-3.835 2.44,3.486 -1.046,2.789 z"
       fill="#ffce15"
       sodipodi:nodetypes="cccccccc" />
  </g>
  <path
     id="path1769"
     style="font-variation-settings:normal;opacity:1;vector-effect:none;fill:none;fill-opacity:1;stroke:#000000;stroke-width:1.02743;stroke-linecap:butt;stroke-linejoin:miter;stroke-miterlimit:4;stroke-dasharray:none;stroke-dashoffset:0;stroke-opacity:1;stop-color:#000000;stop-opacity:1"
     d="m 155.86123,36.935699 c 28.95775,8.459567 51.73024,37.370815 51.73024,37.370815 l -13.8321,16.985698 -15.04682,-2.162867 5.78106,-8.919708 m -43.48298,-23.278051 10.9138,-4.203993 4.89829,-21.290769 c 0,0 -13.80419,-5.291607 -31.82221,-5.291607 -18.01802,0 -31.822204,5.291607 -31.822204,5.291607 l 4.898289,21.290769 10.913805,4.203993 m 42.83817,-4.395717 c 0,0 -11.34081,-4.534012 -26.82806,-4.534012 -15.48724,0 -26.828053,4.534012 -26.828053,4.534012 m 95.756823,38.085543 c 0,0 -19.74538,-26.735996 -53.03498,-33.512899 l 0.97388,-7.496168 M 94.139796,36.935699 C 65.182048,45.395266 42.409549,74.306514 42.409549,74.306514 l 13.832106,16.985698 15.046823,-2.162867 -5.781062,-8.919708 m -9.435671,10.411775 c 0,0 19.745375,-26.735996 53.034975,-33.512899 l -0.97388,-7.496168" />
  <g
     id="g1864"
     transform="matrix(1.0274282,0,0,1.0274282,0,-2)">
    <path
       id="path1794"
       data-name="Tracé 49"
       d="m 164.193,117.132 v 0 c -2.59088,-0.9798 -5.27869,-1.68109 -8.018,-2.092 h -0.347 c -1.394,-0.349 -2.44,-0.349 -3.835,-0.7 h -8.365 c -0.49125,-0.0512 -0.98483,0.0724 -1.394,0.349 v 0 l 3.832,-23.354 c 7.321,-0.349 14.989,1.743 22.31,4.532 -1.046,6.972 -2.788,13.944 -4.183,21.265 z"
       fill="#d21b33"
       sodipodi:nodetypes="ssccccscccs" />
    <path
       id="path1796"
       data-name="Tracé 50"
       d="m 154.432,107.023 -5.233,3.137 c 1.046,-1.743 1.743,-3.835 2.789,-5.578 a 41.778,41.778 0 0 1 -3.835,-4.183 29.989,29.989 0 0 1 5.578,0.349 41.618,41.618 0 0 0 2.793,-5.578 38.413,38.413 0 0 1 0.7,6.275 c 1.743,0.349 3.835,1.046 5.578,1.394 a 35.182,35.182 0 0 0 -5.229,2.44 34.346,34.346 0 0 1 0.7,5.926 49.684,49.684 0 0 1 -3.835,-4.183"
       fill="#ffffff" />
    <path
       id="path1798"
       data-name="Tracé 51"
       d="m 166.982,102.839 c 0.349,-2.44 1.046,-4.88 1.394,-6.972 15.688,5.926 31.027,14.99 46.714,10.458 -0.349,2.789 -1.046,5.229 -1.394,8.018 a 38.611,38.611 0 0 1 -6.624,0.7 c -13.247,0.346 -26.494,-7.323 -40.09,-12.204 z"
       fill="#156c52" />
    <path
       id="path1800"
       data-name="Tracé 52"
       d="m 188.596,118.875 c -7.669,-2.789 -15.339,-6.275 -23.008,-9.064 0.349,-2.44 1.046,-4.88 1.394,-6.972 13.247,4.88 26.843,12.55 40.09,12.2 a 47.633,47.633 0 0 0 6.624,-0.7 c -0.349,2.789 -1.046,5.229 -1.394,8.018 -7.67,1.05 -15.688,-0.693 -23.706,-3.482 z"
       fill="#ffce15" />
    <path
       id="path1802"
       data-name="Tracé 53"
       d="m 188.944,126.893 c -8.367,-2.789 -16.384,-6.972 -24.751,-9.761 0.349,-2.44 1.046,-4.88 1.394,-7.321 7.669,2.789 15.339,6.275 23.008,9.064 8.019,2.789 15.688,4.536 23.706,3.136 -0.349,2.44 -1.046,5.229 -1.394,7.669 v 0 c -7.321,1.396 -14.642,-0.347 -21.963,-2.787 z"
       fill="#156c52" />
    <path
       id="path1804"
       data-name="Tracé 54"
       d="m 202.888,137.7 h 6.624 c -0.349,2.44 -1.046,5.229 -1.394,7.669 -22.659,1.394 -45.667,-21.265 -68.327,-14.99 l 1.394,-8.018 c 20.568,-4.532 41.136,13.247 61.703,15.339 z"
       fill="#156c52" />
    <path
       id="path1806"
       data-name="Tracé 55"
       d="m 205.329,137.699 h -2.44 c -20.568,-2.091 -41.134,-19.87 -61.704,-15.338 l 1.23566,-8.09717 c 7.55567,-1.41762 15.15144,0.53919 22.12134,2.52217 v 0 c 8.367,2.789 16.384,6.972 24.751,9.761 7.321,2.44 14.641,4.183 21.962,3.137 -0.349,2.789 -1.046,5.229 -1.394,7.669 v 0 c -1.46658,0.44859 -3.01432,0.56676 -4.532,0.346 z"
       fill="#ffce15"
       sodipodi:nodetypes="cccccsccssc" />
    <path
       id="path1810"
       data-name="Tracé 24"
       d="m 135.52383,153.038 0.80352,0.23438 10.49929,-66.46938 1.90134,-2.789 -1.394,-3.835 -2.44,3.486 1.046,2.789 z"
       fill="#ffce15"
       sodipodi:nodetypes="cccccccc" />
  </g>
</svg>
