<?xml version="1.0" encoding="UTF-8" standalone="no"?>
<!-- Created with Inkscape (http://www.inkscape.org/) -->

<svg
   xmlns:dc="http://purl.org/dc/elements/1.1/"
   xmlns:cc="http://creativecommons.org/ns#"
   xmlns:rdf="http://www.w3.org/1999/02/22-rdf-syntax-ns#"
   xmlns:svg="http://www.w3.org/2000/svg"
   xmlns="http://www.w3.org/2000/svg"
   xmlns:sodipodi="http://sodipodi.sourceforge.net/DTD/sodipodi-0.dtd"
   xmlns:inkscape="http://www.inkscape.org/namespaces/inkscape"
   version="1.0"
   width="658.00079"
   height="729.09265"
   viewBox="0 0 658.00079 729.09263"
   id="Layer_1"
   xml:space="preserve"
   inkscape:version="0.92.2 (5c3e80d, 2017-08-06)"
   sodipodi:docname="Coat_of_arms_of_Kosovo.svg"><metadata
     id="metadata15"><rdf:RDF><cc:Work
         rdf:about=""><dc:format>image/svg+xml</dc:format><dc:type
           rdf:resource="http://purl.org/dc/dcmitype/StillImage" /><dc:title /></cc:Work></rdf:RDF></metadata><sodipodi:namedview
     pagecolor="#ffffff"
     bordercolor="#666666"
     borderopacity="1"
     objecttolerance="10"
     gridtolerance="10"
     guidetolerance="10"
     inkscape:pageopacity="0"
     inkscape:pageshadow="2"
     inkscape:window-width="1366"
     inkscape:window-height="705"
     id="namedview13"
     showgrid="false"
     fit-margin-top="0"
     fit-margin-left="0"
     fit-margin-right="0"
     fit-margin-bottom="0"
     inkscape:zoom="0.35355339"
     inkscape:cx="-12.570043"
     inkscape:cy="366.15143"
     inkscape:window-x="-8"
     inkscape:window-y="-8"
     inkscape:window-maximized="1"
     inkscape:current-layer="Layer_1" /><defs
     id="defs259" /><g
     id="g89"><path
       inkscape:connector-curvature="0"
       style="fill:#d0a650;fill-opacity:1;fill-rule:evenodd;stroke:#034ea2;stroke-width:2;stroke-miterlimit:4;stroke-dasharray:none;stroke-opacity:1"
       id="path238"
       d="m 329.00043,1 c 109.391,0 218.609,18.6 328,54.695 0,255.765 2.121,526.904 -328,672.305 C -1.2085715,582.599 1.0004285,311.46 1.0004285,55.695 110.30343,19.6 219.69643,1 329.00043,1 Z" /><path
       inkscape:connector-curvature="0"
       style="fill:#034ea2;fill-opacity:1"
       id="path242"
       d="m 329.00043,36.513 c 98.654,0 197.308,16.751 295.96,49.328 0,230.896 1.941,475.501 -295.96,606.732 C 31.055428,561.343 33.039428,316.737 33.039428,85.841 131.69243,53.265 230.34643,36.513 329.00043,36.513" /><path
       style="fill:#d0a650;stroke-width:1.18828976"
       inkscape:connector-curvature="0"
       d="m 334.39655,189.91318 c 4.17624,4.87389 6.97217,9.74397 6.97217,15.66762 -3.50641,1.73352 -8.35106,2.4414 -11.14699,5.57416 17.40999,-2.44266 20.87825,17.74555 40.37642,10.08458 0.70787,2.79597 3.50391,5.2361 6.97087,4.18126 l 2.08806,-5.56018 c 7.6432,-2.08808 5.55514,10.43788 13.94054,7.99649 4.17862,3.48608 1.3827,9.39575 4.17862,13.58971 0,4.865 2.08937,9.04118 4.17494,13.21608 2.08937,-2.42361 3.46826,-5.90969 8.35106,-4.865 3.46826,3.82159 6.26431,7.30766 6.96968,11.48256 -1.41454,8.01555 -3.5026,14.96864 4.84846,19.14354 v 2.44139 c 5.59197,2.4414 18.11916,-2.44139 18.11916,7.30767 -0.71048,3.48608 3.46707,0.35458 4.8828,2.44139 3.46826,-1.39799 8.35107,-0.68883 12.526,-0.68883 3.46826,7.30768 -4.17493,12.52598 -6.263,19.14354 3.46696,3.46829 2.08807,9.74906 1.3802,13.90491 l -2.08937,1.04467 c 5.55514,1.04341 12.526,-0.67103 17.4113,2.46046 l 9.05893,3.46701 c 4.17493,-2.42234 9.02339,-2.7947 14.61406,-2.42234 4.17624,3.13277 -1.41573,8.35108 2.08937,10.77468 4.88411,0 9.05893,0.70917 9.72995,4.88533 l 0.70799,1.37893 c 3.46826,-6.26426 13.23505,-2.08936 17.41129,-6.5985 6.97087,0 8.34976,7.64318 11.81683,11.81934 1.41704,10.81027 -11.81683,15.6956 -7.64201,26.46901 -2.79592,5.2183 -8.35106,9.39574 -12.52588,14.27853 1.37889,0.7079 0.66972,2.42362 0.66972,3.46702 -4.17494,2.46173 -0.66972,9.76812 -6.263,10.4417 -0.67103,4.54599 -9.02209,2.7947 -6.263,7.67749 5.59067,7.30767 -2.75909,11.81935 -2.75909,18.45472 -3.5051,3.83938 -10.47596,-3.50514 -10.47596,3.83938 -4.17625,1.0434 -8.35106,-3.83938 -11.11027,0.33679 -1.41573,4.88406 2.75921,6.5985 2.08806,11.48256 6.93533,-0.70916 9.0234,6.26299 11.81944,10.43916 l 6.97087,6.97088 c -6.97087,5.55509 -16.0311,-0.70917 -24.38347,2.42233 -2.08806,-1.04342 0,-3.80253 -2.08806,-4.84594 -2.08807,-2.46172 -6.263,-2.46172 -9.73008,-3.13403 0.67103,3.13403 -5.59185,4.17617 -2.79593,7.9787 0,1.0434 1.3789,4.17617 -1.38019,4.17617 -5.59198,1.75256 -4.88281,-4.84594 -9.7681,-2.4236 -6.263,2.4236 -1.37889,11.81935 -10.43794,10.77466 1.37901,8.38921 -13.90608,13.9443 -3.46826,21.25197 1.37889,1.38019 0.67103,4.1749 0.67103,6.26298 -6.26419,5.59196 -17.37565,3.50514 -24.34533,1.41579 -5.59197,-1.41579 -2.08806,-8.38793 -4.17494,-12.19045 -2.08806,-3.50388 -8.35106,-5.92748 -8.35106,-10.81154 -4.17862,-1.71698 -7.68004,-2.79343 -10.47596,-6.26426 -9.72996,9.39575 -21.58243,18.45471 -35.49244,18.79024 -6.26288,3.13148 -9.76679,15.69685 -19.49805,10.47473 -3.82166,6.26554 -15.32323,0 -16.01327,9.02465 -4.52953,1.7513 -2.44146,7.67876 -5.21838,10.43789 -1.04462,6.97088 0,12.89834 5.90842,17.07578 2.44134,5.21832 -5.21957,5.21832 -2.08807,10.10365 0.70917,1.71571 0,4.17489 -1.04343,4.88279 -2.08807,1.0434 -2.77692,2.08935 -2.08807,4.17616 -1.73347,0 -2.44015,1.04342 -3.82166,2.42234 -1.75249,3.46828 -7.30761,5.21958 -11.147,7.64318 -3.82159,1.04341 -6.61756,-1.71571 -9.04116,-4.1749 -0.70916,3.83938 -3.83939,5.92747 -7.66098,5.92747 -5.57416,0 -4.52947,-4.88406 -8.70564,-6.97087 1.7335,-6.26426 -3.83939,-9.02338 -2.08809,-14.61534 4.5282,-3.467 12.17266,-5.92746 10.08457,-13.23385 -4.865,-5.89189 -3.1315,-14.61534 -7.99648,-21.58621 -3.1315,-2.75912 -8.35108,-6.93402 -6.61758,-13.57065 4.52949,-5.21831 0,-11.48257 -2.44139,-17.03767 -1.04341,-4.54727 -3.8216,-8.72216 -3.8216,-13.94302 -7.66096,-4.51042 -8.01555,-16.36663 -18.80801,-17.41003 -7.66098,0 -9.04117,-9.73127 -16.70215,-9.06023 -0.70789,-1.37893 -2.44139,-2.42234 -3.83938,-3.80253 -5.5551,3.80253 -12.52597,-1.04341 -19.48033,0.67103 -4.52948,-7.64318 3.8216,-18.08234 -8.36887,-22.63089 v -4.84592 c 1.39799,0.66976 2.08809,-0.71044 2.44141,-1.41705 0.69009,-5.21959 -8.70565,-5.89062 -4.86501,-11.81936 -2.08808,-1.7513 -4.52947,-2.46046 -3.13148,-5.92746 -5.23738,-10.77468 -20.89612,-9.73001 -24.38219,-20.54153 2.79597,-2.42234 2.79597,-4.88406 3.84066,-6.97088 -2.44267,-4.17617 -3.1315,-8.68786 -2.44267,-13.19828 2.44267,-0.70916 3.82158,-3.83938 5.21957,-6.30111 -3.13149,-2.08682 -6.95434,-5.21831 -10.43915,-4.17491 -6.26299,-1.0434 -10.79373,-5.89061 -16.36662,-8.68658 -1.39799,-1.3802 -0.68883,-3.83939 -0.68883,-5.5551 7.6597,-2.46172 -1.04341,-13.2542 8.35106,-11.85494 2.44268,-3.13149 7.66098,-4.17616 11.48385,-6.61756 3.83938,-0.68883 6.97088,0.70788 10.79246,1.75257 3.13149,4.1571 8.70565,2.4236 11.83588,5.9084 3.13149,-0.70789 6.97215,-2.44267 10.79374,-0.70789 0,-5.90967 2.77818,-9.39574 6.97087,-13.57192 0.6901,-2.42361 4.51169,-4.1749 7.64318,-5.5551 5.92874,1.3802 12.88183,1.3802 17.07579,-2.79597 2.77818,1.7513 5.21958,-1.7335 8.35107,-1.7335 3.82032,-0.7079 6.95308,0.33551 9.74906,2.08808 0.33552,-6.97214 12.52598,-1.04468 14.96864,-9.39576 2.77818,-5.57416 -7.66098,-7.66097 -6.97215,-12.54503 -1.7335,-5.57415 2.44267,-8.35107 4.52949,-12.17267 2.44138,-1.04467 5.21957,-2.44138 8.35107,-1.75256 8.01555,-2.77818 1.75129,-19.14354 14.63311,-13.21607 0,1.73478 -0.70789,3.8216 0.33553,4.17617 4.52947,0 5.22466,-5.22466 8.37013,-6.97088 1.37893,-4.865 -1.7513,-10.79246 2.4236,-14.61532 2.08809,-0.35331 3.83939,-1.04341 5.21958,-2.79597 0,-3.8216 -2.08809,-5.90842 -5.21958,-8.35108 -1.04341,1.73986 -3.82158,0.35458 -5.56907,1.04467 0,-4.17617 -2.42869,-6.95307 -3.13658,-10.79373 -2.08808,-1.04341 -3.1315,-2.77692 -2.42361,-5.21958 3.1315,-3.1315 0,-10.79247 7.30768,-9.05514 2.77817,-2.42742 7.66097,-0.69392 10.43915,-4.87009 7.30767,-4.1749 17.05548,-4.1749 22.62963,-11.83588 2.44134,0.35332 5.21956,-2.08808 7.66091,0 0.69146,4.52822 7.30893,2.77564 7.30893,6.96072"
       id="path26" /><path
       inkscape:connector-curvature="0"
       id="polygon37"
       d="m 388.29607,95.521664 -9.62515,-29.588416 -9.50632,29.588416 h -31.13319 l 25.19174,18.299666 -9.62515,29.58841 25.07292,-18.29966 25.19174,18.29966 -9.62514,-29.58841 25.19174,-18.299666 z"
       style="fill:#ffffff;stroke-width:1.18828976" /><path
       inkscape:connector-curvature="0"
       id="polygon39"
       d="M 486.21115,112.75187 476.586,83.282279 467.07968,112.75187 h -31.13319 l 25.19174,18.29966 -9.62515,29.58841 25.07292,-18.29966 25.19174,18.29966 -9.62514,-29.58841 25.19174,-18.29966 z"
       style="fill:#ffffff;stroke-width:1.18828976" /><path
       inkscape:connector-curvature="0"
       id="polygon41"
       d="m 579.61072,146.73695 -9.50631,-29.46958 -9.62515,29.46958 h -31.13319 l 25.19174,18.29967 -9.62515,29.58841 25.19175,-18.29966 25.07291,18.29966 -9.62515,-29.58841 25.19175,-18.29967 z"
       style="fill:#ffffff;stroke-width:1.18828976" /><path
       inkscape:connector-curvature="0"
       id="polygon43"
       d="m 288.83621,95.521664 -9.50632,-29.588416 -9.62515,29.588416 h -31.13319 l 25.19175,18.299666 -9.62515,29.58841 25.19174,-18.29966 25.07292,18.29966 -9.62515,-29.58841 25.19174,-18.299666 z"
       style="fill:#ffffff;stroke-width:1.18828976" /><path
       inkscape:connector-curvature="0"
       id="polygon45"
       d="m 190.92113,112.75187 -9.50632,-29.469591 -9.62514,29.469591 h -31.1332 l 25.19175,18.29966 -9.62515,29.58841 25.19174,-18.29966 25.07292,18.29966 -9.62515,-29.58841 25.19174,-18.29966 z"
       style="fill:#ffffff;stroke-width:1.18828976" /><path
       inkscape:connector-curvature="0"
       id="polygon47"
       d="m 97.521553,146.73695 -9.625147,-29.46958 -9.506319,29.46958 H 47.256894 l 25.191744,18.29967 -9.625147,29.58841 25.072915,-18.29966 25.191744,18.29966 -9.62515,-29.58841 25.19175,-18.29967 z"
       style="fill:#ffffff;stroke-width:1.18828976" /></g></svg>